M48
; DRILL file {KiCad 9.0.0} date 2025-04-24T15:50:15+0200
; FORMAT={-:-/ absolute / metric / decimal}
; #@! TF.CreationDate,2025-04-24T15:50:15+02:00
; #@! TF.GenerationSoftware,Kicad,Pcbnew,9.0.0
; #@! TF.FileFunction,Plated,1,2,PTH
FMAT,2
METRIC
; #@! TA.AperFunction,Plated,PTH,ViaDrill
T1C0.300
; #@! TA.AperFunction,Plated,PTH,ViaDrill
T2C0.400
; #@! TA.AperFunction,Plated,PTH,ComponentDrill
T3C1.000
; #@! TA.AperFunction,Plated,PTH,ComponentDrill
T4C1.500
%
G90
G05
T1
X165.55Y-103.1
X166.5Y-103.1
X167.5Y-103.1
X168.3Y-100.3
X168.3Y-101.25
X168.3Y-102.25
X169.9Y-100.65
X170.1Y-84.05
X170.1Y-88.3
X170.2Y-89.45
X170.75Y-83.35
X171.11Y-108.72
X171.15Y-84.15
X171.45Y-87.25
X171.5Y-86.2
X171.55Y-84.95
X171.85Y-88.65
X173.55Y-90.09
X174.85Y-92.45
X175.51Y-76.99
X176.75Y-94.8
X176.95Y-82.1
X177.96Y-82.66
X178.816Y-86.293
X179.174Y-89.426
X179.46Y-90.81
X180.95Y-93.11
X181.4Y-86.0
X182.0Y-94.5
X182.05Y-103.4
X182.75Y-77.85
X182.8Y-76.45
X182.8Y-79.1
X183.85Y-76.1
X183.9Y-79.45
X195.97Y-80.29
X197.17Y-103.94
T2
X192.64Y-77.8
X197.055Y-96.955
T3
X174.03Y-108.9
X176.57Y-108.9
X179.11Y-108.9
X181.65Y-108.9
T4
X166.49Y-96.245
X166.49Y-101.245
X194.075Y-99.0
X199.075Y-99.0
M30
