%TF.GenerationSoftware,KiCad,Pcbnew,9.0.0*%
%TF.CreationDate,2025-04-24T15:50:13+02:00*%
%TF.ProjectId,pwrv3,70777276-332e-46b6-9963-61645f706362,rev?*%
%TF.SameCoordinates,Original*%
%TF.FileFunction,Copper,L2,Bot*%
%TF.FilePolarity,Positive*%
%FSLAX46Y46*%
G04 Gerber Fmt 4.6, Leading zero omitted, Abs format (unit mm)*
G04 Created by KiCad (PCBNEW 9.0.0) date 2025-04-24 15:50:13*
%MOMM*%
%LPD*%
G01*
G04 APERTURE LIST*
%TA.AperFunction,WasherPad*%
%ADD10C,2.400000*%
%TD*%
%TA.AperFunction,ComponentPad*%
%ADD11R,2.300000X2.300000*%
%TD*%
%TA.AperFunction,ComponentPad*%
%ADD12C,2.300000*%
%TD*%
%TA.AperFunction,ComponentPad*%
%ADD13R,1.700000X1.700000*%
%TD*%
%TA.AperFunction,ComponentPad*%
%ADD14O,1.700000X1.700000*%
%TD*%
%TA.AperFunction,ViaPad*%
%ADD15C,0.600000*%
%TD*%
%TA.AperFunction,Conductor*%
%ADD16C,0.200000*%
%TD*%
%TA.AperFunction,Conductor*%
%ADD17C,2.400000*%
%TD*%
G04 APERTURE END LIST*
D10*
%TO.P,H3,*%
%TO.N,*%
X198350000Y-108000000D03*
%TD*%
%TO.P,H3,*%
%TO.N,*%
X168000000Y-108000000D03*
%TD*%
D11*
%TO.P,J3,1,1*%
%TO.N,GND*%
X166490000Y-101245000D03*
D12*
%TO.P,J3,2,2*%
%TO.N,Net-(F1-Pad1)*%
X166490000Y-96245000D03*
%TD*%
D11*
%TO.P,J1,1,1*%
%TO.N,GND*%
X194075000Y-99000000D03*
D12*
%TO.P,J1,2,2*%
%TO.N,Net-(C15-+)*%
X199075000Y-99000000D03*
%TD*%
D10*
%TO.P,H2,*%
%TO.N,*%
X198300000Y-77450000D03*
%TD*%
D13*
%TO.P,J4,1,Pin_1*%
%TO.N,GND*%
X181650000Y-108900000D03*
D14*
%TO.P,J4,2,Pin_2*%
%TO.N,+5V*%
X179110000Y-108900000D03*
%TO.P,J4,3,Pin_3*%
%TO.N,GND*%
X176570000Y-108900000D03*
%TO.P,J4,4,Pin_4*%
%TO.N,+5V*%
X174030000Y-108900000D03*
%TD*%
D10*
%TO.P,H2,*%
%TO.N,*%
X168000000Y-77500000D03*
%TD*%
D15*
%TO.N,GND*%
X173550000Y-90090000D03*
X179460000Y-90810000D03*
X182750000Y-77850000D03*
X168300000Y-101250000D03*
X182800000Y-79100000D03*
X183900000Y-79450000D03*
X177960000Y-82660000D03*
X168300000Y-100300000D03*
X171500000Y-86200000D03*
X180950000Y-93110000D03*
X170750000Y-83350000D03*
X168300000Y-102250000D03*
X171550000Y-84950000D03*
X171110000Y-108720000D03*
X171450000Y-87250000D03*
X183850000Y-76100000D03*
X195970000Y-80290000D03*
X167500000Y-103100000D03*
X170100000Y-84050000D03*
X176950000Y-82100000D03*
X182800000Y-76450000D03*
X171150000Y-84150000D03*
X166500000Y-103100000D03*
X165550000Y-103100000D03*
X197170000Y-103940000D03*
X175510000Y-76990000D03*
X170100000Y-88300000D03*
%TO.N,Net-(IC2-HO)*%
X181400000Y-86000000D03*
X178815999Y-86292528D03*
%TO.N,Net-(IC2-VCC)*%
X179174265Y-89425735D03*
X174850000Y-92450000D03*
%TO.N,Net-(IC2-COMP)*%
X170200000Y-89450000D03*
X176750000Y-94800000D03*
%TO.N,Net-(IC2-FB)*%
X182000000Y-94500000D03*
X171850000Y-88650000D03*
%TO.N,Net-(C15-+)*%
X192640000Y-77800000D03*
X197055000Y-96955000D03*
%TO.N,+12V*%
X169900000Y-100650000D03*
X182050000Y-103400000D03*
%TD*%
D16*
%TO.N,Net-(IC2-HO)*%
X181400000Y-86150000D02*
X181257472Y-86292528D01*
X181257472Y-86292528D02*
X178815999Y-86292528D01*
X181400000Y-86000000D02*
X181400000Y-86150000D01*
%TO.N,Net-(IC2-VCC)*%
X174850000Y-92450000D02*
X175530000Y-91770000D01*
X175530000Y-91770000D02*
X177340000Y-91770000D01*
X177340000Y-91770000D02*
X179174265Y-89935735D01*
X179174265Y-89935735D02*
X179174265Y-89425735D01*
%TO.N,Net-(IC2-COMP)*%
X170000000Y-92417043D02*
X170000000Y-89650000D01*
X170000000Y-89650000D02*
X170200000Y-89450000D01*
X176750000Y-94800000D02*
X176401000Y-94451000D01*
X172033957Y-94451000D02*
X170000000Y-92417043D01*
X176401000Y-94451000D02*
X172033957Y-94451000D01*
%TO.N,Net-(IC2-FB)*%
X181550000Y-94050000D02*
X172200057Y-94050000D01*
X170500000Y-90000000D02*
X171850000Y-88650000D01*
X182000000Y-94500000D02*
X181550000Y-94050000D01*
X172200057Y-94050000D02*
X170500000Y-92349943D01*
X170500000Y-92349943D02*
X170500000Y-90000000D01*
D17*
%TO.N,Net-(C15-+)*%
X192640000Y-77800000D02*
X192640000Y-92540000D01*
X192640000Y-92540000D02*
X197055000Y-96955000D01*
D16*
%TO.N,+12V*%
X182050000Y-103400000D02*
X172650000Y-103400000D01*
X172650000Y-103400000D02*
X169900000Y-100650000D01*
%TD*%
%TA.AperFunction,Conductor*%
%TO.N,GND*%
G36*
X199352231Y-74510634D02*
G01*
X199646821Y-74528454D01*
X199655673Y-74529528D01*
X199943784Y-74582327D01*
X199952435Y-74584460D01*
X200232062Y-74671595D01*
X200240401Y-74674757D01*
X200507497Y-74794967D01*
X200515409Y-74799120D01*
X200766046Y-74950636D01*
X200773400Y-74955712D01*
X201003951Y-75136336D01*
X201010640Y-75142262D01*
X201217737Y-75349359D01*
X201223663Y-75356048D01*
X201404287Y-75586599D01*
X201409363Y-75593953D01*
X201560879Y-75844590D01*
X201565032Y-75852502D01*
X201685239Y-76119590D01*
X201688407Y-76127946D01*
X201742702Y-76302186D01*
X201775536Y-76407552D01*
X201777675Y-76416228D01*
X201830469Y-76704317D01*
X201831546Y-76713188D01*
X201849365Y-77007768D01*
X201849500Y-77012236D01*
X201849500Y-108497763D01*
X201849365Y-108502231D01*
X201831546Y-108796811D01*
X201830469Y-108805682D01*
X201777675Y-109093771D01*
X201775536Y-109102447D01*
X201688407Y-109382053D01*
X201685239Y-109390409D01*
X201565032Y-109657497D01*
X201560879Y-109665409D01*
X201409363Y-109916046D01*
X201404287Y-109923400D01*
X201223663Y-110153951D01*
X201217737Y-110160640D01*
X201010640Y-110367737D01*
X201003951Y-110373663D01*
X200773400Y-110554287D01*
X200766046Y-110559363D01*
X200515409Y-110710879D01*
X200507497Y-110715032D01*
X200240409Y-110835239D01*
X200232053Y-110838407D01*
X199952447Y-110925536D01*
X199943771Y-110927675D01*
X199655682Y-110980469D01*
X199646811Y-110981546D01*
X199352232Y-110999365D01*
X199347764Y-110999500D01*
X167002236Y-110999500D01*
X166997768Y-110999365D01*
X166703188Y-110981546D01*
X166694317Y-110980469D01*
X166406228Y-110927675D01*
X166397552Y-110925536D01*
X166117946Y-110838407D01*
X166109590Y-110835239D01*
X165842502Y-110715032D01*
X165834590Y-110710879D01*
X165583953Y-110559363D01*
X165576599Y-110554287D01*
X165346048Y-110373663D01*
X165339359Y-110367737D01*
X165132262Y-110160640D01*
X165126336Y-110153951D01*
X164945712Y-109923400D01*
X164940636Y-109916046D01*
X164789120Y-109665409D01*
X164784967Y-109657497D01*
X164745433Y-109569656D01*
X164664757Y-109390401D01*
X164661595Y-109382062D01*
X164574460Y-109102435D01*
X164572327Y-109093784D01*
X164519528Y-108805673D01*
X164518454Y-108796821D01*
X164500635Y-108502231D01*
X164500500Y-108497763D01*
X164500500Y-107889776D01*
X166599500Y-107889776D01*
X166599500Y-108110223D01*
X166633984Y-108327948D01*
X166633987Y-108327961D01*
X166702103Y-108537602D01*
X166702104Y-108537605D01*
X166702105Y-108537606D01*
X166730699Y-108593725D01*
X166802186Y-108734023D01*
X166802186Y-108734024D01*
X166851051Y-108801281D01*
X166931758Y-108912365D01*
X167087635Y-109068242D01*
X167265978Y-109197815D01*
X167462394Y-109297895D01*
X167462397Y-109297896D01*
X167462396Y-109297896D01*
X167672038Y-109366012D01*
X167672044Y-109366013D01*
X167672049Y-109366015D01*
X167773309Y-109382053D01*
X167889776Y-109400500D01*
X167889778Y-109400500D01*
X168110224Y-109400500D01*
X168226691Y-109382053D01*
X168327951Y-109366015D01*
X168327958Y-109366012D01*
X168327961Y-109366012D01*
X168423133Y-109335088D01*
X168537606Y-109297895D01*
X168734022Y-109197815D01*
X168912365Y-109068242D01*
X169068242Y-108912365D01*
X169148949Y-108801281D01*
X169152397Y-108796535D01*
X172979500Y-108796535D01*
X172979500Y-109003464D01*
X173019868Y-109206413D01*
X173019870Y-109206420D01*
X173099059Y-109397598D01*
X173213810Y-109569337D01*
X173214023Y-109569655D01*
X173360345Y-109715977D01*
X173532402Y-109830941D01*
X173723580Y-109910130D01*
X173926535Y-109950500D01*
X173926536Y-109950500D01*
X174133464Y-109950500D01*
X174133465Y-109950500D01*
X174336420Y-109910130D01*
X174527598Y-109830941D01*
X174699655Y-109715977D01*
X174845977Y-109569655D01*
X174960941Y-109397598D01*
X175040130Y-109206420D01*
X175080500Y-109003465D01*
X175080500Y-108796584D01*
X175520000Y-108796584D01*
X175520000Y-108800000D01*
X176079157Y-108800000D01*
X176070000Y-108834174D01*
X176070000Y-108965826D01*
X176079157Y-109000000D01*
X175520000Y-109000000D01*
X175520000Y-109003415D01*
X175560348Y-109206267D01*
X175560350Y-109206274D01*
X175639500Y-109397358D01*
X175754410Y-109569335D01*
X175900664Y-109715589D01*
X176072641Y-109830499D01*
X176263725Y-109909649D01*
X176263732Y-109909651D01*
X176466584Y-109950000D01*
X176470000Y-109950000D01*
X176470000Y-109390842D01*
X176504174Y-109400000D01*
X176635826Y-109400000D01*
X176670000Y-109390842D01*
X176670000Y-109950000D01*
X176673416Y-109950000D01*
X176876267Y-109909651D01*
X176876274Y-109909649D01*
X177067358Y-109830499D01*
X177239335Y-109715589D01*
X177239337Y-109715588D01*
X177385588Y-109569337D01*
X177385589Y-109569335D01*
X177500499Y-109397358D01*
X177579649Y-109206274D01*
X177579651Y-109206267D01*
X177620000Y-109003415D01*
X177620000Y-109000000D01*
X177060843Y-109000000D01*
X177070000Y-108965826D01*
X177070000Y-108834174D01*
X177060843Y-108800000D01*
X177620000Y-108800000D01*
X177620000Y-108796591D01*
X177619998Y-108796577D01*
X177619990Y-108796535D01*
X178059500Y-108796535D01*
X178059500Y-109003464D01*
X178099868Y-109206413D01*
X178099870Y-109206420D01*
X178179059Y-109397598D01*
X178293810Y-109569337D01*
X178294023Y-109569655D01*
X178440345Y-109715977D01*
X178612402Y-109830941D01*
X178803580Y-109910130D01*
X179006535Y-109950500D01*
X179006536Y-109950500D01*
X179213464Y-109950500D01*
X179213465Y-109950500D01*
X179416420Y-109910130D01*
X179607598Y-109830941D01*
X179779655Y-109715977D01*
X179925977Y-109569655D01*
X180040941Y-109397598D01*
X180120130Y-109206420D01*
X180160500Y-109003465D01*
X180160500Y-108796535D01*
X180120130Y-108593580D01*
X180040941Y-108402402D01*
X179925977Y-108230345D01*
X179779655Y-108084023D01*
X179699255Y-108030302D01*
X180600000Y-108030302D01*
X180600000Y-108800000D01*
X181159157Y-108800000D01*
X181150000Y-108834174D01*
X181150000Y-108965826D01*
X181159157Y-109000000D01*
X180600000Y-109000000D01*
X180600000Y-109769697D01*
X180611603Y-109828035D01*
X180655807Y-109894191D01*
X180655808Y-109894192D01*
X180721964Y-109938396D01*
X180780303Y-109950000D01*
X181550000Y-109950000D01*
X181550000Y-109390842D01*
X181584174Y-109400000D01*
X181715826Y-109400000D01*
X181750000Y-109390842D01*
X181750000Y-109950000D01*
X182519697Y-109950000D01*
X182578035Y-109938396D01*
X182644191Y-109894192D01*
X182644192Y-109894191D01*
X182688396Y-109828035D01*
X182700000Y-109769697D01*
X182700000Y-109000000D01*
X182140843Y-109000000D01*
X182150000Y-108965826D01*
X182150000Y-108834174D01*
X182140843Y-108800000D01*
X182700000Y-108800000D01*
X182700000Y-108030302D01*
X182688396Y-107971964D01*
X182659009Y-107927983D01*
X182644192Y-107905808D01*
X182644191Y-107905807D01*
X182620199Y-107889776D01*
X196949500Y-107889776D01*
X196949500Y-108110223D01*
X196983984Y-108327948D01*
X196983987Y-108327961D01*
X197052103Y-108537602D01*
X197052104Y-108537605D01*
X197052105Y-108537606D01*
X197080699Y-108593725D01*
X197152186Y-108734023D01*
X197152186Y-108734024D01*
X197201051Y-108801281D01*
X197281758Y-108912365D01*
X197437635Y-109068242D01*
X197615978Y-109197815D01*
X197812394Y-109297895D01*
X197812397Y-109297896D01*
X197812396Y-109297896D01*
X198022038Y-109366012D01*
X198022044Y-109366013D01*
X198022049Y-109366015D01*
X198123309Y-109382053D01*
X198239776Y-109400500D01*
X198239778Y-109400500D01*
X198460224Y-109400500D01*
X198576691Y-109382053D01*
X198677951Y-109366015D01*
X198677958Y-109366012D01*
X198677961Y-109366012D01*
X198773133Y-109335088D01*
X198887606Y-109297895D01*
X199084022Y-109197815D01*
X199262365Y-109068242D01*
X199418242Y-108912365D01*
X199547815Y-108734022D01*
X199647895Y-108537606D01*
X199716015Y-108327951D01*
X199750500Y-108110222D01*
X199750500Y-107889778D01*
X199716015Y-107672049D01*
X199716013Y-107672044D01*
X199716012Y-107672038D01*
X199647896Y-107462397D01*
X199647895Y-107462396D01*
X199647895Y-107462394D01*
X199547815Y-107265978D01*
X199418242Y-107087635D01*
X199262365Y-106931758D01*
X199158441Y-106856253D01*
X199084024Y-106802186D01*
X198887602Y-106702103D01*
X198887603Y-106702103D01*
X198677961Y-106633987D01*
X198677948Y-106633984D01*
X198460224Y-106599500D01*
X198460222Y-106599500D01*
X198239778Y-106599500D01*
X198239776Y-106599500D01*
X198022051Y-106633984D01*
X198022038Y-106633987D01*
X197812397Y-106702103D01*
X197615976Y-106802186D01*
X197615975Y-106802186D01*
X197437639Y-106931755D01*
X197437635Y-106931758D01*
X197281758Y-107087635D01*
X197281755Y-107087638D01*
X197281755Y-107087639D01*
X197152186Y-107265975D01*
X197152186Y-107265976D01*
X197052103Y-107462397D01*
X196983987Y-107672038D01*
X196983984Y-107672051D01*
X196949500Y-107889776D01*
X182620199Y-107889776D01*
X182578035Y-107861603D01*
X182519697Y-107850000D01*
X181750000Y-107850000D01*
X181750000Y-108409157D01*
X181715826Y-108400000D01*
X181584174Y-108400000D01*
X181550000Y-108409157D01*
X181550000Y-107850000D01*
X180780303Y-107850000D01*
X180721964Y-107861603D01*
X180655808Y-107905807D01*
X180655807Y-107905808D01*
X180611603Y-107971964D01*
X180600000Y-108030302D01*
X179699255Y-108030302D01*
X179607598Y-107969059D01*
X179416420Y-107889870D01*
X179416413Y-107889868D01*
X179263516Y-107859455D01*
X179213465Y-107849500D01*
X179006535Y-107849500D01*
X178966385Y-107857486D01*
X178803586Y-107889868D01*
X178803579Y-107889870D01*
X178612401Y-107969059D01*
X178440345Y-108084022D01*
X178440344Y-108084024D01*
X178294024Y-108230344D01*
X178294022Y-108230345D01*
X178179059Y-108402401D01*
X178099870Y-108593579D01*
X178099868Y-108593586D01*
X178059500Y-108796535D01*
X177619990Y-108796535D01*
X177579651Y-108593732D01*
X177579649Y-108593725D01*
X177500499Y-108402641D01*
X177385589Y-108230664D01*
X177239335Y-108084410D01*
X177067358Y-107969500D01*
X176876274Y-107890350D01*
X176876267Y-107890348D01*
X176673416Y-107850000D01*
X176670000Y-107850000D01*
X176670000Y-108409157D01*
X176635826Y-108400000D01*
X176504174Y-108400000D01*
X176470000Y-108409157D01*
X176470000Y-107850000D01*
X176466584Y-107850000D01*
X176263732Y-107890348D01*
X176263725Y-107890350D01*
X176072641Y-107969500D01*
X175900664Y-108084410D01*
X175900663Y-108084412D01*
X175754412Y-108230663D01*
X175754410Y-108230664D01*
X175639500Y-108402641D01*
X175560350Y-108593725D01*
X175560348Y-108593732D01*
X175520000Y-108796584D01*
X175080500Y-108796584D01*
X175080500Y-108796535D01*
X175040130Y-108593580D01*
X174960941Y-108402402D01*
X174845977Y-108230345D01*
X174699655Y-108084023D01*
X174619255Y-108030302D01*
X174527598Y-107969059D01*
X174336420Y-107889870D01*
X174336413Y-107889868D01*
X174183516Y-107859455D01*
X174133465Y-107849500D01*
X173926535Y-107849500D01*
X173886385Y-107857486D01*
X173723586Y-107889868D01*
X173723579Y-107889870D01*
X173532401Y-107969059D01*
X173360345Y-108084022D01*
X173360344Y-108084024D01*
X173214024Y-108230344D01*
X173214022Y-108230345D01*
X173099059Y-108402401D01*
X173019870Y-108593579D01*
X173019868Y-108593586D01*
X172979500Y-108796535D01*
X169152397Y-108796535D01*
X169186640Y-108749404D01*
X169194356Y-108738781D01*
X169197815Y-108734022D01*
X169297895Y-108537606D01*
X169366015Y-108327951D01*
X169400500Y-108110222D01*
X169400500Y-107889778D01*
X169366015Y-107672049D01*
X169366013Y-107672044D01*
X169366012Y-107672038D01*
X169297896Y-107462397D01*
X169297895Y-107462396D01*
X169297895Y-107462394D01*
X169197815Y-107265978D01*
X169068242Y-107087635D01*
X168912365Y-106931758D01*
X168808441Y-106856253D01*
X168734024Y-106802186D01*
X168537602Y-106702103D01*
X168537603Y-106702103D01*
X168327961Y-106633987D01*
X168327948Y-106633984D01*
X168110224Y-106599500D01*
X168110222Y-106599500D01*
X167889778Y-106599500D01*
X167889776Y-106599500D01*
X167672051Y-106633984D01*
X167672038Y-106633987D01*
X167462397Y-106702103D01*
X167265976Y-106802186D01*
X167265975Y-106802186D01*
X167087639Y-106931755D01*
X167087635Y-106931758D01*
X166931758Y-107087635D01*
X166931755Y-107087638D01*
X166931755Y-107087639D01*
X166802186Y-107265975D01*
X166802186Y-107265976D01*
X166702103Y-107462397D01*
X166633987Y-107672038D01*
X166633984Y-107672051D01*
X166599500Y-107889776D01*
X164500500Y-107889776D01*
X164500500Y-100075302D01*
X165140000Y-100075302D01*
X165140000Y-101145000D01*
X165745198Y-101145000D01*
X165740000Y-101171131D01*
X165740000Y-101318869D01*
X165745198Y-101345000D01*
X165140000Y-101345000D01*
X165140000Y-102414697D01*
X165151603Y-102473035D01*
X165195807Y-102539191D01*
X165195808Y-102539192D01*
X165261964Y-102583396D01*
X165320303Y-102595000D01*
X166390000Y-102595000D01*
X166390000Y-101989802D01*
X166416131Y-101995000D01*
X166563869Y-101995000D01*
X166590000Y-101989802D01*
X166590000Y-102595000D01*
X167659697Y-102595000D01*
X167718035Y-102583396D01*
X167784191Y-102539192D01*
X167784192Y-102539191D01*
X167828396Y-102473035D01*
X167840000Y-102414697D01*
X167840000Y-101345000D01*
X167234802Y-101345000D01*
X167240000Y-101318869D01*
X167240000Y-101171131D01*
X167234802Y-101145000D01*
X167840000Y-101145000D01*
X167840000Y-100584105D01*
X169399500Y-100584105D01*
X169399500Y-100715894D01*
X169433606Y-100843181D01*
X169433607Y-100843184D01*
X169433608Y-100843186D01*
X169499500Y-100957314D01*
X169592686Y-101050500D01*
X169706814Y-101116392D01*
X169834105Y-101150499D01*
X169834106Y-101150500D01*
X169944877Y-101150500D01*
X169997203Y-101172174D01*
X172409540Y-103584511D01*
X172465489Y-103640460D01*
X172534011Y-103680021D01*
X172534012Y-103680021D01*
X172534014Y-103680022D01*
X172572224Y-103690260D01*
X172610435Y-103700499D01*
X172610436Y-103700500D01*
X172610438Y-103700500D01*
X172689562Y-103700500D01*
X181612034Y-103700500D01*
X181664360Y-103722174D01*
X181742686Y-103800500D01*
X181856814Y-103866392D01*
X181984105Y-103900499D01*
X181984106Y-103900500D01*
X181984108Y-103900500D01*
X182115894Y-103900500D01*
X182115894Y-103900499D01*
X182243186Y-103866392D01*
X182357314Y-103800500D01*
X182450500Y-103707314D01*
X182516392Y-103593186D01*
X182550499Y-103465894D01*
X182550500Y-103465894D01*
X182550500Y-103334106D01*
X182550499Y-103334105D01*
X182516393Y-103206818D01*
X182516392Y-103206814D01*
X182450500Y-103092686D01*
X182357314Y-102999500D01*
X182243190Y-102933610D01*
X182243181Y-102933606D01*
X182115894Y-102899500D01*
X182115892Y-102899500D01*
X181984108Y-102899500D01*
X181984106Y-102899500D01*
X181856818Y-102933606D01*
X181856809Y-102933610D01*
X181742685Y-102999500D01*
X181664360Y-103077826D01*
X181612034Y-103099500D01*
X172805123Y-103099500D01*
X172752797Y-103077826D01*
X170422174Y-100747203D01*
X170400500Y-100694877D01*
X170400500Y-100584106D01*
X170400499Y-100584105D01*
X170384346Y-100523822D01*
X170366392Y-100456814D01*
X170300500Y-100342686D01*
X170207314Y-100249500D01*
X170170136Y-100228035D01*
X170093190Y-100183610D01*
X170093181Y-100183606D01*
X169965894Y-100149500D01*
X169965892Y-100149500D01*
X169834108Y-100149500D01*
X169834106Y-100149500D01*
X169706818Y-100183606D01*
X169706809Y-100183610D01*
X169592685Y-100249500D01*
X169499500Y-100342685D01*
X169433610Y-100456809D01*
X169433606Y-100456818D01*
X169399500Y-100584105D01*
X167840000Y-100584105D01*
X167840000Y-100075302D01*
X167828396Y-100016964D01*
X167784192Y-99950808D01*
X167784191Y-99950807D01*
X167718035Y-99906603D01*
X167659697Y-99895000D01*
X166590000Y-99895000D01*
X166590000Y-100500197D01*
X166563869Y-100495000D01*
X166416131Y-100495000D01*
X166390000Y-100500197D01*
X166390000Y-99895000D01*
X165320303Y-99895000D01*
X165261964Y-99906603D01*
X165195808Y-99950807D01*
X165195807Y-99950808D01*
X165151603Y-100016964D01*
X165140000Y-100075302D01*
X164500500Y-100075302D01*
X164500500Y-97830302D01*
X192725000Y-97830302D01*
X192725000Y-98900000D01*
X193330198Y-98900000D01*
X193325000Y-98926131D01*
X193325000Y-99073869D01*
X193330198Y-99100000D01*
X192725000Y-99100000D01*
X192725000Y-100169697D01*
X192736603Y-100228035D01*
X192780807Y-100294191D01*
X192780808Y-100294192D01*
X192846964Y-100338396D01*
X192905303Y-100350000D01*
X193975000Y-100350000D01*
X193975000Y-99744802D01*
X194001131Y-99750000D01*
X194148869Y-99750000D01*
X194175000Y-99744802D01*
X194175000Y-100350000D01*
X195244697Y-100350000D01*
X195303035Y-100338396D01*
X195369191Y-100294192D01*
X195369192Y-100294191D01*
X195413396Y-100228035D01*
X195425000Y-100169697D01*
X195425000Y-99100000D01*
X194819802Y-99100000D01*
X194825000Y-99073869D01*
X194825000Y-98926131D01*
X194819802Y-98900000D01*
X195425000Y-98900000D01*
X195425000Y-97830302D01*
X195413396Y-97771964D01*
X195369192Y-97705808D01*
X195369191Y-97705807D01*
X195303035Y-97661603D01*
X195244697Y-97650000D01*
X194175000Y-97650000D01*
X194175000Y-98255197D01*
X194148869Y-98250000D01*
X194001131Y-98250000D01*
X193975000Y-98255197D01*
X193975000Y-97650000D01*
X192905303Y-97650000D01*
X192846964Y-97661603D01*
X192780808Y-97705807D01*
X192780807Y-97705808D01*
X192736603Y-97771964D01*
X192725000Y-97830302D01*
X164500500Y-97830302D01*
X164500500Y-96138711D01*
X165139500Y-96138711D01*
X165139500Y-96351288D01*
X165172753Y-96561240D01*
X165172756Y-96561253D01*
X165238440Y-96763406D01*
X165334948Y-96952816D01*
X165411475Y-97058146D01*
X165459896Y-97124792D01*
X165610208Y-97275104D01*
X165705656Y-97344451D01*
X165782183Y-97400051D01*
X165873474Y-97446565D01*
X165971588Y-97496557D01*
X165971590Y-97496557D01*
X165971593Y-97496559D01*
X166173746Y-97562243D01*
X166173752Y-97562244D01*
X166173757Y-97562246D01*
X166278735Y-97578873D01*
X166383711Y-97595500D01*
X166383713Y-97595500D01*
X166596289Y-97595500D01*
X166680269Y-97582198D01*
X166806243Y-97562246D01*
X166806250Y-97562243D01*
X166806253Y-97562243D01*
X167008406Y-97496559D01*
X167008406Y-97496558D01*
X167008412Y-97496557D01*
X167197816Y-97400051D01*
X167369792Y-97275104D01*
X167520104Y-97124792D01*
X167645051Y-96952816D01*
X167741557Y-96763412D01*
X167807246Y-96561243D01*
X167840500Y-96351287D01*
X167840500Y-96138713D01*
X167807246Y-95928757D01*
X167807244Y-95928752D01*
X167807243Y-95928746D01*
X167741559Y-95726593D01*
X167741557Y-95726590D01*
X167741557Y-95726588D01*
X167691565Y-95628474D01*
X167645051Y-95537183D01*
X167589451Y-95460656D01*
X167520104Y-95365208D01*
X167369792Y-95214896D01*
X167303146Y-95166475D01*
X167197816Y-95089948D01*
X167008406Y-94993440D01*
X166806253Y-94927756D01*
X166806240Y-94927753D01*
X166596289Y-94894500D01*
X166596287Y-94894500D01*
X166383713Y-94894500D01*
X166383711Y-94894500D01*
X166173759Y-94927753D01*
X166173746Y-94927756D01*
X165971593Y-94993440D01*
X165782183Y-95089948D01*
X165610212Y-95214893D01*
X165610208Y-95214896D01*
X165459896Y-95365208D01*
X165459893Y-95365211D01*
X165459893Y-95365212D01*
X165334948Y-95537183D01*
X165238440Y-95726593D01*
X165172756Y-95928746D01*
X165172753Y-95928759D01*
X165139500Y-96138711D01*
X164500500Y-96138711D01*
X164500500Y-89384105D01*
X169699500Y-89384105D01*
X169699500Y-89515894D01*
X169707034Y-89544015D01*
X169707034Y-89582315D01*
X169699500Y-89610435D01*
X169699500Y-92456607D01*
X169719978Y-92533031D01*
X169739005Y-92565988D01*
X169739006Y-92565988D01*
X169759540Y-92601554D01*
X171849446Y-94691460D01*
X171849448Y-94691461D01*
X171849449Y-94691462D01*
X171852442Y-94693190D01*
X171917969Y-94731022D01*
X171994395Y-94751500D01*
X176175500Y-94751500D01*
X176227826Y-94773174D01*
X176249500Y-94825500D01*
X176249500Y-94865894D01*
X176283606Y-94993181D01*
X176283610Y-94993190D01*
X176339474Y-95089948D01*
X176349500Y-95107314D01*
X176442686Y-95200500D01*
X176556814Y-95266392D01*
X176684105Y-95300499D01*
X176684106Y-95300500D01*
X176684108Y-95300500D01*
X176815894Y-95300500D01*
X176815894Y-95300499D01*
X176943186Y-95266392D01*
X177057314Y-95200500D01*
X177150500Y-95107314D01*
X177216392Y-94993186D01*
X177250499Y-94865894D01*
X177250500Y-94865894D01*
X177250500Y-94734106D01*
X177250499Y-94734105D01*
X177249672Y-94731020D01*
X177216392Y-94606814D01*
X177150500Y-94492686D01*
X177134640Y-94476826D01*
X177112966Y-94424500D01*
X177134640Y-94372174D01*
X177186966Y-94350500D01*
X181394877Y-94350500D01*
X181447203Y-94372174D01*
X181477826Y-94402797D01*
X181499500Y-94455123D01*
X181499500Y-94565894D01*
X181533606Y-94693181D01*
X181533610Y-94693190D01*
X181557233Y-94734106D01*
X181599500Y-94807314D01*
X181692686Y-94900500D01*
X181806814Y-94966392D01*
X181934105Y-95000499D01*
X181934106Y-95000500D01*
X181934108Y-95000500D01*
X182065894Y-95000500D01*
X182065894Y-95000499D01*
X182193186Y-94966392D01*
X182307314Y-94900500D01*
X182400500Y-94807314D01*
X182466392Y-94693186D01*
X182500499Y-94565894D01*
X182500500Y-94565894D01*
X182500500Y-94434106D01*
X182500499Y-94434105D01*
X182497925Y-94424500D01*
X182466392Y-94306814D01*
X182400500Y-94192686D01*
X182307314Y-94099500D01*
X182193190Y-94033610D01*
X182193181Y-94033606D01*
X182065894Y-93999500D01*
X182065892Y-93999500D01*
X181955123Y-93999500D01*
X181902797Y-93977826D01*
X181734511Y-93809540D01*
X181665990Y-93769979D01*
X181665985Y-93769977D01*
X181589564Y-93749500D01*
X181589562Y-93749500D01*
X172355180Y-93749500D01*
X172302854Y-93727826D01*
X170959133Y-92384105D01*
X174349500Y-92384105D01*
X174349500Y-92515894D01*
X174383606Y-92643181D01*
X174383607Y-92643184D01*
X174383608Y-92643186D01*
X174449500Y-92757314D01*
X174542686Y-92850500D01*
X174656814Y-92916392D01*
X174784105Y-92950499D01*
X174784106Y-92950500D01*
X174784108Y-92950500D01*
X174915894Y-92950500D01*
X174915894Y-92950499D01*
X175043186Y-92916392D01*
X175157314Y-92850500D01*
X175250500Y-92757314D01*
X175316392Y-92643186D01*
X175350499Y-92515894D01*
X175350500Y-92515894D01*
X175350500Y-92427167D01*
X191239499Y-92427167D01*
X191239499Y-92650222D01*
X191258547Y-92770480D01*
X191258547Y-92770481D01*
X191273984Y-92867948D01*
X191273987Y-92867961D01*
X191342103Y-93077602D01*
X191342104Y-93077605D01*
X191342105Y-93077606D01*
X191442185Y-93274022D01*
X191571758Y-93452365D01*
X191571763Y-93452370D01*
X191730214Y-93610821D01*
X191730224Y-93610830D01*
X196142636Y-98023242D01*
X196142639Y-98023244D01*
X196142640Y-98023245D01*
X196305522Y-98141586D01*
X196320978Y-98152815D01*
X196510558Y-98249411D01*
X196517393Y-98252894D01*
X196517397Y-98252896D01*
X196727038Y-98321012D01*
X196727042Y-98321012D01*
X196727049Y-98321015D01*
X196915006Y-98350785D01*
X196944777Y-98355501D01*
X196944778Y-98355501D01*
X197165223Y-98355501D01*
X197191412Y-98351352D01*
X197382951Y-98321015D01*
X197382959Y-98321012D01*
X197382961Y-98321012D01*
X197478133Y-98290088D01*
X197592606Y-98252895D01*
X197789022Y-98152815D01*
X197902810Y-98070142D01*
X197957881Y-98056921D01*
X198006172Y-98086514D01*
X198019394Y-98141586D01*
X198006173Y-98173506D01*
X197919946Y-98292188D01*
X197823440Y-98481593D01*
X197757756Y-98683746D01*
X197757753Y-98683759D01*
X197724500Y-98893711D01*
X197724500Y-99106288D01*
X197757753Y-99316240D01*
X197757756Y-99316253D01*
X197823440Y-99518406D01*
X197919948Y-99707816D01*
X197950597Y-99750000D01*
X198044896Y-99879792D01*
X198195208Y-100030104D01*
X198290656Y-100099451D01*
X198367183Y-100155051D01*
X198395928Y-100169697D01*
X198556588Y-100251557D01*
X198556590Y-100251557D01*
X198556593Y-100251559D01*
X198758746Y-100317243D01*
X198758752Y-100317244D01*
X198758757Y-100317246D01*
X198863735Y-100333873D01*
X198968711Y-100350500D01*
X198968713Y-100350500D01*
X199181289Y-100350500D01*
X199265269Y-100337198D01*
X199391243Y-100317246D01*
X199391250Y-100317243D01*
X199391253Y-100317243D01*
X199593406Y-100251559D01*
X199593406Y-100251558D01*
X199593412Y-100251557D01*
X199782816Y-100155051D01*
X199954792Y-100030104D01*
X200105104Y-99879792D01*
X200230051Y-99707816D01*
X200326557Y-99518412D01*
X200392246Y-99316243D01*
X200425500Y-99106287D01*
X200425500Y-98893713D01*
X200392246Y-98683757D01*
X200392244Y-98683752D01*
X200392243Y-98683746D01*
X200326559Y-98481593D01*
X200326557Y-98481590D01*
X200326557Y-98481588D01*
X200244740Y-98321012D01*
X200230051Y-98292183D01*
X200143827Y-98173506D01*
X200105104Y-98120208D01*
X199954792Y-97969896D01*
X199864479Y-97904280D01*
X199782816Y-97844948D01*
X199593406Y-97748440D01*
X199391253Y-97682756D01*
X199391240Y-97682753D01*
X199181289Y-97649500D01*
X199181287Y-97649500D01*
X198968713Y-97649500D01*
X198968711Y-97649500D01*
X198758759Y-97682753D01*
X198758746Y-97682756D01*
X198556593Y-97748440D01*
X198367185Y-97844948D01*
X198262984Y-97920653D01*
X198207912Y-97933874D01*
X198159621Y-97904280D01*
X198146400Y-97849208D01*
X198159618Y-97817295D01*
X198252815Y-97689022D01*
X198352895Y-97492606D01*
X198421015Y-97282951D01*
X198455501Y-97065222D01*
X198455501Y-96844778D01*
X198421015Y-96627049D01*
X198421012Y-96627042D01*
X198421012Y-96627038D01*
X198352896Y-96417397D01*
X198352894Y-96417393D01*
X198349411Y-96410558D01*
X198252815Y-96220978D01*
X198123242Y-96042636D01*
X194062174Y-91981568D01*
X194040500Y-91929242D01*
X194040500Y-77689776D01*
X194006015Y-77472051D01*
X194006012Y-77472038D01*
X193969524Y-77359738D01*
X193963038Y-77339776D01*
X196899500Y-77339776D01*
X196899500Y-77560223D01*
X196933984Y-77777948D01*
X196933987Y-77777961D01*
X197002103Y-77987602D01*
X197102186Y-78184023D01*
X197102186Y-78184024D01*
X197138513Y-78234024D01*
X197231758Y-78362365D01*
X197387635Y-78518242D01*
X197565978Y-78647815D01*
X197762394Y-78747895D01*
X197762397Y-78747896D01*
X197762396Y-78747896D01*
X197972038Y-78816012D01*
X197972044Y-78816013D01*
X197972049Y-78816015D01*
X198080913Y-78833257D01*
X198189776Y-78850500D01*
X198189778Y-78850500D01*
X198410224Y-78850500D01*
X198497313Y-78836706D01*
X198627951Y-78816015D01*
X198627958Y-78816012D01*
X198627961Y-78816012D01*
X198723133Y-78785088D01*
X198837606Y-78747895D01*
X199034022Y-78647815D01*
X199212365Y-78518242D01*
X199368242Y-78362365D01*
X199497815Y-78184022D01*
X199597895Y-77987606D01*
X199666015Y-77777951D01*
X199700500Y-77560222D01*
X199700500Y-77339778D01*
X199666015Y-77122049D01*
X199666013Y-77122044D01*
X199666012Y-77122038D01*
X199597896Y-76912397D01*
X199597895Y-76912396D01*
X199597895Y-76912394D01*
X199497815Y-76715978D01*
X199368242Y-76537635D01*
X199212365Y-76381758D01*
X199102842Y-76302185D01*
X199034024Y-76252186D01*
X198837602Y-76152103D01*
X198837603Y-76152103D01*
X198627961Y-76083987D01*
X198627948Y-76083984D01*
X198410224Y-76049500D01*
X198410222Y-76049500D01*
X198189778Y-76049500D01*
X198189776Y-76049500D01*
X197972051Y-76083984D01*
X197972038Y-76083987D01*
X197762397Y-76152103D01*
X197565976Y-76252186D01*
X197565975Y-76252186D01*
X197387639Y-76381755D01*
X197387635Y-76381758D01*
X197231758Y-76537635D01*
X197231755Y-76537638D01*
X197231755Y-76537639D01*
X197102186Y-76715975D01*
X197102186Y-76715976D01*
X197002103Y-76912397D01*
X196933987Y-77122038D01*
X196933984Y-77122051D01*
X196899500Y-77339776D01*
X193963038Y-77339776D01*
X193937896Y-77262397D01*
X193937895Y-77262396D01*
X193937895Y-77262394D01*
X193837815Y-77065978D01*
X193708242Y-76887635D01*
X193552365Y-76731758D01*
X193448441Y-76656253D01*
X193374024Y-76602186D01*
X193177602Y-76502103D01*
X193177603Y-76502103D01*
X192967961Y-76433987D01*
X192967948Y-76433984D01*
X192750224Y-76399500D01*
X192750222Y-76399500D01*
X192529778Y-76399500D01*
X192529776Y-76399500D01*
X192312051Y-76433984D01*
X192312038Y-76433987D01*
X192102397Y-76502103D01*
X191905976Y-76602186D01*
X191905975Y-76602186D01*
X191749357Y-76715976D01*
X191727635Y-76731758D01*
X191571758Y-76887635D01*
X191571755Y-76887638D01*
X191571755Y-76887639D01*
X191442186Y-77065975D01*
X191442186Y-77065976D01*
X191342103Y-77262397D01*
X191273987Y-77472038D01*
X191273984Y-77472051D01*
X191239500Y-77689776D01*
X191239500Y-92427137D01*
X191239499Y-92427167D01*
X175350500Y-92427167D01*
X175350500Y-92405122D01*
X175372174Y-92352796D01*
X175632797Y-92092174D01*
X175685123Y-92070500D01*
X177379564Y-92070500D01*
X177379564Y-92070499D01*
X177455989Y-92050021D01*
X177524511Y-92010460D01*
X177580460Y-91954511D01*
X179414725Y-90120246D01*
X179414727Y-90120241D01*
X179414729Y-90120240D01*
X179417180Y-90115994D01*
X179417183Y-90115988D01*
X179454285Y-90051725D01*
X179454286Y-90051724D01*
X179474764Y-89975299D01*
X179474765Y-89975299D01*
X179474765Y-89863701D01*
X179496439Y-89811375D01*
X179574765Y-89733049D01*
X179640657Y-89618921D01*
X179674764Y-89491629D01*
X179674765Y-89491629D01*
X179674765Y-89359841D01*
X179674764Y-89359840D01*
X179648358Y-89261292D01*
X179640657Y-89232549D01*
X179574765Y-89118421D01*
X179481579Y-89025235D01*
X179409476Y-88983606D01*
X179367455Y-88959345D01*
X179367446Y-88959341D01*
X179240159Y-88925235D01*
X179240157Y-88925235D01*
X179108373Y-88925235D01*
X179108371Y-88925235D01*
X178981083Y-88959341D01*
X178981074Y-88959345D01*
X178866950Y-89025235D01*
X178773765Y-89118420D01*
X178707875Y-89232544D01*
X178707871Y-89232553D01*
X178673765Y-89359840D01*
X178673765Y-89491629D01*
X178707871Y-89618916D01*
X178707875Y-89618925D01*
X178773765Y-89733049D01*
X178810546Y-89769830D01*
X178832220Y-89822156D01*
X178810546Y-89874482D01*
X177237203Y-91447826D01*
X177184877Y-91469500D01*
X175490436Y-91469500D01*
X175414014Y-91489977D01*
X175414009Y-91489979D01*
X175345488Y-91529540D01*
X174947202Y-91927826D01*
X174894876Y-91949500D01*
X174784106Y-91949500D01*
X174656818Y-91983606D01*
X174656809Y-91983610D01*
X174542685Y-92049500D01*
X174449500Y-92142685D01*
X174383610Y-92256809D01*
X174383606Y-92256818D01*
X174349500Y-92384105D01*
X170959133Y-92384105D01*
X170822174Y-92247146D01*
X170800500Y-92194820D01*
X170800500Y-90155122D01*
X170822173Y-90102797D01*
X171752796Y-89172173D01*
X171805122Y-89150500D01*
X171915894Y-89150500D01*
X171915894Y-89150499D01*
X172043186Y-89116392D01*
X172157314Y-89050500D01*
X172250500Y-88957314D01*
X172316392Y-88843186D01*
X172350499Y-88715894D01*
X172350500Y-88715894D01*
X172350500Y-88584106D01*
X172350499Y-88584105D01*
X172316393Y-88456818D01*
X172316392Y-88456814D01*
X172250500Y-88342686D01*
X172157314Y-88249500D01*
X172043190Y-88183610D01*
X172043181Y-88183606D01*
X171915894Y-88149500D01*
X171915892Y-88149500D01*
X171784108Y-88149500D01*
X171784106Y-88149500D01*
X171656818Y-88183606D01*
X171656809Y-88183610D01*
X171542685Y-88249500D01*
X171449500Y-88342685D01*
X171383610Y-88456809D01*
X171383606Y-88456818D01*
X171349500Y-88584105D01*
X171349500Y-88694876D01*
X171327826Y-88747202D01*
X170789106Y-89285921D01*
X170736780Y-89307595D01*
X170684454Y-89285921D01*
X170669862Y-89260622D01*
X170668246Y-89261292D01*
X170666393Y-89256818D01*
X170666392Y-89256814D01*
X170600500Y-89142686D01*
X170507314Y-89049500D01*
X170465286Y-89025235D01*
X170393190Y-88983610D01*
X170393181Y-88983606D01*
X170265894Y-88949500D01*
X170265892Y-88949500D01*
X170134108Y-88949500D01*
X170134106Y-88949500D01*
X170006818Y-88983606D01*
X170006809Y-88983610D01*
X169892685Y-89049500D01*
X169799500Y-89142685D01*
X169733610Y-89256809D01*
X169733606Y-89256818D01*
X169699500Y-89384105D01*
X164500500Y-89384105D01*
X164500500Y-86226633D01*
X178315499Y-86226633D01*
X178315499Y-86358422D01*
X178349605Y-86485709D01*
X178349609Y-86485718D01*
X178356330Y-86497359D01*
X178415499Y-86599842D01*
X178508685Y-86693028D01*
X178622813Y-86758920D01*
X178750104Y-86793027D01*
X178750105Y-86793028D01*
X178750107Y-86793028D01*
X178881893Y-86793028D01*
X178881893Y-86793027D01*
X179009185Y-86758920D01*
X179123313Y-86693028D01*
X179201639Y-86614702D01*
X179253965Y-86593028D01*
X181297036Y-86593028D01*
X181297036Y-86593027D01*
X181373461Y-86572549D01*
X181441983Y-86532988D01*
X181463591Y-86511379D01*
X181496760Y-86492228D01*
X181593186Y-86466392D01*
X181707314Y-86400500D01*
X181800500Y-86307314D01*
X181866392Y-86193186D01*
X181900499Y-86065894D01*
X181900500Y-86065894D01*
X181900500Y-85934106D01*
X181900499Y-85934105D01*
X181866393Y-85806818D01*
X181866392Y-85806814D01*
X181800500Y-85692686D01*
X181707314Y-85599500D01*
X181593190Y-85533610D01*
X181593181Y-85533606D01*
X181465894Y-85499500D01*
X181465892Y-85499500D01*
X181334108Y-85499500D01*
X181334106Y-85499500D01*
X181206818Y-85533606D01*
X181206809Y-85533610D01*
X181092685Y-85599500D01*
X180999500Y-85692685D01*
X180933610Y-85806809D01*
X180933606Y-85806818D01*
X180898676Y-85937181D01*
X180864198Y-85982114D01*
X180827198Y-85992028D01*
X179253965Y-85992028D01*
X179201639Y-85970354D01*
X179123313Y-85892028D01*
X179009189Y-85826138D01*
X179009180Y-85826134D01*
X178881893Y-85792028D01*
X178881891Y-85792028D01*
X178750107Y-85792028D01*
X178750105Y-85792028D01*
X178622817Y-85826134D01*
X178622808Y-85826138D01*
X178508684Y-85892028D01*
X178415499Y-85985213D01*
X178349609Y-86099337D01*
X178349605Y-86099346D01*
X178315499Y-86226633D01*
X164500500Y-86226633D01*
X164500500Y-77389776D01*
X166599500Y-77389776D01*
X166599500Y-77610223D01*
X166633984Y-77827948D01*
X166633987Y-77827961D01*
X166702103Y-78037602D01*
X166702104Y-78037605D01*
X166702105Y-78037606D01*
X166802185Y-78234022D01*
X166931758Y-78412365D01*
X167087635Y-78568242D01*
X167265978Y-78697815D01*
X167462394Y-78797895D01*
X167462397Y-78797896D01*
X167462396Y-78797896D01*
X167672038Y-78866012D01*
X167672044Y-78866013D01*
X167672049Y-78866015D01*
X167780913Y-78883257D01*
X167889776Y-78900500D01*
X167889778Y-78900500D01*
X168110224Y-78900500D01*
X168197313Y-78886706D01*
X168327951Y-78866015D01*
X168327958Y-78866012D01*
X168327961Y-78866012D01*
X168423133Y-78835088D01*
X168537606Y-78797895D01*
X168734022Y-78697815D01*
X168912365Y-78568242D01*
X169068242Y-78412365D01*
X169197815Y-78234022D01*
X169297895Y-78037606D01*
X169366015Y-77827951D01*
X169400500Y-77610222D01*
X169400500Y-77389778D01*
X169392580Y-77339776D01*
X169366015Y-77172051D01*
X169366012Y-77172038D01*
X169297896Y-76962397D01*
X169297895Y-76962396D01*
X169297895Y-76962394D01*
X169197815Y-76765978D01*
X169068242Y-76587635D01*
X168912365Y-76431758D01*
X168808441Y-76356253D01*
X168734024Y-76302186D01*
X168635894Y-76252186D01*
X168537606Y-76202105D01*
X168537605Y-76202104D01*
X168537602Y-76202103D01*
X168537603Y-76202103D01*
X168327961Y-76133987D01*
X168327948Y-76133984D01*
X168110224Y-76099500D01*
X168110222Y-76099500D01*
X167889778Y-76099500D01*
X167889776Y-76099500D01*
X167672051Y-76133984D01*
X167672038Y-76133987D01*
X167462397Y-76202103D01*
X167265976Y-76302186D01*
X167265975Y-76302186D01*
X167109010Y-76416228D01*
X167087635Y-76431758D01*
X166931758Y-76587635D01*
X166931755Y-76587638D01*
X166931755Y-76587639D01*
X166802186Y-76765975D01*
X166802186Y-76765976D01*
X166702103Y-76962397D01*
X166633987Y-77172038D01*
X166633984Y-77172051D01*
X166599500Y-77389776D01*
X164500500Y-77389776D01*
X164500500Y-77012236D01*
X164500635Y-77007768D01*
X164503379Y-76962397D01*
X164518454Y-76713176D01*
X164519528Y-76704328D01*
X164572328Y-76416211D01*
X164574458Y-76407568D01*
X164661597Y-76127931D01*
X164664754Y-76119604D01*
X164784971Y-75852493D01*
X164789115Y-75844599D01*
X164940636Y-75593952D01*
X164945712Y-75586599D01*
X165126343Y-75356039D01*
X165132254Y-75349367D01*
X165339367Y-75142254D01*
X165346039Y-75136343D01*
X165576599Y-74955711D01*
X165583953Y-74950636D01*
X165630926Y-74922240D01*
X165834599Y-74799115D01*
X165842493Y-74794971D01*
X166109604Y-74674754D01*
X166117931Y-74671597D01*
X166397568Y-74584458D01*
X166406211Y-74582328D01*
X166694328Y-74529528D01*
X166703176Y-74528454D01*
X166997768Y-74510634D01*
X167002236Y-74510500D01*
X167065892Y-74510500D01*
X199284108Y-74510500D01*
X199347764Y-74510500D01*
X199352231Y-74510634D01*
G37*
%TD.AperFunction*%
%TD*%
M02*
