%TF.GenerationSoftware,KiCad,Pcbnew,9.0.0*%
%TF.CreationDate,2025-04-24T15:50:13+02:00*%
%TF.ProjectId,pwrv3,70777276-332e-46b6-9963-61645f706362,rev?*%
%TF.SameCoordinates,Original*%
%TF.FileFunction,Paste,Top*%
%TF.FilePolarity,Positive*%
%FSLAX46Y46*%
G04 Gerber Fmt 4.6, Leading zero omitted, Abs format (unit mm)*
G04 Created by KiCad (PCBNEW 9.0.0) date 2025-04-24 15:50:13*
%MOMM*%
%LPD*%
G01*
G04 APERTURE LIST*
G04 Aperture macros list*
%AMRoundRect*
0 Rectangle with rounded corners*
0 $1 Rounding radius*
0 $2 $3 $4 $5 $6 $7 $8 $9 X,Y pos of 4 corners*
0 Add a 4 corners polygon primitive as box body*
4,1,4,$2,$3,$4,$5,$6,$7,$8,$9,$2,$3,0*
0 Add four circle primitives for the rounded corners*
1,1,$1+$1,$2,$3*
1,1,$1+$1,$4,$5*
1,1,$1+$1,$6,$7*
1,1,$1+$1,$8,$9*
0 Add four rect primitives between the rounded corners*
20,1,$1+$1,$2,$3,$4,$5,0*
20,1,$1+$1,$4,$5,$6,$7,0*
20,1,$1+$1,$6,$7,$8,$9,0*
20,1,$1+$1,$8,$9,$2,$3,0*%
G04 Aperture macros list end*
%ADD10RoundRect,0.200000X0.275000X-0.200000X0.275000X0.200000X-0.275000X0.200000X-0.275000X-0.200000X0*%
%ADD11R,1.200000X0.600000*%
%ADD12RoundRect,0.135000X0.135000X0.185000X-0.135000X0.185000X-0.135000X-0.185000X0.135000X-0.185000X0*%
%ADD13RoundRect,0.079500X0.079500X0.100500X-0.079500X0.100500X-0.079500X-0.100500X0.079500X-0.100500X0*%
%ADD14RoundRect,0.135000X0.185000X-0.135000X0.185000X0.135000X-0.185000X0.135000X-0.185000X-0.135000X0*%
%ADD15RoundRect,0.135000X-0.135000X-0.185000X0.135000X-0.185000X0.135000X0.185000X-0.135000X0.185000X0*%
%ADD16R,0.600000X1.200000*%
%ADD17RoundRect,0.225000X0.250000X-0.225000X0.250000X0.225000X-0.250000X0.225000X-0.250000X-0.225000X0*%
%ADD18RoundRect,0.250000X0.625000X-0.375000X0.625000X0.375000X-0.625000X0.375000X-0.625000X-0.375000X0*%
%ADD19RoundRect,0.140000X-0.140000X-0.170000X0.140000X-0.170000X0.140000X0.170000X-0.140000X0.170000X0*%
%ADD20RoundRect,0.250000X-0.325000X-0.650000X0.325000X-0.650000X0.325000X0.650000X-0.325000X0.650000X0*%
%ADD21R,1.750000X3.200000*%
%ADD22RoundRect,0.250000X-1.100000X0.325000X-1.100000X-0.325000X1.100000X-0.325000X1.100000X0.325000X0*%
%ADD23R,3.070000X2.260000*%
%ADD24R,2.770000X2.260000*%
%ADD25RoundRect,0.200000X-0.275000X0.200000X-0.275000X-0.200000X0.275000X-0.200000X0.275000X0.200000X0*%
%ADD26RoundRect,0.250000X-0.250000X-0.475000X0.250000X-0.475000X0.250000X0.475000X-0.250000X0.475000X0*%
%ADD27RoundRect,0.250000X-0.375000X-1.075000X0.375000X-1.075000X0.375000X1.075000X-0.375000X1.075000X0*%
%ADD28R,0.570000X0.738000*%
%ADD29RoundRect,0.125000X-0.190000X-0.125000X0.190000X-0.125000X0.190000X0.125000X-0.190000X0.125000X0*%
%ADD30RoundRect,0.225000X-0.225000X-0.250000X0.225000X-0.250000X0.225000X0.250000X-0.225000X0.250000X0*%
%ADD31R,3.000000X1.600000*%
%ADD32RoundRect,0.135000X-0.185000X0.135000X-0.185000X-0.135000X0.185000X-0.135000X0.185000X0.135000X0*%
%ADD33RoundRect,0.250000X-0.325000X-1.100000X0.325000X-1.100000X0.325000X1.100000X-0.325000X1.100000X0*%
%ADD34R,0.250000X0.600000*%
%ADD35R,0.600000X0.250000*%
%ADD36R,1.700000X2.700000*%
%ADD37RoundRect,0.140000X0.170000X-0.140000X0.170000X0.140000X-0.170000X0.140000X-0.170000X-0.140000X0*%
%ADD38RoundRect,0.200000X0.200000X0.275000X-0.200000X0.275000X-0.200000X-0.275000X0.200000X-0.275000X0*%
%ADD39RoundRect,0.140000X0.140000X0.170000X-0.140000X0.170000X-0.140000X-0.170000X0.140000X-0.170000X0*%
%ADD40R,0.738000X0.570000*%
%ADD41RoundRect,0.125000X0.125000X-0.190000X0.125000X0.190000X-0.125000X0.190000X-0.125000X-0.190000X0*%
%ADD42RoundRect,0.250000X0.375000X0.625000X-0.375000X0.625000X-0.375000X-0.625000X0.375000X-0.625000X0*%
G04 APERTURE END LIST*
D10*
%TO.C,R3*%
X188875000Y-105400000D03*
X188875000Y-103750000D03*
%TD*%
D11*
%TO.C,IC3*%
X177775000Y-101175000D03*
X177775000Y-100225000D03*
X177775000Y-99275000D03*
X175275000Y-99275000D03*
X175275000Y-100225000D03*
X175275000Y-101175000D03*
%TD*%
D12*
%TO.C,R19*%
X186970000Y-101325000D03*
X185950000Y-101325000D03*
%TD*%
D13*
%TO.C,R6*%
X172250000Y-83350000D03*
X171560000Y-83350000D03*
%TD*%
D14*
%TO.C,R1*%
X177745000Y-97915000D03*
X177745000Y-96895000D03*
%TD*%
D10*
%TO.C,R2*%
X173600000Y-93000000D03*
X173600000Y-91350000D03*
%TD*%
D12*
%TO.C,R12*%
X184510000Y-99175000D03*
X183490000Y-99175000D03*
%TD*%
%TO.C,R4*%
X180165000Y-99235000D03*
X179145000Y-99235000D03*
%TD*%
D15*
%TO.C,R11*%
X180240000Y-91850000D03*
X181260000Y-91850000D03*
%TD*%
D16*
%TO.C,IC1*%
X187175000Y-102800000D03*
X186225000Y-102800000D03*
X185275000Y-102800000D03*
X185275000Y-105300000D03*
X187175000Y-105300000D03*
%TD*%
D17*
%TO.C,C6*%
X174695000Y-97640000D03*
X174695000Y-96090000D03*
%TD*%
D18*
%TO.C,F1*%
X166475000Y-91500000D03*
X166475000Y-88700000D03*
%TD*%
D14*
%TO.C,R17*%
X195025000Y-108075000D03*
X195025000Y-107055000D03*
%TD*%
D19*
%TO.C,C1*%
X174970000Y-102600000D03*
X175930000Y-102600000D03*
%TD*%
%TO.C,C13*%
X178970000Y-96250000D03*
X179930000Y-96250000D03*
%TD*%
D20*
%TO.C,C16*%
X169825000Y-95650000D03*
X172775000Y-95650000D03*
%TD*%
D15*
%TO.C,R13*%
X180040000Y-95200000D03*
X181060000Y-95200000D03*
%TD*%
D21*
%TO.C,L2*%
X174550000Y-105025000D03*
X176750000Y-105025000D03*
%TD*%
D22*
%TO.C,C21*%
X171600000Y-102300000D03*
X171600000Y-105250000D03*
%TD*%
D23*
%TO.C,L3*%
X189295000Y-94320000D03*
X196505000Y-94320000D03*
D24*
X192900000Y-83680000D03*
%TD*%
D19*
%TO.C,C10*%
X179040000Y-88660000D03*
X180000000Y-88660000D03*
%TD*%
D17*
%TO.C,C8*%
X176950000Y-84775000D03*
X176950000Y-83225000D03*
%TD*%
D25*
%TO.C,R9*%
X172050000Y-90350000D03*
X172050000Y-92000000D03*
%TD*%
D26*
%TO.C,C2*%
X179000000Y-105050000D03*
X180900000Y-105050000D03*
%TD*%
D27*
%TO.C,L4*%
X169900000Y-98500000D03*
X172700000Y-98500000D03*
%TD*%
D15*
%TO.C,R18*%
X183605000Y-101300000D03*
X184625000Y-101300000D03*
%TD*%
D28*
%TO.C,Q2*%
X182945000Y-88517500D03*
X182945000Y-89737500D03*
X183895000Y-88517500D03*
X183895000Y-89737500D03*
D29*
X184475000Y-88155000D03*
X184475000Y-88797500D03*
X184475000Y-89457500D03*
X184475000Y-90100000D03*
X181595000Y-88157500D03*
X181595000Y-88797500D03*
X181595000Y-89457500D03*
X181595000Y-90097500D03*
%TD*%
D26*
%TO.C,C3*%
X179485000Y-100795000D03*
X181385000Y-100795000D03*
%TD*%
D30*
%TO.C,C18*%
X185225000Y-110100000D03*
X186775000Y-110100000D03*
%TD*%
D31*
%TO.C,C15*%
X189450000Y-77800000D03*
X185050000Y-77800000D03*
%TD*%
D32*
%TO.C,R5*%
X173500000Y-81340000D03*
X173500000Y-82360000D03*
%TD*%
D19*
%TO.C,C17*%
X179020000Y-87100000D03*
X179980000Y-87100000D03*
%TD*%
D17*
%TO.C,C5*%
X176205000Y-97670000D03*
X176205000Y-96120000D03*
%TD*%
D33*
%TO.C,C7*%
X167175000Y-86200000D03*
X170125000Y-86200000D03*
%TD*%
D12*
%TO.C,R14*%
X173310000Y-100800000D03*
X172290000Y-100800000D03*
%TD*%
D34*
%TO.C,IC2*%
X175450000Y-85950000D03*
D35*
X174550000Y-86350000D03*
X174550000Y-86850000D03*
X174550000Y-87350000D03*
X174550000Y-87850000D03*
X174550000Y-88350000D03*
X174550000Y-88850000D03*
X174550000Y-89350000D03*
X174550000Y-89850000D03*
D34*
X175450000Y-90250000D03*
X176950000Y-90250000D03*
D35*
X177850000Y-89850000D03*
X177850000Y-89350000D03*
X177850000Y-88850000D03*
X177850000Y-88350000D03*
X177850000Y-87850000D03*
X177850000Y-87350000D03*
X177850000Y-86850000D03*
X177850000Y-86350000D03*
D34*
X176950000Y-85950000D03*
D36*
X176200000Y-88100000D03*
%TD*%
D37*
%TO.C,C11*%
X182075000Y-98330000D03*
X182075000Y-97370000D03*
%TD*%
D20*
%TO.C,C4*%
X185225000Y-107575000D03*
X188175000Y-107575000D03*
%TD*%
D38*
%TO.C,R10*%
X185025000Y-97925000D03*
X183375000Y-97925000D03*
%TD*%
D39*
%TO.C,C9*%
X173380000Y-86550000D03*
X172420000Y-86550000D03*
%TD*%
D12*
%TO.C,R7*%
X173760000Y-85200000D03*
X172740000Y-85200000D03*
%TD*%
D25*
%TO.C,R8*%
X175200000Y-81175000D03*
X175200000Y-82825000D03*
%TD*%
D15*
%TO.C,R15*%
X183280000Y-96200000D03*
X184300000Y-96200000D03*
%TD*%
D40*
%TO.C,Q1*%
X179520000Y-83750000D03*
X180740000Y-83750000D03*
X179520000Y-82800000D03*
X180740000Y-82800000D03*
D41*
X179157500Y-82220000D03*
X179800000Y-82220000D03*
X180460000Y-82220000D03*
X181102500Y-82220000D03*
X179160000Y-85100000D03*
X179800000Y-85100000D03*
X180460000Y-85100000D03*
X181100000Y-85100000D03*
%TD*%
D30*
%TO.C,C14*%
X176200000Y-92850000D03*
X177750000Y-92850000D03*
%TD*%
D42*
%TO.C,D1*%
X193450000Y-107600000D03*
X190650000Y-107600000D03*
%TD*%
D38*
%TO.C,R16*%
X192275000Y-105500000D03*
X190625000Y-105500000D03*
%TD*%
D19*
%TO.C,C12*%
X178020000Y-95200000D03*
X178980000Y-95200000D03*
%TD*%
M02*
