%TF.GenerationSoftware,KiCad,Pcbnew,9.0.0*%
%TF.CreationDate,2025-04-24T15:50:13+02:00*%
%TF.ProjectId,pwrv3,70777276-332e-46b6-9963-61645f706362,rev?*%
%TF.SameCoordinates,Original*%
%TF.FileFunction,Copper,L1,Top*%
%TF.FilePolarity,Positive*%
%FSLAX46Y46*%
G04 Gerber Fmt 4.6, Leading zero omitted, Abs format (unit mm)*
G04 Created by KiCad (PCBNEW 9.0.0) date 2025-04-24 15:50:13*
%MOMM*%
%LPD*%
G01*
G04 APERTURE LIST*
G04 Aperture macros list*
%AMRoundRect*
0 Rectangle with rounded corners*
0 $1 Rounding radius*
0 $2 $3 $4 $5 $6 $7 $8 $9 X,Y pos of 4 corners*
0 Add a 4 corners polygon primitive as box body*
4,1,4,$2,$3,$4,$5,$6,$7,$8,$9,$2,$3,0*
0 Add four circle primitives for the rounded corners*
1,1,$1+$1,$2,$3*
1,1,$1+$1,$4,$5*
1,1,$1+$1,$6,$7*
1,1,$1+$1,$8,$9*
0 Add four rect primitives between the rounded corners*
20,1,$1+$1,$2,$3,$4,$5,0*
20,1,$1+$1,$4,$5,$6,$7,0*
20,1,$1+$1,$6,$7,$8,$9,0*
20,1,$1+$1,$8,$9,$2,$3,0*%
%AMFreePoly0*
4,1,17,1.371000,0.720000,0.950000,0.720000,0.950000,0.580000,1.370000,0.580000,1.370000,0.080000,0.950000,0.080000,0.950000,-0.080000,1.370000,-0.080000,1.370000,-0.580000,0.950000,-0.580000,0.950000,-0.720000,1.370000,-0.720000,1.370000,-1.225000,-0.950000,-1.225000,-0.950000,1.225000,1.371000,1.225000,1.371000,0.720000,1.371000,0.720000,$1*%
G04 Aperture macros list end*
%TA.AperFunction,SMDPad,CuDef*%
%ADD10RoundRect,0.200000X0.275000X-0.200000X0.275000X0.200000X-0.275000X0.200000X-0.275000X-0.200000X0*%
%TD*%
%TA.AperFunction,SMDPad,CuDef*%
%ADD11R,1.200000X0.600000*%
%TD*%
%TA.AperFunction,SMDPad,CuDef*%
%ADD12RoundRect,0.135000X0.135000X0.185000X-0.135000X0.185000X-0.135000X-0.185000X0.135000X-0.185000X0*%
%TD*%
%TA.AperFunction,SMDPad,CuDef*%
%ADD13RoundRect,0.100000X0.130000X0.100000X-0.130000X0.100000X-0.130000X-0.100000X0.130000X-0.100000X0*%
%TD*%
%TA.AperFunction,SMDPad,CuDef*%
%ADD14RoundRect,0.135000X0.185000X-0.135000X0.185000X0.135000X-0.185000X0.135000X-0.185000X-0.135000X0*%
%TD*%
%TA.AperFunction,WasherPad*%
%ADD15C,2.400000*%
%TD*%
%TA.AperFunction,SMDPad,CuDef*%
%ADD16RoundRect,0.135000X-0.135000X-0.185000X0.135000X-0.185000X0.135000X0.185000X-0.135000X0.185000X0*%
%TD*%
%TA.AperFunction,SMDPad,CuDef*%
%ADD17R,0.600000X1.200000*%
%TD*%
%TA.AperFunction,SMDPad,CuDef*%
%ADD18RoundRect,0.225000X0.250000X-0.225000X0.250000X0.225000X-0.250000X0.225000X-0.250000X-0.225000X0*%
%TD*%
%TA.AperFunction,SMDPad,CuDef*%
%ADD19RoundRect,0.250000X0.625000X-0.375000X0.625000X0.375000X-0.625000X0.375000X-0.625000X-0.375000X0*%
%TD*%
%TA.AperFunction,ComponentPad*%
%ADD20R,2.300000X2.300000*%
%TD*%
%TA.AperFunction,ComponentPad*%
%ADD21C,2.300000*%
%TD*%
%TA.AperFunction,SMDPad,CuDef*%
%ADD22RoundRect,0.140000X-0.140000X-0.170000X0.140000X-0.170000X0.140000X0.170000X-0.140000X0.170000X0*%
%TD*%
%TA.AperFunction,SMDPad,CuDef*%
%ADD23RoundRect,0.250000X-0.325000X-0.650000X0.325000X-0.650000X0.325000X0.650000X-0.325000X0.650000X0*%
%TD*%
%TA.AperFunction,SMDPad,CuDef*%
%ADD24R,1.750000X3.200000*%
%TD*%
%TA.AperFunction,SMDPad,CuDef*%
%ADD25RoundRect,0.250000X-1.100000X0.325000X-1.100000X-0.325000X1.100000X-0.325000X1.100000X0.325000X0*%
%TD*%
%TA.AperFunction,SMDPad,CuDef*%
%ADD26R,3.070000X2.260000*%
%TD*%
%TA.AperFunction,SMDPad,CuDef*%
%ADD27R,2.770000X2.260000*%
%TD*%
%TA.AperFunction,SMDPad,CuDef*%
%ADD28RoundRect,0.200000X-0.275000X0.200000X-0.275000X-0.200000X0.275000X-0.200000X0.275000X0.200000X0*%
%TD*%
%TA.AperFunction,SMDPad,CuDef*%
%ADD29RoundRect,0.250000X-0.250000X-0.475000X0.250000X-0.475000X0.250000X0.475000X-0.250000X0.475000X0*%
%TD*%
%TA.AperFunction,SMDPad,CuDef*%
%ADD30RoundRect,0.250000X-0.375000X-1.075000X0.375000X-1.075000X0.375000X1.075000X-0.375000X1.075000X0*%
%TD*%
%TA.AperFunction,SMDPad,CuDef*%
%ADD31RoundRect,0.125000X-0.190000X-0.125000X0.190000X-0.125000X0.190000X0.125000X-0.190000X0.125000X0*%
%TD*%
%TA.AperFunction,SMDPad,CuDef*%
%ADD32FreePoly0,0.000000*%
%TD*%
%TA.AperFunction,SMDPad,CuDef*%
%ADD33RoundRect,0.225000X-0.225000X-0.250000X0.225000X-0.250000X0.225000X0.250000X-0.225000X0.250000X0*%
%TD*%
%TA.AperFunction,SMDPad,CuDef*%
%ADD34R,3.000000X1.600000*%
%TD*%
%TA.AperFunction,SMDPad,CuDef*%
%ADD35RoundRect,0.135000X-0.185000X0.135000X-0.185000X-0.135000X0.185000X-0.135000X0.185000X0.135000X0*%
%TD*%
%TA.AperFunction,ComponentPad*%
%ADD36R,1.700000X1.700000*%
%TD*%
%TA.AperFunction,ComponentPad*%
%ADD37O,1.700000X1.700000*%
%TD*%
%TA.AperFunction,SMDPad,CuDef*%
%ADD38RoundRect,0.250000X-0.325000X-1.100000X0.325000X-1.100000X0.325000X1.100000X-0.325000X1.100000X0*%
%TD*%
%TA.AperFunction,SMDPad,CuDef*%
%ADD39R,0.250000X0.600000*%
%TD*%
%TA.AperFunction,SMDPad,CuDef*%
%ADD40R,0.600000X0.250000*%
%TD*%
%TA.AperFunction,SMDPad,CuDef*%
%ADD41R,1.700000X2.700000*%
%TD*%
%TA.AperFunction,SMDPad,CuDef*%
%ADD42RoundRect,0.140000X0.170000X-0.140000X0.170000X0.140000X-0.170000X0.140000X-0.170000X-0.140000X0*%
%TD*%
%TA.AperFunction,SMDPad,CuDef*%
%ADD43RoundRect,0.200000X0.200000X0.275000X-0.200000X0.275000X-0.200000X-0.275000X0.200000X-0.275000X0*%
%TD*%
%TA.AperFunction,SMDPad,CuDef*%
%ADD44RoundRect,0.140000X0.140000X0.170000X-0.140000X0.170000X-0.140000X-0.170000X0.140000X-0.170000X0*%
%TD*%
%TA.AperFunction,SMDPad,CuDef*%
%ADD45RoundRect,0.125000X0.125000X-0.190000X0.125000X0.190000X-0.125000X0.190000X-0.125000X-0.190000X0*%
%TD*%
%TA.AperFunction,SMDPad,CuDef*%
%ADD46FreePoly0,90.000000*%
%TD*%
%TA.AperFunction,SMDPad,CuDef*%
%ADD47RoundRect,0.250000X0.375000X0.625000X-0.375000X0.625000X-0.375000X-0.625000X0.375000X-0.625000X0*%
%TD*%
%TA.AperFunction,ViaPad*%
%ADD48C,0.600000*%
%TD*%
%TA.AperFunction,Conductor*%
%ADD49C,0.200000*%
%TD*%
%TA.AperFunction,Conductor*%
%ADD50C,2.400000*%
%TD*%
G04 APERTURE END LIST*
D10*
%TO.P,R3,1*%
%TO.N,2.5v*%
X188875000Y-105400000D03*
%TO.P,R3,2*%
%TO.N,5v*%
X188875000Y-103750000D03*
%TD*%
D11*
%TO.P,IC3,1,CB*%
%TO.N,Net-(IC3-CB)*%
X177775000Y-101175000D03*
%TO.P,IC3,2,GND*%
%TO.N,GND*%
X177775000Y-100225000D03*
%TO.P,IC3,3,FB*%
%TO.N,Net-(IC3-FB)*%
X177775000Y-99275000D03*
%TO.P,IC3,4,EN*%
%TO.N,Net-(IC3-EN)*%
X175275000Y-99275000D03*
%TO.P,IC3,5,VIN*%
X175275000Y-100225000D03*
%TO.P,IC3,6,SW*%
%TO.N,Net-(IC3-SW)*%
X175275000Y-101175000D03*
%TD*%
D12*
%TO.P,R19,1*%
%TO.N,GND*%
X186970000Y-101325000D03*
%TO.P,R19,2*%
%TO.N,Net-(IC1-IN+)*%
X185950000Y-101325000D03*
%TD*%
D13*
%TO.P,R6,1,1*%
%TO.N,Net-(IC2-EN{slash}UVLO)*%
X172225000Y-83350000D03*
%TO.P,R6,2,2*%
%TO.N,GND*%
X171585000Y-83350000D03*
%TD*%
D14*
%TO.P,R1,1,1*%
%TO.N,Net-(IC3-FB)*%
X177745000Y-97915000D03*
%TO.P,R1,2,2*%
%TO.N,GND*%
X177745000Y-96895000D03*
%TD*%
D10*
%TO.P,R2,1,1*%
%TO.N,Net-(IC2-VCC)*%
X173600000Y-93000000D03*
%TO.P,R2,2,2*%
%TO.N,Net-(IC2-PGOOD)*%
X173600000Y-91350000D03*
%TD*%
D12*
%TO.P,R12,1,1*%
%TO.N,Net-(C15-+)*%
X184510000Y-99175000D03*
%TO.P,R12,2,2*%
%TO.N,Net-(C11-Pad1)*%
X183490000Y-99175000D03*
%TD*%
D15*
%TO.P,H3,*%
%TO.N,*%
X198350000Y-108000000D03*
%TD*%
D12*
%TO.P,R4,1,1*%
%TO.N,+5V*%
X180165000Y-99235000D03*
%TO.P,R4,2,2*%
%TO.N,Net-(IC3-FB)*%
X179145000Y-99235000D03*
%TD*%
D16*
%TO.P,R11,1,1*%
%TO.N,Net-(IC2-ILIM)*%
X180240000Y-91850000D03*
%TO.P,R11,2,2*%
%TO.N,Net-(IC2-SW)*%
X181260000Y-91850000D03*
%TD*%
D17*
%TO.P,IC1,1,OUT*%
%TO.N,5v*%
X187175000Y-102800000D03*
%TO.P,IC1,2,GND*%
%TO.N,GND*%
X186225000Y-102800000D03*
%TO.P,IC1,3,IN+*%
%TO.N,Net-(IC1-IN+)*%
X185275000Y-102800000D03*
%TO.P,IC1,4,IN-*%
%TO.N,+5V*%
X185275000Y-105300000D03*
%TO.P,IC1,5,VCC*%
X187175000Y-105300000D03*
%TD*%
D18*
%TO.P,C6,1,1*%
%TO.N,Net-(IC3-EN)*%
X174695000Y-97640000D03*
%TO.P,C6,2,2*%
%TO.N,GND*%
X174695000Y-96090000D03*
%TD*%
D15*
%TO.P,H3,*%
%TO.N,*%
X168000000Y-108000000D03*
%TD*%
D19*
%TO.P,F1,1,1*%
%TO.N,Net-(F1-Pad1)*%
X166475000Y-91500000D03*
%TO.P,F1,2,2*%
%TO.N,+12V*%
X166475000Y-88700000D03*
%TD*%
D20*
%TO.P,J3,1,1*%
%TO.N,GND*%
X166490000Y-101245000D03*
D21*
%TO.P,J3,2,2*%
%TO.N,Net-(F1-Pad1)*%
X166490000Y-96245000D03*
%TD*%
D14*
%TO.P,R17,1*%
%TO.N,Net-(D1-K)*%
X195025000Y-108075000D03*
%TO.P,R17,2*%
%TO.N,GND*%
X195025000Y-107055000D03*
%TD*%
D22*
%TO.P,C1,1,1*%
%TO.N,Net-(IC3-SW)*%
X174970000Y-102600000D03*
%TO.P,C1,2,2*%
%TO.N,Net-(IC3-CB)*%
X175930000Y-102600000D03*
%TD*%
%TO.P,C13,1,1*%
%TO.N,Net-(IC2-COMP)*%
X178970000Y-96250000D03*
%TO.P,C13,2,2*%
%TO.N,Net-(IC2-FB)*%
X179930000Y-96250000D03*
%TD*%
D23*
%TO.P,C16,1,1*%
%TO.N,+12V*%
X169825000Y-95650000D03*
%TO.P,C16,2,2*%
%TO.N,GND*%
X172775000Y-95650000D03*
%TD*%
D16*
%TO.P,R13,1,1*%
%TO.N,Net-(C12-Pad2)*%
X180040000Y-95200000D03*
%TO.P,R13,2,2*%
%TO.N,Net-(IC2-FB)*%
X181060000Y-95200000D03*
%TD*%
D24*
%TO.P,L2,1,1*%
%TO.N,Net-(IC3-SW)*%
X174550000Y-105025000D03*
%TO.P,L2,2,2*%
%TO.N,+5V*%
X176750000Y-105025000D03*
%TD*%
D20*
%TO.P,J1,1,1*%
%TO.N,GND*%
X194075000Y-99000000D03*
D21*
%TO.P,J1,2,2*%
%TO.N,Net-(C15-+)*%
X199075000Y-99000000D03*
%TD*%
D25*
%TO.P,C21,1,1*%
%TO.N,Net-(C21-Pad1)*%
X171600000Y-102300000D03*
%TO.P,C21,2,2*%
%TO.N,GND*%
X171600000Y-105250000D03*
%TD*%
D26*
%TO.P,L3,1,1*%
%TO.N,Net-(IC2-SW)*%
X189295000Y-94320000D03*
%TO.P,L3,2,2*%
%TO.N,Net-(C15-+)*%
X196505000Y-94320000D03*
D27*
%TO.P,L3,3*%
%TO.N,N/C*%
X192900000Y-83680000D03*
%TD*%
D22*
%TO.P,C10,1,1*%
%TO.N,Net-(IC2-VCC)*%
X179040000Y-88660000D03*
%TO.P,C10,2,2*%
%TO.N,GND*%
X180000000Y-88660000D03*
%TD*%
D18*
%TO.P,C8,1,1*%
%TO.N,Net-(IC2-VIN)*%
X176950000Y-84775000D03*
%TO.P,C8,2,2*%
%TO.N,GND*%
X176950000Y-83225000D03*
%TD*%
D28*
%TO.P,R9,1,1*%
%TO.N,Net-(IC2-SYNCIN)*%
X172050000Y-90350000D03*
%TO.P,R9,2,2*%
%TO.N,Net-(IC2-VCC)*%
X172050000Y-92000000D03*
%TD*%
D29*
%TO.P,C2,1,1*%
%TO.N,+5V*%
X179000000Y-105050000D03*
%TO.P,C2,2,2*%
%TO.N,GND*%
X180900000Y-105050000D03*
%TD*%
D30*
%TO.P,L4,1,1*%
%TO.N,+12V*%
X169900000Y-98500000D03*
%TO.P,L4,2,2*%
%TO.N,Net-(IC3-EN)*%
X172700000Y-98500000D03*
%TD*%
D16*
%TO.P,R18,1*%
%TO.N,+12V*%
X183605000Y-101300000D03*
%TO.P,R18,2*%
%TO.N,Net-(IC1-IN+)*%
X184625000Y-101300000D03*
%TD*%
D15*
%TO.P,H2,*%
%TO.N,*%
X198300000Y-77450000D03*
%TD*%
D31*
%TO.P,Q2,1,S*%
%TO.N,GND*%
X181595000Y-88157500D03*
%TO.P,Q2,2,S*%
X181595000Y-88797500D03*
%TO.P,Q2,3,S*%
X181595000Y-89457500D03*
%TO.P,Q2,4,G*%
%TO.N,Net-(IC2-LO)*%
X181595000Y-90097500D03*
D32*
%TO.P,Q2,5,D*%
%TO.N,Net-(IC2-SW)*%
X183420000Y-89127500D03*
%TD*%
D29*
%TO.P,C3,1,1*%
%TO.N,+5V*%
X179485000Y-100795000D03*
%TO.P,C3,2,2*%
%TO.N,GND*%
X181385000Y-100795000D03*
%TD*%
D33*
%TO.P,C18,1*%
%TO.N,+5V*%
X185225000Y-110100000D03*
%TO.P,C18,2*%
%TO.N,GND*%
X186775000Y-110100000D03*
%TD*%
D34*
%TO.P,C15,1,+*%
%TO.N,Net-(C15-+)*%
X189450000Y-77800000D03*
%TO.P,C15,2,-*%
%TO.N,GND*%
X185050000Y-77800000D03*
%TD*%
D35*
%TO.P,R5,1,1*%
%TO.N,+12V*%
X173500000Y-81340000D03*
%TO.P,R5,2,2*%
%TO.N,Net-(IC2-EN{slash}UVLO)*%
X173500000Y-82360000D03*
%TD*%
D22*
%TO.P,C17,1,1*%
%TO.N,Net-(IC2-BST)*%
X179020000Y-87100000D03*
%TO.P,C17,2,2*%
%TO.N,Net-(IC2-SW)*%
X179980000Y-87100000D03*
%TD*%
D36*
%TO.P,J4,1,Pin_1*%
%TO.N,GND*%
X181650000Y-108900000D03*
D37*
%TO.P,J4,2,Pin_2*%
%TO.N,+5V*%
X179110000Y-108900000D03*
%TO.P,J4,3,Pin_3*%
%TO.N,GND*%
X176570000Y-108900000D03*
%TO.P,J4,4,Pin_4*%
%TO.N,+5V*%
X174030000Y-108900000D03*
%TD*%
D18*
%TO.P,C5,1,1*%
%TO.N,Net-(IC3-EN)*%
X176205000Y-97670000D03*
%TO.P,C5,2,2*%
%TO.N,GND*%
X176205000Y-96120000D03*
%TD*%
D38*
%TO.P,C7,1,1*%
%TO.N,+12V*%
X167175000Y-86200000D03*
%TO.P,C7,2,2*%
%TO.N,GND*%
X170125000Y-86200000D03*
%TD*%
D12*
%TO.P,R14,1,1*%
%TO.N,Net-(IC3-EN)*%
X173310000Y-100800000D03*
%TO.P,R14,2,2*%
%TO.N,Net-(C21-Pad1)*%
X172290000Y-100800000D03*
%TD*%
D39*
%TO.P,IC2,1,EN/UVLO*%
%TO.N,Net-(IC2-EN{slash}UVLO)*%
X175450000Y-85950000D03*
D40*
%TO.P,IC2,2,RT*%
%TO.N,Net-(IC2-RT)*%
X174550000Y-86350000D03*
%TO.P,IC2,3,SS/TRK*%
%TO.N,Net-(IC2-SS{slash}TRK)*%
X174550000Y-86850000D03*
%TO.P,IC2,4,COMP*%
%TO.N,Net-(IC2-COMP)*%
X174550000Y-87350000D03*
%TO.P,IC2,5,FB*%
%TO.N,Net-(IC2-FB)*%
X174550000Y-87850000D03*
%TO.P,IC2,6,AGND*%
%TO.N,GND*%
X174550000Y-88350000D03*
%TO.P,IC2,7,SYNCOUT*%
%TO.N,unconnected-(IC2-SYNCOUT-Pad7)*%
X174550000Y-88850000D03*
%TO.P,IC2,8,SYNCIN*%
%TO.N,Net-(IC2-SYNCIN)*%
X174550000Y-89350000D03*
%TO.P,IC2,9,NC_1*%
%TO.N,unconnected-(IC2-NC_1-Pad9)*%
X174550000Y-89850000D03*
D39*
%TO.P,IC2,10,PGOOD*%
%TO.N,Net-(IC2-PGOOD)*%
X175450000Y-90250000D03*
%TO.P,IC2,11,ILIM*%
%TO.N,Net-(IC2-ILIM)*%
X176950000Y-90250000D03*
D40*
%TO.P,IC2,12,PGND*%
%TO.N,GND*%
X177850000Y-89850000D03*
%TO.P,IC2,13,LO*%
%TO.N,Net-(IC2-LO)*%
X177850000Y-89350000D03*
%TO.P,IC2,14,VCC*%
%TO.N,Net-(IC2-VCC)*%
X177850000Y-88850000D03*
%TO.P,IC2,15,EP_1*%
%TO.N,GND*%
X177850000Y-88350000D03*
%TO.P,IC2,16,NC_2*%
%TO.N,unconnected-(IC2-NC_2-Pad16)*%
X177850000Y-87850000D03*
%TO.P,IC2,17,BST*%
%TO.N,Net-(IC2-BST)*%
X177850000Y-87350000D03*
%TO.P,IC2,18,HO*%
%TO.N,Net-(IC2-HO)*%
X177850000Y-86850000D03*
%TO.P,IC2,19,SW*%
%TO.N,Net-(IC2-SW)*%
X177850000Y-86350000D03*
D39*
%TO.P,IC2,20,VIN*%
%TO.N,Net-(IC2-VIN)*%
X176950000Y-85950000D03*
D41*
%TO.P,IC2,21,EP_2*%
%TO.N,GND*%
X176200000Y-88100000D03*
%TD*%
D42*
%TO.P,C11,1,1*%
%TO.N,Net-(C11-Pad1)*%
X182075000Y-98330000D03*
%TO.P,C11,2,2*%
%TO.N,Net-(IC2-FB)*%
X182075000Y-97370000D03*
%TD*%
D23*
%TO.P,C4,1*%
%TO.N,+5V*%
X185225000Y-107575000D03*
%TO.P,C4,2*%
%TO.N,GND*%
X188175000Y-107575000D03*
%TD*%
D43*
%TO.P,R10,1,1*%
%TO.N,Net-(C15-+)*%
X185025000Y-97925000D03*
%TO.P,R10,2,2*%
%TO.N,Net-(IC2-FB)*%
X183375000Y-97925000D03*
%TD*%
D15*
%TO.P,H2,*%
%TO.N,*%
X168000000Y-77500000D03*
%TD*%
D44*
%TO.P,C9,1,1*%
%TO.N,Net-(IC2-SS{slash}TRK)*%
X173380000Y-86550000D03*
%TO.P,C9,2,2*%
%TO.N,GND*%
X172420000Y-86550000D03*
%TD*%
D12*
%TO.P,R7,1,1*%
%TO.N,Net-(IC2-RT)*%
X173760000Y-85200000D03*
%TO.P,R7,2,2*%
%TO.N,GND*%
X172740000Y-85200000D03*
%TD*%
D28*
%TO.P,R8,1,1*%
%TO.N,+12V*%
X175200000Y-81175000D03*
%TO.P,R8,2,2*%
%TO.N,Net-(IC2-VIN)*%
X175200000Y-82825000D03*
%TD*%
D16*
%TO.P,R15,1,1*%
%TO.N,Net-(IC2-FB)*%
X183280000Y-96200000D03*
%TO.P,R15,2,2*%
%TO.N,GND*%
X184300000Y-96200000D03*
%TD*%
D45*
%TO.P,Q1,1,S*%
%TO.N,Net-(IC2-SW)*%
X179160000Y-85100000D03*
%TO.P,Q1,2,S*%
X179800000Y-85100000D03*
%TO.P,Q1,3,S*%
X180460000Y-85100000D03*
%TO.P,Q1,4,G*%
%TO.N,Net-(IC2-HO)*%
X181100000Y-85100000D03*
D46*
%TO.P,Q1,5,D*%
%TO.N,+12V*%
X180130000Y-83275000D03*
%TD*%
D33*
%TO.P,C14,1,1*%
%TO.N,Net-(IC2-ILIM)*%
X176200000Y-92850000D03*
%TO.P,C14,2,2*%
%TO.N,GND*%
X177750000Y-92850000D03*
%TD*%
D47*
%TO.P,D1,1,K*%
%TO.N,Net-(D1-K)*%
X193450000Y-107600000D03*
%TO.P,D1,2,A*%
%TO.N,2.5v*%
X190650000Y-107600000D03*
%TD*%
D43*
%TO.P,R16,1*%
%TO.N,GND*%
X192275000Y-105500000D03*
%TO.P,R16,2*%
%TO.N,2.5v*%
X190625000Y-105500000D03*
%TD*%
D22*
%TO.P,C12,1,1*%
%TO.N,Net-(IC2-COMP)*%
X178020000Y-95200000D03*
%TO.P,C12,2,2*%
%TO.N,Net-(C12-Pad2)*%
X178980000Y-95200000D03*
%TD*%
D48*
%TO.N,GND*%
X173550000Y-90090000D03*
X179460000Y-90810000D03*
X182750000Y-77850000D03*
X168300000Y-101250000D03*
X182800000Y-79100000D03*
X183900000Y-79450000D03*
X177960000Y-82660000D03*
X168300000Y-100300000D03*
X171500000Y-86200000D03*
X180950000Y-93110000D03*
X170750000Y-83350000D03*
X168300000Y-102250000D03*
X171550000Y-84950000D03*
X171110000Y-108720000D03*
X171450000Y-87250000D03*
X183850000Y-76100000D03*
X195970000Y-80290000D03*
X167500000Y-103100000D03*
X170100000Y-84050000D03*
X176950000Y-82100000D03*
X182800000Y-76450000D03*
X171150000Y-84150000D03*
X166500000Y-103100000D03*
X165550000Y-103100000D03*
X197170000Y-103940000D03*
X175510000Y-76990000D03*
X170100000Y-88300000D03*
%TO.N,Net-(IC2-HO)*%
X181400000Y-86000000D03*
X178815999Y-86292528D03*
%TO.N,Net-(IC2-VCC)*%
X179174265Y-89425735D03*
X174850000Y-92450000D03*
%TO.N,Net-(IC2-COMP)*%
X170200000Y-89450000D03*
X176750000Y-94800000D03*
%TO.N,Net-(IC2-FB)*%
X182000000Y-94500000D03*
X171850000Y-88650000D03*
%TO.N,Net-(C15-+)*%
X192640000Y-77800000D03*
X197055000Y-96955000D03*
%TO.N,+12V*%
X169900000Y-100650000D03*
X182050000Y-103400000D03*
%TD*%
D49*
%TO.N,Net-(IC3-EN)*%
X173450000Y-98500000D02*
X174310000Y-97640000D01*
X173310000Y-100800000D02*
X173885000Y-100225000D01*
X173885000Y-100225000D02*
X175275000Y-100225000D01*
X172700000Y-98500000D02*
X173450000Y-98500000D01*
X174310000Y-97640000D02*
X174695000Y-97640000D01*
X174695000Y-97640000D02*
X176175000Y-97640000D01*
X176205000Y-98345000D02*
X175275000Y-99275000D01*
X175275000Y-99275000D02*
X175275000Y-100225000D01*
X176230000Y-98025000D02*
X176260000Y-98055000D01*
X176205000Y-97670000D02*
X176205000Y-98345000D01*
%TO.N,GND*%
X176200000Y-88600000D02*
X176200000Y-88100000D01*
X175950000Y-88350000D02*
X176200000Y-88100000D01*
X177450000Y-89850000D02*
X176200000Y-88600000D01*
X174550000Y-88350000D02*
X175950000Y-88350000D01*
X176450000Y-88350000D02*
X176200000Y-88100000D01*
X177850000Y-88350000D02*
X176450000Y-88350000D01*
X177850000Y-89850000D02*
X177450000Y-89850000D01*
%TO.N,Net-(IC3-CB)*%
X177775000Y-101175000D02*
X177775000Y-101825000D01*
X175930000Y-102600000D02*
X177000000Y-102600000D01*
X177000000Y-102600000D02*
X177775000Y-101825000D01*
%TO.N,Net-(IC3-SW)*%
X174550000Y-105025000D02*
X174550000Y-103020000D01*
X175275000Y-102295000D02*
X175275000Y-101175000D01*
X174550000Y-103020000D02*
X174970000Y-102600000D01*
X174970000Y-102600000D02*
X175275000Y-102295000D01*
%TO.N,Net-(IC3-FB)*%
X179105000Y-99275000D02*
X177855000Y-99275000D01*
X179200000Y-99620000D02*
X179160000Y-99660000D01*
X177800000Y-98300000D02*
X177800000Y-98410000D01*
X177775000Y-98055000D02*
X177775000Y-99275000D01*
%TO.N,Net-(IC2-SW)*%
X179800000Y-86920000D02*
X179980000Y-87100000D01*
X177910000Y-86350000D02*
X179160000Y-85100000D01*
X179160000Y-85100000D02*
X180460000Y-85100000D01*
X177850000Y-86350000D02*
X177910000Y-86350000D01*
X183420000Y-89690000D02*
X183420000Y-89127500D01*
X181260000Y-91850000D02*
X183420000Y-89690000D01*
%TO.N,Net-(IC2-HO)*%
X181400000Y-85400000D02*
X181100000Y-85100000D01*
X177850000Y-86850000D02*
X178258527Y-86850000D01*
X178258527Y-86850000D02*
X178815999Y-86292528D01*
X181400000Y-86000000D02*
X181400000Y-85400000D01*
%TO.N,Net-(IC2-VIN)*%
X176670000Y-84550000D02*
X176725000Y-84550000D01*
X176950000Y-84775000D02*
X176950000Y-85950000D01*
X175200000Y-83080000D02*
X176670000Y-84550000D01*
X176725000Y-84550000D02*
X176950000Y-84775000D01*
X175200000Y-82825000D02*
X175200000Y-83080000D01*
%TO.N,Net-(IC2-LO)*%
X178250000Y-89350000D02*
X178997500Y-90097500D01*
X177850000Y-89350000D02*
X178250000Y-89350000D01*
X178997500Y-90097500D02*
X181595000Y-90097500D01*
%TO.N,Net-(IC2-VCC)*%
X179174265Y-89425735D02*
X179174265Y-88654265D01*
X179174265Y-88654265D02*
X179020000Y-88500000D01*
X178670000Y-88850000D02*
X177850000Y-88850000D01*
X173600000Y-93000000D02*
X174300000Y-93000000D01*
X179020000Y-88500000D02*
X178670000Y-88850000D01*
X172050000Y-92650000D02*
X172400000Y-93000000D01*
X174300000Y-93000000D02*
X174850000Y-92450000D01*
X172050000Y-92000000D02*
X172050000Y-92650000D01*
X172400000Y-93000000D02*
X173600000Y-93000000D01*
%TO.N,Net-(IC2-SYNCIN)*%
X173050000Y-89350000D02*
X172050000Y-90350000D01*
X174550000Y-89350000D02*
X173050000Y-89350000D01*
%TO.N,Net-(IC2-PGOOD)*%
X173600000Y-91350000D02*
X174350000Y-91350000D01*
X174350000Y-91350000D02*
X175450000Y-90250000D01*
%TO.N,Net-(IC2-BST)*%
X179020000Y-87100000D02*
X178770000Y-87350000D01*
X178770000Y-87350000D02*
X177850000Y-87350000D01*
%TO.N,Net-(C12-Pad2)*%
X178980000Y-95200000D02*
X180040000Y-95200000D01*
%TO.N,Net-(IC2-ILIM)*%
X176200000Y-91000000D02*
X176200000Y-92850000D01*
X176950000Y-90250000D02*
X176200000Y-91000000D01*
X178550000Y-91850000D02*
X176950000Y-90250000D01*
X180240000Y-91850000D02*
X178550000Y-91850000D01*
%TO.N,Net-(C11-Pad1)*%
X183490000Y-99175000D02*
X183200000Y-99175000D01*
X182900000Y-99150000D02*
X182080000Y-98330000D01*
X182080000Y-98330000D02*
X182075000Y-98330000D01*
X183200000Y-99175000D02*
X183175000Y-99150000D01*
X183175000Y-99150000D02*
X182900000Y-99150000D01*
%TO.N,Net-(C21-Pad1)*%
X171600000Y-101490000D02*
X171600000Y-102300000D01*
X172290000Y-100800000D02*
X171600000Y-101490000D01*
%TO.N,Net-(IC2-RT)*%
X174500000Y-86300000D02*
X174550000Y-86350000D01*
X174550000Y-86350000D02*
X174550000Y-86050000D01*
X173760000Y-85260000D02*
X173760000Y-85200000D01*
X174550000Y-86050000D02*
X173760000Y-85260000D01*
%TO.N,Net-(IC2-EN{slash}UVLO)*%
X173500000Y-83270000D02*
X173500000Y-82360000D01*
X172225000Y-83350000D02*
X172240000Y-83335000D01*
X173485000Y-83335000D02*
X175450000Y-85300000D01*
X175450000Y-85300000D02*
X175450000Y-85950000D01*
X173435000Y-83335000D02*
X173485000Y-83335000D01*
X172240000Y-83335000D02*
X173435000Y-83335000D01*
X173435000Y-83335000D02*
X173500000Y-83270000D01*
%TO.N,Net-(IC2-SS{slash}TRK)*%
X173430000Y-86500000D02*
X173380000Y-86550000D01*
X173550000Y-86500000D02*
X173430000Y-86500000D01*
X173900000Y-86850000D02*
X173550000Y-86500000D01*
X174550000Y-86850000D02*
X173900000Y-86850000D01*
%TO.N,Net-(IC2-COMP)*%
X176750000Y-94800000D02*
X177620000Y-94800000D01*
X178020000Y-95200000D02*
X178000000Y-95220000D01*
X177620000Y-94800000D02*
X178020000Y-95200000D01*
X178970000Y-96150000D02*
X178020000Y-95200000D01*
X170200000Y-89450000D02*
X172300000Y-87350000D01*
X172300000Y-87350000D02*
X174550000Y-87350000D01*
%TO.N,Net-(IC2-FB)*%
X182000000Y-97295000D02*
X182075000Y-97370000D01*
X182000000Y-94500000D02*
X181900000Y-94400000D01*
X183375000Y-97925000D02*
X182825000Y-97375000D01*
X182000000Y-95250000D02*
X182000000Y-96200000D01*
X183280000Y-96200000D02*
X182000000Y-96200000D01*
X180010000Y-96250000D02*
X181060000Y-95200000D01*
X182825000Y-97375000D02*
X182080000Y-97375000D01*
X182080000Y-97375000D02*
X182075000Y-97370000D01*
X171900000Y-88650000D02*
X172700000Y-87850000D01*
X182000000Y-96200000D02*
X182000000Y-97295000D01*
X172700000Y-87850000D02*
X174550000Y-87850000D01*
X181060000Y-95200000D02*
X181950000Y-95200000D01*
X182000000Y-94500000D02*
X182000000Y-95250000D01*
X171850000Y-88650000D02*
X171900000Y-88650000D01*
%TO.N,Net-(C15-+)*%
X184510000Y-99165000D02*
X184510000Y-99175000D01*
X187800000Y-97925000D02*
X185025000Y-97925000D01*
D50*
X196505000Y-96405000D02*
X196505000Y-94320000D01*
X196460000Y-94320000D02*
X196505000Y-94320000D01*
X197055000Y-96955000D02*
X196505000Y-96405000D01*
D49*
X185025000Y-97925000D02*
X185025000Y-98650000D01*
X185025000Y-98650000D02*
X184510000Y-99165000D01*
D50*
X199075000Y-98975000D02*
X197055000Y-96955000D01*
D49*
X199075000Y-99000000D02*
X199075000Y-98975000D01*
X190875000Y-101000000D02*
X187800000Y-97925000D01*
X197075000Y-101000000D02*
X190875000Y-101000000D01*
X199075000Y-99000000D02*
X197075000Y-101000000D01*
D50*
X192640000Y-77800000D02*
X189450000Y-77800000D01*
D49*
%TO.N,+5V*%
X180195000Y-100085000D02*
X180195000Y-99655000D01*
X174060000Y-109210000D02*
X176750000Y-106520000D01*
X180250000Y-100040000D02*
X180220000Y-100010000D01*
X176750000Y-105025000D02*
X178975000Y-105025000D01*
X179140000Y-108865000D02*
X179140000Y-109210000D01*
X179485000Y-100795000D02*
X180195000Y-100085000D01*
X176750000Y-105025000D02*
X176750000Y-105400000D01*
X184325000Y-107575000D02*
X185225000Y-107575000D01*
X179485000Y-100795000D02*
X179485000Y-101915000D01*
X185275000Y-105300000D02*
X187175000Y-105300000D01*
X185225000Y-107575000D02*
X185225000Y-105350000D01*
X183362500Y-106612500D02*
X184325000Y-107575000D01*
X180220000Y-100010000D02*
X180220000Y-99620000D01*
X177962500Y-106612500D02*
X182862500Y-106612500D01*
X176750000Y-105025000D02*
X176750000Y-106475000D01*
X182862500Y-106612500D02*
X183362500Y-106612500D01*
X178975000Y-105025000D02*
X179000000Y-105050000D01*
X176750000Y-106520000D02*
X176750000Y-105025000D01*
X176750000Y-105400000D02*
X177962500Y-106612500D01*
X185225000Y-110100000D02*
X185225000Y-107575000D01*
X185225000Y-105350000D02*
X185275000Y-105300000D01*
X179485000Y-101915000D02*
X179000000Y-102400000D01*
X176750000Y-106475000D02*
X179140000Y-108865000D01*
X179000000Y-102400000D02*
X179000000Y-105050000D01*
%TO.N,5v*%
X187925000Y-102800000D02*
X188875000Y-103750000D01*
X187175000Y-102800000D02*
X187925000Y-102800000D01*
D50*
%TO.N,Net-(F1-Pad1)*%
X166475000Y-96230000D02*
X166490000Y-96245000D01*
X166475000Y-91500000D02*
X166475000Y-96230000D01*
D49*
%TO.N,Net-(D1-K)*%
X193450000Y-107600000D02*
X193950000Y-107600000D01*
X193950000Y-107600000D02*
X194425000Y-108075000D01*
X194425000Y-108075000D02*
X195025000Y-108075000D01*
%TO.N,2.5v*%
X190425000Y-105500000D02*
X190525000Y-105400000D01*
X188875000Y-105400000D02*
X188975000Y-105500000D01*
X190625000Y-105500000D02*
X190625000Y-107575000D01*
X190625000Y-107575000D02*
X190650000Y-107600000D01*
X188975000Y-105500000D02*
X190425000Y-105500000D01*
%TO.N,+12V*%
X169825000Y-94025000D02*
X169100000Y-93300000D01*
X169825000Y-95650000D02*
X169825000Y-94025000D01*
X183605000Y-101845000D02*
X183605000Y-101300000D01*
D50*
X166400000Y-84800000D02*
X170850000Y-80350000D01*
D49*
X169825000Y-95650000D02*
X169825000Y-98425000D01*
D50*
X166400000Y-88625000D02*
X166400000Y-84800000D01*
X179200000Y-80350000D02*
X180130000Y-81280000D01*
X180130000Y-82260000D02*
X180120000Y-82270000D01*
D49*
X169100000Y-93300000D02*
X169100000Y-91400000D01*
X169825000Y-98425000D02*
X169900000Y-98500000D01*
X166475000Y-88775000D02*
X166475000Y-88700000D01*
X182050000Y-103400000D02*
X183605000Y-101845000D01*
X169900000Y-98500000D02*
X169900000Y-100650000D01*
X169100000Y-91400000D02*
X166475000Y-88775000D01*
D50*
X180130000Y-81280000D02*
X180130000Y-82260000D01*
X170850000Y-80350000D02*
X179200000Y-80350000D01*
D49*
%TO.N,Net-(IC1-IN+)*%
X185925000Y-101300000D02*
X185950000Y-101325000D01*
X184625000Y-101300000D02*
X185275000Y-101300000D01*
X185275000Y-101300000D02*
X185925000Y-101300000D01*
X185275000Y-101300000D02*
X185275000Y-102800000D01*
%TD*%
%TA.AperFunction,Conductor*%
%TO.N,GND*%
G36*
X177928326Y-89871674D02*
G01*
X177950000Y-89924000D01*
X177950000Y-90175000D01*
X178169697Y-90175000D01*
X178228035Y-90163396D01*
X178294191Y-90119192D01*
X178294192Y-90119191D01*
X178338394Y-90053037D01*
X178342853Y-90030621D01*
X178374318Y-89983528D01*
X178429866Y-89972476D01*
X178467758Y-89992729D01*
X178812989Y-90337960D01*
X178881512Y-90377522D01*
X178957938Y-90398000D01*
X181089522Y-90398000D01*
X181141848Y-90419674D01*
X181215421Y-90493247D01*
X181319455Y-90541759D01*
X181366861Y-90548000D01*
X181823138Y-90547999D01*
X181870545Y-90541759D01*
X181965677Y-90497397D01*
X181982088Y-90496681D01*
X181997295Y-90490466D01*
X182009276Y-90495494D01*
X182022258Y-90494928D01*
X182034369Y-90506025D01*
X182049519Y-90512384D01*
X182054435Y-90524412D01*
X182064016Y-90533191D01*
X182070948Y-90564811D01*
X182070859Y-90583861D01*
X182049186Y-90635841D01*
X181377203Y-91307826D01*
X181324877Y-91329500D01*
X181085684Y-91329500D01*
X181074318Y-91330996D01*
X181036828Y-91335931D01*
X180929595Y-91385935D01*
X180845935Y-91469595D01*
X180817067Y-91531504D01*
X180775309Y-91569767D01*
X180718726Y-91567297D01*
X180682933Y-91531504D01*
X180681218Y-91527826D01*
X180654065Y-91469596D01*
X180570404Y-91385935D01*
X180463173Y-91335932D01*
X180463171Y-91335931D01*
X180427178Y-91331193D01*
X180414316Y-91329500D01*
X180065684Y-91329500D01*
X180054318Y-91330996D01*
X180016828Y-91335931D01*
X179909595Y-91385935D01*
X179825933Y-91469597D01*
X179808599Y-91506773D01*
X179766842Y-91545037D01*
X179741532Y-91549500D01*
X178705123Y-91549500D01*
X178652797Y-91527826D01*
X177415274Y-90290303D01*
X177393600Y-90237977D01*
X177415274Y-90185651D01*
X177467600Y-90163977D01*
X177482037Y-90165399D01*
X177530304Y-90175000D01*
X177750000Y-90175000D01*
X177750000Y-89924000D01*
X177771674Y-89871674D01*
X177824000Y-89850000D01*
X177876000Y-89850000D01*
X177928326Y-89871674D01*
G37*
%TD.AperFunction*%
%TA.AperFunction,Conductor*%
G36*
X177333445Y-89518978D02*
G01*
X177356762Y-89547388D01*
X177357085Y-89547173D01*
X177359273Y-89550448D01*
X177360701Y-89552188D01*
X177361133Y-89553233D01*
X177365214Y-89559340D01*
X177376262Y-89614890D01*
X177365216Y-89641557D01*
X177361605Y-89646961D01*
X177361603Y-89646965D01*
X177350000Y-89705302D01*
X177350000Y-89757245D01*
X177328326Y-89809571D01*
X177276000Y-89831245D01*
X177234400Y-89818445D01*
X177223107Y-89810768D01*
X177219552Y-89805448D01*
X177153231Y-89761133D01*
X177148785Y-89760248D01*
X177138907Y-89753534D01*
X177127208Y-89735721D01*
X177112141Y-89720655D01*
X177112140Y-89712778D01*
X177107816Y-89706193D01*
X177112139Y-89685325D01*
X177112139Y-89664018D01*
X177118045Y-89656820D01*
X177119307Y-89650734D01*
X177127405Y-89645415D01*
X177139396Y-89630805D01*
X177194189Y-89594194D01*
X177194194Y-89594189D01*
X177230805Y-89539396D01*
X177277896Y-89507929D01*
X177333445Y-89518978D01*
G37*
%TD.AperFunction*%
%TA.AperFunction,Conductor*%
G36*
X179298806Y-87619339D02*
G01*
X179319312Y-87643717D01*
X179323901Y-87652480D01*
X179327679Y-87660946D01*
X179332148Y-87672926D01*
X179335812Y-87678627D01*
X179343663Y-87690842D01*
X179343665Y-87690845D01*
X179345437Y-87693603D01*
X179354571Y-87711043D01*
X179362946Y-87720849D01*
X179365663Y-87725076D01*
X179365663Y-87725078D01*
X179365664Y-87725079D01*
X179369898Y-87731668D01*
X179369927Y-87731711D01*
X179384775Y-87751973D01*
X179384776Y-87751973D01*
X179384777Y-87751975D01*
X179393322Y-87758509D01*
X179401585Y-87765871D01*
X179417411Y-87782255D01*
X179417413Y-87782256D01*
X179417414Y-87782257D01*
X179440241Y-87795241D01*
X179444612Y-87797727D01*
X179457428Y-87807527D01*
X179465256Y-87811102D01*
X179465847Y-87809806D01*
X179496906Y-87827473D01*
X179504440Y-87829743D01*
X179513827Y-87833283D01*
X179515684Y-87834131D01*
X179520985Y-87836552D01*
X179544454Y-87845579D01*
X179555314Y-87846466D01*
X179561166Y-87847361D01*
X179561185Y-87847241D01*
X179563797Y-87847635D01*
X179563798Y-87847636D01*
X179621638Y-87856377D01*
X181013011Y-87866350D01*
X181065179Y-87888398D01*
X181086477Y-87940878D01*
X181085846Y-87950006D01*
X181080000Y-87994415D01*
X181080000Y-88057500D01*
X181521000Y-88057500D01*
X181573326Y-88079174D01*
X181595000Y-88131500D01*
X181595000Y-88157500D01*
X181621000Y-88157500D01*
X181673326Y-88179174D01*
X181695000Y-88231500D01*
X181695000Y-89383500D01*
X181673326Y-89435826D01*
X181621000Y-89457500D01*
X181595000Y-89457500D01*
X181595000Y-89483500D01*
X181573326Y-89535826D01*
X181521000Y-89557500D01*
X181080001Y-89557500D01*
X181080001Y-89620583D01*
X181086230Y-89667912D01*
X181086231Y-89667914D01*
X181097335Y-89691726D01*
X181099805Y-89748309D01*
X181061542Y-89790067D01*
X181030268Y-89797000D01*
X179666015Y-89797000D01*
X179613689Y-89775326D01*
X179592015Y-89723000D01*
X179601929Y-89686000D01*
X179621892Y-89651422D01*
X179640657Y-89618921D01*
X179674764Y-89491629D01*
X179674765Y-89491629D01*
X179674765Y-89359841D01*
X179674764Y-89359840D01*
X179674545Y-89359024D01*
X179657234Y-89294416D01*
X181080000Y-89294416D01*
X181080000Y-89357500D01*
X181495000Y-89357500D01*
X181495000Y-88897500D01*
X181080001Y-88897500D01*
X181080001Y-88960583D01*
X181086230Y-89007912D01*
X181086232Y-89007917D01*
X181127411Y-89096227D01*
X181129881Y-89152810D01*
X181127411Y-89158773D01*
X181086231Y-89247085D01*
X181086230Y-89247087D01*
X181080000Y-89294416D01*
X179657234Y-89294416D01*
X179642020Y-89237635D01*
X179649412Y-89181483D01*
X179694345Y-89147005D01*
X179744772Y-89151416D01*
X179770646Y-89163481D01*
X179770645Y-89163481D01*
X179820162Y-89170000D01*
X179900000Y-89170000D01*
X180100000Y-89170000D01*
X180179838Y-89170000D01*
X180229354Y-89163481D01*
X180338024Y-89112807D01*
X180422807Y-89028024D01*
X180473481Y-88919354D01*
X180480000Y-88869838D01*
X180480000Y-88760000D01*
X180100000Y-88760000D01*
X180100000Y-89170000D01*
X179900000Y-89170000D01*
X179900000Y-88634416D01*
X181080000Y-88634416D01*
X181080000Y-88697500D01*
X181495000Y-88697500D01*
X181495000Y-88257500D01*
X181080001Y-88257500D01*
X181080001Y-88320583D01*
X181086230Y-88367912D01*
X181086232Y-88367917D01*
X181122748Y-88446227D01*
X181125218Y-88502810D01*
X181122748Y-88508773D01*
X181086231Y-88587085D01*
X181086230Y-88587087D01*
X181080000Y-88634416D01*
X179900000Y-88634416D01*
X179900000Y-88560000D01*
X180100000Y-88560000D01*
X180480000Y-88560000D01*
X180480000Y-88450161D01*
X180473481Y-88400645D01*
X180422807Y-88291975D01*
X180338024Y-88207192D01*
X180229353Y-88156518D01*
X180229354Y-88156518D01*
X180179838Y-88150000D01*
X180100000Y-88150000D01*
X180100000Y-88560000D01*
X179900000Y-88560000D01*
X179900000Y-88150000D01*
X179820162Y-88150000D01*
X179770645Y-88156518D01*
X179661975Y-88207192D01*
X179572640Y-88296527D01*
X179520314Y-88318201D01*
X179467988Y-88296527D01*
X179467573Y-88296033D01*
X179378316Y-88206776D01*
X179375155Y-88205302D01*
X179269487Y-88156028D01*
X179269485Y-88156027D01*
X179232955Y-88151218D01*
X179219901Y-88149500D01*
X179219899Y-88149500D01*
X178860100Y-88149500D01*
X178810514Y-88156027D01*
X178810512Y-88156028D01*
X178701683Y-88206776D01*
X178616776Y-88291683D01*
X178566027Y-88400514D01*
X178559500Y-88450100D01*
X178559500Y-88475500D01*
X178537826Y-88527826D01*
X178485500Y-88549500D01*
X178424000Y-88549500D01*
X178371674Y-88527826D01*
X178350000Y-88475500D01*
X178350000Y-88450000D01*
X177924000Y-88450000D01*
X177871674Y-88428326D01*
X177850000Y-88376000D01*
X177850000Y-88324000D01*
X177871674Y-88271674D01*
X177924000Y-88250000D01*
X178350000Y-88250000D01*
X178350000Y-88205302D01*
X178338395Y-88146964D01*
X178334787Y-88141563D01*
X178323737Y-88086015D01*
X178334788Y-88059335D01*
X178336014Y-88057500D01*
X178338867Y-88053231D01*
X178350500Y-87994748D01*
X178350500Y-87724500D01*
X178372174Y-87672174D01*
X178424500Y-87650500D01*
X178809564Y-87650500D01*
X178809564Y-87650499D01*
X178885989Y-87630021D01*
X178902628Y-87620414D01*
X178939629Y-87610499D01*
X179199897Y-87610499D01*
X179199900Y-87610499D01*
X179244101Y-87604680D01*
X179298806Y-87619339D01*
G37*
%TD.AperFunction*%
%TA.AperFunction,Conductor*%
G36*
X199352231Y-74510634D02*
G01*
X199646821Y-74528454D01*
X199655673Y-74529528D01*
X199943784Y-74582327D01*
X199952435Y-74584460D01*
X200232062Y-74671595D01*
X200240401Y-74674757D01*
X200507497Y-74794967D01*
X200515409Y-74799120D01*
X200766046Y-74950636D01*
X200773400Y-74955712D01*
X201003951Y-75136336D01*
X201010640Y-75142262D01*
X201217737Y-75349359D01*
X201223663Y-75356048D01*
X201404287Y-75586599D01*
X201409363Y-75593953D01*
X201560879Y-75844590D01*
X201565032Y-75852502D01*
X201685239Y-76119590D01*
X201688407Y-76127946D01*
X201742702Y-76302186D01*
X201775536Y-76407552D01*
X201777675Y-76416228D01*
X201830469Y-76704317D01*
X201831546Y-76713188D01*
X201849365Y-77007768D01*
X201849500Y-77012236D01*
X201849500Y-108497763D01*
X201849365Y-108502231D01*
X201831546Y-108796811D01*
X201830469Y-108805682D01*
X201777675Y-109093771D01*
X201775536Y-109102447D01*
X201688407Y-109382053D01*
X201685239Y-109390409D01*
X201565032Y-109657497D01*
X201560879Y-109665409D01*
X201409363Y-109916046D01*
X201404287Y-109923400D01*
X201223663Y-110153951D01*
X201217737Y-110160640D01*
X201010640Y-110367737D01*
X201003951Y-110373663D01*
X200773400Y-110554287D01*
X200766046Y-110559363D01*
X200515409Y-110710879D01*
X200507497Y-110715032D01*
X200240409Y-110835239D01*
X200232053Y-110838407D01*
X199952447Y-110925536D01*
X199943771Y-110927675D01*
X199655682Y-110980469D01*
X199646811Y-110981546D01*
X199352232Y-110999365D01*
X199347764Y-110999500D01*
X167002236Y-110999500D01*
X166997768Y-110999365D01*
X166703188Y-110981546D01*
X166694317Y-110980469D01*
X166406228Y-110927675D01*
X166397552Y-110925536D01*
X166117946Y-110838407D01*
X166109590Y-110835239D01*
X165842502Y-110715032D01*
X165834590Y-110710879D01*
X165583953Y-110559363D01*
X165576599Y-110554287D01*
X165346048Y-110373663D01*
X165339359Y-110367737D01*
X165132262Y-110160640D01*
X165126336Y-110153951D01*
X164945712Y-109923400D01*
X164940636Y-109916046D01*
X164789120Y-109665409D01*
X164784967Y-109657497D01*
X164757774Y-109597076D01*
X164664757Y-109390401D01*
X164661595Y-109382062D01*
X164574460Y-109102435D01*
X164572327Y-109093784D01*
X164519528Y-108805673D01*
X164518454Y-108796821D01*
X164500635Y-108502231D01*
X164500500Y-108497763D01*
X164500500Y-107889776D01*
X166599500Y-107889776D01*
X166599500Y-108110223D01*
X166633984Y-108327948D01*
X166633987Y-108327961D01*
X166702103Y-108537602D01*
X166702104Y-108537605D01*
X166702105Y-108537606D01*
X166772366Y-108675500D01*
X166802186Y-108734023D01*
X166802186Y-108734024D01*
X166851051Y-108801281D01*
X166931758Y-108912365D01*
X167087635Y-109068242D01*
X167265978Y-109197815D01*
X167462394Y-109297895D01*
X167462397Y-109297896D01*
X167462396Y-109297896D01*
X167672038Y-109366012D01*
X167672044Y-109366013D01*
X167672049Y-109366015D01*
X167773309Y-109382053D01*
X167889776Y-109400500D01*
X167889778Y-109400500D01*
X168110224Y-109400500D01*
X168226691Y-109382053D01*
X168327951Y-109366015D01*
X168327958Y-109366012D01*
X168327961Y-109366012D01*
X168423133Y-109335088D01*
X168537606Y-109297895D01*
X168734022Y-109197815D01*
X168912365Y-109068242D01*
X169068242Y-108912365D01*
X169197815Y-108734022D01*
X169297895Y-108537606D01*
X169335088Y-108423133D01*
X169366012Y-108327961D01*
X169366012Y-108327958D01*
X169366015Y-108327951D01*
X169400500Y-108110222D01*
X169400500Y-107889778D01*
X169388729Y-107815462D01*
X169377505Y-107744595D01*
X169366015Y-107672049D01*
X169366013Y-107672044D01*
X169366012Y-107672038D01*
X169297896Y-107462397D01*
X169297895Y-107462396D01*
X169297895Y-107462394D01*
X169197815Y-107265978D01*
X169068242Y-107087635D01*
X168912365Y-106931758D01*
X168786600Y-106840385D01*
X168734024Y-106802186D01*
X168574338Y-106720821D01*
X168537606Y-106702105D01*
X168537605Y-106702104D01*
X168537602Y-106702103D01*
X168537603Y-106702103D01*
X168327961Y-106633987D01*
X168327948Y-106633984D01*
X168110224Y-106599500D01*
X168110222Y-106599500D01*
X167889778Y-106599500D01*
X167889776Y-106599500D01*
X167672051Y-106633984D01*
X167672038Y-106633987D01*
X167462397Y-106702103D01*
X167265976Y-106802186D01*
X167265975Y-106802186D01*
X167099356Y-106923242D01*
X167087635Y-106931758D01*
X166931758Y-107087635D01*
X166931755Y-107087638D01*
X166931755Y-107087639D01*
X166802186Y-107265975D01*
X166802186Y-107265976D01*
X166702103Y-107462397D01*
X166633987Y-107672038D01*
X166633984Y-107672051D01*
X166599500Y-107889776D01*
X164500500Y-107889776D01*
X164500500Y-105629205D01*
X170050001Y-105629205D01*
X170052850Y-105659602D01*
X170052852Y-105659611D01*
X170097652Y-105787643D01*
X170178207Y-105896791D01*
X170178208Y-105896792D01*
X170287356Y-105977347D01*
X170287355Y-105977347D01*
X170415385Y-106022146D01*
X170415393Y-106022148D01*
X170445802Y-106024999D01*
X171500000Y-106024999D01*
X171700000Y-106024999D01*
X172754194Y-106024999D01*
X172754205Y-106024998D01*
X172784602Y-106022149D01*
X172784611Y-106022147D01*
X172912643Y-105977347D01*
X173021791Y-105896792D01*
X173021792Y-105896791D01*
X173102347Y-105787643D01*
X173147146Y-105659614D01*
X173147148Y-105659606D01*
X173149999Y-105629198D01*
X173150000Y-105629197D01*
X173150000Y-105350000D01*
X171700000Y-105350000D01*
X171700000Y-106024999D01*
X171500000Y-106024999D01*
X171500000Y-105350000D01*
X170050001Y-105350000D01*
X170050001Y-105629205D01*
X164500500Y-105629205D01*
X164500500Y-104870801D01*
X170050000Y-104870801D01*
X170050000Y-105150000D01*
X171500000Y-105150000D01*
X171700000Y-105150000D01*
X173149999Y-105150000D01*
X173149999Y-104870806D01*
X173149998Y-104870794D01*
X173147149Y-104840397D01*
X173147147Y-104840388D01*
X173102347Y-104712356D01*
X173021792Y-104603208D01*
X173021791Y-104603207D01*
X172912643Y-104522652D01*
X172912644Y-104522652D01*
X172784614Y-104477853D01*
X172784606Y-104477851D01*
X172754198Y-104475000D01*
X171700000Y-104475000D01*
X171700000Y-105150000D01*
X171500000Y-105150000D01*
X171500000Y-104475000D01*
X170445806Y-104475000D01*
X170445793Y-104475001D01*
X170415397Y-104477850D01*
X170415388Y-104477852D01*
X170287356Y-104522652D01*
X170178208Y-104603207D01*
X170178207Y-104603208D01*
X170097652Y-104712356D01*
X170052853Y-104840385D01*
X170052851Y-104840393D01*
X170050000Y-104870801D01*
X164500500Y-104870801D01*
X164500500Y-100075302D01*
X165140000Y-100075302D01*
X165140000Y-101145000D01*
X165745198Y-101145000D01*
X165740000Y-101171131D01*
X165740000Y-101318869D01*
X165745198Y-101345000D01*
X165140000Y-101345000D01*
X165140000Y-102414697D01*
X165151603Y-102473035D01*
X165195807Y-102539191D01*
X165195808Y-102539192D01*
X165261964Y-102583396D01*
X165320303Y-102595000D01*
X166390000Y-102595000D01*
X166390000Y-101989802D01*
X166416131Y-101995000D01*
X166563869Y-101995000D01*
X166590000Y-101989802D01*
X166590000Y-102595000D01*
X167659697Y-102595000D01*
X167718035Y-102583396D01*
X167784191Y-102539192D01*
X167784192Y-102539191D01*
X167828396Y-102473035D01*
X167840000Y-102414697D01*
X167840000Y-101920734D01*
X170049500Y-101920734D01*
X170049500Y-102679266D01*
X170052354Y-102709699D01*
X170052354Y-102709701D01*
X170052355Y-102709704D01*
X170097206Y-102837881D01*
X170097207Y-102837883D01*
X170177846Y-102947146D01*
X170177853Y-102947153D01*
X170287116Y-103027792D01*
X170287118Y-103027793D01*
X170415295Y-103072644D01*
X170415301Y-103072646D01*
X170445734Y-103075500D01*
X170445741Y-103075500D01*
X172754258Y-103075500D01*
X172754266Y-103075500D01*
X172784699Y-103072646D01*
X172912882Y-103027793D01*
X173022150Y-102947150D01*
X173102793Y-102837882D01*
X173147646Y-102709699D01*
X173150500Y-102679266D01*
X173150500Y-101920734D01*
X173147646Y-101890301D01*
X173102793Y-101762118D01*
X173090137Y-101744969D01*
X173022153Y-101652853D01*
X173022146Y-101652846D01*
X172912883Y-101572207D01*
X172912881Y-101572206D01*
X172784704Y-101527355D01*
X172784705Y-101527355D01*
X172784700Y-101527354D01*
X172784699Y-101527354D01*
X172754266Y-101524500D01*
X172754260Y-101524500D01*
X172169123Y-101524500D01*
X172116797Y-101502826D01*
X172095123Y-101450500D01*
X172116797Y-101398174D01*
X172172797Y-101342174D01*
X172225123Y-101320500D01*
X172464314Y-101320500D01*
X172464316Y-101320500D01*
X172513173Y-101314068D01*
X172620404Y-101264065D01*
X172704065Y-101180404D01*
X172732933Y-101118495D01*
X172774690Y-101080232D01*
X172831273Y-101082702D01*
X172867067Y-101118496D01*
X172895933Y-101180402D01*
X172895935Y-101180404D01*
X172979596Y-101264065D01*
X173086827Y-101314068D01*
X173135684Y-101320500D01*
X173135686Y-101320500D01*
X173484314Y-101320500D01*
X173484316Y-101320500D01*
X173533173Y-101314068D01*
X173640404Y-101264065D01*
X173724065Y-101180404D01*
X173774068Y-101073173D01*
X173780500Y-101024316D01*
X173780500Y-100785123D01*
X173802174Y-100732797D01*
X173987797Y-100547174D01*
X174040123Y-100525500D01*
X174409941Y-100525500D01*
X174462267Y-100547174D01*
X174475704Y-100565570D01*
X174480484Y-100574836D01*
X174486133Y-100603231D01*
X174525640Y-100662356D01*
X174527556Y-100666070D01*
X174529598Y-100690446D01*
X174534371Y-100714436D01*
X174532074Y-100719981D01*
X174532286Y-100722509D01*
X174529817Y-100725429D01*
X174523321Y-100741113D01*
X174486133Y-100796766D01*
X174483218Y-100811422D01*
X174474500Y-100855252D01*
X174474500Y-101494748D01*
X174480418Y-101524500D01*
X174486133Y-101553232D01*
X174499458Y-101573173D01*
X174530448Y-101619552D01*
X174565395Y-101642903D01*
X174596767Y-101663866D01*
X174596768Y-101663866D01*
X174596769Y-101663867D01*
X174655252Y-101675500D01*
X174900500Y-101675500D01*
X174952826Y-101697174D01*
X174974500Y-101749500D01*
X174974500Y-102015500D01*
X174952826Y-102067826D01*
X174900501Y-102089500D01*
X174790100Y-102089500D01*
X174740514Y-102096027D01*
X174740512Y-102096028D01*
X174631683Y-102146776D01*
X174546776Y-102231683D01*
X174496027Y-102340514D01*
X174489500Y-102390100D01*
X174489500Y-102624876D01*
X174467826Y-102677202D01*
X174365489Y-102779540D01*
X174309540Y-102835488D01*
X174269979Y-102904009D01*
X174269977Y-102904014D01*
X174249500Y-102980435D01*
X174249500Y-103150500D01*
X174227826Y-103202826D01*
X174175500Y-103224500D01*
X173655252Y-103224500D01*
X173626010Y-103230316D01*
X173596767Y-103236133D01*
X173530449Y-103280447D01*
X173530447Y-103280449D01*
X173486133Y-103346767D01*
X173486133Y-103346769D01*
X173474500Y-103405252D01*
X173474500Y-106644748D01*
X173482255Y-106683736D01*
X173486133Y-106703232D01*
X173515608Y-106747343D01*
X173530448Y-106769552D01*
X173574560Y-106799027D01*
X173596767Y-106813866D01*
X173596768Y-106813866D01*
X173596769Y-106813867D01*
X173655252Y-106825500D01*
X173655254Y-106825500D01*
X175444746Y-106825500D01*
X175444748Y-106825500D01*
X175503231Y-106813867D01*
X175569552Y-106769552D01*
X175588472Y-106741235D01*
X175635564Y-106709771D01*
X175691113Y-106720821D01*
X175711526Y-106741234D01*
X175730448Y-106769552D01*
X175774560Y-106799027D01*
X175796767Y-106813866D01*
X175796769Y-106813867D01*
X175855252Y-106825500D01*
X175855256Y-106825500D01*
X175856488Y-106825745D01*
X175903580Y-106857210D01*
X175914630Y-106912759D01*
X175894378Y-106950649D01*
X174779374Y-108065653D01*
X174727048Y-108087327D01*
X174685936Y-108074856D01*
X174527598Y-107969059D01*
X174336420Y-107889870D01*
X174336413Y-107889868D01*
X174161211Y-107855019D01*
X174133465Y-107849500D01*
X173926535Y-107849500D01*
X173898789Y-107855019D01*
X173723586Y-107889868D01*
X173723579Y-107889870D01*
X173532401Y-107969059D01*
X173360345Y-108084022D01*
X173360344Y-108084024D01*
X173214024Y-108230344D01*
X173214022Y-108230345D01*
X173099059Y-108402401D01*
X173019870Y-108593579D01*
X173019868Y-108593586D01*
X172979500Y-108796535D01*
X172979500Y-109003464D01*
X173019868Y-109206413D01*
X173019870Y-109206420D01*
X173099059Y-109397598D01*
X173213810Y-109569337D01*
X173214023Y-109569655D01*
X173360345Y-109715977D01*
X173532402Y-109830941D01*
X173723580Y-109910130D01*
X173926535Y-109950500D01*
X173926536Y-109950500D01*
X174133464Y-109950500D01*
X174133465Y-109950500D01*
X174336420Y-109910130D01*
X174527598Y-109830941D01*
X174699655Y-109715977D01*
X174845977Y-109569655D01*
X174960941Y-109397598D01*
X175040130Y-109206420D01*
X175080500Y-109003465D01*
X175080500Y-108796584D01*
X175520000Y-108796584D01*
X175520000Y-108800000D01*
X176079157Y-108800000D01*
X176070000Y-108834174D01*
X176070000Y-108965826D01*
X176079157Y-109000000D01*
X175520000Y-109000000D01*
X175520000Y-109003415D01*
X175560348Y-109206267D01*
X175560350Y-109206274D01*
X175639500Y-109397358D01*
X175754410Y-109569335D01*
X175900664Y-109715589D01*
X176072641Y-109830499D01*
X176263725Y-109909649D01*
X176263732Y-109909651D01*
X176466584Y-109950000D01*
X176470000Y-109950000D01*
X176470000Y-109390842D01*
X176504174Y-109400000D01*
X176635826Y-109400000D01*
X176670000Y-109390842D01*
X176670000Y-109950000D01*
X176673416Y-109950000D01*
X176876267Y-109909651D01*
X176876274Y-109909649D01*
X177067358Y-109830499D01*
X177239335Y-109715589D01*
X177239337Y-109715588D01*
X177385588Y-109569337D01*
X177385589Y-109569335D01*
X177500499Y-109397358D01*
X177579649Y-109206274D01*
X177579651Y-109206267D01*
X177620000Y-109003415D01*
X177620000Y-109000000D01*
X177060843Y-109000000D01*
X177070000Y-108965826D01*
X177070000Y-108834174D01*
X177060843Y-108800000D01*
X177620000Y-108800000D01*
X177620000Y-108796584D01*
X177579651Y-108593732D01*
X177579649Y-108593725D01*
X177500499Y-108402641D01*
X177385589Y-108230664D01*
X177239335Y-108084410D01*
X177067358Y-107969500D01*
X176876274Y-107890350D01*
X176876267Y-107890348D01*
X176673416Y-107850000D01*
X176670000Y-107850000D01*
X176670000Y-108409157D01*
X176635826Y-108400000D01*
X176504174Y-108400000D01*
X176470000Y-108409157D01*
X176470000Y-107850000D01*
X176466584Y-107850000D01*
X176263732Y-107890348D01*
X176263725Y-107890350D01*
X176072641Y-107969500D01*
X175900664Y-108084410D01*
X175900663Y-108084412D01*
X175754412Y-108230663D01*
X175754410Y-108230664D01*
X175639500Y-108402641D01*
X175560350Y-108593725D01*
X175560348Y-108593732D01*
X175520000Y-108796584D01*
X175080500Y-108796584D01*
X175080500Y-108796535D01*
X175058009Y-108683469D01*
X175069058Y-108627922D01*
X175078256Y-108616713D01*
X176720176Y-106974794D01*
X176772499Y-106953122D01*
X176824825Y-106974796D01*
X178165808Y-108315779D01*
X178187482Y-108368105D01*
X178179806Y-108398777D01*
X178180450Y-108399044D01*
X178099870Y-108593579D01*
X178099868Y-108593586D01*
X178059500Y-108796535D01*
X178059500Y-109003464D01*
X178099868Y-109206413D01*
X178099870Y-109206420D01*
X178179059Y-109397598D01*
X178293810Y-109569337D01*
X178294023Y-109569655D01*
X178440345Y-109715977D01*
X178612402Y-109830941D01*
X178803580Y-109910130D01*
X179006535Y-109950500D01*
X179006536Y-109950500D01*
X179213464Y-109950500D01*
X179213465Y-109950500D01*
X179416420Y-109910130D01*
X179607598Y-109830941D01*
X179779655Y-109715977D01*
X179925977Y-109569655D01*
X180040941Y-109397598D01*
X180120130Y-109206420D01*
X180160500Y-109003465D01*
X180160500Y-108796535D01*
X180120130Y-108593580D01*
X180040941Y-108402402D01*
X179925977Y-108230345D01*
X179779655Y-108084023D01*
X179699255Y-108030302D01*
X180600000Y-108030302D01*
X180600000Y-108800000D01*
X181159157Y-108800000D01*
X181150000Y-108834174D01*
X181150000Y-108965826D01*
X181159157Y-109000000D01*
X180600000Y-109000000D01*
X180600000Y-109769697D01*
X180611603Y-109828035D01*
X180655807Y-109894191D01*
X180655808Y-109894192D01*
X180721964Y-109938396D01*
X180780303Y-109950000D01*
X181550000Y-109950000D01*
X181550000Y-109390842D01*
X181584174Y-109400000D01*
X181715826Y-109400000D01*
X181750000Y-109390842D01*
X181750000Y-109950000D01*
X182519697Y-109950000D01*
X182578035Y-109938396D01*
X182644191Y-109894192D01*
X182644192Y-109894191D01*
X182688396Y-109828035D01*
X182700000Y-109769697D01*
X182700000Y-109000000D01*
X182140843Y-109000000D01*
X182150000Y-108965826D01*
X182150000Y-108834174D01*
X182140843Y-108800000D01*
X182700000Y-108800000D01*
X182700000Y-108030302D01*
X182688396Y-107971964D01*
X182644192Y-107905808D01*
X182644191Y-107905807D01*
X182578035Y-107861603D01*
X182519697Y-107850000D01*
X181750000Y-107850000D01*
X181750000Y-108409157D01*
X181715826Y-108400000D01*
X181584174Y-108400000D01*
X181550000Y-108409157D01*
X181550000Y-107850000D01*
X180780303Y-107850000D01*
X180721964Y-107861603D01*
X180655808Y-107905807D01*
X180655807Y-107905808D01*
X180611603Y-107971964D01*
X180600000Y-108030302D01*
X179699255Y-108030302D01*
X179607598Y-107969059D01*
X179416420Y-107889870D01*
X179416413Y-107889868D01*
X179241211Y-107855019D01*
X179213465Y-107849500D01*
X179006535Y-107849500D01*
X178978789Y-107855019D01*
X178803586Y-107889868D01*
X178803575Y-107889871D01*
X178698124Y-107933550D01*
X178641487Y-107933550D01*
X178617480Y-107917509D01*
X177643155Y-106943184D01*
X177634895Y-106923242D01*
X177622903Y-106905296D01*
X177624381Y-106897861D01*
X177621481Y-106890858D01*
X177629740Y-106870918D01*
X177633951Y-106849747D01*
X177640254Y-106845535D01*
X177643155Y-106838532D01*
X177681041Y-106818280D01*
X177694184Y-106815666D01*
X177749732Y-106826714D01*
X177760947Y-106835918D01*
X177777989Y-106852960D01*
X177826116Y-106880746D01*
X177843630Y-106890858D01*
X177846511Y-106892521D01*
X177846512Y-106892521D01*
X177846514Y-106892522D01*
X177884724Y-106902760D01*
X177922935Y-106912999D01*
X177922936Y-106913000D01*
X177922938Y-106913000D01*
X178002062Y-106913000D01*
X182822938Y-106913000D01*
X183207377Y-106913000D01*
X183259703Y-106934674D01*
X184140489Y-107815460D01*
X184209012Y-107855022D01*
X184285438Y-107875500D01*
X184364562Y-107875500D01*
X184375500Y-107875500D01*
X184427826Y-107897174D01*
X184449500Y-107949500D01*
X184449500Y-108279266D01*
X184452354Y-108309699D01*
X184452354Y-108309701D01*
X184452355Y-108309704D01*
X184497206Y-108437881D01*
X184497207Y-108437883D01*
X184577846Y-108547146D01*
X184577853Y-108547153D01*
X184687116Y-108627792D01*
X184687118Y-108627793D01*
X184815295Y-108672644D01*
X184815301Y-108672646D01*
X184845734Y-108675500D01*
X184850500Y-108675500D01*
X184902826Y-108697174D01*
X184924500Y-108749500D01*
X184924500Y-109367951D01*
X184902826Y-109420277D01*
X184871665Y-109436171D01*
X184872416Y-109438480D01*
X184866873Y-109440281D01*
X184746780Y-109501471D01*
X184651471Y-109596780D01*
X184590281Y-109716873D01*
X184590280Y-109716874D01*
X184574500Y-109816511D01*
X184574500Y-110383488D01*
X184590280Y-110483125D01*
X184590281Y-110483126D01*
X184651320Y-110602923D01*
X184651472Y-110603220D01*
X184746780Y-110698528D01*
X184866874Y-110759719D01*
X184966511Y-110775500D01*
X184966512Y-110775500D01*
X185483489Y-110775500D01*
X185533307Y-110767609D01*
X185583126Y-110759719D01*
X185703220Y-110698528D01*
X185798528Y-110603220D01*
X185859719Y-110483126D01*
X185875500Y-110383488D01*
X185875500Y-110383451D01*
X186125001Y-110383451D01*
X186140761Y-110482969D01*
X186140762Y-110482971D01*
X186201882Y-110602923D01*
X186297078Y-110698119D01*
X186417030Y-110759237D01*
X186417031Y-110759238D01*
X186516548Y-110774999D01*
X186675000Y-110774999D01*
X186875000Y-110774999D01*
X187033451Y-110774999D01*
X187132969Y-110759238D01*
X187132971Y-110759237D01*
X187252923Y-110698117D01*
X187348119Y-110602921D01*
X187409237Y-110482969D01*
X187409238Y-110482968D01*
X187425000Y-110383451D01*
X187425000Y-110200000D01*
X186875000Y-110200000D01*
X186875000Y-110774999D01*
X186675000Y-110774999D01*
X186675000Y-110200000D01*
X186125001Y-110200000D01*
X186125001Y-110383451D01*
X185875500Y-110383451D01*
X185875500Y-109816548D01*
X186125000Y-109816548D01*
X186125000Y-110000000D01*
X186675000Y-110000000D01*
X186875000Y-110000000D01*
X187424999Y-110000000D01*
X187424999Y-109816548D01*
X187409238Y-109717030D01*
X187409237Y-109717028D01*
X187348117Y-109597076D01*
X187252921Y-109501880D01*
X187132969Y-109440762D01*
X187132968Y-109440761D01*
X187033452Y-109425000D01*
X186875000Y-109425000D01*
X186875000Y-110000000D01*
X186675000Y-110000000D01*
X186675000Y-109425000D01*
X186516548Y-109425000D01*
X186417030Y-109440761D01*
X186417028Y-109440762D01*
X186297076Y-109501882D01*
X186201880Y-109597078D01*
X186140762Y-109717030D01*
X186140761Y-109717031D01*
X186125000Y-109816548D01*
X185875500Y-109816548D01*
X185875500Y-109816512D01*
X185859719Y-109716874D01*
X185798528Y-109596780D01*
X185703220Y-109501472D01*
X185703219Y-109501471D01*
X185583126Y-109440281D01*
X185577584Y-109438480D01*
X185578602Y-109435346D01*
X185539593Y-109411392D01*
X185525500Y-109367951D01*
X185525500Y-108749500D01*
X185547174Y-108697174D01*
X185599500Y-108675500D01*
X185604258Y-108675500D01*
X185604266Y-108675500D01*
X185634699Y-108672646D01*
X185762882Y-108627793D01*
X185872150Y-108547150D01*
X185952793Y-108437882D01*
X185997646Y-108309699D01*
X186000500Y-108279266D01*
X186000500Y-108279205D01*
X187400001Y-108279205D01*
X187402850Y-108309602D01*
X187402852Y-108309611D01*
X187447652Y-108437643D01*
X187528207Y-108546791D01*
X187528208Y-108546792D01*
X187637356Y-108627347D01*
X187637355Y-108627347D01*
X187765385Y-108672146D01*
X187765393Y-108672148D01*
X187795802Y-108674999D01*
X188075000Y-108674999D01*
X188275000Y-108674999D01*
X188554194Y-108674999D01*
X188554205Y-108674998D01*
X188584602Y-108672149D01*
X188584611Y-108672147D01*
X188712643Y-108627347D01*
X188821791Y-108546792D01*
X188821792Y-108546791D01*
X188902347Y-108437643D01*
X188947146Y-108309614D01*
X188947148Y-108309606D01*
X188949999Y-108279198D01*
X188950000Y-108279197D01*
X188950000Y-107675000D01*
X188275000Y-107675000D01*
X188275000Y-108674999D01*
X188075000Y-108674999D01*
X188075000Y-107675000D01*
X187400001Y-107675000D01*
X187400001Y-108279205D01*
X186000500Y-108279205D01*
X186000500Y-106870801D01*
X187400000Y-106870801D01*
X187400000Y-107475000D01*
X188075000Y-107475000D01*
X188275000Y-107475000D01*
X188949999Y-107475000D01*
X188949999Y-106870806D01*
X188949998Y-106870794D01*
X188947149Y-106840397D01*
X188947147Y-106840388D01*
X188902347Y-106712356D01*
X188821792Y-106603208D01*
X188821791Y-106603207D01*
X188712643Y-106522652D01*
X188712644Y-106522652D01*
X188584614Y-106477853D01*
X188584606Y-106477851D01*
X188554198Y-106475000D01*
X188275000Y-106475000D01*
X188275000Y-107475000D01*
X188075000Y-107475000D01*
X188075000Y-106475000D01*
X187795806Y-106475000D01*
X187795793Y-106475001D01*
X187765397Y-106477850D01*
X187765388Y-106477852D01*
X187637356Y-106522652D01*
X187528208Y-106603207D01*
X187528207Y-106603208D01*
X187447652Y-106712356D01*
X187402853Y-106840385D01*
X187402851Y-106840393D01*
X187400000Y-106870801D01*
X186000500Y-106870801D01*
X186000500Y-106870734D01*
X185997646Y-106840301D01*
X185952793Y-106712118D01*
X185946235Y-106703232D01*
X185872153Y-106602853D01*
X185872146Y-106602846D01*
X185762883Y-106522207D01*
X185762881Y-106522206D01*
X185634704Y-106477355D01*
X185634705Y-106477355D01*
X185634700Y-106477354D01*
X185634699Y-106477354D01*
X185604266Y-106474500D01*
X185604260Y-106474500D01*
X185599500Y-106474500D01*
X185547174Y-106452826D01*
X185525500Y-106400500D01*
X185525500Y-106174389D01*
X185547174Y-106122063D01*
X185591189Y-106101248D01*
X185591182Y-106101209D01*
X185591340Y-106101177D01*
X185592255Y-106100745D01*
X185594737Y-106100500D01*
X185594748Y-106100500D01*
X185653231Y-106088867D01*
X185719552Y-106044552D01*
X185763867Y-105978231D01*
X185775500Y-105919748D01*
X185775500Y-105674500D01*
X185797174Y-105622174D01*
X185849500Y-105600500D01*
X186600500Y-105600500D01*
X186652826Y-105622174D01*
X186674500Y-105674500D01*
X186674500Y-105919748D01*
X186682255Y-105958736D01*
X186686133Y-105978232D01*
X186701012Y-106000499D01*
X186730448Y-106044552D01*
X186771830Y-106072203D01*
X186796767Y-106088866D01*
X186796768Y-106088866D01*
X186796769Y-106088867D01*
X186855252Y-106100500D01*
X186855254Y-106100500D01*
X187494746Y-106100500D01*
X187494748Y-106100500D01*
X187553231Y-106088867D01*
X187619552Y-106044552D01*
X187663867Y-105978231D01*
X187675500Y-105919748D01*
X187675500Y-105168480D01*
X188199500Y-105168480D01*
X188199500Y-105631519D01*
X188214353Y-105725304D01*
X188214354Y-105725306D01*
X188246117Y-105787643D01*
X188271950Y-105838342D01*
X188361658Y-105928050D01*
X188474696Y-105985646D01*
X188568481Y-106000500D01*
X189181518Y-106000499D01*
X189181519Y-106000499D01*
X189275304Y-105985646D01*
X189275306Y-105985645D01*
X189289855Y-105978232D01*
X189388342Y-105928050D01*
X189478050Y-105838342D01*
X189478051Y-105838338D01*
X189481472Y-105833632D01*
X189483516Y-105835117D01*
X189519822Y-105804119D01*
X189542679Y-105800500D01*
X189960345Y-105800500D01*
X190012671Y-105822174D01*
X190033434Y-105862925D01*
X190039353Y-105900304D01*
X190039354Y-105900306D01*
X190082838Y-105985646D01*
X190096950Y-106013342D01*
X190186658Y-106103050D01*
X190284096Y-106152697D01*
X190320878Y-106195764D01*
X190324500Y-106218631D01*
X190324500Y-106450500D01*
X190302826Y-106502826D01*
X190250500Y-106524500D01*
X190220734Y-106524500D01*
X190190301Y-106527354D01*
X190190299Y-106527354D01*
X190190295Y-106527355D01*
X190062118Y-106572206D01*
X190062116Y-106572207D01*
X189952853Y-106652846D01*
X189952846Y-106652853D01*
X189872207Y-106762116D01*
X189872206Y-106762118D01*
X189827355Y-106890295D01*
X189827354Y-106890299D01*
X189827354Y-106890301D01*
X189824500Y-106920734D01*
X189824500Y-108279266D01*
X189827354Y-108309699D01*
X189827354Y-108309701D01*
X189827355Y-108309704D01*
X189872206Y-108437881D01*
X189872207Y-108437883D01*
X189952846Y-108547146D01*
X189952853Y-108547153D01*
X190062116Y-108627792D01*
X190062118Y-108627793D01*
X190190295Y-108672644D01*
X190190301Y-108672646D01*
X190220734Y-108675500D01*
X190220741Y-108675500D01*
X191079258Y-108675500D01*
X191079266Y-108675500D01*
X191109699Y-108672646D01*
X191237882Y-108627793D01*
X191347150Y-108547150D01*
X191427793Y-108437882D01*
X191472646Y-108309699D01*
X191475500Y-108279266D01*
X191475500Y-106920734D01*
X192624500Y-106920734D01*
X192624500Y-108279266D01*
X192627354Y-108309699D01*
X192627354Y-108309701D01*
X192627355Y-108309704D01*
X192672206Y-108437881D01*
X192672207Y-108437883D01*
X192752846Y-108547146D01*
X192752853Y-108547153D01*
X192862116Y-108627792D01*
X192862118Y-108627793D01*
X192990295Y-108672644D01*
X192990301Y-108672646D01*
X193020734Y-108675500D01*
X193020741Y-108675500D01*
X193879258Y-108675500D01*
X193879266Y-108675500D01*
X193909699Y-108672646D01*
X194037882Y-108627793D01*
X194147150Y-108547150D01*
X194227793Y-108437882D01*
X194238586Y-108407036D01*
X194276323Y-108364805D01*
X194327585Y-108359998D01*
X194366080Y-108370312D01*
X194385437Y-108375500D01*
X194385438Y-108375500D01*
X194501474Y-108375500D01*
X194553800Y-108397174D01*
X194559506Y-108403975D01*
X194560935Y-108405404D01*
X194644596Y-108489065D01*
X194751827Y-108539068D01*
X194800684Y-108545500D01*
X194800686Y-108545500D01*
X195249314Y-108545500D01*
X195249316Y-108545500D01*
X195298173Y-108539068D01*
X195405404Y-108489065D01*
X195489065Y-108405404D01*
X195539068Y-108298173D01*
X195545500Y-108249316D01*
X195545500Y-107900684D01*
X195544064Y-107889776D01*
X196949500Y-107889776D01*
X196949500Y-108110223D01*
X196983984Y-108327948D01*
X196983987Y-108327961D01*
X197052103Y-108537602D01*
X197052104Y-108537605D01*
X197052105Y-108537606D01*
X197122366Y-108675500D01*
X197152186Y-108734023D01*
X197152186Y-108734024D01*
X197201051Y-108801281D01*
X197281758Y-108912365D01*
X197437635Y-109068242D01*
X197615978Y-109197815D01*
X197812394Y-109297895D01*
X197812397Y-109297896D01*
X197812396Y-109297896D01*
X198022038Y-109366012D01*
X198022044Y-109366013D01*
X198022049Y-109366015D01*
X198123309Y-109382053D01*
X198239776Y-109400500D01*
X198239778Y-109400500D01*
X198460224Y-109400500D01*
X198576691Y-109382053D01*
X198677951Y-109366015D01*
X198677958Y-109366012D01*
X198677961Y-109366012D01*
X198773133Y-109335088D01*
X198887606Y-109297895D01*
X199084022Y-109197815D01*
X199262365Y-109068242D01*
X199418242Y-108912365D01*
X199547815Y-108734022D01*
X199647895Y-108537606D01*
X199685088Y-108423133D01*
X199716012Y-108327961D01*
X199716012Y-108327958D01*
X199716015Y-108327951D01*
X199750500Y-108110222D01*
X199750500Y-107889778D01*
X199738729Y-107815462D01*
X199727505Y-107744595D01*
X199716015Y-107672049D01*
X199716013Y-107672044D01*
X199716012Y-107672038D01*
X199647896Y-107462397D01*
X199647895Y-107462396D01*
X199647895Y-107462394D01*
X199547815Y-107265978D01*
X199418242Y-107087635D01*
X199262365Y-106931758D01*
X199136600Y-106840385D01*
X199084024Y-106802186D01*
X198924338Y-106720821D01*
X198887606Y-106702105D01*
X198887605Y-106702104D01*
X198887602Y-106702103D01*
X198887603Y-106702103D01*
X198677961Y-106633987D01*
X198677948Y-106633984D01*
X198460224Y-106599500D01*
X198460222Y-106599500D01*
X198239778Y-106599500D01*
X198239776Y-106599500D01*
X198022051Y-106633984D01*
X198022038Y-106633987D01*
X197812397Y-106702103D01*
X197615976Y-106802186D01*
X197615975Y-106802186D01*
X197449356Y-106923242D01*
X197437635Y-106931758D01*
X197281758Y-107087635D01*
X197281755Y-107087638D01*
X197281755Y-107087639D01*
X197152186Y-107265975D01*
X197152186Y-107265976D01*
X197052103Y-107462397D01*
X196983987Y-107672038D01*
X196983984Y-107672051D01*
X196949500Y-107889776D01*
X195544064Y-107889776D01*
X195539068Y-107851827D01*
X195489065Y-107744596D01*
X195405404Y-107660935D01*
X195342903Y-107631790D01*
X195304641Y-107590034D01*
X195307111Y-107533450D01*
X195342904Y-107497657D01*
X195405112Y-107468648D01*
X195488648Y-107385112D01*
X195538577Y-107278040D01*
X195545000Y-107229253D01*
X195545000Y-107155000D01*
X194505001Y-107155000D01*
X194505001Y-107229253D01*
X194511422Y-107278040D01*
X194511423Y-107278042D01*
X194561351Y-107385111D01*
X194561351Y-107385112D01*
X194644887Y-107468648D01*
X194644889Y-107468649D01*
X194707095Y-107497656D01*
X194745359Y-107539413D01*
X194742889Y-107595996D01*
X194707097Y-107631789D01*
X194644598Y-107660933D01*
X194644595Y-107660935D01*
X194592577Y-107712954D01*
X194540251Y-107734628D01*
X194487925Y-107712954D01*
X194297174Y-107522203D01*
X194275500Y-107469877D01*
X194275500Y-106920740D01*
X194275500Y-106920734D01*
X194272646Y-106890301D01*
X194269302Y-106880746D01*
X194505000Y-106880746D01*
X194505000Y-106955000D01*
X194925000Y-106955000D01*
X195125000Y-106955000D01*
X195544999Y-106955000D01*
X195544999Y-106880746D01*
X195538577Y-106831959D01*
X195538576Y-106831957D01*
X195488648Y-106724888D01*
X195488648Y-106724887D01*
X195405112Y-106641351D01*
X195298039Y-106591422D01*
X195298040Y-106591422D01*
X195249253Y-106585000D01*
X195125000Y-106585000D01*
X195125000Y-106955000D01*
X194925000Y-106955000D01*
X194925000Y-106585000D01*
X194800746Y-106585000D01*
X194751959Y-106591422D01*
X194751957Y-106591423D01*
X194644888Y-106641351D01*
X194644887Y-106641351D01*
X194561351Y-106724887D01*
X194511422Y-106831959D01*
X194505000Y-106880746D01*
X194269302Y-106880746D01*
X194265824Y-106870806D01*
X194227793Y-106762118D01*
X194227792Y-106762116D01*
X194147153Y-106652853D01*
X194147146Y-106652846D01*
X194037883Y-106572207D01*
X194037881Y-106572206D01*
X193909704Y-106527355D01*
X193909705Y-106527355D01*
X193909700Y-106527354D01*
X193909699Y-106527354D01*
X193879266Y-106524500D01*
X193020734Y-106524500D01*
X192990301Y-106527354D01*
X192990299Y-106527354D01*
X192990295Y-106527355D01*
X192862118Y-106572206D01*
X192862116Y-106572207D01*
X192752853Y-106652846D01*
X192752846Y-106652853D01*
X192672207Y-106762116D01*
X192672206Y-106762118D01*
X192627355Y-106890295D01*
X192627354Y-106890299D01*
X192627354Y-106890301D01*
X192624500Y-106920734D01*
X191475500Y-106920734D01*
X191472646Y-106890301D01*
X191465824Y-106870806D01*
X191427793Y-106762118D01*
X191427792Y-106762116D01*
X191347153Y-106652853D01*
X191347146Y-106652846D01*
X191237883Y-106572207D01*
X191237881Y-106572206D01*
X191109704Y-106527355D01*
X191109705Y-106527355D01*
X191109700Y-106527354D01*
X191109699Y-106527354D01*
X191079266Y-106524500D01*
X191079260Y-106524500D01*
X190999500Y-106524500D01*
X190947174Y-106502826D01*
X190925500Y-106450500D01*
X190925500Y-106218631D01*
X190947174Y-106166305D01*
X190965901Y-106152698D01*
X191063342Y-106103050D01*
X191153050Y-106013342D01*
X191210646Y-105900304D01*
X191225500Y-105806519D01*
X191225500Y-105806482D01*
X191675001Y-105806482D01*
X191689834Y-105900148D01*
X191689835Y-105900149D01*
X191747360Y-106013046D01*
X191836953Y-106102639D01*
X191949850Y-106160164D01*
X192043518Y-106174999D01*
X192175000Y-106174999D01*
X192375000Y-106174999D01*
X192506481Y-106174999D01*
X192600148Y-106160165D01*
X192600149Y-106160164D01*
X192713046Y-106102639D01*
X192802639Y-106013046D01*
X192860164Y-105900149D01*
X192860164Y-105900148D01*
X192875000Y-105806481D01*
X192875000Y-105600000D01*
X192375000Y-105600000D01*
X192375000Y-106174999D01*
X192175000Y-106174999D01*
X192175000Y-105600000D01*
X191675001Y-105600000D01*
X191675001Y-105806482D01*
X191225500Y-105806482D01*
X191225499Y-105400000D01*
X191225499Y-105193518D01*
X191675000Y-105193518D01*
X191675000Y-105400000D01*
X192175000Y-105400000D01*
X192375000Y-105400000D01*
X192874999Y-105400000D01*
X192874999Y-105193517D01*
X192860165Y-105099851D01*
X192860164Y-105099850D01*
X192802639Y-104986953D01*
X192713046Y-104897360D01*
X192600149Y-104839835D01*
X192506482Y-104825000D01*
X192375000Y-104825000D01*
X192375000Y-105400000D01*
X192175000Y-105400000D01*
X192175000Y-104825000D01*
X192043518Y-104825000D01*
X192043517Y-104825001D01*
X191949851Y-104839834D01*
X191949850Y-104839835D01*
X191836953Y-104897360D01*
X191747360Y-104986953D01*
X191689835Y-105099850D01*
X191689835Y-105099851D01*
X191675000Y-105193518D01*
X191225499Y-105193518D01*
X191225499Y-105193480D01*
X191210646Y-105099695D01*
X191210645Y-105099693D01*
X191153049Y-104986657D01*
X191063343Y-104896951D01*
X191063342Y-104896950D01*
X190950304Y-104839354D01*
X190950302Y-104839353D01*
X190950301Y-104839353D01*
X190856519Y-104824500D01*
X190393480Y-104824500D01*
X190299695Y-104839353D01*
X190299693Y-104839354D01*
X190186657Y-104896950D01*
X190096951Y-104986656D01*
X190039353Y-105099698D01*
X190033434Y-105137075D01*
X190003842Y-105185367D01*
X189960345Y-105199500D01*
X189618614Y-105199500D01*
X189566288Y-105177826D01*
X189545525Y-105137075D01*
X189535646Y-105074695D01*
X189535645Y-105074693D01*
X189505770Y-105016061D01*
X189478050Y-104961658D01*
X189388342Y-104871950D01*
X189275304Y-104814354D01*
X189275302Y-104814353D01*
X189275301Y-104814353D01*
X189181519Y-104799500D01*
X188568480Y-104799500D01*
X188474695Y-104814353D01*
X188474693Y-104814354D01*
X188361657Y-104871950D01*
X188271951Y-104961656D01*
X188214353Y-105074698D01*
X188199500Y-105168480D01*
X187675500Y-105168480D01*
X187675500Y-104680252D01*
X187663867Y-104621769D01*
X187619552Y-104555448D01*
X187597343Y-104540608D01*
X187553232Y-104511133D01*
X187553233Y-104511133D01*
X187523989Y-104505316D01*
X187494748Y-104499500D01*
X186855252Y-104499500D01*
X186826010Y-104505316D01*
X186796767Y-104511133D01*
X186730449Y-104555447D01*
X186730447Y-104555449D01*
X186686133Y-104621767D01*
X186674500Y-104680253D01*
X186674500Y-104925500D01*
X186652826Y-104977826D01*
X186600500Y-104999500D01*
X185849500Y-104999500D01*
X185797174Y-104977826D01*
X185775500Y-104925500D01*
X185775500Y-104680253D01*
X185769582Y-104650500D01*
X185763867Y-104621769D01*
X185719552Y-104555448D01*
X185697343Y-104540608D01*
X185653232Y-104511133D01*
X185653233Y-104511133D01*
X185623989Y-104505316D01*
X185594748Y-104499500D01*
X184955252Y-104499500D01*
X184926010Y-104505316D01*
X184896767Y-104511133D01*
X184830449Y-104555447D01*
X184830447Y-104555449D01*
X184786133Y-104621767D01*
X184786133Y-104621769D01*
X184774500Y-104680252D01*
X184774500Y-105919748D01*
X184782255Y-105958736D01*
X184786133Y-105978232D01*
X184801012Y-106000499D01*
X184830448Y-106044552D01*
X184871830Y-106072203D01*
X184891613Y-106085422D01*
X184923078Y-106132514D01*
X184924500Y-106146950D01*
X184924500Y-106400500D01*
X184902826Y-106452826D01*
X184850500Y-106474500D01*
X184845734Y-106474500D01*
X184815301Y-106477354D01*
X184815299Y-106477354D01*
X184815295Y-106477355D01*
X184687118Y-106522206D01*
X184687116Y-106522207D01*
X184577853Y-106602846D01*
X184577846Y-106602853D01*
X184497207Y-106712116D01*
X184497206Y-106712118D01*
X184452355Y-106840295D01*
X184452354Y-106840299D01*
X184452354Y-106840301D01*
X184449500Y-106870734D01*
X184449500Y-106870740D01*
X184449500Y-107095877D01*
X184427826Y-107148203D01*
X184375500Y-107169877D01*
X184323174Y-107148203D01*
X183547011Y-106372040D01*
X183478490Y-106332479D01*
X183478485Y-106332477D01*
X183402064Y-106312000D01*
X183402062Y-106312000D01*
X182902062Y-106312000D01*
X178117623Y-106312000D01*
X178065297Y-106290326D01*
X177847174Y-106072203D01*
X177825500Y-106019877D01*
X177825500Y-105399500D01*
X177847174Y-105347174D01*
X177899500Y-105325500D01*
X178225500Y-105325500D01*
X178277826Y-105347174D01*
X178299500Y-105399500D01*
X178299500Y-105579266D01*
X178302354Y-105609699D01*
X178302354Y-105609701D01*
X178302355Y-105609704D01*
X178347206Y-105737881D01*
X178347207Y-105737883D01*
X178427846Y-105847146D01*
X178427853Y-105847153D01*
X178537116Y-105927792D01*
X178537118Y-105927793D01*
X178665295Y-105972644D01*
X178665301Y-105972646D01*
X178695734Y-105975500D01*
X178695741Y-105975500D01*
X179304258Y-105975500D01*
X179304266Y-105975500D01*
X179334699Y-105972646D01*
X179462882Y-105927793D01*
X179572150Y-105847150D01*
X179652793Y-105737882D01*
X179697646Y-105609699D01*
X179700500Y-105579266D01*
X179700500Y-105579205D01*
X180200001Y-105579205D01*
X180202850Y-105609602D01*
X180202852Y-105609611D01*
X180247652Y-105737643D01*
X180328207Y-105846791D01*
X180328208Y-105846792D01*
X180437356Y-105927347D01*
X180437355Y-105927347D01*
X180565385Y-105972146D01*
X180565393Y-105972148D01*
X180595802Y-105974999D01*
X180800000Y-105974999D01*
X181000000Y-105974999D01*
X181204194Y-105974999D01*
X181204205Y-105974998D01*
X181234602Y-105972149D01*
X181234611Y-105972147D01*
X181362643Y-105927347D01*
X181471791Y-105846792D01*
X181471792Y-105846791D01*
X181552347Y-105737643D01*
X181597146Y-105609614D01*
X181597148Y-105609606D01*
X181599999Y-105579198D01*
X181600000Y-105579197D01*
X181600000Y-105150000D01*
X181000000Y-105150000D01*
X181000000Y-105974999D01*
X180800000Y-105974999D01*
X180800000Y-105150000D01*
X180200001Y-105150000D01*
X180200001Y-105579205D01*
X179700500Y-105579205D01*
X179700500Y-104520801D01*
X180200000Y-104520801D01*
X180200000Y-104950000D01*
X180800000Y-104950000D01*
X181000000Y-104950000D01*
X181599999Y-104950000D01*
X181599999Y-104520806D01*
X181599998Y-104520794D01*
X181597149Y-104490397D01*
X181597147Y-104490388D01*
X181552347Y-104362356D01*
X181471792Y-104253208D01*
X181471791Y-104253207D01*
X181362643Y-104172652D01*
X181362644Y-104172652D01*
X181234614Y-104127853D01*
X181234606Y-104127851D01*
X181204198Y-104125000D01*
X181000000Y-104125000D01*
X181000000Y-104950000D01*
X180800000Y-104950000D01*
X180800000Y-104125000D01*
X180595806Y-104125000D01*
X180595793Y-104125001D01*
X180565397Y-104127850D01*
X180565388Y-104127852D01*
X180437356Y-104172652D01*
X180328208Y-104253207D01*
X180328207Y-104253208D01*
X180247652Y-104362356D01*
X180202853Y-104490385D01*
X180202851Y-104490393D01*
X180200000Y-104520801D01*
X179700500Y-104520801D01*
X179700500Y-104520734D01*
X179697646Y-104490301D01*
X179652793Y-104362118D01*
X179633256Y-104335646D01*
X179572153Y-104252853D01*
X179572146Y-104252846D01*
X179462883Y-104172207D01*
X179462881Y-104172206D01*
X179350059Y-104132727D01*
X179307828Y-104094987D01*
X179300500Y-104062880D01*
X179300500Y-103334105D01*
X181549500Y-103334105D01*
X181549500Y-103465894D01*
X181583606Y-103593181D01*
X181583610Y-103593190D01*
X181649500Y-103707314D01*
X181742686Y-103800500D01*
X181856814Y-103866392D01*
X181984105Y-103900499D01*
X181984106Y-103900500D01*
X181984108Y-103900500D01*
X182115894Y-103900500D01*
X182115894Y-103900499D01*
X182243186Y-103866392D01*
X182357314Y-103800500D01*
X182450500Y-103707314D01*
X182516392Y-103593186D01*
X182550499Y-103465894D01*
X182550500Y-103465894D01*
X182550500Y-103355122D01*
X182572174Y-103302796D01*
X183195711Y-102679259D01*
X183845460Y-102029511D01*
X183862787Y-101999500D01*
X183885021Y-101960989D01*
X183905499Y-101884564D01*
X183905500Y-101884564D01*
X183905500Y-101823526D01*
X183927174Y-101771200D01*
X183933975Y-101765493D01*
X183935402Y-101764065D01*
X183935404Y-101764065D01*
X184019065Y-101680404D01*
X184047933Y-101618495D01*
X184089690Y-101580232D01*
X184146273Y-101582702D01*
X184182067Y-101618496D01*
X184210933Y-101680402D01*
X184210935Y-101680404D01*
X184294596Y-101764065D01*
X184401827Y-101814068D01*
X184450684Y-101820500D01*
X184450686Y-101820500D01*
X184799314Y-101820500D01*
X184799316Y-101820500D01*
X184848173Y-101814068D01*
X184869227Y-101804249D01*
X184885474Y-101803540D01*
X184900500Y-101797317D01*
X184912660Y-101802353D01*
X184925809Y-101801780D01*
X184937799Y-101812766D01*
X184952826Y-101818991D01*
X184957862Y-101831151D01*
X184967567Y-101840043D01*
X184974500Y-101871317D01*
X184974500Y-101934941D01*
X184952826Y-101987267D01*
X184914938Y-102007519D01*
X184896766Y-102011133D01*
X184830449Y-102055447D01*
X184830447Y-102055449D01*
X184786133Y-102121767D01*
X184786133Y-102121769D01*
X184774500Y-102180252D01*
X184774500Y-103419748D01*
X184782255Y-103458736D01*
X184786133Y-103478232D01*
X184802062Y-103502070D01*
X184830448Y-103544552D01*
X184840664Y-103551378D01*
X184896767Y-103588866D01*
X184896768Y-103588866D01*
X184896769Y-103588867D01*
X184955252Y-103600500D01*
X184955254Y-103600500D01*
X185594746Y-103600500D01*
X185594748Y-103600500D01*
X185653231Y-103588867D01*
X185709336Y-103551377D01*
X185764884Y-103540328D01*
X185791561Y-103551377D01*
X185846964Y-103588396D01*
X185905303Y-103600000D01*
X186125000Y-103600000D01*
X186125000Y-102000000D01*
X186325000Y-102000000D01*
X186325000Y-103600000D01*
X186544697Y-103600000D01*
X186603036Y-103588395D01*
X186658437Y-103551377D01*
X186713986Y-103540327D01*
X186740659Y-103551375D01*
X186796769Y-103588867D01*
X186855252Y-103600500D01*
X186855254Y-103600500D01*
X187494746Y-103600500D01*
X187494748Y-103600500D01*
X187553231Y-103588867D01*
X187619552Y-103544552D01*
X187663867Y-103478231D01*
X187675500Y-103419748D01*
X187675500Y-103174500D01*
X187697174Y-103122174D01*
X187749500Y-103100500D01*
X187769877Y-103100500D01*
X187822203Y-103122174D01*
X188177826Y-103477797D01*
X188199500Y-103530123D01*
X188199500Y-103981519D01*
X188214353Y-104075304D01*
X188214354Y-104075306D01*
X188271950Y-104188342D01*
X188361658Y-104278050D01*
X188474696Y-104335646D01*
X188568481Y-104350500D01*
X189181518Y-104350499D01*
X189181519Y-104350499D01*
X189275304Y-104335646D01*
X189275306Y-104335645D01*
X189277419Y-104334568D01*
X189388342Y-104278050D01*
X189478050Y-104188342D01*
X189535646Y-104075304D01*
X189550500Y-103981519D01*
X189550499Y-103518482D01*
X189544124Y-103478231D01*
X189535646Y-103424695D01*
X189535645Y-103424693D01*
X189489487Y-103334105D01*
X189478050Y-103311658D01*
X189388342Y-103221950D01*
X189275304Y-103164354D01*
X189275302Y-103164353D01*
X189275301Y-103164353D01*
X189181520Y-103149500D01*
X189181519Y-103149500D01*
X188730123Y-103149500D01*
X188677797Y-103127826D01*
X188109511Y-102559540D01*
X188076463Y-102540460D01*
X188040990Y-102519979D01*
X188040985Y-102519977D01*
X187964564Y-102499500D01*
X187964562Y-102499500D01*
X187749500Y-102499500D01*
X187697174Y-102477826D01*
X187675500Y-102425500D01*
X187675500Y-102180253D01*
X187668841Y-102146776D01*
X187663867Y-102121769D01*
X187619552Y-102055448D01*
X187582946Y-102030988D01*
X187553232Y-102011133D01*
X187553233Y-102011133D01*
X187523989Y-102005316D01*
X187494748Y-101999500D01*
X186855252Y-101999500D01*
X186826010Y-102005316D01*
X186796767Y-102011133D01*
X186740662Y-102048622D01*
X186685113Y-102059671D01*
X186658438Y-102048622D01*
X186603035Y-102011603D01*
X186544697Y-102000000D01*
X186325000Y-102000000D01*
X186125000Y-102000000D01*
X185905303Y-102000000D01*
X185846963Y-102011604D01*
X185846962Y-102011604D01*
X185791560Y-102048622D01*
X185781083Y-102050705D01*
X185772921Y-102057598D01*
X185757429Y-102055410D01*
X185736011Y-102059671D01*
X185716484Y-102052838D01*
X185712789Y-102050929D01*
X185653231Y-102011133D01*
X185624816Y-102005481D01*
X185615535Y-102000686D01*
X185603490Y-101986422D01*
X185587971Y-101976052D01*
X185584179Y-101963552D01*
X185578995Y-101957413D01*
X185579717Y-101948844D01*
X185575500Y-101934941D01*
X185575500Y-101884659D01*
X185597174Y-101832333D01*
X185649500Y-101810659D01*
X185680770Y-101817591D01*
X185726827Y-101839068D01*
X185775684Y-101845500D01*
X185775686Y-101845500D01*
X186124314Y-101845500D01*
X186124316Y-101845500D01*
X186173173Y-101839068D01*
X186280404Y-101789065D01*
X186364065Y-101705404D01*
X186393209Y-101642903D01*
X186434965Y-101604641D01*
X186491548Y-101607111D01*
X186527341Y-101642903D01*
X186556349Y-101705109D01*
X186556351Y-101705112D01*
X186639887Y-101788648D01*
X186746960Y-101838577D01*
X186746959Y-101838577D01*
X186795746Y-101844999D01*
X186870000Y-101844999D01*
X187070000Y-101844999D01*
X187144254Y-101844999D01*
X187193040Y-101838577D01*
X187193042Y-101838576D01*
X187300111Y-101788648D01*
X187300112Y-101788648D01*
X187383648Y-101705112D01*
X187433577Y-101598040D01*
X187440000Y-101549253D01*
X187440000Y-101425000D01*
X187070000Y-101425000D01*
X187070000Y-101844999D01*
X186870000Y-101844999D01*
X186870000Y-101225000D01*
X187070000Y-101225000D01*
X187439999Y-101225000D01*
X187439999Y-101100746D01*
X187433577Y-101051959D01*
X187433576Y-101051957D01*
X187383648Y-100944888D01*
X187383648Y-100944887D01*
X187300112Y-100861351D01*
X187193039Y-100811422D01*
X187193040Y-100811422D01*
X187144253Y-100805000D01*
X187070000Y-100805000D01*
X187070000Y-101225000D01*
X186870000Y-101225000D01*
X186870000Y-100805000D01*
X186795746Y-100805000D01*
X186746959Y-100811422D01*
X186746957Y-100811423D01*
X186639888Y-100861351D01*
X186639887Y-100861351D01*
X186556351Y-100944887D01*
X186527343Y-101007096D01*
X186485585Y-101045359D01*
X186429002Y-101042889D01*
X186393209Y-101007096D01*
X186389667Y-100999500D01*
X186364065Y-100944596D01*
X186280404Y-100860935D01*
X186173173Y-100810932D01*
X186173171Y-100810931D01*
X186137178Y-100806193D01*
X186124316Y-100804500D01*
X185775684Y-100804500D01*
X185764318Y-100805996D01*
X185726828Y-100810931D01*
X185619595Y-100860935D01*
X185535935Y-100944595D01*
X185535933Y-100944598D01*
X185530255Y-100956775D01*
X185488497Y-100995038D01*
X185463189Y-100999500D01*
X185123468Y-100999500D01*
X185071142Y-100977826D01*
X185056401Y-100956773D01*
X185039066Y-100919597D01*
X184955404Y-100835935D01*
X184889064Y-100805000D01*
X184848173Y-100785932D01*
X184848171Y-100785931D01*
X184812178Y-100781193D01*
X184799316Y-100779500D01*
X184450684Y-100779500D01*
X184439318Y-100780996D01*
X184401828Y-100785931D01*
X184294595Y-100835935D01*
X184210935Y-100919595D01*
X184182067Y-100981504D01*
X184140309Y-101019767D01*
X184083726Y-101017297D01*
X184047933Y-100981504D01*
X184036401Y-100956773D01*
X184019065Y-100919596D01*
X183935404Y-100835935D01*
X183828173Y-100785932D01*
X183828171Y-100785931D01*
X183792178Y-100781193D01*
X183779316Y-100779500D01*
X183430684Y-100779500D01*
X183419318Y-100780996D01*
X183381828Y-100785931D01*
X183274595Y-100835935D01*
X183190935Y-100919595D01*
X183140931Y-101026828D01*
X183134500Y-101075685D01*
X183134500Y-101524314D01*
X183140931Y-101573171D01*
X183190935Y-101680404D01*
X183215453Y-101704922D01*
X183237127Y-101757248D01*
X183215453Y-101809574D01*
X182147202Y-102877826D01*
X182094876Y-102899500D01*
X181984106Y-102899500D01*
X181856818Y-102933606D01*
X181856809Y-102933610D01*
X181742685Y-102999500D01*
X181649500Y-103092685D01*
X181583610Y-103206809D01*
X181583606Y-103206818D01*
X181549500Y-103334105D01*
X179300500Y-103334105D01*
X179300500Y-102555122D01*
X179322173Y-102502797D01*
X179725460Y-102099511D01*
X179765022Y-102030988D01*
X179785500Y-101954562D01*
X179785500Y-101875438D01*
X179785500Y-101782119D01*
X179807174Y-101729793D01*
X179835059Y-101712272D01*
X179909396Y-101686259D01*
X179947882Y-101672793D01*
X180057150Y-101592150D01*
X180137793Y-101482882D01*
X180182646Y-101354699D01*
X180185500Y-101324266D01*
X180185500Y-101324205D01*
X180685001Y-101324205D01*
X180687850Y-101354602D01*
X180687852Y-101354611D01*
X180732652Y-101482643D01*
X180813207Y-101591791D01*
X180813208Y-101591792D01*
X180922356Y-101672347D01*
X180922355Y-101672347D01*
X181050385Y-101717146D01*
X181050393Y-101717148D01*
X181080802Y-101719999D01*
X181285000Y-101719999D01*
X181485000Y-101719999D01*
X181689194Y-101719999D01*
X181689205Y-101719998D01*
X181719602Y-101717149D01*
X181719611Y-101717147D01*
X181847643Y-101672347D01*
X181956791Y-101591792D01*
X181956792Y-101591791D01*
X182037347Y-101482643D01*
X182082146Y-101354614D01*
X182082148Y-101354606D01*
X182084999Y-101324198D01*
X182085000Y-101324197D01*
X182085000Y-100895000D01*
X181485000Y-100895000D01*
X181485000Y-101719999D01*
X181285000Y-101719999D01*
X181285000Y-100895000D01*
X180685001Y-100895000D01*
X180685001Y-101324205D01*
X180185500Y-101324205D01*
X180185500Y-100550122D01*
X180207173Y-100497797D01*
X180403986Y-100300983D01*
X180406116Y-100298939D01*
X180412162Y-100293361D01*
X180434511Y-100280460D01*
X180449170Y-100265801D01*
X180685000Y-100265801D01*
X180685000Y-100695000D01*
X181285000Y-100695000D01*
X181485000Y-100695000D01*
X182084999Y-100695000D01*
X182084999Y-100265806D01*
X182084998Y-100265794D01*
X182082149Y-100235397D01*
X182082147Y-100235388D01*
X182037347Y-100107356D01*
X181956792Y-99998208D01*
X181956791Y-99998207D01*
X181847643Y-99917652D01*
X181847644Y-99917652D01*
X181719614Y-99872853D01*
X181719606Y-99872851D01*
X181689198Y-99870000D01*
X181485000Y-99870000D01*
X181485000Y-100695000D01*
X181285000Y-100695000D01*
X181285000Y-99870000D01*
X181080806Y-99870000D01*
X181080793Y-99870001D01*
X181050397Y-99872850D01*
X181050388Y-99872852D01*
X180922356Y-99917652D01*
X180813208Y-99998207D01*
X180813207Y-99998208D01*
X180732652Y-100107356D01*
X180687853Y-100235385D01*
X180687851Y-100235393D01*
X180685000Y-100265801D01*
X180449170Y-100265801D01*
X180490460Y-100224511D01*
X180530021Y-100155988D01*
X180550499Y-100079564D01*
X180550500Y-100079564D01*
X180550500Y-100000436D01*
X180535639Y-99944979D01*
X180530021Y-99924012D01*
X180530018Y-99924008D01*
X180528164Y-99919528D01*
X180528942Y-99919205D01*
X180520500Y-99887692D01*
X180520500Y-99704621D01*
X180542174Y-99652295D01*
X180555405Y-99639064D01*
X180579065Y-99615404D01*
X180629068Y-99508173D01*
X180635500Y-99459316D01*
X180635500Y-99010684D01*
X180629068Y-98961827D01*
X180579065Y-98854596D01*
X180495404Y-98770935D01*
X180388173Y-98720932D01*
X180388171Y-98720931D01*
X180352178Y-98716193D01*
X180339316Y-98714500D01*
X179990684Y-98714500D01*
X179979318Y-98715996D01*
X179941828Y-98720931D01*
X179834595Y-98770935D01*
X179750935Y-98854595D01*
X179750935Y-98854596D01*
X179723484Y-98913466D01*
X179722067Y-98916504D01*
X179680309Y-98954767D01*
X179623726Y-98952297D01*
X179587933Y-98916504D01*
X179559065Y-98854596D01*
X179475404Y-98770935D01*
X179368173Y-98720932D01*
X179368171Y-98720931D01*
X179332178Y-98716193D01*
X179319316Y-98714500D01*
X178970684Y-98714500D01*
X178959318Y-98715996D01*
X178921828Y-98720931D01*
X178814595Y-98770935D01*
X178730935Y-98854595D01*
X178730933Y-98854598D01*
X178703482Y-98913466D01*
X178661725Y-98951729D01*
X178605141Y-98949257D01*
X178566878Y-98907500D01*
X178563899Y-98896846D01*
X178563866Y-98896767D01*
X178542491Y-98864778D01*
X178519552Y-98830448D01*
X178465897Y-98794596D01*
X178453232Y-98786133D01*
X178453233Y-98786133D01*
X178422504Y-98780021D01*
X178394748Y-98774500D01*
X178394746Y-98774500D01*
X178149500Y-98774500D01*
X178097174Y-98752826D01*
X178075500Y-98700500D01*
X178075500Y-98551622D01*
X178079623Y-98530903D01*
X178078766Y-98530674D01*
X178097437Y-98460992D01*
X178100499Y-98449564D01*
X178100500Y-98449564D01*
X178100500Y-98384621D01*
X178122174Y-98332295D01*
X178163969Y-98290500D01*
X178209065Y-98245404D01*
X178259068Y-98138173D01*
X178265500Y-98089316D01*
X178265500Y-97740684D01*
X178259068Y-97691827D01*
X178209065Y-97584596D01*
X178125404Y-97500935D01*
X178062903Y-97471790D01*
X178024641Y-97430034D01*
X178027111Y-97373450D01*
X178062904Y-97337657D01*
X178125112Y-97308648D01*
X178208648Y-97225112D01*
X178258577Y-97118040D01*
X178265000Y-97069253D01*
X178265000Y-96995000D01*
X177225001Y-96995000D01*
X177225001Y-97069253D01*
X177231422Y-97118040D01*
X177231423Y-97118042D01*
X177281351Y-97225111D01*
X177281351Y-97225112D01*
X177364887Y-97308648D01*
X177364889Y-97308649D01*
X177427095Y-97337656D01*
X177465359Y-97379413D01*
X177462889Y-97435996D01*
X177427097Y-97471789D01*
X177364598Y-97500933D01*
X177364595Y-97500935D01*
X177280935Y-97584595D01*
X177230931Y-97691828D01*
X177224500Y-97740685D01*
X177224500Y-98089314D01*
X177230931Y-98138171D01*
X177280935Y-98245404D01*
X177364597Y-98329066D01*
X177378093Y-98335359D01*
X177431773Y-98360390D01*
X177470037Y-98402147D01*
X177474500Y-98427457D01*
X177474500Y-98700500D01*
X177452826Y-98752826D01*
X177400500Y-98774500D01*
X177155252Y-98774500D01*
X177127496Y-98780021D01*
X177096767Y-98786133D01*
X177030449Y-98830447D01*
X177030447Y-98830449D01*
X176986133Y-98896767D01*
X176978377Y-98935757D01*
X176974597Y-98954767D01*
X176974500Y-98955253D01*
X176974500Y-99594746D01*
X176986133Y-99653233D01*
X177023621Y-99709336D01*
X177034671Y-99764885D01*
X177023622Y-99791560D01*
X176986604Y-99846962D01*
X176986604Y-99846963D01*
X176975000Y-99905302D01*
X176975000Y-100125000D01*
X178575000Y-100125000D01*
X178575000Y-99905302D01*
X178563396Y-99846964D01*
X178526377Y-99791561D01*
X178524292Y-99781082D01*
X178517400Y-99772920D01*
X178519587Y-99757427D01*
X178515328Y-99736012D01*
X178522161Y-99716484D01*
X178524066Y-99712795D01*
X178563867Y-99653231D01*
X178569519Y-99624816D01*
X178574314Y-99615535D01*
X178588577Y-99603490D01*
X178598948Y-99587971D01*
X178611447Y-99584179D01*
X178617588Y-99578994D01*
X178626157Y-99579716D01*
X178640059Y-99575500D01*
X178665185Y-99575500D01*
X178717511Y-99597174D01*
X178726780Y-99610413D01*
X178727223Y-99610103D01*
X178730933Y-99615402D01*
X178814596Y-99699065D01*
X178814598Y-99699066D01*
X178834485Y-99708340D01*
X178872749Y-99750097D01*
X178874690Y-99756253D01*
X178879484Y-99774141D01*
X178879979Y-99775988D01*
X178904028Y-99817643D01*
X178919540Y-99844511D01*
X178944120Y-99869091D01*
X178965794Y-99921417D01*
X178944120Y-99973743D01*
X178935739Y-99980956D01*
X178912851Y-99997849D01*
X178912850Y-99997849D01*
X178832206Y-100107119D01*
X178787355Y-100235295D01*
X178787354Y-100235299D01*
X178787354Y-100235301D01*
X178784500Y-100265734D01*
X178784500Y-101324266D01*
X178787354Y-101354699D01*
X178787354Y-101354701D01*
X178787355Y-101354704D01*
X178832206Y-101482881D01*
X178832207Y-101482883D01*
X178912846Y-101592146D01*
X178912853Y-101592153D01*
X179022116Y-101672792D01*
X179022119Y-101672794D01*
X179118463Y-101706506D01*
X179160695Y-101744245D01*
X179163870Y-101800793D01*
X179146349Y-101828679D01*
X178815489Y-102159540D01*
X178759540Y-102215488D01*
X178719979Y-102284009D01*
X178719977Y-102284014D01*
X178699500Y-102360435D01*
X178699500Y-104062880D01*
X178677826Y-104115206D01*
X178649941Y-104132727D01*
X178537118Y-104172206D01*
X178537116Y-104172207D01*
X178427853Y-104252846D01*
X178427846Y-104252853D01*
X178347207Y-104362116D01*
X178347206Y-104362118D01*
X178302355Y-104490295D01*
X178302354Y-104490299D01*
X178302354Y-104490301D01*
X178299500Y-104520734D01*
X178299500Y-104520740D01*
X178299500Y-104650500D01*
X178277826Y-104702826D01*
X178225500Y-104724500D01*
X177899500Y-104724500D01*
X177847174Y-104702826D01*
X177825500Y-104650500D01*
X177825500Y-103405253D01*
X177825500Y-103405252D01*
X177813867Y-103346769D01*
X177809496Y-103340228D01*
X177795466Y-103319231D01*
X177769552Y-103280448D01*
X177747343Y-103265608D01*
X177703232Y-103236133D01*
X177703233Y-103236133D01*
X177673989Y-103230316D01*
X177644748Y-103224500D01*
X176234807Y-103224500D01*
X176182481Y-103202826D01*
X176160807Y-103150500D01*
X176182481Y-103098174D01*
X176203533Y-103083433D01*
X176206469Y-103082063D01*
X176268316Y-103053224D01*
X176353224Y-102968316D01*
X176356766Y-102960719D01*
X176364925Y-102943225D01*
X176406682Y-102904962D01*
X176431991Y-102900500D01*
X177039564Y-102900500D01*
X177039564Y-102900499D01*
X177115989Y-102880021D01*
X177184511Y-102840460D01*
X177240460Y-102784511D01*
X178015460Y-102009511D01*
X178055022Y-101940988D01*
X178075500Y-101864562D01*
X178075500Y-101785438D01*
X178075500Y-101749500D01*
X178097174Y-101697174D01*
X178149500Y-101675500D01*
X178394746Y-101675500D01*
X178394748Y-101675500D01*
X178453231Y-101663867D01*
X178519552Y-101619552D01*
X178563867Y-101553231D01*
X178575500Y-101494748D01*
X178575500Y-100855252D01*
X178563867Y-100796769D01*
X178526376Y-100740661D01*
X178515327Y-100685115D01*
X178526377Y-100658437D01*
X178563395Y-100603036D01*
X178575000Y-100544697D01*
X178575000Y-100325000D01*
X176975000Y-100325000D01*
X176975000Y-100544697D01*
X176986603Y-100603035D01*
X177023622Y-100658438D01*
X177034671Y-100713987D01*
X177023622Y-100740662D01*
X176986133Y-100796767D01*
X176983316Y-100810931D01*
X176974500Y-100855252D01*
X176974500Y-101494748D01*
X176980418Y-101524500D01*
X176986133Y-101553232D01*
X176999458Y-101573173D01*
X177030448Y-101619552D01*
X177065395Y-101642903D01*
X177096767Y-101663866D01*
X177096768Y-101663866D01*
X177096769Y-101663867D01*
X177155252Y-101675500D01*
X177320877Y-101675500D01*
X177373203Y-101697174D01*
X177394877Y-101749500D01*
X177373203Y-101801826D01*
X176897203Y-102277826D01*
X176844877Y-102299500D01*
X176431991Y-102299500D01*
X176379665Y-102277826D01*
X176364925Y-102256775D01*
X176353225Y-102231686D01*
X176353223Y-102231683D01*
X176268316Y-102146776D01*
X176159487Y-102096028D01*
X176159485Y-102096027D01*
X176122955Y-102091218D01*
X176109901Y-102089500D01*
X176109899Y-102089500D01*
X175750100Y-102089500D01*
X175700514Y-102096027D01*
X175700508Y-102096029D01*
X175680773Y-102105232D01*
X175624189Y-102107702D01*
X175582433Y-102069438D01*
X175575500Y-102038165D01*
X175575500Y-101749500D01*
X175597174Y-101697174D01*
X175649500Y-101675500D01*
X175894746Y-101675500D01*
X175894748Y-101675500D01*
X175953231Y-101663867D01*
X176019552Y-101619552D01*
X176063867Y-101553231D01*
X176075500Y-101494748D01*
X176075500Y-100855252D01*
X176063867Y-100796769D01*
X176026677Y-100741112D01*
X176015628Y-100685565D01*
X176026678Y-100658887D01*
X176063866Y-100603232D01*
X176063865Y-100603232D01*
X176063867Y-100603231D01*
X176075500Y-100544748D01*
X176075500Y-99905252D01*
X176063867Y-99846769D01*
X176062358Y-99844511D01*
X176035631Y-99804511D01*
X176026677Y-99791112D01*
X176015628Y-99735565D01*
X176026678Y-99708887D01*
X176063867Y-99653231D01*
X176075500Y-99594748D01*
X176075500Y-98955252D01*
X176073961Y-98947518D01*
X176085009Y-98891972D01*
X176094208Y-98880761D01*
X176445460Y-98529511D01*
X176485022Y-98460988D01*
X176505500Y-98384562D01*
X176505500Y-98381007D01*
X176527174Y-98328681D01*
X176567925Y-98307918D01*
X176588126Y-98304719D01*
X176708220Y-98243528D01*
X176803528Y-98148220D01*
X176864719Y-98028126D01*
X176880500Y-97928488D01*
X176880500Y-97411512D01*
X176875748Y-97381512D01*
X176864719Y-97311874D01*
X176864718Y-97311873D01*
X176863075Y-97308649D01*
X176803528Y-97191780D01*
X176708220Y-97096472D01*
X176708219Y-97096471D01*
X176588126Y-97035281D01*
X176588125Y-97035280D01*
X176488489Y-97019500D01*
X176488488Y-97019500D01*
X175921512Y-97019500D01*
X175921511Y-97019500D01*
X175821874Y-97035280D01*
X175821873Y-97035281D01*
X175701780Y-97096471D01*
X175606473Y-97191778D01*
X175551791Y-97299096D01*
X175542738Y-97306827D01*
X175538183Y-97317826D01*
X175522023Y-97324519D01*
X175508724Y-97335878D01*
X175485857Y-97339500D01*
X175427048Y-97339500D01*
X175374722Y-97317826D01*
X175358844Y-97286660D01*
X175356520Y-97287416D01*
X175354719Y-97281878D01*
X175354719Y-97281874D01*
X175293528Y-97161780D01*
X175198220Y-97066472D01*
X175198219Y-97066471D01*
X175078126Y-97005281D01*
X175078125Y-97005280D01*
X174978489Y-96989500D01*
X174978488Y-96989500D01*
X174411512Y-96989500D01*
X174411511Y-96989500D01*
X174311874Y-97005280D01*
X174311873Y-97005281D01*
X174191780Y-97066471D01*
X174096471Y-97161780D01*
X174035281Y-97281873D01*
X174035280Y-97281874D01*
X174019500Y-97381511D01*
X174019500Y-97474877D01*
X173997826Y-97527203D01*
X173651826Y-97873203D01*
X173599500Y-97894877D01*
X173547174Y-97873203D01*
X173525500Y-97820877D01*
X173525500Y-97370740D01*
X173525500Y-97370734D01*
X173522646Y-97340301D01*
X173521720Y-97337656D01*
X173477793Y-97212118D01*
X173477792Y-97212116D01*
X173397153Y-97102853D01*
X173397146Y-97102846D01*
X173287883Y-97022207D01*
X173287881Y-97022206D01*
X173159704Y-96977355D01*
X173159705Y-96977355D01*
X173159700Y-96977354D01*
X173159699Y-96977354D01*
X173129266Y-96974500D01*
X172270734Y-96974500D01*
X172240301Y-96977354D01*
X172240299Y-96977354D01*
X172240295Y-96977355D01*
X172112118Y-97022206D01*
X172112116Y-97022207D01*
X172002853Y-97102846D01*
X172002846Y-97102853D01*
X171922207Y-97212116D01*
X171922206Y-97212118D01*
X171877355Y-97340295D01*
X171877354Y-97340299D01*
X171877354Y-97340301D01*
X171874500Y-97370734D01*
X171874500Y-99629266D01*
X171877354Y-99659699D01*
X171877354Y-99659701D01*
X171877355Y-99659704D01*
X171922206Y-99787881D01*
X171922207Y-99787883D01*
X172002846Y-99897146D01*
X172002853Y-99897153D01*
X172112116Y-99977792D01*
X172112118Y-99977793D01*
X172240295Y-100022644D01*
X172240301Y-100022646D01*
X172270734Y-100025500D01*
X172270741Y-100025500D01*
X173129258Y-100025500D01*
X173129266Y-100025500D01*
X173159699Y-100022646D01*
X173287882Y-99977793D01*
X173397150Y-99897150D01*
X173477793Y-99787882D01*
X173522646Y-99659699D01*
X173525500Y-99629266D01*
X173525500Y-98846120D01*
X173547174Y-98793794D01*
X173562501Y-98782034D01*
X173565986Y-98780021D01*
X173565989Y-98780021D01*
X173634511Y-98740460D01*
X173690460Y-98684511D01*
X174133666Y-98241303D01*
X174185991Y-98219630D01*
X174219586Y-98227696D01*
X174311874Y-98274719D01*
X174411511Y-98290500D01*
X174411512Y-98290500D01*
X174978489Y-98290500D01*
X175052220Y-98278822D01*
X175078126Y-98274719D01*
X175198220Y-98213528D01*
X175293528Y-98118220D01*
X175354719Y-97998126D01*
X175354719Y-97998120D01*
X175356520Y-97992584D01*
X175359670Y-97993607D01*
X175365942Y-97983369D01*
X175374722Y-97962174D01*
X175380358Y-97959839D01*
X175383546Y-97954637D01*
X175427048Y-97940500D01*
X175468201Y-97940500D01*
X175520527Y-97962174D01*
X175541290Y-98002925D01*
X175545281Y-98028126D01*
X175545281Y-98028127D01*
X175562864Y-98062635D01*
X175606472Y-98148220D01*
X175701780Y-98243528D01*
X175730087Y-98257951D01*
X175766869Y-98301018D01*
X175762426Y-98357480D01*
X175748817Y-98376211D01*
X175372203Y-98752826D01*
X175319877Y-98774500D01*
X174655252Y-98774500D01*
X174627496Y-98780021D01*
X174596767Y-98786133D01*
X174530449Y-98830447D01*
X174530447Y-98830449D01*
X174486133Y-98896767D01*
X174478377Y-98935757D01*
X174474597Y-98954767D01*
X174474500Y-98955253D01*
X174474500Y-99594746D01*
X174486133Y-99653233D01*
X174523321Y-99708887D01*
X174525401Y-99719346D01*
X174532286Y-99727491D01*
X174530103Y-99742981D01*
X174534371Y-99764436D01*
X174527556Y-99783930D01*
X174525640Y-99787643D01*
X174486133Y-99846769D01*
X174480484Y-99875163D01*
X174475704Y-99884430D01*
X174461433Y-99896493D01*
X174451052Y-99912029D01*
X174438577Y-99915813D01*
X174432450Y-99920993D01*
X174423871Y-99920274D01*
X174409941Y-99924500D01*
X173845436Y-99924500D01*
X173769014Y-99944977D01*
X173769009Y-99944979D01*
X173724915Y-99970438D01*
X173700488Y-99984540D01*
X173427203Y-100257826D01*
X173374877Y-100279500D01*
X173135684Y-100279500D01*
X173124318Y-100280996D01*
X173086828Y-100285931D01*
X172979595Y-100335935D01*
X172895935Y-100419595D01*
X172867067Y-100481504D01*
X172825309Y-100519767D01*
X172768726Y-100517297D01*
X172732933Y-100481504D01*
X172721420Y-100456814D01*
X172704065Y-100419596D01*
X172620404Y-100335935D01*
X172513173Y-100285932D01*
X172513171Y-100285931D01*
X172477178Y-100281193D01*
X172464316Y-100279500D01*
X172115684Y-100279500D01*
X172104318Y-100280996D01*
X172066828Y-100285931D01*
X171959595Y-100335935D01*
X171875935Y-100419595D01*
X171825931Y-100526828D01*
X171819500Y-100575685D01*
X171819500Y-100814877D01*
X171797826Y-100867203D01*
X171359540Y-101305488D01*
X171319979Y-101374009D01*
X171319977Y-101374014D01*
X171299500Y-101450435D01*
X171299500Y-101450500D01*
X171299487Y-101450529D01*
X171298867Y-101455245D01*
X171297603Y-101455078D01*
X171277826Y-101502826D01*
X171225500Y-101524500D01*
X170445734Y-101524500D01*
X170415301Y-101527354D01*
X170415299Y-101527354D01*
X170415295Y-101527355D01*
X170287118Y-101572206D01*
X170287116Y-101572207D01*
X170177853Y-101652846D01*
X170177846Y-101652853D01*
X170097207Y-101762116D01*
X170097206Y-101762118D01*
X170052355Y-101890295D01*
X170052354Y-101890299D01*
X170052354Y-101890301D01*
X170049500Y-101920734D01*
X167840000Y-101920734D01*
X167840000Y-101345000D01*
X167234802Y-101345000D01*
X167240000Y-101318869D01*
X167240000Y-101171131D01*
X167234802Y-101145000D01*
X167840000Y-101145000D01*
X167840000Y-100075302D01*
X167828396Y-100016964D01*
X167784192Y-99950808D01*
X167784191Y-99950807D01*
X167718035Y-99906603D01*
X167659697Y-99895000D01*
X166590000Y-99895000D01*
X166590000Y-100500197D01*
X166563869Y-100495000D01*
X166416131Y-100495000D01*
X166390000Y-100500197D01*
X166390000Y-99895000D01*
X165320303Y-99895000D01*
X165261964Y-99906603D01*
X165195808Y-99950807D01*
X165195807Y-99950808D01*
X165151603Y-100016964D01*
X165140000Y-100075302D01*
X164500500Y-100075302D01*
X164500500Y-84689777D01*
X164999499Y-84689777D01*
X164999499Y-84913266D01*
X164999500Y-84913291D01*
X164999500Y-88735223D01*
X165033984Y-88952948D01*
X165033987Y-88952961D01*
X165102103Y-89162602D01*
X165102104Y-89162605D01*
X165102105Y-89162606D01*
X165201409Y-89357500D01*
X165202186Y-89359023D01*
X165202186Y-89359024D01*
X165220411Y-89384108D01*
X165331758Y-89537365D01*
X165487635Y-89693242D01*
X165665978Y-89822815D01*
X165862394Y-89922895D01*
X165862397Y-89922896D01*
X165862396Y-89922896D01*
X166072038Y-89991012D01*
X166072043Y-89991013D01*
X166072049Y-89991015D01*
X166113850Y-89997635D01*
X166162141Y-90027227D01*
X166175363Y-90082299D01*
X166145771Y-90130591D01*
X166125141Y-90141102D01*
X165937397Y-90202103D01*
X165740976Y-90302186D01*
X165740975Y-90302186D01*
X165609099Y-90398000D01*
X165562635Y-90431758D01*
X165406758Y-90587635D01*
X165406755Y-90587638D01*
X165406755Y-90587639D01*
X165277186Y-90765975D01*
X165277186Y-90765976D01*
X165177103Y-90962397D01*
X165108987Y-91172038D01*
X165108984Y-91172051D01*
X165074500Y-91389776D01*
X165074500Y-96117137D01*
X165074499Y-96117167D01*
X165074499Y-96119778D01*
X165074499Y-96340222D01*
X165105175Y-96533898D01*
X165107805Y-96550499D01*
X165108986Y-96557957D01*
X165177103Y-96767602D01*
X165177104Y-96767605D01*
X165177105Y-96767606D01*
X165272058Y-96953960D01*
X165277186Y-96964023D01*
X165277186Y-96964024D01*
X165307161Y-97005281D01*
X165406758Y-97142365D01*
X165406763Y-97142370D01*
X165565214Y-97300821D01*
X165565224Y-97300830D01*
X165577636Y-97313242D01*
X165577639Y-97313244D01*
X165577640Y-97313245D01*
X165713092Y-97411657D01*
X165755978Y-97442815D01*
X165952394Y-97542895D01*
X165952397Y-97542896D01*
X165952396Y-97542896D01*
X166162038Y-97611012D01*
X166162044Y-97611013D01*
X166162049Y-97611015D01*
X166247190Y-97624500D01*
X166379776Y-97645500D01*
X166379778Y-97645500D01*
X166600224Y-97645500D01*
X166687313Y-97631706D01*
X166817951Y-97611015D01*
X166817958Y-97611012D01*
X166817961Y-97611012D01*
X167027602Y-97542896D01*
X167027602Y-97542895D01*
X167027605Y-97542895D01*
X167224022Y-97442815D01*
X167402364Y-97313242D01*
X167558242Y-97157364D01*
X167687815Y-96979022D01*
X167787895Y-96782605D01*
X167804029Y-96732950D01*
X167856012Y-96572961D01*
X167856012Y-96572958D01*
X167856015Y-96572951D01*
X167881878Y-96409654D01*
X167890500Y-96355223D01*
X167890500Y-96134776D01*
X167876411Y-96045823D01*
X167875500Y-96034247D01*
X167875500Y-91389776D01*
X167841015Y-91172051D01*
X167841012Y-91172038D01*
X167772896Y-90962397D01*
X167772895Y-90962396D01*
X167772895Y-90962394D01*
X167672815Y-90765978D01*
X167671634Y-90764353D01*
X167606937Y-90675304D01*
X167543242Y-90587635D01*
X167387365Y-90431758D01*
X167258265Y-90337962D01*
X167209024Y-90302186D01*
X167012602Y-90202103D01*
X167012603Y-90202103D01*
X166802961Y-90133987D01*
X166802952Y-90133985D01*
X166802951Y-90133985D01*
X166761148Y-90127364D01*
X166712857Y-90097771D01*
X166699636Y-90042698D01*
X166729229Y-89994407D01*
X166749858Y-89983897D01*
X166873084Y-89943859D01*
X166937606Y-89922895D01*
X167062150Y-89859434D01*
X167118613Y-89854991D01*
X167148072Y-89873043D01*
X168777826Y-91502797D01*
X168799500Y-91555123D01*
X168799500Y-93339564D01*
X168819977Y-93415985D01*
X168819979Y-93415990D01*
X168859540Y-93484511D01*
X169502826Y-94127797D01*
X169524500Y-94180123D01*
X169524500Y-94475500D01*
X169502826Y-94527826D01*
X169450500Y-94549500D01*
X169445734Y-94549500D01*
X169415301Y-94552354D01*
X169415299Y-94552354D01*
X169415295Y-94552355D01*
X169287118Y-94597206D01*
X169287116Y-94597207D01*
X169177853Y-94677846D01*
X169177846Y-94677853D01*
X169097207Y-94787116D01*
X169097206Y-94787118D01*
X169052355Y-94915295D01*
X169052354Y-94915299D01*
X169052354Y-94915301D01*
X169049500Y-94945734D01*
X169049500Y-96354266D01*
X169052354Y-96384699D01*
X169052354Y-96384701D01*
X169052355Y-96384704D01*
X169097206Y-96512881D01*
X169097207Y-96512883D01*
X169177846Y-96622146D01*
X169177853Y-96622153D01*
X169287116Y-96702792D01*
X169287118Y-96702793D01*
X169415295Y-96747644D01*
X169415301Y-96747646D01*
X169445734Y-96750500D01*
X169450500Y-96750500D01*
X169502826Y-96772174D01*
X169524500Y-96824500D01*
X169524500Y-96902073D01*
X169502826Y-96954399D01*
X169457411Y-96975749D01*
X169440301Y-96977354D01*
X169440299Y-96977354D01*
X169440295Y-96977355D01*
X169312118Y-97022206D01*
X169312116Y-97022207D01*
X169202853Y-97102846D01*
X169202846Y-97102853D01*
X169122207Y-97212116D01*
X169122206Y-97212118D01*
X169077355Y-97340295D01*
X169077354Y-97340299D01*
X169077354Y-97340301D01*
X169074500Y-97370734D01*
X169074500Y-99629266D01*
X169077354Y-99659699D01*
X169077354Y-99659701D01*
X169077355Y-99659704D01*
X169122206Y-99787881D01*
X169122207Y-99787883D01*
X169202846Y-99897146D01*
X169202853Y-99897153D01*
X169312116Y-99977792D01*
X169312118Y-99977793D01*
X169440295Y-100022644D01*
X169440301Y-100022646D01*
X169470734Y-100025500D01*
X169525500Y-100025500D01*
X169577826Y-100047174D01*
X169599500Y-100099500D01*
X169599500Y-100212034D01*
X169577826Y-100264360D01*
X169499500Y-100342685D01*
X169433610Y-100456809D01*
X169433606Y-100456818D01*
X169399500Y-100584105D01*
X169399500Y-100715894D01*
X169433606Y-100843181D01*
X169433610Y-100843190D01*
X169447474Y-100867203D01*
X169499500Y-100957314D01*
X169592686Y-101050500D01*
X169706814Y-101116392D01*
X169834105Y-101150499D01*
X169834106Y-101150500D01*
X169834108Y-101150500D01*
X169965894Y-101150500D01*
X169965894Y-101150499D01*
X170093186Y-101116392D01*
X170207314Y-101050500D01*
X170300500Y-100957314D01*
X170366392Y-100843186D01*
X170400499Y-100715894D01*
X170400500Y-100715894D01*
X170400500Y-100584106D01*
X170400499Y-100584105D01*
X170391393Y-100550122D01*
X170366392Y-100456814D01*
X170300500Y-100342686D01*
X170222174Y-100264360D01*
X170200500Y-100212034D01*
X170200500Y-100099500D01*
X170222174Y-100047174D01*
X170274500Y-100025500D01*
X170329258Y-100025500D01*
X170329266Y-100025500D01*
X170359699Y-100022646D01*
X170487882Y-99977793D01*
X170597150Y-99897150D01*
X170677793Y-99787882D01*
X170722646Y-99659699D01*
X170725500Y-99629266D01*
X170725500Y-97370734D01*
X170722646Y-97340301D01*
X170721720Y-97337656D01*
X170677793Y-97212118D01*
X170677792Y-97212116D01*
X170597153Y-97102853D01*
X170597146Y-97102846D01*
X170487883Y-97022207D01*
X170487881Y-97022206D01*
X170359704Y-96977355D01*
X170359705Y-96977355D01*
X170359700Y-96977354D01*
X170359699Y-96977354D01*
X170329266Y-96974500D01*
X170329260Y-96974500D01*
X170199500Y-96974500D01*
X170147174Y-96952826D01*
X170125500Y-96900500D01*
X170125500Y-96824500D01*
X170147174Y-96772174D01*
X170199500Y-96750500D01*
X170204258Y-96750500D01*
X170204266Y-96750500D01*
X170234699Y-96747646D01*
X170362882Y-96702793D01*
X170472150Y-96622150D01*
X170552793Y-96512882D01*
X170597646Y-96384699D01*
X170600500Y-96354266D01*
X170600500Y-96354205D01*
X172000001Y-96354205D01*
X172002850Y-96384602D01*
X172002852Y-96384611D01*
X172047652Y-96512643D01*
X172128207Y-96621791D01*
X172128208Y-96621792D01*
X172237356Y-96702347D01*
X172237355Y-96702347D01*
X172365385Y-96747146D01*
X172365393Y-96747148D01*
X172395802Y-96749999D01*
X172675000Y-96749999D01*
X172875000Y-96749999D01*
X173154194Y-96749999D01*
X173154205Y-96749998D01*
X173184602Y-96747149D01*
X173184611Y-96747147D01*
X173312643Y-96702347D01*
X173421791Y-96621792D01*
X173421792Y-96621791D01*
X173502347Y-96512643D01*
X173547146Y-96384614D01*
X173547148Y-96384606D01*
X173549999Y-96354198D01*
X173550000Y-96354197D01*
X173550000Y-96348451D01*
X174020001Y-96348451D01*
X174035761Y-96447969D01*
X174035762Y-96447971D01*
X174096882Y-96567923D01*
X174192078Y-96663119D01*
X174312030Y-96724237D01*
X174312031Y-96724238D01*
X174411548Y-96739999D01*
X174595000Y-96739999D01*
X174795000Y-96739999D01*
X174978451Y-96739999D01*
X175077969Y-96724238D01*
X175077971Y-96724237D01*
X175197923Y-96663117D01*
X175293119Y-96567921D01*
X175354237Y-96447969D01*
X175354238Y-96447968D01*
X175365248Y-96378451D01*
X175530001Y-96378451D01*
X175545761Y-96477969D01*
X175545762Y-96477971D01*
X175606882Y-96597923D01*
X175702078Y-96693119D01*
X175822030Y-96754237D01*
X175822031Y-96754238D01*
X175921548Y-96769999D01*
X176105000Y-96769999D01*
X176305000Y-96769999D01*
X176488451Y-96769999D01*
X176587969Y-96754238D01*
X176587971Y-96754237D01*
X176653699Y-96720746D01*
X177225000Y-96720746D01*
X177225000Y-96795000D01*
X177645000Y-96795000D01*
X177845000Y-96795000D01*
X178264999Y-96795000D01*
X178264999Y-96720746D01*
X178258577Y-96671959D01*
X178258576Y-96671957D01*
X178208648Y-96564888D01*
X178208648Y-96564887D01*
X178125112Y-96481351D01*
X178018039Y-96431422D01*
X178018040Y-96431422D01*
X177969253Y-96425000D01*
X177845000Y-96425000D01*
X177845000Y-96795000D01*
X177645000Y-96795000D01*
X177645000Y-96425000D01*
X177520746Y-96425000D01*
X177471959Y-96431422D01*
X177471957Y-96431423D01*
X177364888Y-96481351D01*
X177364887Y-96481351D01*
X177281351Y-96564887D01*
X177231422Y-96671959D01*
X177225000Y-96720746D01*
X176653699Y-96720746D01*
X176707923Y-96693117D01*
X176735045Y-96665996D01*
X176803118Y-96597922D01*
X176803119Y-96597921D01*
X176864237Y-96477969D01*
X176864238Y-96477968D01*
X176880000Y-96378451D01*
X176880000Y-96220000D01*
X176305000Y-96220000D01*
X176305000Y-96769999D01*
X176105000Y-96769999D01*
X176105000Y-96220000D01*
X175530001Y-96220000D01*
X175530001Y-96378451D01*
X175365248Y-96378451D01*
X175370000Y-96348451D01*
X175370000Y-96190000D01*
X174795000Y-96190000D01*
X174795000Y-96739999D01*
X174595000Y-96739999D01*
X174595000Y-96190000D01*
X174020001Y-96190000D01*
X174020001Y-96348451D01*
X173550000Y-96348451D01*
X173550000Y-95831548D01*
X174020000Y-95831548D01*
X174020000Y-95990000D01*
X174595000Y-95990000D01*
X174795000Y-95990000D01*
X175369999Y-95990000D01*
X175369999Y-95861548D01*
X175530000Y-95861548D01*
X175530000Y-96020000D01*
X176105000Y-96020000D01*
X176305000Y-96020000D01*
X176879999Y-96020000D01*
X176879999Y-95861548D01*
X176864238Y-95762030D01*
X176864237Y-95762028D01*
X176803117Y-95642076D01*
X176707921Y-95546880D01*
X176587969Y-95485762D01*
X176587968Y-95485761D01*
X176488452Y-95470000D01*
X176305000Y-95470000D01*
X176305000Y-96020000D01*
X176105000Y-96020000D01*
X176105000Y-95470000D01*
X175921548Y-95470000D01*
X175822030Y-95485761D01*
X175822028Y-95485762D01*
X175702076Y-95546882D01*
X175606880Y-95642078D01*
X175545762Y-95762030D01*
X175545761Y-95762031D01*
X175530000Y-95861548D01*
X175369999Y-95861548D01*
X175369999Y-95831548D01*
X175354238Y-95732030D01*
X175354237Y-95732028D01*
X175293117Y-95612076D01*
X175197921Y-95516880D01*
X175077969Y-95455762D01*
X175077968Y-95455761D01*
X174978452Y-95440000D01*
X174795000Y-95440000D01*
X174795000Y-95990000D01*
X174595000Y-95990000D01*
X174595000Y-95440000D01*
X174411548Y-95440000D01*
X174312030Y-95455761D01*
X174312028Y-95455762D01*
X174192076Y-95516882D01*
X174096880Y-95612078D01*
X174035762Y-95732030D01*
X174035761Y-95732031D01*
X174020000Y-95831548D01*
X173550000Y-95831548D01*
X173550000Y-95750000D01*
X172875000Y-95750000D01*
X172875000Y-96749999D01*
X172675000Y-96749999D01*
X172675000Y-95750000D01*
X172000001Y-95750000D01*
X172000001Y-96354205D01*
X170600500Y-96354205D01*
X170600500Y-94945801D01*
X172000000Y-94945801D01*
X172000000Y-95550000D01*
X172675000Y-95550000D01*
X172875000Y-95550000D01*
X173549999Y-95550000D01*
X173549999Y-94945806D01*
X173549998Y-94945794D01*
X173547149Y-94915397D01*
X173547147Y-94915388D01*
X173502347Y-94787355D01*
X173491901Y-94773202D01*
X173491900Y-94773201D01*
X173463046Y-94734105D01*
X176249500Y-94734105D01*
X176249500Y-94865894D01*
X176283606Y-94993181D01*
X176283607Y-94993184D01*
X176283608Y-94993186D01*
X176349500Y-95107314D01*
X176442686Y-95200500D01*
X176556814Y-95266392D01*
X176684105Y-95300499D01*
X176684106Y-95300500D01*
X176684108Y-95300500D01*
X176815894Y-95300500D01*
X176815894Y-95300499D01*
X176943186Y-95266392D01*
X177057314Y-95200500D01*
X177135640Y-95122174D01*
X177187966Y-95100500D01*
X177464877Y-95100500D01*
X177517203Y-95122174D01*
X177517826Y-95122797D01*
X177539500Y-95175123D01*
X177539500Y-95409899D01*
X177546027Y-95459485D01*
X177546028Y-95459487D01*
X177596776Y-95568316D01*
X177681684Y-95653224D01*
X177790513Y-95703972D01*
X177840099Y-95710500D01*
X178074876Y-95710499D01*
X178127202Y-95732173D01*
X178467826Y-96072797D01*
X178489500Y-96125123D01*
X178489500Y-96459899D01*
X178496027Y-96509485D01*
X178496028Y-96509487D01*
X178546776Y-96618316D01*
X178631684Y-96703224D01*
X178740513Y-96753972D01*
X178790099Y-96760500D01*
X179149900Y-96760499D01*
X179199487Y-96753972D01*
X179308316Y-96703224D01*
X179393224Y-96618316D01*
X179393224Y-96618315D01*
X179397674Y-96613866D01*
X179450000Y-96592192D01*
X179502326Y-96613866D01*
X179506776Y-96618316D01*
X179591684Y-96703224D01*
X179700513Y-96753972D01*
X179750099Y-96760500D01*
X180109900Y-96760499D01*
X180159487Y-96753972D01*
X180268316Y-96703224D01*
X180353224Y-96618316D01*
X180403972Y-96509487D01*
X180410500Y-96459901D01*
X180410499Y-96305121D01*
X180432172Y-96252797D01*
X180942797Y-95742174D01*
X180995123Y-95720500D01*
X181234314Y-95720500D01*
X181234316Y-95720500D01*
X181283173Y-95714068D01*
X181390404Y-95664065D01*
X181474065Y-95580404D01*
X181491401Y-95543227D01*
X181501104Y-95534334D01*
X181506142Y-95522174D01*
X181521167Y-95515950D01*
X181533158Y-95504963D01*
X181558468Y-95500500D01*
X181625500Y-95500500D01*
X181677826Y-95522174D01*
X181699500Y-95574500D01*
X181699500Y-96923308D01*
X181677826Y-96975634D01*
X181621776Y-97031683D01*
X181571027Y-97140514D01*
X181564500Y-97190100D01*
X181564500Y-97549899D01*
X181571027Y-97599485D01*
X181571028Y-97599487D01*
X181621776Y-97708316D01*
X181711134Y-97797674D01*
X181732808Y-97850000D01*
X181711134Y-97902326D01*
X181621776Y-97991683D01*
X181571027Y-98100514D01*
X181564500Y-98150100D01*
X181564500Y-98509899D01*
X181571027Y-98559485D01*
X181571028Y-98559487D01*
X181621776Y-98668316D01*
X181706684Y-98753224D01*
X181815513Y-98803972D01*
X181865099Y-98810500D01*
X182104876Y-98810499D01*
X182157202Y-98832173D01*
X182659540Y-99334511D01*
X182715489Y-99390460D01*
X182784011Y-99430021D01*
X182784012Y-99430021D01*
X182784014Y-99430022D01*
X182822224Y-99440260D01*
X182860435Y-99450499D01*
X182860436Y-99450500D01*
X182860438Y-99450500D01*
X182979874Y-99450500D01*
X183032200Y-99472174D01*
X183046941Y-99493227D01*
X183075933Y-99555401D01*
X183075934Y-99555403D01*
X183075935Y-99555404D01*
X183159596Y-99639065D01*
X183266827Y-99689068D01*
X183315684Y-99695500D01*
X183315686Y-99695500D01*
X183664314Y-99695500D01*
X183664316Y-99695500D01*
X183713173Y-99689068D01*
X183820404Y-99639065D01*
X183904065Y-99555404D01*
X183932933Y-99493495D01*
X183974690Y-99455232D01*
X184031273Y-99457702D01*
X184067067Y-99493496D01*
X184095933Y-99555402D01*
X184095935Y-99555404D01*
X184179596Y-99639065D01*
X184286827Y-99689068D01*
X184335684Y-99695500D01*
X184335686Y-99695500D01*
X184684314Y-99695500D01*
X184684316Y-99695500D01*
X184733173Y-99689068D01*
X184840404Y-99639065D01*
X184924065Y-99555404D01*
X184974068Y-99448173D01*
X184980500Y-99399316D01*
X184980500Y-99150123D01*
X185002174Y-99097797D01*
X185125471Y-98974500D01*
X185265460Y-98834511D01*
X185276442Y-98815489D01*
X185305021Y-98765989D01*
X185325499Y-98689564D01*
X185325500Y-98689564D01*
X185325500Y-98643631D01*
X185347174Y-98591305D01*
X185365901Y-98577698D01*
X185463342Y-98528050D01*
X185553050Y-98438342D01*
X185610646Y-98325304D01*
X185616566Y-98287924D01*
X185646158Y-98239633D01*
X185689655Y-98225500D01*
X187644877Y-98225500D01*
X187697203Y-98247174D01*
X190690489Y-101240460D01*
X190759012Y-101280022D01*
X190835438Y-101300500D01*
X190835440Y-101300500D01*
X197114564Y-101300500D01*
X197114564Y-101300499D01*
X197190989Y-101280021D01*
X197259511Y-101240460D01*
X197315460Y-101184511D01*
X198293804Y-100206165D01*
X198346130Y-100184492D01*
X198379724Y-100192557D01*
X198537394Y-100272895D01*
X198537397Y-100272896D01*
X198537396Y-100272896D01*
X198747038Y-100341012D01*
X198747044Y-100341013D01*
X198747049Y-100341015D01*
X198855913Y-100358257D01*
X198964776Y-100375500D01*
X198964778Y-100375500D01*
X199185222Y-100375500D01*
X199239653Y-100366878D01*
X199402951Y-100341015D01*
X199402958Y-100341012D01*
X199402961Y-100341012D01*
X199612602Y-100272896D01*
X199612602Y-100272895D01*
X199612605Y-100272895D01*
X199809022Y-100172815D01*
X199987364Y-100043241D01*
X200143241Y-99887364D01*
X200272815Y-99709022D01*
X200372895Y-99512605D01*
X200386032Y-99472174D01*
X200441012Y-99302961D01*
X200441012Y-99302958D01*
X200441015Y-99302951D01*
X200475500Y-99085221D01*
X200475500Y-98864778D01*
X200473887Y-98854596D01*
X200451698Y-98714500D01*
X200441015Y-98647049D01*
X200441013Y-98647044D01*
X200441012Y-98647038D01*
X200372896Y-98437397D01*
X200372895Y-98437396D01*
X200372895Y-98437394D01*
X200272815Y-98240978D01*
X200252871Y-98213528D01*
X200143244Y-98062639D01*
X200143243Y-98062638D01*
X200143241Y-98062635D01*
X197967364Y-95886758D01*
X197927174Y-95846568D01*
X197905500Y-95794242D01*
X197905500Y-95724500D01*
X197927174Y-95672174D01*
X197979500Y-95650500D01*
X198059746Y-95650500D01*
X198059748Y-95650500D01*
X198118231Y-95638867D01*
X198184552Y-95594552D01*
X198228867Y-95528231D01*
X198240500Y-95469748D01*
X198240500Y-93170252D01*
X198228867Y-93111769D01*
X198184552Y-93045448D01*
X198162343Y-93030608D01*
X198118232Y-93001133D01*
X198118233Y-93001133D01*
X198088989Y-92995316D01*
X198059748Y-92989500D01*
X198059746Y-92989500D01*
X196953977Y-92989500D01*
X196931110Y-92985878D01*
X196832961Y-92953987D01*
X196832948Y-92953984D01*
X196615224Y-92919500D01*
X196615222Y-92919500D01*
X196349778Y-92919500D01*
X196349776Y-92919500D01*
X196132051Y-92953984D01*
X196132038Y-92953987D01*
X196033890Y-92985878D01*
X196011023Y-92989500D01*
X194950252Y-92989500D01*
X194921010Y-92995316D01*
X194891767Y-93001133D01*
X194825449Y-93045447D01*
X194825447Y-93045449D01*
X194781133Y-93111767D01*
X194781133Y-93111769D01*
X194769500Y-93170252D01*
X194769500Y-95469748D01*
X194775617Y-95500500D01*
X194781133Y-95528232D01*
X194807915Y-95568313D01*
X194825448Y-95594552D01*
X194851674Y-95612076D01*
X194891767Y-95638866D01*
X194891768Y-95638866D01*
X194891769Y-95638867D01*
X194950252Y-95650500D01*
X195030500Y-95650500D01*
X195082826Y-95672174D01*
X195104500Y-95724500D01*
X195104500Y-96292137D01*
X195104499Y-96292167D01*
X195104499Y-96294778D01*
X195104499Y-96515222D01*
X195125480Y-96647686D01*
X195135916Y-96713577D01*
X195138985Y-96732950D01*
X195138987Y-96732961D01*
X195207103Y-96942602D01*
X195207104Y-96942605D01*
X195207105Y-96942606D01*
X195304901Y-97134540D01*
X195307186Y-97139023D01*
X195307186Y-97139024D01*
X195344294Y-97190099D01*
X195436758Y-97317365D01*
X195436763Y-97317370D01*
X195595214Y-97475821D01*
X195595224Y-97475830D01*
X197832385Y-99712991D01*
X197854059Y-99765317D01*
X197832385Y-99817643D01*
X196972203Y-100677826D01*
X196919877Y-100699500D01*
X191030123Y-100699500D01*
X190977797Y-100677826D01*
X188130273Y-97830302D01*
X192725000Y-97830302D01*
X192725000Y-98900000D01*
X193330198Y-98900000D01*
X193325000Y-98926131D01*
X193325000Y-99073869D01*
X193330198Y-99100000D01*
X192725000Y-99100000D01*
X192725000Y-100169697D01*
X192736603Y-100228035D01*
X192780807Y-100294191D01*
X192780808Y-100294192D01*
X192846964Y-100338396D01*
X192905303Y-100350000D01*
X193975000Y-100350000D01*
X193975000Y-99744802D01*
X194001131Y-99750000D01*
X194148869Y-99750000D01*
X194175000Y-99744802D01*
X194175000Y-100350000D01*
X195244697Y-100350000D01*
X195303035Y-100338396D01*
X195369191Y-100294192D01*
X195369192Y-100294191D01*
X195413396Y-100228035D01*
X195425000Y-100169697D01*
X195425000Y-99100000D01*
X194819802Y-99100000D01*
X194825000Y-99073869D01*
X194825000Y-98926131D01*
X194819802Y-98900000D01*
X195425000Y-98900000D01*
X195425000Y-97830302D01*
X195413396Y-97771964D01*
X195369192Y-97705808D01*
X195369191Y-97705807D01*
X195303035Y-97661603D01*
X195244697Y-97650000D01*
X194175000Y-97650000D01*
X194175000Y-98255197D01*
X194148869Y-98250000D01*
X194001131Y-98250000D01*
X193975000Y-98255197D01*
X193975000Y-97650000D01*
X192905303Y-97650000D01*
X192846964Y-97661603D01*
X192780808Y-97705807D01*
X192780807Y-97705808D01*
X192736603Y-97771964D01*
X192725000Y-97830302D01*
X188130273Y-97830302D01*
X187984511Y-97684540D01*
X187915990Y-97644979D01*
X187915985Y-97644977D01*
X187839564Y-97624500D01*
X187839562Y-97624500D01*
X185689655Y-97624500D01*
X185637329Y-97602826D01*
X185616566Y-97562075D01*
X185610646Y-97524695D01*
X185610645Y-97524693D01*
X185553049Y-97411657D01*
X185463343Y-97321951D01*
X185463342Y-97321950D01*
X185350304Y-97264354D01*
X185350302Y-97264353D01*
X185350301Y-97264353D01*
X185256519Y-97249500D01*
X184793480Y-97249500D01*
X184699695Y-97264353D01*
X184699693Y-97264354D01*
X184586657Y-97321950D01*
X184496951Y-97411656D01*
X184439353Y-97524698D01*
X184424500Y-97618480D01*
X184424500Y-98231519D01*
X184439353Y-98325304D01*
X184439354Y-98325306D01*
X184496950Y-98438342D01*
X184586782Y-98528174D01*
X184608456Y-98580500D01*
X184586782Y-98632826D01*
X184534456Y-98654500D01*
X184335684Y-98654500D01*
X184324318Y-98655996D01*
X184286828Y-98660931D01*
X184179595Y-98710935D01*
X184095935Y-98794595D01*
X184091563Y-98803972D01*
X184067956Y-98854598D01*
X184067067Y-98856504D01*
X184025309Y-98894767D01*
X183968726Y-98892297D01*
X183932933Y-98856504D01*
X183904065Y-98794596D01*
X183820404Y-98710935D01*
X183766809Y-98685943D01*
X183728546Y-98644185D01*
X183731016Y-98587602D01*
X183764485Y-98552943D01*
X183813342Y-98528050D01*
X183903050Y-98438342D01*
X183960646Y-98325304D01*
X183975500Y-98231519D01*
X183975499Y-97618482D01*
X183974316Y-97611015D01*
X183960646Y-97524695D01*
X183960645Y-97524693D01*
X183903049Y-97411657D01*
X183813343Y-97321951D01*
X183813342Y-97321950D01*
X183700304Y-97264354D01*
X183700302Y-97264353D01*
X183700301Y-97264353D01*
X183606520Y-97249500D01*
X183155123Y-97249500D01*
X183102797Y-97227826D01*
X183009511Y-97134540D01*
X182967853Y-97110489D01*
X182940990Y-97094979D01*
X182940985Y-97094977D01*
X182864564Y-97074500D01*
X182864562Y-97074500D01*
X182595332Y-97074500D01*
X182543006Y-97052826D01*
X182528265Y-97031773D01*
X182528224Y-97031684D01*
X182443316Y-96946776D01*
X182392989Y-96923308D01*
X182343226Y-96900103D01*
X182304963Y-96858345D01*
X182300500Y-96833036D01*
X182300500Y-96574500D01*
X182322174Y-96522174D01*
X182374500Y-96500500D01*
X182781532Y-96500500D01*
X182833858Y-96522174D01*
X182848599Y-96543227D01*
X182865933Y-96580402D01*
X182865935Y-96580404D01*
X182949596Y-96664065D01*
X183056827Y-96714068D01*
X183105684Y-96720500D01*
X183105686Y-96720500D01*
X183454314Y-96720500D01*
X183454316Y-96720500D01*
X183503173Y-96714068D01*
X183610404Y-96664065D01*
X183694065Y-96580404D01*
X183723209Y-96517903D01*
X183764965Y-96479641D01*
X183821548Y-96482111D01*
X183857341Y-96517903D01*
X183886349Y-96580109D01*
X183886351Y-96580112D01*
X183969887Y-96663648D01*
X184076960Y-96713577D01*
X184076959Y-96713577D01*
X184125746Y-96719999D01*
X184200000Y-96719999D01*
X184400000Y-96719999D01*
X184474254Y-96719999D01*
X184523040Y-96713577D01*
X184523042Y-96713576D01*
X184630111Y-96663648D01*
X184630112Y-96663648D01*
X184713648Y-96580112D01*
X184763577Y-96473040D01*
X184770000Y-96424253D01*
X184770000Y-96300000D01*
X184400000Y-96300000D01*
X184400000Y-96719999D01*
X184200000Y-96719999D01*
X184200000Y-96100000D01*
X184400000Y-96100000D01*
X184769999Y-96100000D01*
X184769999Y-95975746D01*
X184763577Y-95926959D01*
X184763576Y-95926957D01*
X184713648Y-95819888D01*
X184713648Y-95819887D01*
X184630112Y-95736351D01*
X184523039Y-95686422D01*
X184523040Y-95686422D01*
X184474253Y-95680000D01*
X184400000Y-95680000D01*
X184400000Y-96100000D01*
X184200000Y-96100000D01*
X184200000Y-95680000D01*
X184125746Y-95680000D01*
X184076959Y-95686422D01*
X184076957Y-95686423D01*
X183969888Y-95736351D01*
X183969887Y-95736351D01*
X183886351Y-95819887D01*
X183857343Y-95882096D01*
X183815585Y-95920359D01*
X183759002Y-95917889D01*
X183723209Y-95882096D01*
X183721218Y-95877826D01*
X183694065Y-95819596D01*
X183610404Y-95735935D01*
X183503173Y-95685932D01*
X183503171Y-95685931D01*
X183467178Y-95681193D01*
X183454316Y-95679500D01*
X183105684Y-95679500D01*
X183094318Y-95680996D01*
X183056828Y-95685931D01*
X182949595Y-95735935D01*
X182865933Y-95819597D01*
X182848599Y-95856773D01*
X182806842Y-95895037D01*
X182781532Y-95899500D01*
X182374500Y-95899500D01*
X182322174Y-95877826D01*
X182300500Y-95825500D01*
X182300500Y-94937966D01*
X182322174Y-94885640D01*
X182351041Y-94856773D01*
X182400500Y-94807314D01*
X182466392Y-94693186D01*
X182500499Y-94565894D01*
X182500500Y-94565894D01*
X182500500Y-94434106D01*
X182500499Y-94434105D01*
X182466393Y-94306818D01*
X182466392Y-94306814D01*
X182400500Y-94192686D01*
X182307314Y-94099500D01*
X182193190Y-94033610D01*
X182193181Y-94033606D01*
X182065894Y-93999500D01*
X182065892Y-93999500D01*
X181934108Y-93999500D01*
X181934106Y-93999500D01*
X181806818Y-94033606D01*
X181806809Y-94033610D01*
X181692685Y-94099500D01*
X181599500Y-94192685D01*
X181533610Y-94306809D01*
X181533606Y-94306818D01*
X181499500Y-94434105D01*
X181499500Y-94434108D01*
X181499500Y-94565892D01*
X181507891Y-94597207D01*
X181530193Y-94680441D01*
X181522800Y-94736593D01*
X181477866Y-94771072D01*
X181421714Y-94763679D01*
X181406388Y-94751919D01*
X181390404Y-94735935D01*
X181386480Y-94734105D01*
X181283173Y-94685932D01*
X181283171Y-94685931D01*
X181247178Y-94681193D01*
X181234316Y-94679500D01*
X180885684Y-94679500D01*
X180874318Y-94680996D01*
X180836828Y-94685931D01*
X180729595Y-94735935D01*
X180645935Y-94819595D01*
X180617067Y-94881504D01*
X180575309Y-94919767D01*
X180518726Y-94917297D01*
X180482933Y-94881504D01*
X180475547Y-94865665D01*
X180454065Y-94819596D01*
X180370404Y-94735935D01*
X180263173Y-94685932D01*
X180263171Y-94685931D01*
X180227178Y-94681193D01*
X180214316Y-94679500D01*
X179865684Y-94679500D01*
X179854318Y-94680996D01*
X179816828Y-94685931D01*
X179709595Y-94735935D01*
X179625933Y-94819597D01*
X179608599Y-94856773D01*
X179598895Y-94865665D01*
X179593858Y-94877826D01*
X179578832Y-94884049D01*
X179566842Y-94895037D01*
X179541532Y-94899500D01*
X179481991Y-94899500D01*
X179429665Y-94877826D01*
X179414925Y-94856775D01*
X179403225Y-94831686D01*
X179403223Y-94831683D01*
X179318316Y-94746776D01*
X179209487Y-94696028D01*
X179209485Y-94696027D01*
X179172955Y-94691218D01*
X179159901Y-94689500D01*
X179159899Y-94689500D01*
X178800100Y-94689500D01*
X178750514Y-94696027D01*
X178750512Y-94696028D01*
X178641683Y-94746776D01*
X178552326Y-94836134D01*
X178500000Y-94857808D01*
X178447674Y-94836134D01*
X178358316Y-94746776D01*
X178249487Y-94696028D01*
X178249485Y-94696027D01*
X178212955Y-94691218D01*
X178199901Y-94689500D01*
X178199899Y-94689500D01*
X177965123Y-94689500D01*
X177912797Y-94667826D01*
X177804511Y-94559540D01*
X177787121Y-94549500D01*
X177735990Y-94519979D01*
X177735985Y-94519977D01*
X177659564Y-94499500D01*
X177659562Y-94499500D01*
X177187966Y-94499500D01*
X177135640Y-94477826D01*
X177057314Y-94399500D01*
X176943190Y-94333610D01*
X176943181Y-94333606D01*
X176815894Y-94299500D01*
X176815892Y-94299500D01*
X176684108Y-94299500D01*
X176684106Y-94299500D01*
X176556818Y-94333606D01*
X176556809Y-94333610D01*
X176442685Y-94399500D01*
X176349500Y-94492685D01*
X176283610Y-94606809D01*
X176283606Y-94606818D01*
X176249500Y-94734105D01*
X173463046Y-94734105D01*
X173421792Y-94678208D01*
X173421791Y-94678207D01*
X173312643Y-94597652D01*
X173312644Y-94597652D01*
X173184614Y-94552853D01*
X173184606Y-94552851D01*
X173154198Y-94550000D01*
X172875000Y-94550000D01*
X172875000Y-95550000D01*
X172675000Y-95550000D01*
X172675000Y-94550000D01*
X172395806Y-94550000D01*
X172395793Y-94550001D01*
X172365397Y-94552850D01*
X172365388Y-94552852D01*
X172237356Y-94597652D01*
X172128208Y-94678207D01*
X172128207Y-94678208D01*
X172047652Y-94787356D01*
X172002853Y-94915385D01*
X172002851Y-94915393D01*
X172000000Y-94945801D01*
X170600500Y-94945801D01*
X170600500Y-94945734D01*
X170597646Y-94915301D01*
X170593843Y-94904434D01*
X170552793Y-94787118D01*
X170552792Y-94787116D01*
X170472153Y-94677853D01*
X170472146Y-94677846D01*
X170362883Y-94597207D01*
X170362881Y-94597206D01*
X170234704Y-94552355D01*
X170234705Y-94552355D01*
X170234700Y-94552354D01*
X170234699Y-94552354D01*
X170204266Y-94549500D01*
X170204260Y-94549500D01*
X170199500Y-94549500D01*
X170147174Y-94527826D01*
X170125500Y-94475500D01*
X170125500Y-93985436D01*
X170125499Y-93985435D01*
X170105022Y-93909014D01*
X170105020Y-93909009D01*
X170065459Y-93840488D01*
X169422174Y-93197203D01*
X169400500Y-93144877D01*
X169400500Y-91768480D01*
X171374500Y-91768480D01*
X171374500Y-92231519D01*
X171389353Y-92325304D01*
X171389354Y-92325306D01*
X171419315Y-92384106D01*
X171446950Y-92438342D01*
X171536658Y-92528050D01*
X171649696Y-92585646D01*
X171687075Y-92591566D01*
X171735367Y-92621158D01*
X171749500Y-92664655D01*
X171749500Y-92689564D01*
X171769977Y-92765985D01*
X171769979Y-92765990D01*
X171792784Y-92805489D01*
X171792785Y-92805491D01*
X171792788Y-92805495D01*
X171809540Y-92834511D01*
X172215489Y-93240460D01*
X172284012Y-93280022D01*
X172360438Y-93300500D01*
X172881368Y-93300500D01*
X172933694Y-93322174D01*
X172947302Y-93340904D01*
X172985561Y-93415990D01*
X172996950Y-93438342D01*
X173086658Y-93528050D01*
X173199696Y-93585646D01*
X173293481Y-93600500D01*
X173906518Y-93600499D01*
X173906519Y-93600499D01*
X174000304Y-93585646D01*
X174000306Y-93585645D01*
X174002419Y-93584568D01*
X174113342Y-93528050D01*
X174203050Y-93438342D01*
X174252697Y-93340903D01*
X174295764Y-93304122D01*
X174318631Y-93300500D01*
X174339564Y-93300500D01*
X174339564Y-93300499D01*
X174415989Y-93280021D01*
X174484511Y-93240460D01*
X174540460Y-93184511D01*
X174752796Y-92972173D01*
X174805122Y-92950500D01*
X174915894Y-92950500D01*
X174915894Y-92950499D01*
X175043186Y-92916392D01*
X175157314Y-92850500D01*
X175250500Y-92757314D01*
X175316392Y-92643186D01*
X175350499Y-92515894D01*
X175350500Y-92515894D01*
X175350500Y-92384106D01*
X175350499Y-92384105D01*
X175316393Y-92256818D01*
X175316392Y-92256814D01*
X175250500Y-92142686D01*
X175157314Y-92049500D01*
X175043190Y-91983610D01*
X175043181Y-91983606D01*
X174915894Y-91949500D01*
X174915892Y-91949500D01*
X174784108Y-91949500D01*
X174784106Y-91949500D01*
X174656818Y-91983606D01*
X174656809Y-91983610D01*
X174542685Y-92049500D01*
X174449500Y-92142685D01*
X174383610Y-92256809D01*
X174383606Y-92256818D01*
X174349500Y-92384105D01*
X174349500Y-92494876D01*
X174327826Y-92547202D01*
X174310536Y-92564492D01*
X174258210Y-92586166D01*
X174205884Y-92564492D01*
X174113343Y-92471951D01*
X174113342Y-92471950D01*
X174000304Y-92414354D01*
X174000302Y-92414353D01*
X174000301Y-92414353D01*
X173906519Y-92399500D01*
X173293480Y-92399500D01*
X173199695Y-92414353D01*
X173199693Y-92414354D01*
X173086657Y-92471950D01*
X172996951Y-92561656D01*
X172996950Y-92561658D01*
X172947302Y-92659096D01*
X172904236Y-92695878D01*
X172881369Y-92699500D01*
X172555123Y-92699500D01*
X172502797Y-92677826D01*
X172496033Y-92671062D01*
X172474359Y-92618736D01*
X172496033Y-92566410D01*
X172514760Y-92552803D01*
X172563342Y-92528050D01*
X172653050Y-92438342D01*
X172710646Y-92325304D01*
X172725500Y-92231519D01*
X172725499Y-91768482D01*
X172710646Y-91674696D01*
X172710646Y-91674695D01*
X172710645Y-91674693D01*
X172667725Y-91590459D01*
X172653050Y-91561658D01*
X172563342Y-91471950D01*
X172450304Y-91414354D01*
X172450302Y-91414353D01*
X172450301Y-91414353D01*
X172356519Y-91399500D01*
X171743480Y-91399500D01*
X171649695Y-91414353D01*
X171649693Y-91414354D01*
X171536657Y-91471950D01*
X171446951Y-91561656D01*
X171389353Y-91674698D01*
X171374500Y-91768480D01*
X169400500Y-91768480D01*
X169400500Y-91360440D01*
X169400500Y-91360438D01*
X169380022Y-91284012D01*
X169340460Y-91215489D01*
X167594608Y-89469637D01*
X167572934Y-89417311D01*
X167587069Y-89373812D01*
X167597812Y-89359026D01*
X167597811Y-89359026D01*
X167597815Y-89359022D01*
X167697895Y-89162606D01*
X167748157Y-89007912D01*
X167766012Y-88952961D01*
X167766012Y-88952958D01*
X167766015Y-88952951D01*
X167800500Y-88735222D01*
X167800500Y-87674452D01*
X167819973Y-87627437D01*
X167818857Y-87626613D01*
X167902792Y-87512883D01*
X167902793Y-87512882D01*
X167947646Y-87384699D01*
X167950500Y-87354266D01*
X167950500Y-87354205D01*
X169350001Y-87354205D01*
X169352850Y-87384602D01*
X169352852Y-87384611D01*
X169397652Y-87512643D01*
X169478207Y-87621791D01*
X169478208Y-87621792D01*
X169587356Y-87702347D01*
X169587355Y-87702347D01*
X169715385Y-87747146D01*
X169715393Y-87747148D01*
X169745802Y-87749999D01*
X170025000Y-87749999D01*
X170225000Y-87749999D01*
X170504194Y-87749999D01*
X170504205Y-87749998D01*
X170534602Y-87747149D01*
X170534611Y-87747147D01*
X170662643Y-87702347D01*
X170771791Y-87621792D01*
X170771792Y-87621791D01*
X170852347Y-87512643D01*
X170897146Y-87384614D01*
X170897148Y-87384606D01*
X170899999Y-87354198D01*
X170900000Y-87354197D01*
X170900000Y-86340161D01*
X171940000Y-86340161D01*
X171940000Y-86450000D01*
X172320000Y-86450000D01*
X172320000Y-86040000D01*
X172240162Y-86040000D01*
X172190645Y-86046518D01*
X172081975Y-86097192D01*
X171997192Y-86181975D01*
X171946518Y-86290645D01*
X171940000Y-86340161D01*
X170900000Y-86340161D01*
X170900000Y-86300000D01*
X170225000Y-86300000D01*
X170225000Y-87749999D01*
X170025000Y-87749999D01*
X170025000Y-86300000D01*
X169350001Y-86300000D01*
X169350001Y-87354205D01*
X167950500Y-87354205D01*
X167950500Y-85260758D01*
X167972174Y-85208432D01*
X168134805Y-85045801D01*
X169350000Y-85045801D01*
X169350000Y-86100000D01*
X170025000Y-86100000D01*
X170225000Y-86100000D01*
X170899999Y-86100000D01*
X170899999Y-85424253D01*
X172270001Y-85424253D01*
X172276422Y-85473040D01*
X172276423Y-85473042D01*
X172326351Y-85580111D01*
X172326351Y-85580112D01*
X172409887Y-85663648D01*
X172516960Y-85713577D01*
X172516959Y-85713577D01*
X172565746Y-85719999D01*
X172640000Y-85719999D01*
X172640000Y-85300000D01*
X172270001Y-85300000D01*
X172270001Y-85424253D01*
X170899999Y-85424253D01*
X170899999Y-85045806D01*
X170899998Y-85045794D01*
X170897149Y-85015397D01*
X170897149Y-85015395D01*
X170890979Y-84997762D01*
X170890979Y-84997760D01*
X170883276Y-84975746D01*
X172270000Y-84975746D01*
X172270000Y-85100000D01*
X172640000Y-85100000D01*
X172640000Y-84680000D01*
X172565746Y-84680000D01*
X172516959Y-84686422D01*
X172516957Y-84686423D01*
X172409888Y-84736351D01*
X172409887Y-84736351D01*
X172326351Y-84819887D01*
X172276422Y-84926959D01*
X172270000Y-84975746D01*
X170883276Y-84975746D01*
X170852346Y-84887355D01*
X170771792Y-84778208D01*
X170771791Y-84778207D01*
X170662643Y-84697652D01*
X170662644Y-84697652D01*
X170534614Y-84652853D01*
X170534606Y-84652851D01*
X170504198Y-84650000D01*
X170225000Y-84650000D01*
X170225000Y-86100000D01*
X170025000Y-86100000D01*
X170025000Y-84650000D01*
X169745806Y-84650000D01*
X169745793Y-84650001D01*
X169715397Y-84652850D01*
X169715388Y-84652852D01*
X169587356Y-84697652D01*
X169478208Y-84778207D01*
X169478207Y-84778208D01*
X169397652Y-84887356D01*
X169352853Y-85015385D01*
X169352851Y-85015393D01*
X169350000Y-85045801D01*
X168134805Y-85045801D01*
X168188865Y-84991741D01*
X169685815Y-83494792D01*
X171155001Y-83494792D01*
X171157908Y-83519868D01*
X171157910Y-83519874D01*
X171203213Y-83622478D01*
X171282521Y-83701786D01*
X171385124Y-83747089D01*
X171385123Y-83747089D01*
X171410210Y-83749999D01*
X171485000Y-83749999D01*
X171485000Y-83450000D01*
X171155001Y-83450000D01*
X171155001Y-83494792D01*
X169685815Y-83494792D01*
X169813585Y-83367022D01*
X169975397Y-83205210D01*
X171155000Y-83205210D01*
X171155000Y-83250000D01*
X171485000Y-83250000D01*
X171485000Y-82950000D01*
X171410207Y-82950000D01*
X171385131Y-82952908D01*
X171385125Y-82952910D01*
X171282521Y-82998213D01*
X171203213Y-83077521D01*
X171157910Y-83180124D01*
X171155000Y-83205210D01*
X169975397Y-83205210D01*
X171408433Y-81772174D01*
X171460759Y-81750500D01*
X173095545Y-81750500D01*
X173126818Y-81757432D01*
X173181504Y-81782933D01*
X173219767Y-81824690D01*
X173217297Y-81881274D01*
X173181504Y-81917066D01*
X173153531Y-81930110D01*
X173119595Y-81945935D01*
X173035935Y-82029595D01*
X172985931Y-82136828D01*
X172979500Y-82185685D01*
X172979500Y-82534314D01*
X172985931Y-82583171D01*
X173035935Y-82690404D01*
X173119597Y-82774066D01*
X173156773Y-82791401D01*
X173165665Y-82801104D01*
X173177826Y-82806142D01*
X173184049Y-82821167D01*
X173195037Y-82833158D01*
X173199500Y-82858468D01*
X173199500Y-82960500D01*
X173177826Y-83012826D01*
X173125500Y-83034500D01*
X172595123Y-83034500D01*
X172542797Y-83012826D01*
X172527765Y-82997794D01*
X172456999Y-82966548D01*
X172424991Y-82952415D01*
X172424990Y-82952414D01*
X172424988Y-82952414D01*
X172403659Y-82949940D01*
X172399865Y-82949500D01*
X172399864Y-82949500D01*
X172050136Y-82949500D01*
X172025013Y-82952414D01*
X172025007Y-82952415D01*
X171934271Y-82992479D01*
X171877648Y-82993787D01*
X171874491Y-82992479D01*
X171784875Y-82952910D01*
X171784876Y-82952910D01*
X171759789Y-82950000D01*
X171685000Y-82950000D01*
X171685000Y-83749999D01*
X171759792Y-83749999D01*
X171784868Y-83747091D01*
X171784873Y-83747089D01*
X171874491Y-83707520D01*
X171931113Y-83706212D01*
X171934256Y-83707514D01*
X172025009Y-83747585D01*
X172050135Y-83750500D01*
X172399864Y-83750499D01*
X172424991Y-83747585D01*
X172527765Y-83702206D01*
X172572797Y-83657174D01*
X172625123Y-83635500D01*
X173329877Y-83635500D01*
X173382203Y-83657174D01*
X175127826Y-85402797D01*
X175149500Y-85455123D01*
X175149500Y-85529316D01*
X175138693Y-85564940D01*
X175138922Y-85565035D01*
X175137960Y-85567356D01*
X175137029Y-85570427D01*
X175136133Y-85571767D01*
X175124500Y-85630253D01*
X175124500Y-86031745D01*
X175102826Y-86084071D01*
X175050500Y-86105745D01*
X174998174Y-86084071D01*
X174994554Y-86080451D01*
X174994552Y-86080448D01*
X174964561Y-86060408D01*
X174928232Y-86036133D01*
X174928233Y-86036133D01*
X174898527Y-86030224D01*
X174851435Y-85998757D01*
X174841487Y-85976799D01*
X174830023Y-85934016D01*
X174830022Y-85934012D01*
X174818268Y-85913653D01*
X174790462Y-85865492D01*
X174790461Y-85865491D01*
X174790460Y-85865489D01*
X174252174Y-85327203D01*
X174230500Y-85274877D01*
X174230500Y-84975685D01*
X174224068Y-84926828D01*
X174221051Y-84920358D01*
X174174065Y-84819596D01*
X174090404Y-84735935D01*
X173983173Y-84685932D01*
X173983171Y-84685931D01*
X173947178Y-84681193D01*
X173934316Y-84679500D01*
X173585684Y-84679500D01*
X173574318Y-84680996D01*
X173536828Y-84685931D01*
X173429595Y-84735935D01*
X173345935Y-84819595D01*
X173345935Y-84819596D01*
X173316791Y-84882095D01*
X173275033Y-84920358D01*
X173218450Y-84917888D01*
X173182657Y-84882095D01*
X173153648Y-84819888D01*
X173153648Y-84819887D01*
X173070112Y-84736351D01*
X172963039Y-84686422D01*
X172963040Y-84686422D01*
X172914253Y-84680000D01*
X172840000Y-84680000D01*
X172840000Y-85719999D01*
X172914254Y-85719999D01*
X172963040Y-85713577D01*
X172963042Y-85713576D01*
X173070111Y-85663648D01*
X173070112Y-85663648D01*
X173153648Y-85580112D01*
X173153649Y-85580110D01*
X173182656Y-85517904D01*
X173224412Y-85479640D01*
X173280996Y-85482110D01*
X173316790Y-85517903D01*
X173321644Y-85528312D01*
X173345935Y-85580404D01*
X173429596Y-85664065D01*
X173536827Y-85714068D01*
X173585684Y-85720500D01*
X173764877Y-85720500D01*
X173817203Y-85742174D01*
X174082543Y-86007514D01*
X174104217Y-86059840D01*
X174091746Y-86100952D01*
X174061133Y-86146767D01*
X174049500Y-86205253D01*
X174049500Y-86395877D01*
X174027826Y-86448203D01*
X173975500Y-86469877D01*
X173923174Y-86448203D01*
X173882173Y-86407202D01*
X173860499Y-86354876D01*
X173860499Y-86340100D01*
X173853972Y-86290514D01*
X173853972Y-86290513D01*
X173803224Y-86181684D01*
X173718316Y-86096776D01*
X173609487Y-86046028D01*
X173609485Y-86046027D01*
X173572955Y-86041218D01*
X173559901Y-86039500D01*
X173559899Y-86039500D01*
X173200100Y-86039500D01*
X173150514Y-86046027D01*
X173150512Y-86046028D01*
X173041683Y-86096776D01*
X172952198Y-86186262D01*
X172949519Y-86183583D01*
X172912269Y-86207123D01*
X172857019Y-86194663D01*
X172847359Y-86186527D01*
X172758024Y-86097192D01*
X172649353Y-86046518D01*
X172649354Y-86046518D01*
X172599838Y-86040000D01*
X172520000Y-86040000D01*
X172520000Y-86476000D01*
X172498326Y-86528326D01*
X172446000Y-86550000D01*
X172420000Y-86550000D01*
X172420000Y-86576000D01*
X172398326Y-86628326D01*
X172346000Y-86650000D01*
X171940000Y-86650000D01*
X171940000Y-86759838D01*
X171946518Y-86809354D01*
X171997192Y-86918024D01*
X172081975Y-87002807D01*
X172087279Y-87006521D01*
X172086421Y-87007745D01*
X172120102Y-87044502D01*
X172117632Y-87101085D01*
X172102891Y-87122137D01*
X170297202Y-88927826D01*
X170244876Y-88949500D01*
X170134106Y-88949500D01*
X170006818Y-88983606D01*
X170006809Y-88983610D01*
X169892685Y-89049500D01*
X169799500Y-89142685D01*
X169733610Y-89256809D01*
X169733606Y-89256818D01*
X169699500Y-89384105D01*
X169699500Y-89515894D01*
X169733606Y-89643181D01*
X169733610Y-89643190D01*
X169785720Y-89733446D01*
X169799500Y-89757314D01*
X169892686Y-89850500D01*
X170006814Y-89916392D01*
X170134105Y-89950499D01*
X170134106Y-89950500D01*
X170134108Y-89950500D01*
X170265894Y-89950500D01*
X170265894Y-89950499D01*
X170393186Y-89916392D01*
X170507314Y-89850500D01*
X170600500Y-89757314D01*
X170666392Y-89643186D01*
X170700499Y-89515894D01*
X170700500Y-89515894D01*
X170700500Y-89405122D01*
X170722174Y-89352796D01*
X170978743Y-89096227D01*
X171260893Y-88814076D01*
X171313218Y-88792403D01*
X171365544Y-88814077D01*
X171380166Y-88839365D01*
X171381754Y-88838708D01*
X171383610Y-88843190D01*
X171432475Y-88927826D01*
X171449500Y-88957314D01*
X171542686Y-89050500D01*
X171656814Y-89116392D01*
X171784105Y-89150499D01*
X171784106Y-89150500D01*
X171784108Y-89150500D01*
X171915894Y-89150500D01*
X171915894Y-89150499D01*
X172043186Y-89116392D01*
X172157314Y-89050500D01*
X172250500Y-88957314D01*
X172316392Y-88843186D01*
X172350499Y-88715894D01*
X172350500Y-88715894D01*
X172350500Y-88655123D01*
X172372174Y-88602797D01*
X172802797Y-88172174D01*
X172855123Y-88150500D01*
X173976000Y-88150500D01*
X174028326Y-88172174D01*
X174050000Y-88224500D01*
X174050000Y-88250000D01*
X174476000Y-88250000D01*
X174528326Y-88271674D01*
X174550000Y-88324000D01*
X174550000Y-88376000D01*
X174528326Y-88428326D01*
X174476000Y-88450000D01*
X174050000Y-88450000D01*
X174050000Y-88494697D01*
X174061604Y-88553036D01*
X174061604Y-88553037D01*
X174065214Y-88558440D01*
X174076262Y-88613990D01*
X174065214Y-88640660D01*
X174061133Y-88646767D01*
X174049500Y-88705253D01*
X174049500Y-88975500D01*
X174027826Y-89027826D01*
X173975500Y-89049500D01*
X173089562Y-89049500D01*
X173010438Y-89049500D01*
X172934012Y-89069978D01*
X172934011Y-89069978D01*
X172934009Y-89069979D01*
X172934007Y-89069980D01*
X172865490Y-89109538D01*
X172247201Y-89727826D01*
X172194875Y-89749500D01*
X171743480Y-89749500D01*
X171649695Y-89764353D01*
X171649693Y-89764354D01*
X171536657Y-89821950D01*
X171446951Y-89911656D01*
X171389353Y-90024698D01*
X171374500Y-90118480D01*
X171374500Y-90581519D01*
X171389353Y-90675304D01*
X171389354Y-90675306D01*
X171434727Y-90764353D01*
X171446950Y-90788342D01*
X171536658Y-90878050D01*
X171649696Y-90935646D01*
X171743481Y-90950500D01*
X172356518Y-90950499D01*
X172356519Y-90950499D01*
X172450304Y-90935646D01*
X172450306Y-90935645D01*
X172467053Y-90927112D01*
X172563342Y-90878050D01*
X172653050Y-90788342D01*
X172710646Y-90675304D01*
X172725500Y-90581519D01*
X172725499Y-90130122D01*
X172747173Y-90077797D01*
X173152797Y-89672174D01*
X173205123Y-89650500D01*
X173975500Y-89650500D01*
X174027826Y-89672174D01*
X174049500Y-89724500D01*
X174049500Y-89994748D01*
X174056636Y-90030621D01*
X174061133Y-90053232D01*
X174080556Y-90082299D01*
X174105448Y-90119552D01*
X174149560Y-90149027D01*
X174171767Y-90163866D01*
X174171768Y-90163866D01*
X174171769Y-90163867D01*
X174230252Y-90175500D01*
X174230254Y-90175500D01*
X174869745Y-90175500D01*
X174869748Y-90175500D01*
X174917327Y-90166035D01*
X174972873Y-90177083D01*
X175004340Y-90224175D01*
X174993292Y-90279724D01*
X174984088Y-90290939D01*
X174329185Y-90945843D01*
X174276859Y-90967517D01*
X174224533Y-90945843D01*
X174210924Y-90927112D01*
X174203049Y-90911657D01*
X174113343Y-90821951D01*
X174113342Y-90821950D01*
X174000304Y-90764354D01*
X174000302Y-90764353D01*
X174000301Y-90764353D01*
X173906519Y-90749500D01*
X173293480Y-90749500D01*
X173199695Y-90764353D01*
X173199693Y-90764354D01*
X173086657Y-90821950D01*
X172996951Y-90911656D01*
X172939353Y-91024698D01*
X172924500Y-91118480D01*
X172924500Y-91581519D01*
X172939353Y-91675304D01*
X172939354Y-91675306D01*
X172986830Y-91768480D01*
X172996950Y-91788342D01*
X173086658Y-91878050D01*
X173199696Y-91935646D01*
X173293481Y-91950500D01*
X173906518Y-91950499D01*
X173906519Y-91950499D01*
X174000304Y-91935646D01*
X174000306Y-91935645D01*
X174002419Y-91934568D01*
X174113342Y-91878050D01*
X174203050Y-91788342D01*
X174252697Y-91690903D01*
X174295764Y-91654122D01*
X174318631Y-91650500D01*
X174389564Y-91650500D01*
X174389564Y-91650499D01*
X174465989Y-91630021D01*
X174534511Y-91590460D01*
X174590460Y-91534511D01*
X175352797Y-90772174D01*
X175405123Y-90750500D01*
X175594746Y-90750500D01*
X175594748Y-90750500D01*
X175653231Y-90738867D01*
X175719552Y-90694552D01*
X175763867Y-90628231D01*
X175775500Y-90569748D01*
X175775500Y-89930252D01*
X175763867Y-89871769D01*
X175719552Y-89805448D01*
X175689739Y-89785527D01*
X175658275Y-89738436D01*
X175669325Y-89682887D01*
X175716417Y-89651422D01*
X175730853Y-89650000D01*
X176100000Y-89650000D01*
X176100000Y-86550000D01*
X175730853Y-86550000D01*
X175678527Y-86528326D01*
X175656853Y-86476000D01*
X175678527Y-86423674D01*
X175689740Y-86414472D01*
X175719552Y-86394552D01*
X175763867Y-86328231D01*
X175775500Y-86269748D01*
X175775500Y-85630252D01*
X175763867Y-85571769D01*
X175763866Y-85571767D01*
X175762971Y-85570427D01*
X175762039Y-85567356D01*
X175761078Y-85565035D01*
X175761306Y-85564940D01*
X175750500Y-85529316D01*
X175750500Y-85260438D01*
X175738590Y-85215989D01*
X175738590Y-85215988D01*
X175730023Y-85184016D01*
X175730022Y-85184012D01*
X175690460Y-85115489D01*
X173822174Y-83247203D01*
X173800500Y-83194877D01*
X173800500Y-82858468D01*
X173822174Y-82806142D01*
X173843227Y-82791401D01*
X173880402Y-82774066D01*
X173880402Y-82774065D01*
X173880404Y-82774065D01*
X173964065Y-82690404D01*
X174014068Y-82583173D01*
X174020500Y-82534316D01*
X174020500Y-82185684D01*
X174014068Y-82136827D01*
X173964065Y-82029596D01*
X173880404Y-81945935D01*
X173880402Y-81945933D01*
X173834886Y-81924709D01*
X173818495Y-81917066D01*
X173801380Y-81898388D01*
X173782702Y-81881273D01*
X173782552Y-81877842D01*
X173780232Y-81875310D01*
X173781336Y-81850000D01*
X173780232Y-81824690D01*
X173782552Y-81822157D01*
X173782702Y-81818727D01*
X173818495Y-81782933D01*
X173849137Y-81768644D01*
X173873182Y-81757433D01*
X173904455Y-81750500D01*
X174762017Y-81750500D01*
X174795613Y-81758566D01*
X174799694Y-81760645D01*
X174799696Y-81760646D01*
X174893481Y-81775500D01*
X175506518Y-81775499D01*
X175506519Y-81775499D01*
X175600304Y-81760646D01*
X175602671Y-81759439D01*
X175604387Y-81758566D01*
X175637983Y-81750500D01*
X178589242Y-81750500D01*
X178641568Y-81772174D01*
X178684311Y-81814917D01*
X178705985Y-81867243D01*
X178704130Y-81883706D01*
X178699500Y-81903994D01*
X178699500Y-84224997D01*
X178704652Y-84270728D01*
X178704652Y-84270730D01*
X178744332Y-84353125D01*
X178744335Y-84353128D01*
X178815832Y-84410146D01*
X178815835Y-84410147D01*
X178815837Y-84410149D01*
X178905000Y-84430500D01*
X178905004Y-84430500D01*
X179384232Y-84430500D01*
X179436558Y-84452174D01*
X179458232Y-84504500D01*
X179436558Y-84556826D01*
X179432691Y-84560426D01*
X179419262Y-84572062D01*
X179365523Y-84589947D01*
X179361145Y-84589503D01*
X179327780Y-84585111D01*
X179323139Y-84584500D01*
X179323138Y-84584500D01*
X178996862Y-84584500D01*
X178949456Y-84590740D01*
X178949454Y-84590741D01*
X178845420Y-84639253D01*
X178764253Y-84720420D01*
X178715740Y-84824456D01*
X178709500Y-84871862D01*
X178709500Y-85094876D01*
X178687826Y-85147202D01*
X177832203Y-86002826D01*
X177779877Y-86024500D01*
X177530252Y-86024500D01*
X177501476Y-86030224D01*
X177471767Y-86036133D01*
X177405449Y-86080447D01*
X177401826Y-86084071D01*
X177349500Y-86105745D01*
X177297174Y-86084071D01*
X177275500Y-86031745D01*
X177275500Y-85630253D01*
X177268600Y-85595565D01*
X177263867Y-85571769D01*
X177263866Y-85571767D01*
X177262971Y-85570427D01*
X177262039Y-85567356D01*
X177261078Y-85565035D01*
X177261306Y-85564940D01*
X177250500Y-85529316D01*
X177250500Y-85486007D01*
X177272174Y-85433681D01*
X177312925Y-85412918D01*
X177333126Y-85409719D01*
X177453220Y-85348528D01*
X177548528Y-85253220D01*
X177609719Y-85133126D01*
X177625500Y-85033488D01*
X177625500Y-84516512D01*
X177625194Y-84514583D01*
X177609719Y-84416874D01*
X177609718Y-84416873D01*
X177606290Y-84410146D01*
X177548528Y-84296780D01*
X177453220Y-84201472D01*
X177453219Y-84201471D01*
X177333126Y-84140281D01*
X177333125Y-84140280D01*
X177233489Y-84124500D01*
X177233488Y-84124500D01*
X176700123Y-84124500D01*
X176647797Y-84102826D01*
X176534610Y-83989639D01*
X176512936Y-83937313D01*
X176534610Y-83884987D01*
X176586936Y-83863313D01*
X176598512Y-83864224D01*
X176666548Y-83874999D01*
X176850000Y-83874999D01*
X177050000Y-83874999D01*
X177233451Y-83874999D01*
X177332969Y-83859238D01*
X177332971Y-83859237D01*
X177452923Y-83798117D01*
X177548119Y-83702921D01*
X177609237Y-83582969D01*
X177609238Y-83582968D01*
X177625000Y-83483451D01*
X177625000Y-83325000D01*
X177050000Y-83325000D01*
X177050000Y-83874999D01*
X176850000Y-83874999D01*
X176850000Y-83325000D01*
X176275001Y-83325000D01*
X176275001Y-83483452D01*
X176285776Y-83551489D01*
X176272554Y-83606561D01*
X176224262Y-83636153D01*
X176169190Y-83622931D01*
X176160361Y-83615390D01*
X175842843Y-83297872D01*
X175821169Y-83245546D01*
X175829235Y-83211950D01*
X175860646Y-83150304D01*
X175875500Y-83056519D01*
X175875500Y-82966548D01*
X176275000Y-82966548D01*
X176275000Y-83125000D01*
X176850000Y-83125000D01*
X177050000Y-83125000D01*
X177624999Y-83125000D01*
X177624999Y-82966548D01*
X177609238Y-82867030D01*
X177609237Y-82867028D01*
X177548117Y-82747076D01*
X177452921Y-82651880D01*
X177332969Y-82590762D01*
X177332968Y-82590761D01*
X177233452Y-82575000D01*
X177050000Y-82575000D01*
X177050000Y-83125000D01*
X176850000Y-83125000D01*
X176850000Y-82575000D01*
X176666548Y-82575000D01*
X176567030Y-82590761D01*
X176567028Y-82590762D01*
X176447076Y-82651882D01*
X176351880Y-82747078D01*
X176290762Y-82867030D01*
X176290761Y-82867031D01*
X176275000Y-82966548D01*
X175875500Y-82966548D01*
X175875499Y-82821167D01*
X175875499Y-82593480D01*
X175860646Y-82499695D01*
X175860645Y-82499693D01*
X175830770Y-82441061D01*
X175803050Y-82386658D01*
X175713342Y-82296950D01*
X175600304Y-82239354D01*
X175600302Y-82239353D01*
X175600301Y-82239353D01*
X175506519Y-82224500D01*
X174893480Y-82224500D01*
X174799695Y-82239353D01*
X174799693Y-82239354D01*
X174686657Y-82296950D01*
X174596951Y-82386656D01*
X174539353Y-82499698D01*
X174524500Y-82593480D01*
X174524500Y-83056519D01*
X174539353Y-83150304D01*
X174539354Y-83150306D01*
X174567330Y-83205210D01*
X174596950Y-83263342D01*
X174686658Y-83353050D01*
X174799696Y-83410646D01*
X174893481Y-83425500D01*
X175089876Y-83425499D01*
X175142202Y-83447173D01*
X176252826Y-84557797D01*
X176274500Y-84610123D01*
X176274500Y-85033488D01*
X176290280Y-85133125D01*
X176290281Y-85133126D01*
X176339694Y-85230106D01*
X176351472Y-85253220D01*
X176446780Y-85348528D01*
X176566874Y-85409719D01*
X176587074Y-85412918D01*
X176606632Y-85424902D01*
X176627826Y-85433681D01*
X176630161Y-85439320D01*
X176635366Y-85442509D01*
X176649500Y-85486007D01*
X176649500Y-85529316D01*
X176638693Y-85564940D01*
X176638922Y-85565035D01*
X176637960Y-85567356D01*
X176637029Y-85570427D01*
X176636133Y-85571767D01*
X176634415Y-85580404D01*
X176624500Y-85630252D01*
X176624500Y-86269748D01*
X176628631Y-86290514D01*
X176636133Y-86328232D01*
X176663545Y-86369255D01*
X176680448Y-86394552D01*
X176699380Y-86407202D01*
X176710260Y-86414472D01*
X176741725Y-86461564D01*
X176730675Y-86517113D01*
X176683583Y-86548578D01*
X176669147Y-86550000D01*
X176300000Y-86550000D01*
X176300000Y-89650000D01*
X176669147Y-89650000D01*
X176721473Y-89671674D01*
X176743147Y-89724000D01*
X176721473Y-89776326D01*
X176710260Y-89785528D01*
X176680449Y-89805447D01*
X176680447Y-89805449D01*
X176636133Y-89871767D01*
X176631187Y-89896635D01*
X176625964Y-89922895D01*
X176624500Y-89930253D01*
X176624500Y-90119877D01*
X176602826Y-90172203D01*
X175959540Y-90815488D01*
X175919979Y-90884009D01*
X175919977Y-90884014D01*
X175899500Y-90960435D01*
X175899500Y-92117951D01*
X175877826Y-92170277D01*
X175846665Y-92186171D01*
X175847416Y-92188480D01*
X175841873Y-92190281D01*
X175721780Y-92251471D01*
X175626471Y-92346780D01*
X175565281Y-92466873D01*
X175565280Y-92466874D01*
X175549500Y-92566511D01*
X175549500Y-93133488D01*
X175565280Y-93233125D01*
X175565281Y-93233126D01*
X175626320Y-93352923D01*
X175626472Y-93353220D01*
X175721780Y-93448528D01*
X175841874Y-93509719D01*
X175941511Y-93525500D01*
X175941512Y-93525500D01*
X176458489Y-93525500D01*
X176508307Y-93517609D01*
X176558126Y-93509719D01*
X176678220Y-93448528D01*
X176773528Y-93353220D01*
X176834719Y-93233126D01*
X176850500Y-93133488D01*
X176850500Y-93133451D01*
X177100001Y-93133451D01*
X177115761Y-93232969D01*
X177115762Y-93232971D01*
X177176882Y-93352923D01*
X177272078Y-93448119D01*
X177392030Y-93509237D01*
X177392031Y-93509238D01*
X177491548Y-93524999D01*
X177650000Y-93524999D01*
X177850000Y-93524999D01*
X178008451Y-93524999D01*
X178107969Y-93509238D01*
X178107971Y-93509237D01*
X178227923Y-93448117D01*
X178323119Y-93352921D01*
X178384237Y-93232969D01*
X178384238Y-93232968D01*
X178400000Y-93133451D01*
X178400000Y-92950000D01*
X177850000Y-92950000D01*
X177850000Y-93524999D01*
X177650000Y-93524999D01*
X177650000Y-92950000D01*
X177100001Y-92950000D01*
X177100001Y-93133451D01*
X176850500Y-93133451D01*
X176850500Y-92566548D01*
X177100000Y-92566548D01*
X177100000Y-92750000D01*
X177650000Y-92750000D01*
X177850000Y-92750000D01*
X178399999Y-92750000D01*
X178399999Y-92566548D01*
X178384238Y-92467030D01*
X178384237Y-92467028D01*
X178323117Y-92347076D01*
X178227921Y-92251880D01*
X178107969Y-92190762D01*
X178107968Y-92190761D01*
X178008452Y-92175000D01*
X177850000Y-92175000D01*
X177850000Y-92750000D01*
X177650000Y-92750000D01*
X177650000Y-92175000D01*
X177491548Y-92175000D01*
X177392030Y-92190761D01*
X177392028Y-92190762D01*
X177272076Y-92251882D01*
X177176880Y-92347078D01*
X177115762Y-92467030D01*
X177115761Y-92467031D01*
X177100000Y-92566548D01*
X176850500Y-92566548D01*
X176850500Y-92566512D01*
X176848328Y-92552801D01*
X176834719Y-92466874D01*
X176834718Y-92466873D01*
X176820181Y-92438343D01*
X176773528Y-92346780D01*
X176678220Y-92251472D01*
X176678219Y-92251471D01*
X176558126Y-92190281D01*
X176552584Y-92188480D01*
X176553602Y-92185346D01*
X176514593Y-92161392D01*
X176500500Y-92117951D01*
X176500500Y-91155123D01*
X176522174Y-91102797D01*
X176852797Y-90772174D01*
X176905123Y-90750500D01*
X176994877Y-90750500D01*
X177047203Y-90772174D01*
X178365489Y-92090460D01*
X178434012Y-92130022D01*
X178510438Y-92150500D01*
X179741532Y-92150500D01*
X179793858Y-92172174D01*
X179808599Y-92193227D01*
X179825933Y-92230402D01*
X179825935Y-92230404D01*
X179909596Y-92314065D01*
X180016827Y-92364068D01*
X180065684Y-92370500D01*
X180065686Y-92370500D01*
X180414314Y-92370500D01*
X180414316Y-92370500D01*
X180463173Y-92364068D01*
X180570404Y-92314065D01*
X180654065Y-92230404D01*
X180682933Y-92168495D01*
X180724690Y-92130232D01*
X180781273Y-92132702D01*
X180817067Y-92168496D01*
X180845933Y-92230402D01*
X180845935Y-92230404D01*
X180929596Y-92314065D01*
X181036827Y-92364068D01*
X181085684Y-92370500D01*
X181085686Y-92370500D01*
X181434314Y-92370500D01*
X181434316Y-92370500D01*
X181483173Y-92364068D01*
X181590404Y-92314065D01*
X181674065Y-92230404D01*
X181724068Y-92123173D01*
X181730500Y-92074316D01*
X181730500Y-91835122D01*
X181752173Y-91782797D01*
X182220776Y-91314193D01*
X182273101Y-91292520D01*
X182325427Y-91314194D01*
X182334134Y-91324676D01*
X185993565Y-96662318D01*
X186019926Y-96693572D01*
X186019930Y-96693578D01*
X186055162Y-96727774D01*
X186060573Y-96732841D01*
X186060575Y-96732842D01*
X186060576Y-96732843D01*
X186140391Y-96777489D01*
X186140392Y-96777489D01*
X186140393Y-96777490D01*
X186157813Y-96782605D01*
X186207428Y-96797174D01*
X186207429Y-96797174D01*
X186207432Y-96797175D01*
X186265330Y-96805500D01*
X186265334Y-96805500D01*
X191326001Y-96805500D01*
X191330241Y-96805043D01*
X191369684Y-96800803D01*
X191421195Y-96789597D01*
X191424234Y-96788854D01*
X191431370Y-96787111D01*
X191431371Y-96787110D01*
X191431373Y-96787110D01*
X191512085Y-96744100D01*
X191564889Y-96698345D01*
X191582843Y-96680754D01*
X191627490Y-96600937D01*
X191647175Y-96533898D01*
X191655500Y-96476000D01*
X191655500Y-92929131D01*
X191647360Y-92871866D01*
X191628102Y-92805495D01*
X191619893Y-92782434D01*
X191566309Y-92708319D01*
X191566306Y-92708316D01*
X191566304Y-92708314D01*
X191513807Y-92662233D01*
X191513804Y-92662230D01*
X191513801Y-92662228D01*
X191513800Y-92662227D01*
X191496123Y-92650706D01*
X191464792Y-92630286D01*
X185723330Y-89963750D01*
X185685002Y-89922051D01*
X185680500Y-89896635D01*
X185680500Y-86699664D01*
X185680499Y-86699650D01*
X185677294Y-86670219D01*
X185675686Y-86655444D01*
X185664203Y-86603330D01*
X185661542Y-86592629D01*
X185618102Y-86512148D01*
X185572066Y-86459590D01*
X185554379Y-86441730D01*
X185554375Y-86441728D01*
X185554372Y-86441725D01*
X185474328Y-86397512D01*
X185474322Y-86397509D01*
X185422451Y-86382579D01*
X185407182Y-86378184D01*
X185407178Y-86378183D01*
X185407176Y-86378183D01*
X185349247Y-86370170D01*
X185349240Y-86370169D01*
X185349234Y-86370169D01*
X181882073Y-86388709D01*
X181829632Y-86367315D01*
X181807678Y-86315106D01*
X181817589Y-86277713D01*
X181866392Y-86193186D01*
X181900499Y-86065894D01*
X181900500Y-86065894D01*
X181900500Y-85934106D01*
X181900499Y-85934105D01*
X181887224Y-85884563D01*
X181866392Y-85806814D01*
X181800500Y-85692686D01*
X181722174Y-85614360D01*
X181700500Y-85562034D01*
X181700500Y-85360436D01*
X181700499Y-85360435D01*
X181691594Y-85327203D01*
X181680021Y-85284011D01*
X181640460Y-85215489D01*
X181584511Y-85159540D01*
X181572173Y-85147202D01*
X181550499Y-85094876D01*
X181550499Y-84871862D01*
X181544259Y-84824456D01*
X181544259Y-84824455D01*
X181495747Y-84720421D01*
X181414579Y-84639253D01*
X181310545Y-84590741D01*
X181310543Y-84590740D01*
X181275619Y-84586142D01*
X181263139Y-84584500D01*
X181263137Y-84584500D01*
X180936862Y-84584500D01*
X180889456Y-84590740D01*
X180889447Y-84590743D01*
X180846417Y-84610808D01*
X180830548Y-84611500D01*
X180815938Y-84617737D01*
X180804601Y-84612633D01*
X180789834Y-84613278D01*
X180763383Y-84596625D01*
X180761209Y-84594497D01*
X180753076Y-84585111D01*
X180735485Y-84567157D01*
X180730331Y-84564274D01*
X180723292Y-84557384D01*
X180715745Y-84539704D01*
X180703840Y-84524614D01*
X180705023Y-84514583D01*
X180701058Y-84505293D01*
X180708223Y-84487456D01*
X180710475Y-84468367D01*
X180718404Y-84462110D01*
X180722170Y-84452738D01*
X180739849Y-84445191D01*
X180754940Y-84433286D01*
X180773893Y-84430660D01*
X180774261Y-84430504D01*
X180774456Y-84430582D01*
X180775054Y-84430500D01*
X181354997Y-84430500D01*
X181355000Y-84430500D01*
X181400728Y-84425348D01*
X181483127Y-84385666D01*
X181540149Y-84314163D01*
X181560500Y-84225000D01*
X181560500Y-82530253D01*
X191314500Y-82530253D01*
X191314500Y-84829746D01*
X191326133Y-84888232D01*
X191340827Y-84910222D01*
X191370448Y-84954552D01*
X191402167Y-84975746D01*
X191436767Y-84998866D01*
X191436768Y-84998866D01*
X191436769Y-84998867D01*
X191495252Y-85010500D01*
X191495254Y-85010500D01*
X194304746Y-85010500D01*
X194304748Y-85010500D01*
X194363231Y-84998867D01*
X194429552Y-84954552D01*
X194473867Y-84888231D01*
X194485500Y-84829748D01*
X194485500Y-82530252D01*
X194473867Y-82471769D01*
X194429552Y-82405448D01*
X194401428Y-82386656D01*
X194363232Y-82361133D01*
X194363233Y-82361133D01*
X194333989Y-82355316D01*
X194304748Y-82349500D01*
X191495252Y-82349500D01*
X191466010Y-82355316D01*
X191436767Y-82361133D01*
X191370449Y-82405447D01*
X191370447Y-82405449D01*
X191326133Y-82471767D01*
X191314500Y-82530253D01*
X181560500Y-82530253D01*
X181560500Y-81905000D01*
X181555348Y-81859272D01*
X181547915Y-81843837D01*
X181537828Y-81822890D01*
X181530500Y-81790783D01*
X181530500Y-81393291D01*
X181530501Y-81393266D01*
X181530501Y-81169778D01*
X181525785Y-81140007D01*
X181496015Y-80952049D01*
X181477149Y-80893985D01*
X181427895Y-80742394D01*
X181327815Y-80545978D01*
X181198242Y-80367635D01*
X181042365Y-80211758D01*
X181040515Y-80209908D01*
X181040500Y-80209894D01*
X180270830Y-79440224D01*
X180270826Y-79440219D01*
X180112370Y-79281763D01*
X180112365Y-79281758D01*
X180000522Y-79200500D01*
X179934024Y-79152186D01*
X179737602Y-79052103D01*
X179737603Y-79052103D01*
X179527961Y-78983987D01*
X179527952Y-78983985D01*
X179527951Y-78983985D01*
X179419086Y-78966742D01*
X179310223Y-78949499D01*
X179310222Y-78949499D01*
X179089778Y-78949499D01*
X179086733Y-78949499D01*
X179086709Y-78949500D01*
X170739776Y-78949500D01*
X170522051Y-78983984D01*
X170522038Y-78983987D01*
X170312397Y-79052103D01*
X170115976Y-79152186D01*
X170115975Y-79152186D01*
X169937639Y-79281755D01*
X169937635Y-79281758D01*
X165487638Y-83731755D01*
X165487635Y-83731758D01*
X165331758Y-83887635D01*
X165331755Y-83887638D01*
X165331755Y-83887639D01*
X165202186Y-84065975D01*
X165202186Y-84065976D01*
X165102103Y-84262397D01*
X165033987Y-84472038D01*
X165033985Y-84472049D01*
X164999499Y-84689777D01*
X164500500Y-84689777D01*
X164500500Y-77389776D01*
X166599500Y-77389776D01*
X166599500Y-77610223D01*
X166633984Y-77827948D01*
X166633987Y-77827961D01*
X166702103Y-78037602D01*
X166702104Y-78037605D01*
X166702105Y-78037606D01*
X166802185Y-78234022D01*
X166931758Y-78412365D01*
X167087635Y-78568242D01*
X167265978Y-78697815D01*
X167462394Y-78797895D01*
X167462397Y-78797896D01*
X167462396Y-78797896D01*
X167672038Y-78866012D01*
X167672044Y-78866013D01*
X167672049Y-78866015D01*
X167780913Y-78883257D01*
X167889776Y-78900500D01*
X167889778Y-78900500D01*
X168110224Y-78900500D01*
X168197313Y-78886706D01*
X168327951Y-78866015D01*
X168327958Y-78866012D01*
X168327961Y-78866012D01*
X168423133Y-78835088D01*
X168537606Y-78797895D01*
X168734022Y-78697815D01*
X168841543Y-78619697D01*
X183350000Y-78619697D01*
X183361603Y-78678035D01*
X183405807Y-78744191D01*
X183405808Y-78744192D01*
X183471964Y-78788396D01*
X183530303Y-78800000D01*
X184950000Y-78800000D01*
X185150000Y-78800000D01*
X186569697Y-78800000D01*
X186628035Y-78788396D01*
X186694191Y-78744192D01*
X186694192Y-78744191D01*
X186738396Y-78678035D01*
X186750000Y-78619697D01*
X186750000Y-77900000D01*
X185150000Y-77900000D01*
X185150000Y-78800000D01*
X184950000Y-78800000D01*
X184950000Y-77900000D01*
X183350000Y-77900000D01*
X183350000Y-78619697D01*
X168841543Y-78619697D01*
X168912365Y-78568242D01*
X169068242Y-78412365D01*
X169197815Y-78234022D01*
X169297895Y-78037606D01*
X169339284Y-77910222D01*
X169359995Y-77846481D01*
X169366012Y-77827961D01*
X169366012Y-77827958D01*
X169366015Y-77827951D01*
X169400500Y-77610222D01*
X169400500Y-77389778D01*
X169392580Y-77339776D01*
X169366015Y-77172051D01*
X169366012Y-77172038D01*
X169309963Y-76999534D01*
X169303714Y-76980302D01*
X183350000Y-76980302D01*
X183350000Y-77700000D01*
X184950000Y-77700000D01*
X185150000Y-77700000D01*
X186750000Y-77700000D01*
X186750000Y-76980302D01*
X186749990Y-76980252D01*
X187749500Y-76980252D01*
X187749500Y-78619748D01*
X187755083Y-78647815D01*
X187761133Y-78678232D01*
X187783941Y-78712365D01*
X187805448Y-78744552D01*
X187810453Y-78747896D01*
X187871767Y-78788866D01*
X187871768Y-78788866D01*
X187871769Y-78788867D01*
X187930252Y-78800500D01*
X188439241Y-78800500D01*
X188491567Y-78822174D01*
X188537635Y-78868242D01*
X188649478Y-78949500D01*
X188696942Y-78983985D01*
X188715978Y-78997815D01*
X188912394Y-79097895D01*
X188912397Y-79097896D01*
X188912396Y-79097896D01*
X189122038Y-79166012D01*
X189122044Y-79166013D01*
X189122049Y-79166015D01*
X189230913Y-79183257D01*
X189339776Y-79200500D01*
X189339778Y-79200500D01*
X192750224Y-79200500D01*
X192837313Y-79186706D01*
X192967951Y-79166015D01*
X192967958Y-79166012D01*
X192967961Y-79166012D01*
X193063133Y-79135088D01*
X193177606Y-79097895D01*
X193374022Y-78997815D01*
X193552365Y-78868242D01*
X193708242Y-78712365D01*
X193837815Y-78534022D01*
X193937895Y-78337606D01*
X194006015Y-78127951D01*
X194040500Y-77910222D01*
X194040500Y-77689778D01*
X194006015Y-77472049D01*
X194006013Y-77472044D01*
X194006012Y-77472038D01*
X193969524Y-77359738D01*
X193963038Y-77339776D01*
X196899500Y-77339776D01*
X196899500Y-77560223D01*
X196933984Y-77777948D01*
X196933987Y-77777961D01*
X197002103Y-77987602D01*
X197002104Y-77987605D01*
X197002105Y-77987606D01*
X197073620Y-78127961D01*
X197102186Y-78184023D01*
X197102186Y-78184024D01*
X197138513Y-78234024D01*
X197231758Y-78362365D01*
X197387635Y-78518242D01*
X197565978Y-78647815D01*
X197762394Y-78747895D01*
X197762397Y-78747896D01*
X197762396Y-78747896D01*
X197972038Y-78816012D01*
X197972044Y-78816013D01*
X197972049Y-78816015D01*
X198080913Y-78833257D01*
X198189776Y-78850500D01*
X198189778Y-78850500D01*
X198410224Y-78850500D01*
X198497313Y-78836706D01*
X198627951Y-78816015D01*
X198627958Y-78816012D01*
X198627961Y-78816012D01*
X198723133Y-78785088D01*
X198837606Y-78747895D01*
X199034022Y-78647815D01*
X199212365Y-78518242D01*
X199368242Y-78362365D01*
X199497815Y-78184022D01*
X199597895Y-77987606D01*
X199666015Y-77777951D01*
X199700500Y-77560222D01*
X199700500Y-77339778D01*
X199666015Y-77122049D01*
X199666013Y-77122044D01*
X199666012Y-77122038D01*
X199597896Y-76912397D01*
X199597895Y-76912396D01*
X199597895Y-76912394D01*
X199497815Y-76715978D01*
X199368242Y-76537635D01*
X199212365Y-76381758D01*
X199102842Y-76302185D01*
X199034024Y-76252186D01*
X198837602Y-76152103D01*
X198837603Y-76152103D01*
X198627961Y-76083987D01*
X198627948Y-76083984D01*
X198410224Y-76049500D01*
X198410222Y-76049500D01*
X198189778Y-76049500D01*
X198189776Y-76049500D01*
X197972051Y-76083984D01*
X197972038Y-76083987D01*
X197762397Y-76152103D01*
X197565976Y-76252186D01*
X197565975Y-76252186D01*
X197387639Y-76381755D01*
X197387635Y-76381758D01*
X197231758Y-76537635D01*
X197231755Y-76537638D01*
X197231755Y-76537639D01*
X197102186Y-76715975D01*
X197102186Y-76715976D01*
X197002103Y-76912397D01*
X196933987Y-77122038D01*
X196933984Y-77122051D01*
X196899500Y-77339776D01*
X193963038Y-77339776D01*
X193937896Y-77262397D01*
X193937895Y-77262396D01*
X193937895Y-77262394D01*
X193837815Y-77065978D01*
X193708242Y-76887635D01*
X193552365Y-76731758D01*
X193448441Y-76656253D01*
X193374024Y-76602186D01*
X193177602Y-76502103D01*
X193177603Y-76502103D01*
X192967961Y-76433987D01*
X192967948Y-76433984D01*
X192750224Y-76399500D01*
X192750222Y-76399500D01*
X189339778Y-76399500D01*
X189339776Y-76399500D01*
X189122051Y-76433984D01*
X189122038Y-76433987D01*
X188912397Y-76502103D01*
X188715976Y-76602186D01*
X188715975Y-76602186D01*
X188559357Y-76715976D01*
X188537635Y-76731758D01*
X188537630Y-76731763D01*
X188491567Y-76777826D01*
X188439241Y-76799500D01*
X187930252Y-76799500D01*
X187901010Y-76805316D01*
X187871767Y-76811133D01*
X187805449Y-76855447D01*
X187805447Y-76855449D01*
X187761133Y-76921767D01*
X187761133Y-76921769D01*
X187749500Y-76980252D01*
X186749990Y-76980252D01*
X186738396Y-76921964D01*
X186694192Y-76855808D01*
X186694191Y-76855807D01*
X186628035Y-76811603D01*
X186569697Y-76800000D01*
X185150000Y-76800000D01*
X185150000Y-77700000D01*
X184950000Y-77700000D01*
X184950000Y-76800000D01*
X183530303Y-76800000D01*
X183471964Y-76811603D01*
X183405808Y-76855807D01*
X183405807Y-76855808D01*
X183361603Y-76921964D01*
X183350000Y-76980302D01*
X169303714Y-76980302D01*
X169297896Y-76962397D01*
X169297895Y-76962396D01*
X169297895Y-76962394D01*
X169197815Y-76765978D01*
X169068242Y-76587635D01*
X168912365Y-76431758D01*
X168808441Y-76356253D01*
X168734024Y-76302186D01*
X168635894Y-76252186D01*
X168537606Y-76202105D01*
X168537605Y-76202104D01*
X168537602Y-76202103D01*
X168537603Y-76202103D01*
X168327961Y-76133987D01*
X168327948Y-76133984D01*
X168110224Y-76099500D01*
X168110222Y-76099500D01*
X167889778Y-76099500D01*
X167889776Y-76099500D01*
X167672051Y-76133984D01*
X167672038Y-76133987D01*
X167462397Y-76202103D01*
X167265976Y-76302186D01*
X167265975Y-76302186D01*
X167109010Y-76416228D01*
X167087635Y-76431758D01*
X166931758Y-76587635D01*
X166931755Y-76587638D01*
X166931755Y-76587639D01*
X166802186Y-76765975D01*
X166802186Y-76765976D01*
X166702103Y-76962397D01*
X166633987Y-77172038D01*
X166633984Y-77172051D01*
X166599500Y-77389776D01*
X164500500Y-77389776D01*
X164500500Y-77012236D01*
X164500635Y-77007768D01*
X164503379Y-76962397D01*
X164518454Y-76713176D01*
X164519528Y-76704328D01*
X164572328Y-76416211D01*
X164574458Y-76407568D01*
X164661597Y-76127931D01*
X164664754Y-76119604D01*
X164784971Y-75852493D01*
X164789115Y-75844599D01*
X164940636Y-75593952D01*
X164945712Y-75586599D01*
X165126343Y-75356039D01*
X165132254Y-75349367D01*
X165339367Y-75142254D01*
X165346039Y-75136343D01*
X165576599Y-74955711D01*
X165583953Y-74950636D01*
X165630926Y-74922240D01*
X165834599Y-74799115D01*
X165842493Y-74794971D01*
X166109604Y-74674754D01*
X166117931Y-74671597D01*
X166397568Y-74584458D01*
X166406211Y-74582328D01*
X166694328Y-74529528D01*
X166703176Y-74528454D01*
X166997768Y-74510634D01*
X167002236Y-74510500D01*
X167065892Y-74510500D01*
X199284108Y-74510500D01*
X199347764Y-74510500D01*
X199352231Y-74510634D01*
G37*
%TD.AperFunction*%
%TD*%
%TA.AperFunction,Conductor*%
%TO.N,Net-(IC2-SW)*%
G36*
X180597770Y-84719685D02*
G01*
X180643525Y-84772489D01*
X180653670Y-84840185D01*
X180649500Y-84871860D01*
X180649500Y-85328132D01*
X180649501Y-85328138D01*
X180655741Y-85375545D01*
X180655742Y-85375547D01*
X180655742Y-85375548D01*
X180704253Y-85479579D01*
X180763681Y-85539007D01*
X180797166Y-85600330D01*
X180800000Y-85626688D01*
X180800000Y-86599999D01*
X180800000Y-86600000D01*
X185350339Y-86575666D01*
X185417481Y-86594992D01*
X185463517Y-86647550D01*
X185475000Y-86699664D01*
X185475000Y-90075000D01*
X191378233Y-92816668D01*
X191430742Y-92862760D01*
X191450000Y-92929131D01*
X191450000Y-96476000D01*
X191430315Y-96543039D01*
X191377511Y-96588794D01*
X191326000Y-96600000D01*
X186265330Y-96600000D01*
X186198291Y-96580315D01*
X186163058Y-96546117D01*
X182296908Y-90906955D01*
X182275235Y-90840531D01*
X182275181Y-90836258D01*
X182290000Y-87670000D01*
X179623111Y-87650882D01*
X179614871Y-87648398D01*
X179606353Y-87649623D01*
X179581925Y-87638467D01*
X179556214Y-87630717D01*
X179550625Y-87624173D01*
X179542797Y-87620598D01*
X179528279Y-87598008D01*
X179510839Y-87577587D01*
X179508687Y-87567521D01*
X179505023Y-87561820D01*
X179500000Y-87526885D01*
X179500000Y-87321590D01*
X179500265Y-87313481D01*
X179500497Y-87309921D01*
X179500500Y-87309901D01*
X179500499Y-86890100D01*
X179500499Y-86890098D01*
X179500266Y-86886545D01*
X179500000Y-86878432D01*
X179500000Y-84824000D01*
X179519685Y-84756961D01*
X179572489Y-84711206D01*
X179624000Y-84700000D01*
X180530731Y-84700000D01*
X180597770Y-84719685D01*
G37*
%TD.AperFunction*%
%TD*%
M02*
