%TF.GenerationSoftware,KiCad,Pcbnew,9.0.0*%
%TF.CreationDate,2025-04-24T08:54:44+02:00*%
%TF.ProjectId,pwrv3,70777276-332e-46b6-9963-61645f706362,rev?*%
%TF.SameCoordinates,Original*%
%TF.FileFunction,Drillmap*%
%TF.FilePolarity,Positive*%
%FSLAX45Y45*%
G04 Gerber Fmt 4.5, Leading zero omitted, Abs format (unit mm)*
G04 Created by KiCad (PCBNEW 9.0.0) date 2025-04-24 08:54:44*
%MOMM*%
%LPD*%
G01*
G04 APERTURE LIST*
%ADD10C,0.050000*%
%ADD11C,0.200000*%
%ADD12C,0.100000*%
%ADD13C,0.150000*%
G04 APERTURE END LIST*
D10*
X20235000Y-10850000D02*
G75*
G02*
X19935000Y-11150000I-300000J0D01*
G01*
X20235000Y-7701000D02*
X20235000Y-10850000D01*
X16700000Y-11150000D02*
G75*
G02*
X16400000Y-10850000I0J300000D01*
G01*
X16400000Y-7701000D02*
G75*
G02*
X16700000Y-7401000I300000J0D01*
G01*
X16400000Y-10850000D02*
X16400000Y-7701000D01*
X19935000Y-11150000D02*
X16700000Y-11150000D01*
X16700000Y-7401000D02*
X19935000Y-7401000D01*
X19935000Y-7401000D02*
G75*
G02*
X20235000Y-7701000I0J-300000D01*
G01*
D11*
D12*
X17345000Y-8999000D02*
X17365000Y-9019000D01*
X17365000Y-8999000D02*
X17345000Y-9019000D01*
X17936000Y-9071000D02*
X17956000Y-9091000D01*
X17956000Y-9071000D02*
X17936000Y-9091000D01*
X17005000Y-10065000D02*
G75*
G02*
X16975000Y-10065000I-15000J0D01*
G01*
X16975000Y-10065000D02*
G75*
G02*
X17005000Y-10065000I15000J0D01*
G01*
X17035000Y-8945000D02*
G75*
G02*
X17005000Y-8945000I-15000J0D01*
G01*
X17005000Y-8945000D02*
G75*
G02*
X17035000Y-8945000I15000J0D01*
G01*
X17126000Y-10872000D02*
G75*
G02*
X17096000Y-10872000I-15000J0D01*
G01*
X17096000Y-10872000D02*
G75*
G02*
X17126000Y-10872000I15000J0D01*
G01*
X17128000Y-8488000D02*
G75*
G02*
X17098000Y-8488000I-15000J0D01*
G01*
X17098000Y-8488000D02*
G75*
G02*
X17128000Y-8488000I15000J0D01*
G01*
X17200000Y-8865000D02*
G75*
G02*
X17170000Y-8865000I-15000J0D01*
G01*
X17170000Y-8865000D02*
G75*
G02*
X17200000Y-8865000I15000J0D01*
G01*
X17500000Y-9245000D02*
G75*
G02*
X17470000Y-9245000I-15000J0D01*
G01*
X17470000Y-9245000D02*
G75*
G02*
X17500000Y-9245000I15000J0D01*
G01*
X17566000Y-7699000D02*
G75*
G02*
X17536000Y-7699000I-15000J0D01*
G01*
X17536000Y-7699000D02*
G75*
G02*
X17566000Y-7699000I15000J0D01*
G01*
X17690000Y-9480000D02*
G75*
G02*
X17660000Y-9480000I-15000J0D01*
G01*
X17660000Y-9480000D02*
G75*
G02*
X17690000Y-9480000I15000J0D01*
G01*
X17811000Y-8266000D02*
G75*
G02*
X17781000Y-8266000I-15000J0D01*
G01*
X17781000Y-8266000D02*
G75*
G02*
X17811000Y-8266000I15000J0D01*
G01*
X17896600Y-8629253D02*
G75*
G02*
X17866600Y-8629253I-15000J0D01*
G01*
X17866600Y-8629253D02*
G75*
G02*
X17896600Y-8629253I15000J0D01*
G01*
X17932427Y-8942574D02*
G75*
G02*
X17902427Y-8942574I-15000J0D01*
G01*
X17902427Y-8942574D02*
G75*
G02*
X17932427Y-8942574I15000J0D01*
G01*
X18110000Y-9311000D02*
G75*
G02*
X18080000Y-9311000I-15000J0D01*
G01*
X18080000Y-9311000D02*
G75*
G02*
X18110000Y-9311000I15000J0D01*
G01*
X18155000Y-8600000D02*
G75*
G02*
X18125000Y-8600000I-15000J0D01*
G01*
X18125000Y-8600000D02*
G75*
G02*
X18155000Y-8600000I15000J0D01*
G01*
X18215000Y-9450000D02*
G75*
G02*
X18185000Y-9450000I-15000J0D01*
G01*
X18185000Y-9450000D02*
G75*
G02*
X18215000Y-9450000I15000J0D01*
G01*
X18220000Y-10340000D02*
G75*
G02*
X18190000Y-10340000I-15000J0D01*
G01*
X18190000Y-10340000D02*
G75*
G02*
X18220000Y-10340000I15000J0D01*
G01*
X19612000Y-8029000D02*
G75*
G02*
X19582000Y-8029000I-15000J0D01*
G01*
X19582000Y-8029000D02*
G75*
G02*
X19612000Y-8029000I15000J0D01*
G01*
X19732000Y-10394000D02*
G75*
G02*
X19702000Y-10394000I-15000J0D01*
G01*
X19702000Y-10394000D02*
G75*
G02*
X19732000Y-10394000I15000J0D01*
G01*
X19264000Y-7760000D02*
X19264000Y-7800000D01*
X19244000Y-7780000D02*
X19284000Y-7780000D01*
X19705500Y-9675500D02*
X19705500Y-9715500D01*
X19685500Y-9695500D02*
X19725500Y-9695500D01*
X17438356Y-10925356D02*
X17438356Y-10854644D01*
X17367644Y-10854644D01*
X17367644Y-10925356D01*
X17438356Y-10925356D01*
X17692356Y-10925356D02*
X17692356Y-10854644D01*
X17621644Y-10854644D01*
X17621644Y-10925356D01*
X17692356Y-10925356D01*
X17946356Y-10925356D02*
X17946356Y-10854644D01*
X17875644Y-10854644D01*
X17875644Y-10925356D01*
X17946356Y-10925356D01*
X18200356Y-10925356D02*
X18200356Y-10854644D01*
X18129644Y-10854644D01*
X18129644Y-10925356D01*
X18200356Y-10925356D01*
D13*
X16649000Y-9699500D02*
X16724000Y-9624500D01*
X16649000Y-9549500D01*
X16574000Y-9624500D01*
X16649000Y-9699500D01*
X16649000Y-10199500D02*
X16724000Y-10124500D01*
X16649000Y-10049500D01*
X16574000Y-10124500D01*
X16649000Y-10199500D01*
X19407500Y-9975000D02*
X19482500Y-9900000D01*
X19407500Y-9825000D01*
X19332500Y-9900000D01*
X19407500Y-9975000D01*
X19907500Y-9975000D02*
X19982500Y-9900000D01*
X19907500Y-9825000D01*
X19832500Y-9900000D01*
X19907500Y-9975000D01*
D11*
X16658277Y-11463984D02*
X16658277Y-11263984D01*
X16658277Y-11263984D02*
X16705896Y-11263984D01*
X16705896Y-11263984D02*
X16734467Y-11273508D01*
X16734467Y-11273508D02*
X16753515Y-11292555D01*
X16753515Y-11292555D02*
X16763039Y-11311603D01*
X16763039Y-11311603D02*
X16772562Y-11349698D01*
X16772562Y-11349698D02*
X16772562Y-11378269D01*
X16772562Y-11378269D02*
X16763039Y-11416365D01*
X16763039Y-11416365D02*
X16753515Y-11435412D01*
X16753515Y-11435412D02*
X16734467Y-11454460D01*
X16734467Y-11454460D02*
X16705896Y-11463984D01*
X16705896Y-11463984D02*
X16658277Y-11463984D01*
X16858277Y-11463984D02*
X16858277Y-11330650D01*
X16858277Y-11368746D02*
X16867801Y-11349698D01*
X16867801Y-11349698D02*
X16877324Y-11340174D01*
X16877324Y-11340174D02*
X16896372Y-11330650D01*
X16896372Y-11330650D02*
X16915420Y-11330650D01*
X16982086Y-11463984D02*
X16982086Y-11330650D01*
X16982086Y-11263984D02*
X16972563Y-11273508D01*
X16972563Y-11273508D02*
X16982086Y-11283031D01*
X16982086Y-11283031D02*
X16991610Y-11273508D01*
X16991610Y-11273508D02*
X16982086Y-11263984D01*
X16982086Y-11263984D02*
X16982086Y-11283031D01*
X17105896Y-11463984D02*
X17086848Y-11454460D01*
X17086848Y-11454460D02*
X17077324Y-11435412D01*
X17077324Y-11435412D02*
X17077324Y-11263984D01*
X17210658Y-11463984D02*
X17191610Y-11454460D01*
X17191610Y-11454460D02*
X17182086Y-11435412D01*
X17182086Y-11435412D02*
X17182086Y-11263984D01*
X17439229Y-11463984D02*
X17439229Y-11263984D01*
X17439229Y-11263984D02*
X17505896Y-11406841D01*
X17505896Y-11406841D02*
X17572563Y-11263984D01*
X17572563Y-11263984D02*
X17572563Y-11463984D01*
X17753515Y-11463984D02*
X17753515Y-11359222D01*
X17753515Y-11359222D02*
X17743991Y-11340174D01*
X17743991Y-11340174D02*
X17724944Y-11330650D01*
X17724944Y-11330650D02*
X17686848Y-11330650D01*
X17686848Y-11330650D02*
X17667801Y-11340174D01*
X17753515Y-11454460D02*
X17734467Y-11463984D01*
X17734467Y-11463984D02*
X17686848Y-11463984D01*
X17686848Y-11463984D02*
X17667801Y-11454460D01*
X17667801Y-11454460D02*
X17658277Y-11435412D01*
X17658277Y-11435412D02*
X17658277Y-11416365D01*
X17658277Y-11416365D02*
X17667801Y-11397317D01*
X17667801Y-11397317D02*
X17686848Y-11387793D01*
X17686848Y-11387793D02*
X17734467Y-11387793D01*
X17734467Y-11387793D02*
X17753515Y-11378269D01*
X17848753Y-11330650D02*
X17848753Y-11530650D01*
X17848753Y-11340174D02*
X17867801Y-11330650D01*
X17867801Y-11330650D02*
X17905896Y-11330650D01*
X17905896Y-11330650D02*
X17924944Y-11340174D01*
X17924944Y-11340174D02*
X17934467Y-11349698D01*
X17934467Y-11349698D02*
X17943991Y-11368746D01*
X17943991Y-11368746D02*
X17943991Y-11425888D01*
X17943991Y-11425888D02*
X17934467Y-11444936D01*
X17934467Y-11444936D02*
X17924944Y-11454460D01*
X17924944Y-11454460D02*
X17905896Y-11463984D01*
X17905896Y-11463984D02*
X17867801Y-11463984D01*
X17867801Y-11463984D02*
X17848753Y-11454460D01*
X18029705Y-11444936D02*
X18039229Y-11454460D01*
X18039229Y-11454460D02*
X18029705Y-11463984D01*
X18029705Y-11463984D02*
X18020182Y-11454460D01*
X18020182Y-11454460D02*
X18029705Y-11444936D01*
X18029705Y-11444936D02*
X18029705Y-11463984D01*
X18029705Y-11340174D02*
X18039229Y-11349698D01*
X18039229Y-11349698D02*
X18029705Y-11359222D01*
X18029705Y-11359222D02*
X18020182Y-11349698D01*
X18020182Y-11349698D02*
X18029705Y-11340174D01*
X18029705Y-11340174D02*
X18029705Y-11359222D01*
D12*
X16377500Y-11782500D02*
X16397500Y-11802500D01*
X16397500Y-11782500D02*
X16377500Y-11802500D01*
D11*
X16696372Y-11683984D02*
X16715420Y-11683984D01*
X16715420Y-11683984D02*
X16734467Y-11693508D01*
X16734467Y-11693508D02*
X16743991Y-11703031D01*
X16743991Y-11703031D02*
X16753515Y-11722079D01*
X16753515Y-11722079D02*
X16763039Y-11760174D01*
X16763039Y-11760174D02*
X16763039Y-11807793D01*
X16763039Y-11807793D02*
X16753515Y-11845888D01*
X16753515Y-11845888D02*
X16743991Y-11864936D01*
X16743991Y-11864936D02*
X16734467Y-11874460D01*
X16734467Y-11874460D02*
X16715420Y-11883984D01*
X16715420Y-11883984D02*
X16696372Y-11883984D01*
X16696372Y-11883984D02*
X16677324Y-11874460D01*
X16677324Y-11874460D02*
X16667801Y-11864936D01*
X16667801Y-11864936D02*
X16658277Y-11845888D01*
X16658277Y-11845888D02*
X16648753Y-11807793D01*
X16648753Y-11807793D02*
X16648753Y-11760174D01*
X16648753Y-11760174D02*
X16658277Y-11722079D01*
X16658277Y-11722079D02*
X16667801Y-11703031D01*
X16667801Y-11703031D02*
X16677324Y-11693508D01*
X16677324Y-11693508D02*
X16696372Y-11683984D01*
X16848753Y-11864936D02*
X16858277Y-11874460D01*
X16858277Y-11874460D02*
X16848753Y-11883984D01*
X16848753Y-11883984D02*
X16839229Y-11874460D01*
X16839229Y-11874460D02*
X16848753Y-11864936D01*
X16848753Y-11864936D02*
X16848753Y-11883984D01*
X16934467Y-11703031D02*
X16943991Y-11693508D01*
X16943991Y-11693508D02*
X16963039Y-11683984D01*
X16963039Y-11683984D02*
X17010658Y-11683984D01*
X17010658Y-11683984D02*
X17029705Y-11693508D01*
X17029705Y-11693508D02*
X17039229Y-11703031D01*
X17039229Y-11703031D02*
X17048753Y-11722079D01*
X17048753Y-11722079D02*
X17048753Y-11741127D01*
X17048753Y-11741127D02*
X17039229Y-11769698D01*
X17039229Y-11769698D02*
X16924944Y-11883984D01*
X16924944Y-11883984D02*
X17048753Y-11883984D01*
X17172563Y-11683984D02*
X17191610Y-11683984D01*
X17191610Y-11683984D02*
X17210658Y-11693508D01*
X17210658Y-11693508D02*
X17220182Y-11703031D01*
X17220182Y-11703031D02*
X17229705Y-11722079D01*
X17229705Y-11722079D02*
X17239229Y-11760174D01*
X17239229Y-11760174D02*
X17239229Y-11807793D01*
X17239229Y-11807793D02*
X17229705Y-11845888D01*
X17229705Y-11845888D02*
X17220182Y-11864936D01*
X17220182Y-11864936D02*
X17210658Y-11874460D01*
X17210658Y-11874460D02*
X17191610Y-11883984D01*
X17191610Y-11883984D02*
X17172563Y-11883984D01*
X17172563Y-11883984D02*
X17153515Y-11874460D01*
X17153515Y-11874460D02*
X17143991Y-11864936D01*
X17143991Y-11864936D02*
X17134467Y-11845888D01*
X17134467Y-11845888D02*
X17124944Y-11807793D01*
X17124944Y-11807793D02*
X17124944Y-11760174D01*
X17124944Y-11760174D02*
X17134467Y-11722079D01*
X17134467Y-11722079D02*
X17143991Y-11703031D01*
X17143991Y-11703031D02*
X17153515Y-11693508D01*
X17153515Y-11693508D02*
X17172563Y-11683984D01*
X17363039Y-11683984D02*
X17382086Y-11683984D01*
X17382086Y-11683984D02*
X17401134Y-11693508D01*
X17401134Y-11693508D02*
X17410658Y-11703031D01*
X17410658Y-11703031D02*
X17420182Y-11722079D01*
X17420182Y-11722079D02*
X17429705Y-11760174D01*
X17429705Y-11760174D02*
X17429705Y-11807793D01*
X17429705Y-11807793D02*
X17420182Y-11845888D01*
X17420182Y-11845888D02*
X17410658Y-11864936D01*
X17410658Y-11864936D02*
X17401134Y-11874460D01*
X17401134Y-11874460D02*
X17382086Y-11883984D01*
X17382086Y-11883984D02*
X17363039Y-11883984D01*
X17363039Y-11883984D02*
X17343991Y-11874460D01*
X17343991Y-11874460D02*
X17334467Y-11864936D01*
X17334467Y-11864936D02*
X17324944Y-11845888D01*
X17324944Y-11845888D02*
X17315420Y-11807793D01*
X17315420Y-11807793D02*
X17315420Y-11760174D01*
X17315420Y-11760174D02*
X17324944Y-11722079D01*
X17324944Y-11722079D02*
X17334467Y-11703031D01*
X17334467Y-11703031D02*
X17343991Y-11693508D01*
X17343991Y-11693508D02*
X17363039Y-11683984D01*
X17515420Y-11883984D02*
X17515420Y-11750650D01*
X17515420Y-11769698D02*
X17524944Y-11760174D01*
X17524944Y-11760174D02*
X17543991Y-11750650D01*
X17543991Y-11750650D02*
X17572563Y-11750650D01*
X17572563Y-11750650D02*
X17591610Y-11760174D01*
X17591610Y-11760174D02*
X17601134Y-11779222D01*
X17601134Y-11779222D02*
X17601134Y-11883984D01*
X17601134Y-11779222D02*
X17610658Y-11760174D01*
X17610658Y-11760174D02*
X17629705Y-11750650D01*
X17629705Y-11750650D02*
X17658277Y-11750650D01*
X17658277Y-11750650D02*
X17677325Y-11760174D01*
X17677325Y-11760174D02*
X17686848Y-11779222D01*
X17686848Y-11779222D02*
X17686848Y-11883984D01*
X17782086Y-11883984D02*
X17782086Y-11750650D01*
X17782086Y-11769698D02*
X17791610Y-11760174D01*
X17791610Y-11760174D02*
X17810658Y-11750650D01*
X17810658Y-11750650D02*
X17839229Y-11750650D01*
X17839229Y-11750650D02*
X17858277Y-11760174D01*
X17858277Y-11760174D02*
X17867801Y-11779222D01*
X17867801Y-11779222D02*
X17867801Y-11883984D01*
X17867801Y-11779222D02*
X17877325Y-11760174D01*
X17877325Y-11760174D02*
X17896372Y-11750650D01*
X17896372Y-11750650D02*
X17924944Y-11750650D01*
X17924944Y-11750650D02*
X17943991Y-11760174D01*
X17943991Y-11760174D02*
X17953515Y-11779222D01*
X17953515Y-11779222D02*
X17953515Y-11883984D01*
X18343991Y-11674460D02*
X18172563Y-11931603D01*
X18601134Y-11683984D02*
X18620182Y-11683984D01*
X18620182Y-11683984D02*
X18639229Y-11693508D01*
X18639229Y-11693508D02*
X18648753Y-11703031D01*
X18648753Y-11703031D02*
X18658277Y-11722079D01*
X18658277Y-11722079D02*
X18667801Y-11760174D01*
X18667801Y-11760174D02*
X18667801Y-11807793D01*
X18667801Y-11807793D02*
X18658277Y-11845888D01*
X18658277Y-11845888D02*
X18648753Y-11864936D01*
X18648753Y-11864936D02*
X18639229Y-11874460D01*
X18639229Y-11874460D02*
X18620182Y-11883984D01*
X18620182Y-11883984D02*
X18601134Y-11883984D01*
X18601134Y-11883984D02*
X18582087Y-11874460D01*
X18582087Y-11874460D02*
X18572563Y-11864936D01*
X18572563Y-11864936D02*
X18563039Y-11845888D01*
X18563039Y-11845888D02*
X18553515Y-11807793D01*
X18553515Y-11807793D02*
X18553515Y-11760174D01*
X18553515Y-11760174D02*
X18563039Y-11722079D01*
X18563039Y-11722079D02*
X18572563Y-11703031D01*
X18572563Y-11703031D02*
X18582087Y-11693508D01*
X18582087Y-11693508D02*
X18601134Y-11683984D01*
X18753515Y-11864936D02*
X18763039Y-11874460D01*
X18763039Y-11874460D02*
X18753515Y-11883984D01*
X18753515Y-11883984D02*
X18743991Y-11874460D01*
X18743991Y-11874460D02*
X18753515Y-11864936D01*
X18753515Y-11864936D02*
X18753515Y-11883984D01*
X18886848Y-11683984D02*
X18905896Y-11683984D01*
X18905896Y-11683984D02*
X18924944Y-11693508D01*
X18924944Y-11693508D02*
X18934468Y-11703031D01*
X18934468Y-11703031D02*
X18943991Y-11722079D01*
X18943991Y-11722079D02*
X18953515Y-11760174D01*
X18953515Y-11760174D02*
X18953515Y-11807793D01*
X18953515Y-11807793D02*
X18943991Y-11845888D01*
X18943991Y-11845888D02*
X18934468Y-11864936D01*
X18934468Y-11864936D02*
X18924944Y-11874460D01*
X18924944Y-11874460D02*
X18905896Y-11883984D01*
X18905896Y-11883984D02*
X18886848Y-11883984D01*
X18886848Y-11883984D02*
X18867801Y-11874460D01*
X18867801Y-11874460D02*
X18858277Y-11864936D01*
X18858277Y-11864936D02*
X18848753Y-11845888D01*
X18848753Y-11845888D02*
X18839229Y-11807793D01*
X18839229Y-11807793D02*
X18839229Y-11760174D01*
X18839229Y-11760174D02*
X18848753Y-11722079D01*
X18848753Y-11722079D02*
X18858277Y-11703031D01*
X18858277Y-11703031D02*
X18867801Y-11693508D01*
X18867801Y-11693508D02*
X18886848Y-11683984D01*
X19077325Y-11683984D02*
X19096372Y-11683984D01*
X19096372Y-11683984D02*
X19115420Y-11693508D01*
X19115420Y-11693508D02*
X19124944Y-11703031D01*
X19124944Y-11703031D02*
X19134468Y-11722079D01*
X19134468Y-11722079D02*
X19143991Y-11760174D01*
X19143991Y-11760174D02*
X19143991Y-11807793D01*
X19143991Y-11807793D02*
X19134468Y-11845888D01*
X19134468Y-11845888D02*
X19124944Y-11864936D01*
X19124944Y-11864936D02*
X19115420Y-11874460D01*
X19115420Y-11874460D02*
X19096372Y-11883984D01*
X19096372Y-11883984D02*
X19077325Y-11883984D01*
X19077325Y-11883984D02*
X19058277Y-11874460D01*
X19058277Y-11874460D02*
X19048753Y-11864936D01*
X19048753Y-11864936D02*
X19039229Y-11845888D01*
X19039229Y-11845888D02*
X19029706Y-11807793D01*
X19029706Y-11807793D02*
X19029706Y-11760174D01*
X19029706Y-11760174D02*
X19039229Y-11722079D01*
X19039229Y-11722079D02*
X19048753Y-11703031D01*
X19048753Y-11703031D02*
X19058277Y-11693508D01*
X19058277Y-11693508D02*
X19077325Y-11683984D01*
X19210658Y-11683984D02*
X19343991Y-11683984D01*
X19343991Y-11683984D02*
X19258277Y-11883984D01*
X19429706Y-11883984D02*
X19467801Y-11883984D01*
X19467801Y-11883984D02*
X19486849Y-11874460D01*
X19486849Y-11874460D02*
X19496372Y-11864936D01*
X19496372Y-11864936D02*
X19515420Y-11836365D01*
X19515420Y-11836365D02*
X19524944Y-11798269D01*
X19524944Y-11798269D02*
X19524944Y-11722079D01*
X19524944Y-11722079D02*
X19515420Y-11703031D01*
X19515420Y-11703031D02*
X19505896Y-11693508D01*
X19505896Y-11693508D02*
X19486849Y-11683984D01*
X19486849Y-11683984D02*
X19448753Y-11683984D01*
X19448753Y-11683984D02*
X19429706Y-11693508D01*
X19429706Y-11693508D02*
X19420182Y-11703031D01*
X19420182Y-11703031D02*
X19410658Y-11722079D01*
X19410658Y-11722079D02*
X19410658Y-11769698D01*
X19410658Y-11769698D02*
X19420182Y-11788746D01*
X19420182Y-11788746D02*
X19429706Y-11798269D01*
X19429706Y-11798269D02*
X19448753Y-11807793D01*
X19448753Y-11807793D02*
X19486849Y-11807793D01*
X19486849Y-11807793D02*
X19505896Y-11798269D01*
X19505896Y-11798269D02*
X19515420Y-11788746D01*
X19515420Y-11788746D02*
X19524944Y-11769698D01*
X19601134Y-11683984D02*
X19601134Y-11722079D01*
X19677325Y-11683984D02*
X19677325Y-11722079D01*
X19972563Y-11960174D02*
X19963039Y-11950650D01*
X19963039Y-11950650D02*
X19943991Y-11922079D01*
X19943991Y-11922079D02*
X19934468Y-11903031D01*
X19934468Y-11903031D02*
X19924944Y-11874460D01*
X19924944Y-11874460D02*
X19915420Y-11826841D01*
X19915420Y-11826841D02*
X19915420Y-11788746D01*
X19915420Y-11788746D02*
X19924944Y-11741127D01*
X19924944Y-11741127D02*
X19934468Y-11712555D01*
X19934468Y-11712555D02*
X19943991Y-11693508D01*
X19943991Y-11693508D02*
X19963039Y-11664936D01*
X19963039Y-11664936D02*
X19972563Y-11655412D01*
X20039230Y-11703031D02*
X20048753Y-11693508D01*
X20048753Y-11693508D02*
X20067801Y-11683984D01*
X20067801Y-11683984D02*
X20115420Y-11683984D01*
X20115420Y-11683984D02*
X20134468Y-11693508D01*
X20134468Y-11693508D02*
X20143991Y-11703031D01*
X20143991Y-11703031D02*
X20153515Y-11722079D01*
X20153515Y-11722079D02*
X20153515Y-11741127D01*
X20153515Y-11741127D02*
X20143991Y-11769698D01*
X20143991Y-11769698D02*
X20029706Y-11883984D01*
X20029706Y-11883984D02*
X20153515Y-11883984D01*
X20391611Y-11883984D02*
X20391611Y-11683984D01*
X20477325Y-11883984D02*
X20477325Y-11779222D01*
X20477325Y-11779222D02*
X20467801Y-11760174D01*
X20467801Y-11760174D02*
X20448753Y-11750650D01*
X20448753Y-11750650D02*
X20420182Y-11750650D01*
X20420182Y-11750650D02*
X20401134Y-11760174D01*
X20401134Y-11760174D02*
X20391611Y-11769698D01*
X20601134Y-11883984D02*
X20582087Y-11874460D01*
X20582087Y-11874460D02*
X20572563Y-11864936D01*
X20572563Y-11864936D02*
X20563039Y-11845888D01*
X20563039Y-11845888D02*
X20563039Y-11788746D01*
X20563039Y-11788746D02*
X20572563Y-11769698D01*
X20572563Y-11769698D02*
X20582087Y-11760174D01*
X20582087Y-11760174D02*
X20601134Y-11750650D01*
X20601134Y-11750650D02*
X20629706Y-11750650D01*
X20629706Y-11750650D02*
X20648753Y-11760174D01*
X20648753Y-11760174D02*
X20658277Y-11769698D01*
X20658277Y-11769698D02*
X20667801Y-11788746D01*
X20667801Y-11788746D02*
X20667801Y-11845888D01*
X20667801Y-11845888D02*
X20658277Y-11864936D01*
X20658277Y-11864936D02*
X20648753Y-11874460D01*
X20648753Y-11874460D02*
X20629706Y-11883984D01*
X20629706Y-11883984D02*
X20601134Y-11883984D01*
X20782087Y-11883984D02*
X20763039Y-11874460D01*
X20763039Y-11874460D02*
X20753515Y-11855412D01*
X20753515Y-11855412D02*
X20753515Y-11683984D01*
X20934468Y-11874460D02*
X20915420Y-11883984D01*
X20915420Y-11883984D02*
X20877325Y-11883984D01*
X20877325Y-11883984D02*
X20858277Y-11874460D01*
X20858277Y-11874460D02*
X20848753Y-11855412D01*
X20848753Y-11855412D02*
X20848753Y-11779222D01*
X20848753Y-11779222D02*
X20858277Y-11760174D01*
X20858277Y-11760174D02*
X20877325Y-11750650D01*
X20877325Y-11750650D02*
X20915420Y-11750650D01*
X20915420Y-11750650D02*
X20934468Y-11760174D01*
X20934468Y-11760174D02*
X20943992Y-11779222D01*
X20943992Y-11779222D02*
X20943992Y-11798269D01*
X20943992Y-11798269D02*
X20848753Y-11817317D01*
X21020182Y-11874460D02*
X21039230Y-11883984D01*
X21039230Y-11883984D02*
X21077325Y-11883984D01*
X21077325Y-11883984D02*
X21096373Y-11874460D01*
X21096373Y-11874460D02*
X21105896Y-11855412D01*
X21105896Y-11855412D02*
X21105896Y-11845888D01*
X21105896Y-11845888D02*
X21096373Y-11826841D01*
X21096373Y-11826841D02*
X21077325Y-11817317D01*
X21077325Y-11817317D02*
X21048753Y-11817317D01*
X21048753Y-11817317D02*
X21029706Y-11807793D01*
X21029706Y-11807793D02*
X21020182Y-11788746D01*
X21020182Y-11788746D02*
X21020182Y-11779222D01*
X21020182Y-11779222D02*
X21029706Y-11760174D01*
X21029706Y-11760174D02*
X21048753Y-11750650D01*
X21048753Y-11750650D02*
X21077325Y-11750650D01*
X21077325Y-11750650D02*
X21096373Y-11760174D01*
X21172563Y-11960174D02*
X21182087Y-11950650D01*
X21182087Y-11950650D02*
X21201134Y-11922079D01*
X21201134Y-11922079D02*
X21210658Y-11903031D01*
X21210658Y-11903031D02*
X21220182Y-11874460D01*
X21220182Y-11874460D02*
X21229706Y-11826841D01*
X21229706Y-11826841D02*
X21229706Y-11788746D01*
X21229706Y-11788746D02*
X21220182Y-11741127D01*
X21220182Y-11741127D02*
X21210658Y-11712555D01*
X21210658Y-11712555D02*
X21201134Y-11693508D01*
X21201134Y-11693508D02*
X21182087Y-11664936D01*
X21182087Y-11664936D02*
X21172563Y-11655412D01*
D12*
X16397500Y-12056500D02*
G75*
G02*
X16367500Y-12056500I-15000J0D01*
G01*
X16367500Y-12056500D02*
G75*
G02*
X16397500Y-12056500I15000J0D01*
G01*
D11*
X16696372Y-11947984D02*
X16715420Y-11947984D01*
X16715420Y-11947984D02*
X16734467Y-11957508D01*
X16734467Y-11957508D02*
X16743991Y-11967031D01*
X16743991Y-11967031D02*
X16753515Y-11986079D01*
X16753515Y-11986079D02*
X16763039Y-12024174D01*
X16763039Y-12024174D02*
X16763039Y-12071793D01*
X16763039Y-12071793D02*
X16753515Y-12109888D01*
X16753515Y-12109888D02*
X16743991Y-12128936D01*
X16743991Y-12128936D02*
X16734467Y-12138460D01*
X16734467Y-12138460D02*
X16715420Y-12147984D01*
X16715420Y-12147984D02*
X16696372Y-12147984D01*
X16696372Y-12147984D02*
X16677324Y-12138460D01*
X16677324Y-12138460D02*
X16667801Y-12128936D01*
X16667801Y-12128936D02*
X16658277Y-12109888D01*
X16658277Y-12109888D02*
X16648753Y-12071793D01*
X16648753Y-12071793D02*
X16648753Y-12024174D01*
X16648753Y-12024174D02*
X16658277Y-11986079D01*
X16658277Y-11986079D02*
X16667801Y-11967031D01*
X16667801Y-11967031D02*
X16677324Y-11957508D01*
X16677324Y-11957508D02*
X16696372Y-11947984D01*
X16848753Y-12128936D02*
X16858277Y-12138460D01*
X16858277Y-12138460D02*
X16848753Y-12147984D01*
X16848753Y-12147984D02*
X16839229Y-12138460D01*
X16839229Y-12138460D02*
X16848753Y-12128936D01*
X16848753Y-12128936D02*
X16848753Y-12147984D01*
X16924944Y-11947984D02*
X17048753Y-11947984D01*
X17048753Y-11947984D02*
X16982086Y-12024174D01*
X16982086Y-12024174D02*
X17010658Y-12024174D01*
X17010658Y-12024174D02*
X17029705Y-12033698D01*
X17029705Y-12033698D02*
X17039229Y-12043222D01*
X17039229Y-12043222D02*
X17048753Y-12062269D01*
X17048753Y-12062269D02*
X17048753Y-12109888D01*
X17048753Y-12109888D02*
X17039229Y-12128936D01*
X17039229Y-12128936D02*
X17029705Y-12138460D01*
X17029705Y-12138460D02*
X17010658Y-12147984D01*
X17010658Y-12147984D02*
X16953515Y-12147984D01*
X16953515Y-12147984D02*
X16934467Y-12138460D01*
X16934467Y-12138460D02*
X16924944Y-12128936D01*
X17172563Y-11947984D02*
X17191610Y-11947984D01*
X17191610Y-11947984D02*
X17210658Y-11957508D01*
X17210658Y-11957508D02*
X17220182Y-11967031D01*
X17220182Y-11967031D02*
X17229705Y-11986079D01*
X17229705Y-11986079D02*
X17239229Y-12024174D01*
X17239229Y-12024174D02*
X17239229Y-12071793D01*
X17239229Y-12071793D02*
X17229705Y-12109888D01*
X17229705Y-12109888D02*
X17220182Y-12128936D01*
X17220182Y-12128936D02*
X17210658Y-12138460D01*
X17210658Y-12138460D02*
X17191610Y-12147984D01*
X17191610Y-12147984D02*
X17172563Y-12147984D01*
X17172563Y-12147984D02*
X17153515Y-12138460D01*
X17153515Y-12138460D02*
X17143991Y-12128936D01*
X17143991Y-12128936D02*
X17134467Y-12109888D01*
X17134467Y-12109888D02*
X17124944Y-12071793D01*
X17124944Y-12071793D02*
X17124944Y-12024174D01*
X17124944Y-12024174D02*
X17134467Y-11986079D01*
X17134467Y-11986079D02*
X17143991Y-11967031D01*
X17143991Y-11967031D02*
X17153515Y-11957508D01*
X17153515Y-11957508D02*
X17172563Y-11947984D01*
X17363039Y-11947984D02*
X17382086Y-11947984D01*
X17382086Y-11947984D02*
X17401134Y-11957508D01*
X17401134Y-11957508D02*
X17410658Y-11967031D01*
X17410658Y-11967031D02*
X17420182Y-11986079D01*
X17420182Y-11986079D02*
X17429705Y-12024174D01*
X17429705Y-12024174D02*
X17429705Y-12071793D01*
X17429705Y-12071793D02*
X17420182Y-12109888D01*
X17420182Y-12109888D02*
X17410658Y-12128936D01*
X17410658Y-12128936D02*
X17401134Y-12138460D01*
X17401134Y-12138460D02*
X17382086Y-12147984D01*
X17382086Y-12147984D02*
X17363039Y-12147984D01*
X17363039Y-12147984D02*
X17343991Y-12138460D01*
X17343991Y-12138460D02*
X17334467Y-12128936D01*
X17334467Y-12128936D02*
X17324944Y-12109888D01*
X17324944Y-12109888D02*
X17315420Y-12071793D01*
X17315420Y-12071793D02*
X17315420Y-12024174D01*
X17315420Y-12024174D02*
X17324944Y-11986079D01*
X17324944Y-11986079D02*
X17334467Y-11967031D01*
X17334467Y-11967031D02*
X17343991Y-11957508D01*
X17343991Y-11957508D02*
X17363039Y-11947984D01*
X17515420Y-12147984D02*
X17515420Y-12014650D01*
X17515420Y-12033698D02*
X17524944Y-12024174D01*
X17524944Y-12024174D02*
X17543991Y-12014650D01*
X17543991Y-12014650D02*
X17572563Y-12014650D01*
X17572563Y-12014650D02*
X17591610Y-12024174D01*
X17591610Y-12024174D02*
X17601134Y-12043222D01*
X17601134Y-12043222D02*
X17601134Y-12147984D01*
X17601134Y-12043222D02*
X17610658Y-12024174D01*
X17610658Y-12024174D02*
X17629705Y-12014650D01*
X17629705Y-12014650D02*
X17658277Y-12014650D01*
X17658277Y-12014650D02*
X17677325Y-12024174D01*
X17677325Y-12024174D02*
X17686848Y-12043222D01*
X17686848Y-12043222D02*
X17686848Y-12147984D01*
X17782086Y-12147984D02*
X17782086Y-12014650D01*
X17782086Y-12033698D02*
X17791610Y-12024174D01*
X17791610Y-12024174D02*
X17810658Y-12014650D01*
X17810658Y-12014650D02*
X17839229Y-12014650D01*
X17839229Y-12014650D02*
X17858277Y-12024174D01*
X17858277Y-12024174D02*
X17867801Y-12043222D01*
X17867801Y-12043222D02*
X17867801Y-12147984D01*
X17867801Y-12043222D02*
X17877325Y-12024174D01*
X17877325Y-12024174D02*
X17896372Y-12014650D01*
X17896372Y-12014650D02*
X17924944Y-12014650D01*
X17924944Y-12014650D02*
X17943991Y-12024174D01*
X17943991Y-12024174D02*
X17953515Y-12043222D01*
X17953515Y-12043222D02*
X17953515Y-12147984D01*
X18343991Y-11938460D02*
X18172563Y-12195603D01*
X18601134Y-11947984D02*
X18620182Y-11947984D01*
X18620182Y-11947984D02*
X18639229Y-11957508D01*
X18639229Y-11957508D02*
X18648753Y-11967031D01*
X18648753Y-11967031D02*
X18658277Y-11986079D01*
X18658277Y-11986079D02*
X18667801Y-12024174D01*
X18667801Y-12024174D02*
X18667801Y-12071793D01*
X18667801Y-12071793D02*
X18658277Y-12109888D01*
X18658277Y-12109888D02*
X18648753Y-12128936D01*
X18648753Y-12128936D02*
X18639229Y-12138460D01*
X18639229Y-12138460D02*
X18620182Y-12147984D01*
X18620182Y-12147984D02*
X18601134Y-12147984D01*
X18601134Y-12147984D02*
X18582087Y-12138460D01*
X18582087Y-12138460D02*
X18572563Y-12128936D01*
X18572563Y-12128936D02*
X18563039Y-12109888D01*
X18563039Y-12109888D02*
X18553515Y-12071793D01*
X18553515Y-12071793D02*
X18553515Y-12024174D01*
X18553515Y-12024174D02*
X18563039Y-11986079D01*
X18563039Y-11986079D02*
X18572563Y-11967031D01*
X18572563Y-11967031D02*
X18582087Y-11957508D01*
X18582087Y-11957508D02*
X18601134Y-11947984D01*
X18753515Y-12128936D02*
X18763039Y-12138460D01*
X18763039Y-12138460D02*
X18753515Y-12147984D01*
X18753515Y-12147984D02*
X18743991Y-12138460D01*
X18743991Y-12138460D02*
X18753515Y-12128936D01*
X18753515Y-12128936D02*
X18753515Y-12147984D01*
X18886848Y-11947984D02*
X18905896Y-11947984D01*
X18905896Y-11947984D02*
X18924944Y-11957508D01*
X18924944Y-11957508D02*
X18934468Y-11967031D01*
X18934468Y-11967031D02*
X18943991Y-11986079D01*
X18943991Y-11986079D02*
X18953515Y-12024174D01*
X18953515Y-12024174D02*
X18953515Y-12071793D01*
X18953515Y-12071793D02*
X18943991Y-12109888D01*
X18943991Y-12109888D02*
X18934468Y-12128936D01*
X18934468Y-12128936D02*
X18924944Y-12138460D01*
X18924944Y-12138460D02*
X18905896Y-12147984D01*
X18905896Y-12147984D02*
X18886848Y-12147984D01*
X18886848Y-12147984D02*
X18867801Y-12138460D01*
X18867801Y-12138460D02*
X18858277Y-12128936D01*
X18858277Y-12128936D02*
X18848753Y-12109888D01*
X18848753Y-12109888D02*
X18839229Y-12071793D01*
X18839229Y-12071793D02*
X18839229Y-12024174D01*
X18839229Y-12024174D02*
X18848753Y-11986079D01*
X18848753Y-11986079D02*
X18858277Y-11967031D01*
X18858277Y-11967031D02*
X18867801Y-11957508D01*
X18867801Y-11957508D02*
X18886848Y-11947984D01*
X19143991Y-12147984D02*
X19029706Y-12147984D01*
X19086848Y-12147984D02*
X19086848Y-11947984D01*
X19086848Y-11947984D02*
X19067801Y-11976555D01*
X19067801Y-11976555D02*
X19048753Y-11995603D01*
X19048753Y-11995603D02*
X19029706Y-12005127D01*
X19334468Y-12147984D02*
X19220182Y-12147984D01*
X19277325Y-12147984D02*
X19277325Y-11947984D01*
X19277325Y-11947984D02*
X19258277Y-11976555D01*
X19258277Y-11976555D02*
X19239229Y-11995603D01*
X19239229Y-11995603D02*
X19220182Y-12005127D01*
X19448753Y-12033698D02*
X19429706Y-12024174D01*
X19429706Y-12024174D02*
X19420182Y-12014650D01*
X19420182Y-12014650D02*
X19410658Y-11995603D01*
X19410658Y-11995603D02*
X19410658Y-11986079D01*
X19410658Y-11986079D02*
X19420182Y-11967031D01*
X19420182Y-11967031D02*
X19429706Y-11957508D01*
X19429706Y-11957508D02*
X19448753Y-11947984D01*
X19448753Y-11947984D02*
X19486849Y-11947984D01*
X19486849Y-11947984D02*
X19505896Y-11957508D01*
X19505896Y-11957508D02*
X19515420Y-11967031D01*
X19515420Y-11967031D02*
X19524944Y-11986079D01*
X19524944Y-11986079D02*
X19524944Y-11995603D01*
X19524944Y-11995603D02*
X19515420Y-12014650D01*
X19515420Y-12014650D02*
X19505896Y-12024174D01*
X19505896Y-12024174D02*
X19486849Y-12033698D01*
X19486849Y-12033698D02*
X19448753Y-12033698D01*
X19448753Y-12033698D02*
X19429706Y-12043222D01*
X19429706Y-12043222D02*
X19420182Y-12052746D01*
X19420182Y-12052746D02*
X19410658Y-12071793D01*
X19410658Y-12071793D02*
X19410658Y-12109888D01*
X19410658Y-12109888D02*
X19420182Y-12128936D01*
X19420182Y-12128936D02*
X19429706Y-12138460D01*
X19429706Y-12138460D02*
X19448753Y-12147984D01*
X19448753Y-12147984D02*
X19486849Y-12147984D01*
X19486849Y-12147984D02*
X19505896Y-12138460D01*
X19505896Y-12138460D02*
X19515420Y-12128936D01*
X19515420Y-12128936D02*
X19524944Y-12109888D01*
X19524944Y-12109888D02*
X19524944Y-12071793D01*
X19524944Y-12071793D02*
X19515420Y-12052746D01*
X19515420Y-12052746D02*
X19505896Y-12043222D01*
X19505896Y-12043222D02*
X19486849Y-12033698D01*
X19601134Y-11947984D02*
X19601134Y-11986079D01*
X19677325Y-11947984D02*
X19677325Y-11986079D01*
X19972563Y-12224174D02*
X19963039Y-12214650D01*
X19963039Y-12214650D02*
X19943991Y-12186079D01*
X19943991Y-12186079D02*
X19934468Y-12167031D01*
X19934468Y-12167031D02*
X19924944Y-12138460D01*
X19924944Y-12138460D02*
X19915420Y-12090841D01*
X19915420Y-12090841D02*
X19915420Y-12052746D01*
X19915420Y-12052746D02*
X19924944Y-12005127D01*
X19924944Y-12005127D02*
X19934468Y-11976555D01*
X19934468Y-11976555D02*
X19943991Y-11957508D01*
X19943991Y-11957508D02*
X19963039Y-11928936D01*
X19963039Y-11928936D02*
X19972563Y-11919412D01*
X20153515Y-12147984D02*
X20039230Y-12147984D01*
X20096372Y-12147984D02*
X20096372Y-11947984D01*
X20096372Y-11947984D02*
X20077325Y-11976555D01*
X20077325Y-11976555D02*
X20058277Y-11995603D01*
X20058277Y-11995603D02*
X20039230Y-12005127D01*
X20220182Y-11947984D02*
X20353515Y-11947984D01*
X20353515Y-11947984D02*
X20267801Y-12147984D01*
X20582087Y-12147984D02*
X20582087Y-11947984D01*
X20667801Y-12147984D02*
X20667801Y-12043222D01*
X20667801Y-12043222D02*
X20658277Y-12024174D01*
X20658277Y-12024174D02*
X20639230Y-12014650D01*
X20639230Y-12014650D02*
X20610658Y-12014650D01*
X20610658Y-12014650D02*
X20591611Y-12024174D01*
X20591611Y-12024174D02*
X20582087Y-12033698D01*
X20791611Y-12147984D02*
X20772563Y-12138460D01*
X20772563Y-12138460D02*
X20763039Y-12128936D01*
X20763039Y-12128936D02*
X20753515Y-12109888D01*
X20753515Y-12109888D02*
X20753515Y-12052746D01*
X20753515Y-12052746D02*
X20763039Y-12033698D01*
X20763039Y-12033698D02*
X20772563Y-12024174D01*
X20772563Y-12024174D02*
X20791611Y-12014650D01*
X20791611Y-12014650D02*
X20820182Y-12014650D01*
X20820182Y-12014650D02*
X20839230Y-12024174D01*
X20839230Y-12024174D02*
X20848753Y-12033698D01*
X20848753Y-12033698D02*
X20858277Y-12052746D01*
X20858277Y-12052746D02*
X20858277Y-12109888D01*
X20858277Y-12109888D02*
X20848753Y-12128936D01*
X20848753Y-12128936D02*
X20839230Y-12138460D01*
X20839230Y-12138460D02*
X20820182Y-12147984D01*
X20820182Y-12147984D02*
X20791611Y-12147984D01*
X20972563Y-12147984D02*
X20953515Y-12138460D01*
X20953515Y-12138460D02*
X20943992Y-12119412D01*
X20943992Y-12119412D02*
X20943992Y-11947984D01*
X21124944Y-12138460D02*
X21105896Y-12147984D01*
X21105896Y-12147984D02*
X21067801Y-12147984D01*
X21067801Y-12147984D02*
X21048753Y-12138460D01*
X21048753Y-12138460D02*
X21039230Y-12119412D01*
X21039230Y-12119412D02*
X21039230Y-12043222D01*
X21039230Y-12043222D02*
X21048753Y-12024174D01*
X21048753Y-12024174D02*
X21067801Y-12014650D01*
X21067801Y-12014650D02*
X21105896Y-12014650D01*
X21105896Y-12014650D02*
X21124944Y-12024174D01*
X21124944Y-12024174D02*
X21134468Y-12043222D01*
X21134468Y-12043222D02*
X21134468Y-12062269D01*
X21134468Y-12062269D02*
X21039230Y-12081317D01*
X21210658Y-12138460D02*
X21229706Y-12147984D01*
X21229706Y-12147984D02*
X21267801Y-12147984D01*
X21267801Y-12147984D02*
X21286849Y-12138460D01*
X21286849Y-12138460D02*
X21296373Y-12119412D01*
X21296373Y-12119412D02*
X21296373Y-12109888D01*
X21296373Y-12109888D02*
X21286849Y-12090841D01*
X21286849Y-12090841D02*
X21267801Y-12081317D01*
X21267801Y-12081317D02*
X21239230Y-12081317D01*
X21239230Y-12081317D02*
X21220182Y-12071793D01*
X21220182Y-12071793D02*
X21210658Y-12052746D01*
X21210658Y-12052746D02*
X21210658Y-12043222D01*
X21210658Y-12043222D02*
X21220182Y-12024174D01*
X21220182Y-12024174D02*
X21239230Y-12014650D01*
X21239230Y-12014650D02*
X21267801Y-12014650D01*
X21267801Y-12014650D02*
X21286849Y-12024174D01*
X21363039Y-12224174D02*
X21372563Y-12214650D01*
X21372563Y-12214650D02*
X21391611Y-12186079D01*
X21391611Y-12186079D02*
X21401134Y-12167031D01*
X21401134Y-12167031D02*
X21410658Y-12138460D01*
X21410658Y-12138460D02*
X21420182Y-12090841D01*
X21420182Y-12090841D02*
X21420182Y-12052746D01*
X21420182Y-12052746D02*
X21410658Y-12005127D01*
X21410658Y-12005127D02*
X21401134Y-11976555D01*
X21401134Y-11976555D02*
X21391611Y-11957508D01*
X21391611Y-11957508D02*
X21372563Y-11928936D01*
X21372563Y-11928936D02*
X21363039Y-11919412D01*
D12*
X16377500Y-12300500D02*
X16377500Y-12340500D01*
X16357500Y-12320500D02*
X16397500Y-12320500D01*
D11*
X16696372Y-12211984D02*
X16715420Y-12211984D01*
X16715420Y-12211984D02*
X16734467Y-12221508D01*
X16734467Y-12221508D02*
X16743991Y-12231031D01*
X16743991Y-12231031D02*
X16753515Y-12250079D01*
X16753515Y-12250079D02*
X16763039Y-12288174D01*
X16763039Y-12288174D02*
X16763039Y-12335793D01*
X16763039Y-12335793D02*
X16753515Y-12373888D01*
X16753515Y-12373888D02*
X16743991Y-12392936D01*
X16743991Y-12392936D02*
X16734467Y-12402460D01*
X16734467Y-12402460D02*
X16715420Y-12411984D01*
X16715420Y-12411984D02*
X16696372Y-12411984D01*
X16696372Y-12411984D02*
X16677324Y-12402460D01*
X16677324Y-12402460D02*
X16667801Y-12392936D01*
X16667801Y-12392936D02*
X16658277Y-12373888D01*
X16658277Y-12373888D02*
X16648753Y-12335793D01*
X16648753Y-12335793D02*
X16648753Y-12288174D01*
X16648753Y-12288174D02*
X16658277Y-12250079D01*
X16658277Y-12250079D02*
X16667801Y-12231031D01*
X16667801Y-12231031D02*
X16677324Y-12221508D01*
X16677324Y-12221508D02*
X16696372Y-12211984D01*
X16848753Y-12392936D02*
X16858277Y-12402460D01*
X16858277Y-12402460D02*
X16848753Y-12411984D01*
X16848753Y-12411984D02*
X16839229Y-12402460D01*
X16839229Y-12402460D02*
X16848753Y-12392936D01*
X16848753Y-12392936D02*
X16848753Y-12411984D01*
X17029705Y-12278650D02*
X17029705Y-12411984D01*
X16982086Y-12202460D02*
X16934467Y-12345317D01*
X16934467Y-12345317D02*
X17058277Y-12345317D01*
X17172563Y-12211984D02*
X17191610Y-12211984D01*
X17191610Y-12211984D02*
X17210658Y-12221508D01*
X17210658Y-12221508D02*
X17220182Y-12231031D01*
X17220182Y-12231031D02*
X17229705Y-12250079D01*
X17229705Y-12250079D02*
X17239229Y-12288174D01*
X17239229Y-12288174D02*
X17239229Y-12335793D01*
X17239229Y-12335793D02*
X17229705Y-12373888D01*
X17229705Y-12373888D02*
X17220182Y-12392936D01*
X17220182Y-12392936D02*
X17210658Y-12402460D01*
X17210658Y-12402460D02*
X17191610Y-12411984D01*
X17191610Y-12411984D02*
X17172563Y-12411984D01*
X17172563Y-12411984D02*
X17153515Y-12402460D01*
X17153515Y-12402460D02*
X17143991Y-12392936D01*
X17143991Y-12392936D02*
X17134467Y-12373888D01*
X17134467Y-12373888D02*
X17124944Y-12335793D01*
X17124944Y-12335793D02*
X17124944Y-12288174D01*
X17124944Y-12288174D02*
X17134467Y-12250079D01*
X17134467Y-12250079D02*
X17143991Y-12231031D01*
X17143991Y-12231031D02*
X17153515Y-12221508D01*
X17153515Y-12221508D02*
X17172563Y-12211984D01*
X17363039Y-12211984D02*
X17382086Y-12211984D01*
X17382086Y-12211984D02*
X17401134Y-12221508D01*
X17401134Y-12221508D02*
X17410658Y-12231031D01*
X17410658Y-12231031D02*
X17420182Y-12250079D01*
X17420182Y-12250079D02*
X17429705Y-12288174D01*
X17429705Y-12288174D02*
X17429705Y-12335793D01*
X17429705Y-12335793D02*
X17420182Y-12373888D01*
X17420182Y-12373888D02*
X17410658Y-12392936D01*
X17410658Y-12392936D02*
X17401134Y-12402460D01*
X17401134Y-12402460D02*
X17382086Y-12411984D01*
X17382086Y-12411984D02*
X17363039Y-12411984D01*
X17363039Y-12411984D02*
X17343991Y-12402460D01*
X17343991Y-12402460D02*
X17334467Y-12392936D01*
X17334467Y-12392936D02*
X17324944Y-12373888D01*
X17324944Y-12373888D02*
X17315420Y-12335793D01*
X17315420Y-12335793D02*
X17315420Y-12288174D01*
X17315420Y-12288174D02*
X17324944Y-12250079D01*
X17324944Y-12250079D02*
X17334467Y-12231031D01*
X17334467Y-12231031D02*
X17343991Y-12221508D01*
X17343991Y-12221508D02*
X17363039Y-12211984D01*
X17515420Y-12411984D02*
X17515420Y-12278650D01*
X17515420Y-12297698D02*
X17524944Y-12288174D01*
X17524944Y-12288174D02*
X17543991Y-12278650D01*
X17543991Y-12278650D02*
X17572563Y-12278650D01*
X17572563Y-12278650D02*
X17591610Y-12288174D01*
X17591610Y-12288174D02*
X17601134Y-12307222D01*
X17601134Y-12307222D02*
X17601134Y-12411984D01*
X17601134Y-12307222D02*
X17610658Y-12288174D01*
X17610658Y-12288174D02*
X17629705Y-12278650D01*
X17629705Y-12278650D02*
X17658277Y-12278650D01*
X17658277Y-12278650D02*
X17677325Y-12288174D01*
X17677325Y-12288174D02*
X17686848Y-12307222D01*
X17686848Y-12307222D02*
X17686848Y-12411984D01*
X17782086Y-12411984D02*
X17782086Y-12278650D01*
X17782086Y-12297698D02*
X17791610Y-12288174D01*
X17791610Y-12288174D02*
X17810658Y-12278650D01*
X17810658Y-12278650D02*
X17839229Y-12278650D01*
X17839229Y-12278650D02*
X17858277Y-12288174D01*
X17858277Y-12288174D02*
X17867801Y-12307222D01*
X17867801Y-12307222D02*
X17867801Y-12411984D01*
X17867801Y-12307222D02*
X17877325Y-12288174D01*
X17877325Y-12288174D02*
X17896372Y-12278650D01*
X17896372Y-12278650D02*
X17924944Y-12278650D01*
X17924944Y-12278650D02*
X17943991Y-12288174D01*
X17943991Y-12288174D02*
X17953515Y-12307222D01*
X17953515Y-12307222D02*
X17953515Y-12411984D01*
X18343991Y-12202460D02*
X18172563Y-12459603D01*
X18601134Y-12211984D02*
X18620182Y-12211984D01*
X18620182Y-12211984D02*
X18639229Y-12221508D01*
X18639229Y-12221508D02*
X18648753Y-12231031D01*
X18648753Y-12231031D02*
X18658277Y-12250079D01*
X18658277Y-12250079D02*
X18667801Y-12288174D01*
X18667801Y-12288174D02*
X18667801Y-12335793D01*
X18667801Y-12335793D02*
X18658277Y-12373888D01*
X18658277Y-12373888D02*
X18648753Y-12392936D01*
X18648753Y-12392936D02*
X18639229Y-12402460D01*
X18639229Y-12402460D02*
X18620182Y-12411984D01*
X18620182Y-12411984D02*
X18601134Y-12411984D01*
X18601134Y-12411984D02*
X18582087Y-12402460D01*
X18582087Y-12402460D02*
X18572563Y-12392936D01*
X18572563Y-12392936D02*
X18563039Y-12373888D01*
X18563039Y-12373888D02*
X18553515Y-12335793D01*
X18553515Y-12335793D02*
X18553515Y-12288174D01*
X18553515Y-12288174D02*
X18563039Y-12250079D01*
X18563039Y-12250079D02*
X18572563Y-12231031D01*
X18572563Y-12231031D02*
X18582087Y-12221508D01*
X18582087Y-12221508D02*
X18601134Y-12211984D01*
X18753515Y-12392936D02*
X18763039Y-12402460D01*
X18763039Y-12402460D02*
X18753515Y-12411984D01*
X18753515Y-12411984D02*
X18743991Y-12402460D01*
X18743991Y-12402460D02*
X18753515Y-12392936D01*
X18753515Y-12392936D02*
X18753515Y-12411984D01*
X18886848Y-12211984D02*
X18905896Y-12211984D01*
X18905896Y-12211984D02*
X18924944Y-12221508D01*
X18924944Y-12221508D02*
X18934468Y-12231031D01*
X18934468Y-12231031D02*
X18943991Y-12250079D01*
X18943991Y-12250079D02*
X18953515Y-12288174D01*
X18953515Y-12288174D02*
X18953515Y-12335793D01*
X18953515Y-12335793D02*
X18943991Y-12373888D01*
X18943991Y-12373888D02*
X18934468Y-12392936D01*
X18934468Y-12392936D02*
X18924944Y-12402460D01*
X18924944Y-12402460D02*
X18905896Y-12411984D01*
X18905896Y-12411984D02*
X18886848Y-12411984D01*
X18886848Y-12411984D02*
X18867801Y-12402460D01*
X18867801Y-12402460D02*
X18858277Y-12392936D01*
X18858277Y-12392936D02*
X18848753Y-12373888D01*
X18848753Y-12373888D02*
X18839229Y-12335793D01*
X18839229Y-12335793D02*
X18839229Y-12288174D01*
X18839229Y-12288174D02*
X18848753Y-12250079D01*
X18848753Y-12250079D02*
X18858277Y-12231031D01*
X18858277Y-12231031D02*
X18867801Y-12221508D01*
X18867801Y-12221508D02*
X18886848Y-12211984D01*
X19143991Y-12411984D02*
X19029706Y-12411984D01*
X19086848Y-12411984D02*
X19086848Y-12211984D01*
X19086848Y-12211984D02*
X19067801Y-12240555D01*
X19067801Y-12240555D02*
X19048753Y-12259603D01*
X19048753Y-12259603D02*
X19029706Y-12269127D01*
X19324944Y-12211984D02*
X19229706Y-12211984D01*
X19229706Y-12211984D02*
X19220182Y-12307222D01*
X19220182Y-12307222D02*
X19229706Y-12297698D01*
X19229706Y-12297698D02*
X19248753Y-12288174D01*
X19248753Y-12288174D02*
X19296372Y-12288174D01*
X19296372Y-12288174D02*
X19315420Y-12297698D01*
X19315420Y-12297698D02*
X19324944Y-12307222D01*
X19324944Y-12307222D02*
X19334468Y-12326269D01*
X19334468Y-12326269D02*
X19334468Y-12373888D01*
X19334468Y-12373888D02*
X19324944Y-12392936D01*
X19324944Y-12392936D02*
X19315420Y-12402460D01*
X19315420Y-12402460D02*
X19296372Y-12411984D01*
X19296372Y-12411984D02*
X19248753Y-12411984D01*
X19248753Y-12411984D02*
X19229706Y-12402460D01*
X19229706Y-12402460D02*
X19220182Y-12392936D01*
X19401134Y-12211984D02*
X19534468Y-12211984D01*
X19534468Y-12211984D02*
X19448753Y-12411984D01*
X19601134Y-12211984D02*
X19601134Y-12250079D01*
X19677325Y-12211984D02*
X19677325Y-12250079D01*
X19972563Y-12488174D02*
X19963039Y-12478650D01*
X19963039Y-12478650D02*
X19943991Y-12450079D01*
X19943991Y-12450079D02*
X19934468Y-12431031D01*
X19934468Y-12431031D02*
X19924944Y-12402460D01*
X19924944Y-12402460D02*
X19915420Y-12354841D01*
X19915420Y-12354841D02*
X19915420Y-12316746D01*
X19915420Y-12316746D02*
X19924944Y-12269127D01*
X19924944Y-12269127D02*
X19934468Y-12240555D01*
X19934468Y-12240555D02*
X19943991Y-12221508D01*
X19943991Y-12221508D02*
X19963039Y-12192936D01*
X19963039Y-12192936D02*
X19972563Y-12183412D01*
X20039230Y-12231031D02*
X20048753Y-12221508D01*
X20048753Y-12221508D02*
X20067801Y-12211984D01*
X20067801Y-12211984D02*
X20115420Y-12211984D01*
X20115420Y-12211984D02*
X20134468Y-12221508D01*
X20134468Y-12221508D02*
X20143991Y-12231031D01*
X20143991Y-12231031D02*
X20153515Y-12250079D01*
X20153515Y-12250079D02*
X20153515Y-12269127D01*
X20153515Y-12269127D02*
X20143991Y-12297698D01*
X20143991Y-12297698D02*
X20029706Y-12411984D01*
X20029706Y-12411984D02*
X20153515Y-12411984D01*
X20391611Y-12411984D02*
X20391611Y-12211984D01*
X20477325Y-12411984D02*
X20477325Y-12307222D01*
X20477325Y-12307222D02*
X20467801Y-12288174D01*
X20467801Y-12288174D02*
X20448753Y-12278650D01*
X20448753Y-12278650D02*
X20420182Y-12278650D01*
X20420182Y-12278650D02*
X20401134Y-12288174D01*
X20401134Y-12288174D02*
X20391611Y-12297698D01*
X20601134Y-12411984D02*
X20582087Y-12402460D01*
X20582087Y-12402460D02*
X20572563Y-12392936D01*
X20572563Y-12392936D02*
X20563039Y-12373888D01*
X20563039Y-12373888D02*
X20563039Y-12316746D01*
X20563039Y-12316746D02*
X20572563Y-12297698D01*
X20572563Y-12297698D02*
X20582087Y-12288174D01*
X20582087Y-12288174D02*
X20601134Y-12278650D01*
X20601134Y-12278650D02*
X20629706Y-12278650D01*
X20629706Y-12278650D02*
X20648753Y-12288174D01*
X20648753Y-12288174D02*
X20658277Y-12297698D01*
X20658277Y-12297698D02*
X20667801Y-12316746D01*
X20667801Y-12316746D02*
X20667801Y-12373888D01*
X20667801Y-12373888D02*
X20658277Y-12392936D01*
X20658277Y-12392936D02*
X20648753Y-12402460D01*
X20648753Y-12402460D02*
X20629706Y-12411984D01*
X20629706Y-12411984D02*
X20601134Y-12411984D01*
X20782087Y-12411984D02*
X20763039Y-12402460D01*
X20763039Y-12402460D02*
X20753515Y-12383412D01*
X20753515Y-12383412D02*
X20753515Y-12211984D01*
X20934468Y-12402460D02*
X20915420Y-12411984D01*
X20915420Y-12411984D02*
X20877325Y-12411984D01*
X20877325Y-12411984D02*
X20858277Y-12402460D01*
X20858277Y-12402460D02*
X20848753Y-12383412D01*
X20848753Y-12383412D02*
X20848753Y-12307222D01*
X20848753Y-12307222D02*
X20858277Y-12288174D01*
X20858277Y-12288174D02*
X20877325Y-12278650D01*
X20877325Y-12278650D02*
X20915420Y-12278650D01*
X20915420Y-12278650D02*
X20934468Y-12288174D01*
X20934468Y-12288174D02*
X20943992Y-12307222D01*
X20943992Y-12307222D02*
X20943992Y-12326269D01*
X20943992Y-12326269D02*
X20848753Y-12345317D01*
X21020182Y-12402460D02*
X21039230Y-12411984D01*
X21039230Y-12411984D02*
X21077325Y-12411984D01*
X21077325Y-12411984D02*
X21096373Y-12402460D01*
X21096373Y-12402460D02*
X21105896Y-12383412D01*
X21105896Y-12383412D02*
X21105896Y-12373888D01*
X21105896Y-12373888D02*
X21096373Y-12354841D01*
X21096373Y-12354841D02*
X21077325Y-12345317D01*
X21077325Y-12345317D02*
X21048753Y-12345317D01*
X21048753Y-12345317D02*
X21029706Y-12335793D01*
X21029706Y-12335793D02*
X21020182Y-12316746D01*
X21020182Y-12316746D02*
X21020182Y-12307222D01*
X21020182Y-12307222D02*
X21029706Y-12288174D01*
X21029706Y-12288174D02*
X21048753Y-12278650D01*
X21048753Y-12278650D02*
X21077325Y-12278650D01*
X21077325Y-12278650D02*
X21096373Y-12288174D01*
X21172563Y-12488174D02*
X21182087Y-12478650D01*
X21182087Y-12478650D02*
X21201134Y-12450079D01*
X21201134Y-12450079D02*
X21210658Y-12431031D01*
X21210658Y-12431031D02*
X21220182Y-12402460D01*
X21220182Y-12402460D02*
X21229706Y-12354841D01*
X21229706Y-12354841D02*
X21229706Y-12316746D01*
X21229706Y-12316746D02*
X21220182Y-12269127D01*
X21220182Y-12269127D02*
X21210658Y-12240555D01*
X21210658Y-12240555D02*
X21201134Y-12221508D01*
X21201134Y-12221508D02*
X21182087Y-12192936D01*
X21182087Y-12192936D02*
X21172563Y-12183412D01*
D12*
X16382856Y-12619856D02*
X16382856Y-12549144D01*
X16312144Y-12549144D01*
X16312144Y-12619856D01*
X16382856Y-12619856D01*
D11*
X16763039Y-12675984D02*
X16648753Y-12675984D01*
X16705896Y-12675984D02*
X16705896Y-12475984D01*
X16705896Y-12475984D02*
X16686848Y-12504555D01*
X16686848Y-12504555D02*
X16667801Y-12523603D01*
X16667801Y-12523603D02*
X16648753Y-12533127D01*
X16848753Y-12656936D02*
X16858277Y-12666460D01*
X16858277Y-12666460D02*
X16848753Y-12675984D01*
X16848753Y-12675984D02*
X16839229Y-12666460D01*
X16839229Y-12666460D02*
X16848753Y-12656936D01*
X16848753Y-12656936D02*
X16848753Y-12675984D01*
X16982086Y-12475984D02*
X17001134Y-12475984D01*
X17001134Y-12475984D02*
X17020182Y-12485508D01*
X17020182Y-12485508D02*
X17029705Y-12495031D01*
X17029705Y-12495031D02*
X17039229Y-12514079D01*
X17039229Y-12514079D02*
X17048753Y-12552174D01*
X17048753Y-12552174D02*
X17048753Y-12599793D01*
X17048753Y-12599793D02*
X17039229Y-12637888D01*
X17039229Y-12637888D02*
X17029705Y-12656936D01*
X17029705Y-12656936D02*
X17020182Y-12666460D01*
X17020182Y-12666460D02*
X17001134Y-12675984D01*
X17001134Y-12675984D02*
X16982086Y-12675984D01*
X16982086Y-12675984D02*
X16963039Y-12666460D01*
X16963039Y-12666460D02*
X16953515Y-12656936D01*
X16953515Y-12656936D02*
X16943991Y-12637888D01*
X16943991Y-12637888D02*
X16934467Y-12599793D01*
X16934467Y-12599793D02*
X16934467Y-12552174D01*
X16934467Y-12552174D02*
X16943991Y-12514079D01*
X16943991Y-12514079D02*
X16953515Y-12495031D01*
X16953515Y-12495031D02*
X16963039Y-12485508D01*
X16963039Y-12485508D02*
X16982086Y-12475984D01*
X17172563Y-12475984D02*
X17191610Y-12475984D01*
X17191610Y-12475984D02*
X17210658Y-12485508D01*
X17210658Y-12485508D02*
X17220182Y-12495031D01*
X17220182Y-12495031D02*
X17229705Y-12514079D01*
X17229705Y-12514079D02*
X17239229Y-12552174D01*
X17239229Y-12552174D02*
X17239229Y-12599793D01*
X17239229Y-12599793D02*
X17229705Y-12637888D01*
X17229705Y-12637888D02*
X17220182Y-12656936D01*
X17220182Y-12656936D02*
X17210658Y-12666460D01*
X17210658Y-12666460D02*
X17191610Y-12675984D01*
X17191610Y-12675984D02*
X17172563Y-12675984D01*
X17172563Y-12675984D02*
X17153515Y-12666460D01*
X17153515Y-12666460D02*
X17143991Y-12656936D01*
X17143991Y-12656936D02*
X17134467Y-12637888D01*
X17134467Y-12637888D02*
X17124944Y-12599793D01*
X17124944Y-12599793D02*
X17124944Y-12552174D01*
X17124944Y-12552174D02*
X17134467Y-12514079D01*
X17134467Y-12514079D02*
X17143991Y-12495031D01*
X17143991Y-12495031D02*
X17153515Y-12485508D01*
X17153515Y-12485508D02*
X17172563Y-12475984D01*
X17363039Y-12475984D02*
X17382086Y-12475984D01*
X17382086Y-12475984D02*
X17401134Y-12485508D01*
X17401134Y-12485508D02*
X17410658Y-12495031D01*
X17410658Y-12495031D02*
X17420182Y-12514079D01*
X17420182Y-12514079D02*
X17429705Y-12552174D01*
X17429705Y-12552174D02*
X17429705Y-12599793D01*
X17429705Y-12599793D02*
X17420182Y-12637888D01*
X17420182Y-12637888D02*
X17410658Y-12656936D01*
X17410658Y-12656936D02*
X17401134Y-12666460D01*
X17401134Y-12666460D02*
X17382086Y-12675984D01*
X17382086Y-12675984D02*
X17363039Y-12675984D01*
X17363039Y-12675984D02*
X17343991Y-12666460D01*
X17343991Y-12666460D02*
X17334467Y-12656936D01*
X17334467Y-12656936D02*
X17324944Y-12637888D01*
X17324944Y-12637888D02*
X17315420Y-12599793D01*
X17315420Y-12599793D02*
X17315420Y-12552174D01*
X17315420Y-12552174D02*
X17324944Y-12514079D01*
X17324944Y-12514079D02*
X17334467Y-12495031D01*
X17334467Y-12495031D02*
X17343991Y-12485508D01*
X17343991Y-12485508D02*
X17363039Y-12475984D01*
X17515420Y-12675984D02*
X17515420Y-12542650D01*
X17515420Y-12561698D02*
X17524944Y-12552174D01*
X17524944Y-12552174D02*
X17543991Y-12542650D01*
X17543991Y-12542650D02*
X17572563Y-12542650D01*
X17572563Y-12542650D02*
X17591610Y-12552174D01*
X17591610Y-12552174D02*
X17601134Y-12571222D01*
X17601134Y-12571222D02*
X17601134Y-12675984D01*
X17601134Y-12571222D02*
X17610658Y-12552174D01*
X17610658Y-12552174D02*
X17629705Y-12542650D01*
X17629705Y-12542650D02*
X17658277Y-12542650D01*
X17658277Y-12542650D02*
X17677325Y-12552174D01*
X17677325Y-12552174D02*
X17686848Y-12571222D01*
X17686848Y-12571222D02*
X17686848Y-12675984D01*
X17782086Y-12675984D02*
X17782086Y-12542650D01*
X17782086Y-12561698D02*
X17791610Y-12552174D01*
X17791610Y-12552174D02*
X17810658Y-12542650D01*
X17810658Y-12542650D02*
X17839229Y-12542650D01*
X17839229Y-12542650D02*
X17858277Y-12552174D01*
X17858277Y-12552174D02*
X17867801Y-12571222D01*
X17867801Y-12571222D02*
X17867801Y-12675984D01*
X17867801Y-12571222D02*
X17877325Y-12552174D01*
X17877325Y-12552174D02*
X17896372Y-12542650D01*
X17896372Y-12542650D02*
X17924944Y-12542650D01*
X17924944Y-12542650D02*
X17943991Y-12552174D01*
X17943991Y-12552174D02*
X17953515Y-12571222D01*
X17953515Y-12571222D02*
X17953515Y-12675984D01*
X18343991Y-12466460D02*
X18172563Y-12723603D01*
X18601134Y-12475984D02*
X18620182Y-12475984D01*
X18620182Y-12475984D02*
X18639229Y-12485508D01*
X18639229Y-12485508D02*
X18648753Y-12495031D01*
X18648753Y-12495031D02*
X18658277Y-12514079D01*
X18658277Y-12514079D02*
X18667801Y-12552174D01*
X18667801Y-12552174D02*
X18667801Y-12599793D01*
X18667801Y-12599793D02*
X18658277Y-12637888D01*
X18658277Y-12637888D02*
X18648753Y-12656936D01*
X18648753Y-12656936D02*
X18639229Y-12666460D01*
X18639229Y-12666460D02*
X18620182Y-12675984D01*
X18620182Y-12675984D02*
X18601134Y-12675984D01*
X18601134Y-12675984D02*
X18582087Y-12666460D01*
X18582087Y-12666460D02*
X18572563Y-12656936D01*
X18572563Y-12656936D02*
X18563039Y-12637888D01*
X18563039Y-12637888D02*
X18553515Y-12599793D01*
X18553515Y-12599793D02*
X18553515Y-12552174D01*
X18553515Y-12552174D02*
X18563039Y-12514079D01*
X18563039Y-12514079D02*
X18572563Y-12495031D01*
X18572563Y-12495031D02*
X18582087Y-12485508D01*
X18582087Y-12485508D02*
X18601134Y-12475984D01*
X18753515Y-12656936D02*
X18763039Y-12666460D01*
X18763039Y-12666460D02*
X18753515Y-12675984D01*
X18753515Y-12675984D02*
X18743991Y-12666460D01*
X18743991Y-12666460D02*
X18753515Y-12656936D01*
X18753515Y-12656936D02*
X18753515Y-12675984D01*
X18886848Y-12475984D02*
X18905896Y-12475984D01*
X18905896Y-12475984D02*
X18924944Y-12485508D01*
X18924944Y-12485508D02*
X18934468Y-12495031D01*
X18934468Y-12495031D02*
X18943991Y-12514079D01*
X18943991Y-12514079D02*
X18953515Y-12552174D01*
X18953515Y-12552174D02*
X18953515Y-12599793D01*
X18953515Y-12599793D02*
X18943991Y-12637888D01*
X18943991Y-12637888D02*
X18934468Y-12656936D01*
X18934468Y-12656936D02*
X18924944Y-12666460D01*
X18924944Y-12666460D02*
X18905896Y-12675984D01*
X18905896Y-12675984D02*
X18886848Y-12675984D01*
X18886848Y-12675984D02*
X18867801Y-12666460D01*
X18867801Y-12666460D02*
X18858277Y-12656936D01*
X18858277Y-12656936D02*
X18848753Y-12637888D01*
X18848753Y-12637888D02*
X18839229Y-12599793D01*
X18839229Y-12599793D02*
X18839229Y-12552174D01*
X18839229Y-12552174D02*
X18848753Y-12514079D01*
X18848753Y-12514079D02*
X18858277Y-12495031D01*
X18858277Y-12495031D02*
X18867801Y-12485508D01*
X18867801Y-12485508D02*
X18886848Y-12475984D01*
X19020182Y-12475984D02*
X19143991Y-12475984D01*
X19143991Y-12475984D02*
X19077325Y-12552174D01*
X19077325Y-12552174D02*
X19105896Y-12552174D01*
X19105896Y-12552174D02*
X19124944Y-12561698D01*
X19124944Y-12561698D02*
X19134468Y-12571222D01*
X19134468Y-12571222D02*
X19143991Y-12590269D01*
X19143991Y-12590269D02*
X19143991Y-12637888D01*
X19143991Y-12637888D02*
X19134468Y-12656936D01*
X19134468Y-12656936D02*
X19124944Y-12666460D01*
X19124944Y-12666460D02*
X19105896Y-12675984D01*
X19105896Y-12675984D02*
X19048753Y-12675984D01*
X19048753Y-12675984D02*
X19029706Y-12666460D01*
X19029706Y-12666460D02*
X19020182Y-12656936D01*
X19239229Y-12675984D02*
X19277325Y-12675984D01*
X19277325Y-12675984D02*
X19296372Y-12666460D01*
X19296372Y-12666460D02*
X19305896Y-12656936D01*
X19305896Y-12656936D02*
X19324944Y-12628365D01*
X19324944Y-12628365D02*
X19334468Y-12590269D01*
X19334468Y-12590269D02*
X19334468Y-12514079D01*
X19334468Y-12514079D02*
X19324944Y-12495031D01*
X19324944Y-12495031D02*
X19315420Y-12485508D01*
X19315420Y-12485508D02*
X19296372Y-12475984D01*
X19296372Y-12475984D02*
X19258277Y-12475984D01*
X19258277Y-12475984D02*
X19239229Y-12485508D01*
X19239229Y-12485508D02*
X19229706Y-12495031D01*
X19229706Y-12495031D02*
X19220182Y-12514079D01*
X19220182Y-12514079D02*
X19220182Y-12561698D01*
X19220182Y-12561698D02*
X19229706Y-12580746D01*
X19229706Y-12580746D02*
X19239229Y-12590269D01*
X19239229Y-12590269D02*
X19258277Y-12599793D01*
X19258277Y-12599793D02*
X19296372Y-12599793D01*
X19296372Y-12599793D02*
X19315420Y-12590269D01*
X19315420Y-12590269D02*
X19324944Y-12580746D01*
X19324944Y-12580746D02*
X19334468Y-12561698D01*
X19505896Y-12542650D02*
X19505896Y-12675984D01*
X19458277Y-12466460D02*
X19410658Y-12609317D01*
X19410658Y-12609317D02*
X19534468Y-12609317D01*
X19601134Y-12475984D02*
X19601134Y-12514079D01*
X19677325Y-12475984D02*
X19677325Y-12514079D01*
X19972563Y-12752174D02*
X19963039Y-12742650D01*
X19963039Y-12742650D02*
X19943991Y-12714079D01*
X19943991Y-12714079D02*
X19934468Y-12695031D01*
X19934468Y-12695031D02*
X19924944Y-12666460D01*
X19924944Y-12666460D02*
X19915420Y-12618841D01*
X19915420Y-12618841D02*
X19915420Y-12580746D01*
X19915420Y-12580746D02*
X19924944Y-12533127D01*
X19924944Y-12533127D02*
X19934468Y-12504555D01*
X19934468Y-12504555D02*
X19943991Y-12485508D01*
X19943991Y-12485508D02*
X19963039Y-12456936D01*
X19963039Y-12456936D02*
X19972563Y-12447412D01*
X20134468Y-12542650D02*
X20134468Y-12675984D01*
X20086849Y-12466460D02*
X20039230Y-12609317D01*
X20039230Y-12609317D02*
X20163039Y-12609317D01*
X20391611Y-12675984D02*
X20391611Y-12475984D01*
X20477325Y-12675984D02*
X20477325Y-12571222D01*
X20477325Y-12571222D02*
X20467801Y-12552174D01*
X20467801Y-12552174D02*
X20448753Y-12542650D01*
X20448753Y-12542650D02*
X20420182Y-12542650D01*
X20420182Y-12542650D02*
X20401134Y-12552174D01*
X20401134Y-12552174D02*
X20391611Y-12561698D01*
X20601134Y-12675984D02*
X20582087Y-12666460D01*
X20582087Y-12666460D02*
X20572563Y-12656936D01*
X20572563Y-12656936D02*
X20563039Y-12637888D01*
X20563039Y-12637888D02*
X20563039Y-12580746D01*
X20563039Y-12580746D02*
X20572563Y-12561698D01*
X20572563Y-12561698D02*
X20582087Y-12552174D01*
X20582087Y-12552174D02*
X20601134Y-12542650D01*
X20601134Y-12542650D02*
X20629706Y-12542650D01*
X20629706Y-12542650D02*
X20648753Y-12552174D01*
X20648753Y-12552174D02*
X20658277Y-12561698D01*
X20658277Y-12561698D02*
X20667801Y-12580746D01*
X20667801Y-12580746D02*
X20667801Y-12637888D01*
X20667801Y-12637888D02*
X20658277Y-12656936D01*
X20658277Y-12656936D02*
X20648753Y-12666460D01*
X20648753Y-12666460D02*
X20629706Y-12675984D01*
X20629706Y-12675984D02*
X20601134Y-12675984D01*
X20782087Y-12675984D02*
X20763039Y-12666460D01*
X20763039Y-12666460D02*
X20753515Y-12647412D01*
X20753515Y-12647412D02*
X20753515Y-12475984D01*
X20934468Y-12666460D02*
X20915420Y-12675984D01*
X20915420Y-12675984D02*
X20877325Y-12675984D01*
X20877325Y-12675984D02*
X20858277Y-12666460D01*
X20858277Y-12666460D02*
X20848753Y-12647412D01*
X20848753Y-12647412D02*
X20848753Y-12571222D01*
X20848753Y-12571222D02*
X20858277Y-12552174D01*
X20858277Y-12552174D02*
X20877325Y-12542650D01*
X20877325Y-12542650D02*
X20915420Y-12542650D01*
X20915420Y-12542650D02*
X20934468Y-12552174D01*
X20934468Y-12552174D02*
X20943992Y-12571222D01*
X20943992Y-12571222D02*
X20943992Y-12590269D01*
X20943992Y-12590269D02*
X20848753Y-12609317D01*
X21020182Y-12666460D02*
X21039230Y-12675984D01*
X21039230Y-12675984D02*
X21077325Y-12675984D01*
X21077325Y-12675984D02*
X21096373Y-12666460D01*
X21096373Y-12666460D02*
X21105896Y-12647412D01*
X21105896Y-12647412D02*
X21105896Y-12637888D01*
X21105896Y-12637888D02*
X21096373Y-12618841D01*
X21096373Y-12618841D02*
X21077325Y-12609317D01*
X21077325Y-12609317D02*
X21048753Y-12609317D01*
X21048753Y-12609317D02*
X21029706Y-12599793D01*
X21029706Y-12599793D02*
X21020182Y-12580746D01*
X21020182Y-12580746D02*
X21020182Y-12571222D01*
X21020182Y-12571222D02*
X21029706Y-12552174D01*
X21029706Y-12552174D02*
X21048753Y-12542650D01*
X21048753Y-12542650D02*
X21077325Y-12542650D01*
X21077325Y-12542650D02*
X21096373Y-12552174D01*
X21172563Y-12752174D02*
X21182087Y-12742650D01*
X21182087Y-12742650D02*
X21201134Y-12714079D01*
X21201134Y-12714079D02*
X21210658Y-12695031D01*
X21210658Y-12695031D02*
X21220182Y-12666460D01*
X21220182Y-12666460D02*
X21229706Y-12618841D01*
X21229706Y-12618841D02*
X21229706Y-12580746D01*
X21229706Y-12580746D02*
X21220182Y-12533127D01*
X21220182Y-12533127D02*
X21210658Y-12504555D01*
X21210658Y-12504555D02*
X21201134Y-12485508D01*
X21201134Y-12485508D02*
X21182087Y-12456936D01*
X21182087Y-12456936D02*
X21172563Y-12447412D01*
D13*
X16322500Y-12923500D02*
X16397500Y-12848500D01*
X16322500Y-12773500D01*
X16247500Y-12848500D01*
X16322500Y-12923500D01*
D11*
X16763039Y-12939984D02*
X16648753Y-12939984D01*
X16705896Y-12939984D02*
X16705896Y-12739984D01*
X16705896Y-12739984D02*
X16686848Y-12768555D01*
X16686848Y-12768555D02*
X16667801Y-12787603D01*
X16667801Y-12787603D02*
X16648753Y-12797127D01*
X16848753Y-12920936D02*
X16858277Y-12930460D01*
X16858277Y-12930460D02*
X16848753Y-12939984D01*
X16848753Y-12939984D02*
X16839229Y-12930460D01*
X16839229Y-12930460D02*
X16848753Y-12920936D01*
X16848753Y-12920936D02*
X16848753Y-12939984D01*
X17039229Y-12739984D02*
X16943991Y-12739984D01*
X16943991Y-12739984D02*
X16934467Y-12835222D01*
X16934467Y-12835222D02*
X16943991Y-12825698D01*
X16943991Y-12825698D02*
X16963039Y-12816174D01*
X16963039Y-12816174D02*
X17010658Y-12816174D01*
X17010658Y-12816174D02*
X17029705Y-12825698D01*
X17029705Y-12825698D02*
X17039229Y-12835222D01*
X17039229Y-12835222D02*
X17048753Y-12854269D01*
X17048753Y-12854269D02*
X17048753Y-12901888D01*
X17048753Y-12901888D02*
X17039229Y-12920936D01*
X17039229Y-12920936D02*
X17029705Y-12930460D01*
X17029705Y-12930460D02*
X17010658Y-12939984D01*
X17010658Y-12939984D02*
X16963039Y-12939984D01*
X16963039Y-12939984D02*
X16943991Y-12930460D01*
X16943991Y-12930460D02*
X16934467Y-12920936D01*
X17172563Y-12739984D02*
X17191610Y-12739984D01*
X17191610Y-12739984D02*
X17210658Y-12749508D01*
X17210658Y-12749508D02*
X17220182Y-12759031D01*
X17220182Y-12759031D02*
X17229705Y-12778079D01*
X17229705Y-12778079D02*
X17239229Y-12816174D01*
X17239229Y-12816174D02*
X17239229Y-12863793D01*
X17239229Y-12863793D02*
X17229705Y-12901888D01*
X17229705Y-12901888D02*
X17220182Y-12920936D01*
X17220182Y-12920936D02*
X17210658Y-12930460D01*
X17210658Y-12930460D02*
X17191610Y-12939984D01*
X17191610Y-12939984D02*
X17172563Y-12939984D01*
X17172563Y-12939984D02*
X17153515Y-12930460D01*
X17153515Y-12930460D02*
X17143991Y-12920936D01*
X17143991Y-12920936D02*
X17134467Y-12901888D01*
X17134467Y-12901888D02*
X17124944Y-12863793D01*
X17124944Y-12863793D02*
X17124944Y-12816174D01*
X17124944Y-12816174D02*
X17134467Y-12778079D01*
X17134467Y-12778079D02*
X17143991Y-12759031D01*
X17143991Y-12759031D02*
X17153515Y-12749508D01*
X17153515Y-12749508D02*
X17172563Y-12739984D01*
X17363039Y-12739984D02*
X17382086Y-12739984D01*
X17382086Y-12739984D02*
X17401134Y-12749508D01*
X17401134Y-12749508D02*
X17410658Y-12759031D01*
X17410658Y-12759031D02*
X17420182Y-12778079D01*
X17420182Y-12778079D02*
X17429705Y-12816174D01*
X17429705Y-12816174D02*
X17429705Y-12863793D01*
X17429705Y-12863793D02*
X17420182Y-12901888D01*
X17420182Y-12901888D02*
X17410658Y-12920936D01*
X17410658Y-12920936D02*
X17401134Y-12930460D01*
X17401134Y-12930460D02*
X17382086Y-12939984D01*
X17382086Y-12939984D02*
X17363039Y-12939984D01*
X17363039Y-12939984D02*
X17343991Y-12930460D01*
X17343991Y-12930460D02*
X17334467Y-12920936D01*
X17334467Y-12920936D02*
X17324944Y-12901888D01*
X17324944Y-12901888D02*
X17315420Y-12863793D01*
X17315420Y-12863793D02*
X17315420Y-12816174D01*
X17315420Y-12816174D02*
X17324944Y-12778079D01*
X17324944Y-12778079D02*
X17334467Y-12759031D01*
X17334467Y-12759031D02*
X17343991Y-12749508D01*
X17343991Y-12749508D02*
X17363039Y-12739984D01*
X17515420Y-12939984D02*
X17515420Y-12806650D01*
X17515420Y-12825698D02*
X17524944Y-12816174D01*
X17524944Y-12816174D02*
X17543991Y-12806650D01*
X17543991Y-12806650D02*
X17572563Y-12806650D01*
X17572563Y-12806650D02*
X17591610Y-12816174D01*
X17591610Y-12816174D02*
X17601134Y-12835222D01*
X17601134Y-12835222D02*
X17601134Y-12939984D01*
X17601134Y-12835222D02*
X17610658Y-12816174D01*
X17610658Y-12816174D02*
X17629705Y-12806650D01*
X17629705Y-12806650D02*
X17658277Y-12806650D01*
X17658277Y-12806650D02*
X17677325Y-12816174D01*
X17677325Y-12816174D02*
X17686848Y-12835222D01*
X17686848Y-12835222D02*
X17686848Y-12939984D01*
X17782086Y-12939984D02*
X17782086Y-12806650D01*
X17782086Y-12825698D02*
X17791610Y-12816174D01*
X17791610Y-12816174D02*
X17810658Y-12806650D01*
X17810658Y-12806650D02*
X17839229Y-12806650D01*
X17839229Y-12806650D02*
X17858277Y-12816174D01*
X17858277Y-12816174D02*
X17867801Y-12835222D01*
X17867801Y-12835222D02*
X17867801Y-12939984D01*
X17867801Y-12835222D02*
X17877325Y-12816174D01*
X17877325Y-12816174D02*
X17896372Y-12806650D01*
X17896372Y-12806650D02*
X17924944Y-12806650D01*
X17924944Y-12806650D02*
X17943991Y-12816174D01*
X17943991Y-12816174D02*
X17953515Y-12835222D01*
X17953515Y-12835222D02*
X17953515Y-12939984D01*
X18343991Y-12730460D02*
X18172563Y-12987603D01*
X18601134Y-12739984D02*
X18620182Y-12739984D01*
X18620182Y-12739984D02*
X18639229Y-12749508D01*
X18639229Y-12749508D02*
X18648753Y-12759031D01*
X18648753Y-12759031D02*
X18658277Y-12778079D01*
X18658277Y-12778079D02*
X18667801Y-12816174D01*
X18667801Y-12816174D02*
X18667801Y-12863793D01*
X18667801Y-12863793D02*
X18658277Y-12901888D01*
X18658277Y-12901888D02*
X18648753Y-12920936D01*
X18648753Y-12920936D02*
X18639229Y-12930460D01*
X18639229Y-12930460D02*
X18620182Y-12939984D01*
X18620182Y-12939984D02*
X18601134Y-12939984D01*
X18601134Y-12939984D02*
X18582087Y-12930460D01*
X18582087Y-12930460D02*
X18572563Y-12920936D01*
X18572563Y-12920936D02*
X18563039Y-12901888D01*
X18563039Y-12901888D02*
X18553515Y-12863793D01*
X18553515Y-12863793D02*
X18553515Y-12816174D01*
X18553515Y-12816174D02*
X18563039Y-12778079D01*
X18563039Y-12778079D02*
X18572563Y-12759031D01*
X18572563Y-12759031D02*
X18582087Y-12749508D01*
X18582087Y-12749508D02*
X18601134Y-12739984D01*
X18753515Y-12920936D02*
X18763039Y-12930460D01*
X18763039Y-12930460D02*
X18753515Y-12939984D01*
X18753515Y-12939984D02*
X18743991Y-12930460D01*
X18743991Y-12930460D02*
X18753515Y-12920936D01*
X18753515Y-12920936D02*
X18753515Y-12939984D01*
X18886848Y-12739984D02*
X18905896Y-12739984D01*
X18905896Y-12739984D02*
X18924944Y-12749508D01*
X18924944Y-12749508D02*
X18934468Y-12759031D01*
X18934468Y-12759031D02*
X18943991Y-12778079D01*
X18943991Y-12778079D02*
X18953515Y-12816174D01*
X18953515Y-12816174D02*
X18953515Y-12863793D01*
X18953515Y-12863793D02*
X18943991Y-12901888D01*
X18943991Y-12901888D02*
X18934468Y-12920936D01*
X18934468Y-12920936D02*
X18924944Y-12930460D01*
X18924944Y-12930460D02*
X18905896Y-12939984D01*
X18905896Y-12939984D02*
X18886848Y-12939984D01*
X18886848Y-12939984D02*
X18867801Y-12930460D01*
X18867801Y-12930460D02*
X18858277Y-12920936D01*
X18858277Y-12920936D02*
X18848753Y-12901888D01*
X18848753Y-12901888D02*
X18839229Y-12863793D01*
X18839229Y-12863793D02*
X18839229Y-12816174D01*
X18839229Y-12816174D02*
X18848753Y-12778079D01*
X18848753Y-12778079D02*
X18858277Y-12759031D01*
X18858277Y-12759031D02*
X18867801Y-12749508D01*
X18867801Y-12749508D02*
X18886848Y-12739984D01*
X19134468Y-12739984D02*
X19039229Y-12739984D01*
X19039229Y-12739984D02*
X19029706Y-12835222D01*
X19029706Y-12835222D02*
X19039229Y-12825698D01*
X19039229Y-12825698D02*
X19058277Y-12816174D01*
X19058277Y-12816174D02*
X19105896Y-12816174D01*
X19105896Y-12816174D02*
X19124944Y-12825698D01*
X19124944Y-12825698D02*
X19134468Y-12835222D01*
X19134468Y-12835222D02*
X19143991Y-12854269D01*
X19143991Y-12854269D02*
X19143991Y-12901888D01*
X19143991Y-12901888D02*
X19134468Y-12920936D01*
X19134468Y-12920936D02*
X19124944Y-12930460D01*
X19124944Y-12930460D02*
X19105896Y-12939984D01*
X19105896Y-12939984D02*
X19058277Y-12939984D01*
X19058277Y-12939984D02*
X19039229Y-12930460D01*
X19039229Y-12930460D02*
X19029706Y-12920936D01*
X19239229Y-12939984D02*
X19277325Y-12939984D01*
X19277325Y-12939984D02*
X19296372Y-12930460D01*
X19296372Y-12930460D02*
X19305896Y-12920936D01*
X19305896Y-12920936D02*
X19324944Y-12892365D01*
X19324944Y-12892365D02*
X19334468Y-12854269D01*
X19334468Y-12854269D02*
X19334468Y-12778079D01*
X19334468Y-12778079D02*
X19324944Y-12759031D01*
X19324944Y-12759031D02*
X19315420Y-12749508D01*
X19315420Y-12749508D02*
X19296372Y-12739984D01*
X19296372Y-12739984D02*
X19258277Y-12739984D01*
X19258277Y-12739984D02*
X19239229Y-12749508D01*
X19239229Y-12749508D02*
X19229706Y-12759031D01*
X19229706Y-12759031D02*
X19220182Y-12778079D01*
X19220182Y-12778079D02*
X19220182Y-12825698D01*
X19220182Y-12825698D02*
X19229706Y-12844746D01*
X19229706Y-12844746D02*
X19239229Y-12854269D01*
X19239229Y-12854269D02*
X19258277Y-12863793D01*
X19258277Y-12863793D02*
X19296372Y-12863793D01*
X19296372Y-12863793D02*
X19315420Y-12854269D01*
X19315420Y-12854269D02*
X19324944Y-12844746D01*
X19324944Y-12844746D02*
X19334468Y-12825698D01*
X19524944Y-12939984D02*
X19410658Y-12939984D01*
X19467801Y-12939984D02*
X19467801Y-12739984D01*
X19467801Y-12739984D02*
X19448753Y-12768555D01*
X19448753Y-12768555D02*
X19429706Y-12787603D01*
X19429706Y-12787603D02*
X19410658Y-12797127D01*
X19601134Y-12739984D02*
X19601134Y-12778079D01*
X19677325Y-12739984D02*
X19677325Y-12778079D01*
X19972563Y-13016174D02*
X19963039Y-13006650D01*
X19963039Y-13006650D02*
X19943991Y-12978079D01*
X19943991Y-12978079D02*
X19934468Y-12959031D01*
X19934468Y-12959031D02*
X19924944Y-12930460D01*
X19924944Y-12930460D02*
X19915420Y-12882841D01*
X19915420Y-12882841D02*
X19915420Y-12844746D01*
X19915420Y-12844746D02*
X19924944Y-12797127D01*
X19924944Y-12797127D02*
X19934468Y-12768555D01*
X19934468Y-12768555D02*
X19943991Y-12749508D01*
X19943991Y-12749508D02*
X19963039Y-12720936D01*
X19963039Y-12720936D02*
X19972563Y-12711412D01*
X20134468Y-12806650D02*
X20134468Y-12939984D01*
X20086849Y-12730460D02*
X20039230Y-12873317D01*
X20039230Y-12873317D02*
X20163039Y-12873317D01*
X20391611Y-12939984D02*
X20391611Y-12739984D01*
X20477325Y-12939984D02*
X20477325Y-12835222D01*
X20477325Y-12835222D02*
X20467801Y-12816174D01*
X20467801Y-12816174D02*
X20448753Y-12806650D01*
X20448753Y-12806650D02*
X20420182Y-12806650D01*
X20420182Y-12806650D02*
X20401134Y-12816174D01*
X20401134Y-12816174D02*
X20391611Y-12825698D01*
X20601134Y-12939984D02*
X20582087Y-12930460D01*
X20582087Y-12930460D02*
X20572563Y-12920936D01*
X20572563Y-12920936D02*
X20563039Y-12901888D01*
X20563039Y-12901888D02*
X20563039Y-12844746D01*
X20563039Y-12844746D02*
X20572563Y-12825698D01*
X20572563Y-12825698D02*
X20582087Y-12816174D01*
X20582087Y-12816174D02*
X20601134Y-12806650D01*
X20601134Y-12806650D02*
X20629706Y-12806650D01*
X20629706Y-12806650D02*
X20648753Y-12816174D01*
X20648753Y-12816174D02*
X20658277Y-12825698D01*
X20658277Y-12825698D02*
X20667801Y-12844746D01*
X20667801Y-12844746D02*
X20667801Y-12901888D01*
X20667801Y-12901888D02*
X20658277Y-12920936D01*
X20658277Y-12920936D02*
X20648753Y-12930460D01*
X20648753Y-12930460D02*
X20629706Y-12939984D01*
X20629706Y-12939984D02*
X20601134Y-12939984D01*
X20782087Y-12939984D02*
X20763039Y-12930460D01*
X20763039Y-12930460D02*
X20753515Y-12911412D01*
X20753515Y-12911412D02*
X20753515Y-12739984D01*
X20934468Y-12930460D02*
X20915420Y-12939984D01*
X20915420Y-12939984D02*
X20877325Y-12939984D01*
X20877325Y-12939984D02*
X20858277Y-12930460D01*
X20858277Y-12930460D02*
X20848753Y-12911412D01*
X20848753Y-12911412D02*
X20848753Y-12835222D01*
X20848753Y-12835222D02*
X20858277Y-12816174D01*
X20858277Y-12816174D02*
X20877325Y-12806650D01*
X20877325Y-12806650D02*
X20915420Y-12806650D01*
X20915420Y-12806650D02*
X20934468Y-12816174D01*
X20934468Y-12816174D02*
X20943992Y-12835222D01*
X20943992Y-12835222D02*
X20943992Y-12854269D01*
X20943992Y-12854269D02*
X20848753Y-12873317D01*
X21020182Y-12930460D02*
X21039230Y-12939984D01*
X21039230Y-12939984D02*
X21077325Y-12939984D01*
X21077325Y-12939984D02*
X21096373Y-12930460D01*
X21096373Y-12930460D02*
X21105896Y-12911412D01*
X21105896Y-12911412D02*
X21105896Y-12901888D01*
X21105896Y-12901888D02*
X21096373Y-12882841D01*
X21096373Y-12882841D02*
X21077325Y-12873317D01*
X21077325Y-12873317D02*
X21048753Y-12873317D01*
X21048753Y-12873317D02*
X21029706Y-12863793D01*
X21029706Y-12863793D02*
X21020182Y-12844746D01*
X21020182Y-12844746D02*
X21020182Y-12835222D01*
X21020182Y-12835222D02*
X21029706Y-12816174D01*
X21029706Y-12816174D02*
X21048753Y-12806650D01*
X21048753Y-12806650D02*
X21077325Y-12806650D01*
X21077325Y-12806650D02*
X21096373Y-12816174D01*
X21172563Y-13016174D02*
X21182087Y-13006650D01*
X21182087Y-13006650D02*
X21201134Y-12978079D01*
X21201134Y-12978079D02*
X21210658Y-12959031D01*
X21210658Y-12959031D02*
X21220182Y-12930460D01*
X21220182Y-12930460D02*
X21229706Y-12882841D01*
X21229706Y-12882841D02*
X21229706Y-12844746D01*
X21229706Y-12844746D02*
X21220182Y-12797127D01*
X21220182Y-12797127D02*
X21210658Y-12768555D01*
X21210658Y-12768555D02*
X21201134Y-12749508D01*
X21201134Y-12749508D02*
X21182087Y-12720936D01*
X21182087Y-12720936D02*
X21172563Y-12711412D01*
M02*
