%TF.GenerationSoftware,KiCad,Pcbnew,9.0.0*%
%TF.CreationDate,2025-03-07T10:14:07+01:00*%
%TF.ProjectId,converter1A,636f6e76-6572-4746-9572-31412e6b6963,rev?*%
%TF.SameCoordinates,Original*%
%TF.FileFunction,Legend,Bot*%
%TF.FilePolarity,Positive*%
%FSLAX46Y46*%
G04 Gerber Fmt 4.6, Leading zero omitted, Abs format (unit mm)*
G04 Created by KiCad (PCBNEW 9.0.0) date 2025-03-07 10:14:07*
%MOMM*%
%LPD*%
G01*
G04 APERTURE LIST*
%ADD10C,0.000000*%
%ADD11C,2.400000*%
%ADD12R,2.300000X2.300000*%
%ADD13C,2.300000*%
%ADD14R,1.000000X1.000000*%
%ADD15O,1.000000X1.000000*%
G04 APERTURE END LIST*
D10*
%TO.C,G\u002A\u002A\u002A*%
G36*
X180602948Y-100092620D02*
G01*
X181025431Y-100096348D01*
X181069651Y-100130091D01*
X181099131Y-100156829D01*
X181136444Y-100212106D01*
X181154358Y-100273171D01*
X181153248Y-100335559D01*
X181133493Y-100394806D01*
X181095471Y-100446445D01*
X181039558Y-100486011D01*
X181028996Y-100491054D01*
X181013956Y-100497026D01*
X180996453Y-100501726D01*
X180973783Y-100505304D01*
X180943244Y-100507908D01*
X180902133Y-100509690D01*
X180847746Y-100510798D01*
X180777381Y-100511382D01*
X180688335Y-100511593D01*
X180577905Y-100511579D01*
X180555265Y-100511563D01*
X180448235Y-100511368D01*
X180362096Y-100510896D01*
X180294157Y-100510011D01*
X180241726Y-100508577D01*
X180202115Y-100506460D01*
X180172630Y-100503524D01*
X180150583Y-100499633D01*
X180133281Y-100494653D01*
X180118033Y-100488447D01*
X180108894Y-100483904D01*
X180060740Y-100446365D01*
X180022481Y-100394176D01*
X180000177Y-100335218D01*
X179998475Y-100284432D01*
X180014170Y-100225628D01*
X180044898Y-100171294D01*
X180086901Y-100127872D01*
X180136419Y-100101801D01*
X180154567Y-100098753D01*
X180199299Y-100095559D01*
X180267082Y-100093338D01*
X180357338Y-100092100D01*
X180469486Y-100091857D01*
X180602948Y-100092620D01*
G37*
G36*
X183125131Y-101114034D02*
G01*
X183125131Y-101132102D01*
X183125073Y-101336038D01*
X183124919Y-101533175D01*
X183124675Y-101722184D01*
X183124348Y-101901734D01*
X183123941Y-102070496D01*
X183123462Y-102227140D01*
X183122916Y-102370335D01*
X183122307Y-102498753D01*
X183121643Y-102611063D01*
X183120928Y-102705935D01*
X183120168Y-102782039D01*
X183119368Y-102838046D01*
X183118535Y-102872625D01*
X183117674Y-102884447D01*
X183116731Y-102884341D01*
X183098889Y-102876404D01*
X183065321Y-102857493D01*
X183019744Y-102829902D01*
X182965875Y-102795926D01*
X182907431Y-102757860D01*
X182848128Y-102718001D01*
X182789221Y-102676957D01*
X182693461Y-102605976D01*
X182602786Y-102532350D01*
X182510590Y-102450609D01*
X182410269Y-102355280D01*
X182337610Y-102282278D01*
X182149792Y-102070892D01*
X181982355Y-101846960D01*
X181835666Y-101611250D01*
X181710091Y-101364535D01*
X181605994Y-101107584D01*
X181523743Y-100841169D01*
X181463702Y-100566059D01*
X181426239Y-100283024D01*
X181422897Y-100241862D01*
X181416114Y-100077490D01*
X181417892Y-99901203D01*
X181427829Y-99721191D01*
X181445520Y-99545647D01*
X181470562Y-99382764D01*
X181477836Y-99343622D01*
X182301484Y-99343622D01*
X183125131Y-99343622D01*
X183125131Y-101114034D01*
G37*
G36*
X186258523Y-97093106D02*
G01*
X186297049Y-97113611D01*
X186389264Y-97166945D01*
X186489473Y-97229622D01*
X186590829Y-97297146D01*
X186686485Y-97365018D01*
X186769591Y-97428743D01*
X186835960Y-97484320D01*
X186961494Y-97599228D01*
X187087662Y-97726234D01*
X187208996Y-97859473D01*
X187320027Y-97993082D01*
X187415286Y-98121194D01*
X187431992Y-98145520D01*
X187580543Y-98385083D01*
X187707475Y-98634936D01*
X187812423Y-98894064D01*
X187895020Y-99161456D01*
X187954902Y-99436097D01*
X187991700Y-99716974D01*
X187995633Y-99776367D01*
X187998541Y-99859975D01*
X187999772Y-99954203D01*
X187999397Y-100053274D01*
X187997490Y-100151406D01*
X187994124Y-100242822D01*
X187989372Y-100321741D01*
X187983307Y-100382384D01*
X187975579Y-100439591D01*
X187691109Y-100439856D01*
X187670849Y-100439881D01*
X187582876Y-100440246D01*
X187514955Y-100441172D01*
X187463724Y-100442884D01*
X187425822Y-100445605D01*
X187397886Y-100449561D01*
X187376554Y-100454977D01*
X187358465Y-100462076D01*
X187339700Y-100472271D01*
X187313265Y-100491385D01*
X187281231Y-100519594D01*
X187241678Y-100558818D01*
X187192688Y-100610976D01*
X187132341Y-100677986D01*
X187058719Y-100761766D01*
X187047712Y-100774300D01*
X187008963Y-100816906D01*
X186976269Y-100850558D01*
X186952790Y-100872106D01*
X186941689Y-100878398D01*
X186941004Y-100877862D01*
X186928479Y-100864366D01*
X186903636Y-100835566D01*
X186868953Y-100794397D01*
X186826905Y-100743796D01*
X186779970Y-100686700D01*
X186729457Y-100625251D01*
X186677577Y-100564535D01*
X186633745Y-100518748D01*
X186594042Y-100485784D01*
X186554551Y-100463538D01*
X186511355Y-100449902D01*
X186460534Y-100442769D01*
X186398171Y-100440035D01*
X186320348Y-100439591D01*
X186136037Y-100439591D01*
X186136037Y-98734890D01*
X186136037Y-97030189D01*
X186258523Y-97093106D01*
G37*
G36*
X175207839Y-97709286D02*
G01*
X175271411Y-97742278D01*
X175279050Y-97747580D01*
X175290504Y-97755019D01*
X175300795Y-97762049D01*
X175309980Y-97769895D01*
X175318120Y-97779782D01*
X175325275Y-97792935D01*
X175331503Y-97810578D01*
X175336865Y-97833936D01*
X175341419Y-97864234D01*
X175345227Y-97902697D01*
X175348346Y-97950549D01*
X175350837Y-98009016D01*
X175352759Y-98079322D01*
X175354171Y-98162692D01*
X175355134Y-98260351D01*
X175355707Y-98373523D01*
X175355949Y-98503434D01*
X175355920Y-98651308D01*
X175355679Y-98818370D01*
X175355286Y-99005845D01*
X175354800Y-99214957D01*
X175354282Y-99446932D01*
X175350973Y-101013542D01*
X175316240Y-101059077D01*
X175308020Y-101068941D01*
X175271225Y-101102512D01*
X175231935Y-101127124D01*
X175179451Y-101144984D01*
X175122125Y-101146639D01*
X175061926Y-101127402D01*
X175035696Y-101113572D01*
X174981981Y-101069388D01*
X174948314Y-101013890D01*
X174948255Y-101013727D01*
X174946151Y-100997531D01*
X174944246Y-100961399D01*
X174942537Y-100904956D01*
X174941021Y-100827823D01*
X174939695Y-100729623D01*
X174938555Y-100609979D01*
X174937599Y-100468513D01*
X174936824Y-100304847D01*
X174936226Y-100118605D01*
X174935803Y-99909408D01*
X174935551Y-99676879D01*
X174935468Y-99420642D01*
X174935468Y-99349289D01*
X174935481Y-99130738D01*
X174935526Y-98934631D01*
X174935622Y-98759709D01*
X174935786Y-98604712D01*
X174936039Y-98468383D01*
X174936398Y-98349462D01*
X174936882Y-98246689D01*
X174937509Y-98158806D01*
X174938299Y-98084554D01*
X174939270Y-98022674D01*
X174940440Y-97971907D01*
X174941828Y-97930993D01*
X174943453Y-97898674D01*
X174945334Y-97873690D01*
X174947489Y-97854783D01*
X174949936Y-97840694D01*
X174952694Y-97830163D01*
X174955782Y-97821931D01*
X174959219Y-97814740D01*
X174974824Y-97788434D01*
X175021674Y-97738886D01*
X175078864Y-97708542D01*
X175142288Y-97698358D01*
X175207839Y-97709286D01*
G37*
G36*
X176210858Y-99178544D02*
G01*
X176267161Y-99213524D01*
X176267224Y-99213579D01*
X176283302Y-99227487D01*
X176296986Y-99240071D01*
X176308469Y-99253288D01*
X176317944Y-99269092D01*
X176325602Y-99289437D01*
X176331637Y-99316278D01*
X176336241Y-99351569D01*
X176339607Y-99397265D01*
X176341926Y-99455320D01*
X176343392Y-99527690D01*
X176344197Y-99616328D01*
X176344534Y-99723190D01*
X176344594Y-99850229D01*
X176344572Y-99999401D01*
X176344581Y-100104700D01*
X176344657Y-100234049D01*
X176344866Y-100342584D01*
X176345273Y-100432221D01*
X176345944Y-100504873D01*
X176346944Y-100562458D01*
X176348339Y-100606890D01*
X176350194Y-100640086D01*
X176352574Y-100663960D01*
X176355546Y-100680428D01*
X176359173Y-100691405D01*
X176363523Y-100698808D01*
X176368659Y-100704551D01*
X176374083Y-100709560D01*
X176384535Y-100716236D01*
X176399651Y-100721146D01*
X176422669Y-100724561D01*
X176456826Y-100726748D01*
X176505358Y-100727978D01*
X176571503Y-100728518D01*
X176658498Y-100728638D01*
X176659641Y-100728638D01*
X176749510Y-100728052D01*
X176825880Y-100726398D01*
X176886106Y-100723791D01*
X176927542Y-100720344D01*
X176947545Y-100716171D01*
X176950886Y-100714134D01*
X176955341Y-100709572D01*
X176959079Y-100701587D01*
X176962163Y-100688300D01*
X176964655Y-100667834D01*
X176966618Y-100638309D01*
X176968115Y-100597846D01*
X176969210Y-100544569D01*
X176969965Y-100476596D01*
X176970442Y-100392051D01*
X176970705Y-100289055D01*
X176970817Y-100165728D01*
X176970840Y-100020193D01*
X176970840Y-99336682D01*
X176997938Y-99283042D01*
X177038730Y-99226327D01*
X177094123Y-99186390D01*
X177159425Y-99166377D01*
X177230497Y-99168330D01*
X177230966Y-99168419D01*
X177272038Y-99185029D01*
X177315963Y-99215908D01*
X177354446Y-99254116D01*
X177379191Y-99292713D01*
X177381845Y-99304963D01*
X177384491Y-99333802D01*
X177386629Y-99379241D01*
X177388276Y-99442351D01*
X177389444Y-99524199D01*
X177390149Y-99625856D01*
X177390406Y-99748390D01*
X177390228Y-99892869D01*
X177389631Y-100060364D01*
X177386345Y-100794878D01*
X177348706Y-100873162D01*
X177298993Y-100955635D01*
X177227364Y-101032907D01*
X177141211Y-101092093D01*
X177042810Y-101131273D01*
X177019209Y-101136586D01*
X176987999Y-101140923D01*
X176947453Y-101144056D01*
X176894624Y-101146097D01*
X176826562Y-101147156D01*
X176740320Y-101147345D01*
X176632947Y-101146777D01*
X176289032Y-101144143D01*
X176198069Y-101099164D01*
X176165714Y-101082020D01*
X176084366Y-101024639D01*
X176019581Y-100953149D01*
X175967179Y-100863281D01*
X175929067Y-100782835D01*
X175925712Y-100060217D01*
X175922357Y-99337600D01*
X175949799Y-99283501D01*
X175979306Y-99238976D01*
X176029058Y-99195819D01*
X176087263Y-99170694D01*
X176149378Y-99164601D01*
X176210858Y-99178544D01*
G37*
G36*
X184811239Y-96709763D02*
G01*
X184858428Y-96711315D01*
X184980573Y-96717451D01*
X185090598Y-96726939D01*
X185197245Y-96740852D01*
X185309255Y-96760260D01*
X185435368Y-96786235D01*
X185490678Y-96798675D01*
X185535963Y-96810285D01*
X185563556Y-96819862D01*
X185576706Y-96828570D01*
X185578659Y-96837573D01*
X185577271Y-96841629D01*
X185568446Y-96865969D01*
X185551952Y-96910893D01*
X185528278Y-96975080D01*
X185497914Y-97057212D01*
X185461349Y-97155968D01*
X185419073Y-97270029D01*
X185371575Y-97398076D01*
X185319343Y-97538789D01*
X185262869Y-97690848D01*
X185202641Y-97852933D01*
X185139149Y-98023726D01*
X185072881Y-98201906D01*
X185004328Y-98386154D01*
X184948273Y-98536524D01*
X184867042Y-98753624D01*
X184782849Y-98977776D01*
X184696405Y-99207127D01*
X184608418Y-99439826D01*
X184519600Y-99674020D01*
X184430659Y-99907858D01*
X184342305Y-100139489D01*
X184255248Y-100367060D01*
X184170198Y-100588720D01*
X184087865Y-100802616D01*
X184008957Y-101006898D01*
X183934186Y-101199713D01*
X183864260Y-101379210D01*
X183799890Y-101543537D01*
X183741785Y-101690842D01*
X183690655Y-101819273D01*
X183647210Y-101926979D01*
X183612898Y-102011284D01*
X183606876Y-100541962D01*
X183606571Y-100468788D01*
X183605536Y-100241046D01*
X183604463Y-100036228D01*
X183603337Y-99853443D01*
X183602149Y-99691797D01*
X183600885Y-99550397D01*
X183599533Y-99428349D01*
X183598082Y-99324760D01*
X183596519Y-99238738D01*
X183594832Y-99169389D01*
X183593010Y-99115819D01*
X183591039Y-99077137D01*
X183588909Y-99052447D01*
X183586607Y-99040858D01*
X183577872Y-99023884D01*
X183539930Y-98972592D01*
X183490503Y-98926077D01*
X183438266Y-98892988D01*
X183432649Y-98890436D01*
X183421709Y-98886023D01*
X183409131Y-98882213D01*
X183393189Y-98878955D01*
X183372155Y-98876195D01*
X183344303Y-98873882D01*
X183307905Y-98871961D01*
X183261236Y-98870382D01*
X183202567Y-98869091D01*
X183130173Y-98868035D01*
X183042326Y-98867161D01*
X182937300Y-98866419D01*
X182813367Y-98865753D01*
X182668800Y-98865113D01*
X182501874Y-98864444D01*
X182366309Y-98863851D01*
X182229704Y-98863121D01*
X182102115Y-98862304D01*
X181985425Y-98861419D01*
X181881519Y-98860485D01*
X181792280Y-98859520D01*
X181719593Y-98858543D01*
X181665341Y-98857572D01*
X181631408Y-98856627D01*
X181619679Y-98855725D01*
X181623691Y-98840326D01*
X181636413Y-98806479D01*
X181655993Y-98759232D01*
X181680526Y-98702947D01*
X181708106Y-98641987D01*
X181736828Y-98580714D01*
X181764786Y-98523490D01*
X181807010Y-98442187D01*
X181946654Y-98206927D01*
X182104927Y-97984948D01*
X182280441Y-97777284D01*
X182471810Y-97584967D01*
X182677647Y-97409031D01*
X182896563Y-97250509D01*
X183127174Y-97110434D01*
X183368090Y-96989839D01*
X183617925Y-96889757D01*
X183875293Y-96811222D01*
X184138805Y-96755266D01*
X184219351Y-96742516D01*
X184367521Y-96723462D01*
X184508831Y-96712107D01*
X184653373Y-96707768D01*
X184811239Y-96709763D01*
G37*
G36*
X185654292Y-99368257D02*
G01*
X185660314Y-100710573D01*
X185686884Y-100760243D01*
X185714205Y-100801441D01*
X185768582Y-100855341D01*
X185831549Y-100893052D01*
X185849911Y-100898370D01*
X185885685Y-100903368D01*
X185938193Y-100906757D01*
X186009877Y-100908683D01*
X186103179Y-100909293D01*
X186336053Y-100909293D01*
X186372643Y-100948435D01*
X186387044Y-100964653D01*
X186416183Y-100998946D01*
X186454463Y-101044944D01*
X186498588Y-101098680D01*
X186545261Y-101156187D01*
X186613105Y-101239592D01*
X186671187Y-101308740D01*
X186719433Y-101362475D01*
X186760246Y-101402714D01*
X186796030Y-101431375D01*
X186829188Y-101450373D01*
X186862123Y-101461626D01*
X186897238Y-101467050D01*
X186936938Y-101468563D01*
X186969829Y-101467887D01*
X187005346Y-101463783D01*
X187038442Y-101454308D01*
X187071663Y-101437584D01*
X187107554Y-101411733D01*
X187148662Y-101374875D01*
X187197533Y-101325133D01*
X187256713Y-101260628D01*
X187328748Y-101179481D01*
X187377320Y-101124373D01*
X187430139Y-101064613D01*
X187476437Y-101012405D01*
X187513872Y-100970387D01*
X187540100Y-100941194D01*
X187552778Y-100927464D01*
X187560874Y-100922908D01*
X187589555Y-100916195D01*
X187631831Y-100911398D01*
X187682332Y-100908557D01*
X187735690Y-100907713D01*
X187786537Y-100908905D01*
X187829503Y-100912173D01*
X187859220Y-100917558D01*
X187870319Y-100925099D01*
X187869648Y-100930155D01*
X187863139Y-100955727D01*
X187851187Y-100995246D01*
X187835621Y-101042524D01*
X187823408Y-101077648D01*
X187719528Y-101336211D01*
X187594873Y-101584887D01*
X187450638Y-101822011D01*
X187288018Y-102045917D01*
X187108209Y-102254939D01*
X186912408Y-102447412D01*
X186701809Y-102621672D01*
X186550564Y-102729643D01*
X186310082Y-102877141D01*
X186059010Y-103003353D01*
X185798597Y-103107797D01*
X185530095Y-103189992D01*
X185254755Y-103249459D01*
X184973827Y-103285716D01*
X184951849Y-103287301D01*
X184887058Y-103290010D01*
X184807446Y-103291466D01*
X184719442Y-103291717D01*
X184629474Y-103290809D01*
X184543970Y-103288790D01*
X184469357Y-103285707D01*
X184412064Y-103281606D01*
X184380458Y-103278250D01*
X184295943Y-103267464D01*
X184204949Y-103253705D01*
X184111269Y-103237742D01*
X184018699Y-103220342D01*
X183931034Y-103202273D01*
X183852068Y-103184302D01*
X183785596Y-103167196D01*
X183735412Y-103151724D01*
X183705312Y-103138653D01*
X183705894Y-103130867D01*
X183712990Y-103106248D01*
X183727081Y-103064389D01*
X183748341Y-103004823D01*
X183776950Y-102927084D01*
X183813083Y-102830706D01*
X183856918Y-102715224D01*
X183908631Y-102580172D01*
X183968400Y-102425082D01*
X184036401Y-102249490D01*
X184112812Y-102052930D01*
X184197809Y-101834935D01*
X184291570Y-101595039D01*
X184336252Y-101480699D01*
X184418956Y-101268423D01*
X184504231Y-101048791D01*
X184591041Y-100824506D01*
X184678347Y-100598276D01*
X184765112Y-100372806D01*
X184850298Y-100150802D01*
X184932868Y-99934970D01*
X185011785Y-99728014D01*
X185086010Y-99532642D01*
X185154506Y-99351558D01*
X185216236Y-99187468D01*
X185270162Y-99043079D01*
X185648270Y-98025941D01*
X185654292Y-99368257D01*
G37*
G36*
X172167598Y-99207102D02*
G01*
X172191780Y-99219277D01*
X172282019Y-99280111D01*
X172354663Y-99356080D01*
X172408203Y-99445315D01*
X172441129Y-99545945D01*
X172443410Y-99561726D01*
X172446727Y-99606667D01*
X172449477Y-99674526D01*
X172451643Y-99764578D01*
X172453210Y-99876099D01*
X172454161Y-100008364D01*
X172454482Y-100160651D01*
X172454438Y-100259293D01*
X172454127Y-100382883D01*
X172453348Y-100486356D01*
X172451908Y-100572057D01*
X172449612Y-100642331D01*
X172446265Y-100699524D01*
X172441672Y-100745979D01*
X172435640Y-100784043D01*
X172427973Y-100816061D01*
X172418478Y-100844378D01*
X172406960Y-100871338D01*
X172393224Y-100899287D01*
X172384141Y-100915886D01*
X172329897Y-100987914D01*
X172258624Y-101050963D01*
X172175863Y-101100801D01*
X172087151Y-101133195D01*
X172086982Y-101133237D01*
X172057005Y-101137943D01*
X172008355Y-101141762D01*
X171939951Y-101144730D01*
X171850712Y-101146882D01*
X171739557Y-101148252D01*
X171605406Y-101148876D01*
X171567366Y-101148938D01*
X171461379Y-101148977D01*
X171376012Y-101148685D01*
X171308627Y-101147939D01*
X171256590Y-101146618D01*
X171217261Y-101144600D01*
X171188006Y-101141764D01*
X171166186Y-101137987D01*
X171149165Y-101133148D01*
X171134307Y-101127124D01*
X171121204Y-101120631D01*
X171069069Y-101080739D01*
X171033448Y-101029116D01*
X171014613Y-100970358D01*
X171012833Y-100909063D01*
X171028378Y-100849829D01*
X171061517Y-100797254D01*
X171112521Y-100755935D01*
X171124043Y-100749626D01*
X171137597Y-100743613D01*
X171153823Y-100738898D01*
X171175396Y-100735322D01*
X171204994Y-100732724D01*
X171245294Y-100730946D01*
X171298973Y-100729828D01*
X171368709Y-100729210D01*
X171457178Y-100728933D01*
X171567056Y-100728837D01*
X171685949Y-100728411D01*
X171788890Y-100727262D01*
X171872786Y-100725426D01*
X171936379Y-100722941D01*
X171978408Y-100719844D01*
X171997616Y-100716171D01*
X172006126Y-100710155D01*
X172012802Y-100699336D01*
X172017111Y-100680294D01*
X172019561Y-100649063D01*
X172020658Y-100601680D01*
X172020911Y-100534176D01*
X172020911Y-100364649D01*
X171981770Y-100371424D01*
X171972612Y-100372393D01*
X171939207Y-100374185D01*
X171886721Y-100375986D01*
X171818367Y-100377717D01*
X171737359Y-100379302D01*
X171646908Y-100380665D01*
X171550227Y-100381728D01*
X171157827Y-100385258D01*
X171107862Y-100352193D01*
X171076461Y-100327062D01*
X171035511Y-100273122D01*
X171013527Y-100210761D01*
X171011908Y-100144989D01*
X171032053Y-100080814D01*
X171033449Y-100078093D01*
X171054067Y-100042577D01*
X171076981Y-100014812D01*
X171105301Y-99993859D01*
X171142136Y-99978776D01*
X171190593Y-99968623D01*
X171253783Y-99962458D01*
X171334814Y-99959341D01*
X171436796Y-99958331D01*
X171504278Y-99957921D01*
X171598675Y-99956698D01*
X171692974Y-99954846D01*
X171779177Y-99952528D01*
X171849290Y-99949907D01*
X172020911Y-99942056D01*
X172020911Y-99775743D01*
X172020737Y-99718288D01*
X172019778Y-99668609D01*
X172017509Y-99635645D01*
X172013408Y-99615388D01*
X172006950Y-99603830D01*
X171997616Y-99596962D01*
X171979288Y-99593384D01*
X171937868Y-99590280D01*
X171874804Y-99587802D01*
X171791333Y-99585988D01*
X171688691Y-99584874D01*
X171568114Y-99584494D01*
X171161909Y-99584494D01*
X171110822Y-99554555D01*
X171072121Y-99524425D01*
X171034275Y-99471822D01*
X171013519Y-99410305D01*
X171011619Y-99345807D01*
X171030342Y-99284260D01*
X171037019Y-99272853D01*
X171064623Y-99237641D01*
X171097686Y-99205977D01*
X171143973Y-99168989D01*
X171615562Y-99168989D01*
X172087151Y-99168989D01*
X172167598Y-99207102D01*
G37*
G36*
X179701990Y-100833994D02*
G01*
X179702406Y-101003171D01*
X179702841Y-101190952D01*
X179703171Y-101357143D01*
X179703374Y-101503123D01*
X179703431Y-101630272D01*
X179703319Y-101739968D01*
X179703017Y-101833590D01*
X179702506Y-101912518D01*
X179701763Y-101978129D01*
X179700767Y-102031802D01*
X179699498Y-102074918D01*
X179697934Y-102108854D01*
X179696055Y-102134989D01*
X179693839Y-102154703D01*
X179691265Y-102169374D01*
X179688312Y-102180382D01*
X179684960Y-102189104D01*
X179681186Y-102196920D01*
X179660868Y-102228722D01*
X179611167Y-102276287D01*
X179550688Y-102307020D01*
X179516913Y-102313582D01*
X179455986Y-102308665D01*
X179396477Y-102285910D01*
X179344842Y-102248202D01*
X179307541Y-102198427D01*
X179303619Y-102190411D01*
X179298321Y-102177215D01*
X179294028Y-102161276D01*
X179290634Y-102140224D01*
X179288034Y-102111687D01*
X179286123Y-102073292D01*
X179284796Y-102022669D01*
X179283947Y-101957445D01*
X179283470Y-101875250D01*
X179283262Y-101773710D01*
X179283216Y-101650455D01*
X179283216Y-101150165D01*
X178810023Y-101150165D01*
X178717100Y-101150089D01*
X178600642Y-101149586D01*
X178504038Y-101148398D01*
X178424781Y-101146277D01*
X178360364Y-101142975D01*
X178308279Y-101138245D01*
X178266020Y-101131840D01*
X178231079Y-101123511D01*
X178200949Y-101113012D01*
X178173123Y-101100095D01*
X178145093Y-101084512D01*
X178142596Y-101083032D01*
X178069015Y-101027149D01*
X178003921Y-100954763D01*
X177953903Y-100873162D01*
X177916265Y-100794878D01*
X177916265Y-100156566D01*
X178331770Y-100156566D01*
X178331771Y-100193352D01*
X178331829Y-100316320D01*
X178332036Y-100417875D01*
X178332479Y-100500124D01*
X178333246Y-100565176D01*
X178334425Y-100615140D01*
X178336104Y-100652125D01*
X178338370Y-100678239D01*
X178341311Y-100695592D01*
X178345016Y-100706293D01*
X178349571Y-100712449D01*
X178355065Y-100716171D01*
X178357692Y-100717135D01*
X178382733Y-100720542D01*
X178430613Y-100723388D01*
X178500346Y-100725646D01*
X178590944Y-100727291D01*
X178701421Y-100728297D01*
X178830788Y-100728638D01*
X179283216Y-100728638D01*
X179283216Y-100175492D01*
X179283213Y-100146474D01*
X179283101Y-100019798D01*
X179282775Y-99914716D01*
X179282168Y-99829161D01*
X179281211Y-99761067D01*
X179279836Y-99708365D01*
X179277973Y-99668990D01*
X179275556Y-99640875D01*
X179272515Y-99621952D01*
X179268783Y-99610156D01*
X179264290Y-99603420D01*
X179257470Y-99598708D01*
X179244973Y-99594574D01*
X179224829Y-99591310D01*
X179194689Y-99588818D01*
X179152206Y-99587000D01*
X179095030Y-99585756D01*
X179020813Y-99584990D01*
X178927207Y-99584602D01*
X178811862Y-99584494D01*
X178793023Y-99584501D01*
X178669743Y-99584957D01*
X178565136Y-99586100D01*
X178480282Y-99587902D01*
X178416265Y-99590332D01*
X178374165Y-99593362D01*
X178355065Y-99596962D01*
X178353499Y-99597838D01*
X178348265Y-99602004D01*
X178343945Y-99609169D01*
X178340454Y-99621442D01*
X178337701Y-99640932D01*
X178335601Y-99669747D01*
X178334064Y-99709997D01*
X178333004Y-99763789D01*
X178332332Y-99833233D01*
X178331961Y-99920439D01*
X178331803Y-100027513D01*
X178331770Y-100156566D01*
X177916265Y-100156566D01*
X177916265Y-100150545D01*
X177916265Y-99506211D01*
X177951060Y-99439971D01*
X177997567Y-99364102D01*
X178066767Y-99286074D01*
X178148760Y-99227448D01*
X178245256Y-99186753D01*
X178265834Y-99180829D01*
X178287566Y-99175896D01*
X178312666Y-99171960D01*
X178343723Y-99168908D01*
X178383327Y-99166630D01*
X178434069Y-99165016D01*
X178498538Y-99163953D01*
X178579325Y-99163332D01*
X178679018Y-99163040D01*
X178800209Y-99162968D01*
X178912409Y-99163075D01*
X179025692Y-99163622D01*
X179119502Y-99164863D01*
X179196347Y-99167047D01*
X179258731Y-99170424D01*
X179309160Y-99175244D01*
X179350141Y-99181757D01*
X179384180Y-99190212D01*
X179413783Y-99200860D01*
X179441455Y-99213950D01*
X179469703Y-99229733D01*
X179511669Y-99258921D01*
X179572221Y-99315412D01*
X179626224Y-99381594D01*
X179666425Y-99449369D01*
X179698721Y-99518254D01*
X179700354Y-100175492D01*
X179701990Y-100833994D01*
G37*
G36*
X173394175Y-99164492D02*
G01*
X173526734Y-99165396D01*
X173643715Y-99166286D01*
X173746060Y-99167205D01*
X173829125Y-99168239D01*
X173895379Y-99169524D01*
X173947292Y-99171200D01*
X173987332Y-99173403D01*
X174017968Y-99176271D01*
X174041668Y-99179943D01*
X174060901Y-99184555D01*
X174078136Y-99190246D01*
X174095842Y-99197153D01*
X174163972Y-99233467D01*
X174236535Y-99291082D01*
X174300016Y-99361194D01*
X174348128Y-99437807D01*
X174387483Y-99517748D01*
X174387483Y-99776939D01*
X174387483Y-99778591D01*
X174387412Y-99863596D01*
X174386944Y-99928363D01*
X174385692Y-99976675D01*
X174383272Y-100012317D01*
X174379299Y-100039073D01*
X174373387Y-100060727D01*
X174365151Y-100081062D01*
X174354207Y-100103863D01*
X174335798Y-100137854D01*
X174286862Y-100208231D01*
X174230275Y-100268920D01*
X174172123Y-100312935D01*
X174148295Y-100326710D01*
X174117759Y-100343021D01*
X174088252Y-100355945D01*
X174056633Y-100365947D01*
X174019765Y-100373488D01*
X173974507Y-100379035D01*
X173917721Y-100383049D01*
X173846267Y-100385996D01*
X173757007Y-100388338D01*
X173646800Y-100390540D01*
X173279470Y-100397439D01*
X173276072Y-100546995D01*
X173275466Y-100588774D01*
X173276392Y-100649989D01*
X173279835Y-100690865D01*
X173285690Y-100709584D01*
X173287835Y-100710753D01*
X173310634Y-100714626D01*
X173357244Y-100718140D01*
X173427717Y-100721295D01*
X173522111Y-100724096D01*
X173640479Y-100726543D01*
X173782876Y-100728638D01*
X173899686Y-100730111D01*
X173999305Y-100731493D01*
X174079501Y-100732881D01*
X174142645Y-100734430D01*
X174191110Y-100736294D01*
X174227267Y-100738629D01*
X174253489Y-100741590D01*
X174272147Y-100745329D01*
X174285614Y-100750003D01*
X174296261Y-100755766D01*
X174306461Y-100762773D01*
X174328612Y-100781230D01*
X174367422Y-100833455D01*
X174388744Y-100894706D01*
X174391952Y-100959371D01*
X174376419Y-101021834D01*
X174341517Y-101076481D01*
X174336005Y-101082001D01*
X174304228Y-101106341D01*
X174267047Y-101127402D01*
X174256194Y-101131979D01*
X174240620Y-101136827D01*
X174220718Y-101140709D01*
X174194020Y-101143732D01*
X174158055Y-101146005D01*
X174110353Y-101147636D01*
X174048444Y-101148733D01*
X173969858Y-101149404D01*
X173872125Y-101149757D01*
X173752775Y-101149901D01*
X173743681Y-101149904D01*
X173605510Y-101149545D01*
X173486601Y-101148411D01*
X173387918Y-101146529D01*
X173310424Y-101143920D01*
X173255082Y-101140610D01*
X173222856Y-101136624D01*
X173183539Y-101126566D01*
X173087502Y-101085744D01*
X173004150Y-101025863D01*
X172935538Y-100949040D01*
X172883720Y-100857393D01*
X172850751Y-100753039D01*
X172847660Y-100735392D01*
X172842065Y-100676699D01*
X172840006Y-100605461D01*
X172841201Y-100527770D01*
X172845368Y-100449722D01*
X172852225Y-100377408D01*
X172861491Y-100316924D01*
X172872884Y-100274363D01*
X172914603Y-100192071D01*
X172975781Y-100112413D01*
X173048415Y-100049171D01*
X173068360Y-100035649D01*
X173099929Y-100015953D01*
X173130758Y-100000290D01*
X173163951Y-99988148D01*
X173202610Y-99979017D01*
X173249840Y-99972388D01*
X173308743Y-99967749D01*
X173382423Y-99964590D01*
X173473984Y-99962400D01*
X173586529Y-99960670D01*
X173663827Y-99959425D01*
X173761154Y-99957126D01*
X173840698Y-99954295D01*
X173900882Y-99951006D01*
X173940131Y-99947333D01*
X173956870Y-99943349D01*
X173959363Y-99940164D01*
X173966239Y-99915857D01*
X173970796Y-99875010D01*
X173973099Y-99823352D01*
X173973212Y-99766613D01*
X173971200Y-99710520D01*
X173967126Y-99660805D01*
X173961056Y-99623195D01*
X173953053Y-99603420D01*
X173951526Y-99602042D01*
X173943062Y-99597409D01*
X173928656Y-99593655D01*
X173906041Y-99590691D01*
X173872946Y-99588426D01*
X173827106Y-99586773D01*
X173766252Y-99585643D01*
X173688114Y-99584945D01*
X173590427Y-99584592D01*
X173470921Y-99584494D01*
X173353015Y-99584420D01*
X173249126Y-99584016D01*
X173164694Y-99583022D01*
X173097335Y-99581178D01*
X173044667Y-99578225D01*
X173004305Y-99573902D01*
X172973867Y-99567950D01*
X172950969Y-99560109D01*
X172933227Y-99550119D01*
X172918259Y-99537720D01*
X172903682Y-99522653D01*
X172891959Y-99508949D01*
X172857133Y-99447358D01*
X172844670Y-99380996D01*
X172854799Y-99313775D01*
X172887748Y-99249604D01*
X172900311Y-99232651D01*
X172915262Y-99215090D01*
X172931890Y-99200704D01*
X172952434Y-99189198D01*
X172979137Y-99180277D01*
X173014239Y-99173645D01*
X173059982Y-99169008D01*
X173118606Y-99166069D01*
X173192352Y-99164534D01*
X173283461Y-99164107D01*
X173394175Y-99164492D01*
G37*
%TD*%
%LPC*%
D11*
%TO.C,H3*%
X168000000Y-108000000D03*
%TD*%
D12*
%TO.C,J3*%
X166500000Y-100525000D03*
D13*
X166500000Y-95525000D03*
%TD*%
D12*
%TO.C,J1*%
X197740000Y-103540000D03*
D13*
X192740000Y-103540000D03*
%TD*%
D11*
%TO.C,H2*%
X198300000Y-77720000D03*
%TD*%
D14*
%TO.C,J4*%
X188540000Y-108500000D03*
D15*
X187270000Y-108500000D03*
X186000000Y-108500000D03*
X184730000Y-108500000D03*
%TD*%
%LPD*%
M02*
