%TF.GenerationSoftware,KiCad,Pcbnew,9.0.0*%
%TF.CreationDate,2025-03-07T10:17:41+01:00*%
%TF.ProjectId,converter1A,636f6e76-6572-4746-9572-31412e6b6963,rev?*%
%TF.SameCoordinates,Original*%
%TF.FileFunction,Drillmap*%
%TF.FilePolarity,Positive*%
%FSLAX45Y45*%
G04 Gerber Fmt 4.5, Leading zero omitted, Abs format (unit mm)*
G04 Created by KiCad (PCBNEW 9.0.0) date 2025-03-07 10:17:41*
%MOMM*%
%LPD*%
G01*
G04 APERTURE LIST*
%ADD10C,0.050000*%
%ADD11C,0.200000*%
%ADD12C,0.100000*%
%ADD13C,0.150000*%
G04 APERTURE END LIST*
D10*
X16400000Y-7400000D02*
X20235000Y-7400000D01*
X20235000Y-11150000D01*
X16400000Y-11150000D01*
X16400000Y-7400000D01*
D11*
D12*
X16611000Y-7727000D02*
X16641000Y-7757000D01*
X16641000Y-7727000D02*
X16611000Y-7757000D01*
X16685000Y-8085000D02*
X16715000Y-8115000D01*
X16715000Y-8085000D02*
X16685000Y-8115000D01*
X17335000Y-9335000D02*
X17365000Y-9365000D01*
X17365000Y-9335000D02*
X17335000Y-9365000D01*
X17379157Y-8745000D02*
X17409157Y-8775000D01*
X17409157Y-8745000D02*
X17379157Y-8775000D01*
X17385000Y-10785000D02*
X17415000Y-10815000D01*
X17415000Y-10785000D02*
X17385000Y-10815000D01*
X17391569Y-8828431D02*
X17421569Y-8858431D01*
X17421569Y-8828431D02*
X17391569Y-8858431D01*
X17393000Y-7622000D02*
X17423000Y-7652000D01*
X17423000Y-7622000D02*
X17393000Y-7652000D01*
X17871758Y-8900000D02*
X17901758Y-8930000D01*
X17901758Y-8900000D02*
X17871758Y-8930000D01*
X17885000Y-8685000D02*
X17915000Y-8715000D01*
X17915000Y-8685000D02*
X17885000Y-8715000D01*
X17885000Y-9035000D02*
X17915000Y-9065000D01*
X17915000Y-9035000D02*
X17885000Y-9065000D01*
X17985000Y-8935000D02*
X18015000Y-8965000D01*
X18015000Y-8935000D02*
X17985000Y-8965000D01*
X18335000Y-7535000D02*
X18365000Y-7565000D01*
X18365000Y-7535000D02*
X18335000Y-7565000D01*
X18335000Y-9585000D02*
X18365000Y-9615000D01*
X18365000Y-9585000D02*
X18335000Y-9615000D01*
X18485000Y-8535000D02*
X18515000Y-8565000D01*
X18515000Y-8535000D02*
X18485000Y-8565000D01*
X19785000Y-8135000D02*
X19815000Y-8165000D01*
X19815000Y-8135000D02*
X19785000Y-8165000D01*
X16940000Y-8720000D02*
G75*
G02*
X16900000Y-8720000I-20000J0D01*
G01*
X16900000Y-8720000D02*
G75*
G02*
X16940000Y-8720000I20000J0D01*
G01*
X17470000Y-8310000D02*
G75*
G02*
X17430000Y-8310000I-20000J0D01*
G01*
X17430000Y-8310000D02*
G75*
G02*
X17470000Y-8310000I20000J0D01*
G01*
X19340000Y-8070000D02*
G75*
G02*
X19300000Y-8070000I-20000J0D01*
G01*
X19300000Y-8070000D02*
G75*
G02*
X19340000Y-8070000I20000J0D01*
G01*
X19798500Y-9971500D02*
G75*
G02*
X19758500Y-9971500I-20000J0D01*
G01*
X19758500Y-9971500D02*
G75*
G02*
X19798500Y-9971500I20000J0D01*
G01*
X18473000Y-10817500D02*
X18473000Y-10882500D01*
X18440500Y-10850000D02*
X18505500Y-10850000D01*
X18600000Y-10817500D02*
X18600000Y-10882500D01*
X18567500Y-10850000D02*
X18632500Y-10850000D01*
X18727000Y-10817500D02*
X18727000Y-10882500D01*
X18694500Y-10850000D02*
X18759500Y-10850000D01*
X18854000Y-10817500D02*
X18854000Y-10882500D01*
X18821500Y-10850000D02*
X18886500Y-10850000D01*
D13*
X16703033Y-9605534D02*
X16703033Y-9499467D01*
X16596966Y-9499467D01*
X16596966Y-9605534D01*
X16703033Y-9605534D01*
X16703033Y-10105534D02*
X16703033Y-9999467D01*
X16596966Y-9999467D01*
X16596966Y-10105534D01*
X16703033Y-10105534D01*
X19327034Y-10407034D02*
X19327034Y-10300967D01*
X19220967Y-10300967D01*
X19220967Y-10407034D01*
X19327034Y-10407034D01*
X19827034Y-10407034D02*
X19827034Y-10300967D01*
X19720967Y-10300967D01*
X19720967Y-10407034D01*
X19827034Y-10407034D01*
D11*
X16658277Y-11463984D02*
X16658277Y-11263984D01*
X16658277Y-11263984D02*
X16705896Y-11263984D01*
X16705896Y-11263984D02*
X16734467Y-11273508D01*
X16734467Y-11273508D02*
X16753515Y-11292555D01*
X16753515Y-11292555D02*
X16763039Y-11311603D01*
X16763039Y-11311603D02*
X16772562Y-11349698D01*
X16772562Y-11349698D02*
X16772562Y-11378269D01*
X16772562Y-11378269D02*
X16763039Y-11416365D01*
X16763039Y-11416365D02*
X16753515Y-11435412D01*
X16753515Y-11435412D02*
X16734467Y-11454460D01*
X16734467Y-11454460D02*
X16705896Y-11463984D01*
X16705896Y-11463984D02*
X16658277Y-11463984D01*
X16858277Y-11463984D02*
X16858277Y-11330650D01*
X16858277Y-11368746D02*
X16867801Y-11349698D01*
X16867801Y-11349698D02*
X16877324Y-11340174D01*
X16877324Y-11340174D02*
X16896372Y-11330650D01*
X16896372Y-11330650D02*
X16915420Y-11330650D01*
X16982086Y-11463984D02*
X16982086Y-11330650D01*
X16982086Y-11263984D02*
X16972563Y-11273508D01*
X16972563Y-11273508D02*
X16982086Y-11283031D01*
X16982086Y-11283031D02*
X16991610Y-11273508D01*
X16991610Y-11273508D02*
X16982086Y-11263984D01*
X16982086Y-11263984D02*
X16982086Y-11283031D01*
X17105896Y-11463984D02*
X17086848Y-11454460D01*
X17086848Y-11454460D02*
X17077324Y-11435412D01*
X17077324Y-11435412D02*
X17077324Y-11263984D01*
X17210658Y-11463984D02*
X17191610Y-11454460D01*
X17191610Y-11454460D02*
X17182086Y-11435412D01*
X17182086Y-11435412D02*
X17182086Y-11263984D01*
X17439229Y-11463984D02*
X17439229Y-11263984D01*
X17439229Y-11263984D02*
X17505896Y-11406841D01*
X17505896Y-11406841D02*
X17572563Y-11263984D01*
X17572563Y-11263984D02*
X17572563Y-11463984D01*
X17753515Y-11463984D02*
X17753515Y-11359222D01*
X17753515Y-11359222D02*
X17743991Y-11340174D01*
X17743991Y-11340174D02*
X17724944Y-11330650D01*
X17724944Y-11330650D02*
X17686848Y-11330650D01*
X17686848Y-11330650D02*
X17667801Y-11340174D01*
X17753515Y-11454460D02*
X17734467Y-11463984D01*
X17734467Y-11463984D02*
X17686848Y-11463984D01*
X17686848Y-11463984D02*
X17667801Y-11454460D01*
X17667801Y-11454460D02*
X17658277Y-11435412D01*
X17658277Y-11435412D02*
X17658277Y-11416365D01*
X17658277Y-11416365D02*
X17667801Y-11397317D01*
X17667801Y-11397317D02*
X17686848Y-11387793D01*
X17686848Y-11387793D02*
X17734467Y-11387793D01*
X17734467Y-11387793D02*
X17753515Y-11378269D01*
X17848753Y-11330650D02*
X17848753Y-11530650D01*
X17848753Y-11340174D02*
X17867801Y-11330650D01*
X17867801Y-11330650D02*
X17905896Y-11330650D01*
X17905896Y-11330650D02*
X17924944Y-11340174D01*
X17924944Y-11340174D02*
X17934467Y-11349698D01*
X17934467Y-11349698D02*
X17943991Y-11368746D01*
X17943991Y-11368746D02*
X17943991Y-11425888D01*
X17943991Y-11425888D02*
X17934467Y-11444936D01*
X17934467Y-11444936D02*
X17924944Y-11454460D01*
X17924944Y-11454460D02*
X17905896Y-11463984D01*
X17905896Y-11463984D02*
X17867801Y-11463984D01*
X17867801Y-11463984D02*
X17848753Y-11454460D01*
X18029705Y-11444936D02*
X18039229Y-11454460D01*
X18039229Y-11454460D02*
X18029705Y-11463984D01*
X18029705Y-11463984D02*
X18020182Y-11454460D01*
X18020182Y-11454460D02*
X18029705Y-11444936D01*
X18029705Y-11444936D02*
X18029705Y-11463984D01*
X18029705Y-11340174D02*
X18039229Y-11349698D01*
X18039229Y-11349698D02*
X18029705Y-11359222D01*
X18029705Y-11359222D02*
X18020182Y-11349698D01*
X18020182Y-11349698D02*
X18029705Y-11340174D01*
X18029705Y-11340174D02*
X18029705Y-11359222D01*
D12*
X16367500Y-11777500D02*
X16397500Y-11807500D01*
X16397500Y-11777500D02*
X16367500Y-11807500D01*
D11*
X16696372Y-11683984D02*
X16715420Y-11683984D01*
X16715420Y-11683984D02*
X16734467Y-11693508D01*
X16734467Y-11693508D02*
X16743991Y-11703031D01*
X16743991Y-11703031D02*
X16753515Y-11722079D01*
X16753515Y-11722079D02*
X16763039Y-11760174D01*
X16763039Y-11760174D02*
X16763039Y-11807793D01*
X16763039Y-11807793D02*
X16753515Y-11845888D01*
X16753515Y-11845888D02*
X16743991Y-11864936D01*
X16743991Y-11864936D02*
X16734467Y-11874460D01*
X16734467Y-11874460D02*
X16715420Y-11883984D01*
X16715420Y-11883984D02*
X16696372Y-11883984D01*
X16696372Y-11883984D02*
X16677324Y-11874460D01*
X16677324Y-11874460D02*
X16667801Y-11864936D01*
X16667801Y-11864936D02*
X16658277Y-11845888D01*
X16658277Y-11845888D02*
X16648753Y-11807793D01*
X16648753Y-11807793D02*
X16648753Y-11760174D01*
X16648753Y-11760174D02*
X16658277Y-11722079D01*
X16658277Y-11722079D02*
X16667801Y-11703031D01*
X16667801Y-11703031D02*
X16677324Y-11693508D01*
X16677324Y-11693508D02*
X16696372Y-11683984D01*
X16848753Y-11864936D02*
X16858277Y-11874460D01*
X16858277Y-11874460D02*
X16848753Y-11883984D01*
X16848753Y-11883984D02*
X16839229Y-11874460D01*
X16839229Y-11874460D02*
X16848753Y-11864936D01*
X16848753Y-11864936D02*
X16848753Y-11883984D01*
X16924944Y-11683984D02*
X17048753Y-11683984D01*
X17048753Y-11683984D02*
X16982086Y-11760174D01*
X16982086Y-11760174D02*
X17010658Y-11760174D01*
X17010658Y-11760174D02*
X17029705Y-11769698D01*
X17029705Y-11769698D02*
X17039229Y-11779222D01*
X17039229Y-11779222D02*
X17048753Y-11798269D01*
X17048753Y-11798269D02*
X17048753Y-11845888D01*
X17048753Y-11845888D02*
X17039229Y-11864936D01*
X17039229Y-11864936D02*
X17029705Y-11874460D01*
X17029705Y-11874460D02*
X17010658Y-11883984D01*
X17010658Y-11883984D02*
X16953515Y-11883984D01*
X16953515Y-11883984D02*
X16934467Y-11874460D01*
X16934467Y-11874460D02*
X16924944Y-11864936D01*
X17172563Y-11683984D02*
X17191610Y-11683984D01*
X17191610Y-11683984D02*
X17210658Y-11693508D01*
X17210658Y-11693508D02*
X17220182Y-11703031D01*
X17220182Y-11703031D02*
X17229705Y-11722079D01*
X17229705Y-11722079D02*
X17239229Y-11760174D01*
X17239229Y-11760174D02*
X17239229Y-11807793D01*
X17239229Y-11807793D02*
X17229705Y-11845888D01*
X17229705Y-11845888D02*
X17220182Y-11864936D01*
X17220182Y-11864936D02*
X17210658Y-11874460D01*
X17210658Y-11874460D02*
X17191610Y-11883984D01*
X17191610Y-11883984D02*
X17172563Y-11883984D01*
X17172563Y-11883984D02*
X17153515Y-11874460D01*
X17153515Y-11874460D02*
X17143991Y-11864936D01*
X17143991Y-11864936D02*
X17134467Y-11845888D01*
X17134467Y-11845888D02*
X17124944Y-11807793D01*
X17124944Y-11807793D02*
X17124944Y-11760174D01*
X17124944Y-11760174D02*
X17134467Y-11722079D01*
X17134467Y-11722079D02*
X17143991Y-11703031D01*
X17143991Y-11703031D02*
X17153515Y-11693508D01*
X17153515Y-11693508D02*
X17172563Y-11683984D01*
X17363039Y-11683984D02*
X17382086Y-11683984D01*
X17382086Y-11683984D02*
X17401134Y-11693508D01*
X17401134Y-11693508D02*
X17410658Y-11703031D01*
X17410658Y-11703031D02*
X17420182Y-11722079D01*
X17420182Y-11722079D02*
X17429705Y-11760174D01*
X17429705Y-11760174D02*
X17429705Y-11807793D01*
X17429705Y-11807793D02*
X17420182Y-11845888D01*
X17420182Y-11845888D02*
X17410658Y-11864936D01*
X17410658Y-11864936D02*
X17401134Y-11874460D01*
X17401134Y-11874460D02*
X17382086Y-11883984D01*
X17382086Y-11883984D02*
X17363039Y-11883984D01*
X17363039Y-11883984D02*
X17343991Y-11874460D01*
X17343991Y-11874460D02*
X17334467Y-11864936D01*
X17334467Y-11864936D02*
X17324944Y-11845888D01*
X17324944Y-11845888D02*
X17315420Y-11807793D01*
X17315420Y-11807793D02*
X17315420Y-11760174D01*
X17315420Y-11760174D02*
X17324944Y-11722079D01*
X17324944Y-11722079D02*
X17334467Y-11703031D01*
X17334467Y-11703031D02*
X17343991Y-11693508D01*
X17343991Y-11693508D02*
X17363039Y-11683984D01*
X17515420Y-11883984D02*
X17515420Y-11750650D01*
X17515420Y-11769698D02*
X17524944Y-11760174D01*
X17524944Y-11760174D02*
X17543991Y-11750650D01*
X17543991Y-11750650D02*
X17572563Y-11750650D01*
X17572563Y-11750650D02*
X17591610Y-11760174D01*
X17591610Y-11760174D02*
X17601134Y-11779222D01*
X17601134Y-11779222D02*
X17601134Y-11883984D01*
X17601134Y-11779222D02*
X17610658Y-11760174D01*
X17610658Y-11760174D02*
X17629705Y-11750650D01*
X17629705Y-11750650D02*
X17658277Y-11750650D01*
X17658277Y-11750650D02*
X17677325Y-11760174D01*
X17677325Y-11760174D02*
X17686848Y-11779222D01*
X17686848Y-11779222D02*
X17686848Y-11883984D01*
X17782086Y-11883984D02*
X17782086Y-11750650D01*
X17782086Y-11769698D02*
X17791610Y-11760174D01*
X17791610Y-11760174D02*
X17810658Y-11750650D01*
X17810658Y-11750650D02*
X17839229Y-11750650D01*
X17839229Y-11750650D02*
X17858277Y-11760174D01*
X17858277Y-11760174D02*
X17867801Y-11779222D01*
X17867801Y-11779222D02*
X17867801Y-11883984D01*
X17867801Y-11779222D02*
X17877325Y-11760174D01*
X17877325Y-11760174D02*
X17896372Y-11750650D01*
X17896372Y-11750650D02*
X17924944Y-11750650D01*
X17924944Y-11750650D02*
X17943991Y-11760174D01*
X17943991Y-11760174D02*
X17953515Y-11779222D01*
X17953515Y-11779222D02*
X17953515Y-11883984D01*
X18343991Y-11674460D02*
X18172563Y-11931603D01*
X18601134Y-11683984D02*
X18620182Y-11683984D01*
X18620182Y-11683984D02*
X18639229Y-11693508D01*
X18639229Y-11693508D02*
X18648753Y-11703031D01*
X18648753Y-11703031D02*
X18658277Y-11722079D01*
X18658277Y-11722079D02*
X18667801Y-11760174D01*
X18667801Y-11760174D02*
X18667801Y-11807793D01*
X18667801Y-11807793D02*
X18658277Y-11845888D01*
X18658277Y-11845888D02*
X18648753Y-11864936D01*
X18648753Y-11864936D02*
X18639229Y-11874460D01*
X18639229Y-11874460D02*
X18620182Y-11883984D01*
X18620182Y-11883984D02*
X18601134Y-11883984D01*
X18601134Y-11883984D02*
X18582087Y-11874460D01*
X18582087Y-11874460D02*
X18572563Y-11864936D01*
X18572563Y-11864936D02*
X18563039Y-11845888D01*
X18563039Y-11845888D02*
X18553515Y-11807793D01*
X18553515Y-11807793D02*
X18553515Y-11760174D01*
X18553515Y-11760174D02*
X18563039Y-11722079D01*
X18563039Y-11722079D02*
X18572563Y-11703031D01*
X18572563Y-11703031D02*
X18582087Y-11693508D01*
X18582087Y-11693508D02*
X18601134Y-11683984D01*
X18753515Y-11864936D02*
X18763039Y-11874460D01*
X18763039Y-11874460D02*
X18753515Y-11883984D01*
X18753515Y-11883984D02*
X18743991Y-11874460D01*
X18743991Y-11874460D02*
X18753515Y-11864936D01*
X18753515Y-11864936D02*
X18753515Y-11883984D01*
X18886848Y-11683984D02*
X18905896Y-11683984D01*
X18905896Y-11683984D02*
X18924944Y-11693508D01*
X18924944Y-11693508D02*
X18934468Y-11703031D01*
X18934468Y-11703031D02*
X18943991Y-11722079D01*
X18943991Y-11722079D02*
X18953515Y-11760174D01*
X18953515Y-11760174D02*
X18953515Y-11807793D01*
X18953515Y-11807793D02*
X18943991Y-11845888D01*
X18943991Y-11845888D02*
X18934468Y-11864936D01*
X18934468Y-11864936D02*
X18924944Y-11874460D01*
X18924944Y-11874460D02*
X18905896Y-11883984D01*
X18905896Y-11883984D02*
X18886848Y-11883984D01*
X18886848Y-11883984D02*
X18867801Y-11874460D01*
X18867801Y-11874460D02*
X18858277Y-11864936D01*
X18858277Y-11864936D02*
X18848753Y-11845888D01*
X18848753Y-11845888D02*
X18839229Y-11807793D01*
X18839229Y-11807793D02*
X18839229Y-11760174D01*
X18839229Y-11760174D02*
X18848753Y-11722079D01*
X18848753Y-11722079D02*
X18858277Y-11703031D01*
X18858277Y-11703031D02*
X18867801Y-11693508D01*
X18867801Y-11693508D02*
X18886848Y-11683984D01*
X19143991Y-11883984D02*
X19029706Y-11883984D01*
X19086848Y-11883984D02*
X19086848Y-11683984D01*
X19086848Y-11683984D02*
X19067801Y-11712555D01*
X19067801Y-11712555D02*
X19048753Y-11731603D01*
X19048753Y-11731603D02*
X19029706Y-11741127D01*
X19334468Y-11883984D02*
X19220182Y-11883984D01*
X19277325Y-11883984D02*
X19277325Y-11683984D01*
X19277325Y-11683984D02*
X19258277Y-11712555D01*
X19258277Y-11712555D02*
X19239229Y-11731603D01*
X19239229Y-11731603D02*
X19220182Y-11741127D01*
X19448753Y-11769698D02*
X19429706Y-11760174D01*
X19429706Y-11760174D02*
X19420182Y-11750650D01*
X19420182Y-11750650D02*
X19410658Y-11731603D01*
X19410658Y-11731603D02*
X19410658Y-11722079D01*
X19410658Y-11722079D02*
X19420182Y-11703031D01*
X19420182Y-11703031D02*
X19429706Y-11693508D01*
X19429706Y-11693508D02*
X19448753Y-11683984D01*
X19448753Y-11683984D02*
X19486849Y-11683984D01*
X19486849Y-11683984D02*
X19505896Y-11693508D01*
X19505896Y-11693508D02*
X19515420Y-11703031D01*
X19515420Y-11703031D02*
X19524944Y-11722079D01*
X19524944Y-11722079D02*
X19524944Y-11731603D01*
X19524944Y-11731603D02*
X19515420Y-11750650D01*
X19515420Y-11750650D02*
X19505896Y-11760174D01*
X19505896Y-11760174D02*
X19486849Y-11769698D01*
X19486849Y-11769698D02*
X19448753Y-11769698D01*
X19448753Y-11769698D02*
X19429706Y-11779222D01*
X19429706Y-11779222D02*
X19420182Y-11788746D01*
X19420182Y-11788746D02*
X19410658Y-11807793D01*
X19410658Y-11807793D02*
X19410658Y-11845888D01*
X19410658Y-11845888D02*
X19420182Y-11864936D01*
X19420182Y-11864936D02*
X19429706Y-11874460D01*
X19429706Y-11874460D02*
X19448753Y-11883984D01*
X19448753Y-11883984D02*
X19486849Y-11883984D01*
X19486849Y-11883984D02*
X19505896Y-11874460D01*
X19505896Y-11874460D02*
X19515420Y-11864936D01*
X19515420Y-11864936D02*
X19524944Y-11845888D01*
X19524944Y-11845888D02*
X19524944Y-11807793D01*
X19524944Y-11807793D02*
X19515420Y-11788746D01*
X19515420Y-11788746D02*
X19505896Y-11779222D01*
X19505896Y-11779222D02*
X19486849Y-11769698D01*
X19601134Y-11683984D02*
X19601134Y-11722079D01*
X19677325Y-11683984D02*
X19677325Y-11722079D01*
X19972563Y-11960174D02*
X19963039Y-11950650D01*
X19963039Y-11950650D02*
X19943991Y-11922079D01*
X19943991Y-11922079D02*
X19934468Y-11903031D01*
X19934468Y-11903031D02*
X19924944Y-11874460D01*
X19924944Y-11874460D02*
X19915420Y-11826841D01*
X19915420Y-11826841D02*
X19915420Y-11788746D01*
X19915420Y-11788746D02*
X19924944Y-11741127D01*
X19924944Y-11741127D02*
X19934468Y-11712555D01*
X19934468Y-11712555D02*
X19943991Y-11693508D01*
X19943991Y-11693508D02*
X19963039Y-11664936D01*
X19963039Y-11664936D02*
X19972563Y-11655412D01*
X20153515Y-11883984D02*
X20039230Y-11883984D01*
X20096372Y-11883984D02*
X20096372Y-11683984D01*
X20096372Y-11683984D02*
X20077325Y-11712555D01*
X20077325Y-11712555D02*
X20058277Y-11731603D01*
X20058277Y-11731603D02*
X20039230Y-11741127D01*
X20334468Y-11683984D02*
X20239230Y-11683984D01*
X20239230Y-11683984D02*
X20229706Y-11779222D01*
X20229706Y-11779222D02*
X20239230Y-11769698D01*
X20239230Y-11769698D02*
X20258277Y-11760174D01*
X20258277Y-11760174D02*
X20305896Y-11760174D01*
X20305896Y-11760174D02*
X20324944Y-11769698D01*
X20324944Y-11769698D02*
X20334468Y-11779222D01*
X20334468Y-11779222D02*
X20343991Y-11798269D01*
X20343991Y-11798269D02*
X20343991Y-11845888D01*
X20343991Y-11845888D02*
X20334468Y-11864936D01*
X20334468Y-11864936D02*
X20324944Y-11874460D01*
X20324944Y-11874460D02*
X20305896Y-11883984D01*
X20305896Y-11883984D02*
X20258277Y-11883984D01*
X20258277Y-11883984D02*
X20239230Y-11874460D01*
X20239230Y-11874460D02*
X20229706Y-11864936D01*
X20582087Y-11883984D02*
X20582087Y-11683984D01*
X20667801Y-11883984D02*
X20667801Y-11779222D01*
X20667801Y-11779222D02*
X20658277Y-11760174D01*
X20658277Y-11760174D02*
X20639230Y-11750650D01*
X20639230Y-11750650D02*
X20610658Y-11750650D01*
X20610658Y-11750650D02*
X20591611Y-11760174D01*
X20591611Y-11760174D02*
X20582087Y-11769698D01*
X20791611Y-11883984D02*
X20772563Y-11874460D01*
X20772563Y-11874460D02*
X20763039Y-11864936D01*
X20763039Y-11864936D02*
X20753515Y-11845888D01*
X20753515Y-11845888D02*
X20753515Y-11788746D01*
X20753515Y-11788746D02*
X20763039Y-11769698D01*
X20763039Y-11769698D02*
X20772563Y-11760174D01*
X20772563Y-11760174D02*
X20791611Y-11750650D01*
X20791611Y-11750650D02*
X20820182Y-11750650D01*
X20820182Y-11750650D02*
X20839230Y-11760174D01*
X20839230Y-11760174D02*
X20848753Y-11769698D01*
X20848753Y-11769698D02*
X20858277Y-11788746D01*
X20858277Y-11788746D02*
X20858277Y-11845888D01*
X20858277Y-11845888D02*
X20848753Y-11864936D01*
X20848753Y-11864936D02*
X20839230Y-11874460D01*
X20839230Y-11874460D02*
X20820182Y-11883984D01*
X20820182Y-11883984D02*
X20791611Y-11883984D01*
X20972563Y-11883984D02*
X20953515Y-11874460D01*
X20953515Y-11874460D02*
X20943992Y-11855412D01*
X20943992Y-11855412D02*
X20943992Y-11683984D01*
X21124944Y-11874460D02*
X21105896Y-11883984D01*
X21105896Y-11883984D02*
X21067801Y-11883984D01*
X21067801Y-11883984D02*
X21048753Y-11874460D01*
X21048753Y-11874460D02*
X21039230Y-11855412D01*
X21039230Y-11855412D02*
X21039230Y-11779222D01*
X21039230Y-11779222D02*
X21048753Y-11760174D01*
X21048753Y-11760174D02*
X21067801Y-11750650D01*
X21067801Y-11750650D02*
X21105896Y-11750650D01*
X21105896Y-11750650D02*
X21124944Y-11760174D01*
X21124944Y-11760174D02*
X21134468Y-11779222D01*
X21134468Y-11779222D02*
X21134468Y-11798269D01*
X21134468Y-11798269D02*
X21039230Y-11817317D01*
X21210658Y-11874460D02*
X21229706Y-11883984D01*
X21229706Y-11883984D02*
X21267801Y-11883984D01*
X21267801Y-11883984D02*
X21286849Y-11874460D01*
X21286849Y-11874460D02*
X21296373Y-11855412D01*
X21296373Y-11855412D02*
X21296373Y-11845888D01*
X21296373Y-11845888D02*
X21286849Y-11826841D01*
X21286849Y-11826841D02*
X21267801Y-11817317D01*
X21267801Y-11817317D02*
X21239230Y-11817317D01*
X21239230Y-11817317D02*
X21220182Y-11807793D01*
X21220182Y-11807793D02*
X21210658Y-11788746D01*
X21210658Y-11788746D02*
X21210658Y-11779222D01*
X21210658Y-11779222D02*
X21220182Y-11760174D01*
X21220182Y-11760174D02*
X21239230Y-11750650D01*
X21239230Y-11750650D02*
X21267801Y-11750650D01*
X21267801Y-11750650D02*
X21286849Y-11760174D01*
X21363039Y-11960174D02*
X21372563Y-11950650D01*
X21372563Y-11950650D02*
X21391611Y-11922079D01*
X21391611Y-11922079D02*
X21401134Y-11903031D01*
X21401134Y-11903031D02*
X21410658Y-11874460D01*
X21410658Y-11874460D02*
X21420182Y-11826841D01*
X21420182Y-11826841D02*
X21420182Y-11788746D01*
X21420182Y-11788746D02*
X21410658Y-11741127D01*
X21410658Y-11741127D02*
X21401134Y-11712555D01*
X21401134Y-11712555D02*
X21391611Y-11693508D01*
X21391611Y-11693508D02*
X21372563Y-11664936D01*
X21372563Y-11664936D02*
X21363039Y-11655412D01*
D12*
X16397500Y-12056500D02*
G75*
G02*
X16357500Y-12056500I-20000J0D01*
G01*
X16357500Y-12056500D02*
G75*
G02*
X16397500Y-12056500I20000J0D01*
G01*
D11*
X16696372Y-11947984D02*
X16715420Y-11947984D01*
X16715420Y-11947984D02*
X16734467Y-11957508D01*
X16734467Y-11957508D02*
X16743991Y-11967031D01*
X16743991Y-11967031D02*
X16753515Y-11986079D01*
X16753515Y-11986079D02*
X16763039Y-12024174D01*
X16763039Y-12024174D02*
X16763039Y-12071793D01*
X16763039Y-12071793D02*
X16753515Y-12109888D01*
X16753515Y-12109888D02*
X16743991Y-12128936D01*
X16743991Y-12128936D02*
X16734467Y-12138460D01*
X16734467Y-12138460D02*
X16715420Y-12147984D01*
X16715420Y-12147984D02*
X16696372Y-12147984D01*
X16696372Y-12147984D02*
X16677324Y-12138460D01*
X16677324Y-12138460D02*
X16667801Y-12128936D01*
X16667801Y-12128936D02*
X16658277Y-12109888D01*
X16658277Y-12109888D02*
X16648753Y-12071793D01*
X16648753Y-12071793D02*
X16648753Y-12024174D01*
X16648753Y-12024174D02*
X16658277Y-11986079D01*
X16658277Y-11986079D02*
X16667801Y-11967031D01*
X16667801Y-11967031D02*
X16677324Y-11957508D01*
X16677324Y-11957508D02*
X16696372Y-11947984D01*
X16848753Y-12128936D02*
X16858277Y-12138460D01*
X16858277Y-12138460D02*
X16848753Y-12147984D01*
X16848753Y-12147984D02*
X16839229Y-12138460D01*
X16839229Y-12138460D02*
X16848753Y-12128936D01*
X16848753Y-12128936D02*
X16848753Y-12147984D01*
X17029705Y-12014650D02*
X17029705Y-12147984D01*
X16982086Y-11938460D02*
X16934467Y-12081317D01*
X16934467Y-12081317D02*
X17058277Y-12081317D01*
X17172563Y-11947984D02*
X17191610Y-11947984D01*
X17191610Y-11947984D02*
X17210658Y-11957508D01*
X17210658Y-11957508D02*
X17220182Y-11967031D01*
X17220182Y-11967031D02*
X17229705Y-11986079D01*
X17229705Y-11986079D02*
X17239229Y-12024174D01*
X17239229Y-12024174D02*
X17239229Y-12071793D01*
X17239229Y-12071793D02*
X17229705Y-12109888D01*
X17229705Y-12109888D02*
X17220182Y-12128936D01*
X17220182Y-12128936D02*
X17210658Y-12138460D01*
X17210658Y-12138460D02*
X17191610Y-12147984D01*
X17191610Y-12147984D02*
X17172563Y-12147984D01*
X17172563Y-12147984D02*
X17153515Y-12138460D01*
X17153515Y-12138460D02*
X17143991Y-12128936D01*
X17143991Y-12128936D02*
X17134467Y-12109888D01*
X17134467Y-12109888D02*
X17124944Y-12071793D01*
X17124944Y-12071793D02*
X17124944Y-12024174D01*
X17124944Y-12024174D02*
X17134467Y-11986079D01*
X17134467Y-11986079D02*
X17143991Y-11967031D01*
X17143991Y-11967031D02*
X17153515Y-11957508D01*
X17153515Y-11957508D02*
X17172563Y-11947984D01*
X17363039Y-11947984D02*
X17382086Y-11947984D01*
X17382086Y-11947984D02*
X17401134Y-11957508D01*
X17401134Y-11957508D02*
X17410658Y-11967031D01*
X17410658Y-11967031D02*
X17420182Y-11986079D01*
X17420182Y-11986079D02*
X17429705Y-12024174D01*
X17429705Y-12024174D02*
X17429705Y-12071793D01*
X17429705Y-12071793D02*
X17420182Y-12109888D01*
X17420182Y-12109888D02*
X17410658Y-12128936D01*
X17410658Y-12128936D02*
X17401134Y-12138460D01*
X17401134Y-12138460D02*
X17382086Y-12147984D01*
X17382086Y-12147984D02*
X17363039Y-12147984D01*
X17363039Y-12147984D02*
X17343991Y-12138460D01*
X17343991Y-12138460D02*
X17334467Y-12128936D01*
X17334467Y-12128936D02*
X17324944Y-12109888D01*
X17324944Y-12109888D02*
X17315420Y-12071793D01*
X17315420Y-12071793D02*
X17315420Y-12024174D01*
X17315420Y-12024174D02*
X17324944Y-11986079D01*
X17324944Y-11986079D02*
X17334467Y-11967031D01*
X17334467Y-11967031D02*
X17343991Y-11957508D01*
X17343991Y-11957508D02*
X17363039Y-11947984D01*
X17515420Y-12147984D02*
X17515420Y-12014650D01*
X17515420Y-12033698D02*
X17524944Y-12024174D01*
X17524944Y-12024174D02*
X17543991Y-12014650D01*
X17543991Y-12014650D02*
X17572563Y-12014650D01*
X17572563Y-12014650D02*
X17591610Y-12024174D01*
X17591610Y-12024174D02*
X17601134Y-12043222D01*
X17601134Y-12043222D02*
X17601134Y-12147984D01*
X17601134Y-12043222D02*
X17610658Y-12024174D01*
X17610658Y-12024174D02*
X17629705Y-12014650D01*
X17629705Y-12014650D02*
X17658277Y-12014650D01*
X17658277Y-12014650D02*
X17677325Y-12024174D01*
X17677325Y-12024174D02*
X17686848Y-12043222D01*
X17686848Y-12043222D02*
X17686848Y-12147984D01*
X17782086Y-12147984D02*
X17782086Y-12014650D01*
X17782086Y-12033698D02*
X17791610Y-12024174D01*
X17791610Y-12024174D02*
X17810658Y-12014650D01*
X17810658Y-12014650D02*
X17839229Y-12014650D01*
X17839229Y-12014650D02*
X17858277Y-12024174D01*
X17858277Y-12024174D02*
X17867801Y-12043222D01*
X17867801Y-12043222D02*
X17867801Y-12147984D01*
X17867801Y-12043222D02*
X17877325Y-12024174D01*
X17877325Y-12024174D02*
X17896372Y-12014650D01*
X17896372Y-12014650D02*
X17924944Y-12014650D01*
X17924944Y-12014650D02*
X17943991Y-12024174D01*
X17943991Y-12024174D02*
X17953515Y-12043222D01*
X17953515Y-12043222D02*
X17953515Y-12147984D01*
X18343991Y-11938460D02*
X18172563Y-12195603D01*
X18601134Y-11947984D02*
X18620182Y-11947984D01*
X18620182Y-11947984D02*
X18639229Y-11957508D01*
X18639229Y-11957508D02*
X18648753Y-11967031D01*
X18648753Y-11967031D02*
X18658277Y-11986079D01*
X18658277Y-11986079D02*
X18667801Y-12024174D01*
X18667801Y-12024174D02*
X18667801Y-12071793D01*
X18667801Y-12071793D02*
X18658277Y-12109888D01*
X18658277Y-12109888D02*
X18648753Y-12128936D01*
X18648753Y-12128936D02*
X18639229Y-12138460D01*
X18639229Y-12138460D02*
X18620182Y-12147984D01*
X18620182Y-12147984D02*
X18601134Y-12147984D01*
X18601134Y-12147984D02*
X18582087Y-12138460D01*
X18582087Y-12138460D02*
X18572563Y-12128936D01*
X18572563Y-12128936D02*
X18563039Y-12109888D01*
X18563039Y-12109888D02*
X18553515Y-12071793D01*
X18553515Y-12071793D02*
X18553515Y-12024174D01*
X18553515Y-12024174D02*
X18563039Y-11986079D01*
X18563039Y-11986079D02*
X18572563Y-11967031D01*
X18572563Y-11967031D02*
X18582087Y-11957508D01*
X18582087Y-11957508D02*
X18601134Y-11947984D01*
X18753515Y-12128936D02*
X18763039Y-12138460D01*
X18763039Y-12138460D02*
X18753515Y-12147984D01*
X18753515Y-12147984D02*
X18743991Y-12138460D01*
X18743991Y-12138460D02*
X18753515Y-12128936D01*
X18753515Y-12128936D02*
X18753515Y-12147984D01*
X18886848Y-11947984D02*
X18905896Y-11947984D01*
X18905896Y-11947984D02*
X18924944Y-11957508D01*
X18924944Y-11957508D02*
X18934468Y-11967031D01*
X18934468Y-11967031D02*
X18943991Y-11986079D01*
X18943991Y-11986079D02*
X18953515Y-12024174D01*
X18953515Y-12024174D02*
X18953515Y-12071793D01*
X18953515Y-12071793D02*
X18943991Y-12109888D01*
X18943991Y-12109888D02*
X18934468Y-12128936D01*
X18934468Y-12128936D02*
X18924944Y-12138460D01*
X18924944Y-12138460D02*
X18905896Y-12147984D01*
X18905896Y-12147984D02*
X18886848Y-12147984D01*
X18886848Y-12147984D02*
X18867801Y-12138460D01*
X18867801Y-12138460D02*
X18858277Y-12128936D01*
X18858277Y-12128936D02*
X18848753Y-12109888D01*
X18848753Y-12109888D02*
X18839229Y-12071793D01*
X18839229Y-12071793D02*
X18839229Y-12024174D01*
X18839229Y-12024174D02*
X18848753Y-11986079D01*
X18848753Y-11986079D02*
X18858277Y-11967031D01*
X18858277Y-11967031D02*
X18867801Y-11957508D01*
X18867801Y-11957508D02*
X18886848Y-11947984D01*
X19143991Y-12147984D02*
X19029706Y-12147984D01*
X19086848Y-12147984D02*
X19086848Y-11947984D01*
X19086848Y-11947984D02*
X19067801Y-11976555D01*
X19067801Y-11976555D02*
X19048753Y-11995603D01*
X19048753Y-11995603D02*
X19029706Y-12005127D01*
X19324944Y-11947984D02*
X19229706Y-11947984D01*
X19229706Y-11947984D02*
X19220182Y-12043222D01*
X19220182Y-12043222D02*
X19229706Y-12033698D01*
X19229706Y-12033698D02*
X19248753Y-12024174D01*
X19248753Y-12024174D02*
X19296372Y-12024174D01*
X19296372Y-12024174D02*
X19315420Y-12033698D01*
X19315420Y-12033698D02*
X19324944Y-12043222D01*
X19324944Y-12043222D02*
X19334468Y-12062269D01*
X19334468Y-12062269D02*
X19334468Y-12109888D01*
X19334468Y-12109888D02*
X19324944Y-12128936D01*
X19324944Y-12128936D02*
X19315420Y-12138460D01*
X19315420Y-12138460D02*
X19296372Y-12147984D01*
X19296372Y-12147984D02*
X19248753Y-12147984D01*
X19248753Y-12147984D02*
X19229706Y-12138460D01*
X19229706Y-12138460D02*
X19220182Y-12128936D01*
X19401134Y-11947984D02*
X19534468Y-11947984D01*
X19534468Y-11947984D02*
X19448753Y-12147984D01*
X19601134Y-11947984D02*
X19601134Y-11986079D01*
X19677325Y-11947984D02*
X19677325Y-11986079D01*
X19972563Y-12224174D02*
X19963039Y-12214650D01*
X19963039Y-12214650D02*
X19943991Y-12186079D01*
X19943991Y-12186079D02*
X19934468Y-12167031D01*
X19934468Y-12167031D02*
X19924944Y-12138460D01*
X19924944Y-12138460D02*
X19915420Y-12090841D01*
X19915420Y-12090841D02*
X19915420Y-12052746D01*
X19915420Y-12052746D02*
X19924944Y-12005127D01*
X19924944Y-12005127D02*
X19934468Y-11976555D01*
X19934468Y-11976555D02*
X19943991Y-11957508D01*
X19943991Y-11957508D02*
X19963039Y-11928936D01*
X19963039Y-11928936D02*
X19972563Y-11919412D01*
X20134468Y-12014650D02*
X20134468Y-12147984D01*
X20086849Y-11938460D02*
X20039230Y-12081317D01*
X20039230Y-12081317D02*
X20163039Y-12081317D01*
X20391611Y-12147984D02*
X20391611Y-11947984D01*
X20477325Y-12147984D02*
X20477325Y-12043222D01*
X20477325Y-12043222D02*
X20467801Y-12024174D01*
X20467801Y-12024174D02*
X20448753Y-12014650D01*
X20448753Y-12014650D02*
X20420182Y-12014650D01*
X20420182Y-12014650D02*
X20401134Y-12024174D01*
X20401134Y-12024174D02*
X20391611Y-12033698D01*
X20601134Y-12147984D02*
X20582087Y-12138460D01*
X20582087Y-12138460D02*
X20572563Y-12128936D01*
X20572563Y-12128936D02*
X20563039Y-12109888D01*
X20563039Y-12109888D02*
X20563039Y-12052746D01*
X20563039Y-12052746D02*
X20572563Y-12033698D01*
X20572563Y-12033698D02*
X20582087Y-12024174D01*
X20582087Y-12024174D02*
X20601134Y-12014650D01*
X20601134Y-12014650D02*
X20629706Y-12014650D01*
X20629706Y-12014650D02*
X20648753Y-12024174D01*
X20648753Y-12024174D02*
X20658277Y-12033698D01*
X20658277Y-12033698D02*
X20667801Y-12052746D01*
X20667801Y-12052746D02*
X20667801Y-12109888D01*
X20667801Y-12109888D02*
X20658277Y-12128936D01*
X20658277Y-12128936D02*
X20648753Y-12138460D01*
X20648753Y-12138460D02*
X20629706Y-12147984D01*
X20629706Y-12147984D02*
X20601134Y-12147984D01*
X20782087Y-12147984D02*
X20763039Y-12138460D01*
X20763039Y-12138460D02*
X20753515Y-12119412D01*
X20753515Y-12119412D02*
X20753515Y-11947984D01*
X20934468Y-12138460D02*
X20915420Y-12147984D01*
X20915420Y-12147984D02*
X20877325Y-12147984D01*
X20877325Y-12147984D02*
X20858277Y-12138460D01*
X20858277Y-12138460D02*
X20848753Y-12119412D01*
X20848753Y-12119412D02*
X20848753Y-12043222D01*
X20848753Y-12043222D02*
X20858277Y-12024174D01*
X20858277Y-12024174D02*
X20877325Y-12014650D01*
X20877325Y-12014650D02*
X20915420Y-12014650D01*
X20915420Y-12014650D02*
X20934468Y-12024174D01*
X20934468Y-12024174D02*
X20943992Y-12043222D01*
X20943992Y-12043222D02*
X20943992Y-12062269D01*
X20943992Y-12062269D02*
X20848753Y-12081317D01*
X21020182Y-12138460D02*
X21039230Y-12147984D01*
X21039230Y-12147984D02*
X21077325Y-12147984D01*
X21077325Y-12147984D02*
X21096373Y-12138460D01*
X21096373Y-12138460D02*
X21105896Y-12119412D01*
X21105896Y-12119412D02*
X21105896Y-12109888D01*
X21105896Y-12109888D02*
X21096373Y-12090841D01*
X21096373Y-12090841D02*
X21077325Y-12081317D01*
X21077325Y-12081317D02*
X21048753Y-12081317D01*
X21048753Y-12081317D02*
X21029706Y-12071793D01*
X21029706Y-12071793D02*
X21020182Y-12052746D01*
X21020182Y-12052746D02*
X21020182Y-12043222D01*
X21020182Y-12043222D02*
X21029706Y-12024174D01*
X21029706Y-12024174D02*
X21048753Y-12014650D01*
X21048753Y-12014650D02*
X21077325Y-12014650D01*
X21077325Y-12014650D02*
X21096373Y-12024174D01*
X21172563Y-12224174D02*
X21182087Y-12214650D01*
X21182087Y-12214650D02*
X21201134Y-12186079D01*
X21201134Y-12186079D02*
X21210658Y-12167031D01*
X21210658Y-12167031D02*
X21220182Y-12138460D01*
X21220182Y-12138460D02*
X21229706Y-12090841D01*
X21229706Y-12090841D02*
X21229706Y-12052746D01*
X21229706Y-12052746D02*
X21220182Y-12005127D01*
X21220182Y-12005127D02*
X21210658Y-11976555D01*
X21210658Y-11976555D02*
X21201134Y-11957508D01*
X21201134Y-11957508D02*
X21182087Y-11928936D01*
X21182087Y-11928936D02*
X21172563Y-11919412D01*
D12*
X16365000Y-12288000D02*
X16365000Y-12353000D01*
X16332500Y-12320500D02*
X16397500Y-12320500D01*
D11*
X16696372Y-12211984D02*
X16715420Y-12211984D01*
X16715420Y-12211984D02*
X16734467Y-12221508D01*
X16734467Y-12221508D02*
X16743991Y-12231031D01*
X16743991Y-12231031D02*
X16753515Y-12250079D01*
X16753515Y-12250079D02*
X16763039Y-12288174D01*
X16763039Y-12288174D02*
X16763039Y-12335793D01*
X16763039Y-12335793D02*
X16753515Y-12373888D01*
X16753515Y-12373888D02*
X16743991Y-12392936D01*
X16743991Y-12392936D02*
X16734467Y-12402460D01*
X16734467Y-12402460D02*
X16715420Y-12411984D01*
X16715420Y-12411984D02*
X16696372Y-12411984D01*
X16696372Y-12411984D02*
X16677324Y-12402460D01*
X16677324Y-12402460D02*
X16667801Y-12392936D01*
X16667801Y-12392936D02*
X16658277Y-12373888D01*
X16658277Y-12373888D02*
X16648753Y-12335793D01*
X16648753Y-12335793D02*
X16648753Y-12288174D01*
X16648753Y-12288174D02*
X16658277Y-12250079D01*
X16658277Y-12250079D02*
X16667801Y-12231031D01*
X16667801Y-12231031D02*
X16677324Y-12221508D01*
X16677324Y-12221508D02*
X16696372Y-12211984D01*
X16848753Y-12392936D02*
X16858277Y-12402460D01*
X16858277Y-12402460D02*
X16848753Y-12411984D01*
X16848753Y-12411984D02*
X16839229Y-12402460D01*
X16839229Y-12402460D02*
X16848753Y-12392936D01*
X16848753Y-12392936D02*
X16848753Y-12411984D01*
X17029705Y-12211984D02*
X16991610Y-12211984D01*
X16991610Y-12211984D02*
X16972563Y-12221508D01*
X16972563Y-12221508D02*
X16963039Y-12231031D01*
X16963039Y-12231031D02*
X16943991Y-12259603D01*
X16943991Y-12259603D02*
X16934467Y-12297698D01*
X16934467Y-12297698D02*
X16934467Y-12373888D01*
X16934467Y-12373888D02*
X16943991Y-12392936D01*
X16943991Y-12392936D02*
X16953515Y-12402460D01*
X16953515Y-12402460D02*
X16972563Y-12411984D01*
X16972563Y-12411984D02*
X17010658Y-12411984D01*
X17010658Y-12411984D02*
X17029705Y-12402460D01*
X17029705Y-12402460D02*
X17039229Y-12392936D01*
X17039229Y-12392936D02*
X17048753Y-12373888D01*
X17048753Y-12373888D02*
X17048753Y-12326269D01*
X17048753Y-12326269D02*
X17039229Y-12307222D01*
X17039229Y-12307222D02*
X17029705Y-12297698D01*
X17029705Y-12297698D02*
X17010658Y-12288174D01*
X17010658Y-12288174D02*
X16972563Y-12288174D01*
X16972563Y-12288174D02*
X16953515Y-12297698D01*
X16953515Y-12297698D02*
X16943991Y-12307222D01*
X16943991Y-12307222D02*
X16934467Y-12326269D01*
X17229705Y-12211984D02*
X17134467Y-12211984D01*
X17134467Y-12211984D02*
X17124944Y-12307222D01*
X17124944Y-12307222D02*
X17134467Y-12297698D01*
X17134467Y-12297698D02*
X17153515Y-12288174D01*
X17153515Y-12288174D02*
X17201134Y-12288174D01*
X17201134Y-12288174D02*
X17220182Y-12297698D01*
X17220182Y-12297698D02*
X17229705Y-12307222D01*
X17229705Y-12307222D02*
X17239229Y-12326269D01*
X17239229Y-12326269D02*
X17239229Y-12373888D01*
X17239229Y-12373888D02*
X17229705Y-12392936D01*
X17229705Y-12392936D02*
X17220182Y-12402460D01*
X17220182Y-12402460D02*
X17201134Y-12411984D01*
X17201134Y-12411984D02*
X17153515Y-12411984D01*
X17153515Y-12411984D02*
X17134467Y-12402460D01*
X17134467Y-12402460D02*
X17124944Y-12392936D01*
X17363039Y-12211984D02*
X17382086Y-12211984D01*
X17382086Y-12211984D02*
X17401134Y-12221508D01*
X17401134Y-12221508D02*
X17410658Y-12231031D01*
X17410658Y-12231031D02*
X17420182Y-12250079D01*
X17420182Y-12250079D02*
X17429705Y-12288174D01*
X17429705Y-12288174D02*
X17429705Y-12335793D01*
X17429705Y-12335793D02*
X17420182Y-12373888D01*
X17420182Y-12373888D02*
X17410658Y-12392936D01*
X17410658Y-12392936D02*
X17401134Y-12402460D01*
X17401134Y-12402460D02*
X17382086Y-12411984D01*
X17382086Y-12411984D02*
X17363039Y-12411984D01*
X17363039Y-12411984D02*
X17343991Y-12402460D01*
X17343991Y-12402460D02*
X17334467Y-12392936D01*
X17334467Y-12392936D02*
X17324944Y-12373888D01*
X17324944Y-12373888D02*
X17315420Y-12335793D01*
X17315420Y-12335793D02*
X17315420Y-12288174D01*
X17315420Y-12288174D02*
X17324944Y-12250079D01*
X17324944Y-12250079D02*
X17334467Y-12231031D01*
X17334467Y-12231031D02*
X17343991Y-12221508D01*
X17343991Y-12221508D02*
X17363039Y-12211984D01*
X17515420Y-12411984D02*
X17515420Y-12278650D01*
X17515420Y-12297698D02*
X17524944Y-12288174D01*
X17524944Y-12288174D02*
X17543991Y-12278650D01*
X17543991Y-12278650D02*
X17572563Y-12278650D01*
X17572563Y-12278650D02*
X17591610Y-12288174D01*
X17591610Y-12288174D02*
X17601134Y-12307222D01*
X17601134Y-12307222D02*
X17601134Y-12411984D01*
X17601134Y-12307222D02*
X17610658Y-12288174D01*
X17610658Y-12288174D02*
X17629705Y-12278650D01*
X17629705Y-12278650D02*
X17658277Y-12278650D01*
X17658277Y-12278650D02*
X17677325Y-12288174D01*
X17677325Y-12288174D02*
X17686848Y-12307222D01*
X17686848Y-12307222D02*
X17686848Y-12411984D01*
X17782086Y-12411984D02*
X17782086Y-12278650D01*
X17782086Y-12297698D02*
X17791610Y-12288174D01*
X17791610Y-12288174D02*
X17810658Y-12278650D01*
X17810658Y-12278650D02*
X17839229Y-12278650D01*
X17839229Y-12278650D02*
X17858277Y-12288174D01*
X17858277Y-12288174D02*
X17867801Y-12307222D01*
X17867801Y-12307222D02*
X17867801Y-12411984D01*
X17867801Y-12307222D02*
X17877325Y-12288174D01*
X17877325Y-12288174D02*
X17896372Y-12278650D01*
X17896372Y-12278650D02*
X17924944Y-12278650D01*
X17924944Y-12278650D02*
X17943991Y-12288174D01*
X17943991Y-12288174D02*
X17953515Y-12307222D01*
X17953515Y-12307222D02*
X17953515Y-12411984D01*
X18343991Y-12202460D02*
X18172563Y-12459603D01*
X18601134Y-12211984D02*
X18620182Y-12211984D01*
X18620182Y-12211984D02*
X18639229Y-12221508D01*
X18639229Y-12221508D02*
X18648753Y-12231031D01*
X18648753Y-12231031D02*
X18658277Y-12250079D01*
X18658277Y-12250079D02*
X18667801Y-12288174D01*
X18667801Y-12288174D02*
X18667801Y-12335793D01*
X18667801Y-12335793D02*
X18658277Y-12373888D01*
X18658277Y-12373888D02*
X18648753Y-12392936D01*
X18648753Y-12392936D02*
X18639229Y-12402460D01*
X18639229Y-12402460D02*
X18620182Y-12411984D01*
X18620182Y-12411984D02*
X18601134Y-12411984D01*
X18601134Y-12411984D02*
X18582087Y-12402460D01*
X18582087Y-12402460D02*
X18572563Y-12392936D01*
X18572563Y-12392936D02*
X18563039Y-12373888D01*
X18563039Y-12373888D02*
X18553515Y-12335793D01*
X18553515Y-12335793D02*
X18553515Y-12288174D01*
X18553515Y-12288174D02*
X18563039Y-12250079D01*
X18563039Y-12250079D02*
X18572563Y-12231031D01*
X18572563Y-12231031D02*
X18582087Y-12221508D01*
X18582087Y-12221508D02*
X18601134Y-12211984D01*
X18753515Y-12392936D02*
X18763039Y-12402460D01*
X18763039Y-12402460D02*
X18753515Y-12411984D01*
X18753515Y-12411984D02*
X18743991Y-12402460D01*
X18743991Y-12402460D02*
X18753515Y-12392936D01*
X18753515Y-12392936D02*
X18753515Y-12411984D01*
X18886848Y-12211984D02*
X18905896Y-12211984D01*
X18905896Y-12211984D02*
X18924944Y-12221508D01*
X18924944Y-12221508D02*
X18934468Y-12231031D01*
X18934468Y-12231031D02*
X18943991Y-12250079D01*
X18943991Y-12250079D02*
X18953515Y-12288174D01*
X18953515Y-12288174D02*
X18953515Y-12335793D01*
X18953515Y-12335793D02*
X18943991Y-12373888D01*
X18943991Y-12373888D02*
X18934468Y-12392936D01*
X18934468Y-12392936D02*
X18924944Y-12402460D01*
X18924944Y-12402460D02*
X18905896Y-12411984D01*
X18905896Y-12411984D02*
X18886848Y-12411984D01*
X18886848Y-12411984D02*
X18867801Y-12402460D01*
X18867801Y-12402460D02*
X18858277Y-12392936D01*
X18858277Y-12392936D02*
X18848753Y-12373888D01*
X18848753Y-12373888D02*
X18839229Y-12335793D01*
X18839229Y-12335793D02*
X18839229Y-12288174D01*
X18839229Y-12288174D02*
X18848753Y-12250079D01*
X18848753Y-12250079D02*
X18858277Y-12231031D01*
X18858277Y-12231031D02*
X18867801Y-12221508D01*
X18867801Y-12221508D02*
X18886848Y-12211984D01*
X19029706Y-12231031D02*
X19039229Y-12221508D01*
X19039229Y-12221508D02*
X19058277Y-12211984D01*
X19058277Y-12211984D02*
X19105896Y-12211984D01*
X19105896Y-12211984D02*
X19124944Y-12221508D01*
X19124944Y-12221508D02*
X19134468Y-12231031D01*
X19134468Y-12231031D02*
X19143991Y-12250079D01*
X19143991Y-12250079D02*
X19143991Y-12269127D01*
X19143991Y-12269127D02*
X19134468Y-12297698D01*
X19134468Y-12297698D02*
X19020182Y-12411984D01*
X19020182Y-12411984D02*
X19143991Y-12411984D01*
X19324944Y-12211984D02*
X19229706Y-12211984D01*
X19229706Y-12211984D02*
X19220182Y-12307222D01*
X19220182Y-12307222D02*
X19229706Y-12297698D01*
X19229706Y-12297698D02*
X19248753Y-12288174D01*
X19248753Y-12288174D02*
X19296372Y-12288174D01*
X19296372Y-12288174D02*
X19315420Y-12297698D01*
X19315420Y-12297698D02*
X19324944Y-12307222D01*
X19324944Y-12307222D02*
X19334468Y-12326269D01*
X19334468Y-12326269D02*
X19334468Y-12373888D01*
X19334468Y-12373888D02*
X19324944Y-12392936D01*
X19324944Y-12392936D02*
X19315420Y-12402460D01*
X19315420Y-12402460D02*
X19296372Y-12411984D01*
X19296372Y-12411984D02*
X19248753Y-12411984D01*
X19248753Y-12411984D02*
X19229706Y-12402460D01*
X19229706Y-12402460D02*
X19220182Y-12392936D01*
X19505896Y-12211984D02*
X19467801Y-12211984D01*
X19467801Y-12211984D02*
X19448753Y-12221508D01*
X19448753Y-12221508D02*
X19439229Y-12231031D01*
X19439229Y-12231031D02*
X19420182Y-12259603D01*
X19420182Y-12259603D02*
X19410658Y-12297698D01*
X19410658Y-12297698D02*
X19410658Y-12373888D01*
X19410658Y-12373888D02*
X19420182Y-12392936D01*
X19420182Y-12392936D02*
X19429706Y-12402460D01*
X19429706Y-12402460D02*
X19448753Y-12411984D01*
X19448753Y-12411984D02*
X19486849Y-12411984D01*
X19486849Y-12411984D02*
X19505896Y-12402460D01*
X19505896Y-12402460D02*
X19515420Y-12392936D01*
X19515420Y-12392936D02*
X19524944Y-12373888D01*
X19524944Y-12373888D02*
X19524944Y-12326269D01*
X19524944Y-12326269D02*
X19515420Y-12307222D01*
X19515420Y-12307222D02*
X19505896Y-12297698D01*
X19505896Y-12297698D02*
X19486849Y-12288174D01*
X19486849Y-12288174D02*
X19448753Y-12288174D01*
X19448753Y-12288174D02*
X19429706Y-12297698D01*
X19429706Y-12297698D02*
X19420182Y-12307222D01*
X19420182Y-12307222D02*
X19410658Y-12326269D01*
X19601134Y-12211984D02*
X19601134Y-12250079D01*
X19677325Y-12211984D02*
X19677325Y-12250079D01*
X19972563Y-12488174D02*
X19963039Y-12478650D01*
X19963039Y-12478650D02*
X19943991Y-12450079D01*
X19943991Y-12450079D02*
X19934468Y-12431031D01*
X19934468Y-12431031D02*
X19924944Y-12402460D01*
X19924944Y-12402460D02*
X19915420Y-12354841D01*
X19915420Y-12354841D02*
X19915420Y-12316746D01*
X19915420Y-12316746D02*
X19924944Y-12269127D01*
X19924944Y-12269127D02*
X19934468Y-12240555D01*
X19934468Y-12240555D02*
X19943991Y-12221508D01*
X19943991Y-12221508D02*
X19963039Y-12192936D01*
X19963039Y-12192936D02*
X19972563Y-12183412D01*
X20134468Y-12278650D02*
X20134468Y-12411984D01*
X20086849Y-12202460D02*
X20039230Y-12345317D01*
X20039230Y-12345317D02*
X20163039Y-12345317D01*
X20391611Y-12411984D02*
X20391611Y-12211984D01*
X20477325Y-12411984D02*
X20477325Y-12307222D01*
X20477325Y-12307222D02*
X20467801Y-12288174D01*
X20467801Y-12288174D02*
X20448753Y-12278650D01*
X20448753Y-12278650D02*
X20420182Y-12278650D01*
X20420182Y-12278650D02*
X20401134Y-12288174D01*
X20401134Y-12288174D02*
X20391611Y-12297698D01*
X20601134Y-12411984D02*
X20582087Y-12402460D01*
X20582087Y-12402460D02*
X20572563Y-12392936D01*
X20572563Y-12392936D02*
X20563039Y-12373888D01*
X20563039Y-12373888D02*
X20563039Y-12316746D01*
X20563039Y-12316746D02*
X20572563Y-12297698D01*
X20572563Y-12297698D02*
X20582087Y-12288174D01*
X20582087Y-12288174D02*
X20601134Y-12278650D01*
X20601134Y-12278650D02*
X20629706Y-12278650D01*
X20629706Y-12278650D02*
X20648753Y-12288174D01*
X20648753Y-12288174D02*
X20658277Y-12297698D01*
X20658277Y-12297698D02*
X20667801Y-12316746D01*
X20667801Y-12316746D02*
X20667801Y-12373888D01*
X20667801Y-12373888D02*
X20658277Y-12392936D01*
X20658277Y-12392936D02*
X20648753Y-12402460D01*
X20648753Y-12402460D02*
X20629706Y-12411984D01*
X20629706Y-12411984D02*
X20601134Y-12411984D01*
X20782087Y-12411984D02*
X20763039Y-12402460D01*
X20763039Y-12402460D02*
X20753515Y-12383412D01*
X20753515Y-12383412D02*
X20753515Y-12211984D01*
X20934468Y-12402460D02*
X20915420Y-12411984D01*
X20915420Y-12411984D02*
X20877325Y-12411984D01*
X20877325Y-12411984D02*
X20858277Y-12402460D01*
X20858277Y-12402460D02*
X20848753Y-12383412D01*
X20848753Y-12383412D02*
X20848753Y-12307222D01*
X20848753Y-12307222D02*
X20858277Y-12288174D01*
X20858277Y-12288174D02*
X20877325Y-12278650D01*
X20877325Y-12278650D02*
X20915420Y-12278650D01*
X20915420Y-12278650D02*
X20934468Y-12288174D01*
X20934468Y-12288174D02*
X20943992Y-12307222D01*
X20943992Y-12307222D02*
X20943992Y-12326269D01*
X20943992Y-12326269D02*
X20848753Y-12345317D01*
X21020182Y-12402460D02*
X21039230Y-12411984D01*
X21039230Y-12411984D02*
X21077325Y-12411984D01*
X21077325Y-12411984D02*
X21096373Y-12402460D01*
X21096373Y-12402460D02*
X21105896Y-12383412D01*
X21105896Y-12383412D02*
X21105896Y-12373888D01*
X21105896Y-12373888D02*
X21096373Y-12354841D01*
X21096373Y-12354841D02*
X21077325Y-12345317D01*
X21077325Y-12345317D02*
X21048753Y-12345317D01*
X21048753Y-12345317D02*
X21029706Y-12335793D01*
X21029706Y-12335793D02*
X21020182Y-12316746D01*
X21020182Y-12316746D02*
X21020182Y-12307222D01*
X21020182Y-12307222D02*
X21029706Y-12288174D01*
X21029706Y-12288174D02*
X21048753Y-12278650D01*
X21048753Y-12278650D02*
X21077325Y-12278650D01*
X21077325Y-12278650D02*
X21096373Y-12288174D01*
X21172563Y-12488174D02*
X21182087Y-12478650D01*
X21182087Y-12478650D02*
X21201134Y-12450079D01*
X21201134Y-12450079D02*
X21210658Y-12431031D01*
X21210658Y-12431031D02*
X21220182Y-12402460D01*
X21220182Y-12402460D02*
X21229706Y-12354841D01*
X21229706Y-12354841D02*
X21229706Y-12316746D01*
X21229706Y-12316746D02*
X21220182Y-12269127D01*
X21220182Y-12269127D02*
X21210658Y-12240555D01*
X21210658Y-12240555D02*
X21201134Y-12221508D01*
X21201134Y-12221508D02*
X21182087Y-12192936D01*
X21182087Y-12192936D02*
X21172563Y-12183412D01*
D13*
X16375533Y-12637533D02*
X16375533Y-12531466D01*
X16269466Y-12531466D01*
X16269466Y-12637533D01*
X16375533Y-12637533D01*
D11*
X16763039Y-12675984D02*
X16648753Y-12675984D01*
X16705896Y-12675984D02*
X16705896Y-12475984D01*
X16705896Y-12475984D02*
X16686848Y-12504555D01*
X16686848Y-12504555D02*
X16667801Y-12523603D01*
X16667801Y-12523603D02*
X16648753Y-12533127D01*
X16848753Y-12656936D02*
X16858277Y-12666460D01*
X16858277Y-12666460D02*
X16848753Y-12675984D01*
X16848753Y-12675984D02*
X16839229Y-12666460D01*
X16839229Y-12666460D02*
X16848753Y-12656936D01*
X16848753Y-12656936D02*
X16848753Y-12675984D01*
X17039229Y-12475984D02*
X16943991Y-12475984D01*
X16943991Y-12475984D02*
X16934467Y-12571222D01*
X16934467Y-12571222D02*
X16943991Y-12561698D01*
X16943991Y-12561698D02*
X16963039Y-12552174D01*
X16963039Y-12552174D02*
X17010658Y-12552174D01*
X17010658Y-12552174D02*
X17029705Y-12561698D01*
X17029705Y-12561698D02*
X17039229Y-12571222D01*
X17039229Y-12571222D02*
X17048753Y-12590269D01*
X17048753Y-12590269D02*
X17048753Y-12637888D01*
X17048753Y-12637888D02*
X17039229Y-12656936D01*
X17039229Y-12656936D02*
X17029705Y-12666460D01*
X17029705Y-12666460D02*
X17010658Y-12675984D01*
X17010658Y-12675984D02*
X16963039Y-12675984D01*
X16963039Y-12675984D02*
X16943991Y-12666460D01*
X16943991Y-12666460D02*
X16934467Y-12656936D01*
X17172563Y-12475984D02*
X17191610Y-12475984D01*
X17191610Y-12475984D02*
X17210658Y-12485508D01*
X17210658Y-12485508D02*
X17220182Y-12495031D01*
X17220182Y-12495031D02*
X17229705Y-12514079D01*
X17229705Y-12514079D02*
X17239229Y-12552174D01*
X17239229Y-12552174D02*
X17239229Y-12599793D01*
X17239229Y-12599793D02*
X17229705Y-12637888D01*
X17229705Y-12637888D02*
X17220182Y-12656936D01*
X17220182Y-12656936D02*
X17210658Y-12666460D01*
X17210658Y-12666460D02*
X17191610Y-12675984D01*
X17191610Y-12675984D02*
X17172563Y-12675984D01*
X17172563Y-12675984D02*
X17153515Y-12666460D01*
X17153515Y-12666460D02*
X17143991Y-12656936D01*
X17143991Y-12656936D02*
X17134467Y-12637888D01*
X17134467Y-12637888D02*
X17124944Y-12599793D01*
X17124944Y-12599793D02*
X17124944Y-12552174D01*
X17124944Y-12552174D02*
X17134467Y-12514079D01*
X17134467Y-12514079D02*
X17143991Y-12495031D01*
X17143991Y-12495031D02*
X17153515Y-12485508D01*
X17153515Y-12485508D02*
X17172563Y-12475984D01*
X17363039Y-12475984D02*
X17382086Y-12475984D01*
X17382086Y-12475984D02*
X17401134Y-12485508D01*
X17401134Y-12485508D02*
X17410658Y-12495031D01*
X17410658Y-12495031D02*
X17420182Y-12514079D01*
X17420182Y-12514079D02*
X17429705Y-12552174D01*
X17429705Y-12552174D02*
X17429705Y-12599793D01*
X17429705Y-12599793D02*
X17420182Y-12637888D01*
X17420182Y-12637888D02*
X17410658Y-12656936D01*
X17410658Y-12656936D02*
X17401134Y-12666460D01*
X17401134Y-12666460D02*
X17382086Y-12675984D01*
X17382086Y-12675984D02*
X17363039Y-12675984D01*
X17363039Y-12675984D02*
X17343991Y-12666460D01*
X17343991Y-12666460D02*
X17334467Y-12656936D01*
X17334467Y-12656936D02*
X17324944Y-12637888D01*
X17324944Y-12637888D02*
X17315420Y-12599793D01*
X17315420Y-12599793D02*
X17315420Y-12552174D01*
X17315420Y-12552174D02*
X17324944Y-12514079D01*
X17324944Y-12514079D02*
X17334467Y-12495031D01*
X17334467Y-12495031D02*
X17343991Y-12485508D01*
X17343991Y-12485508D02*
X17363039Y-12475984D01*
X17515420Y-12675984D02*
X17515420Y-12542650D01*
X17515420Y-12561698D02*
X17524944Y-12552174D01*
X17524944Y-12552174D02*
X17543991Y-12542650D01*
X17543991Y-12542650D02*
X17572563Y-12542650D01*
X17572563Y-12542650D02*
X17591610Y-12552174D01*
X17591610Y-12552174D02*
X17601134Y-12571222D01*
X17601134Y-12571222D02*
X17601134Y-12675984D01*
X17601134Y-12571222D02*
X17610658Y-12552174D01*
X17610658Y-12552174D02*
X17629705Y-12542650D01*
X17629705Y-12542650D02*
X17658277Y-12542650D01*
X17658277Y-12542650D02*
X17677325Y-12552174D01*
X17677325Y-12552174D02*
X17686848Y-12571222D01*
X17686848Y-12571222D02*
X17686848Y-12675984D01*
X17782086Y-12675984D02*
X17782086Y-12542650D01*
X17782086Y-12561698D02*
X17791610Y-12552174D01*
X17791610Y-12552174D02*
X17810658Y-12542650D01*
X17810658Y-12542650D02*
X17839229Y-12542650D01*
X17839229Y-12542650D02*
X17858277Y-12552174D01*
X17858277Y-12552174D02*
X17867801Y-12571222D01*
X17867801Y-12571222D02*
X17867801Y-12675984D01*
X17867801Y-12571222D02*
X17877325Y-12552174D01*
X17877325Y-12552174D02*
X17896372Y-12542650D01*
X17896372Y-12542650D02*
X17924944Y-12542650D01*
X17924944Y-12542650D02*
X17943991Y-12552174D01*
X17943991Y-12552174D02*
X17953515Y-12571222D01*
X17953515Y-12571222D02*
X17953515Y-12675984D01*
X18343991Y-12466460D02*
X18172563Y-12723603D01*
X18601134Y-12475984D02*
X18620182Y-12475984D01*
X18620182Y-12475984D02*
X18639229Y-12485508D01*
X18639229Y-12485508D02*
X18648753Y-12495031D01*
X18648753Y-12495031D02*
X18658277Y-12514079D01*
X18658277Y-12514079D02*
X18667801Y-12552174D01*
X18667801Y-12552174D02*
X18667801Y-12599793D01*
X18667801Y-12599793D02*
X18658277Y-12637888D01*
X18658277Y-12637888D02*
X18648753Y-12656936D01*
X18648753Y-12656936D02*
X18639229Y-12666460D01*
X18639229Y-12666460D02*
X18620182Y-12675984D01*
X18620182Y-12675984D02*
X18601134Y-12675984D01*
X18601134Y-12675984D02*
X18582087Y-12666460D01*
X18582087Y-12666460D02*
X18572563Y-12656936D01*
X18572563Y-12656936D02*
X18563039Y-12637888D01*
X18563039Y-12637888D02*
X18553515Y-12599793D01*
X18553515Y-12599793D02*
X18553515Y-12552174D01*
X18553515Y-12552174D02*
X18563039Y-12514079D01*
X18563039Y-12514079D02*
X18572563Y-12495031D01*
X18572563Y-12495031D02*
X18582087Y-12485508D01*
X18582087Y-12485508D02*
X18601134Y-12475984D01*
X18753515Y-12656936D02*
X18763039Y-12666460D01*
X18763039Y-12666460D02*
X18753515Y-12675984D01*
X18753515Y-12675984D02*
X18743991Y-12666460D01*
X18743991Y-12666460D02*
X18753515Y-12656936D01*
X18753515Y-12656936D02*
X18753515Y-12675984D01*
X18886848Y-12475984D02*
X18905896Y-12475984D01*
X18905896Y-12475984D02*
X18924944Y-12485508D01*
X18924944Y-12485508D02*
X18934468Y-12495031D01*
X18934468Y-12495031D02*
X18943991Y-12514079D01*
X18943991Y-12514079D02*
X18953515Y-12552174D01*
X18953515Y-12552174D02*
X18953515Y-12599793D01*
X18953515Y-12599793D02*
X18943991Y-12637888D01*
X18943991Y-12637888D02*
X18934468Y-12656936D01*
X18934468Y-12656936D02*
X18924944Y-12666460D01*
X18924944Y-12666460D02*
X18905896Y-12675984D01*
X18905896Y-12675984D02*
X18886848Y-12675984D01*
X18886848Y-12675984D02*
X18867801Y-12666460D01*
X18867801Y-12666460D02*
X18858277Y-12656936D01*
X18858277Y-12656936D02*
X18848753Y-12637888D01*
X18848753Y-12637888D02*
X18839229Y-12599793D01*
X18839229Y-12599793D02*
X18839229Y-12552174D01*
X18839229Y-12552174D02*
X18848753Y-12514079D01*
X18848753Y-12514079D02*
X18858277Y-12495031D01*
X18858277Y-12495031D02*
X18867801Y-12485508D01*
X18867801Y-12485508D02*
X18886848Y-12475984D01*
X19134468Y-12475984D02*
X19039229Y-12475984D01*
X19039229Y-12475984D02*
X19029706Y-12571222D01*
X19029706Y-12571222D02*
X19039229Y-12561698D01*
X19039229Y-12561698D02*
X19058277Y-12552174D01*
X19058277Y-12552174D02*
X19105896Y-12552174D01*
X19105896Y-12552174D02*
X19124944Y-12561698D01*
X19124944Y-12561698D02*
X19134468Y-12571222D01*
X19134468Y-12571222D02*
X19143991Y-12590269D01*
X19143991Y-12590269D02*
X19143991Y-12637888D01*
X19143991Y-12637888D02*
X19134468Y-12656936D01*
X19134468Y-12656936D02*
X19124944Y-12666460D01*
X19124944Y-12666460D02*
X19105896Y-12675984D01*
X19105896Y-12675984D02*
X19058277Y-12675984D01*
X19058277Y-12675984D02*
X19039229Y-12666460D01*
X19039229Y-12666460D02*
X19029706Y-12656936D01*
X19239229Y-12675984D02*
X19277325Y-12675984D01*
X19277325Y-12675984D02*
X19296372Y-12666460D01*
X19296372Y-12666460D02*
X19305896Y-12656936D01*
X19305896Y-12656936D02*
X19324944Y-12628365D01*
X19324944Y-12628365D02*
X19334468Y-12590269D01*
X19334468Y-12590269D02*
X19334468Y-12514079D01*
X19334468Y-12514079D02*
X19324944Y-12495031D01*
X19324944Y-12495031D02*
X19315420Y-12485508D01*
X19315420Y-12485508D02*
X19296372Y-12475984D01*
X19296372Y-12475984D02*
X19258277Y-12475984D01*
X19258277Y-12475984D02*
X19239229Y-12485508D01*
X19239229Y-12485508D02*
X19229706Y-12495031D01*
X19229706Y-12495031D02*
X19220182Y-12514079D01*
X19220182Y-12514079D02*
X19220182Y-12561698D01*
X19220182Y-12561698D02*
X19229706Y-12580746D01*
X19229706Y-12580746D02*
X19239229Y-12590269D01*
X19239229Y-12590269D02*
X19258277Y-12599793D01*
X19258277Y-12599793D02*
X19296372Y-12599793D01*
X19296372Y-12599793D02*
X19315420Y-12590269D01*
X19315420Y-12590269D02*
X19324944Y-12580746D01*
X19324944Y-12580746D02*
X19334468Y-12561698D01*
X19524944Y-12675984D02*
X19410658Y-12675984D01*
X19467801Y-12675984D02*
X19467801Y-12475984D01*
X19467801Y-12475984D02*
X19448753Y-12504555D01*
X19448753Y-12504555D02*
X19429706Y-12523603D01*
X19429706Y-12523603D02*
X19410658Y-12533127D01*
X19601134Y-12475984D02*
X19601134Y-12514079D01*
X19677325Y-12475984D02*
X19677325Y-12514079D01*
X19972563Y-12752174D02*
X19963039Y-12742650D01*
X19963039Y-12742650D02*
X19943991Y-12714079D01*
X19943991Y-12714079D02*
X19934468Y-12695031D01*
X19934468Y-12695031D02*
X19924944Y-12666460D01*
X19924944Y-12666460D02*
X19915420Y-12618841D01*
X19915420Y-12618841D02*
X19915420Y-12580746D01*
X19915420Y-12580746D02*
X19924944Y-12533127D01*
X19924944Y-12533127D02*
X19934468Y-12504555D01*
X19934468Y-12504555D02*
X19943991Y-12485508D01*
X19943991Y-12485508D02*
X19963039Y-12456936D01*
X19963039Y-12456936D02*
X19972563Y-12447412D01*
X20134468Y-12542650D02*
X20134468Y-12675984D01*
X20086849Y-12466460D02*
X20039230Y-12609317D01*
X20039230Y-12609317D02*
X20163039Y-12609317D01*
X20391611Y-12675984D02*
X20391611Y-12475984D01*
X20477325Y-12675984D02*
X20477325Y-12571222D01*
X20477325Y-12571222D02*
X20467801Y-12552174D01*
X20467801Y-12552174D02*
X20448753Y-12542650D01*
X20448753Y-12542650D02*
X20420182Y-12542650D01*
X20420182Y-12542650D02*
X20401134Y-12552174D01*
X20401134Y-12552174D02*
X20391611Y-12561698D01*
X20601134Y-12675984D02*
X20582087Y-12666460D01*
X20582087Y-12666460D02*
X20572563Y-12656936D01*
X20572563Y-12656936D02*
X20563039Y-12637888D01*
X20563039Y-12637888D02*
X20563039Y-12580746D01*
X20563039Y-12580746D02*
X20572563Y-12561698D01*
X20572563Y-12561698D02*
X20582087Y-12552174D01*
X20582087Y-12552174D02*
X20601134Y-12542650D01*
X20601134Y-12542650D02*
X20629706Y-12542650D01*
X20629706Y-12542650D02*
X20648753Y-12552174D01*
X20648753Y-12552174D02*
X20658277Y-12561698D01*
X20658277Y-12561698D02*
X20667801Y-12580746D01*
X20667801Y-12580746D02*
X20667801Y-12637888D01*
X20667801Y-12637888D02*
X20658277Y-12656936D01*
X20658277Y-12656936D02*
X20648753Y-12666460D01*
X20648753Y-12666460D02*
X20629706Y-12675984D01*
X20629706Y-12675984D02*
X20601134Y-12675984D01*
X20782087Y-12675984D02*
X20763039Y-12666460D01*
X20763039Y-12666460D02*
X20753515Y-12647412D01*
X20753515Y-12647412D02*
X20753515Y-12475984D01*
X20934468Y-12666460D02*
X20915420Y-12675984D01*
X20915420Y-12675984D02*
X20877325Y-12675984D01*
X20877325Y-12675984D02*
X20858277Y-12666460D01*
X20858277Y-12666460D02*
X20848753Y-12647412D01*
X20848753Y-12647412D02*
X20848753Y-12571222D01*
X20848753Y-12571222D02*
X20858277Y-12552174D01*
X20858277Y-12552174D02*
X20877325Y-12542650D01*
X20877325Y-12542650D02*
X20915420Y-12542650D01*
X20915420Y-12542650D02*
X20934468Y-12552174D01*
X20934468Y-12552174D02*
X20943992Y-12571222D01*
X20943992Y-12571222D02*
X20943992Y-12590269D01*
X20943992Y-12590269D02*
X20848753Y-12609317D01*
X21020182Y-12666460D02*
X21039230Y-12675984D01*
X21039230Y-12675984D02*
X21077325Y-12675984D01*
X21077325Y-12675984D02*
X21096373Y-12666460D01*
X21096373Y-12666460D02*
X21105896Y-12647412D01*
X21105896Y-12647412D02*
X21105896Y-12637888D01*
X21105896Y-12637888D02*
X21096373Y-12618841D01*
X21096373Y-12618841D02*
X21077325Y-12609317D01*
X21077325Y-12609317D02*
X21048753Y-12609317D01*
X21048753Y-12609317D02*
X21029706Y-12599793D01*
X21029706Y-12599793D02*
X21020182Y-12580746D01*
X21020182Y-12580746D02*
X21020182Y-12571222D01*
X21020182Y-12571222D02*
X21029706Y-12552174D01*
X21029706Y-12552174D02*
X21048753Y-12542650D01*
X21048753Y-12542650D02*
X21077325Y-12542650D01*
X21077325Y-12542650D02*
X21096373Y-12552174D01*
X21172563Y-12752174D02*
X21182087Y-12742650D01*
X21182087Y-12742650D02*
X21201134Y-12714079D01*
X21201134Y-12714079D02*
X21210658Y-12695031D01*
X21210658Y-12695031D02*
X21220182Y-12666460D01*
X21220182Y-12666460D02*
X21229706Y-12618841D01*
X21229706Y-12618841D02*
X21229706Y-12580746D01*
X21229706Y-12580746D02*
X21220182Y-12533127D01*
X21220182Y-12533127D02*
X21210658Y-12504555D01*
X21210658Y-12504555D02*
X21201134Y-12485508D01*
X21201134Y-12485508D02*
X21182087Y-12456936D01*
X21182087Y-12456936D02*
X21172563Y-12447412D01*
M02*
