%TF.GenerationSoftware,KiCad,Pcbnew,9.0.0*%
%TF.CreationDate,2025-03-07T10:15:04+01:00*%
%TF.ProjectId,converter1A,636f6e76-6572-4746-9572-31412e6b6963,rev?*%
%TF.SameCoordinates,Original*%
%TF.FileFunction,Legend,Top*%
%TF.FilePolarity,Positive*%
%FSLAX46Y46*%
G04 Gerber Fmt 4.6, Leading zero omitted, Abs format (unit mm)*
G04 Created by KiCad (PCBNEW 9.0.0) date 2025-03-07 10:15:04*
%MOMM*%
%LPD*%
G01*
G04 APERTURE LIST*
G04 Aperture macros list*
%AMRoundRect*
0 Rectangle with rounded corners*
0 $1 Rounding radius*
0 $2 $3 $4 $5 $6 $7 $8 $9 X,Y pos of 4 corners*
0 Add a 4 corners polygon primitive as box body*
4,1,4,$2,$3,$4,$5,$6,$7,$8,$9,$2,$3,0*
0 Add four circle primitives for the rounded corners*
1,1,$1+$1,$2,$3*
1,1,$1+$1,$4,$5*
1,1,$1+$1,$6,$7*
1,1,$1+$1,$8,$9*
0 Add four rect primitives between the rounded corners*
20,1,$1+$1,$2,$3,$4,$5,0*
20,1,$1+$1,$4,$5,$6,$7,0*
20,1,$1+$1,$6,$7,$8,$9,0*
20,1,$1+$1,$8,$9,$2,$3,0*%
%AMFreePoly0*
4,1,17,1.371000,0.720000,0.950000,0.720000,0.950000,0.580000,1.370000,0.580000,1.370000,0.080000,0.950000,0.080000,0.950000,-0.080000,1.370000,-0.080000,1.370000,-0.580000,0.950000,-0.580000,0.950000,-0.720000,1.370000,-0.720000,1.370000,-1.225000,-0.950000,-1.225000,-0.950000,1.225000,1.371000,1.225000,1.371000,0.720000,1.371000,0.720000,$1*%
G04 Aperture macros list end*
%ADD10C,0.100000*%
%ADD11C,0.254000*%
%ADD12C,0.200000*%
%ADD13C,0.120000*%
%ADD14R,1.200000X0.600000*%
%ADD15R,0.850000X1.000000*%
%ADD16R,0.600000X0.750000*%
%ADD17R,0.800000X0.950000*%
%ADD18R,0.750000X0.600000*%
%ADD19R,0.940000X0.540000*%
%ADD20C,2.400000*%
%ADD21R,1.170000X1.820000*%
%ADD22R,2.300000X2.300000*%
%ADD23C,2.300000*%
%ADD24R,0.420000X0.620000*%
%ADD25R,1.070000X1.820000*%
%ADD26R,1.750000X3.200000*%
%ADD27R,2.820000X0.810000*%
%ADD28R,1.450000X1.150000*%
%ADD29R,1.400000X1.950000*%
%ADD30RoundRect,0.125000X-0.190000X-0.125000X0.190000X-0.125000X0.190000X0.125000X-0.190000X0.125000X0*%
%ADD31FreePoly0,0.000000*%
%ADD32R,1.150000X1.450000*%
%ADD33R,1.600000X3.000000*%
%ADD34R,0.450000X0.600000*%
%ADD35R,1.000000X1.000000*%
%ADD36O,1.000000X1.000000*%
%ADD37R,0.700000X0.650000*%
%ADD38R,0.250000X0.600000*%
%ADD39R,0.600000X0.250000*%
%ADD40R,1.700000X2.700000*%
%ADD41R,1.260000X2.720000*%
%ADD42RoundRect,0.125000X0.125000X-0.190000X0.125000X0.190000X-0.125000X0.190000X-0.125000X-0.190000X0*%
%ADD43FreePoly0,90.000000*%
%ADD44R,3.070000X2.260000*%
%ADD45R,2.770000X2.260000*%
G04 APERTURE END LIST*
D10*
X167970550Y-82933609D02*
X167803884Y-82695514D01*
X167684836Y-82933609D02*
X167684836Y-82433609D01*
X167684836Y-82433609D02*
X167875312Y-82433609D01*
X167875312Y-82433609D02*
X167922931Y-82457419D01*
X167922931Y-82457419D02*
X167946741Y-82481228D01*
X167946741Y-82481228D02*
X167970550Y-82528847D01*
X167970550Y-82528847D02*
X167970550Y-82600276D01*
X167970550Y-82600276D02*
X167946741Y-82647895D01*
X167946741Y-82647895D02*
X167922931Y-82671704D01*
X167922931Y-82671704D02*
X167875312Y-82695514D01*
X167875312Y-82695514D02*
X167684836Y-82695514D01*
X168399122Y-82433609D02*
X168303884Y-82433609D01*
X168303884Y-82433609D02*
X168256265Y-82457419D01*
X168256265Y-82457419D02*
X168232455Y-82481228D01*
X168232455Y-82481228D02*
X168184836Y-82552657D01*
X168184836Y-82552657D02*
X168161027Y-82647895D01*
X168161027Y-82647895D02*
X168161027Y-82838371D01*
X168161027Y-82838371D02*
X168184836Y-82885990D01*
X168184836Y-82885990D02*
X168208646Y-82909800D01*
X168208646Y-82909800D02*
X168256265Y-82933609D01*
X168256265Y-82933609D02*
X168351503Y-82933609D01*
X168351503Y-82933609D02*
X168399122Y-82909800D01*
X168399122Y-82909800D02*
X168422931Y-82885990D01*
X168422931Y-82885990D02*
X168446741Y-82838371D01*
X168446741Y-82838371D02*
X168446741Y-82719323D01*
X168446741Y-82719323D02*
X168422931Y-82671704D01*
X168422931Y-82671704D02*
X168399122Y-82647895D01*
X168399122Y-82647895D02*
X168351503Y-82624085D01*
X168351503Y-82624085D02*
X168256265Y-82624085D01*
X168256265Y-82624085D02*
X168208646Y-82647895D01*
X168208646Y-82647895D02*
X168184836Y-82671704D01*
X168184836Y-82671704D02*
X168161027Y-82719323D01*
X167590550Y-76375990D02*
X167566741Y-76399800D01*
X167566741Y-76399800D02*
X167495312Y-76423609D01*
X167495312Y-76423609D02*
X167447693Y-76423609D01*
X167447693Y-76423609D02*
X167376265Y-76399800D01*
X167376265Y-76399800D02*
X167328646Y-76352180D01*
X167328646Y-76352180D02*
X167304836Y-76304561D01*
X167304836Y-76304561D02*
X167281027Y-76209323D01*
X167281027Y-76209323D02*
X167281027Y-76137895D01*
X167281027Y-76137895D02*
X167304836Y-76042657D01*
X167304836Y-76042657D02*
X167328646Y-75995038D01*
X167328646Y-75995038D02*
X167376265Y-75947419D01*
X167376265Y-75947419D02*
X167447693Y-75923609D01*
X167447693Y-75923609D02*
X167495312Y-75923609D01*
X167495312Y-75923609D02*
X167566741Y-75947419D01*
X167566741Y-75947419D02*
X167590550Y-75971228D01*
X168066741Y-76423609D02*
X167781027Y-76423609D01*
X167923884Y-76423609D02*
X167923884Y-75923609D01*
X167923884Y-75923609D02*
X167876265Y-75995038D01*
X167876265Y-75995038D02*
X167828646Y-76042657D01*
X167828646Y-76042657D02*
X167781027Y-76066466D01*
X168257217Y-75971228D02*
X168281026Y-75947419D01*
X168281026Y-75947419D02*
X168328645Y-75923609D01*
X168328645Y-75923609D02*
X168447693Y-75923609D01*
X168447693Y-75923609D02*
X168495312Y-75947419D01*
X168495312Y-75947419D02*
X168519121Y-75971228D01*
X168519121Y-75971228D02*
X168542931Y-76018847D01*
X168542931Y-76018847D02*
X168542931Y-76066466D01*
X168542931Y-76066466D02*
X168519121Y-76137895D01*
X168519121Y-76137895D02*
X168233407Y-76423609D01*
X168233407Y-76423609D02*
X168542931Y-76423609D01*
X173470550Y-104933609D02*
X173303884Y-104695514D01*
X173184836Y-104933609D02*
X173184836Y-104433609D01*
X173184836Y-104433609D02*
X173375312Y-104433609D01*
X173375312Y-104433609D02*
X173422931Y-104457419D01*
X173422931Y-104457419D02*
X173446741Y-104481228D01*
X173446741Y-104481228D02*
X173470550Y-104528847D01*
X173470550Y-104528847D02*
X173470550Y-104600276D01*
X173470550Y-104600276D02*
X173446741Y-104647895D01*
X173446741Y-104647895D02*
X173422931Y-104671704D01*
X173422931Y-104671704D02*
X173375312Y-104695514D01*
X173375312Y-104695514D02*
X173184836Y-104695514D01*
X173946741Y-104933609D02*
X173661027Y-104933609D01*
X173803884Y-104933609D02*
X173803884Y-104433609D01*
X173803884Y-104433609D02*
X173756265Y-104505038D01*
X173756265Y-104505038D02*
X173708646Y-104552657D01*
X173708646Y-104552657D02*
X173661027Y-104576466D01*
X174375312Y-104600276D02*
X174375312Y-104933609D01*
X174256264Y-104409800D02*
X174137217Y-104766942D01*
X174137217Y-104766942D02*
X174446740Y-104766942D01*
X175470550Y-93933609D02*
X175303884Y-93695514D01*
X175184836Y-93933609D02*
X175184836Y-93433609D01*
X175184836Y-93433609D02*
X175375312Y-93433609D01*
X175375312Y-93433609D02*
X175422931Y-93457419D01*
X175422931Y-93457419D02*
X175446741Y-93481228D01*
X175446741Y-93481228D02*
X175470550Y-93528847D01*
X175470550Y-93528847D02*
X175470550Y-93600276D01*
X175470550Y-93600276D02*
X175446741Y-93647895D01*
X175446741Y-93647895D02*
X175422931Y-93671704D01*
X175422931Y-93671704D02*
X175375312Y-93695514D01*
X175375312Y-93695514D02*
X175184836Y-93695514D01*
X175661027Y-93481228D02*
X175684836Y-93457419D01*
X175684836Y-93457419D02*
X175732455Y-93433609D01*
X175732455Y-93433609D02*
X175851503Y-93433609D01*
X175851503Y-93433609D02*
X175899122Y-93457419D01*
X175899122Y-93457419D02*
X175922931Y-93481228D01*
X175922931Y-93481228D02*
X175946741Y-93528847D01*
X175946741Y-93528847D02*
X175946741Y-93576466D01*
X175946741Y-93576466D02*
X175922931Y-93647895D01*
X175922931Y-93647895D02*
X175637217Y-93933609D01*
X175637217Y-93933609D02*
X175946741Y-93933609D01*
X183470550Y-86385990D02*
X183446741Y-86409800D01*
X183446741Y-86409800D02*
X183375312Y-86433609D01*
X183375312Y-86433609D02*
X183327693Y-86433609D01*
X183327693Y-86433609D02*
X183256265Y-86409800D01*
X183256265Y-86409800D02*
X183208646Y-86362180D01*
X183208646Y-86362180D02*
X183184836Y-86314561D01*
X183184836Y-86314561D02*
X183161027Y-86219323D01*
X183161027Y-86219323D02*
X183161027Y-86147895D01*
X183161027Y-86147895D02*
X183184836Y-86052657D01*
X183184836Y-86052657D02*
X183208646Y-86005038D01*
X183208646Y-86005038D02*
X183256265Y-85957419D01*
X183256265Y-85957419D02*
X183327693Y-85933609D01*
X183327693Y-85933609D02*
X183375312Y-85933609D01*
X183375312Y-85933609D02*
X183446741Y-85957419D01*
X183446741Y-85957419D02*
X183470550Y-85981228D01*
X183946741Y-86433609D02*
X183661027Y-86433609D01*
X183803884Y-86433609D02*
X183803884Y-85933609D01*
X183803884Y-85933609D02*
X183756265Y-86005038D01*
X183756265Y-86005038D02*
X183708646Y-86052657D01*
X183708646Y-86052657D02*
X183661027Y-86076466D01*
X184113407Y-85933609D02*
X184446740Y-85933609D01*
X184446740Y-85933609D02*
X184232455Y-86433609D01*
X183970550Y-101885990D02*
X183946741Y-101909800D01*
X183946741Y-101909800D02*
X183875312Y-101933609D01*
X183875312Y-101933609D02*
X183827693Y-101933609D01*
X183827693Y-101933609D02*
X183756265Y-101909800D01*
X183756265Y-101909800D02*
X183708646Y-101862180D01*
X183708646Y-101862180D02*
X183684836Y-101814561D01*
X183684836Y-101814561D02*
X183661027Y-101719323D01*
X183661027Y-101719323D02*
X183661027Y-101647895D01*
X183661027Y-101647895D02*
X183684836Y-101552657D01*
X183684836Y-101552657D02*
X183708646Y-101505038D01*
X183708646Y-101505038D02*
X183756265Y-101457419D01*
X183756265Y-101457419D02*
X183827693Y-101433609D01*
X183827693Y-101433609D02*
X183875312Y-101433609D01*
X183875312Y-101433609D02*
X183946741Y-101457419D01*
X183946741Y-101457419D02*
X183970550Y-101481228D01*
X184137217Y-101433609D02*
X184446741Y-101433609D01*
X184446741Y-101433609D02*
X184280074Y-101624085D01*
X184280074Y-101624085D02*
X184351503Y-101624085D01*
X184351503Y-101624085D02*
X184399122Y-101647895D01*
X184399122Y-101647895D02*
X184422931Y-101671704D01*
X184422931Y-101671704D02*
X184446741Y-101719323D01*
X184446741Y-101719323D02*
X184446741Y-101838371D01*
X184446741Y-101838371D02*
X184422931Y-101885990D01*
X184422931Y-101885990D02*
X184399122Y-101909800D01*
X184399122Y-101909800D02*
X184351503Y-101933609D01*
X184351503Y-101933609D02*
X184208646Y-101933609D01*
X184208646Y-101933609D02*
X184161027Y-101909800D01*
X184161027Y-101909800D02*
X184137217Y-101885990D01*
X164851503Y-89671704D02*
X164684836Y-89671704D01*
X164684836Y-89933609D02*
X164684836Y-89433609D01*
X164684836Y-89433609D02*
X164922931Y-89433609D01*
X165375312Y-89933609D02*
X165089598Y-89933609D01*
X165232455Y-89933609D02*
X165232455Y-89433609D01*
X165232455Y-89433609D02*
X165184836Y-89505038D01*
X165184836Y-89505038D02*
X165137217Y-89552657D01*
X165137217Y-89552657D02*
X165089598Y-89576466D01*
X171390550Y-76333609D02*
X171223884Y-76095514D01*
X171104836Y-76333609D02*
X171104836Y-75833609D01*
X171104836Y-75833609D02*
X171295312Y-75833609D01*
X171295312Y-75833609D02*
X171342931Y-75857419D01*
X171342931Y-75857419D02*
X171366741Y-75881228D01*
X171366741Y-75881228D02*
X171390550Y-75928847D01*
X171390550Y-75928847D02*
X171390550Y-76000276D01*
X171390550Y-76000276D02*
X171366741Y-76047895D01*
X171366741Y-76047895D02*
X171342931Y-76071704D01*
X171342931Y-76071704D02*
X171295312Y-76095514D01*
X171295312Y-76095514D02*
X171104836Y-76095514D01*
X171866741Y-76333609D02*
X171581027Y-76333609D01*
X171723884Y-76333609D02*
X171723884Y-75833609D01*
X171723884Y-75833609D02*
X171676265Y-75905038D01*
X171676265Y-75905038D02*
X171628646Y-75952657D01*
X171628646Y-75952657D02*
X171581027Y-75976466D01*
X172033407Y-75833609D02*
X172342931Y-75833609D01*
X172342931Y-75833609D02*
X172176264Y-76024085D01*
X172176264Y-76024085D02*
X172247693Y-76024085D01*
X172247693Y-76024085D02*
X172295312Y-76047895D01*
X172295312Y-76047895D02*
X172319121Y-76071704D01*
X172319121Y-76071704D02*
X172342931Y-76119323D01*
X172342931Y-76119323D02*
X172342931Y-76238371D01*
X172342931Y-76238371D02*
X172319121Y-76285990D01*
X172319121Y-76285990D02*
X172295312Y-76309800D01*
X172295312Y-76309800D02*
X172247693Y-76333609D01*
X172247693Y-76333609D02*
X172104836Y-76333609D01*
X172104836Y-76333609D02*
X172057217Y-76309800D01*
X172057217Y-76309800D02*
X172033407Y-76285990D01*
X177970550Y-84433609D02*
X177803884Y-84195514D01*
X177684836Y-84433609D02*
X177684836Y-83933609D01*
X177684836Y-83933609D02*
X177875312Y-83933609D01*
X177875312Y-83933609D02*
X177922931Y-83957419D01*
X177922931Y-83957419D02*
X177946741Y-83981228D01*
X177946741Y-83981228D02*
X177970550Y-84028847D01*
X177970550Y-84028847D02*
X177970550Y-84100276D01*
X177970550Y-84100276D02*
X177946741Y-84147895D01*
X177946741Y-84147895D02*
X177922931Y-84171704D01*
X177922931Y-84171704D02*
X177875312Y-84195514D01*
X177875312Y-84195514D02*
X177684836Y-84195514D01*
X178256265Y-84147895D02*
X178208646Y-84124085D01*
X178208646Y-84124085D02*
X178184836Y-84100276D01*
X178184836Y-84100276D02*
X178161027Y-84052657D01*
X178161027Y-84052657D02*
X178161027Y-84028847D01*
X178161027Y-84028847D02*
X178184836Y-83981228D01*
X178184836Y-83981228D02*
X178208646Y-83957419D01*
X178208646Y-83957419D02*
X178256265Y-83933609D01*
X178256265Y-83933609D02*
X178351503Y-83933609D01*
X178351503Y-83933609D02*
X178399122Y-83957419D01*
X178399122Y-83957419D02*
X178422931Y-83981228D01*
X178422931Y-83981228D02*
X178446741Y-84028847D01*
X178446741Y-84028847D02*
X178446741Y-84052657D01*
X178446741Y-84052657D02*
X178422931Y-84100276D01*
X178422931Y-84100276D02*
X178399122Y-84124085D01*
X178399122Y-84124085D02*
X178351503Y-84147895D01*
X178351503Y-84147895D02*
X178256265Y-84147895D01*
X178256265Y-84147895D02*
X178208646Y-84171704D01*
X178208646Y-84171704D02*
X178184836Y-84195514D01*
X178184836Y-84195514D02*
X178161027Y-84243133D01*
X178161027Y-84243133D02*
X178161027Y-84338371D01*
X178161027Y-84338371D02*
X178184836Y-84385990D01*
X178184836Y-84385990D02*
X178208646Y-84409800D01*
X178208646Y-84409800D02*
X178256265Y-84433609D01*
X178256265Y-84433609D02*
X178351503Y-84433609D01*
X178351503Y-84433609D02*
X178399122Y-84409800D01*
X178399122Y-84409800D02*
X178422931Y-84385990D01*
X178422931Y-84385990D02*
X178446741Y-84338371D01*
X178446741Y-84338371D02*
X178446741Y-84243133D01*
X178446741Y-84243133D02*
X178422931Y-84195514D01*
X178422931Y-84195514D02*
X178399122Y-84171704D01*
X178399122Y-84171704D02*
X178351503Y-84147895D01*
X179470550Y-77885990D02*
X179446741Y-77909800D01*
X179446741Y-77909800D02*
X179375312Y-77933609D01*
X179375312Y-77933609D02*
X179327693Y-77933609D01*
X179327693Y-77933609D02*
X179256265Y-77909800D01*
X179256265Y-77909800D02*
X179208646Y-77862180D01*
X179208646Y-77862180D02*
X179184836Y-77814561D01*
X179184836Y-77814561D02*
X179161027Y-77719323D01*
X179161027Y-77719323D02*
X179161027Y-77647895D01*
X179161027Y-77647895D02*
X179184836Y-77552657D01*
X179184836Y-77552657D02*
X179208646Y-77505038D01*
X179208646Y-77505038D02*
X179256265Y-77457419D01*
X179256265Y-77457419D02*
X179327693Y-77433609D01*
X179327693Y-77433609D02*
X179375312Y-77433609D01*
X179375312Y-77433609D02*
X179446741Y-77457419D01*
X179446741Y-77457419D02*
X179470550Y-77481228D01*
X179946741Y-77933609D02*
X179661027Y-77933609D01*
X179803884Y-77933609D02*
X179803884Y-77433609D01*
X179803884Y-77433609D02*
X179756265Y-77505038D01*
X179756265Y-77505038D02*
X179708646Y-77552657D01*
X179708646Y-77552657D02*
X179661027Y-77576466D01*
X180422931Y-77933609D02*
X180137217Y-77933609D01*
X180280074Y-77933609D02*
X180280074Y-77433609D01*
X180280074Y-77433609D02*
X180232455Y-77505038D01*
X180232455Y-77505038D02*
X180184836Y-77552657D01*
X180184836Y-77552657D02*
X180137217Y-77576466D01*
X170370550Y-80165990D02*
X170346741Y-80189800D01*
X170346741Y-80189800D02*
X170275312Y-80213609D01*
X170275312Y-80213609D02*
X170227693Y-80213609D01*
X170227693Y-80213609D02*
X170156265Y-80189800D01*
X170156265Y-80189800D02*
X170108646Y-80142180D01*
X170108646Y-80142180D02*
X170084836Y-80094561D01*
X170084836Y-80094561D02*
X170061027Y-79999323D01*
X170061027Y-79999323D02*
X170061027Y-79927895D01*
X170061027Y-79927895D02*
X170084836Y-79832657D01*
X170084836Y-79832657D02*
X170108646Y-79785038D01*
X170108646Y-79785038D02*
X170156265Y-79737419D01*
X170156265Y-79737419D02*
X170227693Y-79713609D01*
X170227693Y-79713609D02*
X170275312Y-79713609D01*
X170275312Y-79713609D02*
X170346741Y-79737419D01*
X170346741Y-79737419D02*
X170370550Y-79761228D01*
X170846741Y-80213609D02*
X170561027Y-80213609D01*
X170703884Y-80213609D02*
X170703884Y-79713609D01*
X170703884Y-79713609D02*
X170656265Y-79785038D01*
X170656265Y-79785038D02*
X170608646Y-79832657D01*
X170608646Y-79832657D02*
X170561027Y-79856466D01*
X171013407Y-79713609D02*
X171322931Y-79713609D01*
X171322931Y-79713609D02*
X171156264Y-79904085D01*
X171156264Y-79904085D02*
X171227693Y-79904085D01*
X171227693Y-79904085D02*
X171275312Y-79927895D01*
X171275312Y-79927895D02*
X171299121Y-79951704D01*
X171299121Y-79951704D02*
X171322931Y-79999323D01*
X171322931Y-79999323D02*
X171322931Y-80118371D01*
X171322931Y-80118371D02*
X171299121Y-80165990D01*
X171299121Y-80165990D02*
X171275312Y-80189800D01*
X171275312Y-80189800D02*
X171227693Y-80213609D01*
X171227693Y-80213609D02*
X171084836Y-80213609D01*
X171084836Y-80213609D02*
X171037217Y-80189800D01*
X171037217Y-80189800D02*
X171013407Y-80165990D01*
X170720550Y-105385990D02*
X170696741Y-105409800D01*
X170696741Y-105409800D02*
X170625312Y-105433609D01*
X170625312Y-105433609D02*
X170577693Y-105433609D01*
X170577693Y-105433609D02*
X170506265Y-105409800D01*
X170506265Y-105409800D02*
X170458646Y-105362180D01*
X170458646Y-105362180D02*
X170434836Y-105314561D01*
X170434836Y-105314561D02*
X170411027Y-105219323D01*
X170411027Y-105219323D02*
X170411027Y-105147895D01*
X170411027Y-105147895D02*
X170434836Y-105052657D01*
X170434836Y-105052657D02*
X170458646Y-105005038D01*
X170458646Y-105005038D02*
X170506265Y-104957419D01*
X170506265Y-104957419D02*
X170577693Y-104933609D01*
X170577693Y-104933609D02*
X170625312Y-104933609D01*
X170625312Y-104933609D02*
X170696741Y-104957419D01*
X170696741Y-104957419D02*
X170720550Y-104981228D01*
X170911027Y-104981228D02*
X170934836Y-104957419D01*
X170934836Y-104957419D02*
X170982455Y-104933609D01*
X170982455Y-104933609D02*
X171101503Y-104933609D01*
X171101503Y-104933609D02*
X171149122Y-104957419D01*
X171149122Y-104957419D02*
X171172931Y-104981228D01*
X171172931Y-104981228D02*
X171196741Y-105028847D01*
X171196741Y-105028847D02*
X171196741Y-105076466D01*
X171196741Y-105076466D02*
X171172931Y-105147895D01*
X171172931Y-105147895D02*
X170887217Y-105433609D01*
X170887217Y-105433609D02*
X171196741Y-105433609D01*
X171672931Y-105433609D02*
X171387217Y-105433609D01*
X171530074Y-105433609D02*
X171530074Y-104933609D01*
X171530074Y-104933609D02*
X171482455Y-105005038D01*
X171482455Y-105005038D02*
X171434836Y-105052657D01*
X171434836Y-105052657D02*
X171387217Y-105076466D01*
X180470550Y-93433609D02*
X180303884Y-93195514D01*
X180184836Y-93433609D02*
X180184836Y-92933609D01*
X180184836Y-92933609D02*
X180375312Y-92933609D01*
X180375312Y-92933609D02*
X180422931Y-92957419D01*
X180422931Y-92957419D02*
X180446741Y-92981228D01*
X180446741Y-92981228D02*
X180470550Y-93028847D01*
X180470550Y-93028847D02*
X180470550Y-93100276D01*
X180470550Y-93100276D02*
X180446741Y-93147895D01*
X180446741Y-93147895D02*
X180422931Y-93171704D01*
X180422931Y-93171704D02*
X180375312Y-93195514D01*
X180375312Y-93195514D02*
X180184836Y-93195514D01*
X180946741Y-93433609D02*
X180661027Y-93433609D01*
X180803884Y-93433609D02*
X180803884Y-92933609D01*
X180803884Y-92933609D02*
X180756265Y-93005038D01*
X180756265Y-93005038D02*
X180708646Y-93052657D01*
X180708646Y-93052657D02*
X180661027Y-93076466D01*
X181422931Y-93433609D02*
X181137217Y-93433609D01*
X181280074Y-93433609D02*
X181280074Y-92933609D01*
X181280074Y-92933609D02*
X181232455Y-93005038D01*
X181232455Y-93005038D02*
X181184836Y-93052657D01*
X181184836Y-93052657D02*
X181137217Y-93076466D01*
X194146265Y-106824800D02*
X194241503Y-106872419D01*
X194241503Y-106872419D02*
X194431979Y-106872419D01*
X194431979Y-106872419D02*
X194527217Y-106824800D01*
X194527217Y-106824800D02*
X194574836Y-106729561D01*
X194574836Y-106729561D02*
X194574836Y-106681942D01*
X194574836Y-106681942D02*
X194527217Y-106586704D01*
X194527217Y-106586704D02*
X194431979Y-106539085D01*
X194431979Y-106539085D02*
X194289122Y-106539085D01*
X194289122Y-106539085D02*
X194193884Y-106491466D01*
X194193884Y-106491466D02*
X194146265Y-106396228D01*
X194146265Y-106396228D02*
X194146265Y-106348609D01*
X194146265Y-106348609D02*
X194193884Y-106253371D01*
X194193884Y-106253371D02*
X194289122Y-106205752D01*
X194289122Y-106205752D02*
X194431979Y-106205752D01*
X194431979Y-106205752D02*
X194527217Y-106253371D01*
X195146265Y-106872419D02*
X195051027Y-106824800D01*
X195051027Y-106824800D02*
X195003408Y-106777180D01*
X195003408Y-106777180D02*
X194955789Y-106681942D01*
X194955789Y-106681942D02*
X194955789Y-106396228D01*
X194955789Y-106396228D02*
X195003408Y-106300990D01*
X195003408Y-106300990D02*
X195051027Y-106253371D01*
X195051027Y-106253371D02*
X195146265Y-106205752D01*
X195146265Y-106205752D02*
X195289122Y-106205752D01*
X195289122Y-106205752D02*
X195384360Y-106253371D01*
X195384360Y-106253371D02*
X195431979Y-106300990D01*
X195431979Y-106300990D02*
X195479598Y-106396228D01*
X195479598Y-106396228D02*
X195479598Y-106681942D01*
X195479598Y-106681942D02*
X195431979Y-106777180D01*
X195431979Y-106777180D02*
X195384360Y-106824800D01*
X195384360Y-106824800D02*
X195289122Y-106872419D01*
X195289122Y-106872419D02*
X195146265Y-106872419D01*
X195908170Y-106872419D02*
X195908170Y-106205752D01*
X195908170Y-106396228D02*
X195955789Y-106300990D01*
X195955789Y-106300990D02*
X196003408Y-106253371D01*
X196003408Y-106253371D02*
X196098646Y-106205752D01*
X196098646Y-106205752D02*
X196193884Y-106205752D01*
X196384361Y-106205752D02*
X196765313Y-106205752D01*
X196527218Y-105872419D02*
X196527218Y-106729561D01*
X196527218Y-106729561D02*
X196574837Y-106824800D01*
X196574837Y-106824800D02*
X196670075Y-106872419D01*
X196670075Y-106872419D02*
X196765313Y-106872419D01*
X197098647Y-106872419D02*
X197098647Y-106205752D01*
X197098647Y-105872419D02*
X197051028Y-105920038D01*
X197051028Y-105920038D02*
X197098647Y-105967657D01*
X197098647Y-105967657D02*
X197146266Y-105920038D01*
X197146266Y-105920038D02*
X197098647Y-105872419D01*
X197098647Y-105872419D02*
X197098647Y-105967657D01*
X197955789Y-106824800D02*
X197860551Y-106872419D01*
X197860551Y-106872419D02*
X197670075Y-106872419D01*
X197670075Y-106872419D02*
X197574837Y-106824800D01*
X197574837Y-106824800D02*
X197527218Y-106729561D01*
X197527218Y-106729561D02*
X197527218Y-106348609D01*
X197527218Y-106348609D02*
X197574837Y-106253371D01*
X197574837Y-106253371D02*
X197670075Y-106205752D01*
X197670075Y-106205752D02*
X197860551Y-106205752D01*
X197860551Y-106205752D02*
X197955789Y-106253371D01*
X197955789Y-106253371D02*
X198003408Y-106348609D01*
X198003408Y-106348609D02*
X198003408Y-106443847D01*
X198003408Y-106443847D02*
X197527218Y-106539085D01*
X199717694Y-106872419D02*
X199146266Y-106872419D01*
X199431980Y-106872419D02*
X199431980Y-105872419D01*
X199431980Y-105872419D02*
X199336742Y-106015276D01*
X199336742Y-106015276D02*
X199241504Y-106110514D01*
X199241504Y-106110514D02*
X199146266Y-106158133D01*
X200098647Y-105967657D02*
X200146266Y-105920038D01*
X200146266Y-105920038D02*
X200241504Y-105872419D01*
X200241504Y-105872419D02*
X200479599Y-105872419D01*
X200479599Y-105872419D02*
X200574837Y-105920038D01*
X200574837Y-105920038D02*
X200622456Y-105967657D01*
X200622456Y-105967657D02*
X200670075Y-106062895D01*
X200670075Y-106062895D02*
X200670075Y-106158133D01*
X200670075Y-106158133D02*
X200622456Y-106300990D01*
X200622456Y-106300990D02*
X200051028Y-106872419D01*
X200051028Y-106872419D02*
X200670075Y-106872419D01*
X200955790Y-105872419D02*
X201289123Y-106872419D01*
X201289123Y-106872419D02*
X201622456Y-105872419D01*
X184006265Y-111074800D02*
X184101503Y-111122419D01*
X184101503Y-111122419D02*
X184291979Y-111122419D01*
X184291979Y-111122419D02*
X184387217Y-111074800D01*
X184387217Y-111074800D02*
X184434836Y-110979561D01*
X184434836Y-110979561D02*
X184434836Y-110931942D01*
X184434836Y-110931942D02*
X184387217Y-110836704D01*
X184387217Y-110836704D02*
X184291979Y-110789085D01*
X184291979Y-110789085D02*
X184149122Y-110789085D01*
X184149122Y-110789085D02*
X184053884Y-110741466D01*
X184053884Y-110741466D02*
X184006265Y-110646228D01*
X184006265Y-110646228D02*
X184006265Y-110598609D01*
X184006265Y-110598609D02*
X184053884Y-110503371D01*
X184053884Y-110503371D02*
X184149122Y-110455752D01*
X184149122Y-110455752D02*
X184291979Y-110455752D01*
X184291979Y-110455752D02*
X184387217Y-110503371D01*
X185006265Y-111122419D02*
X184911027Y-111074800D01*
X184911027Y-111074800D02*
X184863408Y-111027180D01*
X184863408Y-111027180D02*
X184815789Y-110931942D01*
X184815789Y-110931942D02*
X184815789Y-110646228D01*
X184815789Y-110646228D02*
X184863408Y-110550990D01*
X184863408Y-110550990D02*
X184911027Y-110503371D01*
X184911027Y-110503371D02*
X185006265Y-110455752D01*
X185006265Y-110455752D02*
X185149122Y-110455752D01*
X185149122Y-110455752D02*
X185244360Y-110503371D01*
X185244360Y-110503371D02*
X185291979Y-110550990D01*
X185291979Y-110550990D02*
X185339598Y-110646228D01*
X185339598Y-110646228D02*
X185339598Y-110931942D01*
X185339598Y-110931942D02*
X185291979Y-111027180D01*
X185291979Y-111027180D02*
X185244360Y-111074800D01*
X185244360Y-111074800D02*
X185149122Y-111122419D01*
X185149122Y-111122419D02*
X185006265Y-111122419D01*
X185768170Y-111122419D02*
X185768170Y-110455752D01*
X185768170Y-110646228D02*
X185815789Y-110550990D01*
X185815789Y-110550990D02*
X185863408Y-110503371D01*
X185863408Y-110503371D02*
X185958646Y-110455752D01*
X185958646Y-110455752D02*
X186053884Y-110455752D01*
X186244361Y-110455752D02*
X186625313Y-110455752D01*
X186387218Y-110122419D02*
X186387218Y-110979561D01*
X186387218Y-110979561D02*
X186434837Y-111074800D01*
X186434837Y-111074800D02*
X186530075Y-111122419D01*
X186530075Y-111122419D02*
X186625313Y-111122419D01*
X186958647Y-111122419D02*
X186958647Y-110455752D01*
X186958647Y-110122419D02*
X186911028Y-110170038D01*
X186911028Y-110170038D02*
X186958647Y-110217657D01*
X186958647Y-110217657D02*
X187006266Y-110170038D01*
X187006266Y-110170038D02*
X186958647Y-110122419D01*
X186958647Y-110122419D02*
X186958647Y-110217657D01*
X187815789Y-111074800D02*
X187720551Y-111122419D01*
X187720551Y-111122419D02*
X187530075Y-111122419D01*
X187530075Y-111122419D02*
X187434837Y-111074800D01*
X187434837Y-111074800D02*
X187387218Y-110979561D01*
X187387218Y-110979561D02*
X187387218Y-110598609D01*
X187387218Y-110598609D02*
X187434837Y-110503371D01*
X187434837Y-110503371D02*
X187530075Y-110455752D01*
X187530075Y-110455752D02*
X187720551Y-110455752D01*
X187720551Y-110455752D02*
X187815789Y-110503371D01*
X187815789Y-110503371D02*
X187863408Y-110598609D01*
X187863408Y-110598609D02*
X187863408Y-110693847D01*
X187863408Y-110693847D02*
X187387218Y-110789085D01*
X189530075Y-110122419D02*
X189053885Y-110122419D01*
X189053885Y-110122419D02*
X189006266Y-110598609D01*
X189006266Y-110598609D02*
X189053885Y-110550990D01*
X189053885Y-110550990D02*
X189149123Y-110503371D01*
X189149123Y-110503371D02*
X189387218Y-110503371D01*
X189387218Y-110503371D02*
X189482456Y-110550990D01*
X189482456Y-110550990D02*
X189530075Y-110598609D01*
X189530075Y-110598609D02*
X189577694Y-110693847D01*
X189577694Y-110693847D02*
X189577694Y-110931942D01*
X189577694Y-110931942D02*
X189530075Y-111027180D01*
X189530075Y-111027180D02*
X189482456Y-111074800D01*
X189482456Y-111074800D02*
X189387218Y-111122419D01*
X189387218Y-111122419D02*
X189149123Y-111122419D01*
X189149123Y-111122419D02*
X189053885Y-111074800D01*
X189053885Y-111074800D02*
X189006266Y-111027180D01*
X189863409Y-110122419D02*
X190196742Y-111122419D01*
X190196742Y-111122419D02*
X190530075Y-110122419D01*
X185518169Y-84481228D02*
X185470550Y-84457419D01*
X185470550Y-84457419D02*
X185422931Y-84409800D01*
X185422931Y-84409800D02*
X185351503Y-84338371D01*
X185351503Y-84338371D02*
X185303884Y-84314561D01*
X185303884Y-84314561D02*
X185256265Y-84314561D01*
X185280074Y-84433609D02*
X185232455Y-84409800D01*
X185232455Y-84409800D02*
X185184836Y-84362180D01*
X185184836Y-84362180D02*
X185161027Y-84266942D01*
X185161027Y-84266942D02*
X185161027Y-84100276D01*
X185161027Y-84100276D02*
X185184836Y-84005038D01*
X185184836Y-84005038D02*
X185232455Y-83957419D01*
X185232455Y-83957419D02*
X185280074Y-83933609D01*
X185280074Y-83933609D02*
X185375312Y-83933609D01*
X185375312Y-83933609D02*
X185422931Y-83957419D01*
X185422931Y-83957419D02*
X185470550Y-84005038D01*
X185470550Y-84005038D02*
X185494360Y-84100276D01*
X185494360Y-84100276D02*
X185494360Y-84266942D01*
X185494360Y-84266942D02*
X185470550Y-84362180D01*
X185470550Y-84362180D02*
X185422931Y-84409800D01*
X185422931Y-84409800D02*
X185375312Y-84433609D01*
X185375312Y-84433609D02*
X185280074Y-84433609D01*
X185970551Y-84433609D02*
X185684837Y-84433609D01*
X185827694Y-84433609D02*
X185827694Y-83933609D01*
X185827694Y-83933609D02*
X185780075Y-84005038D01*
X185780075Y-84005038D02*
X185732456Y-84052657D01*
X185732456Y-84052657D02*
X185684837Y-84076466D01*
X179470550Y-89885990D02*
X179446741Y-89909800D01*
X179446741Y-89909800D02*
X179375312Y-89933609D01*
X179375312Y-89933609D02*
X179327693Y-89933609D01*
X179327693Y-89933609D02*
X179256265Y-89909800D01*
X179256265Y-89909800D02*
X179208646Y-89862180D01*
X179208646Y-89862180D02*
X179184836Y-89814561D01*
X179184836Y-89814561D02*
X179161027Y-89719323D01*
X179161027Y-89719323D02*
X179161027Y-89647895D01*
X179161027Y-89647895D02*
X179184836Y-89552657D01*
X179184836Y-89552657D02*
X179208646Y-89505038D01*
X179208646Y-89505038D02*
X179256265Y-89457419D01*
X179256265Y-89457419D02*
X179327693Y-89433609D01*
X179327693Y-89433609D02*
X179375312Y-89433609D01*
X179375312Y-89433609D02*
X179446741Y-89457419D01*
X179446741Y-89457419D02*
X179470550Y-89481228D01*
X179946741Y-89933609D02*
X179661027Y-89933609D01*
X179803884Y-89933609D02*
X179803884Y-89433609D01*
X179803884Y-89433609D02*
X179756265Y-89505038D01*
X179756265Y-89505038D02*
X179708646Y-89552657D01*
X179708646Y-89552657D02*
X179661027Y-89576466D01*
X180256264Y-89433609D02*
X180303883Y-89433609D01*
X180303883Y-89433609D02*
X180351502Y-89457419D01*
X180351502Y-89457419D02*
X180375312Y-89481228D01*
X180375312Y-89481228D02*
X180399121Y-89528847D01*
X180399121Y-89528847D02*
X180422931Y-89624085D01*
X180422931Y-89624085D02*
X180422931Y-89743133D01*
X180422931Y-89743133D02*
X180399121Y-89838371D01*
X180399121Y-89838371D02*
X180375312Y-89885990D01*
X180375312Y-89885990D02*
X180351502Y-89909800D01*
X180351502Y-89909800D02*
X180303883Y-89933609D01*
X180303883Y-89933609D02*
X180256264Y-89933609D01*
X180256264Y-89933609D02*
X180208645Y-89909800D01*
X180208645Y-89909800D02*
X180184836Y-89885990D01*
X180184836Y-89885990D02*
X180161026Y-89838371D01*
X180161026Y-89838371D02*
X180137217Y-89743133D01*
X180137217Y-89743133D02*
X180137217Y-89624085D01*
X180137217Y-89624085D02*
X180161026Y-89528847D01*
X180161026Y-89528847D02*
X180184836Y-89481228D01*
X180184836Y-89481228D02*
X180208645Y-89457419D01*
X180208645Y-89457419D02*
X180256264Y-89433609D01*
X181720550Y-110135990D02*
X181696741Y-110159800D01*
X181696741Y-110159800D02*
X181625312Y-110183609D01*
X181625312Y-110183609D02*
X181577693Y-110183609D01*
X181577693Y-110183609D02*
X181506265Y-110159800D01*
X181506265Y-110159800D02*
X181458646Y-110112180D01*
X181458646Y-110112180D02*
X181434836Y-110064561D01*
X181434836Y-110064561D02*
X181411027Y-109969323D01*
X181411027Y-109969323D02*
X181411027Y-109897895D01*
X181411027Y-109897895D02*
X181434836Y-109802657D01*
X181434836Y-109802657D02*
X181458646Y-109755038D01*
X181458646Y-109755038D02*
X181506265Y-109707419D01*
X181506265Y-109707419D02*
X181577693Y-109683609D01*
X181577693Y-109683609D02*
X181625312Y-109683609D01*
X181625312Y-109683609D02*
X181696741Y-109707419D01*
X181696741Y-109707419D02*
X181720550Y-109731228D01*
X181911027Y-109731228D02*
X181934836Y-109707419D01*
X181934836Y-109707419D02*
X181982455Y-109683609D01*
X181982455Y-109683609D02*
X182101503Y-109683609D01*
X182101503Y-109683609D02*
X182149122Y-109707419D01*
X182149122Y-109707419D02*
X182172931Y-109731228D01*
X182172931Y-109731228D02*
X182196741Y-109778847D01*
X182196741Y-109778847D02*
X182196741Y-109826466D01*
X182196741Y-109826466D02*
X182172931Y-109897895D01*
X182172931Y-109897895D02*
X181887217Y-110183609D01*
X181887217Y-110183609D02*
X182196741Y-110183609D01*
X173470550Y-85933609D02*
X173303884Y-85695514D01*
X173184836Y-85933609D02*
X173184836Y-85433609D01*
X173184836Y-85433609D02*
X173375312Y-85433609D01*
X173375312Y-85433609D02*
X173422931Y-85457419D01*
X173422931Y-85457419D02*
X173446741Y-85481228D01*
X173446741Y-85481228D02*
X173470550Y-85528847D01*
X173470550Y-85528847D02*
X173470550Y-85600276D01*
X173470550Y-85600276D02*
X173446741Y-85647895D01*
X173446741Y-85647895D02*
X173422931Y-85671704D01*
X173422931Y-85671704D02*
X173375312Y-85695514D01*
X173375312Y-85695514D02*
X173184836Y-85695514D01*
X173637217Y-85433609D02*
X173970550Y-85433609D01*
X173970550Y-85433609D02*
X173756265Y-85933609D01*
X174470550Y-95885990D02*
X174446741Y-95909800D01*
X174446741Y-95909800D02*
X174375312Y-95933609D01*
X174375312Y-95933609D02*
X174327693Y-95933609D01*
X174327693Y-95933609D02*
X174256265Y-95909800D01*
X174256265Y-95909800D02*
X174208646Y-95862180D01*
X174208646Y-95862180D02*
X174184836Y-95814561D01*
X174184836Y-95814561D02*
X174161027Y-95719323D01*
X174161027Y-95719323D02*
X174161027Y-95647895D01*
X174161027Y-95647895D02*
X174184836Y-95552657D01*
X174184836Y-95552657D02*
X174208646Y-95505038D01*
X174208646Y-95505038D02*
X174256265Y-95457419D01*
X174256265Y-95457419D02*
X174327693Y-95433609D01*
X174327693Y-95433609D02*
X174375312Y-95433609D01*
X174375312Y-95433609D02*
X174446741Y-95457419D01*
X174446741Y-95457419D02*
X174470550Y-95481228D01*
X174946741Y-95933609D02*
X174661027Y-95933609D01*
X174803884Y-95933609D02*
X174803884Y-95433609D01*
X174803884Y-95433609D02*
X174756265Y-95505038D01*
X174756265Y-95505038D02*
X174708646Y-95552657D01*
X174708646Y-95552657D02*
X174661027Y-95576466D01*
X175375312Y-95600276D02*
X175375312Y-95933609D01*
X175256264Y-95409800D02*
X175137217Y-95766942D01*
X175137217Y-95766942D02*
X175446740Y-95766942D01*
X174720550Y-99135990D02*
X174696741Y-99159800D01*
X174696741Y-99159800D02*
X174625312Y-99183609D01*
X174625312Y-99183609D02*
X174577693Y-99183609D01*
X174577693Y-99183609D02*
X174506265Y-99159800D01*
X174506265Y-99159800D02*
X174458646Y-99112180D01*
X174458646Y-99112180D02*
X174434836Y-99064561D01*
X174434836Y-99064561D02*
X174411027Y-98969323D01*
X174411027Y-98969323D02*
X174411027Y-98897895D01*
X174411027Y-98897895D02*
X174434836Y-98802657D01*
X174434836Y-98802657D02*
X174458646Y-98755038D01*
X174458646Y-98755038D02*
X174506265Y-98707419D01*
X174506265Y-98707419D02*
X174577693Y-98683609D01*
X174577693Y-98683609D02*
X174625312Y-98683609D01*
X174625312Y-98683609D02*
X174696741Y-98707419D01*
X174696741Y-98707419D02*
X174720550Y-98731228D01*
X175149122Y-98683609D02*
X175053884Y-98683609D01*
X175053884Y-98683609D02*
X175006265Y-98707419D01*
X175006265Y-98707419D02*
X174982455Y-98731228D01*
X174982455Y-98731228D02*
X174934836Y-98802657D01*
X174934836Y-98802657D02*
X174911027Y-98897895D01*
X174911027Y-98897895D02*
X174911027Y-99088371D01*
X174911027Y-99088371D02*
X174934836Y-99135990D01*
X174934836Y-99135990D02*
X174958646Y-99159800D01*
X174958646Y-99159800D02*
X175006265Y-99183609D01*
X175006265Y-99183609D02*
X175101503Y-99183609D01*
X175101503Y-99183609D02*
X175149122Y-99159800D01*
X175149122Y-99159800D02*
X175172931Y-99135990D01*
X175172931Y-99135990D02*
X175196741Y-99088371D01*
X175196741Y-99088371D02*
X175196741Y-98969323D01*
X175196741Y-98969323D02*
X175172931Y-98921704D01*
X175172931Y-98921704D02*
X175149122Y-98897895D01*
X175149122Y-98897895D02*
X175101503Y-98874085D01*
X175101503Y-98874085D02*
X175006265Y-98874085D01*
X175006265Y-98874085D02*
X174958646Y-98897895D01*
X174958646Y-98897895D02*
X174934836Y-98921704D01*
X174934836Y-98921704D02*
X174911027Y-98969323D01*
X177970550Y-81385990D02*
X177946741Y-81409800D01*
X177946741Y-81409800D02*
X177875312Y-81433609D01*
X177875312Y-81433609D02*
X177827693Y-81433609D01*
X177827693Y-81433609D02*
X177756265Y-81409800D01*
X177756265Y-81409800D02*
X177708646Y-81362180D01*
X177708646Y-81362180D02*
X177684836Y-81314561D01*
X177684836Y-81314561D02*
X177661027Y-81219323D01*
X177661027Y-81219323D02*
X177661027Y-81147895D01*
X177661027Y-81147895D02*
X177684836Y-81052657D01*
X177684836Y-81052657D02*
X177708646Y-81005038D01*
X177708646Y-81005038D02*
X177756265Y-80957419D01*
X177756265Y-80957419D02*
X177827693Y-80933609D01*
X177827693Y-80933609D02*
X177875312Y-80933609D01*
X177875312Y-80933609D02*
X177946741Y-80957419D01*
X177946741Y-80957419D02*
X177970550Y-80981228D01*
X178256265Y-81147895D02*
X178208646Y-81124085D01*
X178208646Y-81124085D02*
X178184836Y-81100276D01*
X178184836Y-81100276D02*
X178161027Y-81052657D01*
X178161027Y-81052657D02*
X178161027Y-81028847D01*
X178161027Y-81028847D02*
X178184836Y-80981228D01*
X178184836Y-80981228D02*
X178208646Y-80957419D01*
X178208646Y-80957419D02*
X178256265Y-80933609D01*
X178256265Y-80933609D02*
X178351503Y-80933609D01*
X178351503Y-80933609D02*
X178399122Y-80957419D01*
X178399122Y-80957419D02*
X178422931Y-80981228D01*
X178422931Y-80981228D02*
X178446741Y-81028847D01*
X178446741Y-81028847D02*
X178446741Y-81052657D01*
X178446741Y-81052657D02*
X178422931Y-81100276D01*
X178422931Y-81100276D02*
X178399122Y-81124085D01*
X178399122Y-81124085D02*
X178351503Y-81147895D01*
X178351503Y-81147895D02*
X178256265Y-81147895D01*
X178256265Y-81147895D02*
X178208646Y-81171704D01*
X178208646Y-81171704D02*
X178184836Y-81195514D01*
X178184836Y-81195514D02*
X178161027Y-81243133D01*
X178161027Y-81243133D02*
X178161027Y-81338371D01*
X178161027Y-81338371D02*
X178184836Y-81385990D01*
X178184836Y-81385990D02*
X178208646Y-81409800D01*
X178208646Y-81409800D02*
X178256265Y-81433609D01*
X178256265Y-81433609D02*
X178351503Y-81433609D01*
X178351503Y-81433609D02*
X178399122Y-81409800D01*
X178399122Y-81409800D02*
X178422931Y-81385990D01*
X178422931Y-81385990D02*
X178446741Y-81338371D01*
X178446741Y-81338371D02*
X178446741Y-81243133D01*
X178446741Y-81243133D02*
X178422931Y-81195514D01*
X178422931Y-81195514D02*
X178399122Y-81171704D01*
X178399122Y-81171704D02*
X178351503Y-81147895D01*
X178470550Y-75433609D02*
X178303884Y-75195514D01*
X178184836Y-75433609D02*
X178184836Y-74933609D01*
X178184836Y-74933609D02*
X178375312Y-74933609D01*
X178375312Y-74933609D02*
X178422931Y-74957419D01*
X178422931Y-74957419D02*
X178446741Y-74981228D01*
X178446741Y-74981228D02*
X178470550Y-75028847D01*
X178470550Y-75028847D02*
X178470550Y-75100276D01*
X178470550Y-75100276D02*
X178446741Y-75147895D01*
X178446741Y-75147895D02*
X178422931Y-75171704D01*
X178422931Y-75171704D02*
X178375312Y-75195514D01*
X178375312Y-75195514D02*
X178184836Y-75195514D01*
X178946741Y-75433609D02*
X178661027Y-75433609D01*
X178803884Y-75433609D02*
X178803884Y-74933609D01*
X178803884Y-74933609D02*
X178756265Y-75005038D01*
X178756265Y-75005038D02*
X178708646Y-75052657D01*
X178708646Y-75052657D02*
X178661027Y-75076466D01*
X179399121Y-74933609D02*
X179161026Y-74933609D01*
X179161026Y-74933609D02*
X179137217Y-75171704D01*
X179137217Y-75171704D02*
X179161026Y-75147895D01*
X179161026Y-75147895D02*
X179208645Y-75124085D01*
X179208645Y-75124085D02*
X179327693Y-75124085D01*
X179327693Y-75124085D02*
X179375312Y-75147895D01*
X179375312Y-75147895D02*
X179399121Y-75171704D01*
X179399121Y-75171704D02*
X179422931Y-75219323D01*
X179422931Y-75219323D02*
X179422931Y-75338371D01*
X179422931Y-75338371D02*
X179399121Y-75385990D01*
X179399121Y-75385990D02*
X179375312Y-75409800D01*
X179375312Y-75409800D02*
X179327693Y-75433609D01*
X179327693Y-75433609D02*
X179208645Y-75433609D01*
X179208645Y-75433609D02*
X179161026Y-75409800D01*
X179161026Y-75409800D02*
X179137217Y-75385990D01*
X191895550Y-75935990D02*
X191871741Y-75959800D01*
X191871741Y-75959800D02*
X191800312Y-75983609D01*
X191800312Y-75983609D02*
X191752693Y-75983609D01*
X191752693Y-75983609D02*
X191681265Y-75959800D01*
X191681265Y-75959800D02*
X191633646Y-75912180D01*
X191633646Y-75912180D02*
X191609836Y-75864561D01*
X191609836Y-75864561D02*
X191586027Y-75769323D01*
X191586027Y-75769323D02*
X191586027Y-75697895D01*
X191586027Y-75697895D02*
X191609836Y-75602657D01*
X191609836Y-75602657D02*
X191633646Y-75555038D01*
X191633646Y-75555038D02*
X191681265Y-75507419D01*
X191681265Y-75507419D02*
X191752693Y-75483609D01*
X191752693Y-75483609D02*
X191800312Y-75483609D01*
X191800312Y-75483609D02*
X191871741Y-75507419D01*
X191871741Y-75507419D02*
X191895550Y-75531228D01*
X192371741Y-75983609D02*
X192086027Y-75983609D01*
X192228884Y-75983609D02*
X192228884Y-75483609D01*
X192228884Y-75483609D02*
X192181265Y-75555038D01*
X192181265Y-75555038D02*
X192133646Y-75602657D01*
X192133646Y-75602657D02*
X192086027Y-75626466D01*
X192824121Y-75483609D02*
X192586026Y-75483609D01*
X192586026Y-75483609D02*
X192562217Y-75721704D01*
X192562217Y-75721704D02*
X192586026Y-75697895D01*
X192586026Y-75697895D02*
X192633645Y-75674085D01*
X192633645Y-75674085D02*
X192752693Y-75674085D01*
X192752693Y-75674085D02*
X192800312Y-75697895D01*
X192800312Y-75697895D02*
X192824121Y-75721704D01*
X192824121Y-75721704D02*
X192847931Y-75769323D01*
X192847931Y-75769323D02*
X192847931Y-75888371D01*
X192847931Y-75888371D02*
X192824121Y-75935990D01*
X192824121Y-75935990D02*
X192800312Y-75959800D01*
X192800312Y-75959800D02*
X192752693Y-75983609D01*
X192752693Y-75983609D02*
X192633645Y-75983609D01*
X192633645Y-75983609D02*
X192586026Y-75959800D01*
X192586026Y-75959800D02*
X192562217Y-75935990D01*
X165470550Y-85385990D02*
X165446741Y-85409800D01*
X165446741Y-85409800D02*
X165375312Y-85433609D01*
X165375312Y-85433609D02*
X165327693Y-85433609D01*
X165327693Y-85433609D02*
X165256265Y-85409800D01*
X165256265Y-85409800D02*
X165208646Y-85362180D01*
X165208646Y-85362180D02*
X165184836Y-85314561D01*
X165184836Y-85314561D02*
X165161027Y-85219323D01*
X165161027Y-85219323D02*
X165161027Y-85147895D01*
X165161027Y-85147895D02*
X165184836Y-85052657D01*
X165184836Y-85052657D02*
X165208646Y-85005038D01*
X165208646Y-85005038D02*
X165256265Y-84957419D01*
X165256265Y-84957419D02*
X165327693Y-84933609D01*
X165327693Y-84933609D02*
X165375312Y-84933609D01*
X165375312Y-84933609D02*
X165446741Y-84957419D01*
X165446741Y-84957419D02*
X165470550Y-84981228D01*
X165637217Y-84933609D02*
X165970550Y-84933609D01*
X165970550Y-84933609D02*
X165756265Y-85433609D01*
X184518169Y-87981228D02*
X184470550Y-87957419D01*
X184470550Y-87957419D02*
X184422931Y-87909800D01*
X184422931Y-87909800D02*
X184351503Y-87838371D01*
X184351503Y-87838371D02*
X184303884Y-87814561D01*
X184303884Y-87814561D02*
X184256265Y-87814561D01*
X184280074Y-87933609D02*
X184232455Y-87909800D01*
X184232455Y-87909800D02*
X184184836Y-87862180D01*
X184184836Y-87862180D02*
X184161027Y-87766942D01*
X184161027Y-87766942D02*
X184161027Y-87600276D01*
X184161027Y-87600276D02*
X184184836Y-87505038D01*
X184184836Y-87505038D02*
X184232455Y-87457419D01*
X184232455Y-87457419D02*
X184280074Y-87433609D01*
X184280074Y-87433609D02*
X184375312Y-87433609D01*
X184375312Y-87433609D02*
X184422931Y-87457419D01*
X184422931Y-87457419D02*
X184470550Y-87505038D01*
X184470550Y-87505038D02*
X184494360Y-87600276D01*
X184494360Y-87600276D02*
X184494360Y-87766942D01*
X184494360Y-87766942D02*
X184470550Y-87862180D01*
X184470550Y-87862180D02*
X184422931Y-87909800D01*
X184422931Y-87909800D02*
X184375312Y-87933609D01*
X184375312Y-87933609D02*
X184280074Y-87933609D01*
X184684837Y-87481228D02*
X184708646Y-87457419D01*
X184708646Y-87457419D02*
X184756265Y-87433609D01*
X184756265Y-87433609D02*
X184875313Y-87433609D01*
X184875313Y-87433609D02*
X184922932Y-87457419D01*
X184922932Y-87457419D02*
X184946741Y-87481228D01*
X184946741Y-87481228D02*
X184970551Y-87528847D01*
X184970551Y-87528847D02*
X184970551Y-87576466D01*
X184970551Y-87576466D02*
X184946741Y-87647895D01*
X184946741Y-87647895D02*
X184661027Y-87933609D01*
X184661027Y-87933609D02*
X184970551Y-87933609D01*
X179720550Y-97183609D02*
X179553884Y-96945514D01*
X179434836Y-97183609D02*
X179434836Y-96683609D01*
X179434836Y-96683609D02*
X179625312Y-96683609D01*
X179625312Y-96683609D02*
X179672931Y-96707419D01*
X179672931Y-96707419D02*
X179696741Y-96731228D01*
X179696741Y-96731228D02*
X179720550Y-96778847D01*
X179720550Y-96778847D02*
X179720550Y-96850276D01*
X179720550Y-96850276D02*
X179696741Y-96897895D01*
X179696741Y-96897895D02*
X179672931Y-96921704D01*
X179672931Y-96921704D02*
X179625312Y-96945514D01*
X179625312Y-96945514D02*
X179434836Y-96945514D01*
X180196741Y-97183609D02*
X179911027Y-97183609D01*
X180053884Y-97183609D02*
X180053884Y-96683609D01*
X180053884Y-96683609D02*
X180006265Y-96755038D01*
X180006265Y-96755038D02*
X179958646Y-96802657D01*
X179958646Y-96802657D02*
X179911027Y-96826466D01*
X178470550Y-104385990D02*
X178446741Y-104409800D01*
X178446741Y-104409800D02*
X178375312Y-104433609D01*
X178375312Y-104433609D02*
X178327693Y-104433609D01*
X178327693Y-104433609D02*
X178256265Y-104409800D01*
X178256265Y-104409800D02*
X178208646Y-104362180D01*
X178208646Y-104362180D02*
X178184836Y-104314561D01*
X178184836Y-104314561D02*
X178161027Y-104219323D01*
X178161027Y-104219323D02*
X178161027Y-104147895D01*
X178161027Y-104147895D02*
X178184836Y-104052657D01*
X178184836Y-104052657D02*
X178208646Y-104005038D01*
X178208646Y-104005038D02*
X178256265Y-103957419D01*
X178256265Y-103957419D02*
X178327693Y-103933609D01*
X178327693Y-103933609D02*
X178375312Y-103933609D01*
X178375312Y-103933609D02*
X178446741Y-103957419D01*
X178446741Y-103957419D02*
X178470550Y-103981228D01*
X178946741Y-104433609D02*
X178661027Y-104433609D01*
X178803884Y-104433609D02*
X178803884Y-103933609D01*
X178803884Y-103933609D02*
X178756265Y-104005038D01*
X178756265Y-104005038D02*
X178708646Y-104052657D01*
X178708646Y-104052657D02*
X178661027Y-104076466D01*
X177422931Y-109433609D02*
X177184836Y-109433609D01*
X177184836Y-109433609D02*
X177184836Y-108933609D01*
X177565789Y-108981228D02*
X177589598Y-108957419D01*
X177589598Y-108957419D02*
X177637217Y-108933609D01*
X177637217Y-108933609D02*
X177756265Y-108933609D01*
X177756265Y-108933609D02*
X177803884Y-108957419D01*
X177803884Y-108957419D02*
X177827693Y-108981228D01*
X177827693Y-108981228D02*
X177851503Y-109028847D01*
X177851503Y-109028847D02*
X177851503Y-109076466D01*
X177851503Y-109076466D02*
X177827693Y-109147895D01*
X177827693Y-109147895D02*
X177541979Y-109433609D01*
X177541979Y-109433609D02*
X177851503Y-109433609D01*
X169422931Y-100933609D02*
X169184836Y-100933609D01*
X169184836Y-100933609D02*
X169184836Y-100433609D01*
X169803884Y-100600276D02*
X169803884Y-100933609D01*
X169684836Y-100409800D02*
X169565789Y-100766942D01*
X169565789Y-100766942D02*
X169875312Y-100766942D01*
X171470550Y-89433609D02*
X171303884Y-89195514D01*
X171184836Y-89433609D02*
X171184836Y-88933609D01*
X171184836Y-88933609D02*
X171375312Y-88933609D01*
X171375312Y-88933609D02*
X171422931Y-88957419D01*
X171422931Y-88957419D02*
X171446741Y-88981228D01*
X171446741Y-88981228D02*
X171470550Y-89028847D01*
X171470550Y-89028847D02*
X171470550Y-89100276D01*
X171470550Y-89100276D02*
X171446741Y-89147895D01*
X171446741Y-89147895D02*
X171422931Y-89171704D01*
X171422931Y-89171704D02*
X171375312Y-89195514D01*
X171375312Y-89195514D02*
X171184836Y-89195514D01*
X171708646Y-89433609D02*
X171803884Y-89433609D01*
X171803884Y-89433609D02*
X171851503Y-89409800D01*
X171851503Y-89409800D02*
X171875312Y-89385990D01*
X171875312Y-89385990D02*
X171922931Y-89314561D01*
X171922931Y-89314561D02*
X171946741Y-89219323D01*
X171946741Y-89219323D02*
X171946741Y-89028847D01*
X171946741Y-89028847D02*
X171922931Y-88981228D01*
X171922931Y-88981228D02*
X171899122Y-88957419D01*
X171899122Y-88957419D02*
X171851503Y-88933609D01*
X171851503Y-88933609D02*
X171756265Y-88933609D01*
X171756265Y-88933609D02*
X171708646Y-88957419D01*
X171708646Y-88957419D02*
X171684836Y-88981228D01*
X171684836Y-88981228D02*
X171661027Y-89028847D01*
X171661027Y-89028847D02*
X171661027Y-89147895D01*
X171661027Y-89147895D02*
X171684836Y-89195514D01*
X171684836Y-89195514D02*
X171708646Y-89219323D01*
X171708646Y-89219323D02*
X171756265Y-89243133D01*
X171756265Y-89243133D02*
X171851503Y-89243133D01*
X171851503Y-89243133D02*
X171899122Y-89219323D01*
X171899122Y-89219323D02*
X171922931Y-89195514D01*
X171922931Y-89195514D02*
X171946741Y-89147895D01*
X172470550Y-88385990D02*
X172446741Y-88409800D01*
X172446741Y-88409800D02*
X172375312Y-88433609D01*
X172375312Y-88433609D02*
X172327693Y-88433609D01*
X172327693Y-88433609D02*
X172256265Y-88409800D01*
X172256265Y-88409800D02*
X172208646Y-88362180D01*
X172208646Y-88362180D02*
X172184836Y-88314561D01*
X172184836Y-88314561D02*
X172161027Y-88219323D01*
X172161027Y-88219323D02*
X172161027Y-88147895D01*
X172161027Y-88147895D02*
X172184836Y-88052657D01*
X172184836Y-88052657D02*
X172208646Y-88005038D01*
X172208646Y-88005038D02*
X172256265Y-87957419D01*
X172256265Y-87957419D02*
X172327693Y-87933609D01*
X172327693Y-87933609D02*
X172375312Y-87933609D01*
X172375312Y-87933609D02*
X172446741Y-87957419D01*
X172446741Y-87957419D02*
X172470550Y-87981228D01*
X172708646Y-88433609D02*
X172803884Y-88433609D01*
X172803884Y-88433609D02*
X172851503Y-88409800D01*
X172851503Y-88409800D02*
X172875312Y-88385990D01*
X172875312Y-88385990D02*
X172922931Y-88314561D01*
X172922931Y-88314561D02*
X172946741Y-88219323D01*
X172946741Y-88219323D02*
X172946741Y-88028847D01*
X172946741Y-88028847D02*
X172922931Y-87981228D01*
X172922931Y-87981228D02*
X172899122Y-87957419D01*
X172899122Y-87957419D02*
X172851503Y-87933609D01*
X172851503Y-87933609D02*
X172756265Y-87933609D01*
X172756265Y-87933609D02*
X172708646Y-87957419D01*
X172708646Y-87957419D02*
X172684836Y-87981228D01*
X172684836Y-87981228D02*
X172661027Y-88028847D01*
X172661027Y-88028847D02*
X172661027Y-88147895D01*
X172661027Y-88147895D02*
X172684836Y-88195514D01*
X172684836Y-88195514D02*
X172708646Y-88219323D01*
X172708646Y-88219323D02*
X172756265Y-88243133D01*
X172756265Y-88243133D02*
X172851503Y-88243133D01*
X172851503Y-88243133D02*
X172899122Y-88219323D01*
X172899122Y-88219323D02*
X172922931Y-88195514D01*
X172922931Y-88195514D02*
X172946741Y-88147895D01*
X182970550Y-77933609D02*
X182803884Y-77695514D01*
X182684836Y-77933609D02*
X182684836Y-77433609D01*
X182684836Y-77433609D02*
X182875312Y-77433609D01*
X182875312Y-77433609D02*
X182922931Y-77457419D01*
X182922931Y-77457419D02*
X182946741Y-77481228D01*
X182946741Y-77481228D02*
X182970550Y-77528847D01*
X182970550Y-77528847D02*
X182970550Y-77600276D01*
X182970550Y-77600276D02*
X182946741Y-77647895D01*
X182946741Y-77647895D02*
X182922931Y-77671704D01*
X182922931Y-77671704D02*
X182875312Y-77695514D01*
X182875312Y-77695514D02*
X182684836Y-77695514D01*
X183446741Y-77933609D02*
X183161027Y-77933609D01*
X183303884Y-77933609D02*
X183303884Y-77433609D01*
X183303884Y-77433609D02*
X183256265Y-77505038D01*
X183256265Y-77505038D02*
X183208646Y-77552657D01*
X183208646Y-77552657D02*
X183161027Y-77576466D01*
X183756264Y-77433609D02*
X183803883Y-77433609D01*
X183803883Y-77433609D02*
X183851502Y-77457419D01*
X183851502Y-77457419D02*
X183875312Y-77481228D01*
X183875312Y-77481228D02*
X183899121Y-77528847D01*
X183899121Y-77528847D02*
X183922931Y-77624085D01*
X183922931Y-77624085D02*
X183922931Y-77743133D01*
X183922931Y-77743133D02*
X183899121Y-77838371D01*
X183899121Y-77838371D02*
X183875312Y-77885990D01*
X183875312Y-77885990D02*
X183851502Y-77909800D01*
X183851502Y-77909800D02*
X183803883Y-77933609D01*
X183803883Y-77933609D02*
X183756264Y-77933609D01*
X183756264Y-77933609D02*
X183708645Y-77909800D01*
X183708645Y-77909800D02*
X183684836Y-77885990D01*
X183684836Y-77885990D02*
X183661026Y-77838371D01*
X183661026Y-77838371D02*
X183637217Y-77743133D01*
X183637217Y-77743133D02*
X183637217Y-77624085D01*
X183637217Y-77624085D02*
X183661026Y-77528847D01*
X183661026Y-77528847D02*
X183684836Y-77481228D01*
X183684836Y-77481228D02*
X183708645Y-77457419D01*
X183708645Y-77457419D02*
X183756264Y-77433609D01*
X171470550Y-94635990D02*
X171446741Y-94659800D01*
X171446741Y-94659800D02*
X171375312Y-94683609D01*
X171375312Y-94683609D02*
X171327693Y-94683609D01*
X171327693Y-94683609D02*
X171256265Y-94659800D01*
X171256265Y-94659800D02*
X171208646Y-94612180D01*
X171208646Y-94612180D02*
X171184836Y-94564561D01*
X171184836Y-94564561D02*
X171161027Y-94469323D01*
X171161027Y-94469323D02*
X171161027Y-94397895D01*
X171161027Y-94397895D02*
X171184836Y-94302657D01*
X171184836Y-94302657D02*
X171208646Y-94255038D01*
X171208646Y-94255038D02*
X171256265Y-94207419D01*
X171256265Y-94207419D02*
X171327693Y-94183609D01*
X171327693Y-94183609D02*
X171375312Y-94183609D01*
X171375312Y-94183609D02*
X171446741Y-94207419D01*
X171446741Y-94207419D02*
X171470550Y-94231228D01*
X171946741Y-94683609D02*
X171661027Y-94683609D01*
X171803884Y-94683609D02*
X171803884Y-94183609D01*
X171803884Y-94183609D02*
X171756265Y-94255038D01*
X171756265Y-94255038D02*
X171708646Y-94302657D01*
X171708646Y-94302657D02*
X171661027Y-94326466D01*
X172375312Y-94183609D02*
X172280074Y-94183609D01*
X172280074Y-94183609D02*
X172232455Y-94207419D01*
X172232455Y-94207419D02*
X172208645Y-94231228D01*
X172208645Y-94231228D02*
X172161026Y-94302657D01*
X172161026Y-94302657D02*
X172137217Y-94397895D01*
X172137217Y-94397895D02*
X172137217Y-94588371D01*
X172137217Y-94588371D02*
X172161026Y-94635990D01*
X172161026Y-94635990D02*
X172184836Y-94659800D01*
X172184836Y-94659800D02*
X172232455Y-94683609D01*
X172232455Y-94683609D02*
X172327693Y-94683609D01*
X172327693Y-94683609D02*
X172375312Y-94659800D01*
X172375312Y-94659800D02*
X172399121Y-94635990D01*
X172399121Y-94635990D02*
X172422931Y-94588371D01*
X172422931Y-94588371D02*
X172422931Y-94469323D01*
X172422931Y-94469323D02*
X172399121Y-94421704D01*
X172399121Y-94421704D02*
X172375312Y-94397895D01*
X172375312Y-94397895D02*
X172327693Y-94374085D01*
X172327693Y-94374085D02*
X172232455Y-94374085D01*
X172232455Y-94374085D02*
X172184836Y-94397895D01*
X172184836Y-94397895D02*
X172161026Y-94421704D01*
X172161026Y-94421704D02*
X172137217Y-94469323D01*
X177970550Y-96135990D02*
X177946741Y-96159800D01*
X177946741Y-96159800D02*
X177875312Y-96183609D01*
X177875312Y-96183609D02*
X177827693Y-96183609D01*
X177827693Y-96183609D02*
X177756265Y-96159800D01*
X177756265Y-96159800D02*
X177708646Y-96112180D01*
X177708646Y-96112180D02*
X177684836Y-96064561D01*
X177684836Y-96064561D02*
X177661027Y-95969323D01*
X177661027Y-95969323D02*
X177661027Y-95897895D01*
X177661027Y-95897895D02*
X177684836Y-95802657D01*
X177684836Y-95802657D02*
X177708646Y-95755038D01*
X177708646Y-95755038D02*
X177756265Y-95707419D01*
X177756265Y-95707419D02*
X177827693Y-95683609D01*
X177827693Y-95683609D02*
X177875312Y-95683609D01*
X177875312Y-95683609D02*
X177946741Y-95707419D01*
X177946741Y-95707419D02*
X177970550Y-95731228D01*
X178422931Y-95683609D02*
X178184836Y-95683609D01*
X178184836Y-95683609D02*
X178161027Y-95921704D01*
X178161027Y-95921704D02*
X178184836Y-95897895D01*
X178184836Y-95897895D02*
X178232455Y-95874085D01*
X178232455Y-95874085D02*
X178351503Y-95874085D01*
X178351503Y-95874085D02*
X178399122Y-95897895D01*
X178399122Y-95897895D02*
X178422931Y-95921704D01*
X178422931Y-95921704D02*
X178446741Y-95969323D01*
X178446741Y-95969323D02*
X178446741Y-96088371D01*
X178446741Y-96088371D02*
X178422931Y-96135990D01*
X178422931Y-96135990D02*
X178399122Y-96159800D01*
X178399122Y-96159800D02*
X178351503Y-96183609D01*
X178351503Y-96183609D02*
X178232455Y-96183609D01*
X178232455Y-96183609D02*
X178184836Y-96159800D01*
X178184836Y-96159800D02*
X178161027Y-96135990D01*
X175970550Y-79933609D02*
X175803884Y-79695514D01*
X175684836Y-79933609D02*
X175684836Y-79433609D01*
X175684836Y-79433609D02*
X175875312Y-79433609D01*
X175875312Y-79433609D02*
X175922931Y-79457419D01*
X175922931Y-79457419D02*
X175946741Y-79481228D01*
X175946741Y-79481228D02*
X175970550Y-79528847D01*
X175970550Y-79528847D02*
X175970550Y-79600276D01*
X175970550Y-79600276D02*
X175946741Y-79647895D01*
X175946741Y-79647895D02*
X175922931Y-79671704D01*
X175922931Y-79671704D02*
X175875312Y-79695514D01*
X175875312Y-79695514D02*
X175684836Y-79695514D01*
X176446741Y-79933609D02*
X176161027Y-79933609D01*
X176303884Y-79933609D02*
X176303884Y-79433609D01*
X176303884Y-79433609D02*
X176256265Y-79505038D01*
X176256265Y-79505038D02*
X176208646Y-79552657D01*
X176208646Y-79552657D02*
X176161027Y-79576466D01*
X176637217Y-79481228D02*
X176661026Y-79457419D01*
X176661026Y-79457419D02*
X176708645Y-79433609D01*
X176708645Y-79433609D02*
X176827693Y-79433609D01*
X176827693Y-79433609D02*
X176875312Y-79457419D01*
X176875312Y-79457419D02*
X176899121Y-79481228D01*
X176899121Y-79481228D02*
X176922931Y-79528847D01*
X176922931Y-79528847D02*
X176922931Y-79576466D01*
X176922931Y-79576466D02*
X176899121Y-79647895D01*
X176899121Y-79647895D02*
X176613407Y-79933609D01*
X176613407Y-79933609D02*
X176922931Y-79933609D01*
X181470550Y-100183609D02*
X181303884Y-99945514D01*
X181184836Y-100183609D02*
X181184836Y-99683609D01*
X181184836Y-99683609D02*
X181375312Y-99683609D01*
X181375312Y-99683609D02*
X181422931Y-99707419D01*
X181422931Y-99707419D02*
X181446741Y-99731228D01*
X181446741Y-99731228D02*
X181470550Y-99778847D01*
X181470550Y-99778847D02*
X181470550Y-99850276D01*
X181470550Y-99850276D02*
X181446741Y-99897895D01*
X181446741Y-99897895D02*
X181422931Y-99921704D01*
X181422931Y-99921704D02*
X181375312Y-99945514D01*
X181375312Y-99945514D02*
X181184836Y-99945514D01*
X181899122Y-99850276D02*
X181899122Y-100183609D01*
X181780074Y-99659800D02*
X181661027Y-100016942D01*
X181661027Y-100016942D02*
X181970550Y-100016942D01*
X171970550Y-83433609D02*
X171803884Y-83195514D01*
X171684836Y-83433609D02*
X171684836Y-82933609D01*
X171684836Y-82933609D02*
X171875312Y-82933609D01*
X171875312Y-82933609D02*
X171922931Y-82957419D01*
X171922931Y-82957419D02*
X171946741Y-82981228D01*
X171946741Y-82981228D02*
X171970550Y-83028847D01*
X171970550Y-83028847D02*
X171970550Y-83100276D01*
X171970550Y-83100276D02*
X171946741Y-83147895D01*
X171946741Y-83147895D02*
X171922931Y-83171704D01*
X171922931Y-83171704D02*
X171875312Y-83195514D01*
X171875312Y-83195514D02*
X171684836Y-83195514D01*
X172422931Y-82933609D02*
X172184836Y-82933609D01*
X172184836Y-82933609D02*
X172161027Y-83171704D01*
X172161027Y-83171704D02*
X172184836Y-83147895D01*
X172184836Y-83147895D02*
X172232455Y-83124085D01*
X172232455Y-83124085D02*
X172351503Y-83124085D01*
X172351503Y-83124085D02*
X172399122Y-83147895D01*
X172399122Y-83147895D02*
X172422931Y-83171704D01*
X172422931Y-83171704D02*
X172446741Y-83219323D01*
X172446741Y-83219323D02*
X172446741Y-83338371D01*
X172446741Y-83338371D02*
X172422931Y-83385990D01*
X172422931Y-83385990D02*
X172399122Y-83409800D01*
X172399122Y-83409800D02*
X172351503Y-83433609D01*
X172351503Y-83433609D02*
X172232455Y-83433609D01*
X172232455Y-83433609D02*
X172184836Y-83409800D01*
X172184836Y-83409800D02*
X172161027Y-83385990D01*
D11*
X175760237Y-102324318D02*
X175760237Y-101054318D01*
X177090714Y-102203365D02*
X177030238Y-102263842D01*
X177030238Y-102263842D02*
X176848809Y-102324318D01*
X176848809Y-102324318D02*
X176727857Y-102324318D01*
X176727857Y-102324318D02*
X176546428Y-102263842D01*
X176546428Y-102263842D02*
X176425476Y-102142889D01*
X176425476Y-102142889D02*
X176364999Y-102021937D01*
X176364999Y-102021937D02*
X176304523Y-101780032D01*
X176304523Y-101780032D02*
X176304523Y-101598603D01*
X176304523Y-101598603D02*
X176364999Y-101356699D01*
X176364999Y-101356699D02*
X176425476Y-101235746D01*
X176425476Y-101235746D02*
X176546428Y-101114794D01*
X176546428Y-101114794D02*
X176727857Y-101054318D01*
X176727857Y-101054318D02*
X176848809Y-101054318D01*
X176848809Y-101054318D02*
X177030238Y-101114794D01*
X177030238Y-101114794D02*
X177090714Y-101175270D01*
X177514047Y-101054318D02*
X178300238Y-101054318D01*
X178300238Y-101054318D02*
X177876904Y-101538127D01*
X177876904Y-101538127D02*
X178058333Y-101538127D01*
X178058333Y-101538127D02*
X178179285Y-101598603D01*
X178179285Y-101598603D02*
X178239761Y-101659080D01*
X178239761Y-101659080D02*
X178300238Y-101780032D01*
X178300238Y-101780032D02*
X178300238Y-102082413D01*
X178300238Y-102082413D02*
X178239761Y-102203365D01*
X178239761Y-102203365D02*
X178179285Y-102263842D01*
X178179285Y-102263842D02*
X178058333Y-102324318D01*
X178058333Y-102324318D02*
X177695476Y-102324318D01*
X177695476Y-102324318D02*
X177574523Y-102263842D01*
X177574523Y-102263842D02*
X177514047Y-102203365D01*
X174937237Y-89785318D02*
X174937237Y-88515318D01*
X176267714Y-89664365D02*
X176207238Y-89724842D01*
X176207238Y-89724842D02*
X176025809Y-89785318D01*
X176025809Y-89785318D02*
X175904857Y-89785318D01*
X175904857Y-89785318D02*
X175723428Y-89724842D01*
X175723428Y-89724842D02*
X175602476Y-89603889D01*
X175602476Y-89603889D02*
X175541999Y-89482937D01*
X175541999Y-89482937D02*
X175481523Y-89241032D01*
X175481523Y-89241032D02*
X175481523Y-89059603D01*
X175481523Y-89059603D02*
X175541999Y-88817699D01*
X175541999Y-88817699D02*
X175602476Y-88696746D01*
X175602476Y-88696746D02*
X175723428Y-88575794D01*
X175723428Y-88575794D02*
X175904857Y-88515318D01*
X175904857Y-88515318D02*
X176025809Y-88515318D01*
X176025809Y-88515318D02*
X176207238Y-88575794D01*
X176207238Y-88575794D02*
X176267714Y-88636270D01*
X176751523Y-88636270D02*
X176811999Y-88575794D01*
X176811999Y-88575794D02*
X176932952Y-88515318D01*
X176932952Y-88515318D02*
X177235333Y-88515318D01*
X177235333Y-88515318D02*
X177356285Y-88575794D01*
X177356285Y-88575794D02*
X177416761Y-88636270D01*
X177416761Y-88636270D02*
X177477238Y-88757222D01*
X177477238Y-88757222D02*
X177477238Y-88878175D01*
X177477238Y-88878175D02*
X177416761Y-89059603D01*
X177416761Y-89059603D02*
X176691047Y-89785318D01*
X176691047Y-89785318D02*
X177477238Y-89785318D01*
X194754318Y-91211666D02*
X194754318Y-91816428D01*
X194754318Y-91816428D02*
X193484318Y-91816428D01*
X194754318Y-90123094D02*
X194754318Y-90848809D01*
X194754318Y-90485952D02*
X193484318Y-90485952D01*
X193484318Y-90485952D02*
X193665746Y-90606904D01*
X193665746Y-90606904D02*
X193786699Y-90727856D01*
X193786699Y-90727856D02*
X193847175Y-90848809D01*
D12*
%TO.C,IC3*%
X176700000Y-100300000D02*
X177300000Y-100300000D01*
X176700000Y-103200000D02*
X176700000Y-100300000D01*
X177300000Y-100300000D02*
X177300000Y-103200000D01*
X177300000Y-103200000D02*
X176700000Y-103200000D01*
X178850000Y-103350000D02*
X177650000Y-103350000D01*
%TO.C,R2*%
X174500000Y-92200000D02*
X174500000Y-92800000D01*
%TO.C,C6*%
X174450000Y-97250000D02*
X175050000Y-97250000D01*
%TO.C,F1*%
X168000000Y-90300000D02*
X168000000Y-91700000D01*
D10*
%TO.C,J3*%
X165100000Y-93225000D02*
X167900000Y-93225000D01*
X165100000Y-102825000D02*
X165100000Y-93225000D01*
X167900000Y-93225000D02*
X167900000Y-102825000D01*
X167900000Y-102825000D02*
X165100000Y-102825000D01*
D12*
X166550000Y-103875000D02*
G75*
G02*
X166450000Y-103875000I-50000J0D01*
G01*
X166450000Y-103875000D02*
G75*
G02*
X166550000Y-103875000I50000J0D01*
G01*
%TO.C,C16*%
X171750000Y-95050000D02*
X171750000Y-96450000D01*
%TO.C,L2*%
X177750000Y-105600000D02*
X177750000Y-108400000D01*
D10*
%TO.C,J1*%
X190440000Y-102140000D02*
X200040000Y-102140000D01*
X190440000Y-104940000D02*
X190440000Y-102140000D01*
X200040000Y-102140000D02*
X200040000Y-104940000D01*
X200040000Y-104940000D02*
X190440000Y-104940000D01*
D12*
X201140000Y-103540000D02*
G75*
G02*
X201040000Y-103540000I-50000J0D01*
G01*
X201040000Y-103540000D02*
G75*
G02*
X201140000Y-103540000I50000J0D01*
G01*
%TO.C,C21*%
X169850000Y-102500000D02*
X172150000Y-102500000D01*
%TO.C,C8*%
X176700000Y-82000000D02*
X177300000Y-82000000D01*
%TO.C,R9*%
X172500000Y-90800000D02*
X172500000Y-90200000D01*
%TO.C,C2*%
X181800000Y-105400000D02*
G75*
G02*
X181700000Y-105400000I-50000J0D01*
G01*
X181700000Y-105400000D02*
G75*
G02*
X181800000Y-105400000I50000J0D01*
G01*
%TO.C,L4*%
X169900000Y-99750000D02*
X173100000Y-99750000D01*
X173100000Y-97250000D02*
X169900000Y-97250000D01*
D13*
%TO.C,Q2*%
X180690000Y-90830000D02*
X180690000Y-91090000D01*
X180690000Y-91090000D02*
X184190000Y-91090000D01*
X181010000Y-87590000D02*
X184190000Y-87590000D01*
X184190000Y-87590000D02*
X184190000Y-87850000D01*
X184190000Y-90830000D02*
X184190000Y-91090000D01*
X180690000Y-87850000D02*
X180210000Y-87850000D01*
X180690000Y-87370000D01*
X180690000Y-87850000D01*
G36*
X180690000Y-87850000D02*
G01*
X180210000Y-87850000D01*
X180690000Y-87370000D01*
X180690000Y-87850000D01*
G37*
D12*
%TO.C,C3*%
X180150000Y-103000000D02*
G75*
G02*
X180050000Y-103000000I-50000J0D01*
G01*
X180050000Y-103000000D02*
G75*
G02*
X180150000Y-103000000I50000J0D01*
G01*
%TO.C,C15*%
X186850000Y-76050000D02*
X188300000Y-76050000D01*
X186850000Y-80500000D02*
X186850000Y-76050000D01*
X187700000Y-81350000D02*
X186850000Y-80500000D01*
X188300000Y-81350000D02*
X187700000Y-81350000D01*
X189500000Y-83000000D02*
X189500000Y-83000000D01*
X189500000Y-83000000D02*
X189500000Y-83000000D01*
X189500000Y-83100000D02*
X189500000Y-83100000D01*
X190700000Y-81350000D02*
X191300000Y-81350000D01*
X191300000Y-81350000D02*
X192150000Y-80500000D01*
X192150000Y-76050000D02*
X190700000Y-76050000D01*
X192150000Y-80500000D02*
X192150000Y-76050000D01*
X189500000Y-83000000D02*
G75*
G02*
X189500000Y-83100000I0J-50000D01*
G01*
X189500000Y-83100000D02*
G75*
G02*
X189500000Y-83000000I0J50000D01*
G01*
X189500000Y-83100000D02*
G75*
G02*
X189500000Y-83000000I0J50000D01*
G01*
D10*
%TO.C,C17*%
X180550000Y-86450000D02*
X180550000Y-86450000D01*
X180550000Y-86550000D02*
X180550000Y-86550000D01*
X180550000Y-86450000D02*
G75*
G02*
X180550000Y-86550000I0J-50000D01*
G01*
X180550000Y-86550000D02*
G75*
G02*
X180550000Y-86450000I0J50000D01*
G01*
D13*
%TO.C,J4*%
X184035000Y-107390000D02*
X184035000Y-108192470D01*
X184035000Y-108807530D02*
X184035000Y-109610000D01*
X187780000Y-107390000D02*
X184035000Y-107390000D01*
X187780000Y-107390000D02*
X187780000Y-107936529D01*
X187780000Y-109063471D02*
X187780000Y-109610000D01*
X187780000Y-109610000D02*
X184035000Y-109610000D01*
X188540000Y-107390000D02*
X189300000Y-107390000D01*
X189300000Y-107390000D02*
X189300000Y-108500000D01*
D12*
%TO.C,C5*%
X176600000Y-97500000D02*
X177400000Y-97500000D01*
%TO.C,IC2*%
X174750000Y-86250000D02*
X175300000Y-86250000D01*
X174750000Y-90750000D02*
X175300000Y-90750000D01*
X176200000Y-86250000D02*
X176800000Y-86250000D01*
X176200000Y-90750000D02*
X176800000Y-90750000D01*
X178250000Y-86250000D02*
X177700000Y-86250000D01*
X178250000Y-90750000D02*
X177700000Y-90750000D01*
X175770590Y-85808000D02*
G75*
G02*
X175727410Y-85808000I-21590J0D01*
G01*
X175727410Y-85808000D02*
G75*
G02*
X175770590Y-85808000I21590J0D01*
G01*
%TO.C,C7*%
X167500000Y-88650000D02*
X167500000Y-86350000D01*
%TO.C,R10*%
X181500000Y-79300000D02*
X181500000Y-78700000D01*
D13*
%TO.C,Q1*%
X181287500Y-81420000D02*
X181547500Y-81420000D01*
X181287500Y-84600000D02*
X181287500Y-81420000D01*
X184527500Y-81420000D02*
X184787500Y-81420000D01*
X184527500Y-84920000D02*
X184787500Y-84920000D01*
X184787500Y-84920000D02*
X184787500Y-81420000D01*
X181547500Y-85400000D02*
X181067500Y-84920000D01*
X181547500Y-84920000D01*
X181547500Y-85400000D01*
G36*
X181547500Y-85400000D02*
G01*
X181067500Y-84920000D01*
X181547500Y-84920000D01*
X181547500Y-85400000D01*
G37*
D12*
%TO.C,C14*%
X179300000Y-93000000D02*
X178700000Y-93000000D01*
%TO.C,L1*%
X187880000Y-84650000D02*
X187880000Y-84650000D01*
X187880000Y-84650000D02*
X187880000Y-97350000D01*
X187880000Y-97350000D02*
X187880000Y-84650000D01*
X187880000Y-97350000D02*
X187880000Y-97350000D01*
X187930000Y-84650000D02*
X187930000Y-84650000D01*
X187930000Y-84650000D02*
X192180000Y-84650000D01*
X187930000Y-97350000D02*
X187930000Y-97350000D01*
X187930000Y-97350000D02*
X188430000Y-97350000D01*
X188430000Y-97350000D02*
X187930000Y-97350000D01*
X188430000Y-97350000D02*
X188430000Y-97350000D01*
X190575000Y-98000000D02*
X190575000Y-98000000D01*
X190575000Y-98100000D02*
X190575000Y-98100000D01*
X190575000Y-98100000D02*
X190575000Y-98100000D01*
X192180000Y-84650000D02*
X187930000Y-84650000D01*
X192180000Y-84650000D02*
X192180000Y-84650000D01*
X192680000Y-97350000D02*
X192680000Y-97350000D01*
X192680000Y-97350000D02*
X195680000Y-97350000D01*
X195680000Y-97350000D02*
X192680000Y-97350000D01*
X195680000Y-97350000D02*
X195680000Y-97350000D01*
X196180000Y-84650000D02*
X196180000Y-84650000D01*
X196180000Y-84650000D02*
X200480000Y-84650000D01*
X199930000Y-97350000D02*
X199930000Y-97350000D01*
X199930000Y-97350000D02*
X200480000Y-97350000D01*
X200480000Y-84650000D02*
X196180000Y-84650000D01*
X200480000Y-84650000D02*
X200480000Y-84650000D01*
X200480000Y-84650000D02*
X200480000Y-84650000D01*
X200480000Y-84650000D02*
X200480000Y-97350000D01*
X200480000Y-97350000D02*
X199930000Y-97350000D01*
X200480000Y-97350000D02*
X200480000Y-84650000D01*
X200480000Y-97350000D02*
X200480000Y-97350000D01*
X200480000Y-97350000D02*
X200480000Y-97350000D01*
X190575000Y-98000000D02*
G75*
G02*
X190575000Y-98100000I0J-50000D01*
G01*
X190575000Y-98000000D02*
G75*
G02*
X190575000Y-98100000I0J-50000D01*
G01*
X190575000Y-98100000D02*
G75*
G02*
X190575000Y-98000000I0J50000D01*
G01*
%TD*%
%LPC*%
D14*
%TO.C,IC3*%
X178250000Y-102700000D03*
X178250000Y-101750000D03*
X178250000Y-100800000D03*
X175750000Y-100800000D03*
X175750000Y-101750000D03*
X175750000Y-102700000D03*
%TD*%
D15*
%TO.C,R6*%
X170750000Y-83500000D03*
X169250000Y-83500000D03*
%TD*%
D16*
%TO.C,R1*%
X179250000Y-99050000D03*
X179250000Y-97950000D03*
%TD*%
D17*
%TO.C,R2*%
X173700000Y-92500000D03*
X175300000Y-92500000D03*
%TD*%
D18*
%TO.C,R12*%
X178850000Y-80000000D03*
X177750000Y-80000000D03*
%TD*%
%TO.C,R4*%
X181050000Y-100750000D03*
X179950000Y-100750000D03*
%TD*%
%TO.C,R11*%
X180500000Y-92000000D03*
X181600000Y-92000000D03*
%TD*%
D19*
%TO.C,C6*%
X174750000Y-98050000D03*
X174750000Y-96450000D03*
%TD*%
D20*
%TO.C,H3*%
X168000000Y-108000000D03*
%TD*%
D21*
%TO.C,F1*%
X166530000Y-91000000D03*
X169470000Y-91000000D03*
%TD*%
D22*
%TO.C,J3*%
X166500000Y-100525000D03*
D23*
X166500000Y-95525000D03*
%TD*%
D24*
%TO.C,C1*%
X176450000Y-104250000D03*
X177550000Y-104250000D03*
%TD*%
%TO.C,C13*%
X169160000Y-78920000D03*
X170260000Y-78920000D03*
%TD*%
D25*
%TO.C,C16*%
X170370000Y-95750000D03*
X173130000Y-95750000D03*
%TD*%
D18*
%TO.C,R13*%
X170685000Y-77420000D03*
X171785000Y-77420000D03*
%TD*%
D26*
%TO.C,L2*%
X176650000Y-107000000D03*
X178850000Y-107000000D03*
%TD*%
D22*
%TO.C,J1*%
X197740000Y-103540000D03*
D23*
X192740000Y-103540000D03*
%TD*%
D27*
%TO.C,C21*%
X171000000Y-104100000D03*
X171000000Y-100900000D03*
%TD*%
D24*
%TO.C,C10*%
X178950000Y-88500000D03*
X180050000Y-88500000D03*
%TD*%
D19*
%TO.C,C8*%
X177000000Y-82800000D03*
X177000000Y-81200000D03*
%TD*%
D17*
%TO.C,R9*%
X173300000Y-90500000D03*
X171700000Y-90500000D03*
%TD*%
D28*
%TO.C,C2*%
X181750000Y-106250000D03*
X181750000Y-108050000D03*
%TD*%
D29*
%TO.C,L4*%
X170000000Y-98500000D03*
X173000000Y-98500000D03*
%TD*%
D20*
%TO.C,H2*%
X198300000Y-77720000D03*
%TD*%
D30*
%TO.C,Q2*%
X181000000Y-88360000D03*
X181000000Y-89000000D03*
X181000000Y-89660000D03*
X181000000Y-90300000D03*
D31*
X182825000Y-89330000D03*
%TD*%
D32*
%TO.C,C3*%
X180950000Y-103000000D03*
X182750000Y-103000000D03*
%TD*%
D33*
%TO.C,C15*%
X189500000Y-80900000D03*
X189500000Y-76500000D03*
%TD*%
D18*
%TO.C,R5*%
X173550000Y-84500000D03*
X172450000Y-84500000D03*
%TD*%
D34*
%TO.C,C17*%
X181025000Y-86500000D03*
X181975000Y-86500000D03*
%TD*%
D35*
%TO.C,J4*%
X188540000Y-108500000D03*
D36*
X187270000Y-108500000D03*
X186000000Y-108500000D03*
X184730000Y-108500000D03*
%TD*%
D37*
%TO.C,C5*%
X177000000Y-98175000D03*
X177000000Y-96825000D03*
%TD*%
D38*
%TO.C,IC2*%
X175750000Y-86350000D03*
D39*
X174850000Y-86750000D03*
X174850000Y-87250000D03*
X174850000Y-87750000D03*
X174850000Y-88250000D03*
X174850000Y-88750000D03*
X174850000Y-89250000D03*
X174850000Y-89750000D03*
X174850000Y-90250000D03*
D38*
X175750000Y-90650000D03*
X177250000Y-90650000D03*
D39*
X178150000Y-90250000D03*
X178150000Y-89750000D03*
X178150000Y-89250000D03*
X178150000Y-88750000D03*
X178150000Y-88250000D03*
X178150000Y-87750000D03*
X178150000Y-87250000D03*
X178150000Y-86750000D03*
D38*
X177250000Y-86350000D03*
D40*
X176500000Y-88500000D03*
%TD*%
D41*
%TO.C,C7*%
X168830000Y-87500000D03*
X166170000Y-87500000D03*
%TD*%
D16*
%TO.C,R14*%
X173250000Y-102450000D03*
X173250000Y-103550000D03*
%TD*%
D24*
%TO.C,C11*%
X177750000Y-78500000D03*
X178850000Y-78500000D03*
%TD*%
D17*
%TO.C,R10*%
X182300000Y-79000000D03*
X180700000Y-79000000D03*
%TD*%
D24*
%TO.C,C9*%
X173050000Y-87500000D03*
X171950000Y-87500000D03*
%TD*%
D18*
%TO.C,R7*%
X172050000Y-86000000D03*
X170950000Y-86000000D03*
%TD*%
D15*
%TO.C,R8*%
X175250000Y-84500000D03*
X176750000Y-84500000D03*
%TD*%
D18*
%TO.C,R15*%
X176860000Y-76120000D03*
X177960000Y-76120000D03*
%TD*%
D42*
%TO.C,Q1*%
X182057500Y-84610000D03*
X182697500Y-84610000D03*
X183357500Y-84610000D03*
X183997500Y-84610000D03*
D43*
X183027500Y-82785000D03*
%TD*%
D19*
%TO.C,C14*%
X179000000Y-92200000D03*
X179000000Y-93800000D03*
%TD*%
D44*
%TO.C,L1*%
X190575000Y-96320000D03*
X197785000Y-96320000D03*
D45*
X194180000Y-85680000D03*
%TD*%
D24*
%TO.C,C12*%
X167610000Y-77420000D03*
X168710000Y-77420000D03*
%TD*%
%LPD*%
M02*
