%TF.GenerationSoftware,KiCad,Pcbnew,9.0.0*%
%TF.CreationDate,2025-03-08T20:05:39+01:00*%
%TF.ProjectId,converter1A,636f6e76-6572-4746-9572-31412e6b6963,rev?*%
%TF.SameCoordinates,Original*%
%TF.FileFunction,Paste,Top*%
%TF.FilePolarity,Positive*%
%FSLAX46Y46*%
G04 Gerber Fmt 4.6, Leading zero omitted, Abs format (unit mm)*
G04 Created by KiCad (PCBNEW 9.0.0) date 2025-03-08 20:05:39*
%MOMM*%
%LPD*%
G01*
G04 APERTURE LIST*
G04 Aperture macros list*
%AMRoundRect*
0 Rectangle with rounded corners*
0 $1 Rounding radius*
0 $2 $3 $4 $5 $6 $7 $8 $9 X,Y pos of 4 corners*
0 Add a 4 corners polygon primitive as box body*
4,1,4,$2,$3,$4,$5,$6,$7,$8,$9,$2,$3,0*
0 Add four circle primitives for the rounded corners*
1,1,$1+$1,$2,$3*
1,1,$1+$1,$4,$5*
1,1,$1+$1,$6,$7*
1,1,$1+$1,$8,$9*
0 Add four rect primitives between the rounded corners*
20,1,$1+$1,$2,$3,$4,$5,0*
20,1,$1+$1,$4,$5,$6,$7,0*
20,1,$1+$1,$6,$7,$8,$9,0*
20,1,$1+$1,$8,$9,$2,$3,0*%
G04 Aperture macros list end*
%ADD10R,0.750000X0.600000*%
%ADD11R,0.940000X0.540000*%
%ADD12R,1.200000X0.600000*%
%ADD13R,0.850000X1.000000*%
%ADD14R,0.600000X0.750000*%
%ADD15R,0.800000X0.950000*%
%ADD16R,1.170000X1.820000*%
%ADD17R,0.420000X0.620000*%
%ADD18R,1.070000X1.820000*%
%ADD19R,1.750000X3.200000*%
%ADD20R,2.820000X0.810000*%
%ADD21R,1.450000X1.150000*%
%ADD22R,1.400000X1.950000*%
%ADD23R,0.570000X0.738000*%
%ADD24RoundRect,0.125000X-0.190000X-0.125000X0.190000X-0.125000X0.190000X0.125000X-0.190000X0.125000X0*%
%ADD25R,1.150000X1.450000*%
%ADD26R,1.600000X3.000000*%
%ADD27R,0.450000X0.600000*%
%ADD28R,0.700000X0.650000*%
%ADD29R,0.250000X0.600000*%
%ADD30R,0.600000X0.250000*%
%ADD31R,1.700000X2.700000*%
%ADD32R,1.260000X2.720000*%
%ADD33R,0.738000X0.570000*%
%ADD34RoundRect,0.125000X0.125000X-0.190000X0.125000X0.190000X-0.125000X0.190000X-0.125000X-0.190000X0*%
%ADD35R,3.070000X2.260000*%
%ADD36R,2.770000X2.260000*%
G04 APERTURE END LIST*
D10*
%TO.C,R7*%
X172050000Y-86000000D03*
X170950000Y-86000000D03*
%TD*%
D11*
%TO.C,C6*%
X174750000Y-96450000D03*
X174750000Y-98050000D03*
%TD*%
D12*
%TO.C,IC3*%
X178250000Y-102700000D03*
X178250000Y-101750000D03*
X178250000Y-100800000D03*
X175750000Y-100800000D03*
X175750000Y-101750000D03*
X175750000Y-102700000D03*
%TD*%
D13*
%TO.C,R6*%
X170750000Y-83500000D03*
X169250000Y-83500000D03*
%TD*%
D14*
%TO.C,R1*%
X179250000Y-99050000D03*
X179250000Y-97950000D03*
%TD*%
D15*
%TO.C,R2*%
X173700000Y-92500000D03*
X175300000Y-92500000D03*
%TD*%
D10*
%TO.C,R12*%
X178850000Y-80000000D03*
X177750000Y-80000000D03*
%TD*%
%TO.C,R4*%
X181050000Y-100750000D03*
X179950000Y-100750000D03*
%TD*%
%TO.C,R11*%
X180500000Y-92000000D03*
X181600000Y-92000000D03*
%TD*%
D16*
%TO.C,F1*%
X166530000Y-91000000D03*
X169470000Y-91000000D03*
%TD*%
D17*
%TO.C,C1*%
X176450000Y-104250000D03*
X177550000Y-104250000D03*
%TD*%
%TO.C,C13*%
X174100000Y-77600000D03*
X175200000Y-77600000D03*
%TD*%
D18*
%TO.C,C16*%
X170370000Y-95750000D03*
X173130000Y-95750000D03*
%TD*%
D10*
%TO.C,R13*%
X175400000Y-76150000D03*
X176500000Y-76150000D03*
%TD*%
D19*
%TO.C,L2*%
X176650000Y-107000000D03*
X178850000Y-107000000D03*
%TD*%
D20*
%TO.C,C21*%
X171000000Y-104100000D03*
X171000000Y-100900000D03*
%TD*%
D17*
%TO.C,C10*%
X178950000Y-88500000D03*
X180050000Y-88500000D03*
%TD*%
D11*
%TO.C,C8*%
X177000000Y-82800000D03*
X177000000Y-81200000D03*
%TD*%
D15*
%TO.C,R9*%
X173300000Y-90500000D03*
X171700000Y-90500000D03*
%TD*%
D21*
%TO.C,C2*%
X181750000Y-106250000D03*
X181750000Y-108050000D03*
%TD*%
D22*
%TO.C,L4*%
X170000000Y-98500000D03*
X173000000Y-98500000D03*
%TD*%
D23*
%TO.C,Q2*%
X182350000Y-88720000D03*
X182350000Y-89940000D03*
X183300000Y-88720000D03*
X183300000Y-89940000D03*
D24*
X183880000Y-88357500D03*
X183880000Y-89000000D03*
X183880000Y-89660000D03*
X183880000Y-90302500D03*
X181000000Y-88360000D03*
X181000000Y-89000000D03*
X181000000Y-89660000D03*
X181000000Y-90300000D03*
%TD*%
D25*
%TO.C,C3*%
X180950000Y-103000000D03*
X182750000Y-103000000D03*
%TD*%
D26*
%TO.C,C15*%
X189500000Y-80900000D03*
X189500000Y-76500000D03*
%TD*%
D10*
%TO.C,R5*%
X173550000Y-84500000D03*
X172450000Y-84500000D03*
%TD*%
D27*
%TO.C,C17*%
X181025000Y-86500000D03*
X181975000Y-86500000D03*
%TD*%
D28*
%TO.C,C5*%
X177000000Y-98175000D03*
X177000000Y-96825000D03*
%TD*%
D29*
%TO.C,IC2*%
X175750000Y-86350000D03*
D30*
X174850000Y-86750000D03*
X174850000Y-87250000D03*
X174850000Y-87750000D03*
X174850000Y-88250000D03*
X174850000Y-88750000D03*
X174850000Y-89250000D03*
X174850000Y-89750000D03*
X174850000Y-90250000D03*
D29*
X175750000Y-90650000D03*
X177250000Y-90650000D03*
D30*
X178150000Y-90250000D03*
X178150000Y-89750000D03*
X178150000Y-89250000D03*
X178150000Y-88750000D03*
X178150000Y-88250000D03*
X178150000Y-87750000D03*
X178150000Y-87250000D03*
X178150000Y-86750000D03*
D29*
X177250000Y-86350000D03*
D31*
X176500000Y-88500000D03*
%TD*%
D32*
%TO.C,C7*%
X168830000Y-87500000D03*
X166170000Y-87500000D03*
%TD*%
D14*
%TO.C,R14*%
X173250000Y-102450000D03*
X173250000Y-103550000D03*
%TD*%
D17*
%TO.C,C11*%
X177750000Y-78500000D03*
X178850000Y-78500000D03*
%TD*%
D15*
%TO.C,R10*%
X182300000Y-79000000D03*
X180700000Y-79000000D03*
%TD*%
D17*
%TO.C,C9*%
X173050000Y-87500000D03*
X171950000Y-87500000D03*
%TD*%
D13*
%TO.C,R8*%
X175250000Y-84500000D03*
X176750000Y-84500000D03*
%TD*%
D10*
%TO.C,R15*%
X179850000Y-76050000D03*
X180950000Y-76050000D03*
%TD*%
D33*
%TO.C,Q1*%
X182417500Y-83260000D03*
X183637500Y-83260000D03*
X182417500Y-82310000D03*
X183637500Y-82310000D03*
D34*
X182055000Y-81730000D03*
X182697500Y-81730000D03*
X183357500Y-81730000D03*
X184000000Y-81730000D03*
X182057500Y-84610000D03*
X182697500Y-84610000D03*
X183357500Y-84610000D03*
X183997500Y-84610000D03*
%TD*%
D11*
%TO.C,C14*%
X179000000Y-92200000D03*
X179000000Y-93800000D03*
%TD*%
D35*
%TO.C,L1*%
X190575000Y-96320000D03*
X197785000Y-96320000D03*
D36*
X194180000Y-85680000D03*
%TD*%
D17*
%TO.C,C12*%
X172700000Y-76150000D03*
X173800000Y-76150000D03*
%TD*%
M02*
