%TF.GenerationSoftware,KiCad,Pcbnew,9.0.0*%
%TF.CreationDate,2025-03-08T20:05:39+01:00*%
%TF.ProjectId,converter1A,636f6e76-6572-4746-9572-31412e6b6963,rev?*%
%TF.SameCoordinates,Original*%
%TF.FileFunction,Copper,L2,Bot*%
%TF.FilePolarity,Positive*%
%FSLAX46Y46*%
G04 Gerber Fmt 4.6, Leading zero omitted, Abs format (unit mm)*
G04 Created by KiCad (PCBNEW 9.0.0) date 2025-03-08 20:05:39*
%MOMM*%
%LPD*%
G01*
G04 APERTURE LIST*
%TA.AperFunction,WasherPad*%
%ADD10C,2.400000*%
%TD*%
%TA.AperFunction,ComponentPad*%
%ADD11R,2.300000X2.300000*%
%TD*%
%TA.AperFunction,ComponentPad*%
%ADD12C,2.300000*%
%TD*%
%TA.AperFunction,ComponentPad*%
%ADD13R,1.000000X1.000000*%
%TD*%
%TA.AperFunction,ComponentPad*%
%ADD14O,1.000000X1.000000*%
%TD*%
%TA.AperFunction,ViaPad*%
%ADD15C,0.600000*%
%TD*%
%TA.AperFunction,ViaPad*%
%ADD16C,0.700000*%
%TD*%
%TA.AperFunction,Conductor*%
%ADD17C,0.200000*%
%TD*%
%TA.AperFunction,Conductor*%
%ADD18C,2.500000*%
%TD*%
%TA.AperFunction,Conductor*%
%ADD19C,2.200000*%
%TD*%
G04 APERTURE END LIST*
D10*
%TO.P,H3,*%
%TO.N,*%
X198350000Y-108000000D03*
%TD*%
D11*
%TO.P,J1,1,1*%
%TO.N,Net-(C15-+)*%
X197750000Y-102550000D03*
D12*
%TO.P,J1,2,2*%
%TO.N,GND*%
X192750000Y-102550000D03*
%TD*%
D10*
%TO.P,H2,*%
%TO.N,*%
X168000000Y-77500000D03*
%TD*%
%TO.P,H3,*%
%TO.N,*%
X168000000Y-108000000D03*
%TD*%
D11*
%TO.P,J3,1,1*%
%TO.N,GND*%
X166500000Y-100525000D03*
D12*
%TO.P,J3,2,2*%
%TO.N,Net-(F1-Pad1)*%
X166500000Y-95525000D03*
%TD*%
D10*
%TO.P,H2,*%
%TO.N,*%
X198300000Y-77450000D03*
%TD*%
D13*
%TO.P,J4,1,Pin_1*%
%TO.N,GND*%
X188540000Y-108500000D03*
D14*
%TO.P,J4,2,Pin_2*%
%TO.N,Net-(J4-Pin_2)*%
X187270000Y-108500000D03*
%TO.P,J4,3,Pin_3*%
%TO.N,GND*%
X186000000Y-108500000D03*
%TO.P,J4,4,Pin_4*%
%TO.N,Net-(J4-Pin_2)*%
X184730000Y-108500000D03*
%TD*%
D15*
%TO.N,Net-(IC2-COMP)*%
X172000000Y-76150000D03*
%TO.N,GND*%
X183500000Y-75500000D03*
X167000000Y-81000000D03*
X183500000Y-96000000D03*
X180000000Y-89500000D03*
X179000000Y-90500000D03*
X198000000Y-81500000D03*
X174000000Y-108000000D03*
%TO.N,Net-(IC2-HO)*%
X179000000Y-87000000D03*
X185000000Y-85500000D03*
%TO.N,Net-(IC2-VCC)*%
X178867582Y-89150000D03*
X173500000Y-93500000D03*
%TO.N,Net-(IC2-COMP)*%
X173941571Y-87600000D03*
%TO.N,Net-(IC2-FB)*%
X174065687Y-88434313D03*
X177950000Y-76120000D03*
D16*
%TO.N,Net-(C15-+)*%
X197785000Y-99715000D03*
X193200000Y-80700000D03*
%TO.N,Net-(C16-Pad1)*%
X169200000Y-87200000D03*
X174500000Y-83100000D03*
%TD*%
D17*
%TO.N,Net-(IC2-FB)*%
X178500000Y-84000000D02*
X174065687Y-88434313D01*
X177950000Y-77854314D02*
X178500000Y-78404314D01*
X178500000Y-78404314D02*
X178500000Y-84000000D01*
X177950000Y-76120000D02*
X177950000Y-77854314D01*
%TO.N,Net-(IC2-HO)*%
X180500000Y-85500000D02*
X179000000Y-87000000D01*
X185000000Y-85500000D02*
X180500000Y-85500000D01*
D18*
%TO.N,Net-(C15-+)*%
X193200000Y-95700000D02*
X193200000Y-80700000D01*
X197785000Y-99715000D02*
X197215000Y-99715000D01*
X197215000Y-99715000D02*
X193200000Y-95700000D01*
D19*
%TO.N,Net-(C16-Pad1)*%
X173550000Y-83100000D02*
X174980000Y-83100000D01*
X169450000Y-87200000D02*
X173550000Y-83100000D01*
X169200000Y-87200000D02*
X169450000Y-87200000D01*
D17*
%TO.N,Net-(IC2-COMP)*%
X172000000Y-76850000D02*
X174500000Y-79350000D01*
X172000000Y-76150000D02*
X172000000Y-76850000D01*
X178000000Y-81000000D02*
X178000000Y-83541571D01*
X176350000Y-79350000D02*
X178000000Y-81000000D01*
X178000000Y-83541571D02*
X173941571Y-87600000D01*
X174500000Y-79350000D02*
X176350000Y-79350000D01*
%TO.N,Net-(IC2-VCC)*%
X176500000Y-91500000D02*
X174500000Y-93500000D01*
X178850000Y-89150000D02*
X176500000Y-91500000D01*
X174500000Y-93500000D02*
X173500000Y-93500000D01*
X178867582Y-89150000D02*
X178850000Y-89150000D01*
%TD*%
%TA.AperFunction,Conductor*%
%TO.N,GND*%
G36*
X201827826Y-74522174D02*
G01*
X201849500Y-74574500D01*
X201849500Y-110925500D01*
X201827826Y-110977826D01*
X201775500Y-110999500D01*
X164574500Y-110999500D01*
X164522174Y-110977826D01*
X164500500Y-110925500D01*
X164500500Y-107889776D01*
X166599500Y-107889776D01*
X166599500Y-108110223D01*
X166633984Y-108327948D01*
X166633987Y-108327961D01*
X166702103Y-108537602D01*
X166702104Y-108537605D01*
X166702105Y-108537606D01*
X166784622Y-108699554D01*
X166802186Y-108734023D01*
X166802186Y-108734024D01*
X166852192Y-108802851D01*
X166931758Y-108912365D01*
X167087635Y-109068242D01*
X167192172Y-109144192D01*
X167260480Y-109193821D01*
X167265978Y-109197815D01*
X167462394Y-109297895D01*
X167462397Y-109297896D01*
X167462396Y-109297896D01*
X167672038Y-109366012D01*
X167672044Y-109366013D01*
X167672049Y-109366015D01*
X167780913Y-109383257D01*
X167889776Y-109400500D01*
X167889778Y-109400500D01*
X168110224Y-109400500D01*
X168197313Y-109386706D01*
X168327951Y-109366015D01*
X168327958Y-109366012D01*
X168327961Y-109366012D01*
X168423133Y-109335088D01*
X168537606Y-109297895D01*
X168734022Y-109197815D01*
X168912365Y-109068242D01*
X169068242Y-108912365D01*
X169197815Y-108734022D01*
X169297895Y-108537606D01*
X169324016Y-108457213D01*
X169332531Y-108431008D01*
X184029500Y-108431008D01*
X184029500Y-108568991D01*
X184056418Y-108704322D01*
X184056421Y-108704332D01*
X184109223Y-108831808D01*
X184163049Y-108912365D01*
X184185886Y-108946542D01*
X184283458Y-109044114D01*
X184398189Y-109120775D01*
X184525672Y-109173580D01*
X184661007Y-109200500D01*
X184661009Y-109200500D01*
X184798991Y-109200500D01*
X184798993Y-109200500D01*
X184934328Y-109173580D01*
X185061811Y-109120775D01*
X185176542Y-109044114D01*
X185274114Y-108946542D01*
X185303772Y-108902154D01*
X185350863Y-108870690D01*
X185406412Y-108881739D01*
X185426829Y-108902156D01*
X185456273Y-108946223D01*
X185553776Y-109043726D01*
X185668426Y-109120332D01*
X185795813Y-109173097D01*
X185795823Y-109173100D01*
X185899999Y-109193821D01*
X185900000Y-109193821D01*
X185900000Y-108809669D01*
X185957213Y-108825000D01*
X186042787Y-108825000D01*
X186100000Y-108809669D01*
X186100000Y-109193821D01*
X186204176Y-109173100D01*
X186204186Y-109173097D01*
X186331573Y-109120332D01*
X186446223Y-109043726D01*
X186446225Y-109043725D01*
X186543725Y-108946225D01*
X186543729Y-108946219D01*
X186573170Y-108902157D01*
X186620261Y-108870690D01*
X186675810Y-108881739D01*
X186696228Y-108902156D01*
X186703049Y-108912365D01*
X186725886Y-108946542D01*
X186823458Y-109044114D01*
X186938189Y-109120775D01*
X187065672Y-109173580D01*
X187201007Y-109200500D01*
X187201009Y-109200500D01*
X187338991Y-109200500D01*
X187338993Y-109200500D01*
X187474328Y-109173580D01*
X187601811Y-109120775D01*
X187716542Y-109044114D01*
X187725673Y-109034982D01*
X187777995Y-109013308D01*
X187830322Y-109034980D01*
X187850575Y-109072867D01*
X187851603Y-109078034D01*
X187895807Y-109144191D01*
X187895808Y-109144192D01*
X187961964Y-109188396D01*
X188020303Y-109200000D01*
X188440000Y-109200000D01*
X188440000Y-108809669D01*
X188497213Y-108825000D01*
X188582787Y-108825000D01*
X188640000Y-108809669D01*
X188640000Y-109200000D01*
X189059697Y-109200000D01*
X189118035Y-109188396D01*
X189184191Y-109144192D01*
X189184192Y-109144191D01*
X189228396Y-109078035D01*
X189240000Y-109019697D01*
X189240000Y-108600000D01*
X188849669Y-108600000D01*
X188865000Y-108542787D01*
X188865000Y-108457213D01*
X188849669Y-108400000D01*
X189240000Y-108400000D01*
X189240000Y-107980302D01*
X189228395Y-107921963D01*
X189228396Y-107921963D01*
X189206889Y-107889776D01*
X196949500Y-107889776D01*
X196949500Y-108110223D01*
X196983984Y-108327948D01*
X196983987Y-108327961D01*
X197052103Y-108537602D01*
X197052104Y-108537605D01*
X197052105Y-108537606D01*
X197134622Y-108699554D01*
X197152186Y-108734023D01*
X197152186Y-108734024D01*
X197202192Y-108802851D01*
X197281758Y-108912365D01*
X197437635Y-109068242D01*
X197542172Y-109144192D01*
X197610480Y-109193821D01*
X197615978Y-109197815D01*
X197812394Y-109297895D01*
X197812397Y-109297896D01*
X197812396Y-109297896D01*
X198022038Y-109366012D01*
X198022044Y-109366013D01*
X198022049Y-109366015D01*
X198130913Y-109383257D01*
X198239776Y-109400500D01*
X198239778Y-109400500D01*
X198460224Y-109400500D01*
X198547313Y-109386706D01*
X198677951Y-109366015D01*
X198677958Y-109366012D01*
X198677961Y-109366012D01*
X198773133Y-109335088D01*
X198887606Y-109297895D01*
X199084022Y-109197815D01*
X199262365Y-109068242D01*
X199418242Y-108912365D01*
X199547815Y-108734022D01*
X199647895Y-108537606D01*
X199685088Y-108423133D01*
X199716012Y-108327961D01*
X199716012Y-108327958D01*
X199716015Y-108327951D01*
X199750500Y-108110222D01*
X199750500Y-107889778D01*
X199748828Y-107879223D01*
X199716015Y-107672051D01*
X199716012Y-107672038D01*
X199647896Y-107462397D01*
X199647895Y-107462396D01*
X199647895Y-107462394D01*
X199547815Y-107265978D01*
X199418242Y-107087635D01*
X199262365Y-106931758D01*
X199158441Y-106856253D01*
X199084024Y-106802186D01*
X198887602Y-106702103D01*
X198887603Y-106702103D01*
X198677961Y-106633987D01*
X198677948Y-106633984D01*
X198460224Y-106599500D01*
X198460222Y-106599500D01*
X198239778Y-106599500D01*
X198239776Y-106599500D01*
X198022051Y-106633984D01*
X198022038Y-106633987D01*
X197812397Y-106702103D01*
X197615976Y-106802186D01*
X197615975Y-106802186D01*
X197437639Y-106931755D01*
X197437635Y-106931758D01*
X197281758Y-107087635D01*
X197281755Y-107087638D01*
X197281755Y-107087639D01*
X197152186Y-107265975D01*
X197152186Y-107265976D01*
X197052103Y-107462397D01*
X196983987Y-107672038D01*
X196983984Y-107672051D01*
X196949500Y-107889776D01*
X189206889Y-107889776D01*
X189184192Y-107855808D01*
X189184191Y-107855807D01*
X189118035Y-107811603D01*
X189059697Y-107800000D01*
X188640000Y-107800000D01*
X188640000Y-108190330D01*
X188582787Y-108175000D01*
X188497213Y-108175000D01*
X188440000Y-108190330D01*
X188440000Y-107800000D01*
X188020303Y-107800000D01*
X187961964Y-107811603D01*
X187895808Y-107855807D01*
X187895807Y-107855808D01*
X187851603Y-107921965D01*
X187850575Y-107927133D01*
X187819105Y-107974223D01*
X187763556Y-107985268D01*
X187725674Y-107965018D01*
X187716542Y-107955886D01*
X187673510Y-107927133D01*
X187601808Y-107879223D01*
X187474332Y-107826421D01*
X187474322Y-107826418D01*
X187372560Y-107806177D01*
X187338993Y-107799500D01*
X187201007Y-107799500D01*
X187167440Y-107806177D01*
X187065677Y-107826418D01*
X187065667Y-107826421D01*
X186938191Y-107879223D01*
X186823461Y-107955883D01*
X186725881Y-108053463D01*
X186696227Y-108097844D01*
X186649135Y-108129309D01*
X186593586Y-108118259D01*
X186573170Y-108097843D01*
X186543726Y-108053776D01*
X186446223Y-107956273D01*
X186331573Y-107879667D01*
X186204184Y-107826901D01*
X186204177Y-107826899D01*
X186100000Y-107806177D01*
X186100000Y-108190330D01*
X186042787Y-108175000D01*
X185957213Y-108175000D01*
X185900000Y-108190330D01*
X185900000Y-107806177D01*
X185795822Y-107826899D01*
X185795815Y-107826901D01*
X185668426Y-107879667D01*
X185553776Y-107956273D01*
X185553775Y-107956275D01*
X185456275Y-108053775D01*
X185456271Y-108053778D01*
X185426828Y-108097844D01*
X185379736Y-108129309D01*
X185324187Y-108118259D01*
X185303771Y-108097843D01*
X185274116Y-108053461D01*
X185274114Y-108053458D01*
X185176542Y-107955886D01*
X185133510Y-107927133D01*
X185061808Y-107879223D01*
X184934332Y-107826421D01*
X184934322Y-107826418D01*
X184832560Y-107806177D01*
X184798993Y-107799500D01*
X184661007Y-107799500D01*
X184627440Y-107806177D01*
X184525677Y-107826418D01*
X184525667Y-107826421D01*
X184398191Y-107879223D01*
X184283461Y-107955883D01*
X184185883Y-108053461D01*
X184109223Y-108168191D01*
X184056421Y-108295667D01*
X184056418Y-108295677D01*
X184029500Y-108431008D01*
X169332531Y-108431008D01*
X169341142Y-108404505D01*
X169366012Y-108327961D01*
X169366012Y-108327958D01*
X169366015Y-108327951D01*
X169400500Y-108110222D01*
X169400500Y-107889778D01*
X169398828Y-107879223D01*
X169366015Y-107672051D01*
X169366012Y-107672038D01*
X169297896Y-107462397D01*
X169297895Y-107462396D01*
X169297895Y-107462394D01*
X169197815Y-107265978D01*
X169068242Y-107087635D01*
X168912365Y-106931758D01*
X168808441Y-106856253D01*
X168734024Y-106802186D01*
X168537602Y-106702103D01*
X168537603Y-106702103D01*
X168327961Y-106633987D01*
X168327948Y-106633984D01*
X168110224Y-106599500D01*
X168110222Y-106599500D01*
X167889778Y-106599500D01*
X167889776Y-106599500D01*
X167672051Y-106633984D01*
X167672038Y-106633987D01*
X167462397Y-106702103D01*
X167265976Y-106802186D01*
X167265975Y-106802186D01*
X167087639Y-106931755D01*
X167087635Y-106931758D01*
X166931758Y-107087635D01*
X166931755Y-107087638D01*
X166931755Y-107087639D01*
X166802186Y-107265975D01*
X166802186Y-107265976D01*
X166702103Y-107462397D01*
X166633987Y-107672038D01*
X166633984Y-107672051D01*
X166599500Y-107889776D01*
X164500500Y-107889776D01*
X164500500Y-102443751D01*
X191400000Y-102443751D01*
X191400000Y-102656248D01*
X191433241Y-102866123D01*
X191433244Y-102866136D01*
X191498904Y-103068217D01*
X191498906Y-103068221D01*
X191595375Y-103257550D01*
X191595378Y-103257556D01*
X191720274Y-103429461D01*
X191720283Y-103429471D01*
X191724695Y-103433883D01*
X192152634Y-103005943D01*
X192167437Y-103028097D01*
X192271903Y-103132563D01*
X192294055Y-103147364D01*
X191866116Y-103575304D01*
X191870529Y-103579717D01*
X191870538Y-103579725D01*
X192042443Y-103704621D01*
X192042449Y-103704624D01*
X192231778Y-103801093D01*
X192231782Y-103801095D01*
X192433863Y-103866755D01*
X192433876Y-103866758D01*
X192643751Y-103900000D01*
X192856249Y-103900000D01*
X193066123Y-103866758D01*
X193066136Y-103866755D01*
X193268217Y-103801095D01*
X193268221Y-103801093D01*
X193457550Y-103704624D01*
X193457556Y-103704621D01*
X193629465Y-103579722D01*
X193629474Y-103579714D01*
X193633883Y-103575305D01*
X193633882Y-103575303D01*
X193205944Y-103147365D01*
X193228097Y-103132563D01*
X193332563Y-103028097D01*
X193347365Y-103005944D01*
X193775303Y-103433882D01*
X193775305Y-103433883D01*
X193779714Y-103429474D01*
X193779722Y-103429465D01*
X193904621Y-103257556D01*
X193904624Y-103257550D01*
X194001093Y-103068221D01*
X194001095Y-103068217D01*
X194066755Y-102866136D01*
X194066758Y-102866123D01*
X194100000Y-102656248D01*
X194100000Y-102443751D01*
X194066758Y-102233876D01*
X194066755Y-102233863D01*
X194001095Y-102031782D01*
X194001093Y-102031778D01*
X193904624Y-101842449D01*
X193904621Y-101842443D01*
X193779725Y-101670538D01*
X193779717Y-101670529D01*
X193775304Y-101666116D01*
X193347364Y-102094055D01*
X193332563Y-102071903D01*
X193228097Y-101967437D01*
X193205943Y-101952634D01*
X193633883Y-101524695D01*
X193629471Y-101520283D01*
X193629461Y-101520274D01*
X193457556Y-101395378D01*
X193457550Y-101395375D01*
X193268221Y-101298906D01*
X193268217Y-101298904D01*
X193066136Y-101233244D01*
X193066123Y-101233241D01*
X192856249Y-101200000D01*
X192643751Y-101200000D01*
X192433876Y-101233241D01*
X192433863Y-101233244D01*
X192231782Y-101298904D01*
X192231778Y-101298906D01*
X192042449Y-101395375D01*
X192042442Y-101395379D01*
X191870541Y-101520271D01*
X191870532Y-101520279D01*
X191866116Y-101524694D01*
X192294056Y-101952634D01*
X192271903Y-101967437D01*
X192167437Y-102071903D01*
X192152634Y-102094056D01*
X191724694Y-101666116D01*
X191720279Y-101670532D01*
X191720271Y-101670541D01*
X191595379Y-101842442D01*
X191595375Y-101842449D01*
X191498906Y-102031778D01*
X191498904Y-102031782D01*
X191433244Y-102233863D01*
X191433241Y-102233876D01*
X191400000Y-102443751D01*
X164500500Y-102443751D01*
X164500500Y-99355302D01*
X165150000Y-99355302D01*
X165150000Y-100425000D01*
X165755198Y-100425000D01*
X165750000Y-100451131D01*
X165750000Y-100598869D01*
X165755198Y-100625000D01*
X165150000Y-100625000D01*
X165150000Y-101694697D01*
X165161603Y-101753035D01*
X165205807Y-101819191D01*
X165205808Y-101819192D01*
X165271964Y-101863396D01*
X165330303Y-101875000D01*
X166400000Y-101875000D01*
X166400000Y-101269802D01*
X166426131Y-101275000D01*
X166573869Y-101275000D01*
X166600000Y-101269802D01*
X166600000Y-101875000D01*
X167669697Y-101875000D01*
X167728035Y-101863396D01*
X167794191Y-101819192D01*
X167794192Y-101819191D01*
X167838396Y-101753035D01*
X167850000Y-101694697D01*
X167850000Y-100625000D01*
X167244802Y-100625000D01*
X167250000Y-100598869D01*
X167250000Y-100451131D01*
X167244802Y-100425000D01*
X167850000Y-100425000D01*
X167850000Y-99355302D01*
X167838396Y-99296964D01*
X167794192Y-99230808D01*
X167794191Y-99230807D01*
X167728035Y-99186603D01*
X167669697Y-99175000D01*
X166600000Y-99175000D01*
X166600000Y-99780197D01*
X166573869Y-99775000D01*
X166426131Y-99775000D01*
X166400000Y-99780197D01*
X166400000Y-99175000D01*
X165330303Y-99175000D01*
X165271964Y-99186603D01*
X165205808Y-99230807D01*
X165205807Y-99230808D01*
X165161603Y-99296964D01*
X165150000Y-99355302D01*
X164500500Y-99355302D01*
X164500500Y-95418711D01*
X165149500Y-95418711D01*
X165149500Y-95631288D01*
X165182753Y-95841240D01*
X165182756Y-95841253D01*
X165248440Y-96043406D01*
X165344948Y-96232816D01*
X165421475Y-96338146D01*
X165469896Y-96404792D01*
X165620208Y-96555104D01*
X165715656Y-96624451D01*
X165792183Y-96680051D01*
X165883474Y-96726565D01*
X165981588Y-96776557D01*
X165981590Y-96776557D01*
X165981593Y-96776559D01*
X166183746Y-96842243D01*
X166183752Y-96842244D01*
X166183757Y-96842246D01*
X166288735Y-96858873D01*
X166393711Y-96875500D01*
X166393713Y-96875500D01*
X166606289Y-96875500D01*
X166690269Y-96862198D01*
X166816243Y-96842246D01*
X166816250Y-96842243D01*
X166816253Y-96842243D01*
X167018406Y-96776559D01*
X167018406Y-96776558D01*
X167018412Y-96776557D01*
X167207816Y-96680051D01*
X167379792Y-96555104D01*
X167530104Y-96404792D01*
X167655051Y-96232816D01*
X167751557Y-96043412D01*
X167817246Y-95841243D01*
X167850500Y-95631287D01*
X167850500Y-95418713D01*
X167817246Y-95208757D01*
X167817244Y-95208752D01*
X167817243Y-95208746D01*
X167751559Y-95006593D01*
X167751557Y-95006590D01*
X167751557Y-95006588D01*
X167701565Y-94908474D01*
X167655051Y-94817183D01*
X167599451Y-94740656D01*
X167530104Y-94645208D01*
X167379792Y-94494896D01*
X167313146Y-94446475D01*
X167207816Y-94369948D01*
X167018406Y-94273440D01*
X166816253Y-94207756D01*
X166816240Y-94207753D01*
X166606289Y-94174500D01*
X166606287Y-94174500D01*
X166393713Y-94174500D01*
X166393711Y-94174500D01*
X166183759Y-94207753D01*
X166183746Y-94207756D01*
X165981593Y-94273440D01*
X165792183Y-94369948D01*
X165620212Y-94494893D01*
X165620208Y-94494896D01*
X165469896Y-94645208D01*
X165469893Y-94645211D01*
X165469893Y-94645212D01*
X165344948Y-94817183D01*
X165248440Y-95006593D01*
X165182756Y-95208746D01*
X165182753Y-95208759D01*
X165149500Y-95418711D01*
X164500500Y-95418711D01*
X164500500Y-93434105D01*
X172999500Y-93434105D01*
X172999500Y-93565894D01*
X173033606Y-93693181D01*
X173033607Y-93693184D01*
X173033608Y-93693186D01*
X173099500Y-93807314D01*
X173192686Y-93900500D01*
X173306814Y-93966392D01*
X173434105Y-94000499D01*
X173434106Y-94000500D01*
X173434108Y-94000500D01*
X173565894Y-94000500D01*
X173565894Y-94000499D01*
X173693186Y-93966392D01*
X173807314Y-93900500D01*
X173885640Y-93822174D01*
X173937966Y-93800500D01*
X174539564Y-93800500D01*
X174539564Y-93800499D01*
X174615989Y-93780021D01*
X174684511Y-93740460D01*
X174740460Y-93684511D01*
X176740460Y-91684511D01*
X178752796Y-89672173D01*
X178805122Y-89650500D01*
X178933476Y-89650500D01*
X178933476Y-89650499D01*
X179060768Y-89616392D01*
X179174896Y-89550500D01*
X179268082Y-89457314D01*
X179333974Y-89343186D01*
X179368081Y-89215894D01*
X179368082Y-89215894D01*
X179368082Y-89084106D01*
X179368081Y-89084105D01*
X179333975Y-88956818D01*
X179333974Y-88956814D01*
X179268082Y-88842686D01*
X179174896Y-88749500D01*
X179161260Y-88741627D01*
X179060772Y-88683610D01*
X179060763Y-88683606D01*
X178933476Y-88649500D01*
X178933474Y-88649500D01*
X178801690Y-88649500D01*
X178801688Y-88649500D01*
X178674400Y-88683606D01*
X178674391Y-88683610D01*
X178560267Y-88749500D01*
X178467082Y-88842685D01*
X178401192Y-88956809D01*
X178401188Y-88956818D01*
X178367082Y-89084105D01*
X178367082Y-89177295D01*
X178345408Y-89229621D01*
X174397203Y-93177826D01*
X174344877Y-93199500D01*
X173937966Y-93199500D01*
X173885640Y-93177826D01*
X173807314Y-93099500D01*
X173693190Y-93033610D01*
X173693181Y-93033606D01*
X173565894Y-92999500D01*
X173565892Y-92999500D01*
X173434108Y-92999500D01*
X173434106Y-92999500D01*
X173306818Y-93033606D01*
X173306809Y-93033610D01*
X173192685Y-93099500D01*
X173099500Y-93192685D01*
X173033610Y-93306809D01*
X173033606Y-93306818D01*
X172999500Y-93434105D01*
X164500500Y-93434105D01*
X164500500Y-87097646D01*
X167899500Y-87097646D01*
X167899500Y-87302353D01*
X167931522Y-87504531D01*
X167931525Y-87504544D01*
X167994777Y-87699213D01*
X168087712Y-87881610D01*
X168161406Y-87983040D01*
X168208034Y-88047219D01*
X168352781Y-88191966D01*
X168444695Y-88258745D01*
X168518389Y-88312287D01*
X168606300Y-88357079D01*
X168700781Y-88405220D01*
X168700783Y-88405220D01*
X168700786Y-88405222D01*
X168895455Y-88468474D01*
X168895461Y-88468475D01*
X168895466Y-88468477D01*
X168996557Y-88484488D01*
X169097646Y-88500500D01*
X169097648Y-88500500D01*
X169552354Y-88500500D01*
X169653443Y-88484488D01*
X169754535Y-88468477D01*
X169851876Y-88436848D01*
X169949219Y-88405220D01*
X170040414Y-88358753D01*
X170131611Y-88312287D01*
X170297219Y-88191966D01*
X174067010Y-84422173D01*
X174119336Y-84400500D01*
X175082354Y-84400500D01*
X175163224Y-84387690D01*
X175284534Y-84368477D01*
X175284541Y-84368474D01*
X175284544Y-84368474D01*
X175479213Y-84305222D01*
X175479213Y-84305221D01*
X175479219Y-84305220D01*
X175661610Y-84212287D01*
X175827219Y-84091966D01*
X175971966Y-83947219D01*
X176092287Y-83781610D01*
X176185220Y-83599219D01*
X176248477Y-83404534D01*
X176280500Y-83202352D01*
X176280500Y-82997648D01*
X176248477Y-82795466D01*
X176248475Y-82795461D01*
X176248474Y-82795455D01*
X176185222Y-82600786D01*
X176185220Y-82600783D01*
X176185220Y-82600781D01*
X176137079Y-82506300D01*
X176092287Y-82418389D01*
X175971968Y-82252784D01*
X175971966Y-82252781D01*
X175827219Y-82108034D01*
X175763040Y-82061406D01*
X175661610Y-81987712D01*
X175479213Y-81894777D01*
X175284544Y-81831525D01*
X175284531Y-81831522D01*
X175082354Y-81799500D01*
X175082352Y-81799500D01*
X173447648Y-81799500D01*
X173447646Y-81799500D01*
X173245468Y-81831522D01*
X173245455Y-81831525D01*
X173050785Y-81894777D01*
X172868388Y-81987714D01*
X172868386Y-81987715D01*
X172702785Y-82108031D01*
X172702781Y-82108034D01*
X172702776Y-82108039D01*
X172558031Y-82252784D01*
X168884069Y-85926744D01*
X168854611Y-85944796D01*
X168700786Y-85994777D01*
X168518389Y-86087712D01*
X168352785Y-86208031D01*
X168352781Y-86208034D01*
X168208034Y-86352781D01*
X168208031Y-86352784D01*
X168208031Y-86352785D01*
X168087712Y-86518389D01*
X167994777Y-86700786D01*
X167931525Y-86895455D01*
X167931522Y-86895468D01*
X167899500Y-87097646D01*
X164500500Y-87097646D01*
X164500500Y-77389776D01*
X166599500Y-77389776D01*
X166599500Y-77610223D01*
X166633984Y-77827948D01*
X166633987Y-77827961D01*
X166702103Y-78037602D01*
X166702104Y-78037605D01*
X166702105Y-78037606D01*
X166802185Y-78234022D01*
X166931758Y-78412365D01*
X167087635Y-78568242D01*
X167265978Y-78697815D01*
X167462394Y-78797895D01*
X167462397Y-78797896D01*
X167462396Y-78797896D01*
X167672038Y-78866012D01*
X167672044Y-78866013D01*
X167672049Y-78866015D01*
X167780913Y-78883257D01*
X167889776Y-78900500D01*
X167889778Y-78900500D01*
X168110224Y-78900500D01*
X168197313Y-78886706D01*
X168327951Y-78866015D01*
X168327958Y-78866012D01*
X168327961Y-78866012D01*
X168423133Y-78835088D01*
X168537606Y-78797895D01*
X168734022Y-78697815D01*
X168912365Y-78568242D01*
X169068242Y-78412365D01*
X169197815Y-78234022D01*
X169297895Y-78037606D01*
X169366015Y-77827951D01*
X169400500Y-77610222D01*
X169400500Y-77389778D01*
X169392580Y-77339776D01*
X169366015Y-77172051D01*
X169366012Y-77172038D01*
X169297896Y-76962397D01*
X169297895Y-76962396D01*
X169297895Y-76962394D01*
X169197815Y-76765978D01*
X169068242Y-76587635D01*
X168912365Y-76431758D01*
X168790461Y-76343190D01*
X168734024Y-76302186D01*
X168635894Y-76252186D01*
X168537606Y-76202105D01*
X168537605Y-76202104D01*
X168537602Y-76202103D01*
X168537603Y-76202103D01*
X168376122Y-76149636D01*
X168327961Y-76133987D01*
X168327948Y-76133984D01*
X168110224Y-76099500D01*
X168110222Y-76099500D01*
X167889778Y-76099500D01*
X167889776Y-76099500D01*
X167672051Y-76133984D01*
X167672038Y-76133987D01*
X167462397Y-76202103D01*
X167265976Y-76302186D01*
X167265975Y-76302186D01*
X167087639Y-76431755D01*
X167087635Y-76431758D01*
X166931758Y-76587635D01*
X166931755Y-76587638D01*
X166931755Y-76587639D01*
X166802186Y-76765975D01*
X166802186Y-76765976D01*
X166702103Y-76962397D01*
X166633987Y-77172038D01*
X166633984Y-77172051D01*
X166599500Y-77389776D01*
X164500500Y-77389776D01*
X164500500Y-76084105D01*
X171499500Y-76084105D01*
X171499500Y-76215894D01*
X171533606Y-76343181D01*
X171533610Y-76343190D01*
X171599500Y-76457314D01*
X171677826Y-76535640D01*
X171699500Y-76587966D01*
X171699500Y-76889564D01*
X171719977Y-76965985D01*
X171719978Y-76965988D01*
X171719979Y-76965989D01*
X171728985Y-76981588D01*
X171759540Y-77034511D01*
X174259540Y-79534511D01*
X174315489Y-79590460D01*
X174384011Y-79630021D01*
X174384012Y-79630021D01*
X174384014Y-79630022D01*
X174422224Y-79640260D01*
X174460435Y-79650499D01*
X174460436Y-79650500D01*
X174460438Y-79650500D01*
X176194877Y-79650500D01*
X176247203Y-79672174D01*
X177677826Y-81102797D01*
X177699500Y-81155123D01*
X177699500Y-83386447D01*
X177677826Y-83438773D01*
X174038773Y-87077826D01*
X173986447Y-87099500D01*
X173875677Y-87099500D01*
X173748389Y-87133606D01*
X173748380Y-87133610D01*
X173634256Y-87199500D01*
X173541071Y-87292685D01*
X173475181Y-87406809D01*
X173475177Y-87406818D01*
X173441071Y-87534105D01*
X173441071Y-87665894D01*
X173475177Y-87793181D01*
X173475178Y-87793184D01*
X173475179Y-87793186D01*
X173541071Y-87907314D01*
X173634257Y-88000500D01*
X173634259Y-88000501D01*
X173634260Y-88000502D01*
X173650542Y-88009902D01*
X173685022Y-88054834D01*
X173677631Y-88110987D01*
X173665876Y-88126309D01*
X173665188Y-88126996D01*
X173599297Y-88241122D01*
X173599293Y-88241131D01*
X173565187Y-88368418D01*
X173565187Y-88500207D01*
X173599293Y-88627494D01*
X173599297Y-88627503D01*
X173631691Y-88683610D01*
X173665187Y-88741627D01*
X173758373Y-88834813D01*
X173872501Y-88900705D01*
X173999792Y-88934812D01*
X173999793Y-88934813D01*
X173999795Y-88934813D01*
X174131581Y-88934813D01*
X174131581Y-88934812D01*
X174258873Y-88900705D01*
X174373001Y-88834813D01*
X174466187Y-88741627D01*
X174532079Y-88627499D01*
X174566186Y-88500207D01*
X174566187Y-88500207D01*
X174566187Y-88389435D01*
X174587861Y-88337109D01*
X175990865Y-86934105D01*
X178499500Y-86934105D01*
X178499500Y-87065894D01*
X178533606Y-87193181D01*
X178533607Y-87193184D01*
X178533608Y-87193186D01*
X178599500Y-87307314D01*
X178692686Y-87400500D01*
X178806814Y-87466392D01*
X178934105Y-87500499D01*
X178934106Y-87500500D01*
X178934108Y-87500500D01*
X179065894Y-87500500D01*
X179065894Y-87500499D01*
X179193186Y-87466392D01*
X179307314Y-87400500D01*
X179400500Y-87307314D01*
X179466392Y-87193186D01*
X179500499Y-87065894D01*
X179500500Y-87065894D01*
X179500500Y-86955122D01*
X179522174Y-86902796D01*
X180602797Y-85822174D01*
X180655123Y-85800500D01*
X184562034Y-85800500D01*
X184614360Y-85822174D01*
X184692686Y-85900500D01*
X184806814Y-85966392D01*
X184934105Y-86000499D01*
X184934106Y-86000500D01*
X184934108Y-86000500D01*
X185065894Y-86000500D01*
X185065894Y-86000499D01*
X185193186Y-85966392D01*
X185307314Y-85900500D01*
X185400500Y-85807314D01*
X185466392Y-85693186D01*
X185500499Y-85565894D01*
X185500500Y-85565894D01*
X185500500Y-85434106D01*
X185500499Y-85434105D01*
X185466393Y-85306818D01*
X185466392Y-85306814D01*
X185400500Y-85192686D01*
X185307314Y-85099500D01*
X185193190Y-85033610D01*
X185193181Y-85033606D01*
X185065894Y-84999500D01*
X185065892Y-84999500D01*
X184934108Y-84999500D01*
X184934106Y-84999500D01*
X184806818Y-85033606D01*
X184806809Y-85033610D01*
X184692685Y-85099500D01*
X184614360Y-85177826D01*
X184562034Y-85199500D01*
X180460436Y-85199500D01*
X180384014Y-85219977D01*
X180384009Y-85219979D01*
X180324934Y-85254087D01*
X180315488Y-85259540D01*
X179097202Y-86477826D01*
X179044876Y-86499500D01*
X178934106Y-86499500D01*
X178806818Y-86533606D01*
X178806809Y-86533610D01*
X178692685Y-86599500D01*
X178599500Y-86692685D01*
X178533610Y-86806809D01*
X178533606Y-86806818D01*
X178499500Y-86934105D01*
X175990865Y-86934105D01*
X176048038Y-86876932D01*
X176572194Y-86352776D01*
X178740460Y-84184511D01*
X178780022Y-84115988D01*
X178800500Y-84039562D01*
X178800500Y-83960438D01*
X178800500Y-80585842D01*
X191749500Y-80585842D01*
X191749500Y-95814157D01*
X191785215Y-96039657D01*
X191785218Y-96039670D01*
X191855766Y-96256793D01*
X191959420Y-96460227D01*
X192006844Y-96525500D01*
X192028352Y-96555104D01*
X192093620Y-96644937D01*
X196270062Y-100821379D01*
X196454772Y-100955579D01*
X196658201Y-101059231D01*
X196658205Y-101059232D01*
X196658858Y-101059565D01*
X196695641Y-101102632D01*
X196691198Y-101159095D01*
X196648131Y-101195878D01*
X196625263Y-101199500D01*
X196580252Y-101199500D01*
X196551010Y-101205316D01*
X196521767Y-101211133D01*
X196455449Y-101255447D01*
X196455447Y-101255449D01*
X196411133Y-101321767D01*
X196399500Y-101380253D01*
X196399500Y-103719746D01*
X196411133Y-103778232D01*
X196426409Y-103801093D01*
X196455448Y-103844552D01*
X196488677Y-103866755D01*
X196521767Y-103888866D01*
X196521768Y-103888866D01*
X196521769Y-103888867D01*
X196580252Y-103900500D01*
X196580254Y-103900500D01*
X198919746Y-103900500D01*
X198919748Y-103900500D01*
X198978231Y-103888867D01*
X199044552Y-103844552D01*
X199088867Y-103778231D01*
X199100500Y-103719748D01*
X199100500Y-101380252D01*
X199088867Y-101321769D01*
X199044552Y-101255448D01*
X199011322Y-101233244D01*
X198978232Y-101211133D01*
X198978233Y-101211133D01*
X198948989Y-101205316D01*
X198919748Y-101199500D01*
X198374737Y-101199500D01*
X198322411Y-101177826D01*
X198300737Y-101125500D01*
X198322411Y-101073174D01*
X198341142Y-101059565D01*
X198341794Y-101059232D01*
X198341799Y-101059231D01*
X198545228Y-100955579D01*
X198729937Y-100821379D01*
X198891379Y-100659937D01*
X199025579Y-100475228D01*
X199129231Y-100271799D01*
X199129233Y-100271793D01*
X199199781Y-100054670D01*
X199199781Y-100054667D01*
X199199784Y-100054660D01*
X199235500Y-99829157D01*
X199235500Y-99600843D01*
X199199784Y-99375340D01*
X199199782Y-99375335D01*
X199199781Y-99375329D01*
X199129233Y-99158206D01*
X199129231Y-99158203D01*
X199129231Y-99158201D01*
X199025579Y-98954772D01*
X198891379Y-98770063D01*
X198729937Y-98608621D01*
X198729934Y-98608618D01*
X198729932Y-98608617D01*
X198545227Y-98474420D01*
X198341793Y-98370766D01*
X198124670Y-98300218D01*
X198124657Y-98300215D01*
X197899158Y-98264500D01*
X197899157Y-98264500D01*
X197846469Y-98264500D01*
X197794143Y-98242826D01*
X194672174Y-95120857D01*
X194650500Y-95068531D01*
X194650500Y-80585842D01*
X194614784Y-80360342D01*
X194614781Y-80360329D01*
X194544233Y-80143206D01*
X194544231Y-80143203D01*
X194544231Y-80143201D01*
X194440579Y-79939772D01*
X194306379Y-79755063D01*
X194144937Y-79593621D01*
X194144934Y-79593618D01*
X194144932Y-79593617D01*
X193960227Y-79459420D01*
X193756793Y-79355766D01*
X193539670Y-79285218D01*
X193539657Y-79285215D01*
X193314158Y-79249500D01*
X193314157Y-79249500D01*
X193085843Y-79249500D01*
X193085842Y-79249500D01*
X192860342Y-79285215D01*
X192860329Y-79285218D01*
X192643206Y-79355766D01*
X192439772Y-79459420D01*
X192255067Y-79593617D01*
X192093617Y-79755067D01*
X191959420Y-79939772D01*
X191855766Y-80143206D01*
X191785218Y-80360329D01*
X191785215Y-80360342D01*
X191749500Y-80585842D01*
X178800500Y-80585842D01*
X178800500Y-78364752D01*
X178800500Y-78364750D01*
X178800499Y-78364749D01*
X178780022Y-78288328D01*
X178780020Y-78288323D01*
X178740459Y-78219802D01*
X178272174Y-77751517D01*
X178250500Y-77699191D01*
X178250500Y-77339776D01*
X196899500Y-77339776D01*
X196899500Y-77560223D01*
X196933984Y-77777948D01*
X196933987Y-77777961D01*
X197002103Y-77987602D01*
X197102186Y-78184023D01*
X197102186Y-78184024D01*
X197138513Y-78234024D01*
X197231758Y-78362365D01*
X197387635Y-78518242D01*
X197565978Y-78647815D01*
X197762394Y-78747895D01*
X197762397Y-78747896D01*
X197762396Y-78747896D01*
X197972038Y-78816012D01*
X197972044Y-78816013D01*
X197972049Y-78816015D01*
X198080913Y-78833257D01*
X198189776Y-78850500D01*
X198189778Y-78850500D01*
X198410224Y-78850500D01*
X198497313Y-78836706D01*
X198627951Y-78816015D01*
X198627958Y-78816012D01*
X198627961Y-78816012D01*
X198723133Y-78785088D01*
X198837606Y-78747895D01*
X199034022Y-78647815D01*
X199212365Y-78518242D01*
X199368242Y-78362365D01*
X199497815Y-78184022D01*
X199597895Y-77987606D01*
X199666015Y-77777951D01*
X199700500Y-77560222D01*
X199700500Y-77339778D01*
X199666015Y-77122049D01*
X199666013Y-77122044D01*
X199666012Y-77122038D01*
X199597896Y-76912397D01*
X199597895Y-76912396D01*
X199597895Y-76912394D01*
X199497815Y-76715978D01*
X199368242Y-76537635D01*
X199212365Y-76381758D01*
X199102842Y-76302185D01*
X199034024Y-76252186D01*
X198837602Y-76152103D01*
X198837603Y-76152103D01*
X198627961Y-76083987D01*
X198627948Y-76083984D01*
X198410224Y-76049500D01*
X198410222Y-76049500D01*
X198189778Y-76049500D01*
X198189776Y-76049500D01*
X197972051Y-76083984D01*
X197972038Y-76083987D01*
X197762397Y-76152103D01*
X197565976Y-76252186D01*
X197565975Y-76252186D01*
X197387639Y-76381755D01*
X197387635Y-76381758D01*
X197231758Y-76537635D01*
X197231755Y-76537638D01*
X197231755Y-76537639D01*
X197102186Y-76715975D01*
X197102186Y-76715976D01*
X197002103Y-76912397D01*
X196933987Y-77122038D01*
X196933984Y-77122051D01*
X196899500Y-77339776D01*
X178250500Y-77339776D01*
X178250500Y-76557966D01*
X178272174Y-76505640D01*
X178350500Y-76427314D01*
X178416392Y-76313186D01*
X178450499Y-76185894D01*
X178450500Y-76185894D01*
X178450500Y-76054106D01*
X178450499Y-76054105D01*
X178416393Y-75926818D01*
X178416392Y-75926814D01*
X178350500Y-75812686D01*
X178257314Y-75719500D01*
X178195151Y-75683610D01*
X178143190Y-75653610D01*
X178143181Y-75653606D01*
X178015894Y-75619500D01*
X178015892Y-75619500D01*
X177884108Y-75619500D01*
X177884106Y-75619500D01*
X177756818Y-75653606D01*
X177756809Y-75653610D01*
X177642685Y-75719500D01*
X177549500Y-75812685D01*
X177483610Y-75926809D01*
X177483606Y-75926818D01*
X177449500Y-76054105D01*
X177449500Y-76185894D01*
X177483606Y-76313181D01*
X177483610Y-76313190D01*
X177549500Y-76427314D01*
X177627826Y-76505640D01*
X177649500Y-76557966D01*
X177649500Y-77893878D01*
X177669977Y-77970299D01*
X177669978Y-77970301D01*
X177669979Y-77970303D01*
X177679969Y-77987606D01*
X177709540Y-78038825D01*
X178177826Y-78507111D01*
X178199500Y-78559437D01*
X178199500Y-80595877D01*
X178177826Y-80648203D01*
X178125500Y-80669877D01*
X178073174Y-80648203D01*
X176534511Y-79109540D01*
X176465990Y-79069979D01*
X176465985Y-79069977D01*
X176389564Y-79049500D01*
X176389562Y-79049500D01*
X174655123Y-79049500D01*
X174602797Y-79027826D01*
X172322174Y-76747203D01*
X172300500Y-76694877D01*
X172300500Y-76587966D01*
X172322174Y-76535640D01*
X172352174Y-76505640D01*
X172400500Y-76457314D01*
X172466392Y-76343186D01*
X172500499Y-76215894D01*
X172500500Y-76215894D01*
X172500500Y-76084106D01*
X172500499Y-76084105D01*
X172500467Y-76083987D01*
X172466392Y-75956814D01*
X172400500Y-75842686D01*
X172307314Y-75749500D01*
X172255353Y-75719500D01*
X172193190Y-75683610D01*
X172193181Y-75683606D01*
X172065894Y-75649500D01*
X172065892Y-75649500D01*
X171934108Y-75649500D01*
X171934106Y-75649500D01*
X171806818Y-75683606D01*
X171806809Y-75683610D01*
X171692685Y-75749500D01*
X171599500Y-75842685D01*
X171533610Y-75956809D01*
X171533606Y-75956818D01*
X171499500Y-76084105D01*
X164500500Y-76084105D01*
X164500500Y-74574500D01*
X164522174Y-74522174D01*
X164574500Y-74500500D01*
X201775500Y-74500500D01*
X201827826Y-74522174D01*
G37*
%TD.AperFunction*%
%TD*%
M02*
