%TF.GenerationSoftware,KiCad,Pcbnew,9.0.0*%
%TF.CreationDate,2025-03-08T20:05:39+01:00*%
%TF.ProjectId,converter1A,636f6e76-6572-4746-9572-31412e6b6963,rev?*%
%TF.SameCoordinates,Original*%
%TF.FileFunction,Copper,L1,Top*%
%TF.FilePolarity,Positive*%
%FSLAX46Y46*%
G04 Gerber Fmt 4.6, Leading zero omitted, Abs format (unit mm)*
G04 Created by KiCad (PCBNEW 9.0.0) date 2025-03-08 20:05:39*
%MOMM*%
%LPD*%
G01*
G04 APERTURE LIST*
G04 Aperture macros list*
%AMRoundRect*
0 Rectangle with rounded corners*
0 $1 Rounding radius*
0 $2 $3 $4 $5 $6 $7 $8 $9 X,Y pos of 4 corners*
0 Add a 4 corners polygon primitive as box body*
4,1,4,$2,$3,$4,$5,$6,$7,$8,$9,$2,$3,0*
0 Add four circle primitives for the rounded corners*
1,1,$1+$1,$2,$3*
1,1,$1+$1,$4,$5*
1,1,$1+$1,$6,$7*
1,1,$1+$1,$8,$9*
0 Add four rect primitives between the rounded corners*
20,1,$1+$1,$2,$3,$4,$5,0*
20,1,$1+$1,$4,$5,$6,$7,0*
20,1,$1+$1,$6,$7,$8,$9,0*
20,1,$1+$1,$8,$9,$2,$3,0*%
%AMFreePoly0*
4,1,17,1.371000,0.720000,0.950000,0.720000,0.950000,0.580000,1.370000,0.580000,1.370000,0.080000,0.950000,0.080000,0.950000,-0.080000,1.370000,-0.080000,1.370000,-0.580000,0.950000,-0.580000,0.950000,-0.720000,1.370000,-0.720000,1.370000,-1.225000,-0.950000,-1.225000,-0.950000,1.225000,1.371000,1.225000,1.371000,0.720000,1.371000,0.720000,$1*%
G04 Aperture macros list end*
%TA.AperFunction,WasherPad*%
%ADD10C,2.400000*%
%TD*%
%TA.AperFunction,ComponentPad*%
%ADD11R,2.300000X2.300000*%
%TD*%
%TA.AperFunction,ComponentPad*%
%ADD12C,2.300000*%
%TD*%
%TA.AperFunction,SMDPad,CuDef*%
%ADD13R,0.750000X0.600000*%
%TD*%
%TA.AperFunction,SMDPad,CuDef*%
%ADD14R,0.940000X0.540000*%
%TD*%
%TA.AperFunction,SMDPad,CuDef*%
%ADD15R,1.200000X0.600000*%
%TD*%
%TA.AperFunction,SMDPad,CuDef*%
%ADD16R,0.850000X1.000000*%
%TD*%
%TA.AperFunction,SMDPad,CuDef*%
%ADD17R,0.600000X0.750000*%
%TD*%
%TA.AperFunction,SMDPad,CuDef*%
%ADD18R,0.800000X0.950000*%
%TD*%
%TA.AperFunction,SMDPad,CuDef*%
%ADD19R,1.170000X1.820000*%
%TD*%
%TA.AperFunction,SMDPad,CuDef*%
%ADD20R,0.420000X0.620000*%
%TD*%
%TA.AperFunction,SMDPad,CuDef*%
%ADD21R,1.070000X1.820000*%
%TD*%
%TA.AperFunction,SMDPad,CuDef*%
%ADD22R,1.750000X3.200000*%
%TD*%
%TA.AperFunction,SMDPad,CuDef*%
%ADD23R,2.820000X0.810000*%
%TD*%
%TA.AperFunction,SMDPad,CuDef*%
%ADD24R,1.450000X1.150000*%
%TD*%
%TA.AperFunction,SMDPad,CuDef*%
%ADD25R,1.400000X1.950000*%
%TD*%
%TA.AperFunction,SMDPad,CuDef*%
%ADD26RoundRect,0.125000X-0.190000X-0.125000X0.190000X-0.125000X0.190000X0.125000X-0.190000X0.125000X0*%
%TD*%
%TA.AperFunction,SMDPad,CuDef*%
%ADD27FreePoly0,0.000000*%
%TD*%
%TA.AperFunction,SMDPad,CuDef*%
%ADD28R,1.150000X1.450000*%
%TD*%
%TA.AperFunction,SMDPad,CuDef*%
%ADD29R,1.600000X3.000000*%
%TD*%
%TA.AperFunction,SMDPad,CuDef*%
%ADD30R,0.450000X0.600000*%
%TD*%
%TA.AperFunction,ComponentPad*%
%ADD31R,1.000000X1.000000*%
%TD*%
%TA.AperFunction,ComponentPad*%
%ADD32O,1.000000X1.000000*%
%TD*%
%TA.AperFunction,SMDPad,CuDef*%
%ADD33R,0.700000X0.650000*%
%TD*%
%TA.AperFunction,SMDPad,CuDef*%
%ADD34R,0.250000X0.600000*%
%TD*%
%TA.AperFunction,SMDPad,CuDef*%
%ADD35R,0.600000X0.250000*%
%TD*%
%TA.AperFunction,SMDPad,CuDef*%
%ADD36R,1.700000X2.700000*%
%TD*%
%TA.AperFunction,SMDPad,CuDef*%
%ADD37R,1.260000X2.720000*%
%TD*%
%TA.AperFunction,SMDPad,CuDef*%
%ADD38RoundRect,0.125000X0.125000X-0.190000X0.125000X0.190000X-0.125000X0.190000X-0.125000X-0.190000X0*%
%TD*%
%TA.AperFunction,SMDPad,CuDef*%
%ADD39FreePoly0,90.000000*%
%TD*%
%TA.AperFunction,SMDPad,CuDef*%
%ADD40R,3.070000X2.260000*%
%TD*%
%TA.AperFunction,SMDPad,CuDef*%
%ADD41R,2.770000X2.260000*%
%TD*%
%TA.AperFunction,ViaPad*%
%ADD42C,0.600000*%
%TD*%
%TA.AperFunction,ViaPad*%
%ADD43C,0.700000*%
%TD*%
%TA.AperFunction,Conductor*%
%ADD44C,2.500000*%
%TD*%
%TA.AperFunction,Conductor*%
%ADD45C,0.200000*%
%TD*%
%TA.AperFunction,Conductor*%
%ADD46C,2.200000*%
%TD*%
%TA.AperFunction,Conductor*%
%ADD47C,2.100000*%
%TD*%
G04 APERTURE END LIST*
D10*
%TO.P,H3,*%
%TO.N,*%
X198350000Y-108000000D03*
%TD*%
D11*
%TO.P,J1,1,1*%
%TO.N,Net-(C15-+)*%
X197750000Y-102550000D03*
D12*
%TO.P,J1,2,2*%
%TO.N,GND*%
X192750000Y-102550000D03*
%TD*%
D10*
%TO.P,H2,*%
%TO.N,*%
X168000000Y-77500000D03*
%TD*%
D13*
%TO.P,R7,1,1*%
%TO.N,Net-(IC2-RT)*%
X172050000Y-86000000D03*
%TO.P,R7,2,2*%
%TO.N,GND*%
X170950000Y-86000000D03*
%TD*%
D14*
%TO.P,C6,2,2*%
%TO.N,GND*%
X174750000Y-96450000D03*
%TO.P,C6,1,1*%
%TO.N,Net-(IC3-EN)*%
X174750000Y-98050000D03*
%TD*%
D15*
%TO.P,IC3,1,CB*%
%TO.N,Net-(IC3-CB)*%
X178250000Y-102700000D03*
%TO.P,IC3,2,GND*%
%TO.N,GND*%
X178250000Y-101750000D03*
%TO.P,IC3,3,FB*%
%TO.N,Net-(IC3-FB)*%
X178250000Y-100800000D03*
%TO.P,IC3,4,EN*%
%TO.N,Net-(IC3-EN)*%
X175750000Y-100800000D03*
%TO.P,IC3,5,VIN*%
X175750000Y-101750000D03*
%TO.P,IC3,6,SW*%
%TO.N,Net-(IC3-SW)*%
X175750000Y-102700000D03*
%TD*%
D16*
%TO.P,R6,1,1*%
%TO.N,Net-(IC2-EN{slash}UVLO)*%
X170750000Y-83500000D03*
%TO.P,R6,2,2*%
%TO.N,GND*%
X169250000Y-83500000D03*
%TD*%
D17*
%TO.P,R1,1,1*%
%TO.N,Net-(IC3-FB)*%
X179250000Y-99050000D03*
%TO.P,R1,2,2*%
%TO.N,GND*%
X179250000Y-97950000D03*
%TD*%
D18*
%TO.P,R2,1,1*%
%TO.N,Net-(IC2-VCC)*%
X173700000Y-92500000D03*
%TO.P,R2,2,2*%
%TO.N,Net-(IC2-PGOOD)*%
X175300000Y-92500000D03*
%TD*%
D13*
%TO.P,R12,1,1*%
%TO.N,Net-(C15-+)*%
X178850000Y-80000000D03*
%TO.P,R12,2,2*%
%TO.N,Net-(C11-Pad1)*%
X177750000Y-80000000D03*
%TD*%
%TO.P,R4,1,1*%
%TO.N,Net-(J4-Pin_2)*%
X181050000Y-100750000D03*
%TO.P,R4,2,2*%
%TO.N,Net-(IC3-FB)*%
X179950000Y-100750000D03*
%TD*%
%TO.P,R11,1,1*%
%TO.N,Net-(IC2-ILIM)*%
X180500000Y-92000000D03*
%TO.P,R11,2,2*%
%TO.N,Net-(IC2-SW)*%
X181600000Y-92000000D03*
%TD*%
D10*
%TO.P,H3,*%
%TO.N,*%
X168000000Y-108000000D03*
%TD*%
D19*
%TO.P,F1,1,1*%
%TO.N,Net-(F1-Pad1)*%
X166530000Y-91000000D03*
%TO.P,F1,2,2*%
%TO.N,Net-(C16-Pad1)*%
X169470000Y-91000000D03*
%TD*%
D11*
%TO.P,J3,1,1*%
%TO.N,GND*%
X166500000Y-100525000D03*
D12*
%TO.P,J3,2,2*%
%TO.N,Net-(F1-Pad1)*%
X166500000Y-95525000D03*
%TD*%
D20*
%TO.P,C1,1,1*%
%TO.N,Net-(IC3-SW)*%
X176450000Y-104250000D03*
%TO.P,C1,2,2*%
%TO.N,Net-(IC3-CB)*%
X177550000Y-104250000D03*
%TD*%
%TO.P,C13,1,1*%
%TO.N,Net-(IC2-COMP)*%
X174100000Y-77600000D03*
%TO.P,C13,2,2*%
%TO.N,Net-(IC2-FB)*%
X175200000Y-77600000D03*
%TD*%
D21*
%TO.P,C16,1,1*%
%TO.N,Net-(C16-Pad1)*%
X170370000Y-95750000D03*
%TO.P,C16,2,2*%
%TO.N,GND*%
X173130000Y-95750000D03*
%TD*%
D13*
%TO.P,R13,1,1*%
%TO.N,Net-(C12-Pad2)*%
X175400000Y-76150000D03*
%TO.P,R13,2,2*%
%TO.N,Net-(IC2-FB)*%
X176500000Y-76150000D03*
%TD*%
D22*
%TO.P,L2,1,1*%
%TO.N,Net-(IC3-SW)*%
X176650000Y-107000000D03*
%TO.P,L2,2,2*%
%TO.N,Net-(J4-Pin_2)*%
X178850000Y-107000000D03*
%TD*%
D23*
%TO.P,C21,1,1*%
%TO.N,Net-(C21-Pad1)*%
X171000000Y-104100000D03*
%TO.P,C21,2,2*%
%TO.N,GND*%
X171000000Y-100900000D03*
%TD*%
D20*
%TO.P,C10,1,1*%
%TO.N,Net-(IC2-VCC)*%
X178950000Y-88500000D03*
%TO.P,C10,2,2*%
%TO.N,GND*%
X180050000Y-88500000D03*
%TD*%
D14*
%TO.P,C8,1,1*%
%TO.N,Net-(IC2-VIN)*%
X177000000Y-82800000D03*
%TO.P,C8,2,2*%
%TO.N,GND*%
X177000000Y-81200000D03*
%TD*%
D18*
%TO.P,R9,1,1*%
%TO.N,Net-(IC2-SYNCIN)*%
X173300000Y-90500000D03*
%TO.P,R9,2,2*%
%TO.N,Net-(IC2-VCC)*%
X171700000Y-90500000D03*
%TD*%
D24*
%TO.P,C2,1,1*%
%TO.N,Net-(J4-Pin_2)*%
X181750000Y-106250000D03*
%TO.P,C2,2,2*%
%TO.N,GND*%
X181750000Y-108050000D03*
%TD*%
D25*
%TO.P,L4,1,1*%
%TO.N,Net-(C16-Pad1)*%
X170000000Y-98500000D03*
%TO.P,L4,2,2*%
%TO.N,Net-(IC3-EN)*%
X173000000Y-98500000D03*
%TD*%
D10*
%TO.P,H2,*%
%TO.N,*%
X198300000Y-77450000D03*
%TD*%
D26*
%TO.P,Q2,1,S*%
%TO.N,GND*%
X181000000Y-88360000D03*
%TO.P,Q2,2,S*%
X181000000Y-89000000D03*
%TO.P,Q2,3,S*%
X181000000Y-89660000D03*
%TO.P,Q2,4,G*%
%TO.N,Net-(IC2-LO)*%
X181000000Y-90300000D03*
D27*
%TO.P,Q2,5,D*%
%TO.N,Net-(IC2-SW)*%
X182825000Y-89330000D03*
%TD*%
D28*
%TO.P,C3,1,1*%
%TO.N,Net-(J4-Pin_2)*%
X180950000Y-103000000D03*
%TO.P,C3,2,2*%
%TO.N,GND*%
X182750000Y-103000000D03*
%TD*%
D29*
%TO.P,C15,1,+*%
%TO.N,Net-(C15-+)*%
X189500000Y-80900000D03*
%TO.P,C15,2,-*%
%TO.N,GND*%
X189500000Y-76500000D03*
%TD*%
D13*
%TO.P,R5,1,1*%
%TO.N,Net-(C16-Pad1)*%
X173550000Y-84500000D03*
%TO.P,R5,2,2*%
%TO.N,Net-(IC2-EN{slash}UVLO)*%
X172450000Y-84500000D03*
%TD*%
D30*
%TO.P,C17,1,1*%
%TO.N,Net-(IC2-BST)*%
X181025000Y-86500000D03*
%TO.P,C17,2,2*%
%TO.N,Net-(IC2-SW)*%
X181975000Y-86500000D03*
%TD*%
D31*
%TO.P,J4,1,Pin_1*%
%TO.N,GND*%
X188540000Y-108500000D03*
D32*
%TO.P,J4,2,Pin_2*%
%TO.N,Net-(J4-Pin_2)*%
X187270000Y-108500000D03*
%TO.P,J4,3,Pin_3*%
%TO.N,GND*%
X186000000Y-108500000D03*
%TO.P,J4,4,Pin_4*%
%TO.N,Net-(J4-Pin_2)*%
X184730000Y-108500000D03*
%TD*%
D33*
%TO.P,C5,1,1*%
%TO.N,Net-(IC3-EN)*%
X177000000Y-98175000D03*
%TO.P,C5,2,2*%
%TO.N,GND*%
X177000000Y-96825000D03*
%TD*%
D34*
%TO.P,IC2,1,EN/UVLO*%
%TO.N,Net-(IC2-EN{slash}UVLO)*%
X175750000Y-86350000D03*
D35*
%TO.P,IC2,2,RT*%
%TO.N,Net-(IC2-RT)*%
X174850000Y-86750000D03*
%TO.P,IC2,3,SS/TRK*%
%TO.N,Net-(IC2-SS{slash}TRK)*%
X174850000Y-87250000D03*
%TO.P,IC2,4,COMP*%
%TO.N,Net-(IC2-COMP)*%
X174850000Y-87750000D03*
%TO.P,IC2,5,FB*%
%TO.N,Net-(IC2-FB)*%
X174850000Y-88250000D03*
%TO.P,IC2,6,AGND*%
%TO.N,GND*%
X174850000Y-88750000D03*
%TO.P,IC2,7,SYNCOUT*%
%TO.N,unconnected-(IC2-SYNCOUT-Pad7)*%
X174850000Y-89250000D03*
%TO.P,IC2,8,SYNCIN*%
%TO.N,Net-(IC2-SYNCIN)*%
X174850000Y-89750000D03*
%TO.P,IC2,9,NC_1*%
%TO.N,unconnected-(IC2-NC_1-Pad9)*%
X174850000Y-90250000D03*
D34*
%TO.P,IC2,10,PGOOD*%
%TO.N,Net-(IC2-PGOOD)*%
X175750000Y-90650000D03*
%TO.P,IC2,11,ILIM*%
%TO.N,Net-(IC2-ILIM)*%
X177250000Y-90650000D03*
D35*
%TO.P,IC2,12,PGND*%
%TO.N,GND*%
X178150000Y-90250000D03*
%TO.P,IC2,13,LO*%
%TO.N,Net-(IC2-LO)*%
X178150000Y-89750000D03*
%TO.P,IC2,14,VCC*%
%TO.N,Net-(IC2-VCC)*%
X178150000Y-89250000D03*
%TO.P,IC2,15,EP_1*%
%TO.N,GND*%
X178150000Y-88750000D03*
%TO.P,IC2,16,NC_2*%
%TO.N,unconnected-(IC2-NC_2-Pad16)*%
X178150000Y-88250000D03*
%TO.P,IC2,17,BST*%
%TO.N,Net-(IC2-BST)*%
X178150000Y-87750000D03*
%TO.P,IC2,18,HO*%
%TO.N,Net-(IC2-HO)*%
X178150000Y-87250000D03*
%TO.P,IC2,19,SW*%
%TO.N,Net-(IC2-SW)*%
X178150000Y-86750000D03*
D34*
%TO.P,IC2,20,VIN*%
%TO.N,Net-(IC2-VIN)*%
X177250000Y-86350000D03*
D36*
%TO.P,IC2,21,EP_2*%
%TO.N,GND*%
X176500000Y-88500000D03*
%TD*%
D37*
%TO.P,C7,1,1*%
%TO.N,Net-(C16-Pad1)*%
X168830000Y-87500000D03*
%TO.P,C7,2,2*%
%TO.N,GND*%
X166170000Y-87500000D03*
%TD*%
D17*
%TO.P,R14,1,1*%
%TO.N,Net-(IC3-EN)*%
X173250000Y-102450000D03*
%TO.P,R14,2,2*%
%TO.N,Net-(C21-Pad1)*%
X173250000Y-103550000D03*
%TD*%
D20*
%TO.P,C11,1,1*%
%TO.N,Net-(C11-Pad1)*%
X177750000Y-78500000D03*
%TO.P,C11,2,2*%
%TO.N,Net-(IC2-FB)*%
X178850000Y-78500000D03*
%TD*%
D18*
%TO.P,R10,1,1*%
%TO.N,Net-(C15-+)*%
X182300000Y-79000000D03*
%TO.P,R10,2,2*%
%TO.N,Net-(IC2-FB)*%
X180700000Y-79000000D03*
%TD*%
D20*
%TO.P,C9,1,1*%
%TO.N,Net-(IC2-SS{slash}TRK)*%
X173050000Y-87500000D03*
%TO.P,C9,2,2*%
%TO.N,GND*%
X171950000Y-87500000D03*
%TD*%
D16*
%TO.P,R8,1,1*%
%TO.N,Net-(C16-Pad1)*%
X175250000Y-84500000D03*
%TO.P,R8,2,2*%
%TO.N,Net-(IC2-VIN)*%
X176750000Y-84500000D03*
%TD*%
D13*
%TO.P,R15,1,1*%
%TO.N,Net-(IC2-FB)*%
X179850000Y-76050000D03*
%TO.P,R15,2,2*%
%TO.N,GND*%
X180950000Y-76050000D03*
%TD*%
D38*
%TO.P,Q1,1,S*%
%TO.N,Net-(IC2-SW)*%
X182057500Y-84610000D03*
%TO.P,Q1,2,S*%
X182697500Y-84610000D03*
%TO.P,Q1,3,S*%
X183357500Y-84610000D03*
%TO.P,Q1,4,G*%
%TO.N,Net-(IC2-HO)*%
X183997500Y-84610000D03*
D39*
%TO.P,Q1,5,D*%
%TO.N,Net-(IC2-VIN)*%
X183027500Y-82785000D03*
%TD*%
D14*
%TO.P,C14,1,1*%
%TO.N,Net-(IC2-ILIM)*%
X179000000Y-92200000D03*
%TO.P,C14,2,2*%
%TO.N,GND*%
X179000000Y-93800000D03*
%TD*%
D40*
%TO.P,L1,1,1*%
%TO.N,Net-(IC2-SW)*%
X190575000Y-96320000D03*
%TO.P,L1,2,2*%
%TO.N,Net-(C15-+)*%
X197785000Y-96320000D03*
D41*
%TO.P,L1,3,3*%
%TO.N,unconnected-(L1-Pad3)*%
X194180000Y-85680000D03*
%TD*%
D20*
%TO.P,C12,1,1*%
%TO.N,Net-(IC2-COMP)*%
X172700000Y-76150000D03*
%TO.P,C12,2,2*%
%TO.N,Net-(C12-Pad2)*%
X173800000Y-76150000D03*
%TD*%
D42*
%TO.N,Net-(IC2-COMP)*%
X172000000Y-76150000D03*
%TO.N,GND*%
X183500000Y-75500000D03*
X167000000Y-81000000D03*
X183500000Y-96000000D03*
X180000000Y-89500000D03*
X179000000Y-90500000D03*
X198000000Y-81500000D03*
X174000000Y-108000000D03*
%TO.N,Net-(IC2-HO)*%
X179000000Y-87000000D03*
X185000000Y-85500000D03*
%TO.N,Net-(IC2-VCC)*%
X178867582Y-89150000D03*
X173500000Y-93500000D03*
%TO.N,Net-(IC2-COMP)*%
X173941571Y-87600000D03*
%TO.N,Net-(IC2-FB)*%
X174065687Y-88434313D03*
X177950000Y-76120000D03*
D43*
%TO.N,Net-(C15-+)*%
X197785000Y-99715000D03*
X193200000Y-80700000D03*
%TO.N,Net-(C16-Pad1)*%
X169200000Y-87200000D03*
X174500000Y-83100000D03*
%TD*%
D44*
%TO.N,Net-(C15-+)*%
X197785000Y-99285000D02*
X197785000Y-102515000D01*
X197785000Y-102515000D02*
X197750000Y-102550000D01*
D45*
%TO.N,Net-(J4-Pin_2)*%
X187270000Y-107220000D02*
X187270000Y-108500000D01*
X186300000Y-106250000D02*
X187270000Y-107220000D01*
X183750000Y-106250000D02*
X186300000Y-106250000D01*
%TO.N,Net-(IC2-FB)*%
X177950000Y-76120000D02*
X176530000Y-76120000D01*
X176530000Y-76120000D02*
X176500000Y-76150000D01*
X176500000Y-76300000D02*
X175200000Y-77600000D01*
X176500000Y-76150000D02*
X176500000Y-76300000D01*
%TO.N,Net-(IC2-COMP)*%
X172700000Y-76150000D02*
X172700000Y-76200000D01*
X172700000Y-76200000D02*
X174100000Y-77600000D01*
%TO.N,Net-(C12-Pad2)*%
X173800000Y-76150000D02*
X175400000Y-76150000D01*
%TO.N,Net-(IC2-FB)*%
X179780000Y-76120000D02*
X179850000Y-76050000D01*
X177950000Y-76120000D02*
X179780000Y-76120000D01*
X178850000Y-78110000D02*
X178850000Y-78500000D01*
X179850000Y-77110000D02*
X178850000Y-78110000D01*
X179850000Y-76050000D02*
X179850000Y-77110000D01*
%TO.N,Net-(IC3-EN)*%
X177000000Y-99550000D02*
X175750000Y-100800000D01*
X173950000Y-101750000D02*
X175750000Y-101750000D01*
X173250000Y-102450000D02*
X173950000Y-101750000D01*
X177000000Y-98175000D02*
X177000000Y-99550000D01*
X175750000Y-100800000D02*
X175750000Y-101750000D01*
%TO.N,GND*%
X178150000Y-90250000D02*
X178750000Y-90250000D01*
X176500000Y-91300000D02*
X179000000Y-93800000D01*
X176250000Y-88750000D02*
X176500000Y-88500000D01*
X174850000Y-88750000D02*
X176250000Y-88750000D01*
X178750000Y-90250000D02*
X179000000Y-90500000D01*
X176500000Y-88500000D02*
X176500000Y-91300000D01*
X188540000Y-109460000D02*
X188540000Y-108500000D01*
X181000000Y-89000000D02*
X181000000Y-89660000D01*
X186000000Y-108500000D02*
X186000000Y-109750000D01*
X176750000Y-88750000D02*
X176500000Y-88500000D01*
X178150000Y-88750000D02*
X176750000Y-88750000D01*
%TO.N,Net-(IC3-CB)*%
X177550000Y-103400000D02*
X178250000Y-102700000D01*
X177550000Y-104250000D02*
X177550000Y-103400000D01*
%TO.N,Net-(IC3-SW)*%
X175750000Y-103550000D02*
X176450000Y-104250000D01*
X176450000Y-104700000D02*
X176650000Y-104900000D01*
X175750000Y-102700000D02*
X175750000Y-103550000D01*
X176650000Y-104900000D02*
X176650000Y-107000000D01*
X176450000Y-104250000D02*
X176450000Y-104700000D01*
%TO.N,Net-(IC3-FB)*%
X179900000Y-100800000D02*
X179950000Y-100750000D01*
X178250000Y-100800000D02*
X179900000Y-100800000D01*
X178250000Y-100800000D02*
X178250000Y-100050000D01*
X178250000Y-100050000D02*
X179250000Y-99050000D01*
%TO.N,Net-(IC2-SW)*%
X178150000Y-86720000D02*
X180260000Y-84610000D01*
X181975000Y-84745000D02*
X182110000Y-84610000D01*
X182110000Y-89115000D02*
X182325000Y-89330000D01*
X180260000Y-84610000D02*
X182057500Y-84610000D01*
X178150000Y-86750000D02*
X178150000Y-86720000D01*
X183325000Y-89330000D02*
X183585000Y-89330000D01*
X183500000Y-84700000D02*
X183410000Y-84610000D01*
%TO.N,Net-(IC2-HO)*%
X184887500Y-85500000D02*
X183997500Y-84610000D01*
X178150000Y-87250000D02*
X178750000Y-87250000D01*
X185000000Y-85500000D02*
X184887500Y-85500000D01*
X178750000Y-87250000D02*
X179000000Y-87000000D01*
%TO.N,Net-(IC2-LO)*%
X179666111Y-90300000D02*
X179116111Y-89750000D01*
X179116111Y-89750000D02*
X178150000Y-89750000D01*
X181000000Y-90300000D02*
X179666111Y-90300000D01*
%TO.N,Net-(IC2-VCC)*%
X172500000Y-92500000D02*
X173700000Y-92500000D01*
X178767582Y-89250000D02*
X178150000Y-89250000D01*
X178950000Y-89067582D02*
X178867582Y-89150000D01*
X178950000Y-88500000D02*
X178950000Y-89067582D01*
X171700000Y-90500000D02*
X171700000Y-91700000D01*
X178867582Y-89150000D02*
X178767582Y-89250000D01*
X173500000Y-92700000D02*
X173700000Y-92500000D01*
X171700000Y-91700000D02*
X172500000Y-92500000D01*
X173500000Y-93500000D02*
X173500000Y-92700000D01*
X173700000Y-92500000D02*
X173550000Y-92500000D01*
%TO.N,Net-(IC2-SYNCIN)*%
X173300000Y-90500000D02*
X174050000Y-89750000D01*
X174050000Y-89750000D02*
X174850000Y-89750000D01*
%TO.N,Net-(IC2-PGOOD)*%
X175750000Y-92050000D02*
X175300000Y-92500000D01*
X175750000Y-90650000D02*
X175750000Y-92050000D01*
%TO.N,Net-(IC2-BST)*%
X179775000Y-87750000D02*
X181025000Y-86500000D01*
X178150000Y-87750000D02*
X179775000Y-87750000D01*
%TO.N,Net-(IC2-ILIM)*%
X177250000Y-90650000D02*
X178800000Y-92200000D01*
X178800000Y-92200000D02*
X179000000Y-92200000D01*
X179000000Y-92200000D02*
X180300000Y-92200000D01*
X180300000Y-92200000D02*
X180500000Y-92000000D01*
%TO.N,Net-(C11-Pad1)*%
X177750000Y-78500000D02*
X177750000Y-80000000D01*
%TO.N,Net-(C21-Pad1)*%
X171550000Y-103550000D02*
X171000000Y-104100000D01*
X173250000Y-103550000D02*
X171550000Y-103550000D01*
%TO.N,Net-(IC2-EN{slash}UVLO)*%
X172450000Y-84500000D02*
X172450000Y-84725000D01*
X171450000Y-83500000D02*
X172450000Y-84500000D01*
X175500000Y-86100000D02*
X175750000Y-86350000D01*
X170750000Y-83500000D02*
X171450000Y-83500000D01*
X173825000Y-86100000D02*
X175500000Y-86100000D01*
X172450000Y-84725000D02*
X173825000Y-86100000D01*
%TO.N,Net-(IC2-SS{slash}TRK)*%
X173550000Y-87000000D02*
X174250000Y-87000000D01*
X174250000Y-87000000D02*
X174500000Y-87250000D01*
X174500000Y-87250000D02*
X174850000Y-87250000D01*
X173050000Y-87500000D02*
X173550000Y-87000000D01*
%TO.N,Net-(IC2-COMP)*%
X173941571Y-87600000D02*
X174091571Y-87750000D01*
X174091571Y-87750000D02*
X174850000Y-87750000D01*
%TO.N,Net-(IC2-FB)*%
X174850000Y-88250000D02*
X174250000Y-88250000D01*
X174250000Y-88250000D02*
X174065687Y-88434313D01*
X178850000Y-78500000D02*
X180200000Y-78500000D01*
X180200000Y-78500000D02*
X180417157Y-78717157D01*
%TO.N,Net-(C15-+)*%
X178850000Y-80000000D02*
X181300000Y-80000000D01*
X182300000Y-79000000D02*
X187800000Y-79000000D01*
D44*
X197785000Y-99715000D02*
X197785000Y-96320000D01*
D45*
X181300000Y-80000000D02*
X182300000Y-79000000D01*
D46*
X189500000Y-80700000D02*
X193200000Y-80700000D01*
D45*
X187800000Y-79000000D02*
X189500000Y-80700000D01*
%TO.N,Net-(C16-Pad1)*%
X170560000Y-95560000D02*
X170370000Y-95750000D01*
X170370000Y-95750000D02*
X169720000Y-95750000D01*
D46*
X169200000Y-90770000D02*
X169200000Y-87200000D01*
D45*
X170000000Y-98000000D02*
X169470000Y-97470000D01*
X170000000Y-99000000D02*
X169880000Y-99120000D01*
X173550000Y-84050000D02*
X173550000Y-84500000D01*
X169470000Y-91000000D02*
X169500000Y-91000000D01*
X169470000Y-87640000D02*
X169330000Y-87500000D01*
X169720000Y-95750000D02*
X169470000Y-95500000D01*
X169470000Y-95500000D02*
X169470000Y-91000000D01*
D47*
X174500000Y-83100000D02*
X174500000Y-84200000D01*
D45*
X169470000Y-97470000D02*
X169470000Y-95500000D01*
X170000000Y-98000000D02*
X170000000Y-99000000D01*
D47*
X174500000Y-84200000D02*
X174530000Y-84230000D01*
D45*
%TO.N,Net-(J4-Pin_2)*%
X181050000Y-100750000D02*
X181050000Y-102900000D01*
X180950000Y-103000000D02*
X180950000Y-105450000D01*
X181750000Y-106250000D02*
X183750000Y-106250000D01*
X180950000Y-105450000D02*
X181750000Y-106250000D01*
X181000000Y-107000000D02*
X181750000Y-106250000D01*
X178850000Y-107000000D02*
X181000000Y-107000000D01*
X181050000Y-102900000D02*
X180950000Y-103000000D01*
D46*
%TO.N,Net-(F1-Pad1)*%
X166530000Y-94555000D02*
X166530000Y-91000000D01*
D44*
X166530000Y-95495000D02*
X166500000Y-95525000D01*
X166530000Y-94555000D02*
X166530000Y-95495000D01*
D45*
X166500000Y-91030000D02*
X166530000Y-91000000D01*
%TO.N,Net-(IC3-EN)*%
X176875000Y-98050000D02*
X177000000Y-98175000D01*
%TO.N,GND*%
X186000000Y-109750000D02*
X186250000Y-110000000D01*
X188000000Y-110000000D02*
X188540000Y-109460000D01*
X186250000Y-110000000D02*
X188000000Y-110000000D01*
%TO.N,Net-(IC3-EN)*%
X173450000Y-98050000D02*
X173000000Y-98500000D01*
X174750000Y-98050000D02*
X173450000Y-98050000D01*
X174750000Y-98050000D02*
X176875000Y-98050000D01*
%TO.N,Net-(IC2-RT)*%
X173050000Y-86500000D02*
X174600000Y-86500000D01*
X172550000Y-86000000D02*
X173050000Y-86500000D01*
X172050000Y-86000000D02*
X172550000Y-86000000D01*
X174600000Y-86500000D02*
X174850000Y-86750000D01*
%TO.N,Net-(IC2-COMP)*%
X172000000Y-76150000D02*
X172700000Y-76150000D01*
%TO.N,Net-(J4-Pin_2)*%
X184730000Y-107230000D02*
X183750000Y-106250000D01*
X184730000Y-108500000D02*
X184730000Y-107230000D01*
%TD*%
%TA.AperFunction,Conductor*%
%TO.N,GND*%
G36*
X186197203Y-106572174D02*
G01*
X186947826Y-107322797D01*
X186969500Y-107375123D01*
X186969500Y-107818749D01*
X186947826Y-107871075D01*
X186936613Y-107880278D01*
X186823458Y-107955886D01*
X186725881Y-108053463D01*
X186696227Y-108097844D01*
X186649135Y-108129309D01*
X186593586Y-108118259D01*
X186573170Y-108097843D01*
X186543726Y-108053776D01*
X186446223Y-107956273D01*
X186331573Y-107879667D01*
X186204184Y-107826901D01*
X186204177Y-107826899D01*
X186100000Y-107806177D01*
X186100000Y-108190330D01*
X186042787Y-108175000D01*
X185957213Y-108175000D01*
X185900000Y-108190330D01*
X185900000Y-107806177D01*
X185795822Y-107826899D01*
X185795815Y-107826901D01*
X185668426Y-107879667D01*
X185553776Y-107956273D01*
X185553775Y-107956275D01*
X185456275Y-108053775D01*
X185456271Y-108053778D01*
X185426828Y-108097844D01*
X185379736Y-108129309D01*
X185324187Y-108118259D01*
X185303771Y-108097843D01*
X185274116Y-108053461D01*
X185274114Y-108053458D01*
X185176542Y-107955886D01*
X185063387Y-107880278D01*
X185031922Y-107833185D01*
X185030500Y-107818749D01*
X185030500Y-107190436D01*
X185030499Y-107190435D01*
X185010022Y-107114014D01*
X185010020Y-107114009D01*
X184994790Y-107087630D01*
X184970460Y-107045489D01*
X184914511Y-106989540D01*
X184601797Y-106676826D01*
X184580123Y-106624500D01*
X184601797Y-106572174D01*
X184654123Y-106550500D01*
X186144877Y-106550500D01*
X186197203Y-106572174D01*
G37*
%TD.AperFunction*%
%TA.AperFunction,Conductor*%
G36*
X179013314Y-90072174D02*
G01*
X179425651Y-90484511D01*
X179481600Y-90540460D01*
X179550122Y-90580021D01*
X179550123Y-90580021D01*
X179550125Y-90580022D01*
X179571133Y-90585651D01*
X179626546Y-90600499D01*
X179626547Y-90600500D01*
X179626549Y-90600500D01*
X180494522Y-90600500D01*
X180546848Y-90622174D01*
X180620421Y-90695747D01*
X180724455Y-90744259D01*
X180771861Y-90750500D01*
X181228138Y-90750499D01*
X181275545Y-90744259D01*
X181379579Y-90695747D01*
X181379579Y-90695746D01*
X181385446Y-90693011D01*
X181386360Y-90694972D01*
X181433347Y-90684555D01*
X181481116Y-90714984D01*
X181494500Y-90757431D01*
X181494500Y-91220500D01*
X181472826Y-91272826D01*
X181420500Y-91294500D01*
X181373999Y-91294500D01*
X181330315Y-91299197D01*
X181278784Y-91310407D01*
X181268629Y-91312888D01*
X181268627Y-91312889D01*
X181187916Y-91355899D01*
X181187912Y-91355901D01*
X181135115Y-91401651D01*
X181117155Y-91419248D01*
X181074243Y-91495964D01*
X181029782Y-91531050D01*
X180973534Y-91524421D01*
X180968548Y-91521367D01*
X180953232Y-91511133D01*
X180953233Y-91511133D01*
X180923989Y-91505316D01*
X180894748Y-91499500D01*
X180105252Y-91499500D01*
X180076010Y-91505316D01*
X180046767Y-91511133D01*
X179980449Y-91555447D01*
X179980447Y-91555449D01*
X179936133Y-91621767D01*
X179924500Y-91680253D01*
X179924500Y-91825500D01*
X179902826Y-91877826D01*
X179850500Y-91899500D01*
X179728083Y-91899500D01*
X179675757Y-91877826D01*
X179659716Y-91853818D01*
X179658867Y-91851769D01*
X179640646Y-91824500D01*
X179614552Y-91785448D01*
X179592343Y-91770608D01*
X179548232Y-91741133D01*
X179548233Y-91741133D01*
X179518989Y-91735316D01*
X179489748Y-91729500D01*
X179489746Y-91729500D01*
X178785123Y-91729500D01*
X178732797Y-91707826D01*
X177715274Y-90690303D01*
X177693600Y-90637977D01*
X177715274Y-90585651D01*
X177767600Y-90563977D01*
X177782037Y-90565399D01*
X177830304Y-90575000D01*
X178050000Y-90575000D01*
X178250000Y-90575000D01*
X178469697Y-90575000D01*
X178528035Y-90563396D01*
X178594191Y-90519192D01*
X178594192Y-90519191D01*
X178638396Y-90453035D01*
X178650000Y-90394697D01*
X178650000Y-90350000D01*
X178250000Y-90350000D01*
X178250000Y-90575000D01*
X178050000Y-90575000D01*
X178050000Y-90324000D01*
X178071674Y-90271674D01*
X178124000Y-90250000D01*
X178150000Y-90250000D01*
X178150000Y-90224000D01*
X178171674Y-90171674D01*
X178224000Y-90150000D01*
X178650000Y-90150000D01*
X178650000Y-90124500D01*
X178671674Y-90072174D01*
X178724000Y-90050500D01*
X178960988Y-90050500D01*
X179013314Y-90072174D01*
G37*
%TD.AperFunction*%
%TA.AperFunction,Conductor*%
G36*
X181482028Y-86975098D02*
G01*
X181494500Y-87016212D01*
X181494500Y-87903187D01*
X181472826Y-87955513D01*
X181420500Y-87977187D01*
X181385708Y-87966218D01*
X181385156Y-87967404D01*
X181275414Y-87916231D01*
X181275412Y-87916230D01*
X181228083Y-87910000D01*
X181100000Y-87910000D01*
X181100000Y-89586000D01*
X181078326Y-89638326D01*
X181026000Y-89660000D01*
X181000000Y-89660000D01*
X181000000Y-89686000D01*
X180978326Y-89738326D01*
X180926000Y-89760000D01*
X180485001Y-89760000D01*
X180485001Y-89823083D01*
X180491230Y-89870412D01*
X180491231Y-89870414D01*
X180502335Y-89894226D01*
X180504805Y-89950809D01*
X180466542Y-89992567D01*
X180435268Y-89999500D01*
X179821234Y-89999500D01*
X179768908Y-89977826D01*
X179301027Y-89509945D01*
X179295630Y-89496916D01*
X180485000Y-89496916D01*
X180485000Y-89560000D01*
X180900000Y-89560000D01*
X180900000Y-89100000D01*
X180485001Y-89100000D01*
X180485001Y-89163083D01*
X180491230Y-89210412D01*
X180491232Y-89210417D01*
X180532411Y-89298727D01*
X180534881Y-89355310D01*
X180532411Y-89361273D01*
X180491231Y-89449585D01*
X180491230Y-89449587D01*
X180485000Y-89496916D01*
X179295630Y-89496916D01*
X179279353Y-89457619D01*
X179289268Y-89420618D01*
X179333974Y-89343186D01*
X179368081Y-89215894D01*
X179368082Y-89215894D01*
X179368082Y-89084106D01*
X179368081Y-89084105D01*
X179358076Y-89046767D01*
X179333974Y-88956814D01*
X179333798Y-88956157D01*
X179341190Y-88900004D01*
X179343731Y-88895916D01*
X179348867Y-88888231D01*
X179360500Y-88829748D01*
X179360500Y-88829697D01*
X179640000Y-88829697D01*
X179651603Y-88888035D01*
X179695807Y-88954191D01*
X179695808Y-88954192D01*
X179761964Y-88998396D01*
X179820303Y-89010000D01*
X179950000Y-89010000D01*
X179950000Y-88600000D01*
X179640000Y-88600000D01*
X179640000Y-88829697D01*
X179360500Y-88829697D01*
X179360500Y-88170252D01*
X179354271Y-88138936D01*
X179355749Y-88131502D01*
X179352849Y-88124500D01*
X179361109Y-88104556D01*
X179365321Y-88083387D01*
X179371622Y-88079176D01*
X179374523Y-88072174D01*
X179394466Y-88063913D01*
X179412413Y-88051922D01*
X179426849Y-88050500D01*
X179573661Y-88050500D01*
X179625987Y-88072174D01*
X179647661Y-88124500D01*
X179646239Y-88138936D01*
X179640000Y-88170302D01*
X179640000Y-88400000D01*
X179976000Y-88400000D01*
X180028326Y-88421674D01*
X180050000Y-88474000D01*
X180050000Y-88500000D01*
X180076000Y-88500000D01*
X180128326Y-88521674D01*
X180150000Y-88574000D01*
X180150000Y-89010000D01*
X180279697Y-89010000D01*
X180338035Y-88998396D01*
X180404190Y-88954193D01*
X180404192Y-88954191D01*
X180405000Y-88952981D01*
X180405138Y-88952528D01*
X180406026Y-88951445D01*
X180411093Y-88943858D01*
X180411841Y-88944357D01*
X180441062Y-88908742D01*
X180475954Y-88900000D01*
X180900000Y-88900000D01*
X180900000Y-87910000D01*
X180771916Y-87910000D01*
X180724587Y-87916230D01*
X180724584Y-87916231D01*
X180620711Y-87964668D01*
X180539668Y-88045711D01*
X180539663Y-88045718D01*
X180539510Y-88046048D01*
X180539294Y-88046245D01*
X180535955Y-88051015D01*
X180534896Y-88050274D01*
X180497747Y-88084305D01*
X180441164Y-88081826D01*
X180410919Y-88055875D01*
X180404194Y-88045810D01*
X180404191Y-88045807D01*
X180338035Y-88001603D01*
X180279697Y-87990000D01*
X180138623Y-87990000D01*
X180086297Y-87968326D01*
X180064623Y-87916000D01*
X180086297Y-87863674D01*
X180927797Y-87022174D01*
X180980123Y-87000500D01*
X181269746Y-87000500D01*
X181269748Y-87000500D01*
X181328231Y-86988867D01*
X181379389Y-86954683D01*
X181434934Y-86943633D01*
X181482028Y-86975098D01*
G37*
%TD.AperFunction*%
%TA.AperFunction,Conductor*%
G36*
X201827826Y-74522174D02*
G01*
X201849500Y-74574500D01*
X201849500Y-110925500D01*
X201827826Y-110977826D01*
X201775500Y-110999500D01*
X164574500Y-110999500D01*
X164522174Y-110977826D01*
X164500500Y-110925500D01*
X164500500Y-107889776D01*
X166599500Y-107889776D01*
X166599500Y-108110223D01*
X166633984Y-108327948D01*
X166633987Y-108327961D01*
X166702103Y-108537602D01*
X166702104Y-108537605D01*
X166702105Y-108537606D01*
X166793122Y-108716236D01*
X166802186Y-108734023D01*
X166802186Y-108734024D01*
X166827737Y-108769192D01*
X166931758Y-108912365D01*
X167087635Y-109068242D01*
X167192172Y-109144192D01*
X167260480Y-109193821D01*
X167265978Y-109197815D01*
X167462394Y-109297895D01*
X167462397Y-109297896D01*
X167462396Y-109297896D01*
X167672038Y-109366012D01*
X167672044Y-109366013D01*
X167672049Y-109366015D01*
X167780913Y-109383257D01*
X167889776Y-109400500D01*
X167889778Y-109400500D01*
X168110224Y-109400500D01*
X168197313Y-109386706D01*
X168327951Y-109366015D01*
X168327958Y-109366012D01*
X168327961Y-109366012D01*
X168423133Y-109335088D01*
X168537606Y-109297895D01*
X168734022Y-109197815D01*
X168912365Y-109068242D01*
X169068242Y-108912365D01*
X169197815Y-108734022D01*
X169297895Y-108537606D01*
X169366015Y-108327951D01*
X169400500Y-108110222D01*
X169400500Y-107889778D01*
X169398995Y-107880278D01*
X169366015Y-107672051D01*
X169366012Y-107672038D01*
X169297896Y-107462397D01*
X169297895Y-107462396D01*
X169297895Y-107462394D01*
X169197815Y-107265978D01*
X169068242Y-107087635D01*
X168912365Y-106931758D01*
X168792603Y-106844746D01*
X168734024Y-106802186D01*
X168537602Y-106702103D01*
X168537603Y-106702103D01*
X168327961Y-106633987D01*
X168327948Y-106633984D01*
X168110224Y-106599500D01*
X168110222Y-106599500D01*
X167889778Y-106599500D01*
X167889776Y-106599500D01*
X167672051Y-106633984D01*
X167672038Y-106633987D01*
X167462397Y-106702103D01*
X167265976Y-106802186D01*
X167265975Y-106802186D01*
X167087639Y-106931755D01*
X167087635Y-106931758D01*
X166931758Y-107087635D01*
X166931755Y-107087638D01*
X166931755Y-107087639D01*
X166802186Y-107265975D01*
X166802186Y-107265976D01*
X166702103Y-107462397D01*
X166633987Y-107672038D01*
X166633984Y-107672051D01*
X166599500Y-107889776D01*
X164500500Y-107889776D01*
X164500500Y-103675253D01*
X169389500Y-103675253D01*
X169389500Y-104524746D01*
X169401133Y-104583232D01*
X169430608Y-104627343D01*
X169445448Y-104649552D01*
X169460501Y-104659610D01*
X169511767Y-104693866D01*
X169511768Y-104693866D01*
X169511769Y-104693867D01*
X169570252Y-104705500D01*
X169570254Y-104705500D01*
X172429746Y-104705500D01*
X172429748Y-104705500D01*
X172488231Y-104693867D01*
X172554552Y-104649552D01*
X172598867Y-104583231D01*
X172610500Y-104524748D01*
X172610500Y-103997280D01*
X172632174Y-103944954D01*
X172684500Y-103923280D01*
X172736826Y-103944954D01*
X172757078Y-103982844D01*
X172761133Y-104003232D01*
X172790608Y-104047343D01*
X172805448Y-104069552D01*
X172849560Y-104099027D01*
X172871767Y-104113866D01*
X172871768Y-104113866D01*
X172871769Y-104113867D01*
X172930252Y-104125500D01*
X172930254Y-104125500D01*
X173569746Y-104125500D01*
X173569748Y-104125500D01*
X173628231Y-104113867D01*
X173694552Y-104069552D01*
X173738867Y-104003231D01*
X173750500Y-103944748D01*
X173750500Y-103155252D01*
X173738867Y-103096769D01*
X173737178Y-103094242D01*
X173701678Y-103041113D01*
X173690628Y-102985565D01*
X173701678Y-102958887D01*
X173738867Y-102903231D01*
X173750500Y-102844748D01*
X173750500Y-102405123D01*
X173772174Y-102352797D01*
X174052797Y-102072174D01*
X174105123Y-102050500D01*
X174884941Y-102050500D01*
X174937267Y-102072174D01*
X174950704Y-102090570D01*
X174955484Y-102099836D01*
X174961133Y-102128231D01*
X175000640Y-102187356D01*
X175002556Y-102191070D01*
X175004598Y-102215446D01*
X175009371Y-102239436D01*
X175007074Y-102244981D01*
X175007286Y-102247509D01*
X175004817Y-102250429D01*
X174998321Y-102266113D01*
X174961133Y-102321766D01*
X174959250Y-102331233D01*
X174949500Y-102380252D01*
X174949500Y-103019748D01*
X174953750Y-103041113D01*
X174961133Y-103078232D01*
X174983934Y-103112355D01*
X175005448Y-103144552D01*
X175027879Y-103159540D01*
X175071767Y-103188866D01*
X175071768Y-103188866D01*
X175071769Y-103188867D01*
X175130252Y-103200500D01*
X175375500Y-103200500D01*
X175427826Y-103222174D01*
X175449500Y-103274500D01*
X175449500Y-103589564D01*
X175469977Y-103665985D01*
X175469979Y-103665990D01*
X175489904Y-103700500D01*
X175509540Y-103734511D01*
X176017826Y-104242797D01*
X176039500Y-104295123D01*
X176039500Y-104579746D01*
X176051133Y-104638232D01*
X176065418Y-104659610D01*
X176095448Y-104704552D01*
X176111821Y-104715492D01*
X176126704Y-104725437D01*
X176153913Y-104758538D01*
X176155799Y-104763072D01*
X176169979Y-104815989D01*
X176195642Y-104860438D01*
X176198036Y-104864584D01*
X176198037Y-104864587D01*
X176209540Y-104884511D01*
X176327826Y-105002797D01*
X176349500Y-105055123D01*
X176349500Y-105125500D01*
X176327826Y-105177826D01*
X176275500Y-105199500D01*
X175755252Y-105199500D01*
X175726010Y-105205316D01*
X175696767Y-105211133D01*
X175630449Y-105255447D01*
X175630447Y-105255449D01*
X175586133Y-105321767D01*
X175586133Y-105321769D01*
X175574500Y-105380252D01*
X175574500Y-108619748D01*
X175579463Y-108644697D01*
X175586133Y-108678232D01*
X175615608Y-108722343D01*
X175630448Y-108744552D01*
X175653663Y-108760064D01*
X175696767Y-108788866D01*
X175696768Y-108788866D01*
X175696769Y-108788867D01*
X175755252Y-108800500D01*
X175755254Y-108800500D01*
X177544746Y-108800500D01*
X177544748Y-108800500D01*
X177603231Y-108788867D01*
X177669552Y-108744552D01*
X177688472Y-108716235D01*
X177735564Y-108684771D01*
X177791113Y-108695821D01*
X177811526Y-108716234D01*
X177830448Y-108744552D01*
X177853663Y-108760064D01*
X177896767Y-108788866D01*
X177896768Y-108788866D01*
X177896769Y-108788867D01*
X177955252Y-108800500D01*
X177955254Y-108800500D01*
X179744746Y-108800500D01*
X179744748Y-108800500D01*
X179803231Y-108788867D01*
X179869552Y-108744552D01*
X179913867Y-108678231D01*
X179920537Y-108644697D01*
X180825000Y-108644697D01*
X180836603Y-108703035D01*
X180880807Y-108769191D01*
X180880808Y-108769192D01*
X180946964Y-108813396D01*
X181005303Y-108825000D01*
X181650000Y-108825000D01*
X181850000Y-108825000D01*
X182494697Y-108825000D01*
X182553035Y-108813396D01*
X182619191Y-108769192D01*
X182619192Y-108769191D01*
X182663396Y-108703035D01*
X182675000Y-108644697D01*
X182675000Y-108150000D01*
X181850000Y-108150000D01*
X181850000Y-108825000D01*
X181650000Y-108825000D01*
X181650000Y-108150000D01*
X180825000Y-108150000D01*
X180825000Y-108644697D01*
X179920537Y-108644697D01*
X179925500Y-108619748D01*
X179925500Y-107374500D01*
X179947174Y-107322174D01*
X179999500Y-107300500D01*
X180765812Y-107300500D01*
X180818138Y-107322174D01*
X180839812Y-107374500D01*
X180836814Y-107389574D01*
X180838026Y-107389815D01*
X180825000Y-107455302D01*
X180825000Y-107950000D01*
X181650000Y-107950000D01*
X181850000Y-107950000D01*
X182675000Y-107950000D01*
X182675000Y-107455302D01*
X182663396Y-107396964D01*
X182619192Y-107330808D01*
X182619191Y-107330807D01*
X182553035Y-107286603D01*
X182494697Y-107275000D01*
X181850000Y-107275000D01*
X181850000Y-107950000D01*
X181650000Y-107950000D01*
X181650000Y-107275000D01*
X181328623Y-107275000D01*
X181276297Y-107253326D01*
X181254623Y-107201000D01*
X181276297Y-107148674D01*
X181377797Y-107047174D01*
X181430123Y-107025500D01*
X182494746Y-107025500D01*
X182494748Y-107025500D01*
X182553231Y-107013867D01*
X182619552Y-106969552D01*
X182663867Y-106903231D01*
X182675500Y-106844748D01*
X182675500Y-106624500D01*
X182697174Y-106572174D01*
X182749500Y-106550500D01*
X183594877Y-106550500D01*
X183647203Y-106572174D01*
X184407826Y-107332797D01*
X184429500Y-107385123D01*
X184429500Y-107818749D01*
X184407826Y-107871075D01*
X184396613Y-107880278D01*
X184283458Y-107955886D01*
X184185883Y-108053461D01*
X184109223Y-108168191D01*
X184056421Y-108295667D01*
X184056418Y-108295677D01*
X184029500Y-108431008D01*
X184029500Y-108568991D01*
X184056418Y-108704322D01*
X184056421Y-108704332D01*
X184109223Y-108831808D01*
X184163049Y-108912365D01*
X184185886Y-108946542D01*
X184283458Y-109044114D01*
X184398189Y-109120775D01*
X184525672Y-109173580D01*
X184661007Y-109200500D01*
X184661009Y-109200500D01*
X184798991Y-109200500D01*
X184798993Y-109200500D01*
X184934328Y-109173580D01*
X185061811Y-109120775D01*
X185176542Y-109044114D01*
X185274114Y-108946542D01*
X185303772Y-108902154D01*
X185350863Y-108870690D01*
X185406412Y-108881739D01*
X185426829Y-108902156D01*
X185456273Y-108946223D01*
X185553776Y-109043726D01*
X185668426Y-109120332D01*
X185795813Y-109173097D01*
X185795823Y-109173100D01*
X185899999Y-109193821D01*
X185900000Y-109193821D01*
X185900000Y-108809669D01*
X185957213Y-108825000D01*
X186042787Y-108825000D01*
X186100000Y-108809669D01*
X186100000Y-109193821D01*
X186204176Y-109173100D01*
X186204186Y-109173097D01*
X186331573Y-109120332D01*
X186446223Y-109043726D01*
X186446225Y-109043725D01*
X186543725Y-108946225D01*
X186543729Y-108946219D01*
X186573170Y-108902157D01*
X186620261Y-108870690D01*
X186675810Y-108881739D01*
X186696228Y-108902156D01*
X186703049Y-108912365D01*
X186725886Y-108946542D01*
X186823458Y-109044114D01*
X186938189Y-109120775D01*
X187065672Y-109173580D01*
X187201007Y-109200500D01*
X187201009Y-109200500D01*
X187338991Y-109200500D01*
X187338993Y-109200500D01*
X187474328Y-109173580D01*
X187601811Y-109120775D01*
X187716542Y-109044114D01*
X187725673Y-109034982D01*
X187777995Y-109013308D01*
X187830322Y-109034980D01*
X187850575Y-109072867D01*
X187851603Y-109078034D01*
X187895807Y-109144191D01*
X187895808Y-109144192D01*
X187961964Y-109188396D01*
X188020303Y-109200000D01*
X188440000Y-109200000D01*
X188440000Y-108809669D01*
X188497213Y-108825000D01*
X188582787Y-108825000D01*
X188640000Y-108809669D01*
X188640000Y-109200000D01*
X189059697Y-109200000D01*
X189118035Y-109188396D01*
X189184191Y-109144192D01*
X189184192Y-109144191D01*
X189228396Y-109078035D01*
X189240000Y-109019697D01*
X189240000Y-108600000D01*
X188849669Y-108600000D01*
X188865000Y-108542787D01*
X188865000Y-108457213D01*
X188849669Y-108400000D01*
X189240000Y-108400000D01*
X189240000Y-107980302D01*
X189228395Y-107921963D01*
X189228396Y-107921963D01*
X189206889Y-107889776D01*
X196949500Y-107889776D01*
X196949500Y-108110223D01*
X196983984Y-108327948D01*
X196983987Y-108327961D01*
X197052103Y-108537602D01*
X197052104Y-108537605D01*
X197052105Y-108537606D01*
X197143122Y-108716236D01*
X197152186Y-108734023D01*
X197152186Y-108734024D01*
X197177737Y-108769192D01*
X197281758Y-108912365D01*
X197437635Y-109068242D01*
X197542172Y-109144192D01*
X197610480Y-109193821D01*
X197615978Y-109197815D01*
X197812394Y-109297895D01*
X197812397Y-109297896D01*
X197812396Y-109297896D01*
X198022038Y-109366012D01*
X198022044Y-109366013D01*
X198022049Y-109366015D01*
X198130913Y-109383257D01*
X198239776Y-109400500D01*
X198239778Y-109400500D01*
X198460224Y-109400500D01*
X198547313Y-109386706D01*
X198677951Y-109366015D01*
X198677958Y-109366012D01*
X198677961Y-109366012D01*
X198773133Y-109335088D01*
X198887606Y-109297895D01*
X199084022Y-109197815D01*
X199262365Y-109068242D01*
X199418242Y-108912365D01*
X199547815Y-108734022D01*
X199647895Y-108537606D01*
X199716015Y-108327951D01*
X199750500Y-108110222D01*
X199750500Y-107889778D01*
X199748995Y-107880278D01*
X199716015Y-107672051D01*
X199716012Y-107672038D01*
X199647896Y-107462397D01*
X199647895Y-107462396D01*
X199647895Y-107462394D01*
X199547815Y-107265978D01*
X199418242Y-107087635D01*
X199262365Y-106931758D01*
X199142603Y-106844746D01*
X199084024Y-106802186D01*
X198887602Y-106702103D01*
X198887603Y-106702103D01*
X198677961Y-106633987D01*
X198677948Y-106633984D01*
X198460224Y-106599500D01*
X198460222Y-106599500D01*
X198239778Y-106599500D01*
X198239776Y-106599500D01*
X198022051Y-106633984D01*
X198022038Y-106633987D01*
X197812397Y-106702103D01*
X197615976Y-106802186D01*
X197615975Y-106802186D01*
X197437639Y-106931755D01*
X197437635Y-106931758D01*
X197281758Y-107087635D01*
X197281755Y-107087638D01*
X197281755Y-107087639D01*
X197152186Y-107265975D01*
X197152186Y-107265976D01*
X197052103Y-107462397D01*
X196983987Y-107672038D01*
X196983984Y-107672051D01*
X196949500Y-107889776D01*
X189206889Y-107889776D01*
X189184192Y-107855808D01*
X189184191Y-107855807D01*
X189118035Y-107811603D01*
X189059697Y-107800000D01*
X188640000Y-107800000D01*
X188640000Y-108190330D01*
X188582787Y-108175000D01*
X188497213Y-108175000D01*
X188440000Y-108190330D01*
X188440000Y-107800000D01*
X188020303Y-107800000D01*
X187961964Y-107811603D01*
X187895808Y-107855807D01*
X187895807Y-107855808D01*
X187851603Y-107921965D01*
X187850575Y-107927133D01*
X187819105Y-107974223D01*
X187763556Y-107985268D01*
X187725674Y-107965018D01*
X187716542Y-107955886D01*
X187603387Y-107880278D01*
X187571922Y-107833185D01*
X187570500Y-107818749D01*
X187570500Y-107180436D01*
X187570499Y-107180435D01*
X187550022Y-107104014D01*
X187550020Y-107104009D01*
X187510459Y-107035488D01*
X186484511Y-106009540D01*
X186415990Y-105969979D01*
X186415985Y-105969977D01*
X186339564Y-105949500D01*
X186339562Y-105949500D01*
X183789562Y-105949500D01*
X182749500Y-105949500D01*
X182697174Y-105927826D01*
X182675500Y-105875500D01*
X182675500Y-105655253D01*
X182671374Y-105634511D01*
X182663867Y-105596769D01*
X182619552Y-105530448D01*
X182597343Y-105515608D01*
X182553232Y-105486133D01*
X182553233Y-105486133D01*
X182523989Y-105480316D01*
X182494748Y-105474500D01*
X182494746Y-105474500D01*
X181430123Y-105474500D01*
X181377797Y-105452826D01*
X181272174Y-105347203D01*
X181250500Y-105294877D01*
X181250500Y-103999500D01*
X181272174Y-103947174D01*
X181324500Y-103925500D01*
X181544746Y-103925500D01*
X181544748Y-103925500D01*
X181603231Y-103913867D01*
X181669552Y-103869552D01*
X181713867Y-103803231D01*
X181725500Y-103744748D01*
X181725500Y-103744697D01*
X181975000Y-103744697D01*
X181986603Y-103803035D01*
X182030807Y-103869191D01*
X182030808Y-103869192D01*
X182096964Y-103913396D01*
X182155303Y-103925000D01*
X182650000Y-103925000D01*
X182850000Y-103925000D01*
X183344697Y-103925000D01*
X183403035Y-103913396D01*
X183469191Y-103869192D01*
X183469192Y-103869191D01*
X183513396Y-103803035D01*
X183525000Y-103744697D01*
X183525000Y-103100000D01*
X182850000Y-103100000D01*
X182850000Y-103925000D01*
X182650000Y-103925000D01*
X182650000Y-103100000D01*
X181975000Y-103100000D01*
X181975000Y-103744697D01*
X181725500Y-103744697D01*
X181725500Y-102255302D01*
X181975000Y-102255302D01*
X181975000Y-102900000D01*
X182650000Y-102900000D01*
X182850000Y-102900000D01*
X183525000Y-102900000D01*
X183525000Y-102443751D01*
X191400000Y-102443751D01*
X191400000Y-102656248D01*
X191433241Y-102866123D01*
X191433244Y-102866136D01*
X191498904Y-103068217D01*
X191498906Y-103068221D01*
X191595375Y-103257550D01*
X191595378Y-103257556D01*
X191720274Y-103429461D01*
X191720283Y-103429471D01*
X191724695Y-103433883D01*
X192152634Y-103005943D01*
X192167437Y-103028097D01*
X192271903Y-103132563D01*
X192294055Y-103147364D01*
X191866116Y-103575304D01*
X191870529Y-103579717D01*
X191870538Y-103579725D01*
X192042443Y-103704621D01*
X192042449Y-103704624D01*
X192231778Y-103801093D01*
X192231782Y-103801095D01*
X192433863Y-103866755D01*
X192433876Y-103866758D01*
X192643751Y-103900000D01*
X192856249Y-103900000D01*
X193066123Y-103866758D01*
X193066136Y-103866755D01*
X193268217Y-103801095D01*
X193268221Y-103801093D01*
X193457550Y-103704624D01*
X193457556Y-103704621D01*
X193629465Y-103579722D01*
X193629474Y-103579714D01*
X193633883Y-103575305D01*
X193633882Y-103575303D01*
X193205944Y-103147365D01*
X193228097Y-103132563D01*
X193332563Y-103028097D01*
X193347365Y-103005944D01*
X193775303Y-103433882D01*
X193775305Y-103433883D01*
X193779714Y-103429474D01*
X193779722Y-103429465D01*
X193904621Y-103257556D01*
X193904624Y-103257550D01*
X194001093Y-103068221D01*
X194001095Y-103068217D01*
X194066755Y-102866136D01*
X194066758Y-102866123D01*
X194100000Y-102656248D01*
X194100000Y-102443751D01*
X194066758Y-102233876D01*
X194066755Y-102233863D01*
X194001095Y-102031782D01*
X194001093Y-102031778D01*
X193904624Y-101842449D01*
X193904621Y-101842443D01*
X193779725Y-101670538D01*
X193779717Y-101670529D01*
X193775304Y-101666116D01*
X193347364Y-102094055D01*
X193332563Y-102071903D01*
X193228097Y-101967437D01*
X193205943Y-101952634D01*
X193633883Y-101524695D01*
X193629471Y-101520283D01*
X193629461Y-101520274D01*
X193457556Y-101395378D01*
X193457550Y-101395375D01*
X193268221Y-101298906D01*
X193268217Y-101298904D01*
X193066136Y-101233244D01*
X193066123Y-101233241D01*
X192856249Y-101200000D01*
X192643751Y-101200000D01*
X192433876Y-101233241D01*
X192433863Y-101233244D01*
X192231782Y-101298904D01*
X192231778Y-101298906D01*
X192042449Y-101395375D01*
X192042442Y-101395379D01*
X191870541Y-101520271D01*
X191870532Y-101520279D01*
X191866116Y-101524694D01*
X192294056Y-101952634D01*
X192271903Y-101967437D01*
X192167437Y-102071903D01*
X192152634Y-102094056D01*
X191724694Y-101666116D01*
X191720279Y-101670532D01*
X191720271Y-101670541D01*
X191595379Y-101842442D01*
X191595375Y-101842449D01*
X191498906Y-102031778D01*
X191498904Y-102031782D01*
X191433244Y-102233863D01*
X191433241Y-102233876D01*
X191400000Y-102443751D01*
X183525000Y-102443751D01*
X183525000Y-102255302D01*
X183513396Y-102196964D01*
X183469192Y-102130808D01*
X183469191Y-102130807D01*
X183403035Y-102086603D01*
X183344697Y-102075000D01*
X182850000Y-102075000D01*
X182850000Y-102900000D01*
X182650000Y-102900000D01*
X182650000Y-102075000D01*
X182155303Y-102075000D01*
X182096964Y-102086603D01*
X182030808Y-102130807D01*
X182030807Y-102130808D01*
X181986603Y-102196964D01*
X181975000Y-102255302D01*
X181725500Y-102255302D01*
X181725500Y-102255252D01*
X181713867Y-102196769D01*
X181705259Y-102183887D01*
X181699027Y-102174560D01*
X181669552Y-102130448D01*
X181647343Y-102115608D01*
X181603232Y-102086133D01*
X181603233Y-102086133D01*
X181573989Y-102080316D01*
X181544748Y-102074500D01*
X181544746Y-102074500D01*
X181424500Y-102074500D01*
X181372174Y-102052826D01*
X181350500Y-102000500D01*
X181350500Y-101324500D01*
X181372174Y-101272174D01*
X181424500Y-101250500D01*
X181444746Y-101250500D01*
X181444748Y-101250500D01*
X181503231Y-101238867D01*
X181569552Y-101194552D01*
X181613867Y-101128231D01*
X181625500Y-101069748D01*
X181625500Y-100430252D01*
X181613867Y-100371769D01*
X181602961Y-100355448D01*
X181599027Y-100349560D01*
X181569552Y-100305448D01*
X181547343Y-100290608D01*
X181503232Y-100261133D01*
X181503233Y-100261133D01*
X181473989Y-100255316D01*
X181444748Y-100249500D01*
X180655252Y-100249500D01*
X180631858Y-100254153D01*
X180596766Y-100261133D01*
X180541113Y-100298321D01*
X180485564Y-100309371D01*
X180458887Y-100298321D01*
X180403233Y-100261133D01*
X180373989Y-100255316D01*
X180344748Y-100249500D01*
X179555252Y-100249500D01*
X179526010Y-100255316D01*
X179496767Y-100261133D01*
X179430449Y-100305447D01*
X179430447Y-100305449D01*
X179386133Y-100371767D01*
X179374499Y-100430256D01*
X179374253Y-100432757D01*
X179373853Y-100433504D01*
X179373791Y-100433818D01*
X179373695Y-100433799D01*
X179347552Y-100482705D01*
X179300610Y-100499500D01*
X179115059Y-100499500D01*
X179062733Y-100477826D01*
X179042481Y-100439938D01*
X179041201Y-100433504D01*
X179038867Y-100421769D01*
X179038866Y-100421767D01*
X179038866Y-100421766D01*
X179012253Y-100381939D01*
X178994552Y-100355448D01*
X178972343Y-100340608D01*
X178928232Y-100311133D01*
X178928233Y-100311133D01*
X178898989Y-100305316D01*
X178869748Y-100299500D01*
X178869746Y-100299500D01*
X178624500Y-100299500D01*
X178572174Y-100277826D01*
X178550500Y-100225500D01*
X178550500Y-100205123D01*
X178572174Y-100152797D01*
X179077797Y-99647174D01*
X179130123Y-99625500D01*
X179569746Y-99625500D01*
X179569748Y-99625500D01*
X179628231Y-99613867D01*
X179694552Y-99569552D01*
X179738867Y-99503231D01*
X179750500Y-99444748D01*
X179750500Y-98655252D01*
X179738867Y-98596769D01*
X179701376Y-98540661D01*
X179690327Y-98485115D01*
X179701377Y-98458437D01*
X179738395Y-98403036D01*
X179750000Y-98344697D01*
X179750000Y-98050000D01*
X178750000Y-98050000D01*
X178750000Y-98344697D01*
X178761603Y-98403035D01*
X178798622Y-98458438D01*
X178809671Y-98513987D01*
X178798622Y-98540662D01*
X178761133Y-98596767D01*
X178749500Y-98655253D01*
X178749500Y-99094877D01*
X178727826Y-99147203D01*
X178009540Y-99865488D01*
X177969979Y-99934009D01*
X177969977Y-99934014D01*
X177949500Y-100010435D01*
X177949500Y-100225500D01*
X177927826Y-100277826D01*
X177875500Y-100299500D01*
X177630252Y-100299500D01*
X177601010Y-100305316D01*
X177571767Y-100311133D01*
X177505449Y-100355447D01*
X177505447Y-100355449D01*
X177461133Y-100421767D01*
X177453377Y-100460757D01*
X177449500Y-100480252D01*
X177449500Y-101119748D01*
X177451188Y-101128232D01*
X177461133Y-101178233D01*
X177498621Y-101234336D01*
X177509671Y-101289885D01*
X177498622Y-101316560D01*
X177461604Y-101371962D01*
X177461604Y-101371963D01*
X177450000Y-101430302D01*
X177450000Y-101650000D01*
X179050000Y-101650000D01*
X179050000Y-101430302D01*
X179038396Y-101371964D01*
X179001377Y-101316561D01*
X178999292Y-101306082D01*
X178992400Y-101297920D01*
X178994587Y-101282427D01*
X178990328Y-101261012D01*
X178997161Y-101241484D01*
X178999066Y-101237795D01*
X179038867Y-101178231D01*
X179044519Y-101149816D01*
X179049314Y-101140535D01*
X179063577Y-101128490D01*
X179073948Y-101112971D01*
X179086447Y-101109179D01*
X179092588Y-101103994D01*
X179101157Y-101104716D01*
X179115059Y-101100500D01*
X179328050Y-101100500D01*
X179380376Y-101122174D01*
X179389578Y-101133387D01*
X179430448Y-101194552D01*
X179441113Y-101201678D01*
X179496767Y-101238866D01*
X179496768Y-101238866D01*
X179496769Y-101238867D01*
X179555252Y-101250500D01*
X179555254Y-101250500D01*
X180344746Y-101250500D01*
X180344748Y-101250500D01*
X180403231Y-101238867D01*
X180458887Y-101201677D01*
X180514435Y-101190628D01*
X180541113Y-101201678D01*
X180596767Y-101238866D01*
X180596768Y-101238866D01*
X180596769Y-101238867D01*
X180655252Y-101250500D01*
X180675500Y-101250500D01*
X180727826Y-101272174D01*
X180749500Y-101324500D01*
X180749500Y-102000500D01*
X180727826Y-102052826D01*
X180675500Y-102074500D01*
X180355252Y-102074500D01*
X180326010Y-102080316D01*
X180296767Y-102086133D01*
X180230449Y-102130447D01*
X180230447Y-102130449D01*
X180186133Y-102196767D01*
X180178755Y-102233863D01*
X180174500Y-102255252D01*
X180174500Y-103744748D01*
X180181160Y-103778231D01*
X180186133Y-103803232D01*
X180213742Y-103844550D01*
X180230448Y-103869552D01*
X180274560Y-103899027D01*
X180296767Y-103913866D01*
X180296768Y-103913866D01*
X180296769Y-103913867D01*
X180355252Y-103925500D01*
X180575500Y-103925500D01*
X180627826Y-103947174D01*
X180649500Y-103999500D01*
X180649500Y-105489564D01*
X180669977Y-105565985D01*
X180669979Y-105565990D01*
X180687750Y-105596769D01*
X180709540Y-105634511D01*
X180802826Y-105727797D01*
X180824500Y-105780123D01*
X180824500Y-106625500D01*
X180802826Y-106677826D01*
X180750500Y-106699500D01*
X179999500Y-106699500D01*
X179947174Y-106677826D01*
X179925500Y-106625500D01*
X179925500Y-105380253D01*
X179918926Y-105347203D01*
X179913867Y-105321769D01*
X179909496Y-105315228D01*
X179869553Y-105255450D01*
X179869552Y-105255448D01*
X179847343Y-105240608D01*
X179803232Y-105211133D01*
X179803233Y-105211133D01*
X179773989Y-105205316D01*
X179744748Y-105199500D01*
X177955252Y-105199500D01*
X177926010Y-105205316D01*
X177896767Y-105211133D01*
X177830449Y-105255447D01*
X177830446Y-105255450D01*
X177811528Y-105283763D01*
X177764435Y-105315228D01*
X177708887Y-105304178D01*
X177688472Y-105283763D01*
X177669553Y-105255450D01*
X177669552Y-105255448D01*
X177647343Y-105240608D01*
X177603232Y-105211133D01*
X177603233Y-105211133D01*
X177573989Y-105205316D01*
X177544748Y-105199500D01*
X177544746Y-105199500D01*
X177024500Y-105199500D01*
X176972174Y-105177826D01*
X176950500Y-105125500D01*
X176950500Y-104860437D01*
X176938590Y-104815989D01*
X176938590Y-104815988D01*
X176930023Y-104784016D01*
X176930022Y-104784012D01*
X176916447Y-104760500D01*
X176890462Y-104715492D01*
X176890461Y-104715491D01*
X176890460Y-104715489D01*
X176870917Y-104695946D01*
X176849244Y-104643619D01*
X176850665Y-104629189D01*
X176860500Y-104579748D01*
X176860500Y-103920253D01*
X177139500Y-103920253D01*
X177139500Y-104579746D01*
X177151133Y-104638232D01*
X177165418Y-104659610D01*
X177195448Y-104704552D01*
X177211821Y-104715492D01*
X177261767Y-104748866D01*
X177261768Y-104748866D01*
X177261769Y-104748867D01*
X177320252Y-104760500D01*
X177320254Y-104760500D01*
X177779746Y-104760500D01*
X177779748Y-104760500D01*
X177838231Y-104748867D01*
X177904552Y-104704552D01*
X177948867Y-104638231D01*
X177960500Y-104579748D01*
X177960500Y-103920252D01*
X177948867Y-103861769D01*
X177937361Y-103844550D01*
X177909753Y-103803232D01*
X177904552Y-103795448D01*
X177883386Y-103781305D01*
X177851922Y-103734214D01*
X177850500Y-103719778D01*
X177850500Y-103555123D01*
X177872174Y-103502797D01*
X178152797Y-103222174D01*
X178205123Y-103200500D01*
X178869746Y-103200500D01*
X178869748Y-103200500D01*
X178928231Y-103188867D01*
X178994552Y-103144552D01*
X179038867Y-103078231D01*
X179050500Y-103019748D01*
X179050500Y-102380252D01*
X179038867Y-102321769D01*
X179001376Y-102265661D01*
X178990327Y-102210115D01*
X179001377Y-102183437D01*
X179038395Y-102128036D01*
X179050000Y-102069697D01*
X179050000Y-101850000D01*
X177450000Y-101850000D01*
X177450000Y-102069697D01*
X177461603Y-102128035D01*
X177498622Y-102183438D01*
X177509671Y-102238987D01*
X177498622Y-102265662D01*
X177461133Y-102321767D01*
X177449500Y-102380253D01*
X177449500Y-103019747D01*
X177451038Y-103027481D01*
X177449559Y-103034912D01*
X177452460Y-103041915D01*
X177444199Y-103061857D01*
X177439988Y-103083030D01*
X177430786Y-103094242D01*
X177365489Y-103159540D01*
X177309540Y-103215488D01*
X177269979Y-103284009D01*
X177269977Y-103284014D01*
X177249500Y-103360435D01*
X177249500Y-103719778D01*
X177227826Y-103772104D01*
X177216613Y-103781306D01*
X177195449Y-103795447D01*
X177195447Y-103795449D01*
X177151133Y-103861767D01*
X177139500Y-103920253D01*
X176860500Y-103920253D01*
X176860500Y-103920252D01*
X176848867Y-103861769D01*
X176837361Y-103844550D01*
X176809753Y-103803232D01*
X176804552Y-103795448D01*
X176769616Y-103772104D01*
X176738232Y-103751133D01*
X176738233Y-103751133D01*
X176705875Y-103744697D01*
X176679748Y-103739500D01*
X176679746Y-103739500D01*
X176395123Y-103739500D01*
X176342797Y-103717826D01*
X176072174Y-103447203D01*
X176050500Y-103394877D01*
X176050500Y-103274500D01*
X176072174Y-103222174D01*
X176124500Y-103200500D01*
X176369746Y-103200500D01*
X176369748Y-103200500D01*
X176428231Y-103188867D01*
X176494552Y-103144552D01*
X176538867Y-103078231D01*
X176550500Y-103019748D01*
X176550500Y-102380252D01*
X176538867Y-102321769D01*
X176501677Y-102266112D01*
X176490628Y-102210565D01*
X176501678Y-102183887D01*
X176537145Y-102130808D01*
X176538867Y-102128231D01*
X176550500Y-102069748D01*
X176550500Y-101430252D01*
X176538867Y-101371769D01*
X176501677Y-101316112D01*
X176490628Y-101260565D01*
X176501678Y-101233887D01*
X176531243Y-101189641D01*
X176538867Y-101178231D01*
X176550500Y-101119748D01*
X176550500Y-100480252D01*
X176548961Y-100472518D01*
X176560009Y-100416972D01*
X176569208Y-100405761D01*
X177240460Y-99734511D01*
X177280021Y-99665989D01*
X177300499Y-99589564D01*
X177300500Y-99589564D01*
X177300500Y-98774389D01*
X177322174Y-98722063D01*
X177366189Y-98701248D01*
X177366182Y-98701209D01*
X177366340Y-98701177D01*
X177367255Y-98700745D01*
X177369737Y-98700500D01*
X177369748Y-98700500D01*
X177428231Y-98688867D01*
X177494552Y-98644552D01*
X177538867Y-98578231D01*
X177550500Y-98519748D01*
X177550500Y-97830252D01*
X177538867Y-97771769D01*
X177494552Y-97705448D01*
X177472343Y-97690608D01*
X177428232Y-97661133D01*
X177428233Y-97661133D01*
X177398989Y-97655316D01*
X177369748Y-97649500D01*
X176630252Y-97649500D01*
X176601010Y-97655316D01*
X176571767Y-97661133D01*
X176505449Y-97705447D01*
X176505447Y-97705449D01*
X176497988Y-97716613D01*
X176450896Y-97748078D01*
X176436460Y-97749500D01*
X175478083Y-97749500D01*
X175425757Y-97727826D01*
X175409716Y-97703818D01*
X175408867Y-97701769D01*
X175381714Y-97661133D01*
X175364552Y-97635448D01*
X175331249Y-97613195D01*
X175298232Y-97591133D01*
X175298233Y-97591133D01*
X175268989Y-97585316D01*
X175239748Y-97579500D01*
X174260252Y-97579500D01*
X174231010Y-97585316D01*
X174201767Y-97591133D01*
X174135449Y-97635447D01*
X174135447Y-97635449D01*
X174091132Y-97701769D01*
X174090284Y-97703818D01*
X174088716Y-97705385D01*
X174087083Y-97707830D01*
X174086596Y-97707505D01*
X174079876Y-97714225D01*
X174074243Y-97727826D01*
X174060643Y-97733458D01*
X174050236Y-97743867D01*
X174021917Y-97749500D01*
X173974500Y-97749500D01*
X173922174Y-97727826D01*
X173900500Y-97675500D01*
X173900500Y-97555302D01*
X178750000Y-97555302D01*
X178750000Y-97850000D01*
X179150000Y-97850000D01*
X179350000Y-97850000D01*
X179750000Y-97850000D01*
X179750000Y-97555302D01*
X179738396Y-97496964D01*
X179694192Y-97430808D01*
X179694191Y-97430807D01*
X179628035Y-97386603D01*
X179569697Y-97375000D01*
X179350000Y-97375000D01*
X179350000Y-97850000D01*
X179150000Y-97850000D01*
X179150000Y-97375000D01*
X178930303Y-97375000D01*
X178871964Y-97386603D01*
X178805808Y-97430807D01*
X178805807Y-97430808D01*
X178761603Y-97496964D01*
X178750000Y-97555302D01*
X173900500Y-97555302D01*
X173900500Y-97505253D01*
X173898851Y-97496964D01*
X173888867Y-97446769D01*
X173844552Y-97380448D01*
X173822343Y-97365608D01*
X173778232Y-97336133D01*
X173778233Y-97336133D01*
X173748989Y-97330316D01*
X173719748Y-97324500D01*
X172280252Y-97324500D01*
X172251010Y-97330316D01*
X172221767Y-97336133D01*
X172155449Y-97380447D01*
X172155447Y-97380449D01*
X172111133Y-97446767D01*
X172106562Y-97469748D01*
X172099500Y-97505252D01*
X172099500Y-99494748D01*
X172101188Y-99503232D01*
X172111133Y-99553232D01*
X172135409Y-99589562D01*
X172155448Y-99619552D01*
X172164350Y-99625500D01*
X172221767Y-99663866D01*
X172221768Y-99663866D01*
X172221769Y-99663867D01*
X172280252Y-99675500D01*
X172280254Y-99675500D01*
X173719746Y-99675500D01*
X173719748Y-99675500D01*
X173778231Y-99663867D01*
X173844552Y-99619552D01*
X173888867Y-99553231D01*
X173900500Y-99494748D01*
X173900500Y-98424500D01*
X173922174Y-98372174D01*
X173974500Y-98350500D01*
X174021917Y-98350500D01*
X174074243Y-98372174D01*
X174090284Y-98396182D01*
X174091132Y-98398230D01*
X174108686Y-98424500D01*
X174135448Y-98464552D01*
X174167746Y-98486133D01*
X174201767Y-98508866D01*
X174201768Y-98508866D01*
X174201769Y-98508867D01*
X174260252Y-98520500D01*
X174260254Y-98520500D01*
X175239746Y-98520500D01*
X175239748Y-98520500D01*
X175298231Y-98508867D01*
X175364552Y-98464552D01*
X175408867Y-98398231D01*
X175408867Y-98398229D01*
X175409716Y-98396182D01*
X175411283Y-98394614D01*
X175412917Y-98392170D01*
X175413403Y-98392494D01*
X175449764Y-98356133D01*
X175478083Y-98350500D01*
X176375500Y-98350500D01*
X176427826Y-98372174D01*
X176449500Y-98424500D01*
X176449500Y-98519748D01*
X176457255Y-98558736D01*
X176461133Y-98578232D01*
X176490608Y-98622343D01*
X176505448Y-98644552D01*
X176549560Y-98674027D01*
X176571767Y-98688866D01*
X176571768Y-98688866D01*
X176571769Y-98688867D01*
X176630252Y-98700500D01*
X176630262Y-98700500D01*
X176632745Y-98700745D01*
X176633491Y-98701144D01*
X176633818Y-98701209D01*
X176633798Y-98701307D01*
X176682698Y-98727438D01*
X176699500Y-98774389D01*
X176699500Y-99394877D01*
X176677826Y-99447203D01*
X175847203Y-100277826D01*
X175794877Y-100299500D01*
X175130252Y-100299500D01*
X175101010Y-100305316D01*
X175071767Y-100311133D01*
X175005449Y-100355447D01*
X175005447Y-100355449D01*
X174961133Y-100421767D01*
X174953377Y-100460757D01*
X174949500Y-100480252D01*
X174949500Y-101119748D01*
X174951188Y-101128232D01*
X174961133Y-101178233D01*
X174998321Y-101233887D01*
X175000401Y-101244346D01*
X175007286Y-101252491D01*
X175005103Y-101267981D01*
X175009371Y-101289436D01*
X175002556Y-101308930D01*
X175000640Y-101312643D01*
X174961133Y-101371769D01*
X174955484Y-101400163D01*
X174950704Y-101409430D01*
X174936433Y-101421493D01*
X174926052Y-101437029D01*
X174913577Y-101440813D01*
X174907450Y-101445993D01*
X174898871Y-101445274D01*
X174884941Y-101449500D01*
X173910436Y-101449500D01*
X173834014Y-101469977D01*
X173834009Y-101469979D01*
X173765488Y-101509540D01*
X173422203Y-101852826D01*
X173369877Y-101874500D01*
X172930252Y-101874500D01*
X172901010Y-101880316D01*
X172871767Y-101886133D01*
X172805449Y-101930447D01*
X172805447Y-101930449D01*
X172761133Y-101996767D01*
X172749500Y-102055253D01*
X172749500Y-102844746D01*
X172761133Y-102903233D01*
X172798321Y-102958887D01*
X172809371Y-103014436D01*
X172798321Y-103041113D01*
X172761133Y-103096766D01*
X172749500Y-103155253D01*
X172749500Y-103175500D01*
X172727826Y-103227826D01*
X172675500Y-103249500D01*
X171510436Y-103249500D01*
X171434014Y-103269977D01*
X171434009Y-103269979D01*
X171381147Y-103300500D01*
X171365488Y-103309540D01*
X171202203Y-103472826D01*
X171149877Y-103494500D01*
X169570252Y-103494500D01*
X169541010Y-103500316D01*
X169511767Y-103506133D01*
X169445449Y-103550447D01*
X169445447Y-103550449D01*
X169401133Y-103616767D01*
X169389500Y-103675253D01*
X164500500Y-103675253D01*
X164500500Y-99355302D01*
X165150000Y-99355302D01*
X165150000Y-100425000D01*
X165755198Y-100425000D01*
X165750000Y-100451131D01*
X165750000Y-100598869D01*
X165755198Y-100625000D01*
X165150000Y-100625000D01*
X165150000Y-101694697D01*
X165161603Y-101753035D01*
X165205807Y-101819191D01*
X165205808Y-101819192D01*
X165271964Y-101863396D01*
X165330303Y-101875000D01*
X166400000Y-101875000D01*
X166400000Y-101269802D01*
X166426131Y-101275000D01*
X166573869Y-101275000D01*
X166600000Y-101269802D01*
X166600000Y-101875000D01*
X167669697Y-101875000D01*
X167728035Y-101863396D01*
X167794191Y-101819192D01*
X167794192Y-101819191D01*
X167838396Y-101753035D01*
X167850000Y-101694697D01*
X167850000Y-101324697D01*
X169390000Y-101324697D01*
X169401603Y-101383035D01*
X169445807Y-101449191D01*
X169445808Y-101449192D01*
X169511964Y-101493396D01*
X169570303Y-101505000D01*
X170900000Y-101505000D01*
X171100000Y-101505000D01*
X172429697Y-101505000D01*
X172488035Y-101493396D01*
X172554191Y-101449192D01*
X172554192Y-101449191D01*
X172598396Y-101383035D01*
X172610000Y-101324697D01*
X172610000Y-101000000D01*
X171100000Y-101000000D01*
X171100000Y-101505000D01*
X170900000Y-101505000D01*
X170900000Y-101000000D01*
X169390000Y-101000000D01*
X169390000Y-101324697D01*
X167850000Y-101324697D01*
X167850000Y-100625000D01*
X167244802Y-100625000D01*
X167250000Y-100598869D01*
X167250000Y-100475302D01*
X169390000Y-100475302D01*
X169390000Y-100800000D01*
X170900000Y-100800000D01*
X171100000Y-100800000D01*
X172610000Y-100800000D01*
X172610000Y-100475302D01*
X172598396Y-100416964D01*
X172554192Y-100350808D01*
X172554191Y-100350807D01*
X172488035Y-100306603D01*
X172429697Y-100295000D01*
X171100000Y-100295000D01*
X171100000Y-100800000D01*
X170900000Y-100800000D01*
X170900000Y-100295000D01*
X169570303Y-100295000D01*
X169511964Y-100306603D01*
X169445808Y-100350807D01*
X169445807Y-100350808D01*
X169401603Y-100416964D01*
X169390000Y-100475302D01*
X167250000Y-100475302D01*
X167250000Y-100451131D01*
X167244802Y-100425000D01*
X167850000Y-100425000D01*
X167850000Y-99355302D01*
X167838396Y-99296964D01*
X167794192Y-99230808D01*
X167794191Y-99230807D01*
X167728035Y-99186603D01*
X167669697Y-99175000D01*
X166600000Y-99175000D01*
X166600000Y-99780197D01*
X166573869Y-99775000D01*
X166426131Y-99775000D01*
X166400000Y-99780197D01*
X166400000Y-99175000D01*
X165330303Y-99175000D01*
X165271964Y-99186603D01*
X165205808Y-99230807D01*
X165205807Y-99230808D01*
X165161603Y-99296964D01*
X165150000Y-99355302D01*
X164500500Y-99355302D01*
X164500500Y-95410842D01*
X165049501Y-95410842D01*
X165049501Y-95639157D01*
X165085215Y-95864656D01*
X165085218Y-95864669D01*
X165155766Y-96081793D01*
X165259420Y-96285227D01*
X165341613Y-96398355D01*
X165393620Y-96469937D01*
X165555063Y-96631380D01*
X165657579Y-96705862D01*
X165739772Y-96765579D01*
X165837822Y-96815537D01*
X165943201Y-96869231D01*
X165943203Y-96869231D01*
X165943206Y-96869233D01*
X166160330Y-96939781D01*
X166160336Y-96939782D01*
X166160341Y-96939784D01*
X166310675Y-96963594D01*
X166385842Y-96975499D01*
X166385843Y-96975499D01*
X166614158Y-96975499D01*
X166670532Y-96966570D01*
X166839659Y-96939784D01*
X166839666Y-96939781D01*
X166839669Y-96939781D01*
X167056793Y-96869233D01*
X167056793Y-96869232D01*
X167056799Y-96869231D01*
X167260227Y-96765579D01*
X167444937Y-96631380D01*
X167636379Y-96439937D01*
X167770579Y-96255228D01*
X167874231Y-96051799D01*
X167897560Y-95980000D01*
X167944781Y-95834670D01*
X167944781Y-95834667D01*
X167944784Y-95834660D01*
X167959062Y-95744511D01*
X167980500Y-95609157D01*
X167980500Y-94440843D01*
X167944784Y-94215340D01*
X167944782Y-94215335D01*
X167944781Y-94215329D01*
X167874233Y-93998206D01*
X167874231Y-93998201D01*
X167838565Y-93928201D01*
X167830500Y-93894606D01*
X167830500Y-91230835D01*
X167852174Y-91178509D01*
X167904500Y-91156835D01*
X167956826Y-91178509D01*
X167974878Y-91207968D01*
X167994777Y-91269213D01*
X168087712Y-91451610D01*
X168138394Y-91521367D01*
X168208034Y-91617219D01*
X168352781Y-91761966D01*
X168438852Y-91824500D01*
X168518389Y-91882287D01*
X168552172Y-91899500D01*
X168663735Y-91956344D01*
X168689321Y-91984016D01*
X168692084Y-91982171D01*
X168696132Y-91988230D01*
X168696133Y-91988231D01*
X168740448Y-92054552D01*
X168784560Y-92084027D01*
X168806767Y-92098866D01*
X168806768Y-92098866D01*
X168806769Y-92098867D01*
X168865252Y-92110500D01*
X169095500Y-92110500D01*
X169147826Y-92132174D01*
X169169500Y-92184500D01*
X169169500Y-97336969D01*
X169157029Y-97378082D01*
X169155448Y-97380447D01*
X169155448Y-97380448D01*
X169111133Y-97446769D01*
X169099500Y-97505252D01*
X169099500Y-99494748D01*
X169101188Y-99503232D01*
X169111133Y-99553232D01*
X169135409Y-99589562D01*
X169155448Y-99619552D01*
X169164350Y-99625500D01*
X169221767Y-99663866D01*
X169221768Y-99663866D01*
X169221769Y-99663867D01*
X169280252Y-99675500D01*
X169280254Y-99675500D01*
X170719746Y-99675500D01*
X170719748Y-99675500D01*
X170778231Y-99663867D01*
X170844552Y-99619552D01*
X170888867Y-99553231D01*
X170900500Y-99494748D01*
X170900500Y-97505252D01*
X170888867Y-97446769D01*
X170844552Y-97380448D01*
X170822343Y-97365608D01*
X170778232Y-97336133D01*
X170778233Y-97336133D01*
X170748989Y-97330316D01*
X170719748Y-97324500D01*
X170719746Y-97324500D01*
X169844500Y-97324500D01*
X169792174Y-97302826D01*
X169770500Y-97250500D01*
X169770500Y-97169697D01*
X176450000Y-97169697D01*
X176461603Y-97228035D01*
X176505807Y-97294191D01*
X176505808Y-97294192D01*
X176571964Y-97338396D01*
X176630303Y-97350000D01*
X176900000Y-97350000D01*
X177100000Y-97350000D01*
X177369697Y-97350000D01*
X177428035Y-97338396D01*
X177494191Y-97294192D01*
X177494192Y-97294191D01*
X177538396Y-97228035D01*
X177550000Y-97169697D01*
X177550000Y-96925000D01*
X177100000Y-96925000D01*
X177100000Y-97350000D01*
X176900000Y-97350000D01*
X176900000Y-96925000D01*
X176450000Y-96925000D01*
X176450000Y-97169697D01*
X169770500Y-97169697D01*
X169770500Y-96934500D01*
X169792174Y-96882174D01*
X169844500Y-96860500D01*
X170924746Y-96860500D01*
X170924748Y-96860500D01*
X170983231Y-96848867D01*
X171049552Y-96804552D01*
X171093867Y-96738231D01*
X171105500Y-96679748D01*
X171105500Y-96679697D01*
X172395000Y-96679697D01*
X172406603Y-96738035D01*
X172450807Y-96804191D01*
X172450808Y-96804192D01*
X172516964Y-96848396D01*
X172575303Y-96860000D01*
X173030000Y-96860000D01*
X173230000Y-96860000D01*
X173684697Y-96860000D01*
X173743035Y-96848396D01*
X173809191Y-96804192D01*
X173809192Y-96804191D01*
X173852285Y-96739697D01*
X174080000Y-96739697D01*
X174091603Y-96798035D01*
X174135807Y-96864191D01*
X174135808Y-96864192D01*
X174201964Y-96908396D01*
X174260303Y-96920000D01*
X174650000Y-96920000D01*
X174850000Y-96920000D01*
X175239697Y-96920000D01*
X175298035Y-96908396D01*
X175364191Y-96864192D01*
X175364193Y-96864190D01*
X175371514Y-96853235D01*
X175408396Y-96798035D01*
X175420000Y-96739697D01*
X175420000Y-96550000D01*
X174850000Y-96550000D01*
X174850000Y-96920000D01*
X174650000Y-96920000D01*
X174650000Y-96550000D01*
X174080000Y-96550000D01*
X174080000Y-96739697D01*
X173852285Y-96739697D01*
X173853396Y-96738035D01*
X173865000Y-96679697D01*
X173865000Y-96480302D01*
X176450000Y-96480302D01*
X176450000Y-96725000D01*
X176900000Y-96725000D01*
X177100000Y-96725000D01*
X177550000Y-96725000D01*
X177550000Y-96480302D01*
X177538396Y-96421964D01*
X177494192Y-96355808D01*
X177494191Y-96355807D01*
X177428035Y-96311603D01*
X177369697Y-96300000D01*
X177100000Y-96300000D01*
X177100000Y-96725000D01*
X176900000Y-96725000D01*
X176900000Y-96300000D01*
X176630303Y-96300000D01*
X176571964Y-96311603D01*
X176505808Y-96355807D01*
X176505807Y-96355808D01*
X176461603Y-96421964D01*
X176450000Y-96480302D01*
X173865000Y-96480302D01*
X173865000Y-96160302D01*
X174080000Y-96160302D01*
X174080000Y-96350000D01*
X174650000Y-96350000D01*
X174850000Y-96350000D01*
X175420000Y-96350000D01*
X175420000Y-96160302D01*
X175408396Y-96101964D01*
X175364192Y-96035808D01*
X175364191Y-96035807D01*
X175298035Y-95991603D01*
X175239697Y-95980000D01*
X174850000Y-95980000D01*
X174850000Y-96350000D01*
X174650000Y-96350000D01*
X174650000Y-95980000D01*
X174260303Y-95980000D01*
X174201964Y-95991603D01*
X174135808Y-96035807D01*
X174135807Y-96035808D01*
X174091603Y-96101964D01*
X174080000Y-96160302D01*
X173865000Y-96160302D01*
X173865000Y-95850000D01*
X173230000Y-95850000D01*
X173230000Y-96860000D01*
X173030000Y-96860000D01*
X173030000Y-95850000D01*
X172395000Y-95850000D01*
X172395000Y-96679697D01*
X171105500Y-96679697D01*
X171105500Y-94820302D01*
X172395000Y-94820302D01*
X172395000Y-95650000D01*
X173030000Y-95650000D01*
X173230000Y-95650000D01*
X173865000Y-95650000D01*
X173865000Y-94820302D01*
X173853396Y-94761964D01*
X173809192Y-94695808D01*
X173809191Y-94695807D01*
X173743035Y-94651603D01*
X173684697Y-94640000D01*
X173230000Y-94640000D01*
X173230000Y-95650000D01*
X173030000Y-95650000D01*
X173030000Y-94640000D01*
X172575303Y-94640000D01*
X172516964Y-94651603D01*
X172450808Y-94695807D01*
X172450807Y-94695808D01*
X172406603Y-94761964D01*
X172395000Y-94820302D01*
X171105500Y-94820302D01*
X171105500Y-94820252D01*
X171093867Y-94761769D01*
X171049552Y-94695448D01*
X171027343Y-94680608D01*
X170983232Y-94651133D01*
X170983233Y-94651133D01*
X170953989Y-94645316D01*
X170924748Y-94639500D01*
X169844500Y-94639500D01*
X169792174Y-94617826D01*
X169770500Y-94565500D01*
X169770500Y-94089697D01*
X178330000Y-94089697D01*
X178341603Y-94148035D01*
X178385807Y-94214191D01*
X178385808Y-94214192D01*
X178451964Y-94258396D01*
X178510303Y-94270000D01*
X178900000Y-94270000D01*
X179100000Y-94270000D01*
X179489697Y-94270000D01*
X179548035Y-94258396D01*
X179614191Y-94214192D01*
X179614192Y-94214191D01*
X179658396Y-94148035D01*
X179670000Y-94089697D01*
X179670000Y-93900000D01*
X179100000Y-93900000D01*
X179100000Y-94270000D01*
X178900000Y-94270000D01*
X178900000Y-93900000D01*
X178330000Y-93900000D01*
X178330000Y-94089697D01*
X169770500Y-94089697D01*
X169770500Y-92184500D01*
X169792174Y-92132174D01*
X169844500Y-92110500D01*
X170074746Y-92110500D01*
X170074748Y-92110500D01*
X170133231Y-92098867D01*
X170199552Y-92054552D01*
X170243867Y-91988231D01*
X170255500Y-91929748D01*
X170255500Y-91553814D01*
X170269633Y-91510318D01*
X170277493Y-91499500D01*
X170312287Y-91451610D01*
X170405220Y-91269219D01*
X170428629Y-91197174D01*
X170468474Y-91074544D01*
X170468474Y-91074541D01*
X170468477Y-91074534D01*
X170492494Y-90922897D01*
X170500500Y-90872353D01*
X170500500Y-90005253D01*
X171099500Y-90005253D01*
X171099500Y-90994746D01*
X171111133Y-91053232D01*
X171122794Y-91070683D01*
X171155448Y-91119552D01*
X171199560Y-91149027D01*
X171221767Y-91163866D01*
X171221768Y-91163866D01*
X171221769Y-91163867D01*
X171280252Y-91175500D01*
X171325500Y-91175500D01*
X171377826Y-91197174D01*
X171399500Y-91249500D01*
X171399500Y-91739564D01*
X171419977Y-91815985D01*
X171419979Y-91815990D01*
X171425470Y-91825500D01*
X171448558Y-91865489D01*
X171459540Y-91884511D01*
X172259540Y-92684511D01*
X172315489Y-92740460D01*
X172384011Y-92780021D01*
X172384012Y-92780021D01*
X172384014Y-92780022D01*
X172422224Y-92790260D01*
X172460435Y-92800499D01*
X172460436Y-92800500D01*
X172460438Y-92800500D01*
X172539562Y-92800500D01*
X173025500Y-92800500D01*
X173077826Y-92822174D01*
X173099500Y-92874500D01*
X173099500Y-92994746D01*
X173111133Y-93053233D01*
X173128590Y-93079358D01*
X173139640Y-93134907D01*
X173119389Y-93172796D01*
X173099500Y-93192685D01*
X173033610Y-93306809D01*
X173033606Y-93306818D01*
X172999500Y-93434105D01*
X172999500Y-93565894D01*
X173033606Y-93693181D01*
X173033610Y-93693190D01*
X173055655Y-93731372D01*
X173099500Y-93807314D01*
X173192686Y-93900500D01*
X173306814Y-93966392D01*
X173434105Y-94000499D01*
X173434106Y-94000500D01*
X173434108Y-94000500D01*
X173565894Y-94000500D01*
X173565894Y-94000499D01*
X173693186Y-93966392D01*
X173807314Y-93900500D01*
X173900500Y-93807314D01*
X173966392Y-93693186D01*
X174000499Y-93565894D01*
X174000500Y-93565894D01*
X174000500Y-93510302D01*
X178330000Y-93510302D01*
X178330000Y-93700000D01*
X178900000Y-93700000D01*
X179100000Y-93700000D01*
X179670000Y-93700000D01*
X179670000Y-93510302D01*
X179658396Y-93451964D01*
X179614192Y-93385808D01*
X179614191Y-93385807D01*
X179548035Y-93341603D01*
X179489697Y-93330000D01*
X179100000Y-93330000D01*
X179100000Y-93700000D01*
X178900000Y-93700000D01*
X178900000Y-93330000D01*
X178510303Y-93330000D01*
X178451964Y-93341603D01*
X178385808Y-93385807D01*
X178385807Y-93385808D01*
X178341603Y-93451964D01*
X178330000Y-93510302D01*
X174000500Y-93510302D01*
X174000500Y-93434106D01*
X174000499Y-93434105D01*
X173975713Y-93341603D01*
X173966392Y-93306814D01*
X173954664Y-93286500D01*
X173947272Y-93230347D01*
X173981750Y-93185414D01*
X174018750Y-93175500D01*
X174119746Y-93175500D01*
X174119748Y-93175500D01*
X174178231Y-93163867D01*
X174244552Y-93119552D01*
X174288867Y-93053231D01*
X174300500Y-92994748D01*
X174300500Y-92005252D01*
X174288867Y-91946769D01*
X174244552Y-91880448D01*
X174201632Y-91851769D01*
X174178232Y-91836133D01*
X174178233Y-91836133D01*
X174148989Y-91830316D01*
X174119748Y-91824500D01*
X173280252Y-91824500D01*
X173251010Y-91830316D01*
X173221767Y-91836133D01*
X173155449Y-91880447D01*
X173155447Y-91880449D01*
X173111133Y-91946767D01*
X173106290Y-91971117D01*
X173102886Y-91988232D01*
X173099500Y-92005253D01*
X173099500Y-92125500D01*
X173077826Y-92177826D01*
X173025500Y-92199500D01*
X172655123Y-92199500D01*
X172602797Y-92177826D01*
X172022174Y-91597203D01*
X172000500Y-91544877D01*
X172000500Y-91249500D01*
X172022174Y-91197174D01*
X172074500Y-91175500D01*
X172119746Y-91175500D01*
X172119748Y-91175500D01*
X172178231Y-91163867D01*
X172244552Y-91119552D01*
X172288867Y-91053231D01*
X172300500Y-90994748D01*
X172300500Y-90005252D01*
X172288867Y-89946769D01*
X172286953Y-89943905D01*
X172268394Y-89916130D01*
X172244552Y-89880448D01*
X172207576Y-89855741D01*
X172178232Y-89836133D01*
X172178233Y-89836133D01*
X172148989Y-89830316D01*
X172119748Y-89824500D01*
X171280252Y-89824500D01*
X171251010Y-89830316D01*
X171221767Y-89836133D01*
X171155449Y-89880447D01*
X171155447Y-89880449D01*
X171111133Y-89946767D01*
X171107803Y-89963510D01*
X171099684Y-90004330D01*
X171099500Y-90005253D01*
X170500500Y-90005253D01*
X170500500Y-87829697D01*
X171540000Y-87829697D01*
X171551603Y-87888035D01*
X171595807Y-87954191D01*
X171595808Y-87954192D01*
X171661964Y-87998396D01*
X171720303Y-88010000D01*
X171850000Y-88010000D01*
X172050000Y-88010000D01*
X172179697Y-88010000D01*
X172238035Y-87998396D01*
X172304191Y-87954192D01*
X172304192Y-87954191D01*
X172348396Y-87888035D01*
X172360000Y-87829697D01*
X172360000Y-87600000D01*
X172050000Y-87600000D01*
X172050000Y-88010000D01*
X171850000Y-88010000D01*
X171850000Y-87600000D01*
X171540000Y-87600000D01*
X171540000Y-87829697D01*
X170500500Y-87829697D01*
X170500500Y-87170302D01*
X171540000Y-87170302D01*
X171540000Y-87400000D01*
X171850000Y-87400000D01*
X172050000Y-87400000D01*
X172360000Y-87400000D01*
X172360000Y-87170302D01*
X172348396Y-87111964D01*
X172304192Y-87045808D01*
X172304191Y-87045807D01*
X172238035Y-87001603D01*
X172179697Y-86990000D01*
X172050000Y-86990000D01*
X172050000Y-87400000D01*
X171850000Y-87400000D01*
X171850000Y-86990000D01*
X171720303Y-86990000D01*
X171661964Y-87001603D01*
X171595808Y-87045807D01*
X171595807Y-87045808D01*
X171551603Y-87111964D01*
X171540000Y-87170302D01*
X170500500Y-87170302D01*
X170500500Y-87097646D01*
X170483371Y-86989500D01*
X170468477Y-86895466D01*
X170468475Y-86895461D01*
X170468474Y-86895455D01*
X170405221Y-86700784D01*
X170405219Y-86700778D01*
X170324608Y-86542571D01*
X170324607Y-86542570D01*
X170312287Y-86518390D01*
X170191966Y-86352781D01*
X170158882Y-86319697D01*
X170375000Y-86319697D01*
X170384351Y-86366713D01*
X170441639Y-86451429D01*
X170496964Y-86488396D01*
X170555303Y-86500000D01*
X170850000Y-86500000D01*
X170850000Y-86100000D01*
X170375000Y-86100000D01*
X170375000Y-86319697D01*
X170158882Y-86319697D01*
X170047219Y-86208034D01*
X169933620Y-86125500D01*
X169881610Y-86087712D01*
X169708483Y-85999500D01*
X169699219Y-85994780D01*
X169699218Y-85994779D01*
X169699213Y-85994777D01*
X169504544Y-85931525D01*
X169504531Y-85931522D01*
X169302354Y-85899500D01*
X169302352Y-85899500D01*
X169097648Y-85899500D01*
X169097646Y-85899500D01*
X168895468Y-85931522D01*
X168895463Y-85931523D01*
X168886501Y-85934435D01*
X168882061Y-85935878D01*
X168859195Y-85939500D01*
X168180252Y-85939500D01*
X168151010Y-85945316D01*
X168121767Y-85951133D01*
X168055449Y-85995447D01*
X168055447Y-85995449D01*
X168011133Y-86061767D01*
X167999500Y-86120253D01*
X167999500Y-86674666D01*
X167994906Y-86697765D01*
X167995678Y-86698016D01*
X167931525Y-86895455D01*
X167931522Y-86895468D01*
X167899500Y-87097646D01*
X167899500Y-90539164D01*
X167877826Y-90591490D01*
X167825500Y-90613164D01*
X167773174Y-90591490D01*
X167755122Y-90562032D01*
X167740142Y-90515929D01*
X167735220Y-90500781D01*
X167672883Y-90378439D01*
X167642287Y-90318389D01*
X167569345Y-90217993D01*
X167521966Y-90152781D01*
X167377219Y-90008034D01*
X167298455Y-89950809D01*
X167211610Y-89887712D01*
X167029213Y-89794777D01*
X166834544Y-89731525D01*
X166834531Y-89731522D01*
X166632354Y-89699500D01*
X166632352Y-89699500D01*
X166427648Y-89699500D01*
X166427646Y-89699500D01*
X166225468Y-89731522D01*
X166225455Y-89731525D01*
X166030786Y-89794777D01*
X165848389Y-89887712D01*
X165701837Y-89994189D01*
X165682781Y-90008034D01*
X165538034Y-90152781D01*
X165538031Y-90152784D01*
X165538031Y-90152785D01*
X165417712Y-90318389D01*
X165324777Y-90500786D01*
X165261525Y-90695455D01*
X165261522Y-90695468D01*
X165229500Y-90897646D01*
X165229500Y-93894606D01*
X165221435Y-93928201D01*
X165185768Y-93998201D01*
X165185766Y-93998206D01*
X165115218Y-94215329D01*
X165115215Y-94215342D01*
X165079500Y-94440842D01*
X165079500Y-95215606D01*
X165078589Y-95227182D01*
X165049501Y-95410842D01*
X164500500Y-95410842D01*
X164500500Y-88879697D01*
X165340000Y-88879697D01*
X165351603Y-88938035D01*
X165395807Y-89004191D01*
X165395808Y-89004192D01*
X165461964Y-89048396D01*
X165520303Y-89060000D01*
X166070000Y-89060000D01*
X166270000Y-89060000D01*
X166819697Y-89060000D01*
X166878035Y-89048396D01*
X166944191Y-89004192D01*
X166944192Y-89004191D01*
X166988396Y-88938035D01*
X167000000Y-88879697D01*
X167000000Y-87600000D01*
X166270000Y-87600000D01*
X166270000Y-89060000D01*
X166070000Y-89060000D01*
X166070000Y-87600000D01*
X165340000Y-87600000D01*
X165340000Y-88879697D01*
X164500500Y-88879697D01*
X164500500Y-86120302D01*
X165340000Y-86120302D01*
X165340000Y-87400000D01*
X166070000Y-87400000D01*
X166270000Y-87400000D01*
X167000000Y-87400000D01*
X167000000Y-86120302D01*
X166988396Y-86061964D01*
X166944192Y-85995808D01*
X166944191Y-85995807D01*
X166878035Y-85951603D01*
X166819697Y-85940000D01*
X166270000Y-85940000D01*
X166270000Y-87400000D01*
X166070000Y-87400000D01*
X166070000Y-85940000D01*
X165520303Y-85940000D01*
X165461964Y-85951603D01*
X165395808Y-85995807D01*
X165395807Y-85995808D01*
X165351603Y-86061964D01*
X165340000Y-86120302D01*
X164500500Y-86120302D01*
X164500500Y-85680302D01*
X170375000Y-85680302D01*
X170375000Y-85900000D01*
X170850000Y-85900000D01*
X170850000Y-85500000D01*
X170555303Y-85500000D01*
X170496964Y-85511603D01*
X170430808Y-85555807D01*
X170430807Y-85555808D01*
X170386603Y-85621964D01*
X170375000Y-85680302D01*
X164500500Y-85680302D01*
X164500500Y-84019697D01*
X168625000Y-84019697D01*
X168636603Y-84078035D01*
X168680807Y-84144191D01*
X168680808Y-84144192D01*
X168746964Y-84188396D01*
X168805303Y-84200000D01*
X169150000Y-84200000D01*
X169350000Y-84200000D01*
X169694697Y-84200000D01*
X169753035Y-84188396D01*
X169819191Y-84144192D01*
X169819192Y-84144191D01*
X169863396Y-84078035D01*
X169875000Y-84019697D01*
X169875000Y-83600000D01*
X169350000Y-83600000D01*
X169350000Y-84200000D01*
X169150000Y-84200000D01*
X169150000Y-83600000D01*
X168625000Y-83600000D01*
X168625000Y-84019697D01*
X164500500Y-84019697D01*
X164500500Y-82980302D01*
X168625000Y-82980302D01*
X168625000Y-83400000D01*
X169150000Y-83400000D01*
X169350000Y-83400000D01*
X169875000Y-83400000D01*
X169875000Y-82980302D01*
X169874990Y-82980253D01*
X170124500Y-82980253D01*
X170124500Y-84019746D01*
X170136133Y-84078232D01*
X170149573Y-84098345D01*
X170180448Y-84144552D01*
X170224560Y-84174027D01*
X170246767Y-84188866D01*
X170246768Y-84188866D01*
X170246769Y-84188867D01*
X170305252Y-84200500D01*
X170305254Y-84200500D01*
X171194746Y-84200500D01*
X171194748Y-84200500D01*
X171253231Y-84188867D01*
X171319552Y-84144552D01*
X171363867Y-84078231D01*
X171375500Y-84019748D01*
X171375500Y-84019746D01*
X171376209Y-84016182D01*
X171377924Y-84016523D01*
X171402038Y-83971407D01*
X171456236Y-83954964D01*
X171501311Y-83976282D01*
X171852826Y-84327797D01*
X171874500Y-84380123D01*
X171874500Y-84819746D01*
X171886133Y-84878232D01*
X171907695Y-84910500D01*
X171930448Y-84944552D01*
X171974560Y-84974027D01*
X171996767Y-84988866D01*
X171996768Y-84988866D01*
X171996769Y-84988867D01*
X172055252Y-85000500D01*
X172269877Y-85000500D01*
X172322203Y-85022174D01*
X173373203Y-86073174D01*
X173394877Y-86125500D01*
X173373203Y-86177826D01*
X173320877Y-86199500D01*
X173205123Y-86199500D01*
X173152797Y-86177826D01*
X172734511Y-85759540D01*
X172701754Y-85740628D01*
X172701753Y-85740627D01*
X172701463Y-85740460D01*
X172665989Y-85719979D01*
X172664413Y-85719556D01*
X172658970Y-85716485D01*
X172644063Y-85697449D01*
X172626969Y-85680354D01*
X172624625Y-85672628D01*
X172624050Y-85671893D01*
X172624150Y-85671063D01*
X172622759Y-85666474D01*
X172613867Y-85621769D01*
X172569552Y-85555448D01*
X172541900Y-85536971D01*
X172503232Y-85511133D01*
X172503233Y-85511133D01*
X172473989Y-85505316D01*
X172444748Y-85499500D01*
X171655252Y-85499500D01*
X171626010Y-85505316D01*
X171596767Y-85511133D01*
X171540662Y-85548622D01*
X171485113Y-85559671D01*
X171458438Y-85548622D01*
X171403035Y-85511603D01*
X171344697Y-85500000D01*
X171050000Y-85500000D01*
X171050000Y-86500000D01*
X171344697Y-86500000D01*
X171403036Y-86488395D01*
X171458437Y-86451377D01*
X171513986Y-86440327D01*
X171540659Y-86451375D01*
X171596769Y-86488867D01*
X171655252Y-86500500D01*
X171655254Y-86500500D01*
X172444746Y-86500500D01*
X172444748Y-86500500D01*
X172503231Y-86488867D01*
X172519072Y-86478281D01*
X172574619Y-86467230D01*
X172612512Y-86487483D01*
X172865489Y-86740460D01*
X172865491Y-86740461D01*
X172865492Y-86740462D01*
X172913653Y-86768268D01*
X172934012Y-86780022D01*
X173010438Y-86800500D01*
X173089562Y-86800500D01*
X173145877Y-86800500D01*
X173198203Y-86822174D01*
X173219877Y-86874500D01*
X173198203Y-86926826D01*
X173157203Y-86967826D01*
X173104877Y-86989500D01*
X172820252Y-86989500D01*
X172791010Y-86995316D01*
X172761767Y-87001133D01*
X172695449Y-87045447D01*
X172695447Y-87045449D01*
X172651133Y-87111767D01*
X172639500Y-87170253D01*
X172639500Y-87829746D01*
X172651133Y-87888232D01*
X172669842Y-87916231D01*
X172695448Y-87954552D01*
X172716062Y-87968326D01*
X172761767Y-87998866D01*
X172761768Y-87998866D01*
X172761769Y-87998867D01*
X172820252Y-88010500D01*
X172820254Y-88010500D01*
X173279746Y-88010500D01*
X173279748Y-88010500D01*
X173338231Y-87998867D01*
X173404552Y-87954552D01*
X173428060Y-87919369D01*
X173475152Y-87887905D01*
X173530701Y-87898955D01*
X173541914Y-87908157D01*
X173634257Y-88000500D01*
X173634259Y-88000501D01*
X173634260Y-88000502D01*
X173650542Y-88009902D01*
X173685022Y-88054834D01*
X173677631Y-88110987D01*
X173665876Y-88126309D01*
X173665188Y-88126996D01*
X173599297Y-88241122D01*
X173599293Y-88241131D01*
X173565187Y-88368418D01*
X173565187Y-88500207D01*
X173599293Y-88627494D01*
X173599294Y-88627497D01*
X173599295Y-88627499D01*
X173665187Y-88741627D01*
X173758373Y-88834813D01*
X173872501Y-88900705D01*
X173999792Y-88934812D01*
X173999793Y-88934813D01*
X173999795Y-88934813D01*
X174131578Y-88934813D01*
X174131579Y-88934813D01*
X174258873Y-88900705D01*
X174258875Y-88900703D01*
X174258877Y-88900703D01*
X174260857Y-88899883D01*
X174261938Y-88899882D01*
X174263558Y-88899449D01*
X174263674Y-88899882D01*
X174317494Y-88899879D01*
X174356322Y-88937137D01*
X174370826Y-88968439D01*
X174371774Y-88991424D01*
X174376262Y-89013990D01*
X174373026Y-89021799D01*
X174373160Y-89025028D01*
X174370487Y-89027930D01*
X174365214Y-89040660D01*
X174361133Y-89046767D01*
X174349500Y-89105253D01*
X174349500Y-89375500D01*
X174327826Y-89427826D01*
X174275500Y-89449500D01*
X174010436Y-89449500D01*
X173934014Y-89469977D01*
X173934009Y-89469979D01*
X173898537Y-89490460D01*
X173865488Y-89509540D01*
X173572203Y-89802826D01*
X173519877Y-89824500D01*
X172880252Y-89824500D01*
X172851010Y-89830316D01*
X172821767Y-89836133D01*
X172755449Y-89880447D01*
X172755447Y-89880449D01*
X172711133Y-89946767D01*
X172707803Y-89963510D01*
X172699684Y-90004330D01*
X172699500Y-90005253D01*
X172699500Y-90994746D01*
X172711133Y-91053232D01*
X172722794Y-91070683D01*
X172755448Y-91119552D01*
X172799560Y-91149027D01*
X172821767Y-91163866D01*
X172821768Y-91163866D01*
X172821769Y-91163867D01*
X172880252Y-91175500D01*
X172880254Y-91175500D01*
X173719746Y-91175500D01*
X173719748Y-91175500D01*
X173778231Y-91163867D01*
X173844552Y-91119552D01*
X173888867Y-91053231D01*
X173900500Y-90994748D01*
X173900500Y-90355123D01*
X173922174Y-90302797D01*
X174152797Y-90072174D01*
X174205123Y-90050500D01*
X174275500Y-90050500D01*
X174327826Y-90072174D01*
X174349500Y-90124500D01*
X174349500Y-90394746D01*
X174361133Y-90453232D01*
X174382034Y-90484511D01*
X174405448Y-90519552D01*
X174434799Y-90539164D01*
X174471767Y-90563866D01*
X174471768Y-90563866D01*
X174471769Y-90563867D01*
X174530252Y-90575500D01*
X174530254Y-90575500D01*
X175169746Y-90575500D01*
X175169748Y-90575500D01*
X175228231Y-90563867D01*
X175294552Y-90519552D01*
X175294556Y-90519545D01*
X175298174Y-90515929D01*
X175350500Y-90494255D01*
X175402826Y-90515929D01*
X175424500Y-90568255D01*
X175424500Y-90969748D01*
X175436133Y-91028231D01*
X175436134Y-91028232D01*
X175437028Y-91029570D01*
X175437959Y-91032640D01*
X175438922Y-91034964D01*
X175438693Y-91035058D01*
X175449500Y-91070683D01*
X175449500Y-91750500D01*
X175427826Y-91802826D01*
X175375500Y-91824500D01*
X174880252Y-91824500D01*
X174851010Y-91830316D01*
X174821767Y-91836133D01*
X174755449Y-91880447D01*
X174755447Y-91880449D01*
X174711133Y-91946767D01*
X174706290Y-91971117D01*
X174702886Y-91988232D01*
X174699500Y-92005253D01*
X174699500Y-92994746D01*
X174711133Y-93053232D01*
X174711134Y-93053233D01*
X174755448Y-93119552D01*
X174778428Y-93134907D01*
X174821767Y-93163866D01*
X174821768Y-93163866D01*
X174821769Y-93163867D01*
X174880252Y-93175500D01*
X174880254Y-93175500D01*
X175719746Y-93175500D01*
X175719748Y-93175500D01*
X175778231Y-93163867D01*
X175844552Y-93119552D01*
X175888867Y-93053231D01*
X175900500Y-92994748D01*
X175900500Y-92355123D01*
X175922174Y-92302797D01*
X175990460Y-92234511D01*
X175998850Y-92219979D01*
X176030021Y-92165989D01*
X176050499Y-92089564D01*
X176050500Y-92089564D01*
X176050500Y-91070683D01*
X176061306Y-91035058D01*
X176061078Y-91034964D01*
X176062040Y-91032640D01*
X176062972Y-91029570D01*
X176063867Y-91028231D01*
X176075500Y-90969748D01*
X176075500Y-90330252D01*
X176063867Y-90271769D01*
X176019552Y-90205448D01*
X175989739Y-90185527D01*
X175958275Y-90138436D01*
X175969325Y-90082887D01*
X176016417Y-90051422D01*
X176030853Y-90050000D01*
X176400000Y-90050000D01*
X176400000Y-88574000D01*
X176421674Y-88521674D01*
X176474000Y-88500000D01*
X176526000Y-88500000D01*
X176578326Y-88521674D01*
X176600000Y-88574000D01*
X176600000Y-90050000D01*
X176969147Y-90050000D01*
X177021473Y-90071674D01*
X177043147Y-90124000D01*
X177021473Y-90176326D01*
X177010260Y-90185528D01*
X176980449Y-90205447D01*
X176980447Y-90205449D01*
X176936133Y-90271767D01*
X176936133Y-90271769D01*
X176924500Y-90330252D01*
X176924500Y-90969748D01*
X176929473Y-90994748D01*
X176936133Y-91028232D01*
X176952838Y-91053232D01*
X176980448Y-91094552D01*
X177017860Y-91119550D01*
X177046767Y-91138866D01*
X177046768Y-91138866D01*
X177046769Y-91138867D01*
X177105252Y-91150500D01*
X177294877Y-91150500D01*
X177347203Y-91172174D01*
X178307826Y-92132797D01*
X178329500Y-92185123D01*
X178329500Y-92489748D01*
X178331639Y-92500500D01*
X178341133Y-92548232D01*
X178370608Y-92592343D01*
X178385448Y-92614552D01*
X178429560Y-92644027D01*
X178451767Y-92658866D01*
X178451768Y-92658866D01*
X178451769Y-92658867D01*
X178510252Y-92670500D01*
X178510254Y-92670500D01*
X179489746Y-92670500D01*
X179489748Y-92670500D01*
X179548231Y-92658867D01*
X179614552Y-92614552D01*
X179658867Y-92548231D01*
X179658867Y-92548229D01*
X179659716Y-92546182D01*
X179661283Y-92544614D01*
X179662917Y-92542170D01*
X179663403Y-92542494D01*
X179699764Y-92506133D01*
X179728083Y-92500500D01*
X180894746Y-92500500D01*
X180894748Y-92500500D01*
X180953231Y-92488867D01*
X180953232Y-92488866D01*
X180956063Y-92488303D01*
X181011612Y-92499352D01*
X181043078Y-92546444D01*
X181044500Y-92560881D01*
X181044500Y-93626000D01*
X181049197Y-93669684D01*
X181060407Y-93721215D01*
X181062888Y-93731370D01*
X181062889Y-93731372D01*
X181105899Y-93812083D01*
X181105901Y-93812087D01*
X181137373Y-93848407D01*
X181151655Y-93864889D01*
X181169246Y-93882843D01*
X181249061Y-93927489D01*
X181249062Y-93927489D01*
X181249063Y-93927490D01*
X181276249Y-93935473D01*
X181316098Y-93947174D01*
X181316099Y-93947174D01*
X181316102Y-93947175D01*
X181374000Y-93955500D01*
X183908461Y-93955500D01*
X183960787Y-93977174D01*
X183965734Y-93982640D01*
X185505577Y-95864669D01*
X187731017Y-98584651D01*
X187753311Y-98607912D01*
X187782243Y-98633706D01*
X187861099Y-98677490D01*
X187879306Y-98682836D01*
X187928133Y-98697174D01*
X187928136Y-98697174D01*
X187928138Y-98697175D01*
X187986036Y-98705500D01*
X187986040Y-98705500D01*
X193076001Y-98705500D01*
X193080241Y-98705043D01*
X193119684Y-98700803D01*
X193171195Y-98689597D01*
X193174234Y-98688854D01*
X193181370Y-98687111D01*
X193181371Y-98687110D01*
X193181373Y-98687110D01*
X193262085Y-98644100D01*
X193314889Y-98598345D01*
X193332843Y-98580754D01*
X193377490Y-98500937D01*
X193397175Y-98433898D01*
X193405500Y-98376000D01*
X193405500Y-95170253D01*
X196049500Y-95170253D01*
X196049500Y-97469746D01*
X196061133Y-97528232D01*
X196090608Y-97572343D01*
X196105448Y-97594552D01*
X196133349Y-97613195D01*
X196171767Y-97638866D01*
X196171768Y-97638866D01*
X196171769Y-97638867D01*
X196230252Y-97650500D01*
X196260500Y-97650500D01*
X196312826Y-97672174D01*
X196334500Y-97724500D01*
X196334500Y-102209036D01*
X196333589Y-102220612D01*
X196299501Y-102435842D01*
X196299501Y-102664157D01*
X196335215Y-102889656D01*
X196335217Y-102889665D01*
X196361175Y-102969552D01*
X196395878Y-103076358D01*
X196399500Y-103099223D01*
X196399500Y-103719748D01*
X196404473Y-103744748D01*
X196411133Y-103778232D01*
X196427838Y-103803232D01*
X196455448Y-103844552D01*
X196464350Y-103850500D01*
X196521767Y-103888866D01*
X196521768Y-103888866D01*
X196521769Y-103888867D01*
X196580252Y-103900500D01*
X197200775Y-103900500D01*
X197223642Y-103904122D01*
X197410330Y-103964781D01*
X197410336Y-103964782D01*
X197410341Y-103964784D01*
X197524371Y-103982844D01*
X197635842Y-104000499D01*
X197635843Y-104000499D01*
X197864158Y-104000499D01*
X197920532Y-103991570D01*
X198089659Y-103964784D01*
X198089666Y-103964781D01*
X198089669Y-103964781D01*
X198276358Y-103904122D01*
X198299225Y-103900500D01*
X198919746Y-103900500D01*
X198919748Y-103900500D01*
X198978231Y-103888867D01*
X199044552Y-103844552D01*
X199088867Y-103778231D01*
X199100500Y-103719748D01*
X199100500Y-103145951D01*
X199108566Y-103112355D01*
X199129231Y-103071799D01*
X199143631Y-103027481D01*
X199199781Y-102854670D01*
X199199781Y-102854667D01*
X199199784Y-102854660D01*
X199216281Y-102750500D01*
X199225638Y-102691421D01*
X199235500Y-102629158D01*
X199235500Y-97724500D01*
X199257174Y-97672174D01*
X199309500Y-97650500D01*
X199339746Y-97650500D01*
X199339748Y-97650500D01*
X199398231Y-97638867D01*
X199464552Y-97594552D01*
X199508867Y-97528231D01*
X199520500Y-97469748D01*
X199520500Y-95170252D01*
X199508867Y-95111769D01*
X199464552Y-95045448D01*
X199439326Y-95028592D01*
X199398232Y-95001133D01*
X199398233Y-95001133D01*
X199368989Y-94995316D01*
X199339748Y-94989500D01*
X199339746Y-94989500D01*
X198386514Y-94989500D01*
X198352919Y-94981435D01*
X198341798Y-94975768D01*
X198341793Y-94975766D01*
X198124670Y-94905218D01*
X198124657Y-94905215D01*
X197899158Y-94869500D01*
X197899157Y-94869500D01*
X197670843Y-94869500D01*
X197670842Y-94869500D01*
X197445342Y-94905215D01*
X197445329Y-94905218D01*
X197228206Y-94975766D01*
X197228201Y-94975768D01*
X197217081Y-94981435D01*
X197183486Y-94989500D01*
X196230252Y-94989500D01*
X196201010Y-94995316D01*
X196171767Y-95001133D01*
X196105449Y-95045447D01*
X196105447Y-95045449D01*
X196061133Y-95111767D01*
X196049500Y-95170253D01*
X193405500Y-95170253D01*
X193405500Y-95053335D01*
X193404007Y-95028611D01*
X193400417Y-94998989D01*
X193400416Y-94998986D01*
X193400415Y-94998981D01*
X193374047Y-94920394D01*
X193374046Y-94920390D01*
X193338917Y-94859995D01*
X193302613Y-94814135D01*
X193247336Y-94761767D01*
X183928607Y-85933497D01*
X183905527Y-85881776D01*
X183905500Y-85879777D01*
X183905500Y-85199499D01*
X183927174Y-85147173D01*
X183979500Y-85125499D01*
X184057376Y-85125499D01*
X184109702Y-85147173D01*
X184477826Y-85515297D01*
X184496899Y-85561344D01*
X184498867Y-85561085D01*
X184499500Y-85565894D01*
X184533606Y-85693181D01*
X184533610Y-85693190D01*
X184594989Y-85799500D01*
X184599500Y-85807314D01*
X184692686Y-85900500D01*
X184806814Y-85966392D01*
X184934105Y-86000499D01*
X184934106Y-86000500D01*
X184934108Y-86000500D01*
X185065894Y-86000500D01*
X185065894Y-86000499D01*
X185193186Y-85966392D01*
X185307314Y-85900500D01*
X185400500Y-85807314D01*
X185466392Y-85693186D01*
X185500499Y-85565894D01*
X185500500Y-85565894D01*
X185500500Y-85434106D01*
X185500499Y-85434105D01*
X185488382Y-85388885D01*
X185466392Y-85306814D01*
X185400500Y-85192686D01*
X185307314Y-85099500D01*
X185264013Y-85074500D01*
X185193190Y-85033610D01*
X185193181Y-85033606D01*
X185065894Y-84999500D01*
X185065892Y-84999500D01*
X184934108Y-84999500D01*
X184879047Y-85014252D01*
X184822894Y-85006858D01*
X184807570Y-84995099D01*
X184469673Y-84657202D01*
X184447999Y-84604876D01*
X184447999Y-84530253D01*
X192594500Y-84530253D01*
X192594500Y-86829746D01*
X192606133Y-86888232D01*
X192631922Y-86926826D01*
X192650448Y-86954552D01*
X192670314Y-86967826D01*
X192716767Y-86998866D01*
X192716768Y-86998866D01*
X192716769Y-86998867D01*
X192775252Y-87010500D01*
X192775254Y-87010500D01*
X195584746Y-87010500D01*
X195584748Y-87010500D01*
X195643231Y-86998867D01*
X195709552Y-86954552D01*
X195753867Y-86888231D01*
X195765500Y-86829748D01*
X195765500Y-84530252D01*
X195753867Y-84471769D01*
X195709552Y-84405448D01*
X195671651Y-84380123D01*
X195643232Y-84361133D01*
X195643233Y-84361133D01*
X195613989Y-84355316D01*
X195584748Y-84349500D01*
X192775252Y-84349500D01*
X192746010Y-84355316D01*
X192716767Y-84361133D01*
X192650449Y-84405447D01*
X192650447Y-84405449D01*
X192606133Y-84471767D01*
X192594500Y-84530253D01*
X184447999Y-84530253D01*
X184447999Y-84381862D01*
X184447770Y-84380123D01*
X184441759Y-84334455D01*
X184422250Y-84292619D01*
X184419779Y-84236038D01*
X184458042Y-84194280D01*
X184471752Y-84189461D01*
X184481373Y-84187110D01*
X184562085Y-84144100D01*
X184614889Y-84098345D01*
X184632843Y-84080754D01*
X184677490Y-84000937D01*
X184697175Y-83933898D01*
X184705500Y-83876000D01*
X184705500Y-81381408D01*
X184699452Y-81331920D01*
X184685070Y-81273956D01*
X184680477Y-81258175D01*
X184680473Y-81258168D01*
X184632863Y-81180094D01*
X184584115Y-81130023D01*
X184565521Y-81113127D01*
X184483245Y-81073180D01*
X184415195Y-81057418D01*
X184415185Y-81057417D01*
X184395757Y-81055765D01*
X184356904Y-81052463D01*
X184356902Y-81052463D01*
X183702181Y-81090482D01*
X177748290Y-81436220D01*
X177694796Y-81417615D01*
X177670124Y-81366634D01*
X177670000Y-81362344D01*
X177670000Y-81300000D01*
X176330000Y-81300000D01*
X176330000Y-81461807D01*
X176308326Y-81514133D01*
X176273836Y-81533625D01*
X176272998Y-81533833D01*
X176268629Y-81534967D01*
X176268625Y-81534969D01*
X176187919Y-81577975D01*
X176187912Y-81577980D01*
X176135115Y-81623730D01*
X176117155Y-81641327D01*
X176072510Y-81721140D01*
X176052825Y-81788177D01*
X176052824Y-81788182D01*
X176044500Y-81846076D01*
X176044500Y-85789118D01*
X176022826Y-85841444D01*
X175970500Y-85863118D01*
X175956064Y-85861696D01*
X175894748Y-85849500D01*
X175686949Y-85849500D01*
X175649949Y-85839586D01*
X175615990Y-85819979D01*
X175615985Y-85819977D01*
X175539564Y-85799500D01*
X175539562Y-85799500D01*
X173980123Y-85799500D01*
X173927797Y-85777826D01*
X173276797Y-85126826D01*
X173255123Y-85074500D01*
X173276797Y-85022174D01*
X173329123Y-85000500D01*
X173501374Y-85000500D01*
X173553700Y-85022174D01*
X173715354Y-85183828D01*
X173715357Y-85183830D01*
X173715358Y-85183831D01*
X173874593Y-85299523D01*
X173888903Y-85306814D01*
X174049974Y-85388883D01*
X174049976Y-85388883D01*
X174049979Y-85388885D01*
X174237166Y-85449707D01*
X174237168Y-85449707D01*
X174237173Y-85449709D01*
X174366779Y-85470236D01*
X174431582Y-85480500D01*
X174431583Y-85480500D01*
X174628417Y-85480500D01*
X174677018Y-85472802D01*
X174822826Y-85449709D01*
X175010026Y-85388883D01*
X175185405Y-85299523D01*
X175302246Y-85214633D01*
X175345742Y-85200500D01*
X175694746Y-85200500D01*
X175694748Y-85200500D01*
X175753231Y-85188867D01*
X175819552Y-85144552D01*
X175863867Y-85078231D01*
X175875500Y-85019748D01*
X175875500Y-83980252D01*
X175863867Y-83921769D01*
X175819552Y-83855448D01*
X175783386Y-83831282D01*
X175751921Y-83784189D01*
X175750500Y-83769754D01*
X175750500Y-83001582D01*
X175737859Y-82921769D01*
X175719709Y-82807174D01*
X175719707Y-82807169D01*
X175719706Y-82807163D01*
X175658886Y-82619980D01*
X175658884Y-82619977D01*
X175658884Y-82619975D01*
X175569524Y-82444595D01*
X175453831Y-82285358D01*
X175453830Y-82285357D01*
X175453828Y-82285354D01*
X175314646Y-82146172D01*
X175314643Y-82146169D01*
X175314641Y-82146168D01*
X175155404Y-82030475D01*
X174980019Y-81941113D01*
X174792836Y-81880293D01*
X174792823Y-81880290D01*
X174598418Y-81849500D01*
X174598417Y-81849500D01*
X174401583Y-81849500D01*
X174401582Y-81849500D01*
X174207176Y-81880290D01*
X174207163Y-81880293D01*
X174019980Y-81941113D01*
X173844595Y-82030475D01*
X173685358Y-82146168D01*
X173546168Y-82285358D01*
X173430475Y-82444595D01*
X173341113Y-82619980D01*
X173280293Y-82807163D01*
X173280290Y-82807176D01*
X173249500Y-83001582D01*
X173249500Y-83925500D01*
X173227826Y-83977826D01*
X173175500Y-83999500D01*
X173155252Y-83999500D01*
X173131858Y-84004153D01*
X173096766Y-84011133D01*
X173041113Y-84048321D01*
X172985564Y-84059371D01*
X172958887Y-84048321D01*
X172903233Y-84011133D01*
X172873989Y-84005316D01*
X172844748Y-83999500D01*
X172844746Y-83999500D01*
X172405123Y-83999500D01*
X172352797Y-83977826D01*
X171634511Y-83259540D01*
X171633359Y-83258875D01*
X171633348Y-83258860D01*
X171633345Y-83258867D01*
X171565990Y-83219979D01*
X171565985Y-83219977D01*
X171489564Y-83199500D01*
X171489562Y-83199500D01*
X171449500Y-83199500D01*
X171397174Y-83177826D01*
X171375500Y-83125500D01*
X171375500Y-82980253D01*
X171375500Y-82980252D01*
X171363867Y-82921769D01*
X171319552Y-82855448D01*
X171297343Y-82840608D01*
X171253232Y-82811133D01*
X171253233Y-82811133D01*
X171223989Y-82805316D01*
X171194748Y-82799500D01*
X170305252Y-82799500D01*
X170276010Y-82805316D01*
X170246767Y-82811133D01*
X170180449Y-82855447D01*
X170180447Y-82855449D01*
X170136133Y-82921767D01*
X170124500Y-82980253D01*
X169874990Y-82980253D01*
X169863396Y-82921964D01*
X169819192Y-82855808D01*
X169819191Y-82855807D01*
X169753035Y-82811603D01*
X169694697Y-82800000D01*
X169350000Y-82800000D01*
X169350000Y-83400000D01*
X169150000Y-83400000D01*
X169150000Y-82800000D01*
X168805303Y-82800000D01*
X168746964Y-82811603D01*
X168680808Y-82855807D01*
X168680807Y-82855808D01*
X168636603Y-82921964D01*
X168625000Y-82980302D01*
X164500500Y-82980302D01*
X164500500Y-80910302D01*
X176330000Y-80910302D01*
X176330000Y-81100000D01*
X176900000Y-81100000D01*
X177100000Y-81100000D01*
X177670000Y-81100000D01*
X177670000Y-80910302D01*
X177658396Y-80851964D01*
X177614192Y-80785808D01*
X177614191Y-80785807D01*
X177548035Y-80741603D01*
X177489697Y-80730000D01*
X177100000Y-80730000D01*
X177100000Y-81100000D01*
X176900000Y-81100000D01*
X176900000Y-80730000D01*
X176510303Y-80730000D01*
X176451964Y-80741603D01*
X176385808Y-80785807D01*
X176385807Y-80785808D01*
X176341603Y-80851964D01*
X176330000Y-80910302D01*
X164500500Y-80910302D01*
X164500500Y-77389776D01*
X166599500Y-77389776D01*
X166599500Y-77610223D01*
X166633984Y-77827948D01*
X166633987Y-77827961D01*
X166702103Y-78037602D01*
X166702104Y-78037605D01*
X166702105Y-78037606D01*
X166802185Y-78234022D01*
X166931758Y-78412365D01*
X167087635Y-78568242D01*
X167265978Y-78697815D01*
X167462394Y-78797895D01*
X167462397Y-78797896D01*
X167462396Y-78797896D01*
X167672038Y-78866012D01*
X167672044Y-78866013D01*
X167672049Y-78866015D01*
X167780913Y-78883257D01*
X167889776Y-78900500D01*
X167889778Y-78900500D01*
X168110224Y-78900500D01*
X168197313Y-78886706D01*
X168327951Y-78866015D01*
X168327958Y-78866012D01*
X168327961Y-78866012D01*
X168455812Y-78824471D01*
X168537606Y-78797895D01*
X168734022Y-78697815D01*
X168912365Y-78568242D01*
X169068242Y-78412365D01*
X169197815Y-78234022D01*
X169297895Y-78037606D01*
X169366015Y-77827951D01*
X169400500Y-77610222D01*
X169400500Y-77389778D01*
X169392580Y-77339776D01*
X169366015Y-77172051D01*
X169366012Y-77172038D01*
X169297896Y-76962397D01*
X169297895Y-76962396D01*
X169297895Y-76962394D01*
X169197815Y-76765978D01*
X169068242Y-76587635D01*
X168912365Y-76431758D01*
X168790461Y-76343190D01*
X168734024Y-76302186D01*
X168635894Y-76252186D01*
X168537606Y-76202105D01*
X168537605Y-76202104D01*
X168537602Y-76202103D01*
X168537603Y-76202103D01*
X168376122Y-76149636D01*
X168327961Y-76133987D01*
X168327948Y-76133984D01*
X168110224Y-76099500D01*
X168110222Y-76099500D01*
X167889778Y-76099500D01*
X167889776Y-76099500D01*
X167672051Y-76133984D01*
X167672038Y-76133987D01*
X167462397Y-76202103D01*
X167265976Y-76302186D01*
X167265975Y-76302186D01*
X167087639Y-76431755D01*
X167087635Y-76431758D01*
X166931758Y-76587635D01*
X166931755Y-76587638D01*
X166931755Y-76587639D01*
X166802186Y-76765975D01*
X166802186Y-76765976D01*
X166702103Y-76962397D01*
X166633987Y-77172038D01*
X166633984Y-77172051D01*
X166599500Y-77389776D01*
X164500500Y-77389776D01*
X164500500Y-76084105D01*
X171499500Y-76084105D01*
X171499500Y-76215894D01*
X171533606Y-76343181D01*
X171533610Y-76343190D01*
X171590759Y-76442174D01*
X171599500Y-76457314D01*
X171692686Y-76550500D01*
X171806814Y-76616392D01*
X171934105Y-76650499D01*
X171934106Y-76650500D01*
X171934108Y-76650500D01*
X172065894Y-76650500D01*
X172065894Y-76650499D01*
X172193186Y-76616392D01*
X172248747Y-76584313D01*
X172304897Y-76576920D01*
X172338613Y-76601078D01*
X172340294Y-76599398D01*
X172345448Y-76604552D01*
X172411767Y-76648866D01*
X172411768Y-76648866D01*
X172411769Y-76648867D01*
X172470252Y-76660500D01*
X172704877Y-76660500D01*
X172757203Y-76682174D01*
X173667826Y-77592797D01*
X173689500Y-77645123D01*
X173689500Y-77929746D01*
X173701133Y-77988232D01*
X173722158Y-78019697D01*
X173745448Y-78054552D01*
X173780592Y-78078035D01*
X173811767Y-78098866D01*
X173811768Y-78098866D01*
X173811769Y-78098867D01*
X173870252Y-78110500D01*
X173870254Y-78110500D01*
X174329746Y-78110500D01*
X174329748Y-78110500D01*
X174388231Y-78098867D01*
X174454552Y-78054552D01*
X174498867Y-77988231D01*
X174510500Y-77929748D01*
X174510500Y-77270252D01*
X174498867Y-77211769D01*
X174454552Y-77145448D01*
X174432343Y-77130608D01*
X174388232Y-77101133D01*
X174388233Y-77101133D01*
X174358989Y-77095316D01*
X174329748Y-77089500D01*
X174329746Y-77089500D01*
X174045123Y-77089500D01*
X173992797Y-77067826D01*
X173711797Y-76786826D01*
X173690123Y-76734500D01*
X173711797Y-76682174D01*
X173764123Y-76660500D01*
X174029746Y-76660500D01*
X174029748Y-76660500D01*
X174088231Y-76648867D01*
X174154552Y-76604552D01*
X174198867Y-76538231D01*
X174204470Y-76510063D01*
X174235936Y-76462971D01*
X174277048Y-76450500D01*
X174759941Y-76450500D01*
X174812267Y-76472174D01*
X174832519Y-76510062D01*
X174836133Y-76528233D01*
X174865495Y-76572174D01*
X174880448Y-76594552D01*
X174913135Y-76616393D01*
X174946767Y-76638866D01*
X174946768Y-76638866D01*
X174946769Y-76638867D01*
X175005252Y-76650500D01*
X175545877Y-76650500D01*
X175598203Y-76672174D01*
X175619877Y-76724500D01*
X175598203Y-76776826D01*
X175307203Y-77067826D01*
X175254877Y-77089500D01*
X174970252Y-77089500D01*
X174941010Y-77095316D01*
X174911767Y-77101133D01*
X174845449Y-77145447D01*
X174845447Y-77145449D01*
X174801133Y-77211767D01*
X174789500Y-77270253D01*
X174789500Y-77929746D01*
X174801133Y-77988232D01*
X174822158Y-78019697D01*
X174845448Y-78054552D01*
X174880592Y-78078035D01*
X174911767Y-78098866D01*
X174911768Y-78098866D01*
X174911769Y-78098867D01*
X174970252Y-78110500D01*
X174970254Y-78110500D01*
X175429746Y-78110500D01*
X175429748Y-78110500D01*
X175488231Y-78098867D01*
X175554552Y-78054552D01*
X175598867Y-77988231D01*
X175610500Y-77929748D01*
X175610500Y-77645123D01*
X175632174Y-77592797D01*
X176552797Y-76672174D01*
X176605123Y-76650500D01*
X176894746Y-76650500D01*
X176894748Y-76650500D01*
X176953231Y-76638867D01*
X177019552Y-76594552D01*
X177063867Y-76528231D01*
X177073448Y-76480062D01*
X177104914Y-76432971D01*
X177146026Y-76420500D01*
X177512034Y-76420500D01*
X177564360Y-76442174D01*
X177642686Y-76520500D01*
X177756814Y-76586392D01*
X177884105Y-76620499D01*
X177884106Y-76620500D01*
X177884108Y-76620500D01*
X178015894Y-76620500D01*
X178015894Y-76620499D01*
X178143186Y-76586392D01*
X178257314Y-76520500D01*
X178335640Y-76442174D01*
X178387966Y-76420500D01*
X179241414Y-76420500D01*
X179293740Y-76442174D01*
X179302941Y-76453386D01*
X179330448Y-76494552D01*
X179369280Y-76520499D01*
X179396767Y-76538866D01*
X179396768Y-76538866D01*
X179396769Y-76538867D01*
X179455252Y-76550500D01*
X179475500Y-76550500D01*
X179527826Y-76572174D01*
X179549500Y-76624500D01*
X179549500Y-76954877D01*
X179527826Y-77007203D01*
X178609540Y-77925488D01*
X178577068Y-77981732D01*
X178554095Y-78006260D01*
X178495450Y-78045446D01*
X178495447Y-78045449D01*
X178451133Y-78111767D01*
X178439500Y-78170253D01*
X178439500Y-78829746D01*
X178451133Y-78888232D01*
X178459331Y-78900500D01*
X178495448Y-78954552D01*
X178530384Y-78977896D01*
X178561767Y-78998866D01*
X178561768Y-78998866D01*
X178561769Y-78998867D01*
X178620252Y-79010500D01*
X178620254Y-79010500D01*
X179079746Y-79010500D01*
X179079748Y-79010500D01*
X179138231Y-78998867D01*
X179204552Y-78954552D01*
X179248867Y-78888231D01*
X179254470Y-78860063D01*
X179285936Y-78812971D01*
X179327048Y-78800500D01*
X180025500Y-78800500D01*
X180077826Y-78822174D01*
X180099500Y-78874500D01*
X180099500Y-79494748D01*
X180102759Y-79511133D01*
X180111133Y-79553232D01*
X180131951Y-79584387D01*
X180143001Y-79639935D01*
X180111536Y-79687028D01*
X180070423Y-79699500D01*
X179490059Y-79699500D01*
X179437733Y-79677826D01*
X179417481Y-79639938D01*
X179413866Y-79621766D01*
X179372173Y-79559371D01*
X179369552Y-79555448D01*
X179347343Y-79540608D01*
X179303232Y-79511133D01*
X179303233Y-79511133D01*
X179273989Y-79505316D01*
X179244748Y-79499500D01*
X178455252Y-79499500D01*
X178431858Y-79504153D01*
X178396766Y-79511133D01*
X178341113Y-79548321D01*
X178285564Y-79559371D01*
X178258887Y-79548321D01*
X178203233Y-79511133D01*
X178173989Y-79505316D01*
X178144748Y-79499500D01*
X178144746Y-79499500D01*
X178124500Y-79499500D01*
X178072174Y-79477826D01*
X178050500Y-79425500D01*
X178050500Y-79030222D01*
X178072174Y-78977896D01*
X178083389Y-78968693D01*
X178104549Y-78954554D01*
X178104548Y-78954554D01*
X178104552Y-78954552D01*
X178148867Y-78888231D01*
X178160500Y-78829748D01*
X178160500Y-78170252D01*
X178148867Y-78111769D01*
X178104552Y-78045448D01*
X178066014Y-78019697D01*
X178038232Y-78001133D01*
X178038233Y-78001133D01*
X178002426Y-77994011D01*
X177979748Y-77989500D01*
X177520252Y-77989500D01*
X177497574Y-77994011D01*
X177461767Y-78001133D01*
X177395449Y-78045447D01*
X177395447Y-78045449D01*
X177351133Y-78111767D01*
X177339500Y-78170253D01*
X177339500Y-78829746D01*
X177351133Y-78888232D01*
X177395447Y-78954551D01*
X177395450Y-78954554D01*
X177416611Y-78968693D01*
X177448078Y-79015784D01*
X177449500Y-79030222D01*
X177449500Y-79425500D01*
X177427826Y-79477826D01*
X177375500Y-79499500D01*
X177355252Y-79499500D01*
X177326010Y-79505316D01*
X177296767Y-79511133D01*
X177230449Y-79555447D01*
X177230447Y-79555449D01*
X177186133Y-79621767D01*
X177174500Y-79680253D01*
X177174500Y-80319746D01*
X177186133Y-80378232D01*
X177200000Y-80398984D01*
X177230448Y-80444552D01*
X177241113Y-80451678D01*
X177296767Y-80488866D01*
X177296768Y-80488866D01*
X177296769Y-80488867D01*
X177355252Y-80500500D01*
X177355254Y-80500500D01*
X178144746Y-80500500D01*
X178144748Y-80500500D01*
X178203231Y-80488867D01*
X178258887Y-80451677D01*
X178314435Y-80440628D01*
X178341113Y-80451678D01*
X178396767Y-80488866D01*
X178396768Y-80488866D01*
X178396769Y-80488867D01*
X178455252Y-80500500D01*
X178455254Y-80500500D01*
X179244746Y-80500500D01*
X179244748Y-80500500D01*
X179303231Y-80488867D01*
X179369552Y-80444552D01*
X179413867Y-80378231D01*
X179417481Y-80360061D01*
X179448948Y-80312971D01*
X179490059Y-80300500D01*
X181339564Y-80300500D01*
X181339564Y-80300499D01*
X181415989Y-80280021D01*
X181484511Y-80240460D01*
X181540460Y-80184511D01*
X182027797Y-79697174D01*
X182080123Y-79675500D01*
X182719746Y-79675500D01*
X182719748Y-79675500D01*
X182778231Y-79663867D01*
X182844552Y-79619552D01*
X182888867Y-79553231D01*
X182900500Y-79494748D01*
X182900500Y-79374500D01*
X182922174Y-79322174D01*
X182974500Y-79300500D01*
X187644877Y-79300500D01*
X187697203Y-79322174D01*
X188351622Y-79976593D01*
X188373296Y-80028919D01*
X188365231Y-80062514D01*
X188294777Y-80200786D01*
X188231525Y-80395455D01*
X188231522Y-80395468D01*
X188199500Y-80597646D01*
X188199500Y-80802353D01*
X188231522Y-81004531D01*
X188231525Y-81004544D01*
X188294777Y-81199213D01*
X188387613Y-81381415D01*
X188387713Y-81381610D01*
X188483996Y-81514133D01*
X188485367Y-81516019D01*
X188499500Y-81559515D01*
X188499500Y-82419748D01*
X188507255Y-82458736D01*
X188511133Y-82478232D01*
X188540608Y-82522343D01*
X188555448Y-82544552D01*
X188599560Y-82574027D01*
X188621767Y-82588866D01*
X188621768Y-82588866D01*
X188621769Y-82588867D01*
X188680252Y-82600500D01*
X188680254Y-82600500D01*
X190319746Y-82600500D01*
X190319748Y-82600500D01*
X190378231Y-82588867D01*
X190444552Y-82544552D01*
X190488867Y-82478231D01*
X190500500Y-82419748D01*
X190500500Y-82074500D01*
X190522174Y-82022174D01*
X190574500Y-82000500D01*
X193302354Y-82000500D01*
X193383224Y-81987690D01*
X193504534Y-81968477D01*
X193504541Y-81968474D01*
X193504544Y-81968474D01*
X193699213Y-81905222D01*
X193699213Y-81905221D01*
X193699219Y-81905220D01*
X193881610Y-81812287D01*
X194047219Y-81691966D01*
X194191966Y-81547219D01*
X194312287Y-81381610D01*
X194405220Y-81199219D01*
X194468477Y-81004534D01*
X194500500Y-80802352D01*
X194500500Y-80597648D01*
X194468477Y-80395466D01*
X194468475Y-80395461D01*
X194468474Y-80395455D01*
X194405222Y-80200786D01*
X194405220Y-80200783D01*
X194405220Y-80200781D01*
X194357079Y-80106300D01*
X194312287Y-80018389D01*
X194258745Y-79944695D01*
X194191966Y-79852781D01*
X194047219Y-79708034D01*
X193983040Y-79661406D01*
X193881610Y-79587712D01*
X193699213Y-79494777D01*
X193504544Y-79431525D01*
X193504531Y-79431522D01*
X193302354Y-79399500D01*
X193302352Y-79399500D01*
X190565059Y-79399500D01*
X190512733Y-79377826D01*
X190492481Y-79339938D01*
X190488867Y-79321769D01*
X190488866Y-79321768D01*
X190488866Y-79321766D01*
X190462253Y-79281939D01*
X190444552Y-79255448D01*
X190422343Y-79240608D01*
X190378232Y-79211133D01*
X190378233Y-79211133D01*
X190348989Y-79205316D01*
X190319748Y-79199500D01*
X188680252Y-79199500D01*
X188651010Y-79205316D01*
X188621767Y-79211133D01*
X188560966Y-79251760D01*
X188505417Y-79262809D01*
X188467528Y-79242557D01*
X187984511Y-78759540D01*
X187951463Y-78740460D01*
X187915990Y-78719979D01*
X187915985Y-78719977D01*
X187839564Y-78699500D01*
X187839562Y-78699500D01*
X182974500Y-78699500D01*
X182922174Y-78677826D01*
X182900500Y-78625500D01*
X182900500Y-78505253D01*
X182900500Y-78505252D01*
X182888867Y-78446769D01*
X182844552Y-78380448D01*
X182817482Y-78362360D01*
X182778232Y-78336133D01*
X182778233Y-78336133D01*
X182748989Y-78330316D01*
X182719748Y-78324500D01*
X181880252Y-78324500D01*
X181851010Y-78330316D01*
X181821767Y-78336133D01*
X181755449Y-78380447D01*
X181755447Y-78380449D01*
X181711133Y-78446767D01*
X181699500Y-78505253D01*
X181699500Y-79144877D01*
X181677826Y-79197203D01*
X181426826Y-79448203D01*
X181374500Y-79469877D01*
X181322174Y-79448203D01*
X181300500Y-79395877D01*
X181300500Y-78505253D01*
X181300500Y-78505252D01*
X181288867Y-78446769D01*
X181244552Y-78380448D01*
X181217482Y-78362360D01*
X181178232Y-78336133D01*
X181178233Y-78336133D01*
X181148989Y-78330316D01*
X181119748Y-78324500D01*
X181119746Y-78324500D01*
X180480123Y-78324500D01*
X180434480Y-78308747D01*
X180430958Y-78305987D01*
X180384511Y-78259540D01*
X180340312Y-78234022D01*
X180329599Y-78227836D01*
X180315990Y-78219979D01*
X180315985Y-78219977D01*
X180239564Y-78199500D01*
X180239562Y-78199500D01*
X179364122Y-78199500D01*
X179311796Y-78177826D01*
X179290122Y-78125500D01*
X179311796Y-78073174D01*
X179365273Y-78019697D01*
X188500000Y-78019697D01*
X188511603Y-78078035D01*
X188555807Y-78144191D01*
X188555808Y-78144192D01*
X188621964Y-78188396D01*
X188680303Y-78200000D01*
X189400000Y-78200000D01*
X189600000Y-78200000D01*
X190319697Y-78200000D01*
X190378035Y-78188396D01*
X190444191Y-78144192D01*
X190444192Y-78144191D01*
X190488396Y-78078035D01*
X190500000Y-78019697D01*
X190500000Y-77339776D01*
X196899500Y-77339776D01*
X196899500Y-77560223D01*
X196933984Y-77777948D01*
X196933987Y-77777961D01*
X197002103Y-77987602D01*
X197002104Y-77987605D01*
X197002105Y-77987606D01*
X197095169Y-78170253D01*
X197102186Y-78184023D01*
X197102186Y-78184024D01*
X197128309Y-78219979D01*
X197231758Y-78362365D01*
X197387635Y-78518242D01*
X197565978Y-78647815D01*
X197762394Y-78747895D01*
X197762397Y-78747896D01*
X197762396Y-78747896D01*
X197972038Y-78816012D01*
X197972044Y-78816013D01*
X197972049Y-78816015D01*
X198080913Y-78833257D01*
X198189776Y-78850500D01*
X198189778Y-78850500D01*
X198410224Y-78850500D01*
X198497313Y-78836706D01*
X198627951Y-78816015D01*
X198627958Y-78816012D01*
X198627961Y-78816012D01*
X198723133Y-78785088D01*
X198837606Y-78747895D01*
X199034022Y-78647815D01*
X199212365Y-78518242D01*
X199368242Y-78362365D01*
X199497815Y-78184022D01*
X199597895Y-77987606D01*
X199666015Y-77777951D01*
X199700500Y-77560222D01*
X199700500Y-77339778D01*
X199693330Y-77294511D01*
X199680225Y-77211767D01*
X199666015Y-77122049D01*
X199666013Y-77122044D01*
X199666012Y-77122038D01*
X199597896Y-76912397D01*
X199597895Y-76912396D01*
X199597895Y-76912394D01*
X199497815Y-76715978D01*
X199368242Y-76537635D01*
X199212365Y-76381758D01*
X199102842Y-76302185D01*
X199034024Y-76252186D01*
X198837602Y-76152103D01*
X198837603Y-76152103D01*
X198627961Y-76083987D01*
X198627948Y-76083984D01*
X198410224Y-76049500D01*
X198410222Y-76049500D01*
X198189778Y-76049500D01*
X198189776Y-76049500D01*
X197972051Y-76083984D01*
X197972038Y-76083987D01*
X197762397Y-76152103D01*
X197565976Y-76252186D01*
X197565975Y-76252186D01*
X197404165Y-76369748D01*
X197387635Y-76381758D01*
X197231758Y-76537635D01*
X197231755Y-76537638D01*
X197231755Y-76537639D01*
X197102186Y-76715975D01*
X197102186Y-76715976D01*
X197002103Y-76912397D01*
X196933987Y-77122038D01*
X196933984Y-77122051D01*
X196899500Y-77339776D01*
X190500000Y-77339776D01*
X190500000Y-76600000D01*
X189600000Y-76600000D01*
X189600000Y-78200000D01*
X189400000Y-78200000D01*
X189400000Y-76600000D01*
X188500000Y-76600000D01*
X188500000Y-78019697D01*
X179365273Y-78019697D01*
X179607022Y-77777948D01*
X180090460Y-77294511D01*
X180130022Y-77225988D01*
X180150500Y-77149562D01*
X180150500Y-77070438D01*
X180150500Y-76624500D01*
X180172174Y-76572174D01*
X180224500Y-76550500D01*
X180244746Y-76550500D01*
X180244748Y-76550500D01*
X180303231Y-76538867D01*
X180359336Y-76501377D01*
X180414884Y-76490328D01*
X180441561Y-76501377D01*
X180496964Y-76538396D01*
X180555303Y-76550000D01*
X180850000Y-76550000D01*
X181050000Y-76550000D01*
X181344697Y-76550000D01*
X181403035Y-76538396D01*
X181448798Y-76507819D01*
X181469191Y-76494192D01*
X181469192Y-76494191D01*
X181513396Y-76428035D01*
X181525000Y-76369697D01*
X181525000Y-76150000D01*
X181050000Y-76150000D01*
X181050000Y-76550000D01*
X180850000Y-76550000D01*
X180850000Y-75950000D01*
X181050000Y-75950000D01*
X181525000Y-75950000D01*
X181525000Y-75730302D01*
X181513396Y-75671964D01*
X181469192Y-75605808D01*
X181469191Y-75605807D01*
X181403035Y-75561603D01*
X181344697Y-75550000D01*
X181050000Y-75550000D01*
X181050000Y-75950000D01*
X180850000Y-75950000D01*
X180850000Y-75550000D01*
X180555303Y-75550000D01*
X180496963Y-75561604D01*
X180496962Y-75561604D01*
X180441560Y-75598622D01*
X180386011Y-75609671D01*
X180359336Y-75598621D01*
X180303233Y-75561133D01*
X180273989Y-75555316D01*
X180244748Y-75549500D01*
X179455252Y-75549500D01*
X179426010Y-75555316D01*
X179396767Y-75561133D01*
X179330449Y-75605447D01*
X179330447Y-75605449D01*
X179286133Y-75671767D01*
X179274500Y-75730253D01*
X179274500Y-75745500D01*
X179252826Y-75797826D01*
X179200500Y-75819500D01*
X178387966Y-75819500D01*
X178335640Y-75797826D01*
X178257314Y-75719500D01*
X178143190Y-75653610D01*
X178143181Y-75653606D01*
X178015894Y-75619500D01*
X178015892Y-75619500D01*
X177884108Y-75619500D01*
X177884106Y-75619500D01*
X177756818Y-75653606D01*
X177756809Y-75653610D01*
X177642685Y-75719500D01*
X177564360Y-75797826D01*
X177512034Y-75819500D01*
X177133083Y-75819500D01*
X177080757Y-75797826D01*
X177064716Y-75773818D01*
X177063867Y-75771769D01*
X177036126Y-75730253D01*
X177019552Y-75705448D01*
X176986864Y-75683606D01*
X176953232Y-75661133D01*
X176953233Y-75661133D01*
X176915390Y-75653606D01*
X176894748Y-75649500D01*
X176105252Y-75649500D01*
X176084610Y-75653606D01*
X176046766Y-75661133D01*
X175991113Y-75698321D01*
X175935564Y-75709371D01*
X175908887Y-75698321D01*
X175853233Y-75661133D01*
X175815390Y-75653606D01*
X175794748Y-75649500D01*
X175005252Y-75649500D01*
X174984610Y-75653606D01*
X174946767Y-75661133D01*
X174880449Y-75705447D01*
X174880447Y-75705449D01*
X174836133Y-75771766D01*
X174832519Y-75789938D01*
X174801052Y-75837029D01*
X174759941Y-75849500D01*
X174277048Y-75849500D01*
X174224722Y-75827826D01*
X174204470Y-75789937D01*
X174204182Y-75788491D01*
X174198867Y-75761769D01*
X174154552Y-75695448D01*
X174132343Y-75680608D01*
X174088232Y-75651133D01*
X174088233Y-75651133D01*
X174058989Y-75645316D01*
X174029748Y-75639500D01*
X173570252Y-75639500D01*
X173541010Y-75645316D01*
X173511767Y-75651133D01*
X173445449Y-75695447D01*
X173445447Y-75695449D01*
X173401133Y-75761767D01*
X173389500Y-75820253D01*
X173389500Y-76285877D01*
X173367826Y-76338203D01*
X173315500Y-76359877D01*
X173263174Y-76338203D01*
X173132174Y-76207203D01*
X173110500Y-76154877D01*
X173110500Y-75820253D01*
X173104470Y-75789937D01*
X173098867Y-75761769D01*
X173054552Y-75695448D01*
X173032343Y-75680608D01*
X172988232Y-75651133D01*
X172988233Y-75651133D01*
X172958989Y-75645316D01*
X172929748Y-75639500D01*
X172470252Y-75639500D01*
X172441010Y-75645316D01*
X172411767Y-75651133D01*
X172345445Y-75695450D01*
X172340292Y-75700603D01*
X172338359Y-75698670D01*
X172300179Y-75724179D01*
X172248747Y-75715686D01*
X172193190Y-75683610D01*
X172193181Y-75683606D01*
X172065894Y-75649500D01*
X172065892Y-75649500D01*
X171934108Y-75649500D01*
X171934106Y-75649500D01*
X171806818Y-75683606D01*
X171806809Y-75683610D01*
X171692685Y-75749500D01*
X171599500Y-75842685D01*
X171533610Y-75956809D01*
X171533606Y-75956818D01*
X171499500Y-76084105D01*
X164500500Y-76084105D01*
X164500500Y-74980302D01*
X188500000Y-74980302D01*
X188500000Y-76400000D01*
X189400000Y-76400000D01*
X189600000Y-76400000D01*
X190500000Y-76400000D01*
X190500000Y-74980302D01*
X190488396Y-74921964D01*
X190444192Y-74855808D01*
X190444191Y-74855807D01*
X190378035Y-74811603D01*
X190319697Y-74800000D01*
X189600000Y-74800000D01*
X189600000Y-76400000D01*
X189400000Y-76400000D01*
X189400000Y-74800000D01*
X188680303Y-74800000D01*
X188621964Y-74811603D01*
X188555808Y-74855807D01*
X188555807Y-74855808D01*
X188511603Y-74921964D01*
X188500000Y-74980302D01*
X164500500Y-74980302D01*
X164500500Y-74574500D01*
X164522174Y-74522174D01*
X164574500Y-74500500D01*
X201775500Y-74500500D01*
X201827826Y-74522174D01*
G37*
%TD.AperFunction*%
%TD*%
%TA.AperFunction,Conductor*%
%TO.N,Net-(IC2-VIN)*%
G36*
X184436879Y-81273382D02*
G01*
X184485618Y-81323444D01*
X184500000Y-81381408D01*
X184500000Y-83876000D01*
X184480315Y-83943039D01*
X184427511Y-83988794D01*
X184376000Y-84000000D01*
X180499999Y-84000000D01*
X180203036Y-84296963D01*
X180151471Y-84326734D01*
X180151526Y-84326865D01*
X180150530Y-84327277D01*
X180147450Y-84329056D01*
X180144017Y-84329975D01*
X180144014Y-84329976D01*
X180075492Y-84369538D01*
X180075486Y-84369542D01*
X178056848Y-86388181D01*
X177995525Y-86421666D01*
X177969167Y-86424500D01*
X177830247Y-86424500D01*
X177771770Y-86436131D01*
X177771769Y-86436132D01*
X177705447Y-86480447D01*
X177661132Y-86546769D01*
X177661131Y-86546770D01*
X177649500Y-86605247D01*
X177649500Y-86626000D01*
X177629815Y-86693039D01*
X177577011Y-86738794D01*
X177525500Y-86750000D01*
X176583952Y-86750000D01*
X176516913Y-86730315D01*
X176471158Y-86677511D01*
X176468821Y-86672052D01*
X176258869Y-86147172D01*
X176250000Y-86101120D01*
X176250000Y-81846079D01*
X176269685Y-81779040D01*
X176322489Y-81733285D01*
X176366807Y-81722289D01*
X177255057Y-81670708D01*
X177262245Y-81670500D01*
X177489750Y-81670500D01*
X177489751Y-81670499D01*
X177501993Y-81668064D01*
X177560211Y-81656485D01*
X177560310Y-81656987D01*
X177583691Y-81651625D01*
X184368815Y-81257617D01*
X184436879Y-81273382D01*
G37*
%TD.AperFunction*%
%TD*%
%TA.AperFunction,Conductor*%
%TO.N,Net-(IC2-SW)*%
G36*
X183490288Y-84269685D02*
G01*
X183536043Y-84322489D01*
X183546194Y-84377802D01*
X183547000Y-84377802D01*
X183547000Y-84838132D01*
X183547001Y-84838138D01*
X183553241Y-84885545D01*
X183553242Y-84885547D01*
X183553242Y-84885548D01*
X183601753Y-84989579D01*
X183663681Y-85051507D01*
X183697166Y-85112830D01*
X183700000Y-85139188D01*
X183700000Y-86000000D01*
X193161281Y-94963318D01*
X193196410Y-95023713D01*
X193200000Y-95053335D01*
X193200000Y-98376000D01*
X193180315Y-98443039D01*
X193127511Y-98488794D01*
X193076000Y-98500000D01*
X187986036Y-98500000D01*
X187918997Y-98480315D01*
X187890065Y-98454521D01*
X184040911Y-93750000D01*
X181374000Y-93750000D01*
X181306961Y-93730315D01*
X181261206Y-93677511D01*
X181250000Y-93626000D01*
X181250000Y-91624000D01*
X181269685Y-91556961D01*
X181322489Y-91511206D01*
X181374000Y-91500000D01*
X181700000Y-91500000D01*
X181700000Y-84374000D01*
X181719685Y-84306961D01*
X181772489Y-84261206D01*
X181824000Y-84250000D01*
X183423249Y-84250000D01*
X183490288Y-84269685D01*
G37*
%TD.AperFunction*%
%TD*%
M02*
